<?xml version="1.0" encoding="UTF-8" ?>
<!DOCTYPE svg PUBLIC "-//W3C//DTD SVG 1.1//EN" "http://www.w3.org/Graphics/SVG/1.1/DTD/svg11.dtd">
<svg width="956pt" height="335pt" viewBox="0 0 956 335" version="1.1" xmlns="http://www.w3.org/2000/svg">
    <path fill="#ffffff" opacity="1.00" d=" M 0.00 0.00 L 956.00 0.00 L 956.00 335.00 L 0.00 335.00 L 0.00 0.00 M 103.81 42.36 C 111.08 43.03 117.78 39.28 124.99 39.18 C 138.01 38.43 149.97 46.42 157.24 56.75 C 163.65 65.61 166.51 76.36 169.19 86.79 C 172.11 97.57 170.68 109.27 166.34 119.47 C 161.88 126.90 154.67 132.50 146.57 135.48 C 131.95 140.76 115.81 141.63 100.69 138.14 C 91.07 134.95 84.62 126.17 80.97 117.11 C 76.90 107.02 77.25 95.76 79.34 85.27 C 80.99 77.42 85.46 70.58 90.24 64.29 C 93.50 59.88 97.98 56.65 101.97 52.95 C 104.88 50.29 108.53 48.72 111.92 46.79 C 108.40 44.85 104.49 46.15 101.66 48.63 C 95.53 53.88 90.58 60.36 85.83 66.85 C 80.97 73.69 76.93 81.46 76.14 89.94 C 75.22 99.08 74.84 108.73 78.45 117.38 C 80.36 122.26 83.28 126.62 86.11 130.99 C 79.46 134.85 74.61 140.88 69.16 146.16 C 58.24 156.10 48.87 167.80 41.77 180.77 C 37.56 188.67 35.63 197.52 34.06 206.26 C 32.22 217.09 30.56 227.99 30.19 238.99 C 29.83 241.41 31.75 242.94 33.56 244.09 C 33.49 238.68 33.13 233.24 33.97 227.87 C 36.08 213.45 37.29 198.58 43.20 185.08 C 48.83 173.15 57.09 162.67 66.24 153.25 C 71.32 148.67 76.07 143.74 81.04 139.05 C 83.37 136.90 86.29 134.40 89.71 135.27 C 93.24 136.60 96.18 139.15 99.80 140.29 C 113.26 144.13 127.51 142.73 141.04 139.98 C 148.67 138.33 155.68 134.58 161.75 129.75 C 163.92 127.60 166.98 128.92 169.50 129.57 C 177.35 132.25 183.48 138.11 190.00 143.00 C 205.35 154.60 217.12 171.03 222.58 189.52 C 228.19 206.34 226.38 224.28 227.53 241.68 C 228.90 240.06 230.78 238.44 230.58 236.10 C 230.80 228.05 229.66 220.05 229.42 212.01 C 228.06 184.15 213.70 157.27 191.28 140.68 C 183.85 134.43 176.20 127.40 166.10 126.23 C 167.47 124.18 168.92 122.16 169.82 119.85 C 173.90 107.82 175.33 94.38 170.99 82.20 C 168.55 75.07 167.11 67.48 163.04 61.01 C 156.20 48.33 143.84 37.79 129.05 36.62 C 120.38 36.47 111.48 38.22 103.81 42.36 M 125.05 63.96 C 126.07 72.18 126.08 80.49 127.25 88.69 C 127.29 91.19 129.69 92.28 131.44 93.55 C 128.73 83.46 129.20 72.95 127.38 62.72 C 126.80 63.03 125.63 63.65 125.05 63.96 M 112.78 89.89 C 112.66 91.89 115.19 92.30 116.43 93.29 C 115.75 87.53 114.41 81.86 114.26 76.05 C 113.82 71.46 114.68 65.98 110.70 62.66 C 111.25 71.74 112.50 80.78 112.78 89.89 M 887.12 69.18 C 877.72 69.62 868.35 70.47 858.96 70.90 C 830.00 73.02 800.93 72.88 772.01 75.60 C 756.98 77.07 741.82 77.40 726.90 79.89 C 724.86 80.06 723.61 81.75 722.31 83.11 C 729.03 82.86 735.54 80.97 742.23 80.38 C 762.31 78.70 782.37 76.82 802.49 75.69 C 819.72 75.24 836.94 74.51 854.15 73.56 C 870.67 72.76 887.17 71.15 903.72 71.13 C 902.89 87.38 898.96 103.28 897.50 119.47 C 894.91 138.51 893.04 157.85 895.32 177.03 C 895.55 187.81 897.69 198.40 898.80 209.09 C 884.55 209.99 870.24 210.01 856.01 211.33 C 847.55 211.08 839.19 212.38 830.76 212.65 C 813.11 213.65 795.45 215.66 777.76 214.45 C 775.14 214.04 772.69 212.91 770.05 212.65 C 755.79 212.22 741.50 213.11 727.24 212.59 C 726.43 210.79 725.96 208.86 725.47 206.95 C 723.85 195.03 724.78 182.97 723.80 171.00 C 723.41 161.63 724.00 152.25 723.46 142.88 C 723.32 131.60 722.58 120.34 722.33 109.05 C 721.64 102.53 722.16 95.72 719.76 89.50 C 718.72 101.99 720.90 114.48 720.65 126.99 C 722.57 156.84 719.62 186.94 723.47 216.67 C 727.61 216.60 731.76 216.55 735.88 216.05 C 744.47 214.92 753.15 215.63 761.77 215.84 C 771.14 216.93 780.60 216.48 790.00 217.13 C 797.33 217.09 804.66 216.58 811.96 215.91 C 834.33 215.23 856.56 212.09 878.97 212.31 C 887.23 211.16 895.47 212.78 903.74 212.60 C 899.74 201.17 898.64 189.01 898.06 176.99 C 896.61 164.03 896.77 150.98 897.98 138.02 C 900.15 118.25 902.92 98.55 906.25 78.95 C 907.05 75.10 907.76 71.21 907.85 67.26 C 900.90 67.51 894.06 68.87 887.12 69.18 M 532.99 72.23 C 524.98 72.41 517.01 71.50 509.00 71.64 C 490.89 72.40 472.96 75.33 454.87 76.39 C 452.43 76.56 450.18 75.56 448.00 74.64 C 446.22 75.66 444.47 76.84 442.43 77.22 C 434.33 78.44 426.12 78.47 417.95 78.82 C 402.14 80.20 386.26 80.23 370.43 81.27 C 370.86 82.14 371.71 83.88 372.14 84.75 C 382.72 83.43 393.35 82.59 404.01 82.30 C 417.61 81.02 431.29 80.88 444.89 79.61 C 444.45 83.07 444.06 86.53 443.62 89.98 C 442.82 95.91 439.48 101.05 436.40 106.02 C 436.75 103.79 437.14 101.56 437.50 99.33 C 436.56 99.31 434.67 99.26 433.72 99.24 C 432.19 103.23 433.21 107.36 435.20 110.98 C 439.65 108.26 441.35 103.17 443.81 98.87 C 444.96 101.12 446.12 103.36 447.48 105.49 C 447.13 101.99 446.37 98.54 446.19 95.03 C 445.79 89.68 447.71 84.58 448.73 79.41 C 455.04 78.41 461.45 78.49 467.80 77.78 C 467.38 81.41 467.00 85.18 468.53 88.63 C 469.66 85.64 470.17 82.41 471.73 79.60 C 472.63 77.99 474.83 77.95 476.42 78.34 C 478.70 81.17 480.23 84.95 479.48 88.62 C 478.80 91.47 476.74 93.65 475.00 95.91 C 473.77 93.75 472.49 91.63 470.96 89.68 C 470.94 97.33 471.42 105.05 472.91 112.56 C 476.45 108.66 473.45 103.32 474.40 98.73 C 476.99 96.60 480.54 95.09 481.56 91.60 C 483.35 86.55 480.87 81.45 479.26 76.73 C 494.37 74.42 509.72 73.82 525.00 74.49 C 538.22 74.38 551.41 75.43 564.63 75.40 C 565.95 79.79 566.74 84.35 566.65 88.95 C 566.69 102.91 566.36 116.88 567.41 130.81 C 567.23 144.58 568.85 158.27 569.84 171.99 C 571.80 184.16 573.11 196.43 574.77 208.64 C 572.17 208.64 569.58 208.57 566.99 208.68 C 552.40 210.40 537.67 209.22 523.02 209.50 C 513.32 209.36 503.71 210.76 494.02 210.68 C 468.32 211.61 442.67 213.51 416.98 214.82 C 406.30 215.86 395.67 217.74 384.89 217.41 C 383.04 209.53 381.27 201.62 380.26 193.58 C 378.60 182.10 378.44 170.49 377.48 158.95 C 376.46 142.66 376.30 126.32 375.01 110.04 C 374.43 103.52 375.02 96.79 372.85 90.51 C 371.45 102.33 373.66 114.16 373.90 125.98 C 374.01 136.97 374.42 147.96 374.98 158.95 C 376.05 170.60 376.07 182.33 377.71 193.93 C 378.52 202.91 380.98 211.64 381.72 220.63 C 391.15 220.01 400.60 219.59 409.96 218.19 C 424.60 216.70 439.32 216.01 454.02 215.21 C 466.64 214.00 479.32 213.62 491.99 213.39 C 503.97 212.66 515.97 211.98 527.98 212.22 C 542.66 212.49 557.37 212.00 572.03 212.77 C 574.74 213.01 578.88 211.69 578.20 208.26 C 577.09 200.14 575.43 192.10 574.54 183.95 C 570.10 157.55 569.65 130.71 569.35 104.00 C 569.41 93.02 569.88 81.94 567.61 71.12 C 556.20 73.55 544.54 72.08 532.99 72.23 M 518.20 80.50 C 518.57 83.27 519.29 86.01 519.30 88.81 C 518.04 90.38 516.39 91.56 514.91 92.90 C 516.44 93.50 517.97 94.08 519.51 94.66 C 520.43 97.37 521.52 100.02 523.00 102.48 C 523.27 99.14 523.18 95.79 523.14 92.45 C 529.22 92.38 535.55 90.57 541.29 93.51 C 539.47 97.49 537.18 101.22 534.98 104.98 C 530.79 111.89 527.57 119.35 524.93 126.96 C 528.03 123.17 530.39 118.87 532.56 114.49 C 538.52 103.80 544.57 92.98 553.12 84.10 C 552.54 83.63 551.38 82.70 550.80 82.23 C 547.73 85.15 545.13 88.50 542.65 91.93 C 540.08 90.51 537.57 89.00 535.04 87.52 C 531.44 90.61 526.66 89.73 522.33 89.62 C 521.92 86.53 521.53 83.45 521.26 80.35 C 520.24 80.40 519.22 80.45 518.20 80.50 M 416.00 87.45 C 417.69 87.41 419.39 87.36 421.09 87.32 C 420.20 85.33 419.36 83.02 416.96 82.49 C 415.54 83.81 415.97 85.74 416.00 87.45 M 401.83 86.77 C 401.54 94.68 401.25 102.63 401.94 110.53 C 405.34 108.32 406.62 104.41 408.16 100.88 C 409.19 104.04 409.58 108.07 413.28 109.26 C 412.74 104.57 412.18 99.78 410.32 95.39 C 408.28 96.92 406.32 98.54 404.36 100.15 C 403.76 95.76 406.22 89.66 401.83 86.77 M 499.03 98.82 C 498.14 96.45 497.33 94.04 496.31 91.72 C 492.48 96.41 496.51 102.71 499.86 106.50 C 501.31 103.27 502.26 99.84 503.70 96.60 C 505.24 93.14 508.46 90.91 510.92 88.17 C 504.37 87.10 501.48 94.11 499.03 98.82 M 380.23 92.17 C 380.28 92.85 380.40 94.22 380.46 94.90 C 386.68 92.85 393.17 92.07 399.68 91.65 C 393.80 87.38 386.48 90.64 380.23 92.17 M 484.56 91.70 C 483.17 94.58 483.09 98.28 484.97 100.96 C 487.48 102.93 490.61 103.88 493.44 105.30 C 492.20 99.81 493.21 93.54 489.13 89.05 C 487.58 89.88 485.85 90.48 484.56 91.70 M 389.90 101.88 C 390.35 106.26 390.49 110.92 393.05 114.70 C 393.99 107.70 392.94 100.43 390.76 93.75 C 389.82 96.35 389.57 99.14 389.90 101.88 M 421.19 99.75 C 420.88 103.06 421.32 106.38 422.90 109.35 C 426.33 105.18 429.60 100.83 432.36 96.18 C 428.64 97.40 425.17 99.48 421.19 99.75 M 415.15 99.27 C 415.26 102.93 415.76 106.57 416.61 110.13 C 417.30 110.27 418.70 110.54 419.39 110.68 C 418.88 106.54 418.50 102.39 418.42 98.22 C 417.60 98.48 415.97 99.01 415.15 99.27 M 806.29 105.27 C 801.59 110.29 798.79 116.78 797.23 123.41 C 794.85 131.98 795.56 140.96 794.59 149.72 C 789.43 150.28 784.18 150.70 779.26 152.46 C 779.75 153.18 780.73 154.61 781.23 155.32 C 785.85 154.32 790.52 153.49 795.26 153.24 C 796.07 165.97 794.70 178.81 796.47 191.47 C 797.73 188.83 798.85 186.03 798.78 183.04 C 798.96 173.00 798.31 162.97 798.57 152.93 C 807.52 151.67 816.48 149.25 825.58 150.61 C 825.64 149.16 825.68 147.71 825.72 146.26 C 816.49 146.37 807.45 148.32 798.31 149.32 C 798.86 139.33 799.60 129.19 802.75 119.63 C 804.84 114.36 808.05 109.04 813.16 106.24 C 816.23 104.49 820.39 105.78 822.12 108.81 C 826.35 115.75 823.62 124.65 827.89 131.58 C 831.31 126.50 829.09 120.40 828.22 114.93 C 827.29 110.78 826.57 105.81 822.67 103.35 C 817.72 99.80 810.52 101.26 806.29 105.27 M 103.97 108.01 C 107.93 112.46 112.42 116.94 118.23 118.80 C 128.99 121.46 141.29 115.76 146.35 105.94 C 140.82 108.19 137.03 113.25 131.41 115.32 C 126.53 117.28 120.75 117.34 116.05 114.84 C 110.56 112.04 107.29 106.49 102.29 103.03 C 102.46 104.79 102.60 106.70 103.97 108.01 M 666.22 115.13 C 666.30 115.69 666.46 116.80 666.54 117.36 C 673.26 117.85 681.03 118.98 685.47 124.63 C 686.87 126.17 685.13 127.90 683.98 128.94 C 680.70 131.50 676.86 133.25 673.64 135.91 C 679.01 135.25 684.69 133.55 688.25 129.20 C 689.62 127.66 690.30 124.99 688.57 123.43 C 682.97 117.34 674.34 114.72 666.22 115.13 M 478.18 136.57 C 480.71 134.25 482.34 131.15 484.79 128.75 C 487.94 125.97 492.66 124.20 496.70 126.10 C 501.90 128.47 505.83 134.15 505.42 139.96 C 504.21 147.20 496.83 152.49 489.59 151.74 C 488.54 146.67 488.23 141.50 488.07 136.34 C 487.47 136.01 486.27 135.34 485.67 135.01 C 485.43 140.43 485.89 145.83 486.72 151.18 C 488.17 159.96 487.31 168.93 488.84 177.71 C 489.68 176.00 490.71 174.26 490.72 172.29 C 490.77 166.44 490.23 160.60 489.53 154.80 C 493.77 154.21 498.18 153.36 501.58 150.57 C 506.30 147.04 509.87 140.50 507.27 134.68 C 505.03 129.04 500.46 123.38 494.02 122.77 C 486.37 122.35 477.88 128.38 478.18 136.57 M 602.97 124.71 C 599.68 124.79 596.49 125.74 593.59 127.25 C 600.74 128.18 607.84 126.29 615.01 126.67 C 635.41 127.95 655.87 126.98 676.28 126.29 C 676.32 125.90 676.38 125.11 676.41 124.72 C 663.64 124.30 650.87 124.84 638.09 124.78 C 626.38 125.07 614.67 124.28 602.97 124.71 M 421.44 126.85 C 421.44 131.23 421.00 135.60 419.80 139.82 C 417.29 150.90 413.24 161.53 410.44 172.54 C 409.11 178.23 406.60 183.65 406.16 189.53 C 411.61 183.50 412.08 174.96 414.55 167.56 C 419.86 166.45 424.51 163.55 429.59 161.77 C 431.42 169.41 433.13 177.09 434.88 184.76 C 435.78 184.70 437.58 184.59 438.48 184.53 C 436.88 179.42 435.02 174.38 433.92 169.12 C 431.55 154.79 426.26 141.04 425.26 126.46 C 423.98 126.59 422.71 126.72 421.44 126.85 M 459.94 129.95 C 454.52 132.90 449.30 137.41 448.06 143.76 C 451.97 141.86 453.62 137.55 456.99 135.00 C 460.30 132.34 464.52 130.23 468.88 130.72 C 473.07 131.88 473.39 136.94 472.54 140.47 C 470.81 147.49 466.05 153.73 459.68 157.18 C 458.90 152.04 458.99 146.80 457.99 141.69 C 457.28 143.07 456.22 144.38 456.22 146.01 C 456.10 156.62 457.94 167.12 459.87 177.52 C 463.49 171.86 459.95 165.31 459.52 159.28 C 462.77 157.84 466.32 156.52 468.57 153.60 C 472.13 149.12 474.94 143.76 475.31 137.96 C 475.53 134.54 474.52 130.51 471.24 128.81 C 467.63 126.81 463.35 128.25 459.94 129.95 M 328.07 140.25 C 328.19 141.70 328.31 143.14 328.44 144.59 C 338.94 147.03 349.62 150.18 358.54 156.42 C 354.04 161.93 346.76 163.31 341.20 167.30 C 339.25 168.30 339.88 170.68 339.81 172.45 C 347.16 165.94 358.32 164.73 363.89 156.10 C 353.38 147.98 340.17 145.11 328.07 140.25 M 237.16 155.44 C 237.30 155.95 237.59 156.97 237.74 157.48 C 252.81 158.38 267.91 158.84 283.00 158.87 C 292.66 158.49 302.33 158.40 312.00 158.56 C 323.64 158.77 335.37 158.17 346.90 160.08 C 347.70 159.09 348.03 157.84 348.44 156.66 C 334.63 156.52 320.82 156.15 307.01 156.29 C 296.67 155.92 286.34 156.79 276.01 156.57 C 263.04 156.73 250.12 155.11 237.16 155.44 M 620.54 170.41 C 615.08 173.35 610.98 178.21 605.56 181.23 C 607.71 184.28 609.73 188.02 613.61 189.05 C 618.08 190.04 622.72 189.53 627.26 189.35 C 621.74 188.51 616.07 187.86 611.11 185.09 C 611.53 184.23 611.96 183.39 612.39 182.54 C 629.24 181.48 646.14 181.53 663.00 182.26 C 671.16 182.33 679.34 182.23 687.44 181.17 C 678.84 178.72 669.83 180.02 661.04 179.63 C 645.95 179.04 630.84 179.63 615.74 179.24 C 618.97 175.39 623.47 173.01 627.06 169.56 C 624.86 169.39 622.50 169.18 620.54 170.41 M 241.02 204.42 C 239.56 206.43 242.09 208.49 243.83 209.23 C 253.63 213.76 263.70 217.65 273.60 221.94 C 272.82 220.29 272.30 218.24 270.45 217.46 C 264.77 214.63 258.60 212.90 252.94 210.02 C 250.57 208.69 247.52 208.12 245.95 205.71 C 245.19 204.05 246.76 202.85 247.71 201.73 C 251.86 197.56 257.08 194.49 260.56 189.65 C 259.93 189.25 258.66 188.44 258.02 188.04 C 252.29 193.42 246.00 198.30 241.02 204.42 M 248.57 204.46 C 248.73 205.06 249.06 206.25 249.23 206.85 C 252.02 208.07 255.09 206.51 257.96 206.29 C 269.85 204.19 281.97 204.05 294.01 204.23 C 307.69 204.63 321.38 204.48 335.06 204.60 C 339.04 204.60 343.00 205.10 346.91 205.84 C 347.52 204.69 348.15 203.56 348.79 202.43 C 342.65 200.82 336.26 201.90 330.01 201.69 C 315.00 201.51 299.99 201.73 285.00 200.96 C 272.81 201.27 260.49 201.69 248.57 204.46 M 701.71 221.57 C 701.60 222.25 701.39 223.60 701.28 224.27 C 704.27 224.79 707.28 225.16 710.30 225.57 C 705.43 228.93 700.09 231.51 694.53 233.50 C 691.72 234.43 689.21 236.06 687.26 238.29 C 693.37 238.82 698.75 235.45 704.17 233.19 C 708.35 231.43 712.20 228.77 714.39 224.69 C 715.48 225.12 716.58 225.55 717.68 225.99 C 715.08 229.29 711.98 232.24 709.93 235.93 C 709.27 237.53 708.40 240.40 710.94 240.68 C 715.24 235.10 719.98 229.82 723.87 223.95 C 723.41 223.39 722.50 222.27 722.05 221.71 C 715.28 221.44 708.48 221.22 701.71 221.57 M 801.85 225.79 C 803.20 227.07 804.54 228.39 806.06 229.49 C 808.47 228.94 807.14 225.98 807.52 224.23 C 805.61 224.70 803.72 225.22 801.85 225.79 M 735.38 225.24 C 732.48 226.84 729.70 230.30 730.90 233.77 C 732.71 239.89 738.69 243.76 739.98 250.14 C 736.39 250.87 732.75 251.26 729.11 251.40 C 729.22 252.06 729.44 253.38 729.55 254.04 C 734.37 255.15 739.34 254.45 743.85 252.49 C 743.61 249.25 742.71 246.02 740.45 243.58 C 737.85 239.98 733.29 236.14 734.92 231.21 C 736.54 227.25 741.11 229.70 744.21 229.69 C 744.32 228.99 744.54 227.58 744.64 226.88 C 741.77 225.65 738.50 223.63 735.38 225.24 M 842.52 233.41 C 838.00 235.53 833.00 239.45 833.23 244.96 C 833.21 248.59 835.95 251.98 839.61 252.47 C 842.57 253.22 845.22 251.40 847.62 249.93 C 843.57 249.80 839.10 250.24 835.99 247.09 C 841.16 244.01 847.29 241.61 850.09 235.83 C 847.85 234.43 845.32 231.84 842.52 233.41 M 745.61 246.01 C 745.93 250.14 748.95 254.25 753.20 254.93 C 756.50 255.74 759.63 253.88 762.48 252.45 C 758.42 252.41 754.33 252.25 750.44 251.00 C 750.44 250.32 750.44 248.97 750.44 248.30 C 754.63 245.60 758.61 242.56 762.03 238.90 C 760.48 237.61 759.30 235.18 756.97 235.47 C 751.51 235.87 745.77 240.20 745.61 246.01 M 770.52 240.58 C 767.77 242.47 764.34 241.49 761.26 241.59 C 761.55 244.65 762.23 247.67 763.38 250.54 C 768.60 247.40 772.79 242.85 778.10 239.83 C 778.70 242.81 779.04 245.90 780.34 248.69 C 781.42 251.63 785.87 252.25 787.95 250.01 C 791.93 246.52 795.26 242.37 799.21 238.84 C 799.58 243.04 799.91 247.26 801.00 251.35 C 804.18 247.02 803.33 241.48 803.50 236.46 C 801.73 236.27 799.96 235.72 798.19 236.02 C 792.67 238.80 789.85 245.10 784.11 247.54 C 780.76 244.84 782.93 239.75 782.90 236.07 C 778.33 236.01 774.33 238.33 770.52 240.58 M 817.65 237.54 C 813.17 240.68 811.78 249.07 817.30 251.92 C 820.60 253.69 824.10 251.48 826.81 249.64 C 823.88 249.52 820.94 249.56 818.02 249.55 C 817.83 247.93 817.36 246.28 817.70 244.66 C 819.15 242.41 821.43 240.90 823.38 239.11 C 821.63 238.18 819.70 236.09 817.65 237.54 M 244.73 247.82 C 244.60 248.37 244.33 249.47 244.20 250.03 C 248.76 254.02 252.41 258.99 257.42 262.46 C 257.79 257.05 253.02 253.45 250.89 248.92 C 259.35 255.85 270.32 258.11 280.59 261.02 C 280.59 260.35 280.58 258.99 280.58 258.31 C 271.35 256.49 261.73 254.54 253.97 248.88 C 256.99 247.15 260.36 246.19 263.53 244.79 C 264.11 242.43 261.11 241.11 259.28 242.15 C 254.42 244.03 249.77 246.44 244.73 247.82 M 213.34 250.34 C 206.93 254.84 200.22 259.10 192.74 261.59 C 186.36 263.69 180.02 266.01 173.41 267.31 C 166.00 268.78 158.77 271.05 151.30 272.19 C 136.45 275.34 121.11 275.27 106.08 273.58 C 94.65 272.46 82.88 272.15 72.07 267.83 C 57.87 262.48 44.88 254.31 33.33 244.55 C 33.29 246.45 33.46 248.58 35.03 249.90 C 39.33 254.14 44.77 256.94 49.72 260.33 C 55.68 264.46 62.47 267.10 69.07 270.03 C 81.36 275.17 94.89 275.24 107.94 276.64 C 117.93 277.78 128.00 277.46 138.03 277.19 C 149.94 276.28 161.46 272.87 173.02 270.10 C 180.91 268.43 188.58 265.90 196.15 263.17 C 203.58 260.51 209.91 255.69 216.52 251.53 C 219.79 249.29 224.06 247.54 224.76 243.12 C 220.25 244.30 217.06 247.80 213.34 250.34 M 653.78 250.70 C 649.94 251.53 646.18 252.68 642.63 254.35 C 647.13 256.52 651.91 254.52 656.43 253.54 C 660.98 252.45 666.01 251.93 669.49 248.44 C 664.14 248.14 658.95 249.59 653.78 250.70 M 818.36 255.23 C 818.39 256.29 818.42 257.36 818.46 258.44 C 819.75 259.24 821.04 260.05 822.36 260.84 C 822.81 259.13 823.25 257.41 823.67 255.69 C 821.89 255.53 820.12 255.37 818.36 255.23 M 852.18 254.09 C 850.70 261.61 848.60 269.12 844.63 275.73 C 843.64 277.45 841.88 278.47 840.29 279.55 C 840.58 276.84 841.13 274.18 841.71 271.52 C 840.26 271.48 838.81 271.44 837.38 271.40 C 836.86 274.31 835.41 277.71 837.37 280.41 C 838.59 282.35 841.23 284.53 843.49 282.73 C 847.31 278.97 849.00 273.64 851.44 268.97 C 852.61 273.20 853.15 277.80 856.09 281.29 C 856.05 276.49 855.25 271.76 854.75 267.01 C 854.29 263.25 855.77 259.55 855.26 255.81 C 854.25 255.19 853.22 254.61 852.18 254.09 M 737.57 268.91 C 737.83 275.26 740.18 281.31 742.81 287.02 C 743.60 288.86 745.31 290.01 746.84 291.21 C 746.69 288.22 746.28 285.26 745.61 282.35 C 749.10 279.90 752.62 276.99 753.98 272.77 C 755.64 268.57 753.58 263.61 749.94 261.19 C 744.70 258.48 737.22 262.84 737.57 268.91 M 298.69 261.78 C 301.00 262.83 303.41 263.65 305.91 264.12 C 311.90 265.19 317.68 267.16 323.71 268.06 C 323.72 267.40 323.73 266.08 323.74 265.43 C 315.51 263.72 307.18 260.70 298.69 261.78 M 890.66 269.89 C 889.04 269.02 887.44 268.14 885.84 267.28 C 885.37 270.74 886.23 274.82 883.70 277.65 C 880.84 280.88 877.22 283.91 872.84 284.60 C 870.18 285.18 868.98 282.43 867.58 280.75 C 870.20 279.68 872.98 278.92 875.39 277.39 C 878.39 275.54 879.08 271.33 877.97 268.21 C 877.40 265.66 873.96 266.02 872.22 267.11 C 868.71 269.49 865.88 273.03 864.53 277.07 C 864.14 280.80 865.66 285.25 869.23 286.96 C 873.34 288.53 877.39 286.07 880.47 283.51 C 883.13 281.00 886.43 279.41 890.01 278.68 C 893.33 272.42 897.31 266.15 903.81 262.79 C 903.07 262.41 901.59 261.64 900.84 261.26 C 897.07 263.66 893.57 266.48 890.66 269.89 M 584.23 267.96 C 577.40 269.54 570.46 270.54 563.56 271.76 C 563.89 272.48 564.54 273.91 564.87 274.63 C 575.84 272.98 586.82 271.03 597.49 267.95 C 593.37 265.44 588.57 267.17 584.23 267.96 M 354.76 269.81 C 356.06 271.10 357.61 272.29 359.47 272.64 C 367.77 274.40 376.31 273.67 384.70 273.02 C 384.72 272.39 384.78 271.13 384.80 270.50 C 377.42 270.35 369.99 271.34 362.64 270.27 C 360.02 269.98 357.39 269.71 354.76 269.81 M 764.65 272.59 C 762.40 274.51 761.03 277.32 758.58 279.00 C 756.73 279.50 754.79 279.56 752.91 279.87 C 754.40 282.62 756.41 285.06 758.96 286.89 C 761.07 283.95 762.83 280.78 764.81 277.75 C 766.90 274.47 770.11 272.18 772.69 269.32 C 769.86 269.92 766.84 270.55 764.65 272.59 M 780.42 270.25 C 777.73 271.31 776.97 274.41 776.56 276.98 C 775.93 280.48 779.02 284.60 782.82 283.79 C 787.45 283.64 790.57 278.75 789.46 274.39 C 789.11 270.18 783.82 268.38 780.42 270.25 M 498.00 272.72 C 497.75 273.36 497.25 274.64 497.01 275.28 C 506.17 276.36 516.05 275.98 524.43 271.76 C 515.61 270.30 506.87 273.67 498.00 272.72 M 798.97 281.12 C 798.10 278.46 799.70 273.40 795.76 273.21 C 793.08 277.29 795.59 282.66 799.31 285.09 C 800.50 286.03 802.11 285.04 803.10 284.24 C 807.01 280.83 810.14 276.51 812.02 271.67 C 806.86 273.81 804.83 280.41 798.97 281.12 M 419.09 273.11 C 419.19 273.71 419.39 274.93 419.49 275.53 C 427.27 276.82 435.12 275.71 442.95 275.67 C 445.96 275.70 449.00 275.23 451.73 273.88 C 440.96 271.44 429.96 273.83 419.09 273.11 M 816.77 282.00 C 817.79 283.01 818.99 283.82 820.17 284.67 C 819.91 281.15 819.55 277.63 819.58 274.09 C 818.80 273.87 817.24 273.42 816.46 273.19 C 816.36 276.11 815.82 279.17 816.77 282.00 Z" />
    <path fill="#322928" opacity="1.00" d=" M 103.81 42.36 C 111.48 38.22 120.38 36.47 129.05 36.62 C 143.84 37.79 156.20 48.33 163.04 61.01 C 167.11 67.48 168.55 75.07 170.99 82.20 C 175.33 94.38 173.90 107.82 169.82 119.85 C 168.92 122.16 167.47 124.18 166.10 126.23 C 176.20 127.40 183.85 134.43 191.28 140.68 C 213.70 157.27 228.06 184.15 229.42 212.01 C 229.66 220.05 230.80 228.05 230.58 236.10 C 230.78 238.44 228.90 240.06 227.53 241.68 C 226.38 224.28 228.19 206.34 222.58 189.52 C 217.12 171.03 205.35 154.60 190.00 143.00 C 183.48 138.11 177.35 132.25 169.50 129.57 C 166.98 128.92 163.92 127.60 161.75 129.75 C 155.68 134.58 148.67 138.33 141.04 139.98 C 127.51 142.73 113.26 144.13 99.80 140.29 C 96.18 139.15 93.24 136.60 89.71 135.27 C 86.29 134.40 83.37 136.90 81.04 139.05 C 76.07 143.74 71.32 148.67 66.24 153.25 C 57.09 162.67 48.83 173.15 43.20 185.08 C 37.29 198.58 36.08 213.45 33.97 227.87 C 33.13 233.24 33.49 238.68 33.56 244.09 C 31.75 242.94 29.83 241.41 30.19 238.99 C 30.56 227.99 32.22 217.09 34.06 206.26 C 35.63 197.52 37.56 188.67 41.77 180.77 C 48.87 167.80 58.24 156.10 69.16 146.16 C 74.61 140.88 79.46 134.85 86.11 130.99 C 83.28 126.62 80.36 122.26 78.45 117.38 C 74.84 108.73 75.22 99.08 76.14 89.94 C 76.93 81.46 80.97 73.69 85.83 66.85 C 90.58 60.36 95.53 53.88 101.66 48.63 C 104.49 46.15 108.40 44.85 111.92 46.79 C 108.53 48.72 104.88 50.29 101.97 52.95 C 97.98 56.65 93.50 59.88 90.24 64.29 C 85.46 70.58 80.99 77.42 79.34 85.27 C 77.25 95.76 76.90 107.02 80.97 117.11 C 84.62 126.17 91.07 134.95 100.69 138.14 C 115.81 141.63 131.95 140.76 146.57 135.48 C 154.67 132.50 161.88 126.90 166.34 119.47 C 170.68 109.27 172.11 97.57 169.19 86.79 C 166.51 76.36 163.65 65.61 157.24 56.75 C 149.97 46.42 138.01 38.43 124.99 39.18 C 117.78 39.28 111.08 43.03 103.81 42.36 Z" />
    <path fill="#322928" opacity="1.00" d=" M 125.05 63.96 C 125.63 63.65 126.80 63.03 127.38 62.72 C 129.20 72.95 128.73 83.46 131.44 93.55 C 129.69 92.28 127.29 91.19 127.25 88.69 C 126.08 80.49 126.07 72.18 125.05 63.96 Z" />
    <path fill="#322928" opacity="1.00" d=" M 112.78 89.89 C 112.50 80.78 111.25 71.74 110.70 62.66 C 114.68 65.98 113.82 71.46 114.26 76.05 C 114.41 81.86 115.75 87.53 116.43 93.29 C 115.19 92.30 112.66 91.89 112.78 89.89 Z" />
    <path fill="#322928" opacity="1.00" d=" M 887.12 69.18 C 894.06 68.87 900.90 67.51 907.85 67.26 C 907.76 71.21 907.05 75.10 906.25 78.95 C 902.92 98.55 900.15 118.25 897.98 138.02 C 896.77 150.98 896.61 164.03 898.06 176.99 C 898.64 189.01 899.74 201.17 903.74 212.60 C 895.47 212.78 887.23 211.16 878.97 212.31 C 856.56 212.09 834.33 215.23 811.96 215.91 C 804.66 216.58 797.33 217.09 790.00 217.13 C 780.60 216.48 771.14 216.93 761.77 215.84 C 753.15 215.63 744.47 214.92 735.88 216.05 C 731.76 216.55 727.61 216.60 723.47 216.67 C 719.62 186.94 722.57 156.84 720.65 126.99 C 720.90 114.48 718.72 101.99 719.76 89.50 C 722.16 95.72 721.64 102.53 722.33 109.05 C 722.58 120.34 723.32 131.60 723.46 142.88 C 724.00 152.25 723.41 161.63 723.80 171.00 C 724.78 182.97 723.85 195.03 725.47 206.95 C 725.96 208.86 726.43 210.79 727.24 212.59 C 741.50 213.11 755.79 212.22 770.05 212.65 C 772.69 212.91 775.14 214.04 777.76 214.45 C 795.45 215.66 813.11 213.65 830.76 212.65 C 839.19 212.38 847.55 211.08 856.01 211.33 C 870.24 210.01 884.55 209.99 898.80 209.09 C 897.69 198.40 895.55 187.81 895.32 177.03 C 893.04 157.85 894.91 138.51 897.50 119.47 C 898.96 103.28 902.89 87.38 903.72 71.13 C 887.17 71.15 870.67 72.76 854.15 73.56 C 836.94 74.51 819.72 75.24 802.49 75.69 C 782.37 76.82 762.31 78.70 742.23 80.38 C 735.54 80.97 729.03 82.86 722.31 83.11 C 723.61 81.75 724.86 80.06 726.90 79.89 C 741.82 77.40 756.98 77.07 772.01 75.60 C 800.93 72.88 830.00 73.02 858.96 70.90 C 868.35 70.47 877.72 69.62 887.12 69.18 Z" />
    <path fill="#322928" opacity="1.00" d=" M 532.99 72.23 C 544.54 72.08 556.20 73.55 567.61 71.12 C 569.88 81.94 569.41 93.02 569.35 104.00 C 569.65 130.71 570.10 157.55 574.54 183.95 C 575.43 192.10 577.09 200.14 578.20 208.26 C 578.88 211.69 574.74 213.01 572.03 212.77 C 557.37 212.00 542.66 212.49 527.98 212.22 C 515.97 211.98 503.97 212.66 491.99 213.39 C 479.32 213.62 466.64 214.00 454.02 215.21 C 439.32 216.01 424.60 216.70 409.96 218.19 C 400.60 219.59 391.15 220.01 381.72 220.63 C 380.98 211.64 378.52 202.91 377.71 193.93 C 376.07 182.33 376.05 170.60 374.98 158.95 C 374.42 147.96 374.01 136.97 373.90 125.98 C 373.66 114.16 371.45 102.33 372.85 90.51 C 375.02 96.79 374.43 103.52 375.01 110.04 C 376.30 126.32 376.46 142.66 377.48 158.95 C 378.44 170.49 378.60 182.10 380.26 193.58 C 381.27 201.62 383.04 209.53 384.89 217.41 C 395.67 217.74 406.30 215.86 416.98 214.82 C 442.67 213.51 468.32 211.61 494.02 210.68 C 503.71 210.76 513.32 209.36 523.02 209.50 C 537.67 209.22 552.40 210.40 566.99 208.68 C 569.58 208.57 572.17 208.64 574.77 208.64 C 573.11 196.43 571.80 184.16 569.84 171.99 C 568.85 158.27 567.23 144.58 567.41 130.81 C 566.36 116.88 566.69 102.91 566.65 88.95 C 566.74 84.35 565.95 79.79 564.63 75.40 C 551.41 75.43 538.22 74.38 525.00 74.49 C 509.72 73.82 494.37 74.42 479.26 76.73 C 480.87 81.45 483.35 86.55 481.56 91.60 C 480.54 95.09 476.99 96.60 474.40 98.73 C 473.45 103.32 476.45 108.66 472.91 112.56 C 471.42 105.05 470.94 97.33 470.96 89.68 C 472.49 91.63 473.77 93.75 475.00 95.91 C 476.74 93.65 478.80 91.47 479.48 88.62 C 480.23 84.95 478.70 81.17 476.42 78.34 C 474.83 77.95 472.63 77.99 471.73 79.60 C 470.17 82.41 469.66 85.64 468.53 88.63 C 467.00 85.18 467.38 81.41 467.80 77.78 C 461.45 78.49 455.04 78.41 448.73 79.41 C 447.71 84.58 445.79 89.68 446.19 95.03 C 446.37 98.54 447.13 101.99 447.48 105.49 C 446.12 103.36 444.96 101.12 443.81 98.87 C 441.35 103.17 439.65 108.26 435.20 110.98 C 433.21 107.36 432.19 103.23 433.72 99.24 C 434.67 99.26 436.56 99.31 437.50 99.33 C 437.14 101.56 436.75 103.79 436.40 106.02 C 439.48 101.05 442.82 95.91 443.62 89.98 C 444.06 86.53 444.45 83.07 444.89 79.61 C 431.29 80.88 417.61 81.02 404.01 82.30 C 393.35 82.59 382.72 83.43 372.14 84.75 C 371.71 83.88 370.86 82.14 370.43 81.27 C 386.26 80.23 402.14 80.20 417.95 78.82 C 426.12 78.47 434.33 78.44 442.43 77.22 C 444.47 76.84 446.22 75.66 448.00 74.64 C 450.18 75.56 452.43 76.56 454.87 76.39 C 472.96 75.33 490.89 72.40 509.00 71.64 C 517.01 71.50 524.98 72.41 532.99 72.23 Z" />
    <path fill="#322928" opacity="1.00" d=" M 518.20 80.50 C 519.22 80.45 520.24 80.40 521.26 80.35 C 521.53 83.45 521.92 86.53 522.33 89.62 C 526.66 89.73 531.44 90.61 535.04 87.52 C 537.57 89.00 540.08 90.51 542.65 91.93 C 545.13 88.50 547.73 85.15 550.80 82.23 C 551.38 82.70 552.54 83.63 553.12 84.10 C 544.57 92.98 538.52 103.80 532.56 114.49 C 530.39 118.87 528.03 123.17 524.93 126.96 C 527.57 119.35 530.79 111.89 534.98 104.98 C 537.18 101.22 539.47 97.49 541.29 93.51 C 535.55 90.57 529.22 92.38 523.14 92.45 C 523.18 95.79 523.27 99.14 523.00 102.48 C 521.52 100.02 520.43 97.37 519.51 94.66 C 517.97 94.08 516.44 93.50 514.91 92.90 C 516.39 91.56 518.04 90.38 519.30 88.81 C 519.29 86.01 518.57 83.27 518.20 80.50 Z" />
    <path fill="#322928" opacity="1.00" d=" M 416.00 87.45 C 415.97 85.74 415.54 83.81 416.96 82.49 C 419.36 83.02 420.20 85.33 421.09 87.32 C 419.39 87.36 417.69 87.41 416.00 87.45 Z" />
    <path fill="#322928" opacity="1.00" d=" M 401.83 86.77 C 406.22 89.66 403.76 95.76 404.36 100.15 C 406.32 98.54 408.28 96.92 410.32 95.39 C 412.18 99.78 412.74 104.57 413.28 109.26 C 409.58 108.07 409.19 104.04 408.16 100.88 C 406.62 104.41 405.34 108.32 401.94 110.53 C 401.25 102.63 401.54 94.68 401.83 86.77 Z" />
    <path fill="#322928" opacity="1.00" d=" M 499.03 98.82 C 501.48 94.11 504.37 87.10 510.92 88.17 C 508.46 90.91 505.24 93.14 503.70 96.60 C 502.26 99.84 501.31 103.27 499.86 106.50 C 496.51 102.71 492.48 96.41 496.31 91.72 C 497.33 94.04 498.14 96.45 499.03 98.82 Z" />
    <path fill="#322928" opacity="1.00" d=" M 380.23 92.17 C 386.48 90.64 393.80 87.38 399.68 91.65 C 393.17 92.07 386.68 92.85 380.46 94.90 C 380.40 94.22 380.28 92.85 380.23 92.17 Z" />
    <path fill="#322928" opacity="1.00" d=" M 484.56 91.70 C 485.85 90.48 487.58 89.88 489.13 89.05 C 493.21 93.54 492.20 99.81 493.44 105.30 C 490.61 103.88 487.48 102.93 484.97 100.96 C 483.09 98.28 483.17 94.58 484.56 91.70 M 486.99 94.27 C 487.17 95.94 487.35 97.61 487.56 99.27 C 488.12 97.72 488.65 96.16 489.17 94.59 C 488.63 94.51 487.54 94.35 486.99 94.27 Z" />
    <path fill="#ffffff" opacity="1.00" d=" M 486.99 94.27 C 487.54 94.35 488.63 94.51 489.17 94.59 C 488.65 96.16 488.12 97.72 487.56 99.27 C 487.35 97.61 487.17 95.94 486.99 94.27 Z" />
    <path fill="#322928" opacity="1.00" d=" M 389.90 101.88 C 389.57 99.14 389.82 96.35 390.76 93.75 C 392.94 100.43 393.99 107.70 393.05 114.70 C 390.49 110.92 390.35 106.26 389.90 101.88 Z" />
    <path fill="#322928" opacity="1.00" d=" M 421.19 99.75 C 425.17 99.48 428.64 97.40 432.36 96.18 C 429.60 100.83 426.33 105.18 422.90 109.35 C 421.32 106.38 420.88 103.06 421.19 99.75 Z" />
    <path fill="#322928" opacity="1.00" d=" M 415.15 99.27 C 415.97 99.01 417.60 98.48 418.42 98.22 C 418.50 102.39 418.88 106.54 419.39 110.68 C 418.70 110.54 417.30 110.27 416.61 110.13 C 415.76 106.57 415.26 102.93 415.15 99.27 Z" />
    <path fill="#322928" opacity="1.00" d=" M 806.29 105.27 C 810.52 101.26 817.72 99.80 822.67 103.35 C 826.57 105.81 827.29 110.78 828.22 114.93 C 829.09 120.40 831.31 126.50 827.89 131.58 C 823.62 124.65 826.35 115.75 822.12 108.81 C 820.39 105.78 816.23 104.49 813.16 106.24 C 808.05 109.04 804.84 114.36 802.75 119.63 C 799.60 129.19 798.86 139.33 798.31 149.32 C 807.45 148.32 816.49 146.37 825.72 146.26 C 825.68 147.71 825.64 149.16 825.58 150.61 C 816.48 149.25 807.52 151.67 798.57 152.93 C 798.31 162.97 798.96 173.00 798.78 183.04 C 798.85 186.03 797.73 188.83 796.47 191.47 C 794.70 178.81 796.07 165.97 795.26 153.24 C 790.52 153.49 785.85 154.32 781.23 155.32 C 780.73 154.61 779.75 153.18 779.26 152.46 C 784.18 150.70 789.43 150.28 794.59 149.72 C 795.56 140.96 794.85 131.98 797.23 123.41 C 798.79 116.78 801.59 110.29 806.29 105.27 Z" />
    <path fill="#322928" opacity="1.00" d=" M 103.97 108.01 C 102.60 106.70 102.46 104.79 102.29 103.03 C 107.29 106.49 110.56 112.04 116.05 114.84 C 120.75 117.34 126.53 117.28 131.41 115.32 C 137.03 113.25 140.82 108.19 146.35 105.94 C 141.29 115.76 128.99 121.46 118.23 118.80 C 112.42 116.94 107.93 112.46 103.97 108.01 Z" />
    <path fill="#322928" opacity="1.00" d=" M 666.22 115.13 C 674.34 114.72 682.97 117.34 688.57 123.43 C 690.30 124.99 689.62 127.66 688.25 129.20 C 684.69 133.55 679.01 135.25 673.64 135.91 C 676.86 133.25 680.70 131.50 683.98 128.94 C 685.13 127.90 686.87 126.17 685.47 124.63 C 681.03 118.98 673.26 117.85 666.54 117.36 C 666.46 116.80 666.30 115.69 666.22 115.13 Z" />
    <path fill="#322928" opacity="1.00" d=" M 478.18 136.57 C 477.88 128.38 486.37 122.35 494.02 122.77 C 500.46 123.38 505.03 129.04 507.27 134.68 C 509.87 140.50 506.30 147.04 501.58 150.57 C 498.18 153.36 493.77 154.21 489.53 154.80 C 490.23 160.60 490.77 166.44 490.72 172.29 C 490.71 174.26 489.68 176.00 488.84 177.71 C 487.31 168.93 488.17 159.96 486.72 151.18 C 485.89 145.83 485.43 140.43 485.67 135.01 C 486.27 135.34 487.47 136.01 488.07 136.34 C 488.23 141.50 488.54 146.67 489.59 151.74 C 496.83 152.49 504.21 147.20 505.42 139.96 C 505.83 134.15 501.90 128.47 496.70 126.10 C 492.66 124.20 487.94 125.97 484.79 128.75 C 482.34 131.15 480.71 134.25 478.18 136.57 Z" />
    <path fill="#322928" opacity="1.00" d=" M 602.97 124.71 C 614.67 124.28 626.38 125.07 638.09 124.78 C 650.87 124.84 663.64 124.30 676.41 124.72 C 676.38 125.11 676.32 125.90 676.28 126.29 C 655.87 126.98 635.41 127.95 615.01 126.67 C 607.84 126.29 600.74 128.18 593.59 127.25 C 596.49 125.74 599.68 124.79 602.97 124.71 Z" />
    <path fill="#322928" opacity="1.00" d=" M 421.44 126.85 C 422.71 126.72 423.98 126.59 425.26 126.46 C 426.26 141.04 431.55 154.79 433.92 169.12 C 435.02 174.38 436.88 179.42 438.48 184.53 C 437.58 184.59 435.78 184.70 434.88 184.76 C 433.13 177.09 431.42 169.41 429.59 161.77 C 424.51 163.55 419.86 166.45 414.55 167.56 C 412.08 174.96 411.61 183.50 406.16 189.53 C 406.60 183.65 409.11 178.23 410.44 172.54 C 413.24 161.53 417.29 150.90 419.80 139.82 C 421.00 135.60 421.44 131.23 421.44 126.85 M 423.43 137.68 C 420.91 146.45 418.17 155.16 415.74 163.96 C 420.24 162.86 424.54 161.12 428.80 159.31 C 427.34 152.03 425.90 144.70 423.43 137.68 Z" />
    <path fill="#322928" opacity="1.00" d=" M 459.94 129.95 C 463.35 128.25 467.63 126.81 471.24 128.81 C 474.52 130.51 475.53 134.54 475.31 137.96 C 474.94 143.76 472.13 149.12 468.57 153.60 C 466.32 156.52 462.77 157.84 459.52 159.28 C 459.95 165.31 463.49 171.86 459.87 177.52 C 457.94 167.12 456.10 156.62 456.22 146.01 C 456.22 144.38 457.28 143.07 457.99 141.69 C 458.99 146.80 458.90 152.04 459.68 157.18 C 466.05 153.73 470.81 147.49 472.54 140.47 C 473.39 136.94 473.07 131.88 468.88 130.72 C 464.52 130.23 460.30 132.34 456.99 135.00 C 453.62 137.55 451.97 141.86 448.06 143.76 C 449.30 137.41 454.52 132.90 459.94 129.95 Z" />
    <path fill="#ffffff" opacity="1.00" d=" M 423.43 137.68 C 425.90 144.70 427.34 152.03 428.80 159.31 C 424.54 161.12 420.24 162.86 415.74 163.96 C 418.17 155.16 420.91 146.45 423.43 137.68 Z" />
    <path fill="#322928" opacity="1.00" d=" M 328.07 140.25 C 340.17 145.11 353.38 147.98 363.89 156.10 C 358.32 164.73 347.16 165.94 339.81 172.45 C 339.88 170.68 339.25 168.30 341.20 167.30 C 346.76 163.31 354.04 161.93 358.54 156.42 C 349.62 150.18 338.94 147.03 328.44 144.59 C 328.31 143.14 328.19 141.70 328.07 140.25 Z" />
    <path fill="#322928" opacity="1.00" d=" M 237.16 155.44 C 250.12 155.11 263.04 156.73 276.01 156.57 C 286.34 156.79 296.67 155.92 307.01 156.29 C 320.82 156.15 334.63 156.52 348.44 156.66 C 348.03 157.84 347.70 159.09 346.90 160.08 C 335.37 158.17 323.64 158.77 312.00 158.56 C 302.33 158.40 292.66 158.49 283.00 158.87 C 267.91 158.84 252.81 158.38 237.74 157.48 C 237.59 156.97 237.30 155.95 237.16 155.44 Z" />
    <path fill="#322928" opacity="1.00" d=" M 620.54 170.41 C 622.50 169.18 624.86 169.39 627.06 169.56 C 623.47 173.01 618.97 175.39 615.74 179.24 C 630.84 179.63 645.95 179.04 661.04 179.63 C 669.83 180.02 678.84 178.72 687.44 181.17 C 679.34 182.23 671.16 182.33 663.00 182.26 C 646.14 181.53 629.24 181.48 612.39 182.54 C 611.96 183.39 611.53 184.23 611.11 185.09 C 616.07 187.86 621.74 188.51 627.26 189.35 C 622.72 189.53 618.08 190.04 613.61 189.05 C 609.73 188.02 607.71 184.28 605.56 181.23 C 610.98 178.21 615.08 173.35 620.54 170.41 Z" />
    <path fill="#322928" opacity="1.00" d=" M 241.02 204.42 C 246.00 198.30 252.29 193.42 258.02 188.04 C 258.66 188.44 259.93 189.25 260.56 189.65 C 257.08 194.49 251.86 197.56 247.71 201.73 C 246.76 202.85 245.19 204.05 245.95 205.71 C 247.52 208.12 250.57 208.69 252.94 210.02 C 258.60 212.90 264.77 214.63 270.45 217.46 C 272.30 218.24 272.82 220.29 273.60 221.94 C 263.70 217.65 253.63 213.76 243.83 209.23 C 242.09 208.49 239.56 206.43 241.02 204.42 Z" />
    <path fill="#322928" opacity="1.00" d=" M 248.57 204.46 C 260.49 201.69 272.81 201.27 285.00 200.96 C 299.99 201.73 315.00 201.51 330.01 201.69 C 336.26 201.90 342.65 200.82 348.79 202.43 C 348.15 203.56 347.52 204.69 346.91 205.84 C 343.00 205.10 339.04 204.60 335.06 204.60 C 321.38 204.48 307.69 204.63 294.01 204.23 C 281.97 204.05 269.85 204.19 257.96 206.29 C 255.09 206.51 252.02 208.07 249.23 206.85 C 249.06 206.25 248.73 205.06 248.57 204.46 Z" />
    <path fill="#322928" opacity="1.00" d=" M 701.71 221.57 C 708.48 221.22 715.28 221.44 722.05 221.71 C 722.50 222.27 723.41 223.39 723.87 223.95 C 719.98 229.82 715.24 235.10 710.94 240.68 C 708.40 240.40 709.27 237.53 709.93 235.93 C 711.98 232.24 715.08 229.29 717.68 225.99 C 716.58 225.55 715.48 225.12 714.39 224.69 C 712.20 228.77 708.35 231.43 704.17 233.19 C 698.75 235.45 693.37 238.82 687.26 238.29 C 689.21 236.06 691.72 234.43 694.53 233.50 C 700.09 231.51 705.43 228.93 710.30 225.57 C 707.28 225.16 704.27 224.79 701.28 224.27 C 701.39 223.60 701.60 222.25 701.71 221.57 Z" />
    <path fill="#322928" opacity="1.00" d=" M 801.85 225.79 C 803.72 225.22 805.61 224.70 807.52 224.23 C 807.14 225.98 808.47 228.94 806.06 229.49 C 804.54 228.39 803.20 227.07 801.85 225.79 Z" />
    <path fill="#322928" opacity="1.00" d=" M 735.38 225.24 C 738.50 223.63 741.77 225.65 744.64 226.88 C 744.54 227.58 744.32 228.99 744.21 229.69 C 741.11 229.70 736.54 227.25 734.92 231.21 C 733.29 236.14 737.85 239.98 740.45 243.58 C 742.71 246.02 743.61 249.25 743.85 252.49 C 739.34 254.45 734.37 255.15 729.55 254.04 C 729.44 253.38 729.22 252.06 729.11 251.40 C 732.75 251.26 736.39 250.87 739.98 250.14 C 738.69 243.76 732.71 239.89 730.90 233.77 C 729.70 230.30 732.48 226.84 735.38 225.24 Z" />
    <path fill="#322928" opacity="1.00" d=" M 842.52 233.41 C 845.32 231.84 847.85 234.43 850.09 235.83 C 847.29 241.61 841.16 244.01 835.99 247.09 C 839.10 250.24 843.57 249.80 847.62 249.93 C 845.22 251.40 842.57 253.22 839.61 252.47 C 835.95 251.98 833.21 248.59 833.23 244.96 C 833.00 239.45 838.00 235.53 842.52 233.41 M 841.44 237.52 C 841.44 238.16 841.44 239.42 841.43 240.05 C 842.62 239.15 843.81 238.24 845.01 237.33 C 843.81 237.39 842.62 237.45 841.44 237.52 Z" />
    <path fill="#322928" opacity="1.00" d=" M 745.61 246.01 C 745.77 240.20 751.51 235.87 756.97 235.47 C 759.30 235.18 760.48 237.61 762.03 238.90 C 758.61 242.56 754.63 245.60 750.44 248.30 C 750.44 248.97 750.44 250.32 750.44 251.00 C 754.33 252.25 758.42 252.41 762.48 252.45 C 759.63 253.88 756.50 255.74 753.20 254.93 C 748.95 254.25 745.93 250.14 745.61 246.01 Z" />
    <path fill="#322928" opacity="1.00" d=" M 770.52 240.58 C 774.33 238.33 778.33 236.01 782.90 236.07 C 782.93 239.75 780.76 244.84 784.11 247.54 C 789.85 245.10 792.67 238.80 798.19 236.02 C 799.96 235.72 801.73 236.27 803.50 236.46 C 803.33 241.48 804.18 247.02 801.00 251.35 C 799.91 247.26 799.58 243.04 799.21 238.84 C 795.26 242.37 791.93 246.52 787.95 250.01 C 785.87 252.25 781.42 251.63 780.34 248.69 C 779.04 245.90 778.70 242.81 778.10 239.83 C 772.79 242.85 768.60 247.40 763.38 250.54 C 762.23 247.67 761.55 244.65 761.26 241.59 C 764.34 241.49 767.77 242.47 770.52 240.58 Z" />
    <path fill="#322928" opacity="1.00" d=" M 817.65 237.54 C 819.70 236.09 821.63 238.18 823.38 239.11 C 821.43 240.90 819.15 242.41 817.70 244.66 C 817.36 246.28 817.83 247.93 818.02 249.55 C 820.94 249.56 823.88 249.52 826.81 249.64 C 824.10 251.48 820.60 253.69 817.30 251.92 C 811.78 249.07 813.17 240.68 817.65 237.54 Z" />
    <path fill="#ffffff" opacity="1.00" d=" M 841.44 237.52 C 842.62 237.45 843.81 237.39 845.01 237.33 C 843.81 238.24 842.62 239.15 841.43 240.05 C 841.44 239.42 841.44 238.16 841.44 237.52 Z" />
    <path fill="#322928" opacity="1.00" d=" M 244.73 247.82 C 249.77 246.44 254.42 244.03 259.28 242.15 C 261.11 241.11 264.11 242.43 263.53 244.79 C 260.36 246.19 256.99 247.15 253.97 248.88 C 261.73 254.54 271.35 256.49 280.58 258.31 C 280.58 258.99 280.59 260.35 280.59 261.02 C 270.32 258.11 259.35 255.85 250.89 248.92 C 253.02 253.45 257.79 257.05 257.42 262.46 C 252.41 258.99 248.76 254.02 244.20 250.03 C 244.33 249.47 244.60 248.37 244.73 247.82 Z" />
    <path fill="#322928" opacity="1.00" d=" M 213.34 250.34 C 217.06 247.80 220.25 244.30 224.76 243.12 C 224.06 247.54 219.79 249.29 216.52 251.53 C 209.91 255.69 203.58 260.51 196.15 263.17 C 188.58 265.90 180.91 268.43 173.02 270.10 C 161.46 272.87 149.94 276.28 138.03 277.19 C 128.00 277.46 117.93 277.78 107.94 276.64 C 94.89 275.24 81.36 275.17 69.07 270.03 C 62.47 267.10 55.68 264.46 49.72 260.33 C 44.77 256.94 39.33 254.14 35.03 249.90 C 33.46 248.58 33.29 246.45 33.33 244.55 C 44.88 254.31 57.87 262.48 72.07 267.83 C 82.88 272.15 94.65 272.46 106.08 273.58 C 121.11 275.27 136.45 275.34 151.30 272.19 C 158.77 271.05 166.00 268.78 173.41 267.31 C 180.02 266.01 186.36 263.69 192.74 261.59 C 200.22 259.10 206.93 254.84 213.34 250.34 Z" />
    <path fill="#322928" opacity="1.00" d=" M 653.78 250.70 C 658.95 249.59 664.14 248.14 669.49 248.44 C 666.01 251.93 660.98 252.45 656.43 253.54 C 651.91 254.52 647.13 256.52 642.63 254.35 C 646.18 252.68 649.94 251.53 653.78 250.70 Z" />
    <path fill="#322928" opacity="1.00" d=" M 818.36 255.23 C 820.12 255.37 821.89 255.53 823.67 255.69 C 823.25 257.41 822.81 259.13 822.36 260.84 C 821.04 260.05 819.75 259.24 818.46 258.44 C 818.42 257.36 818.39 256.29 818.36 255.23 Z" />
    <path fill="#322928" opacity="1.00" d=" M 852.18 254.09 C 853.22 254.61 854.25 255.19 855.26 255.81 C 855.77 259.55 854.29 263.25 854.75 267.01 C 855.25 271.76 856.05 276.49 856.09 281.29 C 853.15 277.80 852.61 273.20 851.44 268.97 C 849.00 273.64 847.31 278.97 843.49 282.73 C 841.23 284.53 838.59 282.35 837.37 280.41 C 835.41 277.71 836.86 274.31 837.38 271.40 C 838.81 271.44 840.26 271.48 841.71 271.52 C 841.13 274.18 840.58 276.84 840.29 279.55 C 841.88 278.47 843.64 277.45 844.63 275.73 C 848.60 269.12 850.70 261.61 852.18 254.09 Z" />
    <path fill="#322928" opacity="1.00" d=" M 737.57 268.91 C 737.22 262.84 744.70 258.48 749.94 261.19 C 753.58 263.61 755.64 268.57 753.98 272.77 C 752.62 276.99 749.10 279.90 745.61 282.35 C 746.28 285.26 746.69 288.22 746.84 291.21 C 745.31 290.01 743.60 288.86 742.81 287.02 C 740.18 281.31 737.83 275.26 737.57 268.91 M 741.54 268.21 C 742.86 271.83 744.65 275.27 745.78 278.98 C 748.96 275.93 752.72 271.68 751.10 266.93 C 749.72 262.31 742.45 264.04 741.54 268.21 Z" />
    <path fill="#322928" opacity="1.00" d=" M 298.69 261.78 C 307.18 260.70 315.51 263.72 323.74 265.43 C 323.73 266.08 323.72 267.40 323.71 268.06 C 317.68 267.16 311.90 265.19 305.91 264.12 C 303.41 263.65 301.00 262.83 298.69 261.78 Z" />
    <path fill="#322928" opacity="1.00" d=" M 890.66 269.89 C 893.57 266.48 897.07 263.66 900.84 261.26 C 901.59 261.64 903.07 262.41 903.81 262.79 C 897.31 266.15 893.33 272.42 890.01 278.68 C 886.43 279.41 883.13 281.00 880.47 283.51 C 877.39 286.07 873.34 288.53 869.23 286.96 C 865.66 285.25 864.14 280.80 864.53 277.07 C 865.88 273.03 868.71 269.49 872.22 267.11 C 873.96 266.02 877.40 265.66 877.97 268.21 C 879.08 271.33 878.39 275.54 875.39 277.39 C 872.98 278.92 870.20 279.68 867.58 280.75 C 868.98 282.43 870.18 285.18 872.84 284.60 C 877.22 283.91 880.84 280.88 883.70 277.65 C 886.23 274.82 885.37 270.74 885.84 267.28 C 887.44 268.14 889.04 269.02 890.66 269.89 M 868.83 276.50 C 872.32 275.76 874.69 273.25 875.31 269.74 C 872.01 270.70 869.68 273.18 868.83 276.50 Z" />
    <path fill="#ffffff" opacity="1.00" d=" M 741.54 268.21 C 742.45 264.04 749.72 262.31 751.10 266.93 C 752.72 271.68 748.96 275.93 745.78 278.98 C 744.65 275.27 742.86 271.83 741.54 268.21 Z" />
    <path fill="#322928" opacity="1.00" d=" M 584.23 267.96 C 588.57 267.17 593.37 265.44 597.49 267.95 C 586.82 271.03 575.84 272.98 564.87 274.63 C 564.54 273.91 563.89 272.48 563.56 271.76 C 570.46 270.54 577.40 269.54 584.23 267.96 Z" />
    <path fill="#322928" opacity="1.00" d=" M 354.76 269.81 C 357.39 269.71 360.02 269.98 362.64 270.27 C 369.99 271.34 377.42 270.35 384.80 270.50 C 384.78 271.13 384.72 272.39 384.70 273.02 C 376.31 273.67 367.77 274.40 359.47 272.64 C 357.61 272.29 356.06 271.10 354.76 269.81 Z" />
    <path fill="#322928" opacity="1.00" d=" M 764.65 272.59 C 766.84 270.55 769.86 269.92 772.69 269.32 C 770.11 272.18 766.90 274.47 764.81 277.75 C 762.83 280.78 761.07 283.95 758.96 286.89 C 756.41 285.06 754.40 282.62 752.91 279.87 C 754.79 279.56 756.73 279.50 758.58 279.00 C 761.03 277.32 762.40 274.51 764.65 272.59 Z" />
    <path fill="#322928" opacity="1.00" d=" M 780.42 270.25 C 783.82 268.38 789.11 270.18 789.46 274.39 C 790.57 278.75 787.45 283.64 782.82 283.79 C 779.02 284.60 775.93 280.48 776.56 276.98 C 776.97 274.41 777.73 271.31 780.42 270.25 M 781.86 272.84 C 781.65 275.56 781.26 278.25 780.68 280.91 C 781.99 280.53 783.43 280.36 784.58 279.56 C 785.93 277.96 786.21 275.79 786.80 273.85 C 785.14 273.50 783.50 273.17 781.86 272.84 Z" />
    <path fill="#ffffff" opacity="1.00" d=" M 868.83 276.50 C 869.68 273.18 872.01 270.70 875.31 269.74 C 874.69 273.25 872.32 275.76 868.83 276.50 Z" />
    <path fill="#322928" opacity="1.00" d=" M 498.00 272.72 C 506.87 273.67 515.61 270.30 524.43 271.76 C 516.05 275.98 506.17 276.36 497.01 275.28 C 497.25 274.64 497.75 273.36 498.00 272.72 Z" />
    <path fill="#322928" opacity="1.00" d=" M 798.97 281.12 C 804.83 280.41 806.86 273.81 812.02 271.67 C 810.14 276.51 807.01 280.83 803.10 284.24 C 802.11 285.04 800.50 286.03 799.31 285.09 C 795.59 282.66 793.08 277.29 795.76 273.21 C 799.70 273.40 798.10 278.46 798.97 281.12 Z" />
    <path fill="#322928" opacity="1.00" d=" M 419.09 273.11 C 429.96 273.83 440.96 271.44 451.73 273.88 C 449.00 275.23 445.96 275.70 442.95 275.67 C 435.12 275.71 427.27 276.82 419.49 275.53 C 419.39 274.93 419.19 273.71 419.09 273.11 Z" />
    <path fill="#ffffff" opacity="1.00" d=" M 781.86 272.84 C 783.50 273.17 785.14 273.50 786.80 273.85 C 786.21 275.79 785.93 277.96 784.58 279.56 C 783.43 280.36 781.99 280.53 780.68 280.91 C 781.26 278.25 781.65 275.56 781.86 272.84 Z" />
    <path fill="#322928" opacity="1.00" d=" M 816.77 282.00 C 815.82 279.17 816.36 276.11 816.46 273.19 C 817.24 273.42 818.80 273.87 819.58 274.09 C 819.55 277.63 819.91 281.15 820.17 284.67 C 818.99 283.82 817.79 283.01 816.77 282.00 Z" />
</svg>
