<?xml version="1.0" encoding="iso-8859-1"?>
<!-- Generator: Adobe Illustrator 19.0.0, SVG Export Plug-In . SVG Version: 6.00 Build 0)  -->
<svg xmlns="http://www.w3.org/2000/svg" xmlns:xlink="http://www.w3.org/1999/xlink" version="1.1" id="Layer_1" x="0px" y="0px" viewBox="0 0 495.936 495.936" style="enable-background:new 0 0 495.936 495.936;" xml:space="preserve" width="512" height="512">
<g>
	<polygon style="fill:#FFD6CF;" points="261.44,126.639 266.854,90.159 236.724,88.235 230.72,121.448  "/>
	<polygon style="opacity:0.32;fill:#831232;" points="263.789,113.234 266.854,90.159 236.935,87.033 233.081,107.974  "/>
	<rect x="390.253" y="81.468" style="fill:#998269;" width="20.314" height="175.014"/>
	<rect x="390.253" y="221.817" style="fill:#998269;" width="20.808" height="274.119"/>
	<rect x="390.253" y="210.585" style="fill:#836F5A;" width="20.314" height="45.898"/>
	<path style="fill:#347642;" d="M86.223,411.571l68.329-65.439l24.642-84.343h37.709l-27.157,98.642   c-0.725,2.707-2.027,5.107-3.718,7.136c-0.634,0.917-1.343,1.797-2.158,2.612l-80.076,77.462L86.223,411.571z"/>
	<g style="opacity:0.53;">
		<polygon style="fill:#2B5448;" points="179.194,261.789 169.683,294.342 207.941,294.342 216.903,261.789   "/>
	</g>
	<path style="fill:#FFD6CF;" d="M290.966,8.628c-4.351-4.675-10.245-7.376-16.597-7.604l-28.024-1.008   c-13.173-0.461-24.232,9.841-24.705,22.99l-1.765,49.08c-0.229,6.352,2.042,12.425,6.393,17.101   c4.351,4.676,10.245,7.376,16.597,7.605l28.023,1.008c0.292,0.011,0.583,0.016,0.874,0.016c6.033,0,11.767-2.257,16.228-6.408   c4.675-4.351,7.376-10.246,7.604-16.597l1.766-49.08C297.588,19.376,295.318,13.303,290.966,8.628z"/>
	<path style="fill:#AA6518;" d="M157.303,87.679l-23.692-5.615c-2.445-0.579-4.875,1.01-5.325,3.481l-12.838,70.506   c-0.566,3.108,1.411,6.112,4.489,6.823l23.25,5.365L157.303,87.679z"/>
	<path style="fill:#FFB057;" d="M176.825,219.612l-38.613-6.767c-5.208-0.913-8.722-5.92-7.81-11.129l23.86-136.156   c0.913-5.208,5.92-8.722,11.129-7.81l38.613,6.767c5.208,0.913,8.722,5.92,7.81,11.129l-23.86,136.156   C187.041,217.01,182.033,220.525,176.825,219.612z"/>
	<path style="opacity:0.48;fill:#AA6518;" d="M204.004,64.518l-1.495-0.262l-23.391,133.483c-0.913,5.208-5.92,8.722-11.128,7.81   l-37.118-6.505l-0.468,2.672c-0.913,5.208,2.602,10.216,7.81,11.128l38.613,6.767c5.208,0.913,10.216-2.602,11.129-7.81   l23.86-136.156C212.726,70.439,209.212,65.431,204.004,64.518z"/>
	<g>
		<path style="fill:#C71C4B;" d="M295.491,15.376c-1.069-2.449-2.558-4.729-4.436-6.748c-4.351-4.675-10.245-7.376-16.597-7.604    l-28.024-1.008c-13.173-0.461-24.232,9.841-24.705,22.99l-1.045,29.051C232.169,49.954,272.879,40.927,295.491,15.376z"/>
	</g>
	<path style="fill:#71CE93;" d="M273.743,154.929c3.03-17.293-8.639-33.921-25.932-36.952l-32.653-5.722   c-5.208-0.913-10.216,2.602-11.129,7.81l-24.835,141.723l31.074,5.445c0.178,0.361,0.347,0.724,0.551,1.077l51.96,91.727v101.154   l37.734,4.384V356.311c0-1.152-0.121-2.276-0.321-3.373c-0.239-2.63-1.015-5.248-2.417-7.675l-43.828-77.372l12.087-68.975   L273.743,154.929z"/>
	<polygon style="fill:#71CE93;" points="220.917,153.798 292.667,225.548 293.121,225.094 293.147,225.705 383.342,221.817    381.836,186.9 306.685,190.14 249.817,135.635  "/>
	<path style="fill:#D8EDDE;" d="M119.415,483.709l-52.663-52.663l19.475-19.475l39.956,50.461c3.735,4.717,3.356,11.48-0.883,15.75   L119.415,483.709z"/>
	<polygon style="fill:#FFD6CF;" points="381.836,186.9 429.184,184.502 415.439,221.026 383.342,221.817  "/>
	<path style="fill:#3F8E50;" d="M300.193,352.938c-0.239-2.63-1.015-5.248-2.417-7.675l-43.828-77.372l4.669-26.645l-73.631-12.507   l-5.792,33.049l31.074,5.445c0.178,0.361,0.347,0.724,0.551,1.077l51.96,91.727v101.154l37.734,9.553V356.311   C300.514,355.159,300.393,354.035,300.193,352.938z"/>
	<circle style="fill:#FFD6CF;" cx="250.335" cy="48.907" r="14.02"/>
	<path style="fill:#D8EDDE;" d="M337.257,488.734H262.78v-27.541l63.934,7.428c5.976,0.694,10.49,5.745,10.512,11.761   L337.257,488.734z"/>
</g>















</svg>
