<?xml version="1.0" encoding="iso-8859-1"?>
<!-- Generator: Adobe Illustrator 19.0.0, SVG Export Plug-In . SVG Version: 6.00 Build 0)  -->
<svg version="1.1" id="Layer_1" xmlns="http://www.w3.org/2000/svg" xmlns:xlink="http://www.w3.org/1999/xlink" x="0px" y="0px"
	 viewBox="0 0 511.999 511.999" style="enable-background:new 0 0 511.999 511.999;" xml:space="preserve">
<path style="fill:#93C7EF;" d="M411.868,372.189c0,0-4.102-19.732-13.163-43.608c61.475,0,113.294-64.928,113.294-64.928
	s-51.819-64.928-113.294-64.928c9.062-23.875,13.163-43.607,13.163-43.607s-60.206-24.649-127.767,4.645
	c-85.018,34.065-169.066,103.89-169.066,103.89s84.048,69.825,169.066,103.89C351.662,396.839,411.868,372.189,411.868,372.189z"/>
<path style="fill:#78B9EB;" d="M411.868,372.189c0,0-4.102-19.732-13.163-43.608c61.475,0,113.294-64.928,113.294-64.928H115.033
	c0,0,84.048,69.825,169.066,103.89C351.662,396.839,411.868,372.189,411.868,372.189z"/>
<polygon style="fill:#FFDA44;" points="152.586,335.609 81.843,368.686 91.442,291.188 38.122,234.127 114.798,219.309 
	152.586,150.966 190.374,219.309 267.049,234.127 213.73,291.188 223.329,368.686 "/>
<polygon style="fill:#FF9811;" points="152.586,335.609 152.586,150.966 190.374,219.309 267.049,234.127 213.73,291.188 
	223.329,368.686 "/>
<path style="fill:#FFE98F;" d="M152.586,191.049l25.203,45.581l51.14,9.884l-35.563,38.057l6.402,51.69l-47.182-22.062
	l-47.182,22.062l6.402-51.69l-35.563-38.057l51.14-9.884L152.586,191.049 M152.586,110.883l-33.948,61.395l-16.426,29.708
	l-33.33,6.442L0,221.741L47.9,273l23.178,24.805l-4.173,33.689l-8.623,69.623l63.551-29.714l30.751-14.379l30.751,14.379
	l63.551,29.714l-8.623-69.623l-4.173-33.689L257.267,273l47.901-51.259l-68.882-13.313l-33.33-6.442l-16.426-29.708L152.586,110.883
	L152.586,110.883z"/>
<polygon style="fill:#FFDA44;" points="305.172,221.741 236.289,208.428 202.959,201.986 186.534,172.279 153.826,113.126 
	153.826,193.292 177.789,236.63 228.929,246.514 193.366,284.571 199.768,336.259 153.826,314.778 153.826,357.6 183.337,371.399 
	246.889,401.113 238.266,331.492 234.093,297.803 257.271,272.998 "/>
<g>
</g>
<g>
</g>
<g>
</g>
<g>
</g>
<g>
</g>
<g>
</g>
<g>
</g>
<g>
</g>
<g>
</g>
<g>
</g>
<g>
</g>
<g>
</g>
<g>
</g>
<g>
</g>
<g>
</g>
</svg>
