<?xml version="1.0" encoding="iso-8859-1"?>
<!-- Generator: Adobe Illustrator 19.0.0, SVG Export Plug-In . SVG Version: 6.00 Build 0)  -->
<svg version="1.1" id="Layer_1" xmlns="http://www.w3.org/2000/svg" xmlns:xlink="http://www.w3.org/1999/xlink" x="0px" y="0px"
	 viewBox="0 0 512 512" style="enable-background:new 0 0 512 512;" xml:space="preserve">
<path style="fill:#FFC83C;" d="M422.156,261.236l19.403,59.717h62.79c7.395,0,10.471,9.464,4.488,13.811l-50.798,36.907
	l19.403,59.717c2.285,7.033-5.764,12.883-11.748,8.535l-50.798-36.907l-50.798,36.907c-5.983,4.348-14.034-1.502-11.748-8.535
	l19.403-59.717l-50.798-36.907c-5.983-4.348-2.909-13.811,4.488-13.811h62.79l19.403-59.717
	C409.92,254.203,419.871,254.203,422.156,261.236z"/>
<g>
	<path style="fill:#FFB432;" d="M422.988,263.794l-0.831-2.558c-2.285-7.033-12.236-7.033-14.521,0l-19.403,59.717h4.426
		c7.011,0,13.225-4.514,15.392-11.182L422.988,263.794z"/>
	<path style="fill:#FFB432;" d="M439.172,408.896c-4.825-3.506-11.359-3.506-16.184,0l0,0l42.707,31.028
		c4.387,3.187,9.849,0.872,11.57-3.352L439.172,408.896z"/>
</g>
<g>
	<path style="fill:#FFDC66;" d="M437.135,320.954h4.426l-19.403-59.717c-2.285-7.033-12.236-7.033-14.521,0l-0.831,2.559
		l14.938,45.976C423.909,316.439,430.123,320.954,437.135,320.954z"/>
	<path style="fill:#FFDC66;" d="M406.804,408.896c-4.825-3.506-11.359-3.506-16.184,0l-38.092,27.676
		c1.72,4.224,7.182,6.539,11.57,3.352L406.804,408.896L406.804,408.896z"/>
	<path style="fill:#FFDC66;" d="M504.351,320.954h-16.184c7.395,0,10.471,9.463,4.488,13.811l-41.285,29.995
		c-5.673,4.121-8.046,11.426-5.879,18.094l15.77,48.534c0.609,1.877,0.448,3.647-0.179,5.184l4.614,3.352
		c5.984,4.348,14.035-1.502,11.749-8.536l-19.404-59.716l50.798-36.907C514.822,330.418,511.746,320.954,504.351,320.954z"/>
</g>
<path style="fill:#FFB432;" d="M368.533,431.389l15.77-48.534c2.167-6.668-0.206-13.973-5.879-18.094l-41.285-29.995
	c-5.983-4.349-2.908-13.811,4.488-13.811h-16.184c-7.396,0-10.471,9.464-4.488,13.811l50.798,36.907l-19.404,59.716
	c-2.285,7.034,5.766,12.884,11.75,8.536l4.613-3.352C368.086,435.036,367.924,433.264,368.533,431.389z"/>
<g>
	<path style="fill:#FFC83C;" d="M52.927,119.436c-1.763,0-3.539-0.526-5.09-1.621L3.729,86.616
		c-3.978-2.819-4.922-8.328-2.108-12.301c2.815-3.974,8.31-4.931,12.306-2.112L58.035,103.4c3.978,2.819,4.922,8.328,2.108,12.301
		C58.423,118.134,55.694,119.436,52.927,119.436z"/>
	<path style="fill:#FFC83C;" d="M320.827,308.926c-1.763,0-3.539-0.526-5.09-1.621L83.215,142.841
		c-3.978-2.819-4.922-8.328-2.108-12.301c2.819-3.982,8.323-4.931,12.306-2.112l232.521,164.465
		c3.978,2.819,4.922,8.328,2.108,12.301C326.323,307.625,323.594,308.926,320.827,308.926z"/>
	<path style="fill:#FFC83C;" d="M157.349,150.021c-1.763,0-3.543-0.526-5.09-1.621l-24.943-17.646
		c-3.978-2.819-4.922-8.328-2.108-12.301c2.815-3.982,8.328-4.931,12.306-2.112l24.943,17.646c3.978,2.819,4.922,8.328,2.108,12.301
		C162.844,148.72,160.117,150.021,157.349,150.021z"/>
</g>
<path style="fill:#FFB432;" d="M369.534,300.098c-1.763,0-3.539-0.526-5.09-1.621L189.082,174.444
	c-3.978-2.819-4.922-8.328-2.108-12.301c2.819-3.975,8.319-4.931,12.306-2.112l175.362,124.034
	c3.978,2.819,4.922,8.328,2.108,12.301C375.029,298.797,372.306,300.098,369.534,300.098z"/>
<path style="fill:#FFC83C;" d="M88.264,187.065c-1.763,0-3.543-0.526-5.09-1.621l-14.91-10.552
	c-3.978-2.819-4.922-8.328-2.108-12.31c2.815-3.982,8.332-4.922,12.306-2.103l14.91,10.552c3.978,2.819,4.922,8.328,2.108,12.31
	C93.759,185.772,91.03,187.065,88.264,187.065z"/>
<path style="fill:#FFB432;" d="M298,335.409c-1.763,0-3.539-0.526-5.09-1.621L118.186,210.202
	c-3.978-2.819-4.922-8.328-2.108-12.301c2.815-3.982,8.314-4.931,12.306-2.112l174.724,123.586
	c3.978,2.819,4.922,8.328,2.108,12.301C303.495,334.108,300.772,335.409,298,335.409z"/>
<g>
</g>
<g>
</g>
<g>
</g>
<g>
</g>
<g>
</g>
<g>
</g>
<g>
</g>
<g>
</g>
<g>
</g>
<g>
</g>
<g>
</g>
<g>
</g>
<g>
</g>
<g>
</g>
<g>
</g>
</svg>
