<?xml version="1.0" encoding="iso-8859-1"?>
<!-- Generator: Adobe Illustrator 19.0.0, SVG Export Plug-In . SVG Version: 6.00 Build 0)  -->
<svg version="1.1" id="Layer_1" xmlns="http://www.w3.org/2000/svg" xmlns:xlink="http://www.w3.org/1999/xlink" x="0px" y="0px"
	 viewBox="0 0 512 512" style="enable-background:new 0 0 512 512;" xml:space="preserve">
<path style="fill:#E6AF78;" d="M238.345,384.202v-39.926H114.759v39.926c0,7.751-5.055,14.595-12.463,16.874l-77.369,23.806
	C10.11,429.441,0,443.129,0,458.631v35.714C0,504.096,7.904,512,17.655,512h317.793c9.751,0,17.655-7.904,17.655-17.655v-35.714
	c0-15.501-10.11-29.191-24.926-33.749l-77.369-23.806C243.4,398.797,238.345,391.953,238.345,384.202z"/>
<path style="fill:#D29B6E;" d="M104.564,399.955c83.766,27.936,133.412-49.794,133.412-49.794l0.067-5.884H114.759v39.925
	C114.759,391.085,110.646,397.065,104.564,399.955z"/>
<path style="fill:#00D2FF;" d="M328.178,424.882l-67.964-20.913c-11.623,16.206-44.239,56.853-83.662,63.893
	c-39.424-7.04-72.04-47.687-83.661-63.892l-67.964,20.913C10.11,429.441,0,443.129,0,458.631v35.714C0,504.095,7.905,512,17.655,512
	h317.793c9.75,0,17.655-7.905,17.655-17.655v-35.714C353.103,443.129,342.994,429.441,328.178,424.882z"/>
<path style="fill:#28AFF0;" d="M485.517,17.655h-50.369l-48.813,138.303c-2.027,5.743,2.233,11.766,8.324,11.766h90.858
	c14.626,0,26.483-11.857,26.483-26.483V44.138C512,29.512,500.143,17.655,485.517,17.655z"/>
<path style="fill:#E4EAF6;" d="M317.793,0c-14.626,0-26.483,11.857-26.483,26.483v97.103c0,14.626,11.857,26.483,26.483,26.483
	v29.219c0,5.505,6.656,8.263,10.549,4.37l33.589-33.589h26.483l48.813-138.303C439.254,6.023,434.993,0,428.903,0H317.793z"/>
<path style="fill:#F0C087;" d="M210.4,373.448l35.43-29.525c6.558-5.464,10.913-13.119,12.262-21.547l20.135-125.839
	c6.866-42.908-26.28-81.778-69.734-81.778h-63.881c-43.454,0-76.599,38.87-69.734,81.778l20.135,125.839
	c1.348,8.428,5.705,16.083,12.262,21.547l35.43,29.525c4.759,3.966,10.759,6.138,16.953,6.138h33.79
	C199.641,379.586,205.641,377.415,210.4,373.448z"/>
<path style="fill:#E6AF78;" d="M158.897,220.69h88.276v-26.483H76.864c-0.803,0.942-1.183,1.388-1.986,2.329l20.135,125.839
	c1.348,8.428,5.705,16.083,12.262,21.548l35.43,29.524c4.759,3.966,10.76,6.138,16.954,6.138h8.066l-14.484-43.453
	c-2.1-6.301-3.171-12.899-3.171-19.541v-87.075C150.069,224.642,154.022,220.69,158.897,220.69z"/>
<g>
	<path style="fill:#14C0F7;" d="M52.264,468.749L10.325,433.92C3.885,440.386,0,449.245,0,458.824v35.521
		C0,504.095,7.905,512,17.655,512h44.138v-22.906C61.793,481.234,58.302,473.78,52.264,468.749z"/>
	<path style="fill:#14C0F7;" d="M353.103,494.345v-35.521c0-9.611-3.907-18.503-10.386-24.973l-41.878,34.899
		c-6.038,5.032-9.529,12.484-9.529,20.344V512h44.138C345.198,512,353.103,504.095,353.103,494.345z"/>
</g>
<path style="fill:#464655;" d="M265.913,298.724c-0.44,1.5-11.5,36.724-78.793,36.724v17.655c81.655,0,95.285-47.707,95.828-49.741
	L265.913,298.724z"/>
<circle style="fill:#5B5D6E;" cx="187.123" cy="344.276" r="8.828"/>
<g>
	<path style="fill:#707487;" d="M84.392,256H73.028c-4.875,0-8.828,3.953-8.828,8.828v35.31c0,4.875,3.953,8.828,8.828,8.828h19.838
		L84.392,256z"/>
	<path style="fill:#707487;" d="M282.483,256h-13.771l-8.474,52.966h22.246c4.875,0,8.828-3.953,8.828-8.828v-35.31
		C291.31,259.953,287.358,256,282.483,256z"/>
</g>
<path style="fill:#FFFFFF;" d="M485.181,121.16l-17.655-61.793c-1.086-3.789-4.552-6.401-8.491-6.401h-8.828
	c-3.939,0-7.405,2.612-8.491,6.401l-17.655,61.793c-1.336,4.69,1.379,9.574,6.069,10.914c4.647,1.323,9.569-1.366,10.914-6.06
	l3.213-11.255h20.726l3.214,11.254c1.112,3.875,4.647,6.406,8.483,6.406c0.81,0,1.621-0.113,2.431-0.345
	C483.801,130.733,486.517,125.849,485.181,121.16z M449.301,97.103l5.32-18.625l5.32,18.625H449.301z"/>
<path style="fill:#707487;" d="M397.241,35.31h-26.483c0-4.875-3.948-8.828-8.828-8.828s-8.828,3.953-8.828,8.828h-26.483
	c-4.879,0-8.828,3.953-8.828,8.828s3.948,8.828,8.828,8.828h43.036c-1.075,5.338-3.262,12.445-7.577,19.71
	c-1.116-1.879-2.346-3.656-3.277-5.697c-2.026-4.439-7.258-6.401-11.699-4.366c-4.439,2.026-6.388,7.258-4.371,11.694
	c2.066,4.524,4.524,8.767,7.337,12.715c-4.781,4.102-10.647,7.811-17.898,10.712c-4.526,1.815-6.733,6.948-4.922,11.478
	c1.379,3.448,4.698,5.551,8.199,5.551c1.095,0,2.207-0.207,3.276-0.633c9.478-3.791,17.112-8.662,23.32-14.048
	c6.666,5.789,14.371,10.556,23.094,14.045c1.069,0.431,2.181,0.638,3.276,0.638c3.5,0,6.819-2.103,8.199-5.551
	c1.811-4.526-0.396-9.664-4.922-11.474c-6.826-2.732-12.672-6.436-17.785-10.824c8.867-12.555,12.367-25.597,13.682-33.95h9.655
	c4.879,0,8.828-3.953,8.828-8.828S402.121,35.31,397.241,35.31z"/>
<path style="fill:#5A4146;" d="M208.492,114.759h-63.881c-43.454,0-76.599,38.87-69.734,81.778L84.392,256h14.061
	c4.316,0,7.998-3.119,8.707-7.377l6.369-38.212c0.71-4.256,4.392-7.377,8.707-7.377h108.63c4.316,0,7.998,3.119,8.707,7.377
	l6.369,38.212c0.71,4.257,4.392,7.377,8.707,7.377h14.061l9.514-59.464C285.091,153.629,251.946,114.759,208.492,114.759z"/>
<path style="fill:#14C0F7;" d="M75.162,409.425c8.625,12.843,47.509,66.751,98.285,75.817l3.104,0.554l3.104-0.554
	c50.776-9.067,89.661-62.975,98.285-75.817l-17.727-5.454c-11.623,16.205-44.239,56.852-83.662,63.892
	c-39.424-7.04-72.04-47.687-83.661-63.892L75.162,409.425z"/>
<g>
</g>
<g>
</g>
<g>
</g>
<g>
</g>
<g>
</g>
<g>
</g>
<g>
</g>
<g>
</g>
<g>
</g>
<g>
</g>
<g>
</g>
<g>
</g>
<g>
</g>
<g>
</g>
<g>
</g>
</svg>
