<?xml version="1.0" encoding="iso-8859-1"?>
<!-- Generator: Adobe Illustrator 19.0.0, SVG Export Plug-In . SVG Version: 6.00 Build 0)  -->
<svg version="1.1" id="Layer_1" xmlns="http://www.w3.org/2000/svg" xmlns:xlink="http://www.w3.org/1999/xlink" x="0px" y="0px"
	 viewBox="0 0 512 512" style="enable-background:new 0 0 512 512;" xml:space="preserve">
<g>
	<path style="fill:#D8D8DA;" d="M312.253,477.21c0,0-36.422-353.672-36.422-353.683v-0.011h-0.001
		c-0.009-2.931-1.933-5.864-5.776-8.095c-7.712-4.476-20.348-4.486-28.081-0.022c-3.867,2.233-5.802,5.174-5.804,8.116
		l-36.42,353.695c0,0.007,0.088,0.015,0.227,0.022c-1.377,9.097,3.904,18.454,15.897,25.378c21.685,12.52,57.365,12.52,79.288,0
		c12.116-6.919,17.59-16.269,16.416-25.359C312.009,477.238,312.253,477.224,312.253,477.21z"/>
	<path style="fill:#D8D8DA;" d="M275.831,123.528v-0.011h-0.001c-0.009-2.931-1.933-5.864-5.776-8.095
		c-7.712-4.476-20.348-4.486-28.081-0.022c-3.867,2.233-5.802,5.174-5.804,8.116l-36.42,353.695c0,0.007,0.088,0.015,0.227,0.022
		c-1.377,9.097,3.904,18.454,15.897,25.378c21.685,12.52,57.365,12.52,79.288,0c12.116-6.919,17.59-16.269,16.416-25.359
		C311.576,477.251,275.831,123.539,275.831,123.528z"/>
</g>
<path style="fill:#C6C5CB;" d="M311.576,477.252c0,0-35.744-353.713-35.744-353.724v-0.011h-0.001l0,0l0,0
	c-0.002-0.641-0.113-1.281-0.298-1.915c-0.534-1.825-1.825-3.588-3.882-5.117c-0.493-0.367-1.016-0.725-1.598-1.063
	c-0.965-0.56-2.007-1.05-3.106-1.47c-0.123-0.047-0.255-0.085-0.38-0.131c-0.432-0.157-0.863-0.312-1.31-0.447
	c-0.121-0.037-0.248-0.064-0.37-0.099c-0.46-0.133-0.922-0.263-1.394-0.374c-0.087-0.021-0.178-0.034-0.265-0.054
	c-0.514-0.115-1.031-0.225-1.557-0.315c-0.049-0.008-0.1-0.013-0.149-0.021c-0.567-0.094-1.139-0.178-1.717-0.241
	c-0.027-0.003-0.054-0.004-0.082-0.007c-1.229-0.135-2.475-0.204-3.722-0.204l13.659,398.892c9.343-1.391,18.188-4.165,25.5-8.341
	C307.276,495.691,312.748,486.342,311.576,477.252z"/>
<path style="fill:#ACABB1;" d="M311.743,79.21v-0.033h-0.001c0.069-8.233-5.29-16.46-16.101-22.702
	c-21.658-12.504-57.338-12.504-79.288,0c-10.983,6.257-16.525,14.509-16.604,22.762v47.385c-0.083,8.243,5.284,16.486,16.122,22.744
	c21.685,12.52,57.365,12.52,79.288,0c10.957-6.257,16.491-14.501,16.583-22.744l0,0v-0.007
	C311.743,126.614,311.743,79.214,311.743,79.21z"/>
<path style="fill:#C6C5CB;" d="M215.871,101.973c-21.686-12.52-21.468-32.994,0.482-45.498s57.631-12.504,79.288,0
	c21.657,12.504,21.441,32.979-0.482,45.498C273.236,114.493,237.556,114.493,215.871,101.973z"/>
<path style="fill:#A50020;" d="M293.952,75.764c-0.021,5.66-3.801,11.328-11.32,15.618c-14.961,8.546-39.314,8.546-54.113,0
	c-7.274-4.199-10.936-9.706-10.998-15.241c-0.007-0.098-0.007-0.195-0.007-0.286c0-21.104,17.113-38.217,38.223-38.217
	c21.005,0,38.056,16.952,38.209,37.916C293.952,75.624,293.952,75.694,293.952,75.764z"/>
<path style="fill:#C60024;" d="M277.902,68.862c-0.015,3.997-2.684,7.998-7.992,11.027c-10.563,6.034-27.756,6.034-38.205,0
	c-5.136-2.965-7.721-6.852-7.766-10.76c-0.005-0.069-0.005-0.138-0.005-0.203c0-14.899,12.082-26.982,26.986-26.982
	c14.83,0,26.868,11.969,26.977,26.77C277.902,68.763,277.902,68.813,277.902,68.862z"/>
<path style="fill:#ACABB1;" d="M257.586,1.057V1.056l0,0c0.002-0.271-0.174-0.541-0.53-0.747c-0.713-0.412-1.887-0.412-2.609,0
	c-0.362,0.206-0.543,0.478-0.546,0.749v47.386c-0.003,0.272,0.173,0.542,0.531,0.748c0.714,0.412,1.888,0.412,2.609,0
	c0.36-0.206,0.542-0.478,0.545-0.748l0,0l0,0V1.057z"/>
<path style="fill:#C6C5CB;" d="M254.43,1.806c-0.714-0.412-0.706-1.086,0.016-1.497c0.722-0.412,1.896-0.412,2.609,0
	c0.713,0.412,0.705,1.086-0.016,1.497S255.144,2.218,254.43,1.806z"/>
<path style="fill:#A50020;" d="M291.466,247.686c-0.982-0.559-1.98-1.103-3.024-1.603c0.605,5.775,1.21,11.641,1.814,17.567
	c2.631,2.601,4.052,5.442,4.052,8.209c0,2.162-0.892,4.369-2.54,6.5c-1.708,2.207-4.233,4.309-7.468,6.152
	c-15.662,8.95-41.967,8.965-57.448,0.03c-2.812-1.617-5.079-3.462-6.712-5.381c-1.92-2.267-2.963-4.672-2.948-7.03
	c0.015-2.933,1.617-5.956,4.565-8.708l1.784-17.37c-1.043,0.499-2.071,1.028-3.069,1.603c-10.87,6.198-16.856,14.876-16.886,24.43
	c-0.03,8.994,5.245,17.219,14.876,23.281c0.514,0.318,1.043,0.635,1.587,0.952c9.902,5.714,22.661,8.587,35.436,8.587
	c12.775,0,25.564-2.858,35.557-8.572c0.846-0.484,1.663-0.982,2.435-1.496c9.312-6.047,14.407-14.119,14.437-22.949
	C307.929,262.41,302.093,253.824,291.466,247.686z"/>
<path style="fill:#C60024;" d="M291.466,211.525c-2.177-1.255-4.506-2.374-6.923-3.34c0.544,5.216,1.089,10.583,1.662,16.07
	c5.186,3.371,8.103,7.483,8.103,11.445c-0.015,3.356-2.117,6.818-5.911,9.872c-1.194,0.982-2.57,1.905-4.097,2.781
	c-7.831,4.475-18.338,6.728-28.815,6.728c-10.461,0-20.892-2.238-28.633-6.712c-1.21-0.695-2.313-1.436-3.31-2.192
	c-4.081-3.129-6.364-6.727-6.35-10.204c0.015-4.081,3.129-8.315,8.601-11.807l1.648-15.995c-2.434,0.953-4.777,2.071-6.969,3.326
	c-10.87,6.198-16.856,14.861-16.886,24.43v0.075c0,9.449,5.85,18.02,16.463,24.158c0.635,0.363,1.285,0.725,1.935,1.073
	c9.599,4.989,21.542,7.498,33.501,7.498c12.321,0,24.641-2.646,34.469-7.967c0.363-0.181,0.725-0.378,1.089-0.589
	c10.854-6.198,16.841-14.876,16.872-24.446C307.929,226.249,302.093,217.647,291.466,211.525z"/>
<g>
	<path style="fill:#2487FF;" d="M237.638,127.921c-1.847-0.341-3.671-0.736-5.466-1.184v-14.262
		c1.794,0.448,3.618,0.843,5.466,1.184V127.921z M223.575,109.816c-1.878-0.701-3.703-1.468-5.466-2.304v14.262
		c1.763,0.836,3.588,1.603,5.466,2.304V109.816z M251.701,115.202c-1.83-0.07-3.653-0.188-5.466-0.356v14.262
		c1.813,0.168,3.636,0.286,5.466,0.356V115.202z M209.512,102.517c-2.045-1.45-3.868-2.976-5.466-4.561v14.262
		c1.598,1.586,3.421,3.111,5.466,4.561V102.517z M307.954,97.602c-1.598,1.598-3.424,3.134-5.466,4.597v14.262
		c2.042-1.464,3.868-3.001,5.466-4.597V97.602z M293.891,107.259c-1.762,0.848-3.59,1.624-5.466,2.337v14.262
		c1.876-0.714,3.704-1.489,5.466-2.337V107.259z M279.828,112.311c-1.795,0.461-3.618,0.868-5.466,1.221v14.262
		c1.847-0.353,3.671-0.761,5.466-1.221V112.311z M265.765,114.777c-1.814,0.181-3.636,0.312-5.466,0.396v14.262
		c1.83-0.083,3.652-0.215,5.466-0.396V114.777z"/>
	<path style="fill:#2487FF;" d="M237.638,148.351c-1.847-0.341-3.671-0.736-5.466-1.184v-14.262
		c1.794,0.448,3.618,0.843,5.466,1.184V148.351z M223.575,130.245c-1.878-0.701-3.703-1.468-5.466-2.304v14.262
		c1.763,0.836,3.588,1.603,5.466,2.304V130.245z M251.701,135.632c-1.83-0.07-3.653-0.188-5.466-0.356v14.262
		c1.813,0.168,3.636,0.286,5.466,0.356V135.632z M209.512,122.947c-2.045-1.45-3.868-2.976-5.466-4.561v14.262
		c1.598,1.586,3.421,3.111,5.466,4.561V122.947z M307.954,118.032c-1.598,1.598-3.424,3.134-5.466,4.597v14.262
		c2.042-1.464,3.868-3.001,5.466-4.597V118.032z M293.891,127.688c-1.762,0.848-3.59,1.624-5.466,2.337v14.262
		c1.876-0.714,3.704-1.489,5.466-2.337V127.688z M279.828,132.74c-1.795,0.461-3.618,0.868-5.466,1.221v14.262
		c1.847-0.353,3.671-0.761,5.466-1.221V132.74z M265.765,135.206c-1.814,0.181-3.636,0.312-5.466,0.396v14.262
		c1.83-0.083,3.652-0.215,5.466-0.396V135.206z"/>
</g>
<g>
</g>
<g>
</g>
<g>
</g>
<g>
</g>
<g>
</g>
<g>
</g>
<g>
</g>
<g>
</g>
<g>
</g>
<g>
</g>
<g>
</g>
<g>
</g>
<g>
</g>
<g>
</g>
<g>
</g>
</svg>
