<?xml version="1.0" encoding="iso-8859-1"?>
<!-- Generator: Adobe Illustrator 19.0.0, SVG Export Plug-In . SVG Version: 6.00 Build 0)  -->
<svg version="1.1" id="Capa_1" xmlns="http://www.w3.org/2000/svg" xmlns:xlink="http://www.w3.org/1999/xlink" x="0px" y="0px"
	 viewBox="0 0 512 512" style="enable-background:new 0 0 512 512;" xml:space="preserve">
<circle style="fill:#0074A3;" cx="256" cy="256" r="256"/>
<path style="fill:#005C83;" d="M511.072,277.739L321.364,88.115L184.002,107l0.556,254.89L137,410.729l100.607,100.607
	C243.683,511.768,249.814,512,256,512C390.061,512,500.037,408.947,511.072,277.739z"/>
<path style="fill:#FFFFFF;" d="M347.941,248.952h-41v-96.24c0-28.089-22.853-50.942-50.941-50.942s-50.941,22.852-50.941,50.942
	v96.24h-41v-96.24c0-50.697,41.245-91.942,91.941-91.942s91.941,41.245,91.941,91.942V248.952z"/>
<path style="fill:#E0E0E0;" d="M256,60.771c-0.111,0-0.222,0.004-0.333,0.004v41.004c0.112-0.001,0.221-0.008,0.333-0.008
	c28.089,0,50.941,22.852,50.941,50.942v96.24h41v-96.24C347.941,102.016,306.696,60.771,256,60.771z"/>
<rect x="137" y="206.44" style="fill:#FFDC00;" width="238" height="204.29"/>
<rect x="255.67" y="206.44" style="fill:#FFC000;" width="119.33" height="204.29"/>
<circle style="fill:#FFECB3;" cx="256" cy="312.97" r="74.72"/>
<path style="fill:#FFD863;" d="M256,238.26c-0.112,0-0.222,0.008-0.333,0.008V387.68c0.112,0,0.221,0.008,0.333,0.008
	c41.264,0,74.715-33.451,74.715-74.715C330.715,271.711,297.264,238.26,256,238.26z"/>
<polygon style="fill:#47AB4B;" points="237.676,359.461 201.101,322.886 220.899,303.087 237.676,319.863 289.101,268.438 
	308.899,288.237 "/>
<polygon style="fill:#2B9153;" points="289.101,268.438 255.667,301.872 255.667,341.47 308.899,288.237 "/>
<g>
</g>
<g>
</g>
<g>
</g>
<g>
</g>
<g>
</g>
<g>
</g>
<g>
</g>
<g>
</g>
<g>
</g>
<g>
</g>
<g>
</g>
<g>
</g>
<g>
</g>
<g>
</g>
<g>
</g>
</svg>
