<?xml version="1.0" encoding="iso-8859-1"?>
<!-- Generator: Adobe Illustrator 19.0.0, SVG Export Plug-In . SVG Version: 6.00 Build 0)  -->
<svg version="1.1" id="Capa_1" xmlns="http://www.w3.org/2000/svg" xmlns:xlink="http://www.w3.org/1999/xlink" x="0px" y="0px"
	 viewBox="0 0 512 512" style="enable-background:new 0 0 512 512;" xml:space="preserve">
<path style="fill:#FFE8B6;" d="M419.681,3.072c40.174-20.087,74.841,59.873,44.905,194.587
	c-16.555,74.497-74.841,134.714-134.714,179.619c-59.888,44.905-164.666-14.968-104.793-74.841S344.84,197.659,374.776,107.85
	C394.295,49.294,389.744,18.04,419.681,3.072"/>
<path style="fill:#FFD983;" d="M464.586,92.882c0,44.905-14.968,134.714-59.873,194.587s-104.778,74.841-59.873,14.968
	s74.841-104.778,89.809-164.651S464.586,33.009,464.586,92.882"/>
<g transform="matrix(1.25 0 0 -1.25 27.5 25)">
	<path style="fill:#FFCC4D;" d="M241.897-198.006c-3.545-7.089,13.974,45.899-35.936,71.86
		c-23.746,12.346-119.746-11.975-47.898-11.975c35.936,0,47.898-23.949,23.949-47.898c-3.485-3.496-5.844-7.221-7.448-10.921
		c-4.982-4.155-10.442-8.502-16.501-13.04c-27.086-20.321-69.919-50.616-119.734-83.822C2.405-317.751-9.569-329.726-9.569-341.701
		c0-35.924,107.771-35.924,167.632-11.975c59.885,23.949,119.758,83.822,119.758,83.822l47.898,47.898
		C289.796-174.046,241.897-198.006,241.897-198.006"/>
	<path style="fill:#FFE8B6;" d="M241.897-198.006c0,0,21.458,56.628-35.936,83.834c-48.39,22.931-95.797,11.975-131.708-11.975
		c-35.924-23.949-23.949-47.898-35.924-59.885c-11.975-11.975,11.975-23.949,35.924,0c23.949,23.962,99.569,58.616,131.708,47.911
		C241.897-150.097,229.923-174.046,241.897-198.006"/>
</g>
<path style="fill:#A6D388;" d="M389.744,497.032h-59.873c-29.936,0-44.905,14.968-59.873,14.968s-29.936-29.936,0-29.936
	c29.936,0,59.873,0,74.841-14.968C359.808,452.127,419.681,497.032,389.744,497.032"/>
<path style="fill:#3E721D;" d="M284.959,497.032c0,8.278-6.706,14.968-14.968,14.968c-8.262,0-14.968-6.691-14.968-14.968
	s6.706-14.968,14.968-14.968C278.253,482.063,284.959,488.754,284.959,497.032"/>
<path style="fill:#FFCC4D;" d="M482.672,392.254c0,0-62.987,104.778-92.923,104.778h-59.873c-29.936,0,0-14.968,14.968-29.936
	c14.968-14.968,74.841,0,74.841-89.809C419.685,332.381,482.672,392.254,482.672,392.254"/>
<path style="fill:#FFE8B6;" d="M389.744,257.532c44.905,0,119.746,44.92,104.778,134.73S419.681,497.04,389.744,497.04h-29.936
	c-29.936,0-14.968-14.968,0-29.936c14.968-14.968,59.873,0,59.873-89.809c0-44.905-59.873-104.778-89.809-104.778
	C329.871,272.516,359.808,257.532,389.744,257.532"/>
<path style="fill:#FFD983;" d="M255.023,287.476c44.92,0,74.857,14.968,44.92,44.905c-23.68,23.665-89.825,74.841-149.698,89.809
	s-119.746,14.968-74.841-14.968C120.309,377.286,221.553,287.476,255.023,287.476"/>
<path style="fill:#C1694F;" d="M30.499,437.159c14.968,0,14.968,0,14.968,9.984c0,9.969,0,19.953-14.968,19.953
	s-14.968-19.953-14.968-19.953S15.531,437.159,30.499,437.159"/>
<g>
</g>
<g>
</g>
<g>
</g>
<g>
</g>
<g>
</g>
<g>
</g>
<g>
</g>
<g>
</g>
<g>
</g>
<g>
</g>
<g>
</g>
<g>
</g>
<g>
</g>
<g>
</g>
<g>
</g>
</svg>
