<?xml version="1.0" encoding="iso-8859-1"?>
<!-- Generator: Adobe Illustrator 19.0.0, SVG Export Plug-In . SVG Version: 6.00 Build 0)  -->
<svg version="1.1" id="Layer_1" xmlns="http://www.w3.org/2000/svg" xmlns:xlink="http://www.w3.org/1999/xlink" x="0px" y="0px"
	 viewBox="0 0 512 512" style="enable-background:new 0 0 512 512;" xml:space="preserve">
<path style="fill:#D8D8DA;" d="M511.93,228.149c1.063-28.363-11.842-56.889-38.711-81.82c-5.947-5.554-11.929-11.068-17.894-16.601
	c0.109,0.1,0.206,0.205,0.313,0.305c-9.447-8.816-20.78-17.148-34.022-24.791c-91.93-53.086-240.579-53.086-331.912,0.001
	c-12.576,7.307-23.4,15.242-32.496,23.629c0.096-0.089,0.183-0.18,0.279-0.269c-0.259,0.259-0.63,0.578-0.9,0.825
	c-0.539,0.495-1.259,1.155-1.798,1.65c-0.539,0.495-1.259,1.155-1.798,1.65s-1.259,1.155-1.798,1.65
	c-0.539,0.495-1.259,1.155-1.798,1.65c-3.298,3.025-6.595,6.05-9.893,9.075C12.215,170.135-0.821,198.89,0.364,227.507
	c-0.052-1.273-0.082-2.546-0.078-3.819L0,324.215c-0.109,38.172,25.086,76.404,75.534,105.529
	c100.247,57.878,262.245,57.877,361.828,0.006c49.478-28.754,74.245-66.381,74.353-104.066L512,225.158
	C511.997,226.155,511.968,227.152,511.93,228.149z"/>
<path style="fill:#E0E0E2;" d="M455.325,129.728c5.964,5.534,11.946,11.049,17.893,16.601
	c61.618,57.168,49.846,133.255-35.571,182.894c-99.583,57.872-261.58,57.872-361.828-0.006
	C-10.773,279.224-22.963,202.403,39.5,145.105l0,0c3.298-3.025,6.595-6.05,9.893-9.075c0.539-0.495,1.259-1.155,1.798-1.65
	c0.539-0.495,1.259-1.155,1.798-1.65s1.259-1.155,1.798-1.65c0.539-0.495,1.259-1.155,1.798-1.65c0.27-0.248,0.641-0.566,0.9-0.825
	c-57.292,52.554-46.11,123.042,33.312,168.887c91.93,53.087,240.58,53.086,331.898,0.006
	C501.046,251.977,511.843,182.164,455.325,129.728z"/>
<g>
	<path style="fill:#D8D8DA;" d="M421.617,105.242c91.949,53.076,92.434,139.179,1.083,192.255
		c-91.318,53.08-239.968,53.081-331.898-0.006c-91.949-53.075-92.434-139.178-1.095-192.247
		C181.038,52.156,329.688,52.156,421.617,105.242z"/>
	<path style="fill:#D8D8DA;" d="M512,225.158l-0.285,100.528c-0.107,37.684-24.875,75.312-74.353,104.066
		c-99.583,57.872-261.58,57.872-361.828-0.006C25.087,400.619-0.107,362.387,0,324.215l0.285-100.528
		c-0.109,38.172,25.086,76.404,75.534,105.529c100.248,57.878,262.245,57.877,361.828,0.006
		C487.125,300.47,511.893,262.842,512,225.158z"/>
</g>
<g>
	<path style="fill:#9CDD03;" d="M464.562,161.497c0.613-31.522-19.918-63.19-61.58-87.243
		c-79.876-46.117-212.008-48.293-295.111,0.001c-40.485,23.527-60.68,54.34-60.639,85.175c0-0.098-0.005-0.197-0.005-0.296
		l-0.305,29.146c-0.088,31.132,20.459,62.31,61.6,86.064c81.761,47.204,213.894,47.204,295.124-0.001
		c40.352-23.45,60.551-54.137,60.639-84.872l0.305-29.146C464.588,160.716,464.57,161.107,464.562,161.497z"/>
	<path style="fill:#9CDD03;" d="M464.589,160.325l-0.305,29.146c-0.087,30.735-20.286,61.421-60.639,84.872
		c-81.229,47.205-213.363,47.206-295.124,0.001c-41.142-23.753-61.689-54.932-61.6-86.064l0.305-29.146
		c-0.088,31.132,20.459,62.31,61.6,86.064c81.761,47.205,213.894,47.204,295.124-0.001
		C444.303,221.747,464.502,191.06,464.589,160.325z"/>
</g>
<path style="fill:#B3FA08;" d="M402.83,74.255c81.761,47.205,82.198,123.738,0.969,170.943s-213.363,47.206-295.124,0.001
	S26.49,121.461,107.719,74.256C190.822,25.962,322.954,28.138,402.83,74.255z"/>
<g>
	<path style="fill:#FFFFFF;" d="M375.05,121.766c-4.654-2.687-11.783-3.674-18.255-2.179c-8.689,1.997-12.887,7.708-9.41,12.732
		c7.128,10.274,8.916,21.54,5.313,32.289c-3.616,10.758-12.515,20.97-26.893,29.325c-9.639,5.602-20.727,9.775-32.59,12.568
		c-17.782,4.182-37.319,5.235-56.011,3.137c-18.692-2.098-36.487-7.302-51.039-15.704c-9.702-5.602-16.943-12.037-21.804-18.918
		c-7.277-10.313-9.172-21.641-5.61-32.462c3.576-10.828,12.501-21.103,26.946-29.513c14.391-8.348,31.978-13.543,50.553-15.665
		c18.548-2.122,37.988-1.132,55.748,2.964c8.699,2.005,18.53-0.452,21.963-5.485c2.561-3.753,0.833-7.881-3.821-10.567
		c-1.585-0.915-3.509-1.663-5.72-2.172c-23.91-5.5-49.939-6.826-74.839-3.986c-24.874,2.84-48.7,9.876-67.896,21.048
		c-12.874,7.481-22.576,16.157-28.989,25.409c-9.647,13.887-11.971,29.045-7.028,43.563c4.917,14.519,17.184,28.429,36.628,39.654
		c12.958,7.481,27.98,13.122,43.975,16.867c24.005,5.632,50.169,7.036,75.232,4.228c25.036-2.809,49.01-9.869,68.328-21.095
		c19.21-11.164,31.295-24.98,36.102-39.405c4.835-14.425,2.461-29.497-7.113-43.329C377.933,123.794,376.634,122.682,375.05,121.766
		"/>
	<path style="fill:#FFFFFF;" d="M366.16,89.335c-6.634-3.831-17.356-3.831-23.947,0l-89.004,51.724
		c-6.591,3.831-6.557,10.04,0.078,13.871c6.635,3.831,17.356,3.831,23.947,0l89.003-51.725
		C372.829,99.375,372.794,93.164,366.16,89.335"/>
</g>
<g>
</g>
<g>
</g>
<g>
</g>
<g>
</g>
<g>
</g>
<g>
</g>
<g>
</g>
<g>
</g>
<g>
</g>
<g>
</g>
<g>
</g>
<g>
</g>
<g>
</g>
<g>
</g>
<g>
</g>
</svg>
