<?xml version="1.0" encoding="iso-8859-1"?>
<!-- Generator: Adobe Illustrator 19.0.0, SVG Export Plug-In . SVG Version: 6.00 Build 0)  -->
<svg version="1.1" id="Capa_1" xmlns="http://www.w3.org/2000/svg" xmlns:xlink="http://www.w3.org/1999/xlink" x="0px" y="0px"
	 viewBox="0 0 503.517 503.517" style="enable-background:new 0 0 503.517 503.517;" xml:space="preserve">
<polygon style="fill:#1FEAC3;" points="189.147,43.949 189.099,437.803 265.23,394.027 265.277,23.012 "/>
<polygon style="fill:#11CEAA;" points="271.055,328.381 195.235,372.157 251.528,404.319 327.658,360.543 "/>
<g>
	<polygon style="fill:#0CA88E;" points="156.516,43.78 194.345,63.37 195.235,460.075 156.516,437.784 	"/>
	<polygon style="fill:#0CA88E;" points="232.103,87.217 270.523,109.596 270.818,503.517 232.103,481.221 	"/>
	<polygon style="fill:#0CA88E;" points="185.681,366.848 185.681,454.408 235.053,483.029 235.053,395.469 	"/>
	<polygon style="fill:#0CA88E;" points="185.681,60.743 185.681,148.295 235.053,176.92 235.053,89.364 	"/>
</g>
<polygon style="fill:#11CEAA;" points="232.336,0 156.516,43.78 270.523,109.564 346.654,65.784 "/>
<polygon style="fill:#26F9D0;" points="270.866,109.596 270.818,503.45 346.949,459.674 347,65.82 "/>
<polyline style="fill:#1FEAC3;" points="347,65.82 270.866,109.596 270.818,503.45 "/>
<g>
</g>
<g>
</g>
<g>
</g>
<g>
</g>
<g>
</g>
<g>
</g>
<g>
</g>
<g>
</g>
<g>
</g>
<g>
</g>
<g>
</g>
<g>
</g>
<g>
</g>
<g>
</g>
<g>
</g>
</svg>
