<?xml version="1.0" encoding="iso-8859-1"?>
<!-- Generator: Adobe Illustrator 19.1.0, SVG Export Plug-In . SVG Version: 6.00 Build 0)  -->
<svg version="1.1" id="Capa_1" xmlns="http://www.w3.org/2000/svg" xmlns:xlink="http://www.w3.org/1999/xlink" x="0px" y="0px"
	 viewBox="0 0 217.221 217.221" style="enable-background:new 0 0 217.221 217.221;" xml:space="preserve">
<g>
	<g id="group-31svg">
		<path id="path-1_85_" style="fill:#0CB04A;" d="M90.567,192.028h-16.08c-3.099,0-5.613,1.8-5.613,4.02s2.514,4.019,5.613,4.019
			h0.749c3.1,0,5.613,1.8,5.613,4.02s-2.513,4.019-5.613,4.019H40.672c-3.1,0-5.614,1.8-5.614,4.02s2.514,4.019,5.614,4.019H82.21
			h84.903c3.1,0,5.613-1.799,5.613-4.019s-2.513-4.02-5.613-4.02h-9.593c-3.1,0-5.613-1.799-5.613-4.019s2.513-4.02,5.613-4.02
			h37.677c3.1,0,5.613-1.799,5.613-4.019s-2.513-4.02-5.613-4.02h-2.812H90.567z"/>
		<path id="path-2_85_" style="fill:#0CB04A;" d="M189.32,217.221c-2.599,0-4.706-1.928-4.706-4.307s2.107-4.308,4.706-4.308h14.422
			c2.599,0,4.706,1.929,4.706,4.308s-2.107,4.307-4.706,4.307H189.32z"/>
		<path id="path-3_85_" style="fill:#0CB04A;" d="M7.423,217.221c-2.599,0-4.706-1.928-4.706-4.307s2.107-4.308,4.706-4.308h14.421
			c2.6,0,4.707,1.929,4.707,4.308s-2.107,4.307-4.707,4.307H7.423z"/>
		<path id="path-4_85_" style="fill:#0CB04A;" d="M120.715,110.839c-9.401,0-17.053-7.652-17.053-17.053V17.052
			C103.662,7.643,111.314,0,120.715,0c9.408,0,17.052,7.643,17.052,17.052v76.734C137.768,103.187,130.124,110.839,120.715,110.839z
			"/>
		<path id="path-5_84_" style="opacity:0.35;fill:#3E66A5;enable-background:new    ;" d="M128.41,1.917
			c1.185,2.323,1.917,4.912,1.917,7.694v76.734c0,9.4-7.644,17.052-17.052,17.052c-2.781,0-5.37-0.732-7.692-1.919
			c2.824,5.526,8.513,9.36,15.133,9.36c9.408,0,17.052-7.651,17.052-17.052V17.052C137.768,10.426,133.938,4.74,128.41,1.917z"/>
		<path id="path-6_81_" style="fill:#FF3A2F;" d="M120.715,204.625c-51.707,0-93.79-42.073-93.79-93.786
			c0-35.915,21.041-69.141,53.59-84.637c1.332-0.624,2.881-0.533,4.113,0.246c1.232,0.779,1.981,2.136,1.981,3.601v29.725
			c0,1.345-0.624,2.607-1.698,3.406c-15.171,11.423-23.881,28.796-23.881,47.659c0,32.905,26.778,59.681,59.685,59.681
			c32.915,0,59.684-26.776,59.684-59.681c0-18.863-8.701-36.236-23.881-47.659c-1.065-0.799-1.698-2.061-1.698-3.406V30.049
			c0-1.465,0.749-2.822,1.99-3.601c1.232-0.779,2.79-0.87,4.106-0.246c32.555,15.496,53.588,48.722,53.588,84.637
			C214.505,162.552,172.439,204.625,120.715,204.625z"/>
		<path id="path-7_80_" style="opacity:0.35;fill:#060606;enable-background:new    ;" d="M75.448,52.333
			c0,1.345-0.623,2.606-1.698,3.406c-15.17,11.423-23.88,28.796-23.88,47.658c0,23.072,13.188,43.089,32.399,53.017
			c-12.969-10.956-21.237-27.311-21.237-45.576c0-18.862,8.709-36.236,23.88-47.658c1.075-0.8,1.698-2.061,1.698-3.406V30.048
			c0-1.464-0.749-2.821-1.981-3.599c-1.232-0.781-2.781-0.871-4.113-0.247c-1.728,0.823-3.406,1.721-5.068,2.642V52.333z"/>
		<path id="path-8_61_" style="opacity:0.35;fill:#060606;enable-background:new    ;" d="M166.835,29.286
			c22.642,17.565,36.508,44.951,36.508,74.111c0,51.715-42.065,93.787-93.789,93.787c-16.777,0-32.528-4.45-46.17-12.203
			c15.867,12.298,35.754,19.644,57.332,19.644c51.724,0,93.789-42.073,93.789-93.787C214.505,77.151,195.997,45.829,166.835,29.286z
			"/>
	</g>
</g>
<g>
</g>
<g>
</g>
<g>
</g>
<g>
</g>
<g>
</g>
<g>
</g>
<g>
</g>
<g>
</g>
<g>
</g>
<g>
</g>
<g>
</g>
<g>
</g>
<g>
</g>
<g>
</g>
<g>
</g>
</svg>
