<?xml version="1.0" encoding="iso-8859-1"?>
<!-- Generator: Adobe Illustrator 18.1.1, SVG Export Plug-In . SVG Version: 6.00 Build 0)  -->
<svg version="1.1" id="Capa_1" xmlns="http://www.w3.org/2000/svg" xmlns:xlink="http://www.w3.org/1999/xlink" x="0px" y="0px"
	 viewBox="0 0 15.957 15.957" style="enable-background:new 0 0 15.957 15.957;" xml:space="preserve">
<g>
	<path style="fill:#030104;" d="M7.039,11.326c0.087,1.508-0.227,2.105-1.276,2.273c-1.05,0.168-2.066-0.736-2.272-2.021
		c-0.094-0.59-0.188-1.789-0.308-2.314L2.282,6.728C2.23,6.504,1.636,5.436,1.542,4.971C1.351,4.025,1.961,3.105,2.905,2.913
		c0,0,1.404-0.283,1.651-0.333C4.803,2.529,5.54,2.481,5.54,2.481c1.012,0,1.5,0.523,1.5,1.535C7.04,4.603,6,5.506,6,5.506
		s-1.472,1.417-0.957,2.47C5.556,9.029,6.728,9.333,7.039,11.326z M5.864,2.222c0.418,0,0.758-0.499,0.758-1.112S6.282,0,5.864,0
		C5.443,0,5.103,0.498,5.103,1.11C5.104,1.723,5.443,2.222,5.864,2.222z M4.249,2.109c0.269-0.038,0.442-0.388,0.385-0.782
		c-0.056-0.394-0.32-0.682-0.589-0.643C3.777,0.722,3.604,1.072,3.66,1.466C3.716,1.859,3.98,2.147,4.249,2.109z M3.098,2.421
		c0.195-0.046,0.298-0.314,0.231-0.598c-0.068-0.284-0.28-0.478-0.474-0.432s-0.298,0.313-0.23,0.598
		C2.692,2.273,2.903,2.467,3.098,2.421z M2.167,3.031c0.17-0.067,0.228-0.324,0.129-0.573S1.98,2.061,1.81,2.129
		S1.582,2.453,1.681,2.702S1.997,3.098,2.167,3.031z M1.153,3.103C1.04,3.147,1.001,3.317,1.066,3.483
		c0.065,0.165,0.21,0.263,0.323,0.219s0.152-0.215,0.087-0.38C1.41,3.156,1.266,3.058,1.153,3.103z M13.091,5.508
		c0,0-1.373-0.403-1.615-0.473c-0.242-0.072-0.972-0.183-0.972-0.183C9.495,4.766,8.965,5.246,8.879,6.254
		C8.827,6.837,9.786,7.826,9.786,7.826s1.346,1.538,0.742,2.542c-0.602,1.004-1.795,1.209-2.274,3.166
		c-0.216,1.493,0.047,2.116,1.075,2.375c1.033,0.258,2.121-0.558,2.438-1.818c0.145-0.582,0.34-1.768,0.506-2.281l1.114-2.449
		c0.071-0.22,0.754-1.232,0.888-1.687C14.545,6.749,14.015,5.779,13.091,5.508z M10.202,4.564c0.418,0.036,0.799-0.43,0.852-1.042
		s-0.243-1.136-0.662-1.172C9.974,2.314,9.593,2.78,9.54,3.392S9.784,4.529,10.202,4.564z M11.821,4.59
		c0.264,0.061,0.551-0.204,0.641-0.59c0.088-0.387-0.053-0.75-0.317-0.811s-0.551,0.204-0.64,0.59
		C11.415,4.166,11.558,4.529,11.821,4.59z M12.941,4.999c0.189,0.062,0.416-0.112,0.508-0.389s0.012-0.553-0.177-0.615
		s-0.417,0.112-0.509,0.389S12.751,4.937,12.941,4.999z M14.249,4.821c-0.165-0.082-0.395,0.045-0.514,0.285s-0.083,0.5,0.082,0.582
		c0.164,0.082,0.395-0.045,0.514-0.285S14.413,4.902,14.249,4.821z M14.821,5.845c-0.109-0.054-0.262,0.031-0.342,0.19
		c-0.078,0.159-0.055,0.333,0.055,0.387c0.109,0.055,0.262-0.03,0.342-0.19C14.955,6.073,14.931,5.9,14.821,5.845z"/>
</g>
<g>
</g>
<g>
</g>
<g>
</g>
<g>
</g>
<g>
</g>
<g>
</g>
<g>
</g>
<g>
</g>
<g>
</g>
<g>
</g>
<g>
</g>
<g>
</g>
<g>
</g>
<g>
</g>
<g>
</g>
</svg>
