<?xml version="1.0" encoding="iso-8859-1"?>
<!-- Generator: Adobe Illustrator 19.0.0, SVG Export Plug-In . SVG Version: 6.00 Build 0)  -->
<svg version="1.1" id="Layer_1" xmlns="http://www.w3.org/2000/svg" xmlns:xlink="http://www.w3.org/1999/xlink" x="0px" y="0px"
	 viewBox="0 0 512 512" style="enable-background:new 0 0 512 512;" xml:space="preserve">
<circle style="fill:#E4776E;" cx="256" cy="256" r="256"/>
<path style="fill:#CB4D44;" d="M406.692,128.744L51.936,257.04l87.388,88.02l9.936,41.892l-7.424,12.624L250.46,507.152
	l-4.552,4.596C249.26,511.876,252.616,512,256,512c141.384,0,256-114.612,256-256c0-8.136-0.42-16.176-1.164-24.12L406.692,128.744z
	"/>
<polygon style="fill:#0D0C0C;" points="215.752,155.724 51.936,257.04 242.78,230.956 406.596,129.64 "/>
<path style="fill:#282627;" d="M232.04,183.8c-53.284,19.148-93.248,43.664-89.26,54.764l21.188,58.984l192.96-69.312
	l-21.184-58.984C331.756,158.148,285.32,164.664,232.04,183.8z"/>
<ellipse transform="matrix(-0.3381 -0.9411 0.9411 -0.3381 101.1032 596.8688)" style="fill:#514F4F;" cx="260.445" cy="262.881" rx="21.368" ry="102.515"/>
<path style="fill:#BD9038;" d="M370.588,289.6c0,0,16.696,24.004,46.256,29.52c0,0-158.7,44.608-208.78,88.228l0.348-21.872
	l62.616-56.224L370.588,289.6z"/>
<ellipse transform="matrix(0.8419 -0.5396 0.5396 0.8419 -170.8398 152.9212)" style="fill:#C8A660;" cx="175.572" cy="368.035" rx="46.287" ry="49.031"/>
<path style="fill:#BD9038;" d="M217.48,338.32l-56.788,21.932c0,0,17.332,1.204,20.128,20.368
	c3.056,20.936-13.488,31.704-33.388,24.68c0,0,15.404,16.34,44.312,9.072c28.916-7.26,30.176-27.532,30.176-27.532l3.284-19.424
	L217.48,338.32z"/>
<path style="fill:#B92025;" d="M307.556,355.676c0,0,13.008,21.728,8,47.1l-11.2-13.54l-8.92,9.54c0,0,1.072-37.744-12.436-55.572
	L307.556,355.676z"/>
<path style="fill:#E31E25;" d="M310.104,332.676c0,0,43.184,30.28,80.132,25.576c0,0-14.18,8.536-22.024,8.432
	c0,0,8.324,12.432,18.28,14.608c0,0-66.508,1.84-100.608-37.432L310.104,332.676z"/>
<path style="fill:#E1CAA3;" d="M351.352,222.068c0,0,65.78-12.092,59.696,62.2c0,0-147.812,56.236-195.976,118.352
	c0,0,13.668-20.204-2.296-51.068c-6.304-12.176-18.244-26.92-38.148-29.548c-6.788-0.9-12.292-0.832-14.464-0.296
	c0,0,0.168,0.256,14.452-4.016C217.796,304.784,309.824,272.536,351.352,222.068z"/>
<path style="fill:#E31E25;" d="M251.036,289.012c0,0,47.992-0.228,43.116,52.428l23.376-13.136c0,0,2.052-44.864-39.28-52.224
	L251.036,289.012z"/>
<path style="fill:#0E0E0D;" d="M405.632,256.48c-0.536-2.16-1.804-3.96-2.916-5.564c-0.468-0.656-0.896-1.276-1.204-1.82
	c-0.76-1.336-1.436-2.68-2.164-4.112c-0.644-1.284-1.288-2.56-1.976-3.808c-2.764-5.008-7.544-7.92-11.856-10.104
	c-1.152-0.584-2.28-1.024-3.376-1.448c-0.952-0.376-1.856-0.728-2.636-1.112c-0.08-0.052-0.148-0.112-0.22-0.168
	c-0.084-0.064-0.188-0.136-0.3-0.22c-0.34-5.892,0.616-11.584,1.62-17.572c0.692-4.096,1.408-8.34,1.692-12.712
	c0.724-11.368-1.48-27.812-7.108-37.228c-5.868-9.816-20.944-25.272-34.668-27.292c-5.624-0.824-10.692,0.648-14.648,4.264
	c-1.328,1.216-1.416,3.284-0.204,4.608c1.216,1.328,3.272,1.416,4.6,0.208c2.536-2.316,5.58-3.18,9.3-2.632
	c11.132,1.632,24.584,15.092,30.02,24.184c4.892,8.184,6.844,23.36,6.196,33.472c-0.256,4.04-0.94,8.104-1.596,12.04
	c-1.048,6.18-2.108,12.548-1.692,19.288c-0.16,0.176-0.292,0.368-0.424,0.564l-0.932,0.212l0.116,1.544
	c-0.224,0.704-0.356,1.396-0.468,1.98c-0.06,0.336-0.144,0.832-0.208,0.992c-0.448,1.272-0.868,2.588-1.28,3.908
	c-0.308,0.992-0.616,1.98-0.948,2.952c-1.152,3.4-0.58,6.452-0.024,9.4l0.156,0.864c0.196,1.016,0.328,2.036,0.46,3.052
	c0.256,1.928,0.532,3.92,1.1,5.944c0.256,0.904,0.584,1.736,0.876,2.46c0.4,1.008,0.736,1.884,0.844,2.756
	c0.22,1.792,1.844,3.064,3.632,2.844c0.016,0,0.02,0,0.024-0.008c1.776-0.232,3.032-1.848,2.812-3.624
	c-0.208-1.696-0.76-3.108-1.252-4.348c-0.252-0.652-0.492-1.26-0.664-1.864c-0.444-1.58-0.676-3.252-0.916-5.032
	c-0.148-1.116-0.3-2.24-0.504-3.356l-0.168-0.904c-0.256-1.344-0.464-2.484-0.516-3.536c0.148,0.432,0.292,0.868,0.448,1.308
	c2.04,5.992,4.352,12.772,8.956,17.264c0.744,0.728,1.744,1.024,2.7,0.896c0.708-0.088,1.376-0.412,1.908-0.952
	c0.608-0.628,0.92-1.436,0.928-2.252c1.072,0.624,2.452,0.608,3.536-0.16c1.46-1.044,1.8-3.076,0.76-4.544
	c-3.528-4.94-6.896-10.324-9.488-15.164c-0.136-0.256-0.528-1.252-0.844-2.052c-0.46-1.16-0.916-2.296-1.38-3.388
	c0.276,0.124,0.556,0.244,0.82,0.372c3.428,1.744,7.188,3.984,9.1,7.444c0.648,1.176,1.256,2.38,1.868,3.588
	c0.724,1.436,1.472,2.92,2.308,4.4c0.46,0.812,1.008,1.592,1.54,2.344c0.828,1.184,1.688,2.412,1.924,3.4
	c0.436,1.744,2.2,2.812,3.952,2.38C405,260.004,406.072,258.24,405.632,256.48z"/>
<g>
</g>
<g>
</g>
<g>
</g>
<g>
</g>
<g>
</g>
<g>
</g>
<g>
</g>
<g>
</g>
<g>
</g>
<g>
</g>
<g>
</g>
<g>
</g>
<g>
</g>
<g>
</g>
<g>
</g>
</svg>
