<?xml version="1.0" encoding="iso-8859-1"?>
<!-- Generator: Adobe Illustrator 19.0.0, SVG Export Plug-In . SVG Version: 6.00 Build 0)  -->
<svg version="1.1" id="Layer_1" xmlns="http://www.w3.org/2000/svg" xmlns:xlink="http://www.w3.org/1999/xlink" x="0px" y="0px"
	 viewBox="0 0 496 496" style="enable-background:new 0 0 496 496;" xml:space="preserve">
<path style="fill:#7EC1B7;" d="M217.6,52.4c-88,0-166.4,40.8-217.6,104.8v331.2h445.6c31.2-40,50.4-99.2,50.4-158.4
	C496,176.4,371.2,52.4,217.6,52.4z"/>
<path style="fill:#69AFA7;" d="M0,248.4v240h445.6c31.2-40,50.4-99.2,50.4-158.4c0-153.6-124.8-277.6-278.4-277.6"/>
<path style="fill:#4D998E;" d="M0,248.4v240h445.6c31.2-40,50.4-100.8,50.4-160"/>
<path style="fill:#347A6E;" d="M0,488.4h445.6c31.2-40,50.4-100,50.4-159.2"/>
<polygon style="fill:#FFC127;" points="404.8,7.6 429.6,57.2 484,65.2 444.8,103.6 454.4,158.8 404.8,132.4 356,158.8 364.8,103.6 
	325.6,65.2 380,57.2 "/>
<polygon style="fill:#D38405;" points="404.8,7.6 429.6,57.2 484,65.2 444.8,103.6 454.4,158.8 404.8,132.4 356,158.8 377.6,115.6 
	325.6,65.2 391.2,68.4 "/>
<g>
	<path style="fill:#FFC127;" d="M31.2,425.2c-2.4,0-4-1.6-4-4c0-175.2,142.4-317.6,317.6-317.6c2.4,0,4,1.6,4,4s-1.6,4-4,4
		c-171.2,0-309.6,139.2-309.6,309.6C35.2,423.6,33.6,425.2,31.2,425.2z"/>
	<path style="fill:#FFC127;" d="M103.2,480.4c-1.6,0-3.2-1.6-4-3.2c-16.8-83.2,0-168,47.2-238.4S264.8,120.4,348,103.6
		c2.4-0.8,4,0.8,4.8,3.2c0.8,2.4-0.8,4-3.2,4.8c-80.8,16-151.2,63.2-196.8,132s-62.4,151.2-46.4,232.8
		C107.2,478,105.6,479.6,103.2,480.4L103.2,480.4z"/>
	<path style="fill:#FFC127;" d="M193.6,473.2c-1.6,0-3.2-0.8-4-2.4C132,326,202.4,161.2,347.2,103.6c1.6-0.8,4,0,4.8,2.4
		c0.8,1.6,0,4-2.4,4.8C208.8,166.8,140,327.6,196,467.6c0.8,1.6,0,4-2.4,4.8C195.2,473.2,194.4,473.2,193.6,473.2z"/>
</g>
<polygon style="fill:#7D57A0;" points="496,488.4 496,353.2 476,371.6 390.4,286 187.2,488.4 "/>
<polygon style="fill:#6A4187;" points="496,488.4 496,353.2 476,371.6 390.4,286 244,488.4 "/>
<polygon style="fill:#D3EAE8;" points="385.6,344.4 400.8,359.6 416,344.4 431.2,359.6 447.2,344.4 390.4,286 328,348.4 340,359.6 
	355.2,344.4 370.4,359.6 "/>
<polyline style="fill:#B6D3D1;" points="340,359.6 355.2,344.4 370.4,359.6 385.6,344.4 400.8,359.6 416,344.4 431.2,359.6 
	448,343.6 390.4,286 "/>
<g>
	<circle style="fill:#AFE0D9;" cx="291.2" cy="237.2" r="5.6"/>
	<circle style="fill:#AFE0D9;" cx="277.6" cy="277.2" r="2.4"/>
	<circle style="fill:#AFE0D9;" cx="358.4" cy="210.8" r="16"/>
	<circle style="fill:#AFE0D9;" cx="340" cy="285.2" r="4"/>
	<circle style="fill:#AFE0D9;" cx="278.4" cy="333.2" r="4"/>
	<circle style="fill:#AFE0D9;" cx="233.6" cy="278.8" r="1.6"/>
	<circle style="fill:#AFE0D9;" cx="82.4" cy="164.4" r="7.2"/>
	<circle style="fill:#AFE0D9;" cx="54.4" cy="222" r="4"/>
	<circle style="fill:#AFE0D9;" cx="221.6" cy="373.2" r="6.4"/>
	<circle style="fill:#AFE0D9;" cx="234.4" cy="341.2" r="2.4"/>
	<circle style="fill:#AFE0D9;" cx="250.4" cy="233.2" r="7.2"/>
	<circle style="fill:#AFE0D9;" cx="86.4" cy="195.6" r="5.6"/>
	<circle style="fill:#AFE0D9;" cx="33.6" cy="167.6" r="1.6"/>
	<circle style="fill:#AFE0D9;" cx="108" cy="150.8" r="2.4"/>
	<circle style="fill:#AFE0D9;" cx="312.8" cy="191.6" r="5.6"/>
	<circle style="fill:#AFE0D9;" cx="416.8" cy="270.8" r="10.4"/>
	<circle style="fill:#AFE0D9;" cx="463.2" cy="305.2" r="1.6"/>
	<circle style="fill:#AFE0D9;" cx="152.8" cy="118.8" r="8.8"/>
</g>
<g>
</g>
<g>
</g>
<g>
</g>
<g>
</g>
<g>
</g>
<g>
</g>
<g>
</g>
<g>
</g>
<g>
</g>
<g>
</g>
<g>
</g>
<g>
</g>
<g>
</g>
<g>
</g>
<g>
</g>
</svg>
