<?xml version="1.0" encoding="iso-8859-1"?>
<!-- Generator: Adobe Illustrator 19.0.0, SVG Export Plug-In . SVG Version: 6.00 Build 0)  -->
<svg version="1.1" id="Layer_1" xmlns="http://www.w3.org/2000/svg" xmlns:xlink="http://www.w3.org/1999/xlink" x="0px" y="0px"
	 viewBox="0 0 512 512" style="enable-background:new 0 0 512 512;" xml:space="preserve">
<g>
	<path style="fill:#E2E5E7;" d="M153.275,357.184l-20.787-27.543h79.772c0,0,76.395,47.811,93.544,62.623
		c17.15,14.811,17.93,21.307,16.11,24.684c-1.818,3.379-15.591,3.119-36.378-3.377C264.748,407.074,194.851,379.012,153.275,357.184
		z"/>
	<path style="fill:#D1D5D5;" d="M299.818,412.752c-17.812-4.857-99.203-44.725-128.916-83.111h-38.414l20.787,27.543
		c41.576,21.828,111.474,49.891,132.262,56.387c20.787,6.496,34.56,6.756,36.378,3.377c0.323-0.598,0.561-1.297,0.643-2.121
		C317.553,415.523,309.999,415.529,299.818,412.752z"/>
	<g>
		<g>
			<g>
				<g>
					<g>
						<rect x="180.097" y="322.539" style="fill:#C6CBCB;" width="1" height="100.645"/>
					</g>
					<g>
						<rect x="184.255" y="322.539" style="fill:#C6CBCB;" width="1" height="100.645"/>
					</g>
					<g>
						<rect x="188.413" y="322.539" style="fill:#C6CBCB;" width="1" height="100.645"/>
					</g>
					<g>
						<rect x="192.572" y="322.539" style="fill:#C6CBCB;" width="1" height="100.645"/>
					</g>
					<g>
						<rect x="196.731" y="322.539" style="fill:#C6CBCB;" width="1" height="100.645"/>
					</g>
					<g>
						<rect x="200.889" y="322.539" style="fill:#C6CBCB;" width="1" height="100.645"/>
					</g>
					<g>
						<rect x="205.046" y="322.539" style="fill:#C6CBCB;" width="1" height="100.645"/>
					</g>
					<g>
						<rect x="209.206" y="322.539" style="fill:#C6CBCB;" width="1" height="100.645"/>
					</g>
					<g>
						<rect x="213.365" y="322.539" style="fill:#C6CBCB;" width="1" height="100.645"/>
					</g>
					<g>
						<rect x="217.523" y="322.539" style="fill:#C6CBCB;" width="1" height="100.645"/>
					</g>
					<g>
						<rect x="221.681" y="322.539" style="fill:#C6CBCB;" width="1" height="100.645"/>
					</g>
					<g>
						<rect x="225.84" y="322.539" style="fill:#C6CBCB;" width="1" height="100.645"/>
					</g>
					<g>
						<rect x="229.999" y="322.539" style="fill:#C6CBCB;" width="1" height="100.645"/>
					</g>
					<g>
						<rect x="234.157" y="322.539" style="fill:#C6CBCB;" width="1" height="100.645"/>
					</g>
					<g>
						<rect x="238.315" y="322.539" style="fill:#C6CBCB;" width="1" height="100.645"/>
					</g>
					<g>
						<rect x="242.475" y="322.539" style="fill:#C6CBCB;" width="1" height="100.645"/>
					</g>
					<g>
						<rect x="246.633" y="322.539" style="fill:#C6CBCB;" width="1" height="100.645"/>
					</g>
					<g>
						<rect x="250.79" y="322.539" style="fill:#C6CBCB;" width="1" height="100.645"/>
					</g>
					<g>
						<rect x="254.95" y="322.539" style="fill:#C6CBCB;" width="1" height="100.645"/>
					</g>
					<g>
						<rect x="259.109" y="322.539" style="fill:#C6CBCB;" width="1" height="100.645"/>
					</g>
					<g>
						<rect x="263.267" y="322.539" style="fill:#C6CBCB;" width="1" height="100.645"/>
					</g>
					<g>
						<rect x="267.425" y="322.539" style="fill:#C6CBCB;" width="1" height="100.645"/>
					</g>
					<g>
						<rect x="271.583" y="322.539" style="fill:#C6CBCB;" width="1" height="100.645"/>
					</g>
				</g>
			</g>
		</g>
	</g>
	<path style="fill:#E2E5E7;" d="M161.143,0.014c-1.759-0.404-4.575,7.93-4.575,7.93L74.456,234.883h15.418L160.217,8.629
		C160.216,8.629,162.89,0.416,161.143,0.014z"/>
	<path style="fill:#D1D5D5;" d="M116.638,132.125c-1.383-0.307-2.605,3.818-2.605,3.818l-38.537,98.939h9.773l31.076-98.607
		C116.345,136.275,118.021,132.43,116.638,132.125z"/>
	<path style="fill:#E2E5E7;" d="M208.363,115.008c-63.922-33.779-124.206-50.67-124.206-50.67s-7.016,10.914,23.646,40.016
		c30.662,29.104,188.388,130.529,188.388,130.529h138.238C434.428,234.883,272.285,148.787,208.363,115.008z"/>
	<path style="fill:#E2E5E7;" d="M415.849,82.658c0,0-14.552-42.227-17.15-48.201c-2.598-5.977-5.326-4.938-5.326-4.938
		s-6.756,1.299-11.174,2.338c-4.417,1.039-3.378,5.457-3.378,5.457l1.56,52.748l30.142,144.82h36.378L415.849,82.658z"/>
	<path style="fill:#D1D5D5;" d="M87,65.168c-1.853-0.551-2.844-0.83-2.844-0.83s-7.016,10.914,23.646,40.016
		c30.662,29.104,188.388,130.529,188.388,130.529h22.981c-45.199-29.123-155.15-100.027-186.684-120.914
		C105.34,95.988,92.474,76.103,87,65.168z"/>
	<path style="fill:#D1D5D5;" d="M385.173,31.191c-1.038,0.225-2.057,0.449-2.975,0.666c-4.417,1.039-3.378,5.457-3.378,5.457
		l1.56,52.748l30.142,144.82h13.495L389.13,88.503L385.173,31.191z"/>
	<polygon style="fill:#E2E5E7;" points="395.191,329.641 372.325,366.799 402.727,387.066 439.624,329.641 	"/>
	<path style="fill:#E2E5E7;" d="M397.617,398.742c-0.947,1.439-2.842,1.863-4.23,0.949l-29.549-19.471
		c-1.39-0.918-1.747-2.824-0.799-4.264l6.021-9.137c0.948-1.438,2.842-1.863,4.231-0.949l29.549,19.473
		c1.39,0.916,1.746,2.822,0.799,4.26L397.617,398.742z"/>
	<path style="fill:#E2E5E7;" d="M386.617,407.853c0,0-12.083-8.314-5.067-17.67l-9.225-6.236c0,0-5.977,10.004-3.508,17.541
		c2.469,7.535,8.186,10.652,7.405,12.082c-0.779,1.43-7.405-0.91-11.433-3.248c-4.028-2.338-10.654-5.457-12.862-7.016
		c-2.209-1.559-6.106-2.859-8.056,0.26c-1.948,3.117-1.948,5.326,2.209,8.314s20.787,16.371,19.229,20.787
		c-1.56,4.418-19.488-5.326-21.827-7.016c-2.339-1.688-8.965-6.496-11.823-2.598s-1.818,6.885,2.988,10.004
		c4.808,3.117,19.618,15.33,17.93,19.879c-1.689,4.547-25.984-9.615-25.984-9.615s-4.938-3.768-8.186,0
		c-3.248,3.768,0,7.016,2.339,8.834c2.339,1.82,21.567,16.762,19.488,20.398c-2.079,3.639-26.374-9.225-26.374-9.225
		s-5.717-3.637-7.926,0c-2.208,3.639-0.909,6.887,1.819,8.836c2.729,1.947,22.087,16.24,19.229,20.916
		c-2.858,4.678-23.256-2.207-23.256-2.207s13.512,15.98,26.634,11.822s5.457-19.359,5.457-19.359s8.964,2.209,13.252-4.287
		c4.287-6.496-0.26-16.109-0.26-16.109s9.354,2.729,13.512-4.678s-1.429-15.461-1.429-15.461s9.224,2.469,13.512-3.768
		c4.287-6.236-0.91-15.98-0.91-15.98s8.445,3.377,13.123-3.119C391.293,413.439,386.617,407.853,386.617,407.853z"/>
	<path style="fill:#D1D5D5;" d="M380.078,370.344l25.192-40.703h-10.079l-22.2,36.076c0.101,0.051,0.204,0.09,0.301,0.154
		L380.078,370.344z"/>
	<path style="fill:#D1D5D5;" d="M376.472,369.562l-4.147-2.764l0.666-1.082c-1.353-0.682-3.048-0.234-3.931,1.104l-6.021,9.137
		c-0.948,1.439-0.591,3.346,0.799,4.264l2.933,1.932c0.398-3.307,3.171-6.877,5.555-10.303
		C373.51,370.146,375.065,369.615,376.472,369.562z"/>
	<path style="fill:#D1D5D5;" d="M402.84,385.344l-22.763-15l0,0c0,0-1.66-0.852-3.605-0.781l26.255,17.504l0.736-1.146
		C403.285,385.703,403.085,385.504,402.84,385.344z"/>
	<path style="fill:#C6CBCB;" d="M376.472,369.562c1.945-0.07,3.605,0.781,3.605,0.781l0,0l-6.786-4.473
		c-0.097-0.064-0.2-0.104-0.301-0.154l-0.666,1.082L376.472,369.562z"/>
	<path style="fill:#E2E5E7;" d="M233.308,459.043c-2.274-2.273-8.705-11.303-8.705-11.303s-2.599-2.988-5.717-0.26
		s-16.5,16.5-16.5,16.5s-1.039,1.559-3.508-1.299c-2.469-2.859-38.457-47.162-38.457-47.162l14.551-11.305l19.879,29.754
		c0,0,2.338,4.676,6.626,2.598c4.287-2.078,1.169-5.977,1.169-5.977l-18.06-36.379l-47.422-64.57H75.495l131.827,177.734
		c0,0,17.15,6.105,20.009,4.287c2.859-1.818,7.275-45.732,7.275-45.732S235.581,461.316,233.308,459.043z"/>
	<path style="fill:#D1D5D5;" d="M85.641,329.641H75.495l131.827,177.734c0,0,17.15,6.105,20.009,4.287
		c0.082-0.053,0.166-0.145,0.25-0.264l-19.219-8.012L85.641,329.641z"/>
	<path style="fill:#DF584C;" d="M497.83,283.389c0,27.555-22.336,49.891-49.89,49.891H64.061c-27.554,0-49.89-22.336-49.89-49.891
		v-4.158c0-27.553,22.336-49.889,49.89-49.889H447.94c27.554,0,49.89,22.336,49.89,49.889
		C497.83,279.231,497.83,283.389,497.83,283.389z"/>
	<path style="fill:#B9483E;" d="M246.646,322.539c-4.585,0-8.315-3.73-8.315-8.314v-15.244h-15.244c-4.585,0-8.315-3.73-8.315-8.314
		v-18.709c0-4.586,3.73-8.316,8.315-8.316h15.244v-15.244c0-4.586,3.73-8.316,8.315-8.316h18.709c4.585,0,8.315,3.73,8.315,8.316
		v15.244h15.244c4.585,0,8.315,3.73,8.315,8.316v18.709c0,4.584-3.73,8.314-8.315,8.314H273.67v15.244
		c0,4.584-3.73,8.314-8.315,8.314L246.646,322.539L246.646,322.539z"/>
	<path style="fill:#E2E5E7;" d="M288.914,268.838h-20.441v-20.441c0-1.723-1.396-3.119-3.118-3.119h-18.709
		c-1.723,0-3.118,1.396-3.118,3.119v20.441h-20.441c-1.722,0-3.118,1.395-3.118,3.119v18.709c0,1.721,1.396,3.117,3.118,3.117
		h20.441v20.441c0,1.721,1.396,3.117,3.118,3.117h18.709c1.723,0,3.118-1.396,3.118-3.117v-20.441h20.441
		c1.722,0,3.118-1.396,3.118-3.117v-18.709C292.033,270.232,290.636,268.838,288.914,268.838z"/>
	<path style="fill:#B9483E;" d="M65.101,295.861c-8.023,0-14.551-6.527-14.551-14.551s6.527-14.553,14.551-14.553
		s14.552,6.529,14.552,14.553S73.125,295.861,65.101,295.861z"/>
	<circle style="fill:#E2E5E7;" cx="65.101" cy="281.31" r="9.354"/>
	<path style="fill:#B9483E;" d="M64.061,333.279c-27.554,0-49.89-22.336-49.89-49.891v-4.158c0-27.553,22.336-49.889,49.89-49.889
		c0,0-24.945,18.031-24.945,51.969S64.061,333.279,64.061,333.279z"/>
	<path style="fill:#B9483E;" d="M447.94,333.279c27.554,0,49.89-22.336,49.89-49.891v-4.158c0-27.553-22.336-49.889-49.89-49.889
		c0,0,24.945,18.031,24.945,51.969S447.94,333.279,447.94,333.279z"/>
	<polygon style="fill:#D1D5D5;" points="172.532,400.824 157.407,411.684 160.421,415.519 174.972,404.215 	"/>
	<path style="fill:#D1D5D5;" d="M225.851,449.473c-0.758-1.045-1.248-1.732-1.248-1.732s-2.599-2.988-5.717-0.26
		s-16.5,16.5-16.5,16.5s-1.039,1.559-3.508-1.299c0,0,3.903,5.76,8.234,2.131s11.563-11.564,13.688-13.801
		C224.142,447.494,225.851,449.473,225.851,449.473z"/>
	<polygon style="fill:#C6CBCB;" points="118.411,113.404 115.478,121.508 123.777,125.834 125.841,119.191 	"/>
	<path style="fill:#D1D5D5;" d="M149.637,94.221c0,0,38.978,14.031,89.387,43.914c0,0-17.929,1.299-30.401-8.055
		C196.15,120.725,152.496,95.26,149.637,94.221z"/>
	<polygon style="fill:#D1D5D5;" points="392.295,38.258 399.482,83.887 409.541,82.092 	"/>
	<polygon style="fill:#D1D5D5;" points="395.451,375.893 401.947,380.31 419.617,352.766 	"/>
</g>
<g>
</g>
<g>
</g>
<g>
</g>
<g>
</g>
<g>
</g>
<g>
</g>
<g>
</g>
<g>
</g>
<g>
</g>
<g>
</g>
<g>
</g>
<g>
</g>
<g>
</g>
<g>
</g>
<g>
</g>
</svg>
