<?xml version="1.0" encoding="UTF-8" ?>
<!DOCTYPE svg PUBLIC "-//W3C//DTD SVG 1.1//EN" "http://www.w3.org/Graphics/SVG/1.1/DTD/svg11.dtd">
<svg width="225pt" height="225pt" viewBox="0 0 225 225" version="1.1" xmlns="http://www.w3.org/2000/svg">
<path fill="#ffffff" opacity="1.00" d=" M 0.00 0.00 L 108.56 0.00 C 80.40 1.05 52.77 12.89 32.96 32.99 C 12.90 52.77 1.08 80.35 0.00 108.46 L 0.00 0.00 Z" />
<path fill="#f0f0f0" opacity="1.00" d=" M 108.56 0.00 L 116.54 0.00 C 144.68 1.08 172.26 12.93 192.06 33.00 C 212.14 52.84 223.99 80.48 225.00 108.66 L 225.00 116.55 C 223.92 144.67 212.07 172.24 192.02 192.03 C 172.20 212.10 144.60 223.96 116.45 225.00 L 108.45 225.00 C 80.58 223.93 53.24 212.29 33.48 192.53 C 13.09 172.65 1.01 144.78 0.00 116.35 L 0.00 108.46 C 1.08 80.35 12.90 52.77 32.96 32.99 C 52.77 12.89 80.40 1.05 108.56 0.00 M 99.82 61.00 C 94.85 70.19 96.51 80.96 96.20 90.97 C 91.89 90.90 87.59 90.90 83.28 90.95 C 83.27 98.14 83.26 105.34 83.29 112.54 C 87.58 112.55 91.88 112.51 96.18 112.56 C 96.25 133.39 96.17 154.21 96.22 175.04 C 104.83 175.05 113.45 175.06 122.07 175.04 C 122.09 154.21 122.09 133.38 122.06 112.55 C 127.84 112.50 133.61 112.57 139.39 112.52 C 140.16 105.33 140.88 98.13 141.71 90.94 C 135.17 90.90 128.64 90.92 122.10 90.94 C 122.18 86.14 121.79 81.31 122.35 76.54 C 122.48 74.07 124.55 72.02 127.00 71.83 C 131.82 71.22 136.71 71.68 141.56 71.55 C 141.60 64.35 141.58 57.16 141.57 49.97 C 134.71 49.96 127.85 49.90 120.99 49.99 C 112.83 50.27 103.88 53.41 99.82 61.00 Z" />
<path fill="#ffffff" opacity="1.00" d=" M 116.54 0.00 L 225.00 0.00 L 225.00 108.66 C 223.99 80.48 212.14 52.84 192.06 33.00 C 172.26 12.93 144.68 1.08 116.54 0.00 Z" />
<path fill="#ffffff" opacity="1.00" d=" M 99.82 61.00 C 103.88 53.41 112.83 50.27 120.99 49.99 C 127.85 49.90 134.71 49.96 141.57 49.97 C 141.58 57.16 141.60 64.35 141.56 71.55 C 136.71 71.68 131.82 71.22 127.00 71.83 C 124.55 72.02 122.48 74.07 122.35 76.54 C 121.79 81.31 122.18 86.14 122.10 90.94 C 128.64 90.92 135.17 90.90 141.71 90.94 C 140.88 98.13 140.16 105.33 139.39 112.52 C 133.61 112.57 127.84 112.50 122.06 112.55 C 122.09 133.38 122.09 154.21 122.07 175.04 C 113.45 175.06 104.83 175.05 96.22 175.04 C 96.17 154.21 96.25 133.39 96.18 112.56 C 91.88 112.51 87.58 112.55 83.29 112.54 C 83.26 105.34 83.27 98.14 83.28 90.95 C 87.59 90.90 91.89 90.90 96.20 90.97 C 96.51 80.96 94.85 70.19 99.82 61.00 Z" />
<path fill="#ffffff" opacity="1.00" d=" M 0.00 116.35 C 1.01 144.78 13.09 172.65 33.48 192.53 C 53.24 212.29 80.58 223.93 108.45 225.00 L 0.00 225.00 L 0.00 116.35 Z" />
<path fill="#ffffff" opacity="1.00" d=" M 192.02 192.03 C 212.07 172.24 223.92 144.67 225.00 116.55 L 225.00 225.00 L 116.45 225.00 C 144.60 223.96 172.20 212.10 192.02 192.03 Z" />
</svg>
