<?xml version="1.0" encoding="UTF-8" ?>
<!DOCTYPE svg PUBLIC "-//W3C//DTD SVG 1.1//EN" "http://www.w3.org/Graphics/SVG/1.1/DTD/svg11.dtd">
<svg width="250pt" height="250pt" viewBox="0 0 250 250" version="1.1" xmlns="http://www.w3.org/2000/svg">
<path fill="#3F51B5" opacity="1.00" d=" M 0.00 0.00 L 250.00 0.00 L 250.00 250.00 L 0.00 250.00 L 0.00 0.00 M 53.55 55.56 C 38.56 70.38 28.35 89.98 24.96 110.80 C 21.28 132.25 24.87 154.86 34.94 174.15 C 46.83 197.21 67.92 215.40 92.57 223.54 C 95.44 224.70 99.44 223.10 99.67 219.73 C 99.96 213.28 99.65 206.83 99.46 200.38 C 89.94 201.86 78.82 202.64 70.84 196.20 C 66.39 192.81 65.41 187.04 62.49 182.56 C 60.32 179.14 57.98 175.61 54.39 173.54 C 52.46 172.45 50.93 170.85 49.81 168.94 C 53.38 165.25 59.56 167.13 63.37 169.57 C 70.12 173.55 71.95 182.34 79.05 185.89 C 85.47 189.81 93.48 188.70 100.08 185.85 C 100.72 180.87 102.74 176.08 106.18 172.38 C 93.77 171.03 80.67 167.44 71.89 158.02 C 62.94 148.40 60.19 134.68 60.47 121.91 C 60.16 111.95 64.14 102.18 70.68 94.77 C 67.47 86.01 68.50 76.29 71.79 67.71 C 82.17 67.08 91.47 72.83 99.92 78.17 C 116.41 73.68 134.08 73.68 150.57 78.16 C 159.01 72.82 168.31 66.96 178.71 67.67 C 182.01 76.25 183.03 86.00 179.82 94.76 C 186.20 101.96 190.14 111.37 190.06 121.06 C 190.38 133.97 187.85 147.92 178.86 157.75 C 170.04 167.39 156.73 171.05 144.15 172.38 C 150.07 178.27 150.89 187.05 150.77 194.96 C 150.50 203.26 150.34 211.59 150.60 219.90 C 150.98 223.22 154.89 224.79 157.75 223.54 C 186.66 213.90 210.40 190.31 220.51 161.60 C 227.94 141.07 228.39 118.13 221.84 97.31 C 214.94 74.98 199.97 55.25 180.35 42.55 C 160.98 29.78 137.09 24.08 114.04 26.67 C 91.37 29.03 69.68 39.47 53.55 55.56 Z" />
<path fill="#ffffff" opacity="1.00" d=" M 53.55 55.56 C 69.68 39.47 91.37 29.03 114.04 26.67 C 137.09 24.08 160.98 29.78 180.35 42.55 C 199.97 55.25 214.94 74.98 221.84 97.31 C 228.39 118.13 227.94 141.07 220.51 161.60 C 210.40 190.31 186.66 213.90 157.75 223.54 C 154.89 224.79 150.98 223.22 150.60 219.90 C 150.34 211.59 150.50 203.26 150.77 194.96 C 150.89 187.05 150.07 178.27 144.15 172.38 C 156.73 171.05 170.04 167.39 178.86 157.75 C 187.85 147.92 190.38 133.97 190.06 121.06 C 190.14 111.37 186.20 101.96 179.82 94.76 C 183.03 86.00 182.01 76.25 178.71 67.67 C 168.31 66.96 159.01 72.82 150.57 78.16 C 134.08 73.68 116.41 73.68 99.92 78.17 C 91.47 72.83 82.17 67.08 71.79 67.71 C 68.50 76.29 67.47 86.01 70.68 94.77 C 64.14 102.18 60.16 111.95 60.47 121.91 C 60.19 134.68 62.94 148.40 71.89 158.02 C 80.67 167.44 93.77 171.03 106.18 172.38 C 102.74 176.08 100.72 180.87 100.08 185.85 C 93.48 188.70 85.47 189.81 79.05 185.89 C 71.95 182.34 70.12 173.55 63.37 169.57 C 59.56 167.13 53.38 165.25 49.81 168.94 C 50.93 170.85 52.46 172.45 54.39 173.54 C 57.98 175.61 60.32 179.14 62.49 182.56 C 65.41 187.04 66.39 192.81 70.84 196.20 C 78.82 202.64 89.94 201.86 99.46 200.38 C 99.65 206.83 99.96 213.28 99.67 219.73 C 99.44 223.10 95.44 224.70 92.57 223.54 C 67.92 215.40 46.83 197.21 34.94 174.15 C 24.87 154.86 21.28 132.25 24.96 110.80 C 28.35 89.98 38.56 70.38 53.55 55.56 Z" />
</svg>
