<?xml version="1.0" encoding="UTF-8" ?>
<!DOCTYPE svg PUBLIC "-//W3C//DTD SVG 1.1//EN" "http://www.w3.org/Graphics/SVG/1.1/DTD/svg11.dtd">
<svg width="512pt" height="512pt" viewBox="0 0 512 512" version="1.1" xmlns="http://www.w3.org/2000/svg">
<path fill="#f0f0f0" opacity="1.00" d=" M 227.04 7.91 C 265.72 3.78 305.43 7.77 342.11 20.91 C 373.43 32.14 402.45 49.62 427.26 71.75 C 449.83 92.04 468.69 116.40 482.80 143.26 C 501.92 178.87 511.52 219.23 512.00 259.57 L 512.00 265.09 C 511.39 289.11 508.39 313.18 501.33 336.21 C 487.75 381.94 460.32 423.08 424.92 454.85 C 401.42 475.63 373.96 491.91 344.43 502.47 C 339.60 504.41 334.47 506.51 329.16 505.43 C 323.35 504.55 319.60 498.59 319.71 492.99 C 319.58 474.35 319.70 455.70 319.65 437.06 C 319.59 424.41 320.31 411.50 316.75 399.21 C 314.36 390.06 309.40 381.60 302.38 375.24 C 316.42 373.44 330.53 371.37 344.02 366.94 C 365.61 359.32 386.79 347.12 399.54 327.53 C 413.38 305.70 418.70 279.50 419.20 253.94 C 419.88 236.27 416.78 218.22 408.57 202.44 C 404.47 194.38 399.09 187.03 393.02 180.34 C 399.52 163.96 400.00 145.61 395.59 128.64 C 394.25 123.04 392.29 117.62 390.34 112.21 C 377.19 109.39 364.46 115.45 352.63 120.44 C 341.13 125.26 330.47 131.86 320.00 138.59 C 278.34 127.15 233.66 127.15 192.00 138.59 C 181.61 131.78 170.96 125.24 159.35 120.71 C 147.39 115.75 134.61 109.62 121.32 112.20 C 114.47 130.22 110.85 150.19 115.54 169.21 C 116.41 172.99 117.72 176.64 118.99 180.30 C 103.30 196.93 93.98 219.20 92.92 242.02 C 91.99 265.91 94.96 290.33 104.54 312.39 C 109.69 324.65 117.29 335.98 127.40 344.68 C 139.42 355.05 153.91 362.22 168.85 367.34 C 181.99 371.48 195.67 373.50 209.30 375.26 C 199.75 384.22 194.78 396.85 192.98 409.62 C 185.39 412.98 177.29 415.18 169.00 415.80 C 162.41 416.22 155.60 416.75 149.19 414.76 C 139.88 411.95 131.74 405.94 125.64 398.45 C 120.96 392.95 118.01 386.24 113.31 380.77 C 109.15 375.79 104.06 371.64 98.42 368.46 C 90.57 363.56 80.90 360.55 71.68 362.74 C 69.81 363.19 67.08 364.64 68.08 366.98 C 70.19 372.13 74.75 375.82 79.43 378.59 C 88.41 383.77 94.25 392.73 99.54 401.35 C 105.09 410.45 107.09 421.52 114.42 429.53 C 121.39 437.30 130.92 442.72 141.10 444.97 C 157.94 448.30 175.45 448.80 192.31 445.26 C 192.40 460.86 192.52 476.47 192.64 492.07 C 192.77 496.17 191.31 500.43 188.04 503.06 C 184.60 506.00 179.66 506.06 175.44 505.23 C 133.55 491.67 95.27 466.93 66.13 433.88 C 49.59 415.41 35.41 394.72 24.69 372.34 C 8.26 338.89 0.51 301.60 0.00 264.44 L 0.00 259.63 C 0.49 228.57 5.97 197.47 17.51 168.57 C 28.05 141.80 43.28 116.93 61.93 95.04 C 103.49 46.78 163.53 14.39 227.04 7.91 Z" />
</svg>
