<?xml version="1.0" encoding="UTF-8" standalone="no"?>
<svg
   xmlns:dc="http://purl.org/dc/elements/1.1/"
   xmlns:cc="http://creativecommons.org/ns#"
   xmlns:rdf="http://www.w3.org/1999/02/22-rdf-syntax-ns#"
   xmlns:svg="http://www.w3.org/2000/svg"
   xmlns="http://www.w3.org/2000/svg"
   xmlns:sodipodi="http://sodipodi.sourceforge.net/DTD/sodipodi-0.dtd"
   xmlns:inkscape="http://www.inkscape.org/namespaces/inkscape"
   version="1.1"
   width="749.08221"
   height="131.9729"
   id="svg74"
   viewBox="0 0 749.08221 131.9729"
   sodipodi:docname="gorrionSideLogotypeWhite.svg"
   inkscape:version="0.92.2 (5c3e80d, 2017-08-06)">
  <metadata
     id="metadata80">
    <rdf:RDF>
      <cc:Work
         rdf:about="">
        <dc:format>image/svg+xml</dc:format>
        <dc:type
           rdf:resource="http://purl.org/dc/dcmitype/StillImage" />
        <dc:title />
      </cc:Work>
    </rdf:RDF>
  </metadata>
  <defs
     id="defs78" />
  <sodipodi:namedview
     pagecolor="#ffffff"
     bordercolor="#666666"
     borderopacity="1"
     objecttolerance="10"
     gridtolerance="10"
     guidetolerance="10"
     inkscape:pageopacity="0"
     inkscape:pageshadow="2"
     inkscape:window-width="1920"
     inkscape:window-height="1137"
     id="namedview76"
     showgrid="false"
     inkscape:zoom="0.82037492"
     inkscape:cx="249.0717"
     inkscape:cy="242.37055"
     inkscape:window-x="1912"
     inkscape:window-y="-8"
     inkscape:window-maximized="1"
     inkscape:current-layer="svg74"
     fit-margin-top="0"
     fit-margin-left="0"
     fit-margin-right="0"
     fit-margin-bottom="0" />
  <path
     d="m 359.63257,94.649078 c -7.07204,0 -13.05132,-2.12672 -17.99936,-6.38017 -4.94614,-4.25245 -7.40967,-9.35701 -7.40967,-15.294243 v -49.59355 c 0,-6.03973 2.4836,-11.177152 7.45089,-15.3967372 4.96538,-4.236103 10.94565,-6.346309 17.95814,-6.346309 7.05271,0 13.03297,2.126724 17.9398,6.3801722 4.90683,4.253447 7.37036,9.37435 7.37036,15.362874 V 33.759363 H 368.35445 V 23.091964 c 0,-2.160587 -0.89405,-4.032021 -2.7023,-5.580359 -1.80826,-1.54842 -3.99354,-2.313462 -6.5357,-2.313462 -2.54314,0 -4.68903,0.765042 -6.4763,2.313462 -1.76886,1.548338 -2.662,3.419772 -2.662,5.580359 v 49.746343 c 0,2.178011 0.89314,4.015501 2.662,5.546491 1.78727,1.51456 3.93316,2.2796 6.4763,2.2796 2.54216,0 4.72744,-0.76504 6.5357,-2.2796 1.80825,-1.53099 2.7023,-3.36848 2.7023,-5.546491 V 54.923198 h -8.90036 V 41.227591 h 25.48864 v 31.747074 c 0,6.039733 -2.48269,11.160723 -7.44998,15.362883 -4.96629,4.20224 -10.92731,6.31153 -17.86018,6.31153 z M 555.7877,2.6602178 c 8.91961,0 15.47545,2.10938 19.64837,6.3115382 3.67506,3.675061 5.50165,8.796047 5.50165,15.362875 v 13.202372 c 0,6.413951 -2.86063,11.857951 -8.56083,16.299046 l 11.85985,39.657249 H 566.93289 L 557.25832,59.28005 h -0.0129 l -4.05573,-13.627882 4.05573,0.02379 c 2.09839,-0.18393 3.91581,-0.93708 5.45597,-2.269441 1.76704,-1.54842 2.662,-3.419772 2.662,-5.596877 V 24.556141 c 0,-5.27378 -3.05918,-7.911165 -9.15936,-7.911165 h -9.65442 v 22.35067 h -0.0183 v 27.724221 h 0.0183 V 93.493298 H 530.55716 V 2.6602178 Z M 423.88069,1.4851928 c 7.07295,0 13.05321,2.126723 17.99935,6.380171 4.94622,4.2534482 7.40967,9.3744342 7.40967,15.3629582 v 49.593549 c 0,6.056167 -2.48269,11.194587 -7.44898,15.413257 -4.9672,4.23693 -10.94656,6.34623 -17.96004,6.34623 -7.05271,0 -13.03207,-2.12672 -17.93981,-6.38009 -4.90682,-4.25345 -7.36936,-9.37444 -7.36936,-15.379397 V 23.228322 c 0,-6.039814 2.48269,-11.178144 7.44989,-15.3968202 4.96539,-4.23693 10.92641,-6.346309 17.85928,-6.346309 z m 8.74121,21.4538942 c 0,-2.17793 -0.89315,-4.015502 -2.66208,-5.546496 -1.7872,-1.514475 -3.95332,-2.279517 -6.49547,-2.279517 -2.54398,0 -4.70828,0.765042 -6.51653,2.279517 -1.80826,1.530994 -2.72155,3.368566 -2.72155,5.546496 v 49.746426 c 0,2.177025 0.91329,4.014595 2.72155,5.546495 1.80825,1.51357 3.97255,2.27952 6.51653,2.27952 2.54215,0 4.70827,-0.76595 6.49547,-2.27952 1.76893,-1.5319 2.66208,-3.36947 2.66208,-5.546495 z M 488.66516,2.6593088 c 8.9196,0 15.47545,2.109297 19.64837,6.3115392 3.67506,3.675061 5.50165,8.796047 5.50165,15.362875 v 13.202371 c 0,6.413952 -2.86063,11.857952 -8.56083,16.299047 l 11.85985,39.657247 h -17.30385 l -9.67457,-34.213247 h -0.0129 l -4.05572,-13.627881 4.05572,0.02379 c 2.0984,-0.183931 3.91582,-0.93708 5.45598,-2.269442 1.76704,-1.54842 2.662,-3.419772 2.662,-5.596876 v -13.2535 c 0,-5.273862 -3.05918,-7.911165 -9.15937,-7.911165 h -9.65442 v 22.350671 h -0.0183 v 27.72422 h 0.0183 v 26.77343 H 463.43461 V 2.6593088 Z M 614.20018,93.492388 H 598.20771 V 2.6593088 h 15.99247 z M 653.65433,1.4851928 c 7.07295,0 13.05313,2.126723 17.99936,6.380171 4.94614,4.2534482 7.40967,9.3744342 7.40967,15.3629582 v 49.593549 c 0,6.056167 -2.4827,11.194587 -7.44899,15.413257 -4.96728,4.23693 -10.94664,6.34623 -17.96004,6.34623 -7.05279,0 -13.03207,-2.12672 -17.9398,-6.38009 -4.90683,-4.25345 -7.36945,-9.37444 -7.36945,-15.379397 V 23.228322 c 0,-6.039814 2.4836,-11.178144 7.44998,-15.3968202 4.96538,-4.23693 10.9264,-6.346309 17.85927,-6.346309 z m 8.74113,21.4538942 c 0,-2.17793 -0.89314,-4.015502 -2.662,-5.546496 -1.78727,-1.514475 -3.95331,-2.279517 -6.49547,-2.279517 -2.54315,0 -4.70828,0.765042 -6.51653,2.279517 -1.80825,1.530994 -2.72154,3.368566 -2.72154,5.546496 v 49.746426 c 0,2.177025 0.91329,4.014595 2.72154,5.546495 1.80825,1.51357 3.97338,2.27952 6.51653,2.27952 2.54216,0 4.7082,-0.76595 6.49547,-2.27952 1.76886,-1.5319 2.662,-3.36947 2.662,-5.546495 z M 711.06754,2.5742398 732.30546,63.617658 V 2.5742398 h 15.99345 V 93.492388 H 731.11309 L 709.10187,35.273012 V 93.492388 H 693.10849 V 2.5742398 Z"
     style="fill:#ffffff;fill-rule:evenodd;stroke-width:0.82591218"
     id="path12"
     inkscape:connector-curvature="0" />
  <path
     d="m 350.68455,121.13245 c 0,0.90686 -0.0988,1.67372 -0.29642,2.29967 -0.19772,0.62687 -0.51529,1.13382 -0.95178,1.52092 -0.4374,0.38802 -1.01026,0.668 -1.71856,0.84103 -0.70921,0.17294 -1.56667,0.25983 -2.57238,0.25983 h -12.01909 c 0.0329,-0.56096 0.0704,-1.11729 0.11166,-1.66917 0.0412,-0.5527 0.0787,-1.10912 0.11167,-1.66917 h 11.57342 c 0.44475,0 0.81988,-0.0292 1.12465,-0.0869 0.30567,-0.0576 0.54452,-0.16015 0.71747,-0.30931 0.17294,-0.14825 0.2965,-0.34135 0.37149,-0.58111 0.0742,-0.23885 0.11076,-0.5399 0.11076,-0.90231 0,-0.70921 -0.15652,-1.19972 -0.46945,-1.47153 -0.31393,-0.27172 -0.90685,-0.40808 -1.78084,-0.40808 h -6.89991 c -1.02223,0 -1.87507,-0.0906 -2.55959,-0.27181 -0.68361,-0.1812 -1.23631,-0.46209 -1.65636,-0.84102 -0.42097,-0.37885 -0.72202,-0.85747 -0.90322,-1.43395 -0.18121,-0.5774 -0.27181,-1.25374 -0.27181,-2.02786 v -0.56922 c 0,-0.84103 0.0906,-1.56577 0.27181,-2.17612 0.1812,-0.61043 0.48687,-1.10457 0.91511,-1.48342 0.42922,-0.37975 0.99382,-0.65982 1.69386,-0.84102 0.70104,-0.18113 1.57039,-0.27264 2.60898,-0.27264 h 11.9203 c -0.0659,0.5774 -0.13181,1.14199 -0.19772,1.69477 -0.0658,0.5518 -0.13999,1.11639 -0.22324,1.69387 h -11.49934 c -0.8236,0 -1.38085,0.13999 -1.66909,0.42006 -0.28833,0.27998 -0.43286,0.7586 -0.43286,1.43485 0,0.67535 0.14453,1.1576 0.43286,1.44585 0.28824,0.28923 0.84549,0.43286 1.66909,0.43286 h 6.80113 c 1.05511,0 1.94552,0.087 2.67125,0.25991 0.72474,0.17295 1.31039,0.44112 1.75515,0.80345 0.44566,0.36332 0.76686,0.82087 0.96458,1.37266 0.19764,0.55279 0.29642,1.19972 0.29642,1.94189 z m 18.35623,4.92145 c -1.03858,0 -1.89605,-0.0906 -2.5723,-0.27173 -0.67634,-0.1812 -1.21988,-0.48687 -1.63258,-0.91511 -0.4118,-0.42922 -0.70005,-0.99753 -0.86482,-1.70674 -0.16559,-0.70831 -0.24802,-1.5822 -0.24802,-2.62087 v -5.98481 c 0,-1.03867 0.0824,-1.91256 0.24802,-2.62177 0.16477,-0.70831 0.45302,-1.27752 0.86482,-1.70584 0.4127,-0.42915 0.95624,-0.73391 1.63258,-0.91511 0.67625,-0.18113 1.53372,-0.27264 2.5723,-0.27264 h 8.97634 c 1.00572,0 1.85129,0.0915 2.53489,0.27264 0.68452,0.1812 1.23268,0.48596 1.64448,0.91511 0.41271,0.42832 0.70549,0.99753 0.87852,1.70584 0.17295,0.70921 0.25892,1.5831 0.25892,2.62177 v 5.98481 c 0,1.03867 -0.086,1.91256 -0.25892,2.62087 -0.17303,0.70921 -0.46581,1.27752 -0.87852,1.70674 -0.4118,0.42824 -0.95996,0.73391 -1.64448,0.91511 -0.6836,0.18113 -1.52917,0.27173 -2.53489,0.27173 z m 10.95482,-11.47456 c 0,-0.84103 -0.14825,-1.41388 -0.44476,-1.71856 -0.29741,-0.30567 -0.81625,-0.45756 -1.55841,-0.45756 h -8.95165 c -0.74208,0 -1.26191,0.15189 -1.55841,0.45756 -0.29651,0.30468 -0.44476,0.87753 -0.44476,1.71856 v 5.9848 c 0,0.42832 0.033,0.77876 0.0989,1.05056 0.0659,0.27181 0.17658,0.49051 0.334,0.6552 0.15651,0.16477 0.36241,0.28098 0.6177,0.34688 0.25529,0.0659 0.57286,0.0988 0.95261,0.0988 h 8.95165 c 0.7586,0 1.28206,-0.14825 1.57031,-0.44566 0.28923,-0.29642 0.43286,-0.86564 0.43286,-1.70576 z m 20.18645,4.6982 v 6.77636 h -3.33925 v -17.01462 h 15.97603 v 3.36394 h -12.63678 v 3.90748 h 12.36498 v 2.96684 z m 30.86946,6.77636 v -13.65068 h -6.20715 v -3.36394 h 15.75271 v 3.36394 h -6.20723 v 13.65068 z m 40.4635,0 -4.55078,-12.66148 -4.6735,12.66148 h -3.58636 l -6.25662,-17.01462 h 3.8087 l 4.35231,13.05767 4.67441,-13.05767 h 3.36303 l 4.57465,13.08237 4.47669,-13.08237 h 3.80779 l -6.38018,17.01462 z m 34.67733,0 -2.12673,-3.95695 h -10.26303 l -2.12672,3.95695 h -3.8087 l 9.32315,-17.01462 h 3.48749 l 9.32323,17.01462 z m -7.2459,-13.67537 -3.85808,7.04817 h 7.71617 z m 37.9671,13.67537 -5.88602,-5.56384 h -5.3662 v 5.56384 h -3.36394 v -17.01462 h 13.89869 c 0.90686,0 1.66917,0.0952 2.28778,0.28453 0.6177,0.18946 1.11647,0.49051 1.49622,0.90322 0.37885,0.4118 0.6552,0.95632 0.82815,1.63167 0.17294,0.67626 0.25991,1.49259 0.25991,2.44883 v 1.03867 c 0,1.03866 -0.1034,1.88696 -0.3093,2.54678 -0.2059,0.65974 -0.5399,1.17866 -1.00208,1.55841 -0.46119,0.37885 -1.05511,0.63876 -1.77984,0.77876 -0.72573,0.13999 -1.61615,0.21044 -2.67125,0.21044 l 6.30609,5.61331 z m 0.84004,-11.17806 c 0,-0.82451 -0.0942,-1.43857 -0.2837,-1.84212 -0.19029,-0.40453 -0.64694,-0.6058 -1.37267,-0.6058 h -10.43589 v 5.26734 h 10.43589 c 0.59301,0 1.01761,-0.14826 1.27389,-0.44567 0.25529,-0.29642 0.38248,-0.81534 0.38248,-1.5575 z m 16.45192,11.17806 v -17.01462 h 16.34662 v 3.36394 h -13.00737 v 3.75832 h 12.63679 v 2.74533 h -12.63679 v 3.80869 h 13.00737 v 3.33834 z m 65.95942,0 v -7.02347 h -10.13857 v 7.02347 h -3.28978 v -17.01462 h 3.28978 v 6.92462 h 10.13857 v -6.92462 h 3.28985 v 17.01462 z m 22.14022,0 c -1.03866,0 -1.89613,-0.0906 -2.57238,-0.27173 -0.67626,-0.1812 -1.21988,-0.48687 -1.63258,-0.91511 -0.4118,-0.42922 -0.70005,-0.99753 -0.86473,-1.70674 -0.16568,-0.70831 -0.24802,-1.5822 -0.24802,-2.62087 v -5.98481 c 0,-1.03867 0.0823,-1.91256 0.24802,-2.62177 0.16468,-0.70831 0.45293,-1.27752 0.86473,-1.70584 0.4127,-0.42915 0.95632,-0.73391 1.63258,-0.91511 0.67625,-0.18113 1.53372,-0.27264 2.57238,-0.27264 h 8.97635 c 1.00571,0 1.85128,0.0915 2.5348,0.27264 0.68452,0.1812 1.23268,0.48596 1.64448,0.91511 0.41271,0.42832 0.70557,0.99753 0.87852,1.70584 0.17295,0.70921 0.25901,1.5831 0.25901,2.62177 v 5.98481 c 0,1.03867 -0.0861,1.91256 -0.25901,2.62087 -0.17295,0.70921 -0.46581,1.27752 -0.87852,1.70674 -0.4118,0.42824 -0.95996,0.73391 -1.64448,0.91511 -0.68352,0.18113 -1.52909,0.27173 -2.5348,0.27173 z m 10.95482,-11.47456 c 0,-0.84103 -0.14825,-1.41388 -0.44475,-1.71856 -0.29741,-0.30567 -0.81634,-0.45756 -1.55842,-0.45756 h -8.95165 c -0.74216,0 -1.26199,0.15189 -1.55841,0.45756 -0.2965,0.30468 -0.44475,0.87753 -0.44475,1.71856 v 5.9848 c 0,0.42832 0.033,0.77876 0.0988,1.05056 0.0659,0.27181 0.17667,0.49051 0.33409,0.6552 0.15642,0.16477 0.36232,0.28098 0.6177,0.34688 0.25529,0.0659 0.57285,0.0988 0.9526,0.0988 h 8.95165 c 0.7586,0 1.28207,-0.14825 1.57031,-0.44566 0.28915,-0.29642 0.43286,-0.86564 0.43286,-1.70576 z m 21.9416,11.47456 c -0.93981,0 -1.73508,-0.0988 -2.38565,-0.2965 -0.65156,-0.19764 -1.17965,-0.51521 -1.58319,-0.95261 -0.40354,-0.43649 -0.69641,-0.99291 -0.87762,-1.66917 -0.18112,-0.67535 -0.27263,-1.49985 -0.27263,-2.47261 v -11.62373 h 3.31447 v 11.62373 c 0,0.72473 0.13545,1.2482 0.40816,1.5703 0.27181,0.3212 0.73763,0.48225 1.39646,0.48225 h 8.30925 c 0.65974,0 1.12555,-0.16105 1.39736,-0.48225 0.27272,-0.3221 0.40817,-0.84557 0.40817,-1.5703 v -11.62373 h 3.33825 v 11.62373 c 0,0.97276 -0.0905,1.79726 -0.27172,2.47261 -0.18121,0.67626 -0.47408,1.23268 -0.87762,1.66917 -0.40445,0.4374 -0.93617,0.75497 -1.595,0.95261 -0.65982,0.19772 -1.45963,0.2965 -2.39944,0.2965 z m 44.47083,-4.92145 c 0,0.90686 -0.0989,1.67372 -0.29651,2.29967 -0.19772,0.62687 -0.5152,1.13382 -0.95178,1.52092 -0.4374,0.38802 -1.01025,0.668 -1.71856,0.84103 -0.70921,0.17294 -1.56667,0.25983 -2.57238,0.25983 h -12.01909 c 0.033,-0.56096 0.0705,-1.11729 0.11166,-1.66917 0.0412,-0.5527 0.0787,-1.10912 0.11167,-1.66917 h 11.57342 c 0.44476,0 0.81988,-0.0292 1.12465,-0.0869 0.30567,-0.0576 0.54452,-0.16015 0.71747,-0.30931 0.17294,-0.14825 0.2965,-0.34135 0.37149,-0.58111 0.0742,-0.23885 0.11076,-0.5399 0.11076,-0.90231 0,-0.70921 -0.15651,-1.19972 -0.46945,-1.47153 -0.31385,-0.27172 -0.90685,-0.40808 -1.78083,-0.40808 h -6.89992 c -1.02215,0 -1.87507,-0.0906 -2.55959,-0.27181 -0.6836,-0.1812 -1.2363,-0.46209 -1.65636,-0.84102 -0.42089,-0.37885 -0.72202,-0.85747 -0.90322,-1.43395 -0.18112,-0.5774 -0.27173,-1.25374 -0.27173,-2.02786 v -0.56922 c 0,-0.84103 0.0906,-1.56577 0.27173,-2.17612 0.1812,-0.61043 0.48687,-1.10457 0.91511,-1.48342 0.42923,-0.37975 0.99382,-0.65982 1.69386,-0.84102 0.70104,-0.18113 1.57039,-0.27264 2.60906,-0.27264 h 11.92022 c -0.0659,0.5774 -0.13181,1.14199 -0.19764,1.69477 -0.0659,0.5518 -0.14007,1.11639 -0.22332,1.69387 h -11.49926 c -0.8236,0 -1.38093,0.13999 -1.66917,0.42006 -0.28833,0.27998 -0.43286,0.7586 -0.43286,1.43485 0,0.67535 0.14453,1.1576 0.43286,1.44585 0.28824,0.28923 0.84557,0.43286 1.66917,0.43286 h 6.80106 c 1.05518,0 1.94551,0.087 2.67124,0.25991 0.72474,0.17295 1.3104,0.44112 1.75515,0.80345 0.44566,0.36332 0.76686,0.82087 0.96458,1.37266 0.19764,0.55279 0.29651,1.19972 0.29651,1.94189 z m 13.0632,4.92145 v -17.01462 h 16.34662 v 3.36394 h -13.00737 v 3.75832 h 12.63678 v 2.74533 h -12.63678 v 3.80869 h 13.00737 v 3.33834 z"
     style="fill:#ffffff;fill-rule:evenodd;stroke-width:0.82591218"
     id="path14"
     inkscape:connector-curvature="0" />
  <path
     d="M 128.8284,2.906 60.6012,57.588 164.9711,106.7417 Z"
     style="fill:#ffffff;fill-rule:evenodd"
     id="path16"
     inkscape:connector-curvature="0" />
  <path
     d="m 131.158,1.8843 36.1925,98.996 30.0274,-12.8684 0.7169,-17.7053 z"
     style="fill:#ffffff;fill-rule:evenodd"
     id="path18"
     inkscape:connector-curvature="0" />
  <path
     d="M 133.9439,0 194.5408,61.5706 174.4796,12.9079 Z"
     style="fill:#ffffff;fill-rule:evenodd"
     id="path20"
     inkscape:connector-curvature="0" />
  <path
     d="M 93.6517,27.2541 C 95.425,26.406 125.9084,2.2515 125.9084,2.2515 L 95.8721,3.3916 Z"
     style="fill:#ffffff;fill-rule:evenodd"
     id="path22"
     inkscape:connector-curvature="0" />
  <path
     d="M 91.5606,31.6945 91.7981,6.8575 79.1018,18.1886 Z"
     style="fill:#ffffff;fill-rule:evenodd"
     id="path24"
     inkscape:connector-curvature="0" />
  <path
     d="m 79.6494,21.9753 -9.1315,9.6193 18.0422,0.96 z"
     style="fill:#ffffff;fill-rule:evenodd"
     id="path26"
     inkscape:connector-curvature="0" />
  <path
     d="m 179.7028,17.0994 18.9351,47.645 28.9107,9.4476 z"
     style="fill:#ffffff;fill-rule:evenodd"
     id="path28"
     inkscape:connector-curvature="0" />
  <path
     d="m 201.3877,68.7796 80.7536,29.0709 -33.6727,34.1224 z"
     style="fill:#ffffff;fill-rule:evenodd"
     id="path30"
     inkscape:connector-curvature="0" />
  <path
     d="m 201.9611,73.3024 33.0498,51.3347 -35.5464,-1.6896 z"
     style="fill:#ffffff;fill-rule:evenodd"
     id="path32"
     inkscape:connector-curvature="0" />
  <path
     d="m 61.06,62.6899 88.0778,41.465 -126.4647,9.0211 z"
     style="fill:#ffffff;fill-rule:evenodd"
     id="path34"
     inkscape:connector-curvature="0" />
  <path
     d="M 56.373,61.7632 33.576,89.6532 0,87.9569 Z"
     style="fill:#ffffff;fill-rule:evenodd"
     id="path36"
     inkscape:connector-curvature="0" />
</svg>
