<?xml version="1.0" encoding="UTF-8" ?>
<!DOCTYPE svg PUBLIC "-//W3C//DTD SVG 1.1//EN" "http://www.w3.org/Graphics/SVG/1.1/DTD/svg11.dtd">
<svg width="316pt" height="304pt" viewBox="0 0 316 304" version="1.1" xmlns="http://www.w3.org/2000/svg">
<path fill="#ebba16" opacity="1.00" d=" M 129.91 43.24 C 130.46 29.53 143.41 18.10 157.00 18.51 C 169.54 18.12 181.46 27.65 183.80 39.96 C 185.33 47.36 183.22 55.34 178.50 61.20 C 174.36 65.83 168.95 69.55 162.78 70.78 C 156.11 72.24 149.15 70.74 143.02 67.99 C 139.63 65.38 136.56 62.34 133.92 58.98 C 132.72 56.96 131.72 54.82 130.86 52.64 C 130.21 49.55 129.93 46.39 129.91 43.24 Z" />
<path fill="#424a60" opacity="1.00" d=" M 112.13 49.11 C 117.91 46.71 124.03 45.33 129.91 43.24 C 129.93 46.39 130.21 49.55 130.86 52.64 C 105.15 58.33 81.56 74.07 66.89 96.00 C 60.94 104.04 56.42 113.13 53.47 122.69 C 51.71 128.01 50.09 133.41 49.43 138.99 C 48.93 142.29 48.87 145.68 47.88 148.89 C 47.01 151.78 42.53 152.77 40.65 150.32 C 39.39 148.88 39.56 146.84 39.54 145.06 C 40.25 132.06 44.83 119.75 48.90 107.51 C 50.56 103.82 53.28 100.74 55.20 97.20 C 68.06 75.37 88.63 58.40 112.13 49.11 Z" />
<path fill="#424a60" opacity="1.00" d=" M 212.20 60.22 C 212.37 58.27 214.29 57.13 216.06 56.90 C 219.13 57.21 221.70 59.15 224.21 60.80 C 228.84 64.12 233.45 67.50 237.73 71.28 C 240.17 73.54 242.54 75.87 244.85 78.27 C 259.43 94.37 269.94 114.43 273.42 135.96 C 276.33 152.31 275.43 169.30 270.74 185.23 C 268.15 183.90 265.44 182.80 262.66 181.92 C 266.40 166.81 266.94 150.87 264.22 135.54 C 261.24 121.62 256.02 107.96 247.47 96.47 C 239.90 85.03 229.92 74.99 218.12 67.93 C 215.62 66.00 211.55 63.97 212.20 60.22 Z" />
<path fill="#dd0330" opacity="1.00" d=" M 109.58 72.51 C 117.67 67.95 125.62 63.16 133.92 58.98 C 136.56 62.34 139.63 65.38 143.02 67.99 C 143.35 71.22 143.70 74.44 144.04 77.67 C 139.30 98.04 134.22 118.33 128.88 138.55 C 126.42 150.28 122.53 161.64 120.10 173.37 C 116.46 189.73 111.12 205.69 108.07 222.18 C 115.66 221.20 123.17 219.68 130.73 218.51 C 133.16 207.87 135.67 197.23 137.62 186.49 C 145.03 185.30 152.39 183.84 159.79 182.66 C 161.05 182.84 162.31 183.04 163.57 183.27 C 166.66 199.93 169.71 216.59 172.78 233.26 C 174.25 241.46 176.17 249.58 177.05 257.88 C 175.35 258.05 173.64 258.23 171.93 258.36 C 147.79 250.50 123.70 242.46 99.62 234.39 C 95.31 232.79 90.45 232.17 86.71 229.37 C 84.54 225.90 83.81 221.74 83.00 217.78 C 84.19 211.90 85.15 205.64 83.09 199.83 C 81.31 194.28 77.00 190.15 73.00 186.12 C 68.36 172.49 64.53 158.60 60.09 144.90 C 58.04 137.45 55.12 130.24 53.47 122.69 C 56.42 113.13 60.94 104.04 66.89 96.00 C 81.29 88.49 95.28 80.22 109.58 72.51 Z" />
<path fill="#c30e2e" opacity="1.00" d=" M 162.78 70.78 C 168.95 69.55 174.36 65.83 178.50 61.20 C 191.63 63.83 204.88 65.96 218.12 67.93 C 229.92 74.99 239.90 85.03 247.47 96.47 C 245.60 104.92 247.70 113.51 247.60 122.03 C 248.90 141.99 250.81 161.92 251.42 181.92 C 246.14 183.55 240.93 186.02 237.14 190.13 C 234.36 193.17 232.18 196.69 230.13 200.23 C 209.12 171.06 189.21 141.11 168.10 112.00 C 160.22 100.46 152.26 88.97 144.04 77.67 C 143.70 74.44 143.35 71.22 143.02 67.99 C 149.15 70.74 156.11 72.24 162.78 70.78 Z" />
<path fill="#be0d2c" opacity="0.98" d=" M 237.73 71.28 C 239.92 71.61 242.51 71.10 244.34 72.61 C 244.76 74.47 244.76 76.38 244.85 78.27 C 242.54 75.87 240.17 73.54 237.73 71.28 Z" />
<path fill="#ffffff" opacity="1.00" d=" M 144.04 77.67 C 152.26 88.97 160.22 100.46 168.10 112.00 C 189.21 141.11 209.12 171.06 230.13 200.23 C 230.11 200.59 230.05 201.30 230.03 201.66 C 223.07 201.99 216.34 203.96 209.44 204.61 C 206.57 205.17 205.27 202.08 203.85 200.21 C 199.18 192.47 194.18 184.94 189.01 177.53 C 179.24 179.02 169.56 181.11 159.79 182.66 C 152.39 183.84 145.03 185.30 137.62 186.49 C 135.67 197.23 133.16 207.87 130.73 218.51 C 123.17 219.68 115.66 221.20 108.07 222.18 C 111.12 205.69 116.46 189.73 120.10 173.37 C 122.53 161.64 126.42 150.28 128.88 138.55 C 134.22 118.33 139.30 98.04 144.04 77.67 M 152.00 122.59 C 149.38 137.12 145.53 151.41 142.89 165.94 C 148.67 165.46 154.38 164.35 160.03 163.09 C 166.02 162.33 171.98 161.36 177.87 160.01 C 172.53 152.35 167.50 144.48 162.26 136.76 C 159.05 132.16 156.71 126.76 152.18 123.26 L 152.00 122.59 Z" />
<path fill="#dd0330" opacity="1.00" d=" M 152.00 122.59 L 152.18 123.26 C 155.77 136.32 157.47 149.80 160.03 163.09 C 154.38 164.35 148.67 165.46 142.89 165.94 C 145.53 151.41 149.38 137.12 152.00 122.59 Z" />
<path fill="#c30e2e" opacity="1.00" d=" M 152.18 123.26 C 156.71 126.76 159.05 132.16 162.26 136.76 C 167.50 144.48 172.53 152.35 177.87 160.01 C 171.98 161.36 166.02 162.33 160.03 163.09 C 157.47 149.80 155.77 136.32 152.18 123.26 Z" />
<path fill="#c30e2e" opacity="1.00" d=" M 159.79 182.66 C 169.56 181.11 179.24 179.02 189.01 177.53 C 194.18 184.94 199.18 192.47 203.85 200.21 C 205.27 202.08 206.57 205.17 209.44 204.61 C 216.34 203.96 223.07 201.99 230.03 201.66 C 229.53 207.07 229.69 212.61 231.39 217.80 C 216.08 230.41 200.28 242.40 184.88 254.91 C 183.21 256.23 181.56 257.61 179.65 258.58 C 177.96 258.93 176.25 259.21 174.55 259.50 C 173.90 259.22 172.59 258.64 171.93 258.36 C 173.64 258.23 175.35 258.05 177.05 257.88 C 176.17 249.58 174.25 241.46 172.78 233.26 C 169.71 216.59 166.66 199.93 163.57 183.27 C 162.31 183.04 161.05 182.84 159.79 182.66 Z" />
<path fill="#7383bf" opacity="1.00" d=" M 32.25 197.23 C 36.05 189.46 43.63 183.61 52.18 182.12 C 59.34 180.56 66.67 182.85 73.00 186.12 C 77.00 190.15 81.31 194.28 83.09 199.83 C 85.15 205.64 84.19 211.90 83.00 217.78 C 81.21 220.78 79.20 223.66 76.89 226.29 C 74.52 228.47 71.86 230.32 69.05 231.88 C 57.70 237.47 42.73 234.06 35.26 223.74 C 29.39 216.38 28.23 205.71 32.25 197.23 Z" />
<path fill="#43b05c" opacity="1.00" d=" M 237.14 190.13 C 240.93 186.02 246.14 183.55 251.42 181.92 C 255.15 181.55 258.92 181.57 262.66 181.92 C 265.44 182.80 268.15 183.90 270.74 185.23 C 278.91 190.11 284.78 199.33 284.25 209.03 C 283.86 222.25 272.18 233.81 259.03 234.46 C 247.42 235.68 235.96 228.37 231.39 217.80 C 229.69 212.61 229.53 207.07 230.03 201.66 C 230.05 201.30 230.11 200.59 230.13 200.23 C 232.18 196.69 234.36 193.17 237.14 190.13 Z" />
<path fill="#424a60" opacity="1.00" d=" M 69.05 231.88 C 71.86 230.32 74.52 228.47 76.89 226.29 C 85.23 236.18 96.11 243.68 107.61 249.45 C 128.11 259.78 151.93 263.33 174.55 259.50 C 176.25 259.21 177.96 258.93 179.65 258.58 C 186.40 257.71 192.65 254.93 199.14 253.12 C 201.72 252.09 205.04 254.10 204.80 257.00 C 205.06 260.13 201.64 261.30 199.32 262.31 C 175.58 271.18 149.00 272.19 124.59 265.42 C 103.40 259.68 84.23 247.65 69.05 231.88 Z" />
</svg>
