<?xml version="1.0" encoding="UTF-8" ?>
<!DOCTYPE svg PUBLIC "-//W3C//DTD SVG 1.1//EN" "http://www.w3.org/Graphics/SVG/1.1/DTD/svg11.dtd">
<svg width="383pt" height="431pt" viewBox="0 0 383 431" version="1.1" xmlns="http://www.w3.org/2000/svg">
<path fill="#c30e2e" opacity="1.00" d=" M 191.90 21.18 C 193.97 20.23 196.35 20.01 198.50 20.88 C 234.91 33.80 271.20 47.10 307.72 59.71 C 307.49 73.05 304.99 86.24 303.90 99.52 C 302.41 108.49 301.68 117.57 300.64 126.60 C 298.86 145.03 296.08 163.35 294.42 181.79 C 281.40 181.89 268.37 182.08 255.36 181.64 C 244.81 156.53 233.27 131.84 222.36 106.89 C 213.19 86.79 204.65 66.39 195.17 46.44 C 195.21 38.00 195.47 29.54 194.92 21.11 C 194.16 21.12 192.66 21.16 191.90 21.18 Z" />
<path fill="#dd0330" opacity="1.00" d=" M 100.81 53.54 C 131.21 42.86 161.44 31.67 191.90 21.18 C 192.66 21.16 194.16 21.12 194.92 21.11 C 195.47 29.54 195.21 38.00 195.17 46.44 C 177.49 86.89 159.28 127.13 141.46 167.53 C 139.37 172.20 137.10 176.80 135.42 181.65 C 122.42 182.07 109.41 181.88 96.41 181.80 C 94.93 165.77 92.57 149.85 90.93 133.84 C 89.59 122.40 88.69 110.92 86.94 99.54 C 85.21 86.57 84.41 73.48 82.41 60.55 C 88.25 57.48 94.76 56.09 100.81 53.54 Z" />
<path fill="#ffffff" opacity="1.00" d=" M 141.46 167.53 C 159.28 127.13 177.49 86.89 195.17 46.44 C 204.65 66.39 213.19 86.79 222.36 106.89 C 233.27 131.84 244.81 156.53 255.36 181.64 C 248.22 181.54 241.07 182.29 233.94 181.77 C 231.91 181.72 230.22 180.50 228.71 179.28 C 227.14 175.88 226.87 169.68 222.04 169.68 C 206.02 169.60 190.00 169.73 173.98 169.63 C 170.98 169.56 168.00 169.90 165.07 170.52 C 164.53 172.25 163.96 173.97 163.40 175.69 C 162.59 177.72 161.69 179.71 160.86 181.73 C 152.38 181.87 143.90 181.84 135.42 181.65 C 137.10 176.80 139.37 172.20 141.46 167.53 M 185.13 123.42 C 182.00 131.25 178.45 138.91 175.54 146.82 L 174.47 146.80 C 177.15 148.04 180.15 147.69 183.01 147.72 C 193.93 147.62 204.85 147.82 215.77 147.61 C 211.10 136.83 206.71 125.94 202.14 115.12 C 200.05 110.16 198.42 104.96 195.52 100.39 L 195.54 99.35 C 191.34 107.03 188.69 115.44 185.13 123.42 Z" />
<path fill="#ffecd7" opacity="1.00" d=" M 20.39 99.54 C 24.55 99.63 28.75 98.98 32.89 99.59 C 39.62 107.66 47.49 114.67 54.77 122.23 C 59.02 126.77 64.55 130.48 67.00 136.42 C 63.72 140.03 60.69 143.88 57.82 147.83 C 49.45 159.22 40.74 170.37 32.52 181.87 C 28.96 181.68 25.39 181.84 21.83 181.98 C 21.45 188.65 21.49 195.33 21.57 202.00 C 21.56 257.00 21.57 312.00 21.57 367.00 C 21.50 378.77 21.79 390.55 21.24 402.31 C 20.42 399.97 20.44 397.47 20.43 395.02 C 20.46 296.53 20.43 198.03 20.39 99.54 Z" />
<path fill="#ffecd7" opacity="1.00" d=" M 350.11 99.59 C 354.24 98.98 358.45 99.63 362.61 99.54 C 362.58 127.00 362.62 154.46 362.59 181.92 C 358.55 181.82 354.51 181.71 350.48 181.90 C 342.56 170.75 334.12 159.99 326.03 148.98 C 322.88 144.64 319.62 140.38 316.00 136.42 C 318.33 130.70 323.61 127.08 327.73 122.73 C 335.18 115.01 343.22 107.83 350.11 99.59 Z" />
<path fill="#e0c6a9" opacity="1.00" d=" M 32.89 99.59 C 50.90 99.39 68.92 99.49 86.94 99.54 C 88.69 110.92 89.59 122.40 90.93 133.84 C 92.57 149.85 94.93 165.77 96.41 181.80 C 109.41 181.88 122.42 182.07 135.42 181.65 C 143.90 181.84 152.38 181.87 160.86 181.73 C 183.72 182.03 206.60 181.93 229.47 181.77 C 229.28 181.14 228.90 179.90 228.71 179.28 C 230.22 180.50 231.91 181.72 233.94 181.77 C 241.07 182.29 248.22 181.54 255.36 181.64 C 268.37 182.08 281.40 181.89 294.42 181.79 C 296.08 163.35 298.86 145.03 300.64 126.60 C 301.68 117.57 302.41 108.49 303.90 99.52 C 319.30 99.52 334.71 99.38 350.11 99.59 C 343.22 107.83 335.18 115.01 327.73 122.73 C 323.61 127.08 318.33 130.70 316.00 136.42 C 314.05 151.50 316.34 166.79 314.70 181.91 C 326.39 181.89 338.08 181.89 349.77 181.94 C 347.20 182.26 344.63 182.70 342.04 182.85 C 247.70 182.76 153.35 182.82 59.00 182.83 C 50.40 182.66 41.73 183.59 33.23 181.91 C 44.92 181.93 56.61 181.87 68.30 181.91 C 66.66 166.79 68.95 151.49 67.00 136.42 C 64.55 130.48 59.02 126.77 54.77 122.23 C 47.49 114.67 39.62 107.66 32.89 99.59 Z" />
<path fill="#dd0330" opacity="1.00" d=" M 185.13 123.42 C 188.69 115.44 191.34 107.03 195.54 99.35 L 195.52 100.39 C 194.73 115.91 195.68 131.46 194.99 146.98 C 188.51 147.62 182.02 147.18 175.54 146.82 C 178.45 138.91 182.00 131.25 185.13 123.42 Z" />
<path fill="#c30e2e" opacity="1.00" d=" M 194.99 146.98 C 195.68 131.46 194.73 115.91 195.52 100.39 C 198.42 104.96 200.05 110.16 202.14 115.12 C 206.71 125.94 211.10 136.83 215.77 147.61 C 204.85 147.82 193.93 147.62 183.01 147.72 C 180.15 147.69 177.15 148.04 174.47 146.80 L 175.54 146.82 C 182.02 147.18 188.51 147.62 194.99 146.98 Z" />
<path fill="#ccb297" opacity="1.00" d=" M 67.00 136.42 C 68.95 151.49 66.66 166.79 68.30 181.91 C 56.61 181.87 44.92 181.93 33.23 181.91 L 32.52 181.87 C 40.74 170.37 49.45 159.22 57.82 147.83 C 60.69 143.88 63.72 140.03 67.00 136.42 Z" />
<path fill="#ccb297" opacity="1.00" d=" M 314.70 181.91 C 316.34 166.79 314.05 151.50 316.00 136.42 C 319.62 140.38 322.88 144.64 326.03 148.98 C 334.12 159.99 342.56 170.75 350.48 181.90 L 349.77 181.94 C 338.08 181.89 326.39 181.89 314.70 181.91 Z" />
<path fill="#c30e2e" opacity="1.00" d=" M 165.07 170.52 C 168.00 169.90 170.98 169.56 173.98 169.63 C 190.00 169.73 206.02 169.60 222.04 169.68 C 226.87 169.68 227.14 175.88 228.71 179.28 C 228.90 179.90 229.28 181.14 229.47 181.77 C 206.60 181.93 183.72 182.03 160.86 181.73 C 161.69 179.71 162.59 177.72 163.40 175.69 C 163.24 177.51 163.16 179.34 163.07 181.17 C 173.72 181.47 184.39 181.61 195.03 181.08 C 195.03 177.70 195.03 174.32 195.03 170.94 C 185.05 170.23 175.05 170.93 165.07 170.52 Z" />
<path fill="#dd0330" opacity="1.00" d=" M 165.07 170.52 C 175.05 170.93 185.05 170.23 195.03 170.94 C 195.03 174.32 195.03 177.70 195.03 181.08 C 184.39 181.61 173.72 181.47 163.07 181.17 C 163.16 179.34 163.24 177.51 163.40 175.69 C 163.96 173.97 164.53 172.25 165.07 170.52 Z" />
<path fill="#f0d7b8" opacity="1.00" d=" M 21.83 181.98 C 25.39 181.84 28.96 181.68 32.52 181.87 L 33.23 181.91 C 41.73 183.59 50.40 182.66 59.00 182.83 C 153.35 182.82 247.70 182.76 342.04 182.85 C 344.63 182.70 347.20 182.26 349.77 181.94 L 350.48 181.90 C 354.51 181.71 358.55 181.82 362.59 181.92 C 362.60 253.62 362.62 325.33 362.58 397.03 C 362.84 408.92 351.78 419.38 339.97 418.86 C 242.64 418.90 145.31 418.85 47.99 418.88 C 44.03 418.81 39.95 419.15 36.14 417.90 C 29.01 415.72 22.78 409.69 21.24 402.31 C 21.79 390.55 21.50 378.77 21.57 367.00 C 21.57 312.00 21.56 257.00 21.57 202.00 C 21.49 195.33 21.45 188.65 21.83 181.98 M 105.11 221.11 C 102.90 224.92 103.00 229.54 103.52 233.78 C 104.64 239.47 109.16 243.87 114.30 246.20 C 114.41 250.80 115.02 255.39 114.78 260.00 C 114.41 273.22 116.57 286.70 122.46 298.63 C 130.06 313.84 142.52 326.78 157.96 334.10 C 177.57 343.96 201.60 344.53 221.67 335.66 C 236.11 329.62 248.29 318.80 256.65 305.63 C 265.33 292.18 268.72 275.86 268.22 260.00 C 267.98 255.39 268.59 250.80 268.70 246.20 C 275.04 243.46 280.22 237.19 279.77 230.01 C 280.53 222.47 275.11 215.50 268.29 212.89 C 265.04 211.89 261.54 212.02 258.21 212.42 C 248.42 214.37 241.91 226.04 245.67 235.37 C 247.14 240.07 250.89 243.56 255.08 245.92 C 255.88 248.88 256.56 251.91 256.46 255.00 C 256.29 262.41 256.68 269.91 255.23 277.23 C 251.96 294.18 241.78 309.86 227.24 319.26 C 213.10 328.92 194.97 332.23 178.26 328.73 C 166.23 326.32 155.15 320.11 146.27 311.73 C 134.49 299.96 126.97 283.75 126.70 267.00 C 126.79 259.97 125.72 252.75 127.92 245.93 C 135.06 242.35 139.89 234.03 138.01 226.05 C 136.39 218.30 129.19 211.62 121.01 212.14 C 114.49 211.55 108.14 215.42 105.11 221.11 Z" />
<path fill="#72543a" opacity="1.00" d=" M 105.11 221.11 C 108.14 215.42 114.49 211.55 121.01 212.14 C 129.19 211.62 136.39 218.30 138.01 226.05 C 139.89 234.03 135.06 242.35 127.92 245.93 C 125.57 240.06 127.23 233.68 126.16 227.64 C 124.69 222.83 116.89 222.41 115.39 227.43 C 113.98 233.56 114.86 239.96 114.30 246.20 C 109.16 243.87 104.64 239.47 103.52 233.78 C 103.00 229.54 102.90 224.92 105.11 221.11 Z" />
<path fill="#72543a" opacity="1.00" d=" M 245.67 235.37 C 241.91 226.04 248.42 214.37 258.21 212.42 C 261.54 212.02 265.04 211.89 268.29 212.89 C 275.11 215.50 280.53 222.47 279.77 230.01 C 280.22 237.19 275.04 243.46 268.70 246.20 C 268.14 239.96 269.03 233.56 267.61 227.43 C 266.10 222.42 258.31 222.83 256.84 227.63 C 255.77 233.68 257.44 240.05 255.08 245.92 C 250.89 243.56 247.14 240.07 245.67 235.37 Z" />
<path fill="#ceb69e" opacity="1.00" d=" M 115.39 227.43 C 116.89 222.41 124.69 222.83 126.16 227.64 C 127.23 233.68 125.57 240.06 127.92 245.93 C 125.72 252.75 126.79 259.97 126.70 267.00 C 126.97 283.75 134.49 299.96 146.27 311.73 C 155.15 320.11 166.23 326.32 178.26 328.73 C 194.97 332.23 213.10 328.92 227.24 319.26 C 241.78 309.86 251.96 294.18 255.23 277.23 C 256.68 269.91 256.29 262.41 256.46 255.00 C 256.56 251.91 255.88 248.88 255.08 245.92 C 257.44 240.05 255.77 233.68 256.84 227.63 C 258.31 222.83 266.10 222.42 267.61 227.43 C 269.03 233.56 268.14 239.96 268.70 246.20 C 268.59 250.80 267.98 255.39 268.22 260.00 C 268.72 275.86 265.33 292.18 256.65 305.63 C 248.29 318.80 236.11 329.62 221.67 335.66 C 201.60 344.53 177.57 343.96 157.96 334.10 C 142.52 326.78 130.06 313.84 122.46 298.63 C 116.57 286.70 114.41 273.22 114.78 260.00 C 115.02 255.39 114.41 250.80 114.30 246.20 C 114.86 239.96 113.98 233.56 115.39 227.43 Z" />
</svg>
