<?xml version="1.0" encoding="UTF-8" ?>
<!DOCTYPE svg PUBLIC "-//W3C//DTD SVG 1.1//EN" "http://www.w3.org/Graphics/SVG/1.1/DTD/svg11.dtd">
<svg width="509pt" height="216pt" viewBox="0 0 509 216" version="1.1" xmlns="http://www.w3.org/2000/svg">
<path fill="#007acc" opacity="1.00" d=" M 118.44 24.80 C 134.94 22.22 151.53 20.25 168.06 17.85 C 175.77 70.72 182.67 123.72 190.17 176.63 C 187.98 176.84 185.78 177.00 183.58 177.19 C 181.29 177.80 178.92 178.01 176.56 178.22 C 173.95 178.84 171.27 179.00 168.61 179.22 C 166.31 179.84 163.94 180.01 161.59 180.23 C 159.28 180.80 156.92 181.01 154.57 181.22 C 151.96 181.85 149.27 182.00 146.61 182.22 C 144.32 182.86 141.94 183.01 139.59 183.23 C 137.29 183.81 134.93 184.01 132.58 184.22 C 127.60 185.05 122.59 185.65 117.58 186.23 C 115.29 186.82 112.92 187.01 110.56 187.22 C 105.61 188.10 100.61 188.80 95.59 189.22 C 93.30 189.83 90.93 190.01 88.58 190.22 C 86.27 190.79 83.91 191.00 81.56 191.22 C 78.95 191.84 76.27 192.00 73.61 192.22 C 71.31 192.84 68.94 193.01 66.58 193.23 C 64.28 193.80 61.92 194.01 59.56 194.22 C 56.95 194.85 54.27 195.00 51.61 195.22 C 49.32 195.86 46.95 196.01 44.59 196.23 C 42.29 196.80 39.93 197.01 37.57 197.22 C 35.46 197.70 33.31 197.97 31.15 198.19 C 30.37 195.38 29.96 192.49 29.77 189.59 C 29.20 187.29 28.99 184.92 28.77 182.57 C 27.95 177.60 27.35 172.60 26.76 167.59 C 26.16 165.30 25.99 162.94 25.77 160.59 C 25.20 158.29 24.99 155.92 24.77 153.57 C 23.94 148.60 23.34 143.60 22.76 138.59 C 22.16 136.30 21.99 133.94 21.77 131.59 C 21.19 129.29 20.99 126.93 20.78 124.57 C 19.94 119.61 19.35 114.60 18.76 109.59 C 18.16 107.30 17.99 104.94 17.77 102.59 C 17.19 100.29 16.99 97.92 16.77 95.57 C 15.95 90.60 15.34 85.60 14.76 80.59 C 14.15 78.31 13.99 75.94 13.77 73.59 C 13.18 71.29 12.99 68.93 12.77 66.58 C 11.94 61.61 11.34 56.60 10.76 51.59 C 10.13 49.30 9.99 46.93 9.81 44.57 C 9.37 42.92 9.06 41.24 8.76 39.56 C 13.68 39.12 18.53 38.17 23.44 37.79 C 47.74 34.24 72.09 30.93 96.44 27.80 C 103.75 26.62 111.08 25.55 118.44 24.80 M 128.69 99.69 C 118.16 106.95 118.92 124.52 129.07 131.77 C 135.25 136.21 142.89 137.75 150.10 139.76 C 153.02 140.96 156.55 142.15 157.75 145.41 C 158.81 147.46 158.01 149.95 156.84 151.77 C 153.91 155.05 149.26 156.14 145.02 155.62 C 140.25 155.55 136.62 152.04 133.49 148.86 C 129.43 151.20 125.98 154.40 122.18 157.11 C 125.63 162.88 131.66 166.37 137.95 168.25 C 141.87 168.86 145.86 169.68 149.82 168.86 C 158.24 168.09 167.27 164.31 171.30 156.43 C 174.55 150.43 173.31 143.14 170.73 137.16 C 166.77 128.88 157.20 126.37 149.16 123.83 C 144.60 122.80 139.95 121.44 136.39 118.24 C 136.30 116.07 135.90 113.84 136.48 111.70 C 138.10 108.64 141.85 107.74 145.05 108.22 C 148.31 108.36 150.46 111.13 152.85 112.99 C 156.14 109.88 159.64 107.01 162.99 103.97 C 159.53 100.13 155.43 96.36 150.15 95.44 C 142.84 94.68 134.72 94.92 128.69 99.69 M 54.11 107.88 C 54.39 112.23 55.04 116.54 55.68 120.85 C 62.61 120.22 69.46 118.90 76.39 118.23 C 79.26 137.73 81.67 157.31 84.62 176.80 C 89.35 176.30 94.05 175.45 98.81 175.12 C 98.82 170.35 98.22 165.61 97.45 160.91 C 95.47 145.91 93.12 130.94 91.36 115.91 C 98.20 115.35 104.96 114.12 111.77 113.29 C 111.52 108.95 110.64 104.68 110.12 100.37 C 91.42 102.65 72.77 105.34 54.11 107.88 Z" />
<path fill="#f0da50" opacity="1.00" d=" M 343.36 38.01 C 348.74 37.91 354.14 38.09 359.48 38.81 C 378.36 39.75 397.19 41.41 416.08 42.37 C 422.50 43.40 429.05 42.75 435.47 43.81 C 454.67 44.75 473.80 46.48 493.00 47.39 C 493.06 52.42 492.96 57.46 492.32 62.45 C 489.48 107.28 486.26 152.08 483.49 196.92 C 477.48 195.63 471.32 196.32 465.26 195.51 C 460.31 194.51 455.21 195.40 450.24 194.53 C 445.54 193.52 440.70 194.36 435.97 193.64 C 429.73 192.42 423.28 193.51 417.06 192.07 C 408.62 192.31 400.33 190.72 391.91 190.81 C 386.07 189.67 380.12 190.30 374.25 189.53 C 369.32 188.49 364.24 189.42 359.29 188.55 C 354.34 187.46 349.23 188.44 344.25 187.55 C 340.88 186.78 337.42 187.01 334.00 187.00 C 334.03 182.76 333.80 178.50 334.45 174.31 C 335.55 169.37 334.54 164.27 335.44 159.31 C 336.56 154.38 335.54 149.28 336.44 144.32 C 337.57 139.04 336.54 133.59 337.49 128.28 C 338.47 123.33 337.62 118.23 338.49 113.26 C 339.48 108.31 338.61 103.22 339.49 98.25 C 340.48 93.32 339.61 88.23 340.49 83.27 C 341.49 78.32 340.60 73.22 341.48 68.25 C 342.47 63.54 341.65 58.69 342.38 53.94 C 343.44 48.69 342.76 43.31 343.36 38.01 M 391.75 83.30 C 390.86 99.59 389.75 115.88 388.55 132.15 C 388.65 136.21 385.39 140.53 380.97 139.69 C 376.31 139.95 373.75 135.51 371.80 132.00 C 367.78 133.80 363.88 135.85 359.98 137.89 C 364.49 151.94 383.81 156.49 395.38 148.53 C 403.55 142.37 403.13 131.05 403.57 121.87 C 404.73 109.39 404.93 96.82 406.34 84.37 C 401.53 83.51 396.63 83.36 391.75 83.30 M 417.90 97.83 C 415.06 105.06 417.24 113.83 423.01 118.98 C 428.57 124.34 436.30 126.29 442.46 130.74 C 444.81 132.23 446.12 135.06 445.44 137.81 C 444.52 142.40 439.01 144.01 434.93 143.34 C 429.13 143.12 424.81 138.75 422.07 134.04 C 417.95 135.78 413.98 137.81 410.03 139.89 C 412.29 144.11 415.16 148.12 419.22 150.76 C 426.04 155.65 434.85 156.33 442.94 155.46 C 450.22 154.40 457.42 149.38 459.10 141.91 C 460.27 136.10 460.22 129.42 456.38 124.56 C 450.82 117.21 441.60 114.52 434.12 109.72 C 431.35 108.11 429.59 104.21 431.40 101.29 C 433.12 97.56 438.27 96.87 441.63 98.64 C 443.99 99.51 445.14 101.86 446.45 103.81 C 450.85 102.97 454.39 100.01 458.29 97.99 C 456.37 94.66 454.19 91.29 450.87 89.19 C 445.39 85.42 438.36 84.80 431.94 85.85 C 425.62 87.09 419.72 91.47 417.90 97.83 Z" />
<path fill="#323230" opacity="1.00" d=" M 391.75 83.30 C 396.63 83.36 401.53 83.51 406.34 84.37 C 404.93 96.82 404.73 109.39 403.57 121.87 C 403.13 131.05 403.55 142.37 395.38 148.53 C 383.81 156.49 364.49 151.94 359.98 137.89 C 363.88 135.85 367.78 133.80 371.80 132.00 C 373.75 135.51 376.31 139.95 380.97 139.69 C 385.39 140.53 388.65 136.21 388.55 132.15 C 389.75 115.88 390.86 99.59 391.75 83.30 Z" />
<path fill="#ffffff" opacity="1.00" d=" M 276.39 88.16 C 280.20 86.83 284.04 85.35 288.11 85.13 C 293.93 85.88 297.86 90.52 301.93 94.24 C 303.08 95.96 301.54 98.07 300.46 99.46 C 298.40 101.79 296.69 105.21 293.16 105.33 C 290.19 103.42 288.01 99.69 284.00 100.01 C 282.08 103.03 286.02 104.28 287.92 105.64 C 290.14 108.12 293.20 109.62 295.62 111.89 C 299.37 113.76 302.78 117.13 303.39 121.44 C 306.85 130.86 299.76 142.37 289.96 144.01 C 285.28 145.32 280.89 142.42 276.32 141.85 C 274.34 140.00 272.11 138.50 269.70 137.27 C 268.33 135.60 266.97 133.42 268.13 131.24 C 269.72 128.49 272.33 126.31 272.68 122.94 C 276.06 120.16 280.76 122.67 281.46 126.66 C 283.38 128.35 285.87 128.54 288.31 128.32 C 288.67 127.01 289.01 125.69 289.34 124.37 C 287.81 122.84 286.28 121.32 284.70 119.84 C 282.72 119.40 280.86 118.60 279.05 117.71 L 278.88 118.02 C 277.28 115.93 274.74 115.00 272.77 113.35 C 271.67 111.95 271.07 110.25 270.33 108.65 C 269.22 104.54 269.88 100.26 270.88 96.20 C 272.17 93.19 274.41 90.73 276.39 88.16 Z" />
<path fill="#323230" opacity="1.00" d=" M 417.90 97.83 C 419.72 91.47 425.62 87.09 431.94 85.85 C 438.36 84.80 445.39 85.42 450.87 89.19 C 454.19 91.29 456.37 94.66 458.29 97.99 C 454.39 100.01 450.85 102.97 446.45 103.81 C 445.14 101.86 443.99 99.51 441.63 98.64 C 438.27 96.87 433.12 97.56 431.40 101.29 C 429.59 104.21 431.35 108.11 434.12 109.72 C 441.60 114.52 450.82 117.21 456.38 124.56 C 460.22 129.42 460.27 136.10 459.10 141.91 C 457.42 149.38 450.22 154.40 442.94 155.46 C 434.85 156.33 426.04 155.65 419.22 150.76 C 415.16 148.12 412.29 144.11 410.03 139.89 C 413.98 137.81 417.95 135.78 422.07 134.04 C 424.81 138.75 429.13 143.12 434.93 143.34 C 439.01 144.01 444.52 142.40 445.44 137.81 C 446.12 135.06 444.81 132.23 442.46 130.74 C 436.30 126.29 428.57 124.34 423.01 118.98 C 417.24 113.83 415.06 105.06 417.90 97.83 Z" />
<path fill="#ffffff" opacity="1.00" d=" M 211.47 88.77 C 216.81 87.00 222.53 87.34 228.07 86.98 C 229.53 86.71 230.06 88.47 230.82 89.36 C 233.17 97.89 236.23 106.25 239.90 114.29 C 239.88 114.88 239.83 116.07 239.80 116.66 C 241.77 112.24 243.93 107.89 245.66 103.36 C 246.85 97.96 250.05 93.38 251.90 88.23 C 255.31 87.77 258.77 87.32 262.21 87.87 C 264.91 86.91 268.39 87.99 268.78 91.16 C 266.45 97.29 264.28 103.49 261.02 109.19 C 257.43 116.10 255.53 123.68 251.96 130.59 C 251.02 134.19 249.29 137.49 247.57 140.76 C 246.50 142.65 246.44 145.65 243.90 146.22 C 242.29 147.00 240.82 145.37 239.35 144.90 C 239.26 144.35 239.10 143.27 239.02 142.72 C 233.72 135.97 230.89 127.75 226.33 120.53 C 223.74 115.35 220.75 110.28 219.49 104.60 C 217.13 100.96 215.84 95.78 211.44 94.15 C 210.71 92.38 209.61 90.25 211.47 88.77 Z" />
<path fill="#ffffff" opacity="1.00" d=" M 128.69 99.69 C 134.72 94.92 142.84 94.68 150.15 95.44 C 155.43 96.36 159.53 100.13 162.99 103.97 C 159.64 107.01 156.14 109.88 152.85 112.99 C 150.46 111.13 148.31 108.36 145.05 108.22 C 141.85 107.74 138.10 108.64 136.48 111.70 C 135.90 113.84 136.30 116.07 136.39 118.24 C 139.95 121.44 144.60 122.80 149.16 123.83 C 157.20 126.37 166.77 128.88 170.73 137.16 C 173.31 143.14 174.55 150.43 171.30 156.43 C 167.27 164.31 158.24 168.09 149.82 168.86 C 145.86 169.68 141.87 168.86 137.95 168.25 C 131.66 166.37 125.63 162.88 122.18 157.11 C 125.98 154.40 129.43 151.20 133.49 148.86 C 136.62 152.04 140.25 155.55 145.02 155.62 C 149.26 156.14 153.91 155.05 156.84 151.77 C 158.01 149.95 158.81 147.46 157.75 145.41 C 156.55 142.15 153.02 140.96 150.10 139.76 C 142.89 137.75 135.25 136.21 129.07 131.77 C 118.92 124.52 118.16 106.95 128.69 99.69 Z" />
<path fill="#ffffff" opacity="1.00" d=" M 54.11 107.88 C 72.77 105.34 91.42 102.65 110.12 100.37 C 110.64 104.68 111.52 108.95 111.77 113.29 C 104.96 114.12 98.20 115.35 91.36 115.91 C 93.12 130.94 95.47 145.91 97.45 160.91 C 98.22 165.61 98.82 170.35 98.81 175.12 C 94.05 175.45 89.35 176.30 84.62 176.80 C 81.67 157.31 79.26 137.73 76.39 118.23 C 69.46 118.90 62.61 120.22 55.68 120.85 C 55.04 116.54 54.39 112.23 54.11 107.88 Z" />
</svg>
