<?xml version="1.0" encoding="UTF-8" ?>
<!DOCTYPE svg PUBLIC "-//W3C//DTD SVG 1.1//EN" "http://www.w3.org/Graphics/SVG/1.1/DTD/svg11.dtd">
<svg width="1225pt" height="647pt" viewBox="0 0 1225 647" version="1.1" xmlns="http://www.w3.org/2000/svg">

<path fill="#1e1f22" opacity="1.00" d=" M 277.45 147.15 C 281.09 144.94 278.40 150.85 277.45 147.15 Z" />
<path fill="#1e1f22" opacity="1.00" d=" M 278.38 148.91 C 285.55 147.91 286.19 155.79 287.70 159.44 C 291.24 159.44 298.16 165.54 292.22 166.86 C 288.62 160.40 277.68 156.95 278.38 148.91 Z" />
<path fill="#1e1f22" opacity="1.00" d=" M 818.48 165.17 C 825.42 161.67 828.08 175.01 834.70 170.75 C 843.39 164.66 842.14 177.14 845.71 181.31 C 860.33 187.53 850.30 205.60 847.73 216.83 C 846.47 225.50 835.82 230.10 840.58 239.39 C 839.29 254.74 821.16 261.59 808.46 265.48 C 794.57 278.63 782.45 293.58 764.57 301.49 C 736.10 307.72 702.08 300.29 678.98 321.00 C 684.48 336.02 703.97 339.01 704.47 356.52 C 714.86 365.42 708.92 379.02 708.55 390.44 C 715.30 402.41 715.15 416.89 716.66 430.17 C 712.27 425.76 701.45 410.24 704.92 424.88 C 693.14 419.30 681.45 410.40 668.72 408.76 C 660.87 414.64 650.45 403.80 643.09 411.11 C 632.04 421.94 616.67 426.46 601.54 427.51 C 579.92 429.89 557.85 432.73 536.33 428.09 C 529.28 444.70 539.08 460.74 533.34 477.34 C 533.28 480.99 531.24 484.82 527.90 481.11 C 524.68 483.21 523.50 492.60 519.57 491.64 C 511.33 482.41 528.45 473.95 524.81 465.34 C 519.45 468.85 517.17 478.12 511.68 482.60 C 506.71 487.43 507.84 475.75 512.04 475.02 C 516.04 473.02 508.92 467.81 505.86 469.71 C 506.85 461.91 517.55 465.82 520.77 459.79 C 526.10 449.59 529.35 438.31 531.90 427.14 C 523.34 421.98 512.55 425.88 503.65 421.37 C 495.65 417.03 488.07 427.85 487.98 435.06 C 485.84 455.84 482.99 476.72 486.43 497.49 C 488.50 499.74 486.11 509.82 483.08 503.85 C 477.33 500.20 482.51 513.35 475.96 514.28 C 468.63 507.19 479.76 498.20 477.01 489.91 C 472.13 489.48 474.85 497.36 470.46 497.20 C 472.37 492.45 467.03 491.24 464.10 488.76 C 462.76 483.31 470.95 485.38 472.59 481.61 C 480.91 465.81 480.21 447.33 483.44 430.18 C 479.47 421.43 485.78 411.96 479.95 404.04 C 484.54 397.47 496.38 397.18 500.63 390.24 C 499.69 383.73 491.40 383.91 488.85 379.10 C 492.08 378.59 498.00 382.35 498.84 377.92 C 500.44 371.87 489.26 369.30 493.60 363.14 C 490.78 361.34 488.19 359.26 486.57 356.27 C 483.03 354.94 472.01 358.73 473.51 351.86 C 453.48 355.45 434.83 365.42 414.19 365.92 C 410.39 362.18 416.25 356.59 410.40 353.58 C 415.12 344.41 417.36 330.86 429.39 327.41 C 444.18 320.76 461.17 324.28 476.65 325.59 C 491.88 314.86 511.83 328.18 527.32 318.99 C 514.67 315.14 501.75 309.69 492.15 299.95 C 468.00 292.48 443.48 285.66 420.07 275.89 C 405.70 264.73 387.82 256.64 378.70 240.30 C 370.34 231.47 360.44 224.28 350.77 216.98 C 353.85 214.02 357.06 209.89 362.00 210.96 C 380.30 220.08 396.81 232.62 413.20 244.82 C 436.74 255.24 459.40 267.80 484.01 275.86 C 504.63 277.54 524.03 286.45 543.90 291.12 C 555.16 293.59 566.65 296.42 577.12 301.80 C 588.77 298.91 593.90 289.09 603.18 283.24 C 609.22 268.93 628.05 279.10 637.07 269.17 C 643.88 268.31 646.29 261.87 651.38 258.40 C 660.20 256.66 662.44 245.31 672.62 245.47 C 687.21 234.13 705.75 230.44 719.93 218.97 C 723.77 211.51 730.12 203.75 739.19 203.25 C 744.33 203.08 744.97 195.02 751.01 197.02 C 757.89 198.85 760.12 188.91 766.68 190.54 C 771.33 191.68 769.20 184.90 772.38 183.41 C 779.03 186.08 781.90 176.67 788.12 179.92 C 797.71 187.28 794.96 163.08 806.75 171.18 C 812.49 177.82 814.46 169.34 818.48 165.17 M 705.93 407.98 C 707.19 417.94 714.25 409.31 705.93 407.98 M 701.10 412.26 C 699.56 415.29 704.37 412.44 701.10 412.26 M 533.26 427.10 C 533.44 430.37 536.29 425.56 533.26 427.10 Z" />



<path fill="#1e1f22" opacity="1.00" d=" M 470.30 499.28 C 472.16 500.03 466.94 512.90 465.50 505.39 C 463.54 501.98 467.55 499.90 470.30 499.28 Z" />
</svg>
