<?xml version="1.0" encoding="UTF-8" ?>
<!DOCTYPE svg PUBLIC "-//W3C//DTD SVG 1.1//EN" "http://www.w3.org/Graphics/SVG/1.1/DTD/svg11.dtd">
<svg width="1225pt" height="647pt" viewBox="0 0 1225 647" version="1.1" xmlns="http://www.w3.org/2000/svg">

<path fill="#1f2023" opacity="1.00" d=" M 277.33 166.65 C 283.86 174.59 289.63 184.19 293.22 194.05 C 287.26 189.16 285.18 181.74 281.44 175.29 C 280.43 168.72 277.14 173.46 277.33 166.65 Z" />
<path fill="#1f2023" opacity="1.00" d=" M 280.04 195.14 C 286.97 199.92 292.25 207.98 300.76 209.94 C 304.88 205.27 290.73 206.74 295.39 202.35 C 304.19 203.09 309.72 217.26 318.16 223.87 C 322.45 224.27 321.70 213.30 323.18 218.70 C 326.41 227.72 333.19 236.65 343.87 235.45 C 366.58 244.18 385.75 260.23 408.80 268.25 C 431.72 278.48 457.15 278.70 480.04 288.87 C 502.63 290.55 524.41 298.62 546.93 299.73 C 559.23 297.34 570.19 306.01 581.89 306.94 C 590.55 302.65 603.35 305.07 608.53 295.46 C 619.72 282.80 638.05 296.46 649.66 285.70 C 662.47 289.24 665.94 272.33 679.58 276.61 C 686.13 265.05 700.68 272.30 708.95 263.98 C 715.33 259.47 723.70 265.98 729.26 260.30 C 738.55 255.55 748.50 258.57 757.58 253.58 C 772.16 257.33 781.42 235.85 796.30 241.76 C 802.87 245.57 808.27 236.47 814.69 240.26 C 820.04 243.99 824.59 240.61 829.11 238.03 C 836.24 239.08 845.35 245.13 848.60 234.63 C 853.39 225.92 859.16 238.87 866.00 235.99 C 871.23 235.44 872.11 242.12 872.36 246.03 C 876.39 239.83 883.71 240.56 888.81 235.29 C 894.49 238.97 890.69 246.69 891.36 252.22 C 899.89 247.56 906.69 239.77 915.96 236.85 C 918.71 246.27 905.89 253.12 907.39 261.62 C 915.67 256.75 923.56 251.30 932.22 247.12 C 934.03 257.93 922.13 262.92 919.78 271.85 C 926.69 270.48 933.40 268.26 940.07 265.97 C 934.90 280.13 920.90 288.37 910.20 298.11 C 904.16 303.75 894.72 303.76 889.90 310.98 C 874.34 323.84 853.13 316.07 835.02 319.74 C 814.91 317.85 795.18 323.89 775.13 323.18 C 770.00 327.04 763.75 327.27 757.89 325.35 C 736.42 327.79 714.01 322.59 693.23 330.07 C 678.60 331.29 694.97 343.92 700.60 346.41 C 709.19 360.89 716.81 377.67 711.18 395.03 C 717.95 407.56 717.14 422.30 719.95 436.06 C 715.22 434.01 713.02 426.30 707.21 423.68 C 711.39 435.63 698.95 425.19 693.96 422.98 C 680.20 411.21 662.93 417.90 647.07 413.01 C 636.61 420.86 625.16 428.64 611.52 429.42 C 588.59 432.10 564.68 436.93 541.91 431.04 C 532.74 427.06 538.60 443.72 535.62 448.45 C 537.72 460.90 539.22 473.00 534.39 485.37 C 533.40 489.73 529.71 482.41 528.55 486.41 C 528.69 489.07 523.17 499.63 520.86 494.08 C 514.99 484.37 530.57 479.38 528.03 468.89 C 521.48 472.05 520.23 481.90 514.24 486.22 C 509.57 491.28 510.16 480.13 513.84 478.86 C 518.75 476.68 510.93 472.20 507.90 473.72 C 508.25 465.67 520.05 469.67 523.44 463.42 C 528.80 452.88 531.69 441.02 532.73 429.20 C 526.08 422.90 516.02 425.21 508.11 421.85 C 499.34 415.15 488.98 423.85 488.82 433.71 C 485.24 455.06 481.82 476.12 485.57 497.60 C 484.95 504.40 481.91 499.95 478.25 498.90 C 478.97 503.21 478.67 507.43 474.92 510.23 C 465.89 503.75 479.05 494.50 476.00 485.93 C 468.89 488.16 471.68 499.51 466.01 503.25 C 459.82 498.98 470.06 494.16 470.01 489.28 C 467.47 487.21 459.72 485.91 463.71 481.75 C 479.16 476.98 478.01 456.13 482.21 443.15 C 483.87 434.75 485.59 426.02 483.75 417.65 C 490.12 411.37 477.95 401.84 486.76 397.83 C 493.21 399.17 497.28 393.72 502.32 390.84 C 499.26 386.73 491.20 387.96 489.93 383.03 C 493.42 382.43 499.08 386.20 500.38 381.41 C 501.59 376.42 496.10 373.89 493.34 370.75 C 497.79 364.25 483.45 356.66 477.01 360.97 C 467.58 363.90 471.67 358.28 475.18 355.95 C 453.55 360.13 433.40 372.15 411.09 372.99 C 405.01 371.61 414.57 364.62 408.67 363.32 C 402.54 359.29 414.57 356.75 412.66 351.75 C 422.90 328.18 455.04 333.36 476.93 331.97 C 488.48 324.19 504.83 328.77 515.99 327.03 C 495.36 310.64 466.63 312.74 442.11 304.95 C 432.86 303.97 422.86 306.14 414.15 301.85 C 411.46 298.44 407.47 297.31 403.16 298.87 C 399.06 286.35 380.97 282.27 369.99 275.04 C 341.85 258.54 320.59 233.60 293.99 214.97 C 287.69 209.86 278.76 203.65 280.04 195.14 M 349.90 251.00 C 351.44 252.52 352.91 254.42 355.09 254.99 C 361.90 253.93 352.66 250.97 349.90 251.00 M 708.98 412.94 C 708.03 416.16 710.60 417.91 713.17 419.02 C 712.82 416.63 712.16 412.66 708.98 412.94 M 534.26 430.10 C 534.44 433.37 537.29 428.56 534.26 430.10 Z" />
<path fill="#1f2023" opacity="1.00" d=" M 294.15 195.45 C 297.84 196.40 291.95 199.10 294.15 195.45 Z" />
<path fill="#1f2023" opacity="1.00" d=" M 312.15 196.69 C 314.11 201.09 317.03 205.24 316.97 210.29 C 315.20 205.81 311.91 201.78 312.15 196.69 Z" />
<path fill="#1f2023" opacity="1.00" d=" M 318.28 209.49 C 321.66 212.89 315.76 215.02 318.28 209.49 Z" />



</svg>
