<?xml version="1.0" encoding="UTF-8" ?>
<!DOCTYPE svg PUBLIC "-//W3C//DTD SVG 1.1//EN" "http://www.w3.org/Graphics/SVG/1.1/DTD/svg11.dtd">
<svg width="1225pt" height="647pt" viewBox="0 0 1225 647" version="1.1" xmlns="http://www.w3.org/2000/svg">

<path fill="#202124" opacity="1.00" d=" M 279.97 237.95 C 286.57 237.27 299.10 253.24 296.13 239.91 C 306.74 244.38 311.91 258.31 324.80 256.22 C 332.90 257.28 332.60 268.05 341.45 267.65 C 351.52 273.08 360.07 282.10 372.16 282.87 C 424.02 297.32 477.95 300.32 531.23 307.33 C 544.16 309.10 557.03 303.17 569.60 309.42 C 579.54 313.20 588.96 306.38 598.70 304.75 C 613.66 302.34 629.06 300.61 643.98 304.01 C 649.48 302.37 654.79 299.14 660.81 300.55 C 666.05 301.91 667.09 293.90 672.46 294.47 C 685.40 297.80 692.98 282.67 705.97 287.98 C 720.86 280.14 738.33 284.01 754.20 280.17 C 760.11 276.45 767.19 277.38 773.84 276.85 C 780.47 270.38 789.62 265.89 798.75 265.24 C 805.58 275.75 815.70 256.65 822.27 266.71 C 827.77 273.18 835.09 259.12 841.12 261.99 C 843.54 264.72 842.40 272.65 847.53 270.34 C 852.08 264.06 857.21 254.08 865.24 253.69 C 875.27 260.59 856.84 271.81 864.26 278.98 C 874.97 271.92 879.26 257.51 888.99 248.91 C 893.87 245.64 896.30 254.10 892.99 256.98 C 889.70 264.98 880.05 273.05 883.47 281.89 C 897.12 274.01 903.78 258.51 916.14 249.05 C 923.53 249.30 918.22 257.57 915.74 260.80 C 912.39 268.70 904.49 273.84 902.08 282.13 C 901.27 285.80 906.72 285.95 908.46 283.50 C 917.16 275.16 925.76 266.69 934.61 258.58 C 936.64 256.18 942.46 257.99 940.40 261.34 C 934.64 272.21 925.45 280.56 917.95 290.15 C 920.18 295.50 925.37 290.42 928.11 288.18 C 934.91 284.42 940.59 278.96 947.61 275.53 C 953.79 271.44 951.49 275.83 950.97 277.92 C 947.98 287.50 935.85 291.87 932.88 300.97 C 937.97 301.18 942.97 300.11 948.04 299.90 C 936.55 315.27 915.09 318.67 898.60 326.59 C 888.60 335.59 873.36 337.33 860.52 334.57 C 831.66 336.92 802.17 332.31 773.61 335.54 C 747.46 338.00 719.36 329.52 693.08 337.35 C 692.54 343.37 702.05 342.92 703.87 348.10 C 707.45 360.38 719.34 371.12 713.57 385.02 C 708.80 395.67 721.37 403.65 717.40 413.84 C 720.72 420.58 720.97 427.87 720.67 435.20 C 718.10 431.07 706.43 416.58 708.95 428.91 C 697.24 422.92 686.08 415.79 673.15 413.12 C 665.99 418.26 657.39 412.00 649.65 413.65 C 639.21 422.25 627.33 429.93 613.58 431.59 C 587.99 434.29 560.97 439.87 536.25 430.06 C 532.68 439.18 532.73 450.37 535.77 459.86 C 531.79 465.98 535.43 484.58 525.21 479.21 C 524.89 486.09 515.32 493.11 515.30 482.31 C 518.33 476.37 524.67 472.45 524.96 464.87 C 517.01 466.99 515.68 478.09 507.86 481.12 C 502.38 474.28 518.29 472.77 512.11 468.83 C 508.97 467.70 502.75 463.89 508.46 461.46 C 526.34 463.12 528.55 440.02 530.79 427.09 C 520.93 420.94 508.65 420.67 498.86 414.15 C 490.70 413.94 490.88 422.48 487.06 427.04 C 487.34 442.38 478.32 457.99 481.97 474.00 C 482.19 479.03 485.89 499.41 476.14 489.90 C 478.30 493.27 473.55 503.54 469.64 498.27 C 467.51 491.24 476.36 483.85 471.89 476.89 C 468.99 477.61 470.25 482.90 467.49 482.70 C 466.67 478.50 457.87 477.26 462.12 472.16 C 468.96 471.38 470.86 465.13 473.94 459.93 C 481.43 438.70 485.88 415.63 484.65 393.77 C 486.35 389.03 500.34 394.19 495.04 388.05 C 483.35 382.48 498.45 387.89 502.35 384.28 C 505.58 377.20 488.60 374.37 495.72 368.30 C 491.89 366.85 489.80 363.87 488.77 360.04 C 482.56 361.21 467.21 361.92 477.05 354.93 C 456.13 359.07 436.12 369.90 414.35 369.92 C 409.69 367.55 417.98 362.68 412.68 361.32 C 407.69 358.18 415.67 354.89 416.59 352.06 C 417.32 339.49 431.82 335.16 442.84 333.73 C 455.64 329.46 475.02 339.50 484.21 327.01 C 466.34 329.44 448.76 321.53 430.98 325.94 C 418.91 331.45 418.14 316.71 407.16 323.02 C 405.14 309.23 386.39 311.07 376.71 305.35 C 365.38 301.59 357.49 291.43 345.33 289.59 C 327.19 274.17 304.65 264.87 286.37 249.57 C 284.01 245.95 279.29 242.79 279.97 237.95 M 709.88 412.95 C 711.39 421.05 717.82 412.70 709.88 412.95 Z" />

<path fill="#202124" opacity="1.00" d=" M 464.26 486.55 C 469.74 483.71 465.21 496.79 461.86 492.12 C 459.91 489.89 462.21 487.56 464.26 486.55 Z" />
</svg>
