<?xml version="1.0" encoding="UTF-8" ?>
<!DOCTYPE svg PUBLIC "-//W3C//DTD SVG 1.1//EN" "http://www.w3.org/Graphics/SVG/1.1/DTD/svg11.dtd">
<svg width="1225pt" height="647pt" viewBox="0 0 1225 647" version="1.1" xmlns="http://www.w3.org/2000/svg">

<path fill="#202225" opacity="1.00" d=" M 911.32 269.27 C 913.14 268.23 914.74 269.97 915.92 271.17 C 909.90 283.58 897.90 292.97 894.17 306.28 C 910.61 298.93 918.99 281.09 934.61 272.58 C 936.75 270.96 936.77 274.58 936.71 275.96 C 929.34 289.49 914.95 298.59 908.03 312.21 C 924.84 306.96 935.01 288.09 952.26 285.02 C 944.36 299.97 927.41 307.41 916.85 320.16 C 928.01 317.03 937.23 309.07 948.16 305.18 C 950.12 304.29 953.36 303.50 953.03 306.80 C 936.78 319.32 918.22 328.20 899.03 335.11 C 881.57 348.61 858.83 340.67 838.98 345.84 C 819.30 342.47 799.43 344.16 779.62 342.35 C 755.37 348.41 728.76 336.38 704.04 342.11 C 706.67 348.02 707.36 355.14 712.29 359.70 C 718.39 369.13 714.98 380.52 714.21 390.86 C 721.05 403.19 720.94 417.50 722.68 431.21 C 719.26 428.19 714.27 418.82 710.06 420.91 C 712.50 429.71 708.38 421.67 703.38 422.33 C 695.23 416.41 685.11 411.48 675.72 409.77 C 668.93 415.39 658.96 407.74 652.29 414.34 C 636.36 429.24 614.79 437.30 593.01 436.02 C 572.16 439.81 550.42 438.06 531.95 427.08 C 521.28 418.80 507.03 416.59 496.96 407.23 C 483.47 410.58 484.49 430.12 479.60 441.64 C 473.75 453.78 480.94 467.53 477.77 480.05 C 469.09 472.63 474.65 487.38 466.26 486.93 C 461.85 479.59 474.03 471.59 467.15 464.86 C 466.39 475.45 458.81 465.89 457.24 461.29 C 466.95 457.77 471.62 446.01 475.30 436.31 C 480.85 422.04 484.95 406.62 485.22 391.81 C 481.22 379.96 498.90 387.00 504.03 381.25 C 501.41 377.44 490.66 375.18 495.82 369.26 C 493.30 367.47 489.85 366.24 490.09 362.66 C 489.97 354.66 475.26 361.95 478.49 352.80 C 459.41 354.77 440.84 364.70 421.74 362.35 C 422.10 357.03 418.31 351.77 422.88 347.01 C 420.66 341.81 414.26 342.46 409.60 341.37 C 399.01 332.39 384.22 333.41 371.88 328.10 C 351.05 326.79 332.91 315.52 313.10 309.93 C 300.77 304.50 284.86 304.75 276.42 292.62 C 274.14 285.33 260.70 279.79 268.43 272.36 C 273.62 276.37 290.92 284.19 285.28 271.70 C 291.12 269.63 296.87 279.72 304.23 280.74 C 309.84 287.01 317.35 288.67 325.18 286.76 C 343.43 297.46 358.56 317.78 382.00 316.03 C 418.02 320.63 453.78 315.97 489.95 316.82 C 512.69 315.76 535.60 318.37 558.00 313.97 C 573.58 318.83 587.64 308.29 602.85 306.69 C 621.28 303.77 640.86 304.10 658.17 311.84 C 662.38 313.15 666.51 316.88 671.16 315.27 C 699.60 309.42 727.90 308.45 756.86 305.89 C 772.25 309.11 780.65 290.70 796.36 293.66 C 804.33 297.92 811.37 287.11 819.14 292.85 C 825.22 296.24 830.89 283.41 836.55 290.41 C 847.81 299.48 851.13 273.65 862.40 282.70 C 863.13 289.14 856.03 295.16 856.99 302.10 C 871.84 299.72 871.65 271.55 887.94 275.21 C 887.09 285.39 878.27 292.69 875.01 302.15 C 891.98 298.76 896.99 277.25 911.32 269.27 M 711.93 408.92 C 712.44 417.57 719.41 411.34 711.93 408.92 Z" />

<path fill="#202225" opacity="1.00" d=" M 527.15 427.17 C 534.21 427.34 528.54 434.68 528.57 438.81 C 531.30 449.33 528.37 460.03 522.73 468.89 C 516.22 464.19 518.13 475.03 511.77 476.56 C 507.44 474.97 510.96 461.89 501.96 466.76 C 500.46 460.59 509.27 460.93 509.45 466.62 C 516.71 468.31 516.37 462.06 516.14 457.17 C 510.95 460.90 502.00 454.19 502.97 448.03 C 516.41 453.28 525.70 438.19 527.15 427.17 Z" />
<path fill="#202225" opacity="1.00" d=" M 460.37 474.46 C 466.10 479.17 452.83 481.72 460.37 474.46 Z" />
</svg>
