<?xml version="1.0" encoding="UTF-8" ?>
<!DOCTYPE svg PUBLIC "-//W3C//DTD SVG 1.1//EN" "http://www.w3.org/Graphics/SVG/1.1/DTD/svg11.dtd">
<svg width="1225pt" height="647pt" viewBox="0 0 1225 647" version="1.1" xmlns="http://www.w3.org/2000/svg">

<path fill="#202225" opacity="1.00" d=" M 907.19 304.42 C 908.65 304.30 910.62 305.10 910.00 306.93 C 904.55 315.48 893.95 321.39 890.40 330.64 C 906.37 326.09 916.06 308.88 932.00 304.96 C 928.24 317.43 911.99 323.14 904.88 334.09 C 920.40 330.91 931.71 313.81 947.06 313.00 C 938.97 323.91 925.25 329.43 914.85 338.09 C 926.26 336.77 938.57 326.29 948.08 326.01 C 934.88 339.39 913.38 343.34 896.01 351.01 C 879.24 358.50 860.60 352.36 844.01 359.21 C 830.69 359.71 817.49 356.61 804.30 355.47 C 777.71 356.64 751.45 355.58 725.00 351.93 C 721.27 352.70 709.37 348.12 712.44 356.52 C 722.21 365.58 718.98 379.38 718.18 391.01 C 724.94 403.69 724.12 418.30 727.97 432.19 C 723.00 429.41 720.87 422.44 715.12 419.89 C 718.17 430.19 711.49 423.00 707.45 422.36 C 698.51 417.28 689.10 410.04 678.21 413.03 C 650.45 417.68 629.86 447.51 600.11 441.30 C 578.90 445.70 555.36 444.80 537.18 431.87 C 532.84 430.14 528.26 423.38 523.64 426.53 C 524.08 417.00 503.89 414.49 498.75 404.29 C 492.24 397.43 486.67 408.49 485.45 414.02 C 482.67 418.97 482.91 427.36 479.05 434.10 C 474.43 441.29 478.70 449.41 477.39 457.25 C 478.02 462.69 479.04 474.79 472.14 468.03 C 471.73 470.32 468.85 483.37 464.88 475.04 C 462.57 468.75 472.83 460.37 467.15 454.94 C 462.74 459.92 463.90 468.23 458.15 472.08 C 452.74 465.43 465.31 463.88 462.24 457.89 C 454.76 456.21 453.97 446.46 463.48 447.43 C 477.58 428.44 486.64 405.18 486.39 381.36 C 488.39 376.60 494.44 380.65 498.15 378.90 C 496.66 376.04 493.76 373.63 498.18 371.87 C 491.26 365.10 481.71 373.03 473.90 372.41 C 452.34 371.58 431.08 387.57 410.72 378.31 C 385.97 373.41 359.78 379.65 334.96 373.07 C 303.92 371.23 272.79 368.41 243.00 358.98 C 234.47 355.28 251.11 357.41 255.24 357.82 C 245.82 353.43 235.29 352.18 225.86 347.85 C 231.86 344.40 242.91 347.07 249.75 348.22 C 251.19 349.72 256.09 349.27 252.94 347.19 C 249.49 338.10 233.13 335.06 226.51 329.19 C 230.39 324.39 236.29 329.91 240.89 331.15 C 252.58 336.07 264.42 340.58 276.49 344.48 C 277.54 343.56 278.26 342.32 278.95 341.13 C 267.46 332.18 250.51 327.42 243.86 313.94 C 268.41 324.37 290.29 341.74 316.10 349.12 C 310.44 338.30 296.23 334.53 292.26 322.68 C 313.81 336.59 334.30 353.67 359.21 361.78 C 379.60 361.99 399.75 357.72 419.60 353.46 C 425.50 351.32 434.56 350.17 432.28 341.18 C 442.69 327.10 464.93 336.99 479.99 334.00 C 493.64 320.51 516.76 334.68 533.83 329.72 C 574.95 322.26 617.17 303.86 658.98 319.06 C 669.81 319.90 679.39 324.54 688.27 330.52 C 710.00 328.90 731.53 331.21 752.90 335.10 C 768.45 339.79 778.94 321.53 794.85 325.12 C 802.61 328.32 811.57 318.64 818.13 325.96 C 823.84 322.67 840.69 315.39 834.40 327.90 C 840.42 327.05 846.84 314.71 855.88 313.80 C 865.66 314.78 850.68 326.81 852.97 330.09 C 866.01 327.11 870.47 309.27 883.82 307.07 C 885.74 316.02 872.97 321.53 871.01 330.21 C 885.99 326.57 893.35 309.94 907.19 304.42 M 715.92 410.01 C 716.53 416.81 722.55 408.79 715.92 410.01 Z" />
<path fill="#202225" opacity="1.00" d=" M 236.42 356.22 C 241.00 355.14 236.55 360.68 236.42 356.22 Z" />

<path fill="#202225" opacity="1.00" d=" M 521.54 428.60 C 523.50 426.58 521.90 432.06 524.33 432.64 C 526.75 436.45 518.85 432.61 519.15 435.81 C 528.95 442.08 518.55 456.97 509.39 459.46 C 507.57 461.93 498.25 469.09 499.51 461.96 C 500.16 453.94 492.93 460.05 488.93 457.59 C 491.86 457.22 493.08 455.09 493.51 452.40 C 498.83 450.16 506.85 450.67 509.13 444.11 C 505.83 443.20 501.35 445.25 498.51 442.59 C 501.56 436.57 489.18 436.99 495.28 433.18 C 502.10 433.16 508.59 443.38 514.84 435.87 C 517.72 434.09 519.20 430.93 521.54 428.60 M 505.35 452.36 C 493.91 456.29 513.62 453.26 505.35 452.36 Z" />

</svg>
