<?xml version="1.0" encoding="UTF-8" ?>
<!DOCTYPE svg PUBLIC "-//W3C//DTD SVG 1.1//EN" "http://www.w3.org/Graphics/SVG/1.1/DTD/svg11.dtd">
<svg width="1225pt" height="647pt" viewBox="0 0 1225 647" version="1.1" xmlns="http://www.w3.org/2000/svg">

<path fill="#1f2023" opacity="1.00" d=" M 907.36 309.41 C 909.63 308.32 910.77 309.29 909.65 311.63 C 903.75 320.00 895.28 326.16 888.86 334.08 C 905.18 332.00 914.73 314.73 930.00 310.01 C 937.23 309.10 928.51 315.74 926.41 317.44 C 920.30 325.25 909.22 329.22 904.75 337.93 C 920.37 333.48 931.78 317.71 948.19 317.07 C 937.60 327.04 924.39 333.42 912.87 342.15 C 925.89 339.86 936.88 330.05 950.29 329.02 C 929.75 343.24 905.06 351.61 880.89 357.80 C 870.11 361.10 858.18 354.88 848.35 361.38 C 828.01 363.64 808.29 356.58 787.95 358.19 C 763.08 361.73 738.42 354.33 713.46 354.49 C 711.27 361.65 720.83 365.32 720.44 372.34 C 719.68 384.89 718.80 396.53 725.42 407.63 C 722.21 416.50 731.11 424.61 729.02 434.09 C 726.77 437.49 714.49 415.06 716.46 427.60 C 704.57 427.47 697.85 415.27 685.87 415.29 C 670.79 418.47 655.26 422.92 643.21 433.19 C 630.84 439.61 616.46 447.59 602.60 444.35 C 583.65 446.61 563.36 448.94 545.97 439.05 C 539.19 435.35 532.89 430.81 525.98 427.35 C 522.64 430.44 522.81 427.55 523.69 423.34 C 512.80 418.85 504.42 410.85 495.73 403.26 C 489.90 403.01 489.60 410.61 486.37 414.06 C 483.96 407.52 485.70 415.15 486.84 417.69 C 483.96 418.93 481.92 418.99 485.72 421.33 C 478.99 436.40 478.43 452.63 480.54 468.71 C 480.13 470.80 478.93 476.20 476.60 472.41 C 470.53 467.49 476.31 483.18 468.21 480.97 C 463.76 473.64 474.40 466.32 469.88 459.20 C 463.30 462.05 466.27 472.46 460.11 475.93 C 455.93 469.01 465.84 468.02 465.62 461.33 C 458.32 460.96 454.38 449.76 465.62 451.61 C 478.67 432.25 486.08 407.95 486.44 385.61 C 483.21 374.91 504.59 384.30 496.05 376.90 C 488.81 373.71 482.37 382.58 474.97 380.50 C 458.30 380.12 445.00 388.78 428.95 391.05 C 395.03 384.16 356.62 388.31 321.01 381.00 C 292.42 378.86 263.71 376.52 235.91 369.08 C 238.27 363.30 220.42 364.79 217.35 361.08 C 225.26 358.85 233.99 361.61 242.22 361.98 C 238.36 360.34 232.83 359.59 230.72 355.45 C 240.76 354.82 250.41 357.86 260.13 359.78 C 256.12 356.46 263.07 349.59 256.07 350.74 C 253.61 347.16 261.02 345.18 257.53 348.53 C 269.07 349.13 285.57 360.46 299.42 360.41 C 301.69 359.41 313.69 356.56 308.06 360.98 C 319.83 360.27 330.41 368.38 341.96 369.77 C 370.74 369.44 399.30 363.64 426.92 355.98 C 435.20 355.07 430.56 344.64 435.65 340.65 C 450.34 330.55 474.80 343.87 486.96 330.88 C 512.36 330.30 538.63 335.11 563.16 325.23 C 588.80 320.56 614.68 313.07 640.92 318.18 C 657.29 322.81 675.11 323.06 689.29 333.49 C 714.15 331.13 738.57 337.18 763.27 337.56 C 773.61 330.84 786.18 324.05 799.04 328.56 C 805.65 327.44 813.19 322.07 818.08 329.07 C 824.70 325.61 840.34 318.85 834.96 332.08 C 841.67 326.58 848.45 318.28 857.78 318.07 C 861.68 323.67 851.81 328.16 851.88 334.08 C 865.52 331.36 870.71 312.65 885.14 311.97 C 882.47 320.54 873.90 325.67 870.74 333.95 C 885.73 330.22 893.40 314.67 907.36 309.41 M 718.22 413.25 C 716.16 418.91 723.62 413.05 718.22 413.25 Z" />

<path fill="#1f2023" opacity="1.00" d=" M 521.53 430.55 C 523.23 429.12 522.68 435.47 523.60 437.38 C 519.36 435.74 515.28 440.34 521.72 440.41 C 524.78 447.60 518.74 455.33 512.55 458.42 C 505.32 457.69 505.04 468.13 497.41 466.25 C 500.34 458.63 493.28 459.06 487.81 459.07 C 492.37 457.80 490.70 451.27 496.38 452.70 C 500.53 452.47 507.65 450.62 507.56 445.53 C 502.03 445.78 495.82 445.25 495.61 438.35 C 488.86 430.67 503.20 436.16 505.34 439.62 C 511.66 443.04 517.80 435.09 521.53 430.55 M 502.25 454.12 C 498.40 459.49 511.69 452.37 502.25 454.12 Z" />

</svg>
