<?xml version="1.0" encoding="UTF-8" ?>
<!DOCTYPE svg PUBLIC "-//W3C//DTD SVG 1.1//EN" "http://www.w3.org/Graphics/SVG/1.1/DTD/svg11.dtd">
<svg width="1225pt" height="647pt" viewBox="0 0 1225 647" version="1.1" xmlns="http://www.w3.org/2000/svg">

<path fill="#1c1d20" opacity="1.00" d=" M 604.47 339.58 C 624.66 337.36 644.95 341.97 663.73 349.20 C 671.60 350.08 679.57 351.38 686.47 355.55 C 714.50 354.44 742.73 356.32 770.33 356.29 C 778.51 347.67 793.79 344.91 803.89 350.79 C 809.00 349.96 814.73 345.98 819.69 349.23 C 823.04 358.94 834.64 342.97 840.31 350.70 C 841.88 352.81 835.93 360.87 841.03 357.99 C 847.23 351.80 855.05 343.86 864.35 345.65 C 866.39 352.07 856.85 356.56 856.89 363.11 C 870.65 360.61 877.32 341.31 892.02 343.03 C 888.06 351.12 880.18 356.32 875.90 364.12 C 891.29 362.60 900.48 347.08 914.92 343.03 C 916.23 343.23 917.31 344.12 918.31 344.96 C 911.57 353.71 900.73 358.71 894.91 368.08 C 909.55 364.08 921.13 353.55 935.00 347.96 C 936.72 347.19 940.68 347.01 939.95 349.85 C 931.52 358.58 918.86 362.73 910.99 372.12 C 926.35 369.60 938.86 358.76 954.25 356.21 C 948.21 366.53 933.95 368.71 924.70 375.86 C 931.90 375.58 940.23 372.69 949.73 370.90 C 950.84 375.01 946.88 373.82 945.04 376.13 C 923.72 383.73 901.88 389.54 879.88 394.85 C 862.88 391.86 846.07 397.43 829.49 394.28 C 813.88 391.38 798.24 391.69 782.35 390.52 C 760.88 392.68 739.62 383.43 717.91 383.01 C 723.47 392.83 726.73 403.91 724.57 415.65 C 720.02 425.19 732.84 432.21 728.66 441.35 C 729.59 448.10 735.04 457.87 731.19 463.97 C 729.05 458.45 724.62 454.56 720.13 450.90 C 722.83 459.63 718.68 455.18 716.15 454.11 C 705.25 452.33 696.00 436.75 684.16 443.15 C 666.70 447.75 649.55 452.21 633.39 460.49 C 623.53 464.05 611.69 470.28 601.88 464.07 C 573.68 470.78 544.30 459.12 524.18 439.30 C 521.42 443.36 518.31 447.62 516.10 451.77 C 527.25 463.74 503.96 468.82 497.01 474.99 C 486.09 473.91 495.59 488.76 488.39 491.49 C 481.54 484.42 486.64 500.50 479.27 499.93 C 471.87 493.77 484.28 486.99 482.06 479.30 C 476.68 480.98 467.86 476.30 469.64 470.79 C 483.47 473.19 484.38 456.68 485.15 447.14 C 484.75 439.42 491.13 429.92 486.67 423.09 C 464.55 423.78 446.21 439.35 424.34 437.71 C 408.51 436.28 391.84 438.62 376.86 432.24 C 362.66 434.39 348.04 429.60 335.61 423.41 C 299.44 413.00 264.38 399.13 228.23 388.74 C 226.66 384.28 234.76 389.24 237.16 389.00 C 234.44 386.88 231.53 385.04 228.85 382.89 C 240.02 385.23 249.72 392.92 261.17 394.05 C 259.81 390.82 255.94 389.67 253.91 386.87 C 269.32 392.41 282.95 402.56 300.24 401.91 C 297.69 399.98 294.57 399.17 291.61 398.11 C 314.77 398.52 337.30 405.25 360.27 407.88 C 343.25 403.05 325.06 401.36 307.81 396.64 C 315.23 393.28 323.97 397.38 331.84 397.18 C 330.61 394.98 326.18 390.81 334.94 393.99 C 352.12 396.46 368.33 390.72 385.04 388.17 C 415.03 384.74 442.68 369.71 473.26 369.76 C 463.15 359.28 441.13 373.79 437.14 357.85 C 440.01 353.58 437.49 346.28 443.94 344.99 C 458.42 341.88 473.63 345.54 488.29 344.49 C 495.21 335.02 508.67 342.86 517.98 343.00 C 546.88 347.13 575.52 339.68 604.47 339.58 M 295.09 403.36 C 291.95 406.66 302.07 407.15 305.05 408.09 C 305.20 403.51 298.35 404.65 295.09 403.36 M 305.58 403.22 C 314.49 407.23 325.40 406.04 334.24 409.96 C 328.59 410.79 318.19 405.41 316.21 409.67 C 323.88 410.43 329.76 415.86 336.80 418.32 C 343.94 421.27 347.70 411.96 355.39 415.79 C 349.92 412.69 342.35 414.58 337.76 410.19 C 344.59 411.28 351.47 412.21 358.42 411.81 C 341.06 408.15 323.36 403.68 305.58 403.22 M 360.45 412.15 C 361.39 415.85 364.09 409.94 360.45 412.15 M 497.31 418.20 C 490.28 424.78 488.23 442.11 498.25 446.80 C 505.93 458.48 520.24 446.42 523.11 437.21 C 513.93 431.65 505.48 423.54 497.31 418.20 M 491.20 448.07 C 490.75 451.42 490.42 454.78 490.16 458.17 C 489.36 466.48 504.24 463.40 505.08 457.14 C 498.98 455.04 491.87 454.28 491.20 448.07 M 492.10 471.26 C 490.56 474.29 495.37 471.44 492.10 471.26 Z" />
<path fill="#1c1d20" opacity="1.00" d=" M 250.57 385.20 C 255.77 382.99 252.01 389.64 250.57 385.20 Z" />
<path fill="#1c1d20" opacity="1.00" d=" M 226.10 386.26 C 229.38 386.44 224.56 389.29 226.10 386.26 Z" />






<path fill="#1c1d20" opacity="1.00" d=" M 476.55 483.56 C 478.18 481.88 473.43 496.33 469.93 493.08 C 467.69 488.42 473.97 486.33 476.55 483.56 Z" />
</svg>
