<?xml version="1.0" encoding="UTF-8" ?>
<!DOCTYPE svg PUBLIC "-//W3C//DTD SVG 1.1//EN" "http://www.w3.org/Graphics/SVG/1.1/DTD/svg11.dtd">
<svg width="1225pt" height="647pt" viewBox="0 0 1225 647" version="1.1" xmlns="http://www.w3.org/2000/svg">

<path fill="#1b1d1f" opacity="1.00" d=" M 454.38 363.27 C 470.21 361.45 487.42 371.05 500.99 363.02 C 541.48 375.89 583.96 368.32 625.49 372.45 C 640.04 376.01 656.59 375.71 667.65 387.17 C 667.39 377.94 672.45 389.13 677.05 386.96 C 702.02 384.69 726.71 389.84 750.97 395.08 C 769.17 399.22 788.43 396.41 806.34 400.36 C 816.05 395.94 825.09 408.17 833.06 397.12 C 841.88 392.37 841.30 402.19 838.96 408.09 C 848.56 406.73 852.41 392.89 862.75 393.20 C 866.99 399.17 856.81 404.75 856.74 410.93 C 866.45 408.00 873.07 399.60 881.45 394.38 C 884.20 391.97 888.26 394.83 886.75 397.71 C 882.77 403.98 876.37 408.21 871.97 414.17 C 886.38 414.95 895.79 394.76 910.04 397.08 C 903.99 406.95 892.99 412.26 884.87 420.12 C 899.04 418.65 911.34 404.29 924.63 405.24 C 917.22 414.35 903.96 419.29 893.71 425.91 C 905.55 424.90 916.26 418.22 928.12 416.89 C 916.92 429.08 897.58 429.38 882.50 434.32 C 865.88 440.97 849.48 428.97 833.00 434.00 C 819.63 431.94 807.67 423.71 794.07 421.74 C 775.57 414.09 755.32 417.10 736.02 412.98 C 723.33 411.19 709.30 407.67 696.90 411.15 C 700.95 421.72 714.40 425.00 717.93 436.01 C 719.38 441.75 724.90 444.81 726.52 450.51 C 729.42 463.94 723.92 479.05 733.10 490.91 C 731.23 498.73 736.69 505.96 737.23 513.96 C 739.27 525.49 730.21 509.81 725.78 507.58 C 717.31 514.43 707.75 499.49 698.49 498.34 C 686.38 489.92 668.60 501.72 657.76 489.26 C 653.17 483.87 646.20 488.07 641.06 490.14 C 631.13 494.57 620.54 496.97 610.08 499.73 C 590.15 494.97 567.68 498.13 549.27 486.75 C 540.11 478.88 530.09 471.88 520.08 465.20 C 516.13 467.73 521.44 469.34 521.66 472.37 C 523.58 480.54 515.00 484.47 509.77 488.67 C 504.61 490.92 501.46 496.95 495.36 497.08 C 497.08 490.79 492.27 486.47 485.97 490.07 C 490.12 481.95 499.20 484.13 505.53 478.53 C 510.18 473.16 496.92 476.26 494.43 474.68 C 495.14 464.27 486.25 471.72 481.99 474.00 C 474.22 477.46 481.65 494.27 470.71 491.70 C 470.22 494.81 468.82 500.63 464.43 499.93 C 463.97 493.04 455.33 496.38 452.46 494.48 C 437.58 507.10 419.47 513.99 401.87 521.89 C 381.04 532.44 358.85 540.25 336.31 546.26 C 322.20 547.81 307.94 547.52 294.04 551.08 C 286.83 549.43 300.71 552.01 300.55 548.07 C 300.03 543.59 308.24 547.26 308.13 542.96 C 298.11 544.62 287.97 545.17 277.99 546.97 C 276.24 548.14 271.15 547.22 272.11 544.24 C 279.37 541.60 288.73 542.08 295.04 537.99 C 285.28 535.14 274.98 541.17 265.12 539.93 C 261.60 530.99 278.31 536.47 279.66 532.19 C 272.45 528.91 253.98 537.08 260.01 520.96 C 258.75 512.76 269.15 513.49 274.16 510.23 C 285.89 503.13 295.77 493.12 309.16 489.12 C 313.05 482.22 320.93 479.76 327.84 476.88 C 331.31 466.54 344.22 459.45 354.93 456.94 C 376.30 439.97 400.72 430.43 423.85 416.75 C 435.68 406.28 452.69 404.96 467.69 403.72 C 471.80 400.10 457.06 400.43 460.94 395.00 C 469.04 388.88 480.47 389.41 490.14 390.92 C 484.05 379.90 468.35 385.15 458.00 385.04 C 443.74 388.97 444.73 366.87 454.38 363.27 M 507.44 455.41 C 503.35 458.37 499.29 461.45 495.79 465.10 C 502.54 473.39 514.01 470.74 519.29 462.02 C 516.39 458.85 512.05 453.98 507.44 455.41 M 581.23 482.28 C 579.08 487.45 586.21 481.96 581.23 482.28 M 501.33 484.35 C 493.39 489.61 510.29 484.65 501.33 484.35 M 465.38 486.47 C 462.22 486.73 460.06 492.71 464.66 490.65 C 467.64 491.34 468.18 484.29 465.38 486.47 M 720.50 501.22 C 720.59 506.36 725.54 500.91 720.50 501.22 Z" />





<path fill="#1b1d1f" opacity="1.00" d=" M 247.42 525.42 C 261.89 525.28 245.60 530.42 239.80 529.03 C 242.28 527.73 244.73 526.27 247.42 525.42 Z" />
<path fill="#1b1d1f" opacity="1.00" d=" M 261.46 535.15 C 265.09 532.94 262.39 538.86 261.46 535.15 Z" />
<path fill="#1b1d1f" opacity="1.00" d=" M 243.75 536.04 C 247.34 537.07 253.57 533.96 256.25 536.96 C 252.64 535.88 246.42 539.04 243.75 536.04 Z" />
</svg>
