<?xml version="1.0" encoding="UTF-8" ?>
<!DOCTYPE svg PUBLIC "-//W3C//DTD SVG 1.1//EN" "http://www.w3.org/Graphics/SVG/1.1/DTD/svg11.dtd">
<svg width="1225pt" height="647pt" viewBox="0 0 1225 647" version="1.1" xmlns="http://www.w3.org/2000/svg">

<path fill="#1d1e21" opacity="1.00" d=" M 736.35 357.10 C 744.61 359.64 755.30 356.08 761.29 363.68 C 763.19 366.14 766.16 365.50 768.83 365.21 C 776.97 378.65 783.36 397.70 799.11 405.85 C 807.05 410.88 811.13 419.86 818.14 425.91 C 811.43 423.87 804.00 431.39 798.83 423.19 C 790.32 417.10 778.13 418.56 768.84 415.24 C 768.78 407.57 760.95 415.66 757.06 411.84 C 735.67 400.88 710.57 400.69 689.40 389.49 C 683.13 387.77 672.12 397.06 682.08 400.94 C 693.30 408.97 701.59 420.27 713.11 427.86 C 717.31 440.34 731.29 448.55 726.62 463.66 C 724.63 473.14 728.54 481.45 733.53 489.31 C 730.11 498.29 740.87 506.44 738.00 516.23 C 732.49 514.48 724.42 497.31 724.01 508.79 C 710.74 505.18 699.06 493.32 685.49 494.47 C 675.52 496.40 662.60 497.03 655.56 488.29 C 640.68 490.29 626.34 499.27 610.90 501.91 C 591.40 497.83 570.39 501.05 551.71 492.23 C 542.20 484.46 530.81 479.47 521.64 471.24 C 518.52 468.44 516.28 474.22 520.55 474.62 C 524.99 483.97 514.38 490.98 506.88 493.91 C 502.33 495.75 500.05 502.02 494.25 501.09 C 496.43 495.62 492.04 490.25 486.06 494.12 C 489.32 484.79 500.04 489.09 505.80 482.73 C 507.49 475.37 491.29 484.00 493.39 474.47 C 492.82 472.00 490.00 471.46 488.06 470.48 C 495.70 463.47 502.56 480.56 510.23 474.22 C 513.47 472.23 521.40 468.08 513.94 465.06 C 503.00 461.58 500.28 439.61 487.16 448.13 C 482.04 450.87 486.04 443.04 483.96 441.00 C 475.58 444.55 473.65 454.98 465.27 458.28 C 463.20 463.06 458.40 469.05 461.22 473.96 C 470.19 473.68 473.21 463.81 478.34 458.32 C 482.37 454.44 483.17 462.72 478.22 460.15 C 480.69 462.75 480.35 466.80 475.99 465.30 C 479.78 468.53 474.83 471.77 474.59 475.44 C 473.40 481.43 473.71 490.75 466.01 492.06 C 463.44 493.79 462.36 500.42 458.89 499.29 C 457.80 494.63 451.65 495.92 449.67 491.96 C 453.84 488.84 461.11 487.61 460.75 481.08 C 446.04 473.29 441.78 496.23 428.12 498.18 C 388.48 530.92 345.71 559.64 300.94 584.85 C 292.39 585.16 286.65 592.39 278.62 593.79 C 284.81 587.71 292.85 583.86 299.13 577.85 C 290.29 580.21 283.64 587.67 274.68 589.90 C 276.59 584.33 295.71 576.10 282.08 579.07 C 290.15 565.36 303.40 556.11 316.53 547.58 C 321.19 536.61 335.16 534.37 339.79 523.78 C 357.44 509.96 368.60 490.06 386.61 476.60 C 383.32 475.00 356.55 487.80 369.36 475.38 C 371.19 471.35 386.32 466.75 378.99 463.70 C 378.86 457.73 400.23 450.87 384.92 451.93 C 380.59 447.68 405.64 439.82 392.92 438.73 C 395.41 433.60 402.78 432.85 405.66 428.86 C 402.47 419.58 420.93 422.55 417.17 413.23 C 421.37 410.50 430.95 410.46 428.17 403.22 C 438.80 397.11 451.41 397.83 463.14 395.79 C 459.55 393.97 454.30 390.59 460.09 388.06 C 446.77 392.11 444.86 376.78 450.66 368.69 C 465.23 362.04 483.68 375.62 497.39 366.38 C 517.57 368.66 537.16 377.94 557.99 374.14 C 576.60 377.72 593.31 364.86 612.00 368.06 C 629.09 367.83 647.05 375.42 663.45 368.51 C 682.81 363.49 703.58 368.16 722.44 361.43 C 726.66 358.47 736.61 364.36 736.35 357.10 M 475.79 386.99 C 479.81 389.51 486.45 387.93 491.38 388.78 C 487.38 384.81 480.68 387.89 475.79 386.99 M 500.21 420.33 C 491.18 424.48 506.71 425.39 500.21 420.33 M 499.32 489.34 C 499.93 494.67 505.64 486.40 499.32 489.34 M 721.10 499.26 C 719.56 502.29 724.37 499.44 721.10 499.26 M 302.26 568.10 C 302.44 571.37 305.29 566.56 302.26 568.10 M 298.45 570.15 C 299.39 573.85 302.09 567.94 298.45 570.15 M 294.39 572.16 C 287.76 577.31 300.80 572.17 294.39 572.16 M 288.26 576.10 C 288.44 579.37 291.29 574.56 288.26 576.10 Z" />








</svg>
