<?xml version="1.0" encoding="UTF-8" ?>
<!DOCTYPE svg PUBLIC "-//W3C//DTD SVG 1.1//EN" "http://www.w3.org/Graphics/SVG/1.1/DTD/svg11.dtd">
<svg width="1225pt" height="647pt" viewBox="0 0 1225 647" version="1.1" xmlns="http://www.w3.org/2000/svg">

<path fill="#1f2024" opacity="1.00" d=" M 730.48 339.48 C 740.46 336.54 746.91 345.78 753.62 351.34 C 759.83 357.88 757.38 368.29 765.28 373.71 C 770.04 380.24 778.80 384.20 781.51 392.03 C 777.94 394.46 784.73 398.03 781.85 399.55 C 768.20 400.59 757.69 390.17 744.64 388.40 C 725.91 384.87 709.86 371.09 690.30 372.30 C 683.43 377.65 672.48 383.36 671.27 392.63 C 684.78 404.13 698.70 415.27 712.51 426.45 C 717.90 439.34 730.55 449.44 726.21 465.05 C 721.20 475.90 736.97 482.84 732.45 492.67 C 735.39 499.67 739.55 507.34 737.90 515.06 C 734.82 513.37 722.59 494.85 724.79 507.08 C 712.34 503.94 702.52 494.98 689.79 492.21 C 681.95 495.37 672.58 494.06 663.63 494.19 C 653.57 482.07 640.32 495.42 628.95 497.89 C 611.72 505.53 593.20 500.80 574.99 500.05 C 555.22 499.37 540.43 486.19 524.41 476.57 C 522.43 474.67 517.09 472.05 516.99 476.68 C 523.45 475.84 521.17 483.85 519.64 487.66 C 510.76 491.97 503.90 500.60 494.18 502.95 C 494.24 497.13 492.37 492.27 484.78 495.91 C 489.12 487.83 497.91 490.38 504.58 485.57 C 509.16 478.34 492.44 484.88 493.31 477.77 C 493.62 474.37 489.92 473.32 487.62 471.87 C 494.41 466.48 500.21 477.37 506.90 477.94 C 510.40 476.65 513.48 474.38 516.35 472.05 C 509.23 465.71 501.74 459.65 496.23 451.73 C 491.59 448.66 486.68 456.27 482.18 453.43 C 486.14 444.96 483.33 430.04 495.15 428.28 C 498.10 428.03 501.20 431.29 503.89 429.03 C 500.07 422.42 495.20 416.47 492.67 409.19 C 483.17 411.40 481.14 425.78 471.16 428.19 C 466.74 442.34 453.20 451.12 443.47 460.50 C 408.57 482.08 374.24 507.80 336.18 525.23 C 326.61 531.43 315.70 534.87 304.17 534.92 C 301.59 523.19 315.03 516.32 322.58 509.60 C 339.58 498.30 354.47 484.31 369.21 470.22 C 372.60 465.58 379.41 462.92 378.81 456.14 C 368.68 450.57 383.98 442.49 385.94 435.96 C 393.34 416.17 413.57 404.95 432.38 396.43 C 435.57 390.42 443.92 391.72 449.68 389.81 C 446.36 382.77 446.14 367.77 457.01 368.97 C 470.03 367.04 485.12 377.08 496.35 368.26 C 504.90 368.72 513.36 370.63 521.70 372.54 C 525.21 367.24 530.48 372.34 533.38 375.72 C 544.03 374.13 560.12 381.77 566.62 369.67 C 574.17 357.48 589.74 355.23 602.90 356.66 C 629.37 353.20 656.09 354.19 682.59 351.57 C 699.56 351.56 713.78 339.68 730.48 339.48 M 499.26 492.10 C 499.44 495.37 502.29 490.56 499.26 492.10 Z" />
<path fill="#1f2024" opacity="1.00" d=" M 480.40 455.45 C 482.87 456.07 475.20 461.66 480.98 463.05 C 472.21 472.31 474.12 488.30 461.90 493.81 C 460.25 502.81 448.80 496.50 447.27 491.36 C 452.39 490.10 463.87 483.95 454.99 479.99 C 449.69 479.94 448.37 467.29 454.73 471.31 C 466.25 482.05 473.65 462.13 480.40 455.45 M 475.10 468.26 C 473.56 471.29 478.37 468.44 475.10 468.26 Z" />


</svg>
