<?xml version="1.0" encoding="UTF-8" ?>
<!DOCTYPE svg PUBLIC "-//W3C//DTD SVG 1.1//EN" "http://www.w3.org/Graphics/SVG/1.1/DTD/svg11.dtd">
<svg width="1225pt" height="647pt" viewBox="0 0 1225 647" version="1.1" xmlns="http://www.w3.org/2000/svg">

<path fill="#1e1f22" opacity="1.00" d=" M 735.79 294.21 C 747.48 299.70 760.37 305.06 774.00 302.98 C 779.16 302.69 792.59 302.45 789.01 310.93 C 775.55 322.18 756.26 316.92 740.34 320.31 C 731.87 323.26 724.00 327.86 715.33 330.20 C 718.76 318.03 707.54 328.32 703.56 331.52 C 686.84 342.67 676.77 361.45 668.29 379.19 C 663.44 389.30 668.50 402.55 679.64 405.40 C 689.64 410.98 697.00 420.58 707.63 425.43 C 714.08 438.25 727.42 448.80 723.24 465.03 C 719.21 475.53 733.24 481.63 730.22 491.87 C 733.04 499.00 736.93 506.11 735.98 514.11 C 733.32 511.48 719.59 494.93 722.95 507.00 C 710.58 503.99 700.30 496.34 687.85 493.31 C 677.80 497.07 664.63 498.24 655.02 493.04 C 639.97 496.48 626.34 504.81 610.93 507.72 C 590.38 505.67 567.36 508.92 547.31 499.70 C 537.04 493.60 526.51 488.10 516.34 481.87 C 517.20 495.63 500.15 495.80 492.60 503.59 C 485.17 508.21 491.43 494.55 483.86 497.57 C 477.30 498.47 483.03 493.57 485.39 491.50 C 490.22 491.38 496.08 491.40 499.81 487.81 C 504.14 483.66 492.79 483.39 490.95 483.00 C 486.80 482.70 490.11 475.43 485.54 474.56 C 479.83 473.12 487.48 470.34 490.00 473.02 C 494.49 475.51 500.98 483.65 506.43 478.32 C 502.75 466.87 483.50 457.81 474.49 469.37 C 478.16 476.23 462.45 480.04 463.97 489.02 C 457.98 493.60 449.96 504.12 442.82 496.32 C 432.40 492.16 449.65 492.84 451.51 487.45 C 454.82 484.60 450.01 483.18 447.64 482.37 C 441.78 481.57 446.16 473.48 440.31 471.44 C 445.20 466.90 449.85 476.77 454.14 478.85 C 468.88 476.56 479.45 463.18 484.58 450.09 C 483.39 443.22 491.75 442.40 496.64 443.53 C 503.26 441.66 492.46 438.64 491.63 435.29 C 494.47 435.17 498.85 438.60 500.62 435.61 C 492.50 423.93 485.89 410.57 486.01 396.03 C 472.59 392.82 456.25 398.90 441.99 395.07 C 438.62 391.73 441.10 387.09 443.78 384.07 C 439.94 380.15 445.37 375.12 450.05 376.71 C 440.43 364.03 423.17 359.45 408.81 353.30 C 400.71 349.36 389.35 351.16 383.59 343.24 C 376.93 341.10 371.28 343.17 366.84 347.83 C 358.49 346.52 349.20 349.61 341.72 344.37 C 393.11 331.84 444.79 317.52 497.66 313.42 C 502.75 312.60 506.60 308.22 513.57 310.69 C 515.59 301.32 521.79 313.02 527.35 308.48 C 539.13 308.59 539.68 322.78 548.78 327.22 C 552.31 335.42 557.02 348.89 567.61 348.69 C 577.43 340.92 591.34 342.11 601.09 334.11 C 623.94 326.33 647.67 321.35 671.62 317.75 C 695.45 317.23 711.90 295.01 735.79 294.21 M 719.13 497.42 C 717.45 502.52 724.10 497.51 719.13 497.42 Z" />
<path fill="#1e1f22" opacity="1.00" d=" M 440.45 497.15 C 444.09 494.94 441.39 500.85 440.45 497.15 Z" />

</svg>
