<?xml version="1.0" encoding="UTF-8" ?>
<!DOCTYPE svg PUBLIC "-//W3C//DTD SVG 1.1//EN" "http://www.w3.org/Graphics/SVG/1.1/DTD/svg11.dtd">
<svg width="1225pt" height="647pt" viewBox="0 0 1225 647" version="1.1" xmlns="http://www.w3.org/2000/svg">

<path fill="#1d1f22" opacity="1.00" d=" M 854.45 248.51 C 856.98 248.20 859.53 248.01 862.10 247.94 C 846.18 265.47 822.64 271.18 801.96 280.93 C 787.88 289.53 770.34 289.48 757.27 300.26 C 736.73 305.48 725.19 324.97 708.57 336.59 C 689.66 350.41 682.62 373.60 672.62 393.67 C 667.73 405.30 682.58 405.77 687.72 412.29 C 693.39 417.52 699.67 421.93 706.52 425.47 C 709.41 430.54 711.17 436.40 715.54 440.50 C 725.04 449.09 719.67 462.90 722.30 473.79 C 725.44 479.11 729.88 484.23 728.36 490.90 C 731.62 497.93 734.71 505.21 734.95 513.16 C 729.29 508.76 724.04 503.32 718.98 498.03 C 712.79 493.13 723.88 505.36 720.46 506.51 C 708.17 502.87 696.90 494.96 684.49 493.43 C 675.66 498.19 662.08 497.77 653.03 493.03 C 636.74 497.35 622.05 507.21 605.07 508.95 C 595.42 505.75 585.00 508.34 574.99 507.17 C 552.30 506.96 533.22 493.83 514.83 482.13 C 509.70 480.81 513.23 489.66 508.32 490.28 C 499.61 492.05 493.09 503.38 484.26 501.09 C 488.27 495.46 480.57 494.01 476.06 494.98 C 480.84 486.07 492.91 491.91 498.06 483.24 C 493.12 480.27 484.09 482.81 484.37 474.51 C 484.32 471.96 478.43 471.37 481.28 469.13 C 489.72 468.43 494.20 481.84 503.02 476.74 C 498.67 465.21 483.21 459.17 473.72 467.81 C 469.83 469.43 476.66 474.06 471.81 472.45 C 466.33 482.44 458.23 496.55 445.24 500.60 C 443.27 496.37 436.38 500.97 437.18 496.22 C 436.13 489.69 446.77 493.36 448.90 487.87 C 452.70 482.98 442.60 483.07 441.45 480.03 C 442.68 476.38 440.03 473.66 438.01 470.96 C 444.25 468.19 447.68 477.84 452.70 479.50 C 468.24 474.81 481.03 460.35 484.27 444.26 C 488.22 442.10 493.09 445.16 497.14 442.84 C 494.71 440.56 491.72 438.90 489.61 436.28 C 493.03 436.55 496.91 439.32 500.06 436.94 C 491.31 425.44 483.43 411.05 482.84 396.09 C 466.99 395.62 450.67 400.36 435.09 396.75 C 435.02 382.18 452.09 377.50 464.01 379.99 C 471.99 379.21 483.77 386.26 489.27 378.11 C 477.09 378.56 465.01 377.35 452.96 375.82 C 452.81 372.67 457.12 373.10 459.15 371.86 C 433.33 352.48 404.37 332.05 370.83 331.24 C 340.10 323.51 309.94 312.42 278.15 309.75 C 271.64 307.61 262.48 306.24 258.01 301.13 C 292.40 294.87 327.49 299.14 361.99 294.88 C 405.39 291.03 449.73 303.14 492.57 298.59 C 496.71 293.08 504.89 306.71 506.55 297.26 C 515.62 302.83 530.47 300.92 534.70 314.28 C 544.61 316.85 545.10 327.50 550.53 334.50 C 552.50 335.76 554.70 342.75 556.46 339.21 C 564.26 344.84 564.75 362.02 576.60 360.53 C 584.92 354.34 595.79 354.22 605.14 350.96 C 608.83 338.13 624.68 339.26 633.16 332.11 C 655.35 317.91 680.99 310.98 705.50 301.67 C 725.62 299.97 738.46 280.06 758.90 279.75 C 778.31 274.79 795.08 262.14 814.87 257.80 C 823.21 252.45 832.68 257.96 840.97 251.93 C 845.29 250.17 849.80 248.98 854.45 248.51 Z" />
</svg>
