<?xml version="1.0" encoding="UTF-8" ?>
<!DOCTYPE svg PUBLIC "-//W3C//DTD SVG 1.1//EN" "http://www.w3.org/Graphics/SVG/1.1/DTD/svg11.dtd">
<svg width="1225pt" height="647pt" viewBox="0 0 1225 647" version="1.1" xmlns="http://www.w3.org/2000/svg">

<path fill="#1e2023" opacity="1.00" d=" M 864.43 255.61 C 867.54 254.88 880.36 253.60 875.98 258.12 C 880.05 257.69 884.09 256.98 888.21 257.01 C 879.88 270.38 865.65 278.07 854.99 288.99 C 844.22 298.54 825.39 293.15 818.42 307.43 C 800.83 312.59 782.10 315.57 764.95 322.89 C 739.77 344.15 704.22 355.83 684.36 384.36 C 679.75 389.68 674.23 394.65 670.93 400.83 C 683.27 405.31 690.03 418.18 702.75 422.16 C 706.05 433.07 717.51 439.36 717.47 451.46 C 717.40 461.30 717.34 470.68 723.51 478.56 C 723.83 489.05 730.22 497.97 731.54 508.43 C 727.85 510.48 713.61 488.48 717.13 502.85 C 705.10 500.50 695.10 493.03 682.83 491.18 C 672.71 494.54 658.17 498.41 649.03 490.21 C 633.65 495.97 619.03 504.11 602.79 507.49 C 586.28 502.79 567.90 509.03 551.62 501.45 C 533.48 497.45 520.47 482.68 504.28 475.00 C 500.63 484.81 488.16 485.43 481.34 492.35 C 473.74 496.88 479.11 482.19 470.11 485.68 C 470.16 475.05 487.11 483.95 489.00 475.06 C 486.75 469.88 475.46 475.05 476.33 466.51 C 472.81 463.51 478.50 458.12 472.11 458.93 C 474.97 451.99 479.95 445.79 480.23 438.30 C 484.28 431.46 493.64 441.02 496.75 433.42 C 485.88 426.27 488.01 407.42 474.11 404.89 C 476.15 401.86 482.62 394.63 473.18 397.27 C 456.24 398.32 438.59 404.64 421.95 401.87 C 424.92 390.09 438.88 387.54 448.10 384.21 C 408.47 369.30 367.05 360.98 325.39 354.61 C 315.43 348.36 302.96 349.48 292.75 343.69 C 280.81 342.43 271.02 335.02 259.07 334.15 C 261.44 332.37 260.12 331.60 257.74 331.17 C 242.84 324.33 226.64 324.42 210.67 323.65 C 204.48 322.77 214.47 321.43 213.85 317.01 C 203.49 314.27 191.28 316.03 181.90 311.11 C 189.38 307.95 200.11 312.35 205.98 310.07 C 199.12 303.12 184.94 308.91 177.80 301.08 C 184.87 299.75 194.32 304.86 200.09 300.35 C 195.81 298.40 187.62 299.43 186.05 295.00 C 253.70 298.40 319.58 318.74 387.55 320.54 C 411.91 328.24 437.92 326.28 462.93 330.55 C 466.63 329.79 470.67 328.05 472.61 332.51 C 481.26 331.95 492.13 331.69 500.91 336.06 C 503.39 343.80 512.33 339.81 517.26 343.74 C 520.51 351.58 529.77 352.02 535.12 356.80 C 545.74 353.58 547.07 372.23 556.64 370.57 C 562.03 368.41 564.35 377.86 569.64 375.67 C 582.44 367.83 595.95 360.65 610.49 356.60 C 614.32 343.57 632.13 348.42 639.65 338.63 C 655.22 334.91 668.13 323.81 684.83 323.72 C 697.84 316.28 712.98 317.50 726.84 312.76 C 738.61 314.38 747.89 305.07 759.61 307.58 C 775.92 293.29 797.88 288.00 814.33 274.38 C 822.86 278.06 826.18 270.13 831.32 265.27 C 836.88 266.51 842.44 267.57 845.78 261.77 C 850.77 255.82 859.42 261.68 864.43 255.61 M 214.26 300.10 C 214.44 303.38 217.29 298.56 214.26 300.10 M 478.28 458.26 C 475.40 463.20 490.48 472.27 494.91 466.83 C 492.37 459.80 485.23 457.19 478.28 458.26 M 717.87 487.96 C 718.14 490.66 720.59 492.36 722.92 493.29 C 721.92 490.87 721.36 487.08 717.87 487.96 M 713.26 492.48 C 713.19 498.21 718.75 493.43 713.26 492.48 Z" />


<path fill="#1e2023" opacity="1.00" d=" M 469.36 461.25 C 476.50 462.25 464.98 464.61 469.31 468.30 C 469.17 473.10 460.77 471.99 462.70 476.15 C 459.99 487.30 450.85 495.03 440.12 498.91 C 434.87 495.65 432.17 498.63 432.13 492.10 C 435.22 490.03 445.86 490.09 445.68 483.35 C 435.60 482.60 439.02 474.20 433.99 468.84 C 442.60 466.65 444.20 482.26 452.88 476.85 C 460.01 473.76 464.50 467.02 469.36 461.25 Z" />


</svg>
