<?xml version="1.0" encoding="UTF-8" ?>
<!DOCTYPE svg PUBLIC "-//W3C//DTD SVG 1.1//EN" "http://www.w3.org/Graphics/SVG/1.1/DTD/svg11.dtd">
<svg width="1225pt" height="647pt" viewBox="0 0 1225 647" version="1.1" xmlns="http://www.w3.org/2000/svg">

<path fill="#1f2124" opacity="1.00" d=" M 885.65 279.69 C 895.75 280.75 872.97 301.76 884.25 300.21 C 892.81 294.90 897.72 285.32 906.09 280.01 C 915.91 282.30 901.10 292.19 902.32 298.37 C 907.69 301.43 917.84 286.19 922.32 294.52 C 916.65 293.18 923.18 299.91 921.74 302.67 C 908.06 316.70 892.38 328.79 874.98 337.92 C 864.48 344.10 850.76 339.44 840.82 346.73 C 826.33 353.10 809.75 349.77 794.72 353.78 C 788.67 356.89 781.49 356.71 774.86 357.24 C 743.61 371.81 702.82 374.44 676.10 399.02 C 683.85 412.06 702.77 412.50 706.15 428.88 C 715.62 436.56 715.11 449.57 714.38 460.69 C 721.35 472.52 722.50 485.15 727.09 497.98 C 731.22 513.26 708.71 479.49 713.99 496.98 C 702.00 494.37 691.84 488.66 679.83 486.17 C 669.42 488.80 655.07 493.46 645.93 485.04 C 626.82 491.25 607.24 507.54 587.06 500.16 C 566.02 502.73 543.50 498.60 526.39 485.63 C 515.65 479.89 508.33 468.72 497.16 464.10 C 492.38 473.34 480.34 476.12 472.15 482.20 C 466.02 486.06 471.04 474.53 465.33 475.38 C 462.18 476.50 455.96 472.77 455.55 477.45 C 455.90 487.33 445.01 487.08 439.99 493.00 C 435.37 494.24 425.88 493.38 428.24 486.29 C 433.75 485.22 440.82 484.81 442.11 478.18 C 433.88 476.74 434.32 469.76 430.27 463.91 C 438.64 460.88 440.70 476.91 448.93 471.95 C 460.11 468.11 461.62 454.44 470.49 448.45 C 476.25 439.09 474.60 419.42 490.97 425.90 C 484.21 420.62 485.72 406.88 476.35 404.66 C 469.99 406.66 464.44 401.15 472.73 400.77 C 469.40 397.55 473.70 397.08 476.39 396.10 C 454.36 395.30 433.10 403.40 411.19 403.89 C 409.52 400.61 416.20 397.57 416.06 393.13 C 355.11 388.00 292.65 386.80 233.86 368.26 C 229.78 367.36 223.43 366.90 225.94 361.15 C 210.16 354.99 190.88 356.68 176.05 349.88 C 186.50 347.17 200.73 352.73 212.81 352.70 C 216.65 350.41 207.75 347.75 207.02 348.88 C 198.57 347.97 191.50 342.37 182.83 342.30 C 177.99 342.38 184.27 339.08 178.26 339.71 C 185.91 335.83 197.39 343.83 207.12 340.91 C 191.62 330.65 171.31 329.28 155.70 319.04 C 178.48 320.02 199.15 333.30 221.78 335.91 C 223.07 335.28 223.26 333.78 221.80 333.24 C 206.28 325.09 187.95 320.93 174.80 308.96 C 204.77 316.81 232.42 334.07 263.38 338.88 C 251.46 330.55 237.42 325.80 225.69 317.11 C 242.60 319.56 256.80 331.62 273.13 336.83 C 324.01 359.12 379.89 362.84 434.47 366.38 C 454.39 370.89 474.42 367.28 494.33 372.60 C 505.52 371.11 517.03 379.61 527.77 374.61 C 543.58 380.99 559.87 374.35 576.05 373.98 C 589.89 369.29 604.74 367.38 617.95 361.02 C 628.63 361.42 633.99 349.31 645.03 350.98 C 672.48 338.43 702.76 335.86 732.44 331.49 C 749.18 333.70 763.54 326.74 777.10 318.13 C 786.54 322.20 792.68 307.19 802.10 313.83 C 807.39 309.44 815.61 300.76 821.65 309.53 C 826.20 304.04 830.00 295.64 837.82 294.33 C 845.37 296.76 834.88 305.29 839.08 309.98 C 850.05 305.48 849.64 285.26 862.68 285.11 C 868.40 290.58 852.06 301.54 861.90 304.03 C 871.88 298.10 874.94 284.65 885.65 279.69 M 264.26 339.10 C 264.44 342.37 267.29 337.56 264.26 339.10 M 476.79 448.84 C 474.07 450.94 467.80 450.45 469.00 455.13 C 476.32 449.27 482.49 464.87 489.38 455.37 C 490.19 450.40 481.72 445.37 476.79 448.84 M 467.11 456.06 C 469.58 463.17 454.37 469.09 461.73 473.93 C 463.94 463.91 478.22 475.14 481.01 464.97 C 477.45 459.96 468.44 462.42 467.11 456.06 M 715.21 481.15 C 712.36 484.48 719.28 488.27 721.85 490.37 C 719.80 487.64 719.25 481.21 715.21 481.15 M 710.22 487.42 C 709.13 492.00 714.68 487.55 710.22 487.42 Z" />
<path fill="#1f2124" opacity="1.00" d=" M 151.89 331.97 C 157.47 333.03 168.08 331.89 169.82 336.80 C 164.20 338.14 155.10 336.91 151.89 331.97 Z" />
<path fill="#1f2124" opacity="1.00" d=" M 174.42 337.22 C 179.00 336.13 174.55 341.69 174.42 337.22 Z" />





</svg>
