<?xml version="1.0" encoding="UTF-8" ?>
<!DOCTYPE svg PUBLIC "-//W3C//DTD SVG 1.1//EN" "http://www.w3.org/Graphics/SVG/1.1/DTD/svg11.dtd">
<svg width="1225pt" height="647pt" viewBox="0 0 1225 647" version="1.1" xmlns="http://www.w3.org/2000/svg">

<path fill="#1d1e21" opacity="1.00" d=" M 900.50 275.42 L 904.91 274.81 C 900.84 288.77 888.23 299.36 885.00 313.08 C 904.05 307.90 909.45 279.77 929.09 276.73 C 925.27 290.85 906.75 302.07 902.86 317.01 C 919.18 309.89 928.78 292.08 945.99 286.80 C 940.38 300.84 923.19 307.80 918.09 321.07 C 928.62 317.39 937.22 308.79 948.00 306.88 C 934.23 325.20 907.10 332.41 887.78 345.85 C 878.93 351.17 868.54 353.30 858.30 353.31 C 848.46 353.22 840.32 360.98 830.36 359.45 C 789.42 360.15 752.01 374.13 711.90 380.86 C 699.03 383.57 688.58 391.58 677.00 397.21 C 683.64 410.47 702.35 409.17 704.83 425.14 C 714.48 433.35 713.94 446.91 713.50 458.61 C 714.87 465.11 722.57 469.83 720.24 477.03 C 721.61 484.10 726.74 490.40 726.01 498.05 C 726.73 503.64 718.26 492.63 725.29 494.35 C 721.58 491.75 715.72 494.24 712.07 488.16 C 715.93 498.55 701.56 490.56 696.77 488.19 C 691.38 483.67 683.56 486.85 677.76 482.48 C 668.19 487.91 653.63 487.10 644.06 481.97 C 627.87 488.13 612.80 498.22 595.15 499.99 C 584.93 493.30 571.53 500.56 560.04 496.88 C 532.89 494.05 514.56 472.51 494.19 457.15 C 493.30 469.85 478.08 470.31 470.54 477.59 C 461.75 482.75 469.42 465.82 460.00 470.96 C 450.92 468.46 456.00 483.72 446.64 483.65 C 441.02 489.17 428.76 492.53 426.96 483.07 C 431.42 482.00 441.46 480.90 440.33 474.66 C 430.87 473.07 433.74 465.98 429.87 459.98 C 438.16 458.42 439.61 472.79 448.42 468.46 C 455.66 464.21 460.67 456.40 464.88 449.15 C 461.55 446.84 464.84 445.39 467.58 446.14 C 468.12 449.19 468.82 452.52 471.98 449.45 C 476.90 454.56 483.53 455.19 489.02 449.93 C 486.80 447.04 485.19 440.73 480.56 442.43 C 476.37 441.53 472.97 448.74 469.10 444.94 C 472.60 437.14 476.05 429.49 478.23 421.27 C 481.06 418.87 485.65 419.07 486.97 414.89 C 484.42 411.36 480.80 408.62 479.87 404.13 C 475.32 402.00 469.61 403.53 464.80 401.86 C 465.39 398.81 474.30 400.10 470.32 397.59 C 466.04 394.45 478.38 395.27 471.67 393.32 C 451.10 395.68 430.74 401.06 410.02 403.00 C 401.89 402.19 413.09 397.17 411.80 391.85 C 345.60 390.86 278.25 383.51 215.63 361.48 C 214.11 360.95 211.44 361.37 211.98 358.98 C 228.05 360.52 243.78 364.59 259.80 366.61 C 263.59 368.13 257.88 360.44 256.48 364.37 C 228.62 357.43 200.38 351.68 172.98 343.07 C 170.43 342.04 167.13 341.78 165.84 338.96 C 195.53 344.14 224.45 353.40 254.23 357.99 C 223.41 345.61 188.17 339.08 159.83 322.96 C 197.01 329.98 232.02 347.00 269.34 353.86 C 238.06 339.07 202.64 329.99 175.67 308.21 C 213.35 320.78 248.42 341.52 287.25 350.94 C 261.72 336.13 232.04 326.74 211.00 305.06 C 207.56 301.17 214.53 302.97 216.70 304.35 C 240.99 319.91 266.32 334.03 293.11 344.86 C 296.02 345.66 299.29 348.06 302.18 345.99 C 289.44 335.76 272.99 329.15 263.75 315.17 C 287.04 325.77 306.11 345.11 330.99 352.99 C 354.00 364.03 379.71 365.16 404.66 368.49 C 429.98 369.37 454.56 378.06 480.00 374.95 C 497.15 372.57 514.28 379.99 531.03 375.15 C 571.82 372.73 613.51 367.43 650.10 349.29 C 684.32 335.68 721.22 330.68 758.06 328.81 C 767.34 326.02 775.16 311.27 786.20 317.75 C 791.75 317.12 802.28 302.32 805.55 313.70 C 812.41 312.67 816.75 302.09 825.00 302.96 C 826.88 306.28 821.34 316.50 825.79 316.83 C 832.16 307.52 836.23 292.81 849.01 290.96 C 851.30 296.60 844.73 306.52 843.99 313.90 C 845.19 319.18 849.97 311.26 851.99 310.04 C 861.11 300.55 862.54 282.23 877.02 278.91 C 874.46 289.50 869.10 299.10 865.28 309.23 C 861.66 317.43 865.79 312.98 867.76 311.75 C 882.48 303.48 886.60 284.47 900.50 275.42 M 466.23 451.18 C 462.06 457.59 472.80 452.71 466.23 451.18 M 467.37 456.44 C 458.76 459.35 461.31 468.98 471.42 464.51 C 484.19 464.22 475.57 453.88 467.37 456.44 M 712.91 477.99 C 713.67 483.06 718.45 486.76 721.87 490.34 C 720.07 485.85 718.97 477.50 712.91 477.99 M 709.19 483.53 C 707.71 488.76 713.77 485.14 709.19 483.53 Z" />




</svg>
