<?xml version="1.0" encoding="UTF-8" ?>
<!DOCTYPE svg PUBLIC "-//W3C//DTD SVG 1.1//EN" "http://www.w3.org/Graphics/SVG/1.1/DTD/svg11.dtd">
<svg width="1225pt" height="647pt" viewBox="0 0 1225 647" version="1.1" xmlns="http://www.w3.org/2000/svg">

<path fill="#1c1e21" opacity="1.00" d=" M 907.31 273.32 C 908.01 273.22 909.40 273.03 910.10 272.93 C 905.24 289.94 890.91 303.86 886.51 320.51 C 903.44 311.03 913.84 292.21 927.69 278.68 C 929.75 277.43 937.87 273.70 935.24 278.31 C 926.48 292.29 916.06 305.07 906.31 318.34 C 905.16 320.44 900.66 325.61 905.86 323.87 C 921.88 315.43 932.52 299.37 947.97 290.00 C 948.62 289.69 953.79 287.63 952.87 289.88 C 942.01 306.97 924.16 318.37 911.92 334.14 C 928.17 329.02 939.73 312.32 957.17 311.05 C 939.22 328.89 915.72 339.02 893.81 350.85 C 878.88 363.86 858.28 357.92 841.32 365.32 C 826.34 368.44 810.46 365.17 795.52 369.36 C 773.32 370.57 753.21 378.13 731.00 380.05 C 712.87 382.22 693.70 385.84 678.79 397.04 C 683.21 406.53 695.32 405.27 700.10 413.89 C 705.01 425.09 715.59 434.04 712.77 447.79 C 710.65 456.09 715.70 462.57 719.64 469.36 C 718.22 478.95 725.16 487.40 725.74 497.22 C 722.65 497.46 720.51 493.23 722.54 490.88 C 719.64 485.52 718.73 475.76 711.93 474.98 C 712.91 481.15 719.72 484.81 721.00 491.18 C 716.52 490.63 708.02 480.70 710.84 491.03 C 698.89 488.79 689.30 480.78 676.82 480.24 C 666.82 483.07 652.60 487.22 643.03 479.08 C 627.39 486.80 611.51 495.36 594.18 497.94 C 582.20 490.49 565.47 498.51 551.99 493.01 C 526.49 487.79 510.87 465.71 491.11 450.97 C 497.10 466.21 476.45 468.01 468.60 475.63 C 459.43 480.56 469.90 464.52 458.97 468.81 C 451.07 466.05 455.19 479.75 446.88 479.86 C 441.14 486.21 426.90 490.00 426.06 479.28 C 431.06 477.71 438.49 478.33 440.06 471.97 C 438.74 468.76 434.53 469.00 432.26 466.78 C 433.32 462.13 425.57 452.14 434.69 458.34 C 443.80 475.23 458.83 457.62 462.86 447.24 C 457.63 442.84 474.73 438.60 467.99 447.43 C 473.68 446.47 477.39 455.58 483.06 450.11 C 494.34 449.38 484.79 435.17 478.09 438.01 C 474.67 438.59 473.44 445.24 469.74 441.34 C 469.64 433.87 477.70 426.65 477.69 418.63 C 478.92 414.33 484.59 415.21 487.20 412.12 C 480.66 406.46 478.64 396.54 467.00 400.96 C 457.17 399.55 479.05 395.30 464.03 395.87 C 444.15 392.78 425.05 402.15 405.25 401.85 C 401.62 399.25 407.36 397.59 409.13 396.09 C 346.74 390.75 281.88 385.89 223.89 360.10 C 221.60 358.78 217.47 359.04 216.86 356.03 C 233.23 358.46 248.78 364.85 265.22 366.94 C 237.45 354.06 205.57 350.06 178.74 335.06 C 207.66 339.98 234.54 353.04 263.21 359.03 C 236.44 344.27 204.99 336.78 179.80 318.94 C 214.33 326.95 245.67 347.67 280.23 355.95 C 255.23 339.54 223.75 329.69 203.83 306.96 C 237.67 321.17 267.50 345.01 303.14 355.02 C 282.91 341.31 259.94 329.92 244.44 310.55 C 238.51 307.48 244.26 303.62 245.43 305.78 C 269.65 322.65 292.96 343.61 321.37 353.69 C 314.94 341.80 294.19 335.07 294.25 321.10 C 303.95 325.83 311.31 337.01 320.95 343.06 C 345.32 362.74 375.99 371.69 406.95 373.16 C 429.72 372.82 452.21 383.46 474.79 376.70 C 488.35 369.87 503.97 372.77 518.43 374.59 C 553.95 368.50 592.33 372.24 627.48 360.40 C 646.74 352.26 665.76 346.02 685.45 338.49 C 710.10 335.00 734.80 329.78 759.67 329.68 C 766.39 323.92 773.34 315.60 782.87 316.02 C 789.39 323.69 794.83 309.56 802.15 309.09 C 807.04 308.36 805.14 316.92 807.84 317.72 C 811.77 311.29 817.67 305.29 824.92 302.97 C 832.41 306.83 822.88 316.83 824.99 323.16 C 835.24 314.11 836.28 290.91 852.29 290.59 C 853.48 301.38 845.16 311.33 844.95 322.20 C 863.26 313.23 862.03 283.86 881.08 277.99 C 877.42 292.54 870.08 305.84 864.73 319.82 C 883.86 312.80 889.40 284.51 907.31 273.32 M 464.45 448.15 C 465.40 451.84 468.09 445.95 464.45 448.15 M 465.28 454.24 C 448.17 463.17 474.74 465.91 477.65 457.20 C 474.33 454.88 469.30 454.81 465.28 454.24 M 470.26 465.10 C 470.44 468.37 473.29 463.56 470.26 465.10 M 705.82 478.89 C 708.29 485.93 712.38 482.60 705.82 478.89 Z" />




</svg>
