<?xml version="1.0" encoding="UTF-8" ?>
<!DOCTYPE svg PUBLIC "-//W3C//DTD SVG 1.1//EN" "http://www.w3.org/Graphics/SVG/1.1/DTD/svg11.dtd">
<svg width="1225pt" height="647pt" viewBox="0 0 1225 647" version="1.1" xmlns="http://www.w3.org/2000/svg">

<path fill="#1c1e21" opacity="1.00" d=" M 903.31 281.31 C 907.63 279.36 905.48 284.21 904.44 286.37 C 897.63 299.74 890.41 312.91 882.91 325.91 C 880.97 328.19 884.63 332.44 886.22 328.21 C 901.71 317.01 911.34 300.03 925.59 287.57 C 927.48 286.50 931.28 283.59 932.64 286.23 C 924.52 303.97 906.99 318.01 898.80 336.00 C 916.71 327.18 929.10 310.37 945.97 300.00 C 947.74 298.83 952.96 297.88 950.31 301.36 C 937.29 317.60 920.43 330.61 905.82 345.07 C 923.77 339.91 937.16 322.37 956.18 320.98 C 938.35 337.18 915.83 347.14 894.08 357.11 C 882.61 365.27 868.35 368.68 854.40 368.44 C 825.62 377.07 795.51 371.57 766.48 380.52 C 738.22 384.17 707.87 382.01 680.98 394.20 C 684.77 400.41 691.12 403.08 697.61 405.38 C 703.91 418.66 716.46 430.87 711.94 447.02 C 709.01 456.51 721.78 462.49 718.19 471.87 C 721.44 478.94 723.02 486.43 723.92 494.12 C 720.09 492.30 719.66 488.65 720.98 484.97 C 715.82 490.62 707.86 474.45 709.10 485.99 C 698.56 486.71 687.82 474.89 675.87 475.25 C 666.01 480.05 652.80 479.35 642.20 476.25 C 626.45 482.90 611.33 492.45 593.99 494.04 C 588.06 496.24 595.45 486.22 587.04 491.12 C 562.58 493.82 535.98 488.95 517.99 471.02 C 509.11 466.38 503.90 450.92 493.37 452.36 C 494.49 467.65 476.51 475.58 463.93 479.05 C 467.98 474.40 462.32 468.55 456.83 471.66 C 460.06 462.13 470.67 467.98 476.85 461.75 C 478.33 454.59 462.57 461.50 465.64 451.89 C 458.40 452.64 458.10 460.92 453.28 465.29 C 456.49 475.62 441.85 475.28 437.77 481.73 C 433.34 485.64 430.68 478.54 426.00 480.84 C 422.15 469.51 439.93 477.92 439.94 467.18 C 430.47 465.88 432.33 458.08 428.85 451.89 C 437.14 452.20 439.65 466.54 448.33 460.30 C 458.89 450.19 469.46 437.79 473.46 423.39 C 478.01 417.58 476.75 407.39 487.39 409.29 C 484.93 403.04 474.72 400.27 467.30 399.47 C 387.28 401.28 300.68 394.61 232.39 348.60 C 230.67 345.97 234.21 347.12 235.64 347.43 C 245.44 351.34 255.13 355.65 265.22 358.75 C 269.03 360.04 265.21 356.90 263.82 356.19 C 245.88 347.11 227.70 338.34 210.90 327.21 C 208.56 325.50 203.18 326.24 203.83 322.07 C 224.45 330.95 243.63 343.36 265.08 350.15 C 246.54 335.69 225.19 325.05 207.01 309.99 C 200.30 305.24 209.81 307.39 212.60 310.39 C 236.62 324.40 259.36 341.77 285.17 352.02 C 263.68 334.45 239.07 318.50 221.88 296.89 C 250.88 314.21 274.79 341.95 307.12 354.12 C 289.01 338.57 269.05 324.16 256.81 303.17 C 254.70 299.75 248.96 294.53 254.78 295.72 C 275.20 318.20 297.02 340.84 324.12 355.10 C 317.77 341.22 300.19 332.58 299.84 315.98 C 314.71 333.35 328.71 353.01 350.12 362.83 C 370.83 376.80 396.99 376.97 420.98 379.01 C 438.55 369.54 460.36 370.37 479.97 369.86 C 500.79 362.10 523.08 371.72 544.49 368.61 C 565.11 364.19 586.07 366.24 606.86 364.20 C 620.00 367.10 634.12 365.43 645.04 357.10 C 657.46 353.56 669.86 350.12 681.42 344.45 C 705.29 341.46 728.68 334.93 752.82 335.43 C 759.97 330.42 771.98 314.28 780.15 325.04 C 786.23 323.60 792.54 311.41 799.18 316.74 C 799.75 339.40 809.68 304.56 820.81 310.17 C 823.81 315.83 818.43 325.20 821.02 329.99 C 829.30 319.49 830.81 300.50 845.74 296.18 C 849.86 307.23 838.34 319.57 841.14 331.09 C 853.84 319.96 858.79 303.46 867.66 289.68 C 869.65 286.59 873.21 284.78 876.87 284.82 C 872.97 300.41 863.86 314.34 860.87 330.10 C 879.43 317.57 886.07 294.38 903.31 281.31 M 839.10 330.26 C 837.56 333.29 842.37 330.44 839.10 330.26 M 477.53 433.40 C 474.72 437.86 465.99 436.22 468.88 442.70 C 461.27 442.01 468.16 448.33 470.96 450.05 C 476.73 457.68 486.78 451.80 492.06 447.06 C 487.80 441.88 486.53 429.82 477.53 433.40 M 472.39 467.37 C 463.24 469.67 478.51 469.60 472.39 467.37 M 711.29 471.24 C 708.67 474.95 717.60 480.30 719.08 484.14 C 718.10 479.63 716.29 471.69 711.29 471.24 M 704.81 474.89 C 707.32 481.92 711.36 478.61 704.81 474.89 Z" />
<path fill="#1c1e21" opacity="1.00" d=" M 218.26 293.10 C 221.29 291.56 218.44 296.38 218.26 293.10 Z" />
<path fill="#1c1e21" opacity="1.00" d=" M 220.32 295.23 C 225.24 293.26 219.68 299.54 220.32 295.23 Z" />
<path fill="#1c1e21" opacity="1.00" d=" M 202.26 305.10 C 205.29 303.56 202.44 308.38 202.26 305.10 Z" />





</svg>
