<?xml version="1.0" encoding="UTF-8" ?>
<!DOCTYPE svg PUBLIC "-//W3C//DTD SVG 1.1//EN" "http://www.w3.org/Graphics/SVG/1.1/DTD/svg11.dtd">
<svg width="1225pt" height="647pt" viewBox="0 0 1225 647" version="1.1" xmlns="http://www.w3.org/2000/svg">

<path fill="#1c1e21" opacity="1.00" d=" M 894.50 297.40 L 899.19 297.04 C 893.08 311.69 881.42 324.12 876.87 339.06 C 897.20 331.13 906.12 305.21 927.22 301.07 C 917.80 315.65 905.08 327.64 894.37 341.20 C 894.32 343.82 895.57 344.21 897.42 342.44 C 914.58 334.40 927.56 316.67 946.26 313.08 C 933.79 329.12 915.25 339.09 899.89 352.14 C 918.11 347.44 933.18 333.16 952.11 330.97 C 930.20 348.50 900.76 356.18 875.05 368.03 C 853.38 369.66 833.06 378.98 811.13 376.29 C 795.71 380.09 778.86 376.95 764.28 383.22 C 739.21 385.86 712.89 381.67 688.67 390.66 C 679.41 393.90 694.69 398.03 698.59 400.49 C 703.37 414.04 715.96 424.54 711.59 440.35 C 707.39 450.57 720.09 457.58 716.68 467.40 C 720.04 474.75 720.98 482.35 721.85 490.30 C 719.97 483.66 713.11 482.41 709.62 477.25 C 706.58 476.37 707.86 480.95 707.97 482.69 C 696.11 479.13 685.43 471.25 673.48 469.43 C 667.56 474.16 659.72 471.46 652.42 472.70 C 636.52 469.02 623.67 483.31 608.57 486.52 C 603.26 486.37 593.69 494.15 591.48 486.37 C 567.23 488.06 540.40 486.97 521.53 469.45 C 513.36 465.21 508.94 456.31 500.99 452.10 C 495.20 456.29 495.36 464.63 493.68 471.68 C 485.70 477.19 477.62 485.07 468.20 486.98 C 467.94 482.39 466.73 477.90 461.04 479.02 C 462.38 469.69 474.88 475.85 479.01 468.94 C 479.37 462.47 464.67 469.58 467.84 460.09 C 463.82 452.00 454.80 464.70 456.00 470.07 C 454.37 478.21 443.62 478.74 439.16 485.16 C 434.29 489.35 434.70 480.23 430.39 480.78 C 431.59 486.82 426.18 478.59 429.30 477.29 C 433.29 475.51 439.66 476.39 441.40 471.37 C 444.22 466.12 432.45 468.51 434.43 463.36 C 435.44 459.96 431.59 458.00 430.84 454.99 C 439.06 452.90 442.11 468.72 450.05 462.05 C 460.41 450.18 470.03 436.40 474.14 421.06 C 479.03 417.86 473.43 411.22 478.80 408.88 C 482.62 408.61 484.31 404.85 488.02 404.56 C 483.88 397.96 475.64 399.18 469.16 397.24 C 398.38 404.33 326.57 394.88 258.99 373.03 C 247.59 367.69 235.48 363.55 224.81 356.95 C 235.27 357.35 248.80 364.50 256.93 364.13 C 237.86 354.26 215.53 348.14 195.71 338.25 C 193.03 337.78 194.60 336.95 196.18 336.37 C 215.09 342.64 233.48 351.44 253.09 355.09 C 235.53 343.06 211.40 337.21 194.23 323.47 C 203.01 322.63 212.34 330.98 221.36 333.65 C 236.36 340.47 251.40 347.28 266.96 352.76 C 269.23 351.16 266.20 349.93 264.89 349.12 C 245.21 338.32 225.52 327.06 208.13 312.84 C 205.22 310.97 209.60 309.79 209.59 312.17 C 238.39 323.90 264.47 346.22 295.27 353.98 C 276.08 341.49 255.57 330.23 239.83 313.27 C 236.88 311.52 237.27 307.78 235.81 305.04 C 260.32 323.10 284.95 342.28 313.10 354.08 C 305.23 340.91 286.38 334.94 281.78 319.12 C 301.70 333.17 318.66 352.20 342.00 360.99 C 363.69 373.32 389.71 373.95 413.70 377.78 C 432.88 358.87 462.01 360.81 486.96 360.80 C 512.44 357.12 537.65 369.13 562.94 361.81 C 584.30 362.64 606.01 356.78 627.08 362.93 C 638.20 368.32 648.12 359.85 658.79 357.78 C 684.30 348.28 712.06 345.90 738.86 342.26 C 750.16 345.89 761.03 321.11 771.45 333.61 C 776.41 331.99 780.01 327.91 784.50 325.39 C 793.15 321.30 791.61 330.91 793.17 336.05 C 797.54 329.11 803.39 319.42 812.79 320.02 C 818.04 323.93 808.10 338.27 815.79 337.89 C 821.62 326.98 824.28 312.07 837.94 308.02 C 841.14 318.67 833.82 329.38 833.16 340.23 C 850.28 332.32 850.06 304.77 868.04 298.93 C 866.15 312.53 858.03 324.53 854.86 337.84 C 872.65 330.23 878.82 308.04 894.50 297.40 M 480.33 431.27 C 475.38 431.75 474.40 439.71 468.97 437.20 C 471.57 439.86 470.26 445.12 465.95 443.23 C 470.89 447.22 463.79 449.62 464.01 453.79 C 471.32 455.09 476.83 464.56 484.43 460.44 C 489.49 457.19 504.16 451.25 493.78 445.20 C 488.37 442.07 487.19 430.78 480.33 431.27 M 708.90 466.94 C 710.78 471.53 714.40 475.88 717.76 479.37 C 715.53 475.05 714.95 466.94 708.90 466.94 M 705.14 472.36 C 704.33 476.34 709.12 471.72 705.14 472.36 M 472.01 475.02 C 472.66 480.74 479.89 473.25 472.01 475.02 Z" />




</svg>
