<?xml version="1.0" encoding="UTF-8" ?>
<!DOCTYPE svg PUBLIC "-//W3C//DTD SVG 1.1//EN" "http://www.w3.org/Graphics/SVG/1.1/DTD/svg11.dtd">
<svg width="1225pt" height="647pt" viewBox="0 0 1225 647" version="1.1" xmlns="http://www.w3.org/2000/svg">

<path fill="#1d1f23" opacity="1.00" d=" M 204.08 305.67 C 210.33 306.11 204.36 310.85 204.08 305.67 Z" />
<path fill="#1d1f23" opacity="1.00" d=" M 205.70 309.01 C 232.14 319.75 254.18 343.22 282.15 352.09 C 265.77 337.89 245.21 328.40 232.06 310.69 C 252.97 322.29 270.34 341.44 293.29 348.75 C 287.05 340.97 278.05 335.32 272.10 327.82 C 270.94 323.97 274.75 328.08 276.08 328.95 C 296.59 345.55 318.95 359.55 343.47 369.42 C 366.46 372.16 389.17 380.73 412.38 379.39 C 419.03 378.18 407.18 374.84 414.75 372.80 C 429.19 354.09 456.19 359.12 476.79 357.79 C 492.25 349.68 510.11 357.34 526.43 357.67 C 545.67 359.14 564.24 352.51 583.47 354.56 C 607.43 349.23 631.94 356.36 654.37 363.44 C 666.38 368.82 679.36 361.14 692.00 360.97 C 707.00 360.11 721.70 356.51 736.81 356.76 C 744.44 351.48 754.50 343.46 764.02 349.03 C 771.11 345.68 782.36 337.84 786.02 349.26 C 789.37 343.44 805.65 330.33 805.00 345.00 C 804.86 357.78 811.27 347.60 812.70 341.64 C 815.28 335.46 820.62 328.58 827.81 328.02 C 830.67 335.84 825.91 344.07 826.93 352.13 C 841.50 345.71 839.84 322.77 855.01 318.95 C 858.21 327.60 846.26 339.47 849.07 349.03 C 861.85 341.27 868.70 328.14 878.18 317.20 C 880.21 315.03 883.01 313.45 886.09 313.98 C 882.80 326.26 873.26 336.01 868.80 347.81 C 887.91 342.50 895.38 318.49 914.08 312.92 C 909.20 326.19 894.16 336.56 888.63 348.40 C 906.00 344.39 917.19 323.79 935.12 319.97 C 925.45 334.33 908.98 342.95 896.66 354.89 C 913.07 350.79 925.41 335.96 942.31 334.16 C 909.64 359.17 869.33 371.50 829.64 378.20 C 810.69 376.70 791.68 379.94 772.16 380.23 C 766.79 383.76 760.97 384.68 754.88 382.37 C 734.01 385.00 712.20 380.05 692.05 387.18 C 691.99 391.12 698.91 389.82 700.63 393.39 C 703.98 406.12 715.43 416.24 711.65 430.49 C 706.49 441.53 717.96 449.96 715.38 460.98 C 717.78 468.15 719.14 475.59 719.93 483.13 C 714.72 481.24 706.61 462.54 705.67 474.96 C 694.33 470.97 685.54 463.42 673.86 460.25 C 663.96 465.04 651.45 461.71 640.80 465.76 C 625.67 472.19 610.78 480.33 594.25 481.98 C 593.16 475.44 586.12 479.45 581.51 479.42 C 555.74 482.31 530.60 472.19 510.68 456.37 C 504.30 451.83 511.98 460.40 504.95 459.04 C 502.65 458.39 509.23 451.79 503.62 451.41 C 494.49 449.40 490.71 439.72 482.92 436.03 C 476.75 434.90 477.01 446.97 471.90 444.11 C 468.40 436.61 475.89 426.46 474.27 417.88 C 474.24 409.11 485.47 413.51 490.07 412.30 C 496.22 406.30 481.75 402.54 487.03 397.79 C 481.63 393.89 473.58 395.07 467.14 395.13 C 401.81 412.41 331.80 404.31 270.12 377.82 C 267.63 376.62 258.03 374.28 265.20 373.56 C 253.89 367.09 240.84 363.94 229.80 356.98 C 245.12 359.54 258.82 367.87 274.18 370.06 C 247.23 356.05 218.17 346.10 191.78 330.97 C 211.03 336.12 228.61 346.74 247.35 353.68 C 251.86 354.09 258.06 360.43 261.87 357.46 C 238.26 344.53 214.54 331.76 191.96 317.07 C 185.20 312.86 195.87 316.08 198.28 318.41 C 222.04 329.96 244.11 345.59 269.20 354.04 C 247.56 339.77 225.76 324.98 205.70 309.01 M 709.15 460.17 C 705.24 465.74 715.22 463.13 709.15 460.17 M 704.10 465.26 C 702.56 468.29 707.37 465.44 704.10 465.26 Z" />
<path fill="#1d1f23" opacity="1.00" d=" M 230.26 309.10 C 233.29 307.56 230.44 312.38 230.26 309.10 Z" />
<path fill="#1d1f23" opacity="1.00" d=" M 184.18 311.18 C 188.20 310.16 183.16 315.20 184.18 311.18 Z" />
<path fill="#1d1f23" opacity="1.00" d=" M 186.45 313.15 C 190.09 310.95 187.40 316.85 186.45 313.15 Z" />
<path fill="#1d1f23" opacity="1.00" d=" M 270.10 324.26 C 273.38 324.44 268.56 327.29 270.10 324.26 Z" />
<path fill="#1d1f23" opacity="1.00" d=" M 470.10 445.24 C 478.17 447.17 466.45 461.21 466.92 466.99 C 464.23 474.35 476.05 467.95 478.89 473.12 C 489.23 481.05 497.24 465.51 503.83 459.93 C 508.69 467.34 494.67 474.25 499.33 483.35 C 492.98 491.35 483.25 499.29 473.29 502.05 C 474.74 497.34 471.78 491.20 466.22 494.08 C 466.95 483.30 479.68 490.33 484.00 482.92 C 484.51 476.87 474.33 483.02 473.20 477.86 C 472.64 474.09 467.71 468.95 465.51 474.55 C 464.62 482.32 461.03 490.61 452.83 492.93 C 451.80 496.11 441.84 503.99 442.55 496.54 C 447.49 491.98 434.71 497.71 436.98 491.15 C 441.86 491.02 454.93 484.88 446.61 480.44 C 440.97 479.69 441.42 473.24 439.17 469.21 C 445.16 465.20 449.93 480.84 456.26 474.25 C 463.17 465.98 464.72 454.51 470.10 445.24 M 478.23 489.13 C 473.41 496.23 487.98 487.11 478.23 489.13 Z" />



</svg>
