<?xml version="1.0" encoding="UTF-8" ?>
<!DOCTYPE svg PUBLIC "-//W3C//DTD SVG 1.1//EN" "http://www.w3.org/Graphics/SVG/1.1/DTD/svg11.dtd">
<svg width="1225pt" height="647pt" viewBox="0 0 1225 647" version="1.1" xmlns="http://www.w3.org/2000/svg">

<path fill="#1e2023" opacity="1.00" d=" M 895.32 316.36 C 897.00 315.71 898.82 315.58 898.00 317.98 C 894.54 328.13 883.26 333.94 880.05 344.25 C 895.08 339.55 903.65 322.64 918.59 318.39 C 915.15 329.83 899.26 334.43 894.81 344.97 C 905.71 340.16 914.71 331.28 926.14 327.89 C 916.25 338.99 901.43 345.41 888.16 352.23 C 872.33 362.38 852.25 361.28 835.92 369.95 C 817.80 372.12 799.40 369.03 781.31 372.29 C 752.19 379.38 721.35 372.42 692.06 380.29 C 691.64 385.11 699.50 383.88 700.59 388.36 C 704.00 400.70 715.87 410.80 710.84 424.68 C 708.32 432.81 709.99 440.39 714.32 447.64 C 712.37 458.23 720.30 467.47 717.93 478.23 C 713.71 473.43 709.90 468.22 705.23 463.80 C 707.30 474.30 694.52 464.20 691.27 462.78 C 682.42 452.24 667.13 454.25 655.23 457.06 C 634.48 459.22 617.12 473.90 596.25 474.95 C 591.55 467.91 581.08 476.97 574.04 473.79 C 554.73 475.28 535.65 469.28 518.82 460.11 C 514.65 459.84 507.56 458.24 511.71 463.90 C 503.12 473.71 509.48 488.89 498.76 496.77 C 495.19 503.13 487.39 503.43 483.07 509.09 C 476.01 513.27 480.42 504.63 476.96 501.26 C 468.48 502.56 462.26 509.30 456.90 514.99 C 453.39 513.73 446.77 511.78 446.99 507.18 C 450.57 505.24 455.52 505.59 457.83 501.64 C 461.92 493.83 450.14 498.02 450.67 492.22 C 450.67 489.48 448.28 487.64 447.78 485.05 C 454.43 481.93 457.93 493.99 463.69 489.71 C 470.96 480.04 469.35 465.94 475.16 455.41 C 471.93 446.79 477.97 437.17 474.21 428.80 C 473.11 417.56 496.65 427.65 493.10 415.94 C 490.93 411.43 485.36 410.21 481.79 407.10 C 485.58 408.07 489.89 408.57 491.93 404.45 C 487.41 404.42 488.63 399.19 485.72 397.25 C 469.56 396.70 454.09 402.32 439.41 408.52 C 378.93 422.03 313.12 414.85 256.60 389.96 C 257.83 388.44 258.17 384.68 255.31 383.72 C 247.18 379.45 238.31 376.52 230.67 371.40 C 245.99 371.16 229.56 366.24 225.88 362.43 C 232.76 362.58 230.20 358.48 227.06 355.02 C 233.88 352.72 242.49 356.84 249.15 358.83 C 269.17 358.44 286.05 372.90 305.19 377.76 C 331.08 389.95 360.54 387.24 388.14 391.69 C 414.64 390.20 439.11 381.87 465.55 380.51 C 473.62 378.28 457.48 379.08 455.95 378.16 C 445.27 374.47 475.68 379.74 467.05 370.94 C 452.11 369.46 436.33 373.77 421.00 374.07 C 413.63 377.59 413.85 369.43 413.59 365.62 C 422.21 349.70 443.06 354.81 458.01 353.97 C 469.75 358.09 477.58 345.97 489.49 349.32 C 541.24 361.04 595.61 335.40 646.04 355.91 C 651.73 361.08 655.39 352.76 658.92 361.19 C 688.35 357.81 724.64 354.82 756.87 354.78 C 763.30 352.01 771.36 347.27 777.00 353.96 C 782.03 350.40 787.11 345.61 793.72 346.10 C 796.78 348.41 796.47 353.16 799.85 355.10 C 803.05 347.60 806.41 336.53 816.81 337.98 C 819.45 342.38 816.77 348.30 819.11 353.02 C 830.79 348.76 829.54 331.48 840.93 328.01 C 847.61 332.46 836.11 343.28 840.29 348.72 C 854.92 345.39 856.48 322.48 871.96 320.84 C 870.28 328.87 861.98 337.25 861.86 344.15 C 876.33 341.73 882.20 322.72 895.32 316.36 M 485.33 446.28 C 479.22 446.80 481.91 456.18 476.45 457.21 C 479.25 463.51 475.42 470.40 474.45 476.80 C 479.73 478.47 484.38 482.33 489.88 483.00 C 500.31 478.20 505.06 466.65 509.91 457.01 C 500.46 456.51 494.20 446.37 485.33 446.28 M 708.20 455.25 C 704.50 458.01 711.94 457.93 708.20 455.25 M 473.10 482.04 C 473.04 486.18 471.12 490.92 473.19 494.88 C 478.81 495.88 484.19 493.58 488.90 490.75 C 490.76 484.21 478.92 490.70 477.46 486.67 C 479.73 480.94 475.64 482.10 473.10 482.04 M 487.10 495.24 C 484.31 496.20 481.42 497.45 479.70 499.96 C 482.97 503.33 490.18 496.02 487.10 495.24 Z" />




</svg>
