<?xml version="1.0" encoding="UTF-8" ?>
<!DOCTYPE svg PUBLIC "-//W3C//DTD SVG 1.1//EN" "http://www.w3.org/Graphics/SVG/1.1/DTD/svg11.dtd">
<svg width="1225pt" height="647pt" viewBox="0 0 1225 647" version="1.1" xmlns="http://www.w3.org/2000/svg">

<path fill="#1d1e22" opacity="1.00" d=" M 880.31 293.32 C 881.01 293.22 882.41 293.02 883.11 292.92 C 880.43 305.00 870.43 315.78 868.60 327.40 C 883.16 322.32 888.48 300.06 904.19 295.08 C 899.96 307.59 887.40 317.17 882.59 328.42 C 893.22 323.93 901.68 310.16 914.09 306.84 C 905.23 319.26 892.06 328.29 879.07 336.10 C 863.63 348.96 841.99 349.93 824.94 359.05 C 807.60 359.08 790.18 360.73 772.92 362.89 C 743.82 372.33 710.55 362.41 682.12 376.25 C 683.25 382.97 693.85 382.64 695.96 389.08 C 699.73 400.17 711.29 407.58 708.72 420.85 C 703.13 434.49 716.54 443.84 715.08 456.98 C 716.70 462.73 722.34 471.04 718.24 476.00 C 714.87 470.39 709.44 466.65 704.99 461.97 C 709.76 473.83 693.32 463.86 689.35 460.61 C 679.71 453.34 669.63 453.03 658.93 456.32 C 637.31 453.85 619.77 469.22 599.43 473.54 C 585.19 468.12 567.77 476.85 552.38 471.69 C 534.51 470.72 519.81 458.19 502.20 457.03 C 507.37 480.24 471.69 480.18 475.40 501.39 C 470.51 505.07 462.29 519.47 456.99 512.49 C 451.74 514.46 448.50 506.48 454.65 506.68 C 463.06 507.05 465.43 493.49 454.78 495.26 C 454.44 491.49 452.50 488.27 450.87 484.95 C 458.17 483.58 466.63 499.35 469.66 486.68 C 466.33 476.39 479.17 466.59 471.16 457.14 C 479.36 455.01 472.22 442.43 474.26 435.70 C 468.62 422.86 484.98 428.15 491.01 422.79 C 490.80 418.33 487.91 410.31 482.28 414.23 C 477.73 417.46 483.21 408.75 479.01 412.02 C 462.57 416.51 445.91 421.44 429.93 427.88 C 354.33 446.19 273.33 440.06 200.72 413.29 C 202.90 413.50 205.06 413.81 207.25 413.93 C 200.29 410.52 192.39 409.25 185.78 405.14 C 201.00 408.43 175.95 398.19 178.74 394.22 C 200.84 404.64 225.02 408.39 247.61 417.44 C 306.53 436.21 374.44 432.62 426.63 398.94 C 426.14 397.67 425.53 396.45 425.10 395.17 C 435.37 389.84 447.01 389.19 458.25 387.67 C 455.00 384.93 447.41 388.21 447.00 383.16 C 454.70 379.59 463.80 380.92 472.03 379.84 C 470.80 375.17 462.48 377.80 458.89 374.42 C 462.90 373.32 461.29 370.90 458.63 369.24 C 440.51 369.32 422.53 373.36 404.37 371.75 C 401.16 365.07 407.59 359.53 413.33 354.33 C 429.53 348.82 446.84 351.55 463.53 351.50 C 482.10 340.23 503.31 355.12 522.91 350.44 C 560.34 348.29 598.65 342.16 635.72 350.19 C 639.96 351.01 649.03 360.48 646.18 351.86 C 656.89 361.22 671.64 352.12 684.62 350.68 C 700.51 347.53 716.75 348.25 732.81 347.71 C 740.57 341.03 751.53 348.81 757.84 339.91 C 760.34 338.12 764.08 336.99 766.56 339.46 C 772.71 346.68 775.53 330.18 782.95 331.94 C 789.09 331.23 787.68 342.11 792.39 341.40 C 792.46 333.41 794.82 321.92 803.93 319.99 C 810.44 323.62 805.93 334.10 811.16 339.07 C 822.73 332.03 813.98 310.07 828.78 308.01 C 832.04 315.85 826.29 326.71 831.14 333.98 C 837.15 328.77 840.85 321.74 843.28 314.30 C 845.68 308.84 848.55 297.03 855.85 299.18 C 855.24 309.47 851.90 319.28 848.99 329.07 C 865.28 324.85 865.87 300.97 880.31 293.32 M 483.27 449.01 C 481.81 451.32 480.61 453.94 480.33 456.68 C 480.65 465.82 496.48 461.52 496.01 454.17 C 492.17 451.68 488.47 447.41 483.27 449.01 M 476.10 459.26 C 474.56 462.29 479.37 459.44 476.10 459.26 M 567.43 459.22 C 567.53 463.69 572.00 458.12 567.43 459.22 M 702.37 459.14 C 701.71 463.13 706.34 458.33 702.37 459.14 M 480.27 466.10 C 477.35 468.15 477.87 475.57 482.38 472.39 C 488.11 471.14 485.37 464.37 480.27 466.10 Z" />
<path fill="#1d1e22" opacity="1.00" d=" M 182.26 404.10 C 185.29 402.56 182.44 407.37 182.26 404.10 Z" />
<path fill="#1d1e22" opacity="1.00" d=" M 198.26 413.10 C 201.29 411.56 198.44 416.37 198.26 413.10 Z" />





</svg>
