<?xml version="1.0" encoding="UTF-8" ?>
<!DOCTYPE svg PUBLIC "-//W3C//DTD SVG 1.1//EN" "http://www.w3.org/Graphics/SVG/1.1/DTD/svg11.dtd">
<svg width="1225pt" height="647pt" viewBox="0 0 1225 647" version="1.1" xmlns="http://www.w3.org/2000/svg">

<path fill="#1d1e22" opacity="1.00" d=" M 889.21 304.55 C 890.65 304.29 893.02 303.56 891.97 305.97 C 887.34 318.21 877.83 328.05 872.90 340.16 C 888.05 332.99 894.43 313.99 910.09 307.88 C 904.77 321.23 892.51 330.18 884.80 342.01 C 896.49 335.31 905.51 324.03 918.28 319.07 C 907.97 334.57 889.15 341.73 875.31 353.28 C 858.93 361.23 840.25 362.06 824.10 370.17 C 803.02 369.77 781.20 370.10 759.61 373.54 C 730.77 376.97 700.08 370.23 672.09 381.36 C 678.13 389.48 691.07 392.43 693.36 404.60 C 705.68 412.04 701.20 428.59 703.67 440.34 C 706.66 445.64 712.36 450.15 710.44 457.00 C 713.12 464.28 717.75 471.09 717.93 479.20 C 712.37 476.60 699.83 459.52 702.96 473.01 C 690.67 469.78 679.51 463.87 667.15 461.03 C 661.07 466.95 652.09 462.92 644.36 465.44 C 639.79 467.72 638.09 459.18 633.56 461.42 C 618.01 465.76 604.31 476.57 588.01 477.91 C 567.05 475.92 544.27 477.75 525.13 467.87 C 508.32 457.71 493.51 444.80 478.96 432.02 C 471.85 434.38 465.18 437.87 458.77 441.71 C 448.50 441.86 450.99 456.19 445.83 462.80 C 437.74 464.07 428.07 467.53 419.96 463.94 C 421.61 457.44 434.41 462.36 434.84 455.25 C 429.04 450.20 424.83 444.77 423.88 436.91 C 432.00 439.19 433.46 452.33 443.00 450.04 C 448.23 449.29 453.27 438.23 446.21 436.56 C 446.44 426.17 463.48 435.22 462.67 426.46 C 462.38 423.30 455.19 422.03 451.69 420.40 C 410.72 429.19 370.20 442.24 328.58 448.68 C 274.91 453.83 219.60 458.24 165.64 448.50 C 168.32 447.12 172.79 448.53 175.12 446.16 C 165.44 443.96 154.26 444.93 145.63 440.09 C 152.50 440.09 159.33 440.87 166.19 440.99 C 164.88 436.08 156.49 438.11 154.01 434.08 C 154.24 430.98 164.94 436.95 163.67 431.26 C 176.46 427.37 190.36 435.94 203.56 436.45 C 211.24 436.77 194.62 429.75 202.63 431.30 C 243.88 443.23 288.48 449.64 330.40 437.39 C 322.52 436.47 313.91 438.22 306.61 434.34 C 321.04 434.74 334.24 429.90 347.66 426.84 C 338.48 423.84 357.72 424.74 362.42 421.85 C 359.72 417.52 374.27 419.43 378.67 416.87 C 381.73 410.10 393.85 415.85 396.87 409.11 C 411.27 408.73 418.18 393.68 432.00 392.02 C 437.29 390.07 443.24 391.00 448.35 388.50 C 445.51 387.04 437.63 388.59 437.02 384.18 C 444.13 378.37 456.46 381.17 462.96 377.94 C 459.84 375.22 435.25 373.86 453.16 371.72 C 443.20 367.04 458.52 370.02 454.65 366.11 C 431.88 366.37 409.05 369.28 386.28 367.71 C 381.79 364.63 393.39 363.98 388.22 359.98 C 408.99 346.82 433.85 351.30 457.03 352.09 C 466.36 347.34 478.13 347.92 488.34 350.61 C 512.95 357.66 538.28 347.48 563.40 349.72 C 588.89 348.16 617.28 346.18 639.91 359.17 C 637.85 348.80 645.67 362.23 650.07 360.05 C 676.04 354.60 703.35 352.24 730.06 354.85 C 740.62 357.56 748.88 347.93 759.06 348.95 C 765.84 352.32 771.02 342.92 777.62 344.36 C 784.64 351.04 789.92 337.35 797.78 339.04 C 801.18 341.69 798.36 346.26 800.74 349.26 C 804.80 340.93 808.79 328.25 819.99 327.95 C 820.07 334.01 819.02 340.03 819.03 346.09 C 832.19 342.30 828.36 317.41 843.75 316.77 C 841.66 325.30 839.72 333.86 837.22 342.28 C 851.04 337.56 852.56 320.39 861.95 310.94 C 863.89 309.91 867.10 306.94 868.89 309.20 C 865.39 319.66 859.58 329.48 856.86 340.10 C 871.66 332.25 875.93 313.78 889.21 304.55 M 478.31 362.30 C 468.35 366.28 489.56 362.02 478.31 362.30 M 457.36 432.25 C 456.27 438.30 463.39 430.78 457.36 432.25 M 699.42 464.22 C 699.55 468.68 704.00 463.14 699.42 464.22 Z" />



</svg>
