<?xml version="1.0" encoding="UTF-8" ?>
<!DOCTYPE svg PUBLIC "-//W3C//DTD SVG 1.1//EN" "http://www.w3.org/Graphics/SVG/1.1/DTD/svg11.dtd">
<svg width="1225pt" height="647pt" viewBox="0 0 1225 647" version="1.1" xmlns="http://www.w3.org/2000/svg">

<path fill="#1e1f23" opacity="1.00" d=" M 892.02 315.29 C 892.51 315.15 893.49 314.87 893.98 314.74 C 890.02 325.23 882.45 333.91 875.71 342.71 C 874.83 343.98 872.94 346.76 875.78 346.73 C 886.16 338.17 895.69 328.63 906.05 320.04 C 907.57 319.12 910.73 316.69 910.99 319.98 C 904.31 330.80 892.98 337.77 885.93 348.17 C 896.22 342.24 905.47 334.23 916.18 329.16 C 919.76 327.77 916.40 331.28 915.47 332.48 C 892.17 351.21 865.83 365.92 835.85 369.89 C 825.32 377.20 813.43 374.66 801.74 374.08 C 782.70 373.67 763.41 376.45 744.61 377.48 C 722.93 379.65 700.74 374.05 679.46 380.55 C 675.52 381.55 667.87 383.94 675.28 387.64 C 687.44 390.70 689.64 403.60 697.41 411.70 C 701.35 418.72 701.96 427.10 701.09 434.97 C 699.76 443.51 710.85 448.16 708.44 457.00 C 711.31 464.51 715.96 471.67 716.01 480.08 C 710.16 475.01 703.06 469.55 697.15 463.64 C 698.86 467.06 700.63 470.47 701.89 474.09 C 689.48 470.46 677.60 464.90 665.32 462.29 C 658.27 468.31 648.04 463.78 639.13 465.93 C 631.15 455.16 620.19 467.90 611.14 470.33 C 592.73 482.59 571.48 476.82 550.99 476.05 C 519.17 473.86 496.48 448.18 476.48 426.44 C 466.21 426.80 457.39 436.39 446.65 436.87 C 439.40 438.12 442.23 448.74 435.53 450.62 C 427.88 450.41 419.37 452.95 412.12 449.76 C 410.64 443.21 421.37 445.41 425.03 444.67 C 430.29 443.22 423.83 438.02 421.57 436.50 C 416.43 434.13 421.15 423.85 414.04 424.10 C 384.91 430.58 356.21 439.00 326.52 442.40 C 288.19 443.93 248.63 451.48 210.61 444.44 C 197.34 438.17 180.70 442.77 168.01 436.03 C 170.58 433.83 180.49 438.40 185.38 435.71 C 174.71 430.64 160.83 432.16 151.74 424.37 C 162.42 424.15 172.63 428.47 183.34 427.62 C 173.90 423.44 160.69 421.19 154.28 413.63 C 162.34 413.29 174.33 420.83 184.19 419.97 C 177.12 416.01 170.21 411.81 163.81 406.84 C 180.93 409.26 195.97 419.78 213.11 423.02 C 213.65 418.04 205.50 419.11 205.76 414.13 C 241.66 428.64 281.74 441.77 320.42 431.39 C 314.54 429.78 306.46 432.62 301.70 428.15 C 316.69 427.76 330.70 425.06 345.09 421.56 C 336.67 419.02 351.68 419.63 354.50 418.60 C 373.21 410.85 397.21 410.22 414.72 397.75 C 423.24 389.54 436.25 389.60 447.27 387.66 C 444.14 385.38 435.98 387.00 436.10 382.19 C 443.74 376.63 454.02 380.10 462.34 376.86 C 457.19 373.00 448.51 376.69 443.93 372.07 C 447.52 370.98 456.86 371.70 449.74 369.22 C 443.05 366.84 459.96 367.66 453.14 365.79 C 430.70 363.78 408.07 370.11 385.59 368.47 C 378.25 367.01 392.91 364.46 387.02 360.29 C 406.26 351.57 427.96 351.60 448.88 353.70 C 462.96 346.50 479.60 348.57 494.41 352.49 C 517.39 355.35 540.27 347.91 563.41 349.72 C 588.41 348.09 617.06 345.94 638.85 360.09 C 637.93 348.71 643.03 359.19 645.67 361.41 C 673.00 357.52 702.64 353.85 731.04 357.84 C 742.24 360.75 751.52 351.83 762.46 353.27 C 768.92 355.24 774.05 347.18 780.51 350.55 C 786.96 354.75 792.01 344.49 798.72 345.15 C 802.11 347.31 800.58 351.81 801.28 355.22 C 806.42 348.06 810.01 335.28 820.74 336.10 C 823.59 340.79 819.32 347.64 819.95 353.09 C 832.46 348.26 830.92 328.82 843.90 325.18 C 846.76 332.63 839.26 341.17 838.95 349.15 C 853.86 344.07 854.95 321.77 870.19 318.17 C 868.99 328.54 859.81 336.56 858.47 346.54 C 872.49 340.33 877.82 321.52 892.02 315.29 M 470.34 362.13 C 465.92 365.99 477.76 365.35 479.62 362.59 C 477.30 362.47 472.66 362.24 470.34 362.13 M 447.48 416.49 C 438.36 421.23 428.26 419.12 418.84 422.12 C 423.53 428.67 428.14 438.52 437.72 437.79 C 443.60 432.50 441.89 422.79 451.97 423.36 C 450.80 428.38 455.68 427.49 456.69 423.66 C 467.21 420.46 451.58 414.65 447.48 416.49 M 703.17 459.17 C 702.15 463.80 707.79 458.15 703.17 459.17 M 695.14 461.37 C 694.33 465.34 699.13 460.71 695.14 461.37 Z" />


<path fill="#1e1f23" opacity="1.00" d=" M 453.30 421.25 C 458.26 421.08 451.82 426.41 453.30 421.25 Z" />


</svg>
