<?xml version="1.0" encoding="UTF-8" ?>
<!DOCTYPE svg PUBLIC "-//W3C//DTD SVG 1.1//EN" "http://www.w3.org/Graphics/SVG/1.1/DTD/svg11.dtd">
<svg width="1225pt" height="647pt" viewBox="0 0 1225 647" version="1.1" xmlns="http://www.w3.org/2000/svg">

<path fill="#1e2023" opacity="1.00" d=" M 887.34 316.35 C 888.53 316.04 889.75 315.87 891.01 315.85 C 885.83 326.88 878.14 336.40 870.96 346.14 C 886.51 342.78 893.06 321.51 909.07 318.89 C 902.38 330.09 891.31 337.70 883.93 348.21 C 895.18 342.76 903.62 331.83 916.10 328.90 C 893.29 350.63 864.11 366.26 832.72 370.76 C 823.34 377.61 810.32 376.54 799.59 374.56 C 778.32 374.11 757.52 379.12 736.51 378.33 C 714.67 379.40 691.40 374.32 670.87 384.11 C 679.30 389.57 688.92 393.80 691.17 404.87 C 700.82 411.16 700.72 423.82 700.55 434.42 C 698.44 443.23 710.26 447.99 707.43 457.00 C 710.68 464.38 714.12 471.93 714.89 480.15 C 709.60 475.52 703.39 470.99 698.73 465.27 C 691.98 460.55 704.68 472.95 700.10 473.92 C 687.44 470.61 676.29 463.24 663.43 462.36 C 658.64 467.64 650.93 464.69 644.01 465.37 C 637.76 468.89 635.24 459.68 629.62 461.56 C 614.45 467.53 600.28 476.84 583.96 479.07 C 562.74 475.23 538.96 478.45 519.77 466.24 C 502.63 454.55 487.95 440.05 474.89 424.05 C 467.16 429.91 456.02 436.58 446.04 435.17 C 451.55 433.07 440.72 423.99 443.40 433.41 C 436.20 435.93 438.48 448.49 428.99 445.79 C 422.35 444.85 415.61 446.47 409.04 444.90 C 408.00 435.63 420.95 441.03 424.92 437.84 C 419.88 432.13 414.93 428.29 415.72 420.07 C 348.83 433.96 279.74 444.85 211.37 435.54 C 198.23 428.93 182.48 432.10 169.81 425.21 C 173.28 424.31 177.06 425.15 180.33 423.49 C 169.77 420.49 157.83 419.62 148.69 413.04 C 158.67 413.06 168.18 417.10 178.25 416.84 C 168.79 410.71 155.52 409.32 147.92 401.04 C 159.84 402.05 170.09 409.75 182.15 410.11 C 175.47 403.86 162.57 401.80 159.95 392.85 C 176.86 400.55 194.02 408.83 212.24 412.96 C 209.07 409.55 200.15 405.96 200.94 402.93 C 231.87 417.52 265.75 428.15 300.41 426.51 C 309.54 419.70 325.29 422.53 337.96 417.81 C 363.07 412.04 388.86 408.00 412.72 397.76 C 421.12 388.16 435.00 388.40 446.57 385.79 C 445.85 383.36 435.78 385.71 436.17 381.24 C 442.93 374.36 454.25 379.48 462.32 375.86 C 457.60 373.18 434.62 371.55 452.05 369.94 C 444.69 365.19 456.64 367.45 452.65 364.14 C 430.14 363.46 407.72 367.19 385.22 365.83 C 381.21 362.54 392.25 362.64 387.27 358.83 C 410.03 344.73 439.99 356.25 465.02 348.04 C 480.63 345.92 495.23 354.23 510.81 352.72 C 539.08 349.82 567.34 348.82 595.69 348.25 C 610.19 352.26 626.80 349.61 638.74 360.12 C 637.84 348.86 643.21 359.95 646.30 361.77 C 673.91 358.72 701.73 354.44 729.57 358.55 C 741.60 361.97 751.92 351.00 763.88 354.86 C 769.51 352.03 776.36 347.75 782.02 352.82 C 787.91 347.76 802.51 340.56 799.21 355.20 C 805.11 348.46 807.04 337.20 817.77 336.08 C 822.68 340.19 816.47 347.77 817.93 353.08 C 830.45 348.66 828.10 327.99 841.77 326.11 C 843.82 333.29 836.14 341.35 837.03 349.24 C 851.91 344.68 851.96 320.02 868.13 319.01 C 864.08 328.54 859.49 337.82 854.90 347.08 C 869.52 342.30 873.93 323.15 887.34 316.35 M 472.40 361.34 C 466.33 363.33 477.22 364.66 479.30 362.34 C 484.83 359.78 472.81 361.56 472.40 361.34 M 444.41 413.44 C 436.44 417.78 426.74 414.86 418.92 417.99 C 419.80 426.01 432.13 439.20 439.81 428.77 C 444.03 427.30 451.84 413.24 454.07 419.76 C 443.82 423.53 458.92 426.56 461.96 420.78 C 457.90 415.47 450.28 415.16 444.41 413.44 M 701.42 459.13 C 701.51 464.09 706.53 457.46 701.42 459.13 M 693.21 460.48 C 692.94 465.54 698.35 460.63 693.21 460.48 Z" />

<path fill="#1e2023" opacity="1.00" d=" M 196.45 401.15 C 200.09 398.95 197.40 404.84 196.45 401.15 Z" />



</svg>
