<?xml version="1.0" encoding="UTF-8" ?>
<!DOCTYPE svg PUBLIC "-//W3C//DTD SVG 1.1//EN" "http://www.w3.org/Graphics/SVG/1.1/DTD/svg11.dtd">
<svg width="1225pt" height="647pt" viewBox="0 0 1225 647" version="1.1" xmlns="http://www.w3.org/2000/svg">

<path fill="#1f2124" opacity="1.00" d=" M 196.12 278.88 C 226.61 282.81 250.98 305.05 278.78 317.31 C 300.21 326.18 323.41 329.32 345.62 335.42 C 364.57 343.87 386.27 340.66 406.15 346.05 C 402.24 343.46 399.96 337.16 405.83 334.75 C 425.30 323.26 446.50 335.85 466.58 337.37 C 489.31 332.01 508.23 352.66 531.01 348.95 C 567.45 345.15 607.28 339.55 640.92 357.82 C 645.70 350.28 647.39 366.56 654.12 362.09 C 657.33 357.93 661.20 362.46 664.98 362.85 C 680.14 361.27 695.43 359.55 710.68 360.31 C 720.73 365.64 726.32 353.66 735.82 355.39 C 741.34 353.02 746.24 347.40 752.90 349.84 C 757.34 344.68 763.17 341.09 769.65 345.09 C 769.44 339.39 772.71 331.76 779.06 331.17 C 785.19 333.02 782.67 346.43 789.82 345.92 C 792.41 337.14 786.52 324.48 796.09 318.94 C 804.67 321.33 797.71 338.02 804.97 340.96 C 813.63 333.70 806.19 312.52 820.96 310.95 C 822.02 319.95 819.08 329.10 821.15 338.00 C 832.16 331.48 827.87 308.24 843.01 306.96 C 842.00 317.57 838.19 327.67 836.99 338.23 C 847.92 331.57 848.29 312.06 862.04 309.93 C 859.67 320.13 852.68 328.76 850.80 339.04 C 858.27 332.86 863.75 322.01 874.04 320.88 C 865.44 335.73 851.21 345.79 840.73 358.75 C 823.64 365.84 806.45 375.57 787.58 375.54 C 767.80 379.61 748.45 385.53 728.04 381.75 C 713.17 381.68 697.01 378.61 682.77 383.79 C 689.25 390.62 690.71 400.50 695.95 408.22 C 701.84 419.24 690.68 431.93 698.91 442.11 C 701.62 451.18 700.65 460.55 703.94 470.01 C 706.96 481.82 699.27 474.84 701.68 469.00 C 698.94 464.24 699.48 452.39 691.87 452.96 C 693.65 459.07 699.71 463.37 700.03 470.00 C 693.61 467.91 686.94 455.48 691.80 470.05 C 680.15 466.40 671.30 456.93 658.89 455.26 C 647.24 460.81 632.18 454.03 620.64 461.64 C 606.99 467.52 592.92 474.65 577.95 475.15 C 572.63 469.00 562.85 474.71 555.00 472.10 C 530.27 472.29 508.08 457.73 492.66 439.32 C 488.92 434.91 484.04 430.95 478.16 430.04 C 475.47 434.00 480.40 440.27 475.75 443.72 C 468.73 447.96 460.86 450.59 453.83 454.84 C 444.48 458.58 453.42 451.26 449.28 448.75 C 447.96 445.63 439.13 448.96 444.05 445.05 C 448.01 438.31 462.75 445.71 462.97 436.22 C 459.79 435.13 456.43 434.72 453.26 433.66 C 452.71 429.01 450.80 422.07 444.27 426.11 C 443.10 432.27 435.13 433.63 435.78 440.81 C 427.26 442.90 416.83 445.03 408.12 440.63 C 406.60 430.78 430.36 441.03 422.71 430.31 C 414.47 427.37 419.37 419.17 415.15 413.73 C 425.61 414.24 423.39 434.07 435.98 427.97 C 441.43 426.25 451.19 408.66 452.94 415.81 C 443.96 418.06 456.53 426.41 460.70 429.30 C 466.02 435.29 472.77 426.74 479.11 427.63 C 475.18 419.71 470.76 407.26 459.81 411.86 C 447.13 415.89 461.47 400.72 463.43 395.95 C 462.55 387.98 471.35 389.73 476.36 387.19 C 472.20 384.51 468.92 381.11 467.80 376.17 C 462.11 373.97 455.79 370.19 449.51 372.38 C 415.55 377.62 381.55 371.42 348.15 365.72 C 301.03 356.79 253.26 340.47 217.17 307.83 C 209.72 297.78 200.32 290.05 196.12 278.88 M 411.77 346.00 C 414.13 348.00 417.07 349.32 420.23 349.00 C 417.87 347.00 414.92 345.67 411.77 346.00 M 426.74 349.10 C 432.37 355.93 436.04 346.67 426.74 349.10 M 456.26 445.10 C 456.44 448.37 459.29 443.56 456.26 445.10 Z" />



</svg>
