<?xml version="1.0" encoding="UTF-8" ?>
<!DOCTYPE svg PUBLIC "-//W3C//DTD SVG 1.1//EN" "http://www.w3.org/Graphics/SVG/1.1/DTD/svg11.dtd">
<svg width="1225pt" height="647pt" viewBox="0 0 1225 647" version="1.1" xmlns="http://www.w3.org/2000/svg">

<path fill="#1f2124" opacity="1.00" d=" M 204.30 253.95 C 241.08 266.85 268.45 298.71 306.63 308.44 C 322.48 314.74 339.91 316.44 354.84 325.09 C 371.61 328.35 388.78 332.19 405.82 333.82 C 423.33 322.06 445.05 331.20 463.44 335.42 C 479.22 331.68 494.11 338.60 508.35 344.64 C 528.80 352.87 550.02 342.30 570.96 344.90 C 594.40 340.31 618.93 345.68 640.35 355.52 C 646.42 354.03 649.19 362.09 655.67 360.67 C 673.54 364.35 692.37 359.58 710.81 361.34 C 721.83 362.89 732.26 357.57 741.16 351.52 C 750.43 356.29 754.37 339.72 762.93 347.05 C 764.83 341.98 765.34 335.28 771.10 332.99 C 779.17 332.61 776.25 346.66 782.80 347.93 C 787.19 340.35 779.31 326.76 788.29 321.21 C 798.13 321.39 790.15 342.33 799.76 342.90 C 805.20 333.97 798.87 316.08 811.87 312.96 C 815.30 320.25 811.59 331.88 815.12 340.01 C 825.04 332.53 820.13 311.24 834.94 308.84 C 835.10 319.49 830.29 329.58 831.13 340.23 C 839.96 332.93 840.99 314.36 854.08 312.98 C 852.18 323.22 846.07 332.05 843.87 342.13 C 851.73 336.47 855.91 324.45 866.20 323.23 C 861.01 336.51 848.61 345.75 840.42 356.64 C 835.76 366.79 821.88 365.92 813.03 370.07 C 801.29 379.01 785.55 374.75 772.38 380.48 C 744.18 388.98 714.40 376.85 686.18 383.99 C 689.36 389.77 688.67 397.58 693.93 402.03 C 702.96 414.84 689.52 431.11 699.23 443.87 C 696.93 453.74 703.80 465.32 700.96 473.99 C 697.03 467.54 699.67 454.88 691.91 450.07 C 687.71 453.22 700.81 464.20 694.29 465.78 C 692.24 460.45 685.75 457.41 688.99 466.77 C 677.92 463.86 670.86 454.16 659.28 452.73 C 644.81 455.51 627.82 454.67 614.26 463.20 C 602.52 468.16 590.31 472.94 577.45 473.61 C 568.07 466.84 555.82 472.11 545.18 469.31 C 522.41 467.44 504.13 450.81 489.22 434.83 C 484.43 429.62 474.13 436.02 478.93 442.98 C 476.75 454.04 461.84 454.28 454.57 460.55 C 446.22 464.88 453.88 454.70 448.51 453.52 C 440.35 455.26 445.44 449.52 447.30 447.32 C 452.56 448.23 458.15 447.35 462.81 444.79 C 467.14 441.25 457.04 440.34 455.45 439.44 C 450.22 439.07 454.65 426.94 446.50 431.63 C 437.09 431.66 440.76 446.88 431.15 445.74 C 424.34 445.57 412.81 449.04 409.29 442.28 C 412.54 436.74 423.10 442.70 426.29 435.95 C 418.06 432.12 418.06 424.67 418.06 416.94 C 426.39 418.95 424.78 434.50 434.99 431.04 C 447.57 422.29 458.75 409.50 463.55 394.99 C 461.69 386.29 476.34 394.51 473.30 387.43 C 479.33 386.24 472.66 382.35 470.67 380.39 C 469.48 375.33 467.12 367.08 459.75 370.72 C 460.73 366.82 467.36 368.92 468.14 365.07 C 435.63 372.48 401.88 368.53 370.02 359.94 C 345.77 351.27 320.13 346.72 297.01 334.97 C 274.14 324.07 249.98 313.53 232.79 294.24 C 226.86 284.75 217.78 277.45 210.62 269.21 C 209.62 263.33 201.39 261.26 204.30 253.95 M 461.51 412.53 C 456.22 413.85 450.40 416.03 451.32 422.81 C 442.43 428.27 459.67 429.84 462.22 435.75 C 468.96 438.77 475.63 432.05 481.97 429.98 C 474.91 424.31 473.64 407.47 461.51 412.53 M 444.26 428.10 C 444.44 431.37 447.29 426.56 444.26 428.10 M 455.51 450.31 C 457.27 455.09 462.21 447.33 455.51 450.31 Z" />



</svg>
