<?xml version="1.0" encoding="UTF-8" ?>
<!DOCTYPE svg PUBLIC "-//W3C//DTD SVG 1.1//EN" "http://www.w3.org/Graphics/SVG/1.1/DTD/svg11.dtd">
<svg width="1225pt" height="647pt" viewBox="0 0 1225 647" version="1.1" xmlns="http://www.w3.org/2000/svg">

<path fill="#1f2024" opacity="1.00" d=" M 207.57 241.01 C 224.55 244.69 237.22 258.00 251.12 267.80 C 269.43 278.97 285.90 294.00 307.31 298.71 C 324.18 305.86 342.28 309.78 358.41 318.60 C 380.55 319.71 401.87 331.80 424.03 327.04 C 442.71 326.10 460.24 338.24 478.87 333.10 C 493.20 339.31 509.19 338.61 522.82 346.33 C 543.52 344.26 565.08 343.68 586.04 341.13 C 615.34 340.34 642.74 354.62 669.51 362.46 C 687.14 358.78 704.94 361.24 722.70 361.76 C 731.65 363.54 736.71 352.52 745.72 355.72 C 749.36 351.30 754.37 348.48 760.02 351.72 C 760.00 346.93 766.42 334.48 771.75 341.32 C 774.74 344.27 775.35 351.10 779.81 351.95 C 782.96 344.78 774.90 330.92 785.91 327.99 C 791.68 332.00 789.50 344.60 794.93 347.91 C 801.76 340.93 794.90 323.65 806.92 320.03 C 812.04 325.09 806.03 339.27 812.08 344.00 C 819.28 337.00 816.38 319.11 828.80 316.08 C 831.64 324.69 825.96 334.99 827.10 344.24 C 835.54 337.10 836.52 319.51 848.96 317.94 C 848.18 327.48 840.36 335.87 841.02 345.11 C 847.53 339.61 851.59 327.97 861.16 327.97 C 857.67 342.51 840.56 348.59 836.86 361.91 C 826.67 370.53 811.99 369.32 801.29 377.30 C 786.55 377.25 771.55 380.28 757.36 384.36 C 734.38 384.44 710.99 378.60 688.03 383.26 C 688.94 389.05 690.29 395.12 694.24 399.64 C 699.82 407.17 696.54 416.25 694.61 424.48 C 691.75 431.49 698.48 437.19 698.70 443.86 C 694.88 450.86 701.74 457.92 699.88 465.31 C 695.91 460.00 696.54 450.66 690.98 447.09 C 685.44 450.04 698.87 459.01 693.28 463.00 C 688.68 454.73 685.82 456.63 688.11 463.83 C 675.01 460.29 665.06 444.63 650.05 451.33 C 624.24 451.52 603.07 470.52 577.34 471.59 C 568.02 465.01 555.71 470.74 545.18 467.42 C 522.69 465.54 505.14 449.10 489.37 434.58 C 483.65 431.51 485.20 440.37 480.48 440.58 C 483.54 456.91 463.69 459.92 453.88 466.96 C 447.41 468.31 456.28 452.96 444.87 457.76 C 446.86 448.37 458.03 455.16 463.82 449.68 C 465.16 442.64 451.17 448.44 453.44 439.51 C 452.62 437.47 448.26 436.24 451.16 434.07 C 458.23 434.49 462.99 445.22 470.59 440.58 C 474.65 437.02 484.02 437.36 484.09 431.13 C 476.57 424.90 471.56 405.28 459.67 416.54 C 451.02 414.73 463.87 402.51 463.51 396.68 C 462.97 389.87 470.79 390.56 475.30 392.47 C 479.75 392.41 471.12 387.44 475.03 386.15 C 480.00 385.26 472.84 381.31 471.76 379.51 C 470.04 374.01 468.76 363.98 460.85 367.82 C 456.46 363.89 480.44 361.98 466.10 362.13 C 420.92 372.97 375.25 356.64 334.09 338.84 C 306.84 330.18 281.56 316.04 258.07 299.95 C 244.05 293.05 239.29 276.87 226.66 268.33 C 221.61 258.95 207.20 251.74 207.57 241.01 M 457.01 454.11 C 453.18 460.36 466.41 454.74 457.01 454.11 Z" />
<path fill="#1f2024" opacity="1.00" d=" M 453.42 417.39 C 459.33 418.51 446.88 424.36 453.42 417.39 Z" />
<path fill="#1f2024" opacity="1.00" d=" M 419.23 421.72 C 428.31 421.83 426.48 439.04 436.39 435.36 C 442.52 434.36 448.00 415.80 452.85 425.86 C 445.28 431.65 442.26 441.04 437.72 448.77 C 432.32 450.25 406.99 455.43 413.20 444.10 C 417.85 445.45 432.12 444.48 425.60 437.37 C 417.77 434.62 421.95 427.35 419.23 421.72 Z" />

<path fill="#1f2024" opacity="1.00" d=" M 698.30 466.41 C 701.27 464.50 699.56 469.59 699.96 471.20 C 699.32 469.74 695.37 467.05 698.30 466.41 Z" />
</svg>
