<?xml version="1.0" encoding="UTF-8" ?>
<!DOCTYPE svg PUBLIC "-//W3C//DTD SVG 1.1//EN" "http://www.w3.org/Graphics/SVG/1.1/DTD/svg11.dtd">
<svg width="1225pt" height="647pt" viewBox="0 0 1225 647" version="1.1" xmlns="http://www.w3.org/2000/svg">

<path fill="#1e2022" opacity="1.00" d=" M 597.47 306.50 C 614.98 304.11 631.93 309.89 648.88 313.21 C 658.40 317.36 665.61 325.95 675.48 329.26 C 684.53 329.59 686.11 340.44 688.67 347.34 C 689.71 351.07 694.41 351.85 696.06 348.13 C 701.11 350.50 706.67 351.28 711.89 353.11 C 712.73 361.65 723.25 355.57 728.13 360.83 C 732.76 366.50 738.07 357.79 743.02 360.92 C 744.35 369.43 755.94 365.64 761.43 371.49 C 765.39 375.07 770.30 376.25 775.19 378.72 C 776.22 393.86 797.72 396.48 802.07 410.94 C 824.22 434.80 849.97 455.07 874.06 476.96 C 893.65 494.87 918.09 506.27 937.50 524.37 C 940.58 525.18 945.92 532.39 937.21 528.81 C 923.92 520.16 908.49 519.76 895.93 510.13 C 891.42 506.17 885.48 506.65 880.16 504.82 C 852.52 487.53 822.58 474.29 794.80 457.19 C 787.55 458.00 779.38 460.54 772.74 456.24 C 765.71 450.18 755.89 453.15 748.10 448.89 C 743.35 446.57 738.53 444.33 733.04 445.90 C 722.62 443.07 712.96 439.50 701.98 439.97 C 691.63 432.65 678.07 437.95 667.88 430.17 C 659.96 432.67 649.04 433.13 643.57 425.66 C 632.97 429.74 621.88 421.53 612.88 429.98 C 582.57 444.32 546.06 442.85 513.97 435.88 C 528.38 452.87 524.35 479.72 508.16 494.10 C 505.40 508.30 496.09 520.92 482.86 526.88 C 478.81 536.23 468.15 538.26 459.94 542.81 C 450.81 539.53 462.10 534.52 465.60 531.65 C 468.63 527.80 473.77 527.27 477.30 524.05 C 465.00 521.80 456.31 535.07 443.91 532.96 C 443.02 527.84 451.27 523.74 449.10 519.87 C 429.01 520.76 409.67 539.69 389.03 533.79 C 392.34 525.49 406.33 526.10 409.89 516.88 C 395.44 512.59 373.24 536.61 360.00 522.24 C 365.17 519.66 369.89 515.51 375.57 512.33 C 378.88 508.07 371.37 508.41 370.69 511.90 C 363.78 510.20 355.67 519.25 351.64 511.17 C 337.61 509.01 325.85 519.87 311.64 517.77 C 317.29 512.17 326.25 511.25 331.23 504.88 C 322.73 499.67 312.98 512.73 303.31 507.96 C 302.58 500.42 303.71 494.28 310.90 499.02 C 322.02 493.72 301.41 493.45 308.69 484.72 C 313.42 483.12 315.50 479.72 311.78 475.52 C 313.69 464.32 326.12 455.35 319.66 443.33 C 311.39 438.61 325.26 432.31 328.51 428.55 C 329.94 422.82 337.46 419.26 334.46 413.35 C 361.04 394.38 395.82 394.52 425.59 382.69 C 421.89 373.50 448.07 377.02 447.79 369.98 C 450.47 364.00 469.97 366.67 467.95 357.41 C 460.16 357.52 443.98 361.46 454.85 352.08 C 431.78 345.29 408.18 362.17 385.13 358.02 C 386.53 355.30 387.50 351.68 390.79 350.70 C 409.59 342.82 430.96 345.97 450.36 341.36 C 456.69 334.70 466.69 336.22 475.01 335.90 C 503.26 335.01 529.45 323.65 556.33 316.47 C 569.31 310.53 583.10 306.71 597.47 306.50 M 478.37 338.32 C 460.96 339.92 485.07 341.04 478.37 338.32 M 689.09 398.01 C 691.69 405.03 683.04 411.01 689.78 417.19 C 691.63 420.25 700.69 431.79 700.47 423.34 C 701.24 414.61 700.39 397.90 689.09 398.01 M 332.22 504.25 C 330.16 509.90 337.63 504.05 332.22 504.25 Z" />



<path fill="#1e2022" opacity="1.00" d=" M 292.16 517.65 C 299.84 516.20 295.92 521.94 292.16 517.65 Z" />
<path fill="#1e2022" opacity="1.00" d=" M 316.17 522.57 C 321.74 521.17 317.61 526.96 316.17 522.57 Z" />
</svg>
