<?xml version="1.0" encoding="UTF-8" ?>
<!DOCTYPE svg PUBLIC "-//W3C//DTD SVG 1.1//EN" "http://www.w3.org/Graphics/SVG/1.1/DTD/svg11.dtd">
<svg width="1225pt" height="647pt" viewBox="0 0 1225 647" version="1.1" xmlns="http://www.w3.org/2000/svg">

<path fill="#242629" opacity="1.00" d=" M 517.45 274.43 C 528.08 277.51 539.07 286.58 546.63 295.36 C 548.74 305.56 561.93 301.16 564.38 311.63 C 578.03 321.12 594.51 310.99 608.61 307.49 C 623.84 302.01 641.84 303.33 655.12 293.48 C 657.96 285.11 676.26 295.96 671.04 283.85 C 682.07 289.94 696.67 286.91 704.29 299.65 C 719.00 323.44 722.49 353.46 740.18 375.85 C 745.83 393.50 753.83 411.52 751.74 430.27 C 754.95 437.55 755.46 445.19 753.91 452.99 C 757.09 473.05 757.64 494.15 760.98 514.82 C 755.82 514.36 751.05 515.56 746.30 516.87 C 741.79 507.92 737.30 498.90 734.70 489.17 C 722.36 466.61 698.69 453.35 682.91 434.04 C 675.72 433.94 668.31 431.09 664.54 424.54 C 662.52 422.12 661.09 416.68 657.24 419.16 C 651.30 422.56 648.15 415.12 643.12 414.95 C 631.69 427.17 617.19 437.60 600.67 441.47 C 573.66 446.17 545.41 449.82 518.24 444.26 C 513.12 454.98 512.11 468.79 510.18 480.93 C 513.11 490.82 501.93 498.89 494.16 501.19 C 486.05 508.92 474.00 510.63 466.54 519.53 C 463.15 522.99 459.51 514.71 455.14 516.62 C 452.78 509.18 465.88 513.29 467.05 507.00 C 467.84 502.75 462.90 501.36 460.02 499.76 C 462.31 497.35 461.48 493.12 457.55 494.39 C 445.13 493.18 453.70 512.21 444.11 513.09 C 442.47 509.41 447.54 497.94 440.24 500.16 C 435.57 513.90 431.85 528.02 426.52 541.56 C 426.04 545.41 418.30 547.78 421.94 540.00 C 421.47 532.89 429.14 521.04 424.10 517.03 C 415.92 526.90 416.56 543.10 408.62 553.89 C 401.49 548.87 411.77 539.68 407.93 533.04 C 403.55 536.12 402.95 541.86 399.72 545.73 C 392.37 550.75 397.49 536.51 396.89 533.06 C 393.85 523.81 407.81 512.41 399.01 503.86 C 402.37 485.53 403.76 466.74 410.02 449.01 C 415.47 439.99 404.36 431.30 410.71 421.95 C 415.07 407.80 425.67 396.87 431.97 383.73 C 422.81 386.21 421.77 402.98 413.05 401.82 C 415.99 391.90 425.31 385.37 429.15 375.87 C 423.97 377.77 413.41 389.10 419.93 377.75 C 413.23 380.45 406.18 381.46 398.90 380.94 C 400.87 366.71 417.54 363.46 425.77 353.83 C 429.84 350.42 442.96 341.05 431.62 345.78 C 438.02 338.28 448.74 335.97 455.09 328.31 C 450.44 325.99 441.15 327.88 440.36 321.28 C 452.74 309.00 469.07 300.79 486.00 296.90 C 497.22 290.65 504.91 278.93 517.45 274.43 M 446.45 345.35 C 440.92 348.26 436.04 352.48 431.87 357.12 C 436.87 354.70 446.04 348.24 446.45 345.35 M 694.07 380.75 C 693.15 384.94 699.24 393.50 691.36 390.01 C 690.68 399.32 697.91 410.03 706.95 412.09 C 706.53 401.07 704.09 387.04 694.07 380.75 M 484.38 408.32 C 479.04 409.81 478.09 416.51 478.02 421.15 C 484.92 420.91 497.47 407.99 484.38 408.32 M 476.26 435.27 C 462.68 445.83 463.77 466.33 457.13 481.11 C 452.14 491.30 466.58 492.16 472.83 496.83 C 478.54 490.86 475.42 481.83 477.54 474.49 C 478.82 461.96 480.41 445.78 476.26 435.27 M 492.53 442.32 C 481.83 448.92 483.07 463.44 483.90 474.05 C 488.13 478.11 496.16 484.43 501.06 478.04 C 508.52 469.33 508.39 456.56 513.98 447.08 C 509.86 440.92 499.22 443.65 492.53 442.32 M 482.28 485.11 C 476.49 493.29 492.74 495.22 493.00 487.18 C 490.11 484.58 485.76 485.35 482.28 485.11 Z" />






</svg>
