<?xml version="1.0" encoding="UTF-8" ?>
<!DOCTYPE svg PUBLIC "-//W3C//DTD SVG 1.1//EN" "http://www.w3.org/Graphics/SVG/1.1/DTD/svg11.dtd">
<svg width="1225pt" height="647pt" viewBox="0 0 1225 647" version="1.1" xmlns="http://www.w3.org/2000/svg">

<path fill="#212326" opacity="1.00" d=" M 507.45 230.63 C 523.32 233.38 540.22 227.93 555.38 231.63 C 561.17 238.34 561.49 248.84 567.25 255.88 C 602.75 251.76 635.70 236.53 671.76 235.32 C 679.29 241.75 681.29 254.73 674.07 262.13 C 665.57 270.37 652.48 276.88 655.02 291.08 C 641.85 305.62 660.62 308.80 671.15 308.31 C 685.55 308.31 687.01 326.32 695.55 334.39 C 700.30 340.29 696.68 348.08 696.46 354.71 C 701.51 362.05 701.95 370.83 704.07 379.18 C 701.13 376.33 693.41 365.91 696.89 377.23 C 699.51 382.67 696.30 382.06 692.21 379.87 C 699.03 391.96 683.59 388.28 677.34 386.25 C 666.47 401.40 650.55 411.59 639.79 426.79 C 610.11 454.84 566.51 455.36 528.32 456.26 C 525.11 468.72 523.28 482.21 521.90 495.09 C 526.66 504.74 516.29 509.13 511.51 515.46 C 505.63 513.42 499.29 528.50 495.71 520.18 C 495.39 518.16 494.45 516.04 492.18 515.74 C 495.48 526.50 482.46 529.81 478.23 537.24 C 475.76 539.73 472.98 536.63 471.48 534.59 C 468.96 534.90 464.82 535.12 466.13 531.28 C 470.48 528.84 479.07 528.74 476.93 521.28 C 471.96 518.70 468.09 515.06 467.18 509.09 C 472.01 505.28 476.50 512.74 480.77 513.90 C 485.14 510.32 483.22 503.81 484.12 499.01 C 486.28 480.23 487.85 459.83 480.39 442.19 C 483.06 435.07 493.37 433.22 495.99 426.07 C 494.58 421.09 485.62 424.08 485.02 418.35 C 494.48 419.24 494.72 409.03 486.97 406.07 C 482.75 391.40 466.13 395.44 454.02 392.99 C 439.44 397.99 426.46 408.21 411.23 410.92 C 406.97 402.11 419.40 395.56 426.66 392.63 C 466.89 386.49 497.07 358.11 533.73 342.75 C 539.43 339.92 532.09 339.79 528.82 339.24 C 508.39 337.15 509.46 312.83 497.04 302.26 C 489.55 303.46 481.90 304.80 474.32 303.70 C 467.42 301.73 463.80 294.66 457.94 291.02 C 453.26 292.86 450.16 298.11 444.87 298.89 C 426.72 294.79 409.34 307.98 390.92 305.19 C 381.91 305.57 369.45 292.36 379.73 285.71 C 394.32 281.29 408.01 273.84 421.23 266.19 C 428.05 258.79 440.13 262.10 446.67 253.70 C 463.88 239.32 485.44 233.08 507.45 230.63 M 500.18 455.37 C 490.04 463.40 489.86 476.75 491.18 488.60 C 498.37 490.29 505.71 499.42 512.81 493.80 C 518.69 484.67 520.23 473.49 523.24 463.22 C 527.31 449.45 507.17 460.41 500.18 455.37 M 492.25 494.31 C 487.34 495.13 490.94 502.31 490.58 505.36 C 493.80 511.95 502.29 506.78 506.15 504.01 C 502.12 499.50 494.40 500.43 492.25 494.31 Z" />


</svg>
