<?xml version="1.0" encoding="UTF-8" ?>
<!DOCTYPE svg PUBLIC "-//W3C//DTD SVG 1.1//EN" "http://www.w3.org/Graphics/SVG/1.1/DTD/svg11.dtd">
<svg width="1225pt" height="647pt" viewBox="0 0 1225 647" version="1.1" xmlns="http://www.w3.org/2000/svg">

<path fill="#1f2124" opacity="1.00" d=" M 509.34 205.41 C 519.06 209.42 531.60 206.22 539.31 214.44 C 549.53 212.38 560.39 216.28 565.69 225.38 C 578.01 225.12 592.68 226.37 603.40 219.36 C 617.10 220.41 631.34 215.72 644.64 220.24 C 648.94 223.77 650.21 218.73 652.73 216.87 C 662.04 214.08 679.60 217.96 675.10 231.09 C 665.07 239.48 652.25 245.74 648.54 259.47 C 646.24 273.61 640.45 287.36 640.08 301.79 C 651.11 304.85 663.21 305.60 674.85 306.08 C 685.28 312.37 688.88 325.18 696.56 334.29 C 694.01 348.50 701.83 359.81 704.61 373.42 C 702.03 370.87 699.86 367.28 695.89 366.89 C 697.68 372.61 701.13 380.56 692.97 374.09 C 700.05 387.02 684.30 385.04 677.26 382.06 C 671.02 398.28 654.68 406.56 646.26 421.24 C 619.02 454.73 571.95 457.53 532.08 459.15 C 533.02 474.33 523.78 488.96 527.82 503.85 C 527.80 511.29 518.90 513.25 516.74 519.84 C 509.34 517.10 507.92 528.48 500.40 527.18 C 503.04 523.01 497.39 514.99 494.59 521.48 C 494.58 532.58 484.93 534.44 480.83 542.66 C 476.87 541.43 469.12 539.67 469.17 535.34 C 474.26 533.70 482.64 530.39 478.27 523.81 C 471.19 524.86 472.17 517.98 469.35 514.06 C 474.23 508.34 482.20 523.26 484.96 514.93 C 487.89 492.03 491.23 466.83 482.29 445.39 C 487.30 440.04 495.00 436.53 498.10 429.33 C 494.86 428.53 490.81 429.12 488.06 426.80 C 486.42 421.12 499.65 425.73 494.97 417.08 C 490.58 414.12 488.31 409.00 484.65 405.24 C 474.87 404.53 465.08 404.89 455.31 404.31 C 443.32 409.38 433.56 420.23 420.31 421.87 C 413.97 416.51 424.23 408.77 429.62 406.60 C 446.72 399.61 465.85 394.79 479.96 382.98 C 494.80 366.20 515.85 356.88 534.96 345.79 C 527.54 337.47 512.62 340.00 504.31 331.66 C 497.12 327.26 496.03 318.51 493.58 311.34 C 485.14 304.86 489.51 291.63 477.18 287.92 C 452.20 282.43 472.50 254.08 467.80 238.07 C 447.57 243.02 426.92 247.82 405.98 247.14 C 401.56 247.42 403.44 239.69 406.23 238.24 C 425.24 227.87 447.25 225.96 467.99 220.94 C 480.91 213.93 493.91 204.89 509.34 205.41 M 562.24 445.27 C 560.07 450.47 567.20 444.95 562.24 445.27 M 502.32 459.22 C 491.90 468.22 489.95 484.36 493.99 496.87 C 500.86 489.46 507.04 501.30 514.69 499.83 C 524.32 490.71 525.32 476.28 528.63 464.08 C 530.11 459.24 524.68 457.49 520.69 459.71 C 514.61 462.02 508.46 458.65 502.32 459.22 M 496.31 497.22 C 490.78 500.79 493.11 509.23 492.35 515.10 C 497.28 509.89 505.91 512.85 510.78 507.74 C 512.24 503.50 503.76 505.74 502.42 504.49 C 498.16 504.43 500.99 496.24 496.31 497.22 M 508.34 513.30 C 505.28 513.43 498.08 519.82 507.64 516.85 C 508.92 516.53 510.04 512.55 508.34 513.30 Z" />




</svg>
