<?xml version="1.0" encoding="UTF-8" ?>
<!DOCTYPE svg PUBLIC "-//W3C//DTD SVG 1.1//EN" "http://www.w3.org/Graphics/SVG/1.1/DTD/svg11.dtd">
<svg width="1225pt" height="647pt" viewBox="0 0 1225 647" version="1.1" xmlns="http://www.w3.org/2000/svg">

<path fill="#202225" opacity="1.00" d=" M 725.14 144.30 C 744.95 149.12 762.34 166.10 759.97 187.99 C 756.33 198.10 764.98 203.57 768.69 211.34 C 769.67 222.28 762.38 231.06 754.36 237.36 C 751.64 251.00 756.08 269.25 741.34 277.34 C 734.31 287.99 719.10 285.53 708.01 289.02 C 696.62 292.91 681.68 290.32 674.04 301.07 C 677.39 307.98 681.56 315.37 687.97 320.07 C 696.69 327.26 686.92 339.72 694.99 347.01 C 700.35 351.14 699.04 357.57 700.74 363.19 C 698.32 361.44 695.92 359.46 692.91 358.88 C 692.77 363.32 697.16 365.88 698.26 369.94 C 694.10 368.05 690.16 365.72 685.97 363.89 C 688.78 367.72 694.04 370.81 693.03 376.38 C 684.25 380.25 671.41 368.18 667.84 381.76 C 650.45 390.55 644.13 411.47 628.76 422.76 C 608.18 440.25 580.55 442.93 555.34 449.31 C 550.73 451.54 541.12 446.68 539.42 453.40 C 539.34 470.68 533.32 487.56 535.92 504.84 C 530.06 509.16 530.39 519.79 521.50 519.58 C 518.75 522.16 516.60 526.30 512.22 526.10 C 509.72 524.70 514.51 514.55 508.34 517.31 C 500.42 519.61 505.76 531.81 496.39 532.40 C 497.99 536.95 486.39 545.94 488.84 537.17 C 486.50 536.57 484.10 536.59 481.72 536.58 C 476.57 529.02 492.85 528.68 489.96 520.32 C 481.25 523.50 484.92 513.20 478.82 511.90 C 482.12 503.90 491.77 518.20 494.39 510.35 C 496.45 489.13 495.63 466.99 489.13 446.86 C 479.84 438.22 496.56 434.02 499.39 426.39 C 508.40 419.79 487.28 423.89 491.99 418.08 C 496.93 418.11 497.46 414.51 496.33 410.48 C 474.10 409.80 452.15 414.15 430.12 417.14 C 426.37 418.03 411.56 430.00 414.36 422.35 C 429.97 411.62 446.37 401.91 461.67 390.65 C 465.43 387.39 473.48 385.84 471.37 379.47 C 487.83 369.51 500.60 354.40 517.96 345.79 C 510.38 343.17 498.46 346.09 490.14 340.84 C 469.61 326.61 444.69 319.44 420.05 314.85 C 403.81 316.56 386.76 310.14 377.20 296.84 C 367.31 293.19 357.50 290.41 348.19 286.61 C 345.30 278.46 354.19 275.20 357.22 269.14 C 365.44 269.65 374.56 270.59 379.58 278.13 C 379.01 281.65 375.32 289.83 382.99 287.12 C 395.18 285.96 382.12 287.46 379.76 285.01 C 407.26 281.93 431.92 299.33 459.11 298.15 C 474.97 294.49 490.46 302.77 506.42 301.65 C 521.49 306.85 538.11 303.58 552.96 311.12 C 562.00 316.25 566.63 303.98 567.24 297.19 C 575.21 292.80 572.39 282.68 579.92 277.96 C 595.92 273.51 602.93 257.44 612.53 245.54 C 623.99 236.82 635.02 228.73 645.66 218.68 C 653.69 216.70 649.05 207.16 654.26 202.24 C 665.39 192.61 675.10 183.98 678.28 169.27 C 682.69 167.60 687.56 167.84 692.11 168.81 C 690.72 165.94 688.96 163.21 688.13 160.10 C 693.71 156.98 701.24 152.70 706.64 158.23 C 702.31 150.09 711.06 143.02 717.90 148.04 C 723.02 151.60 723.77 147.64 725.14 144.30 M 390.26 286.10 C 390.44 289.38 393.29 284.56 390.26 286.10 M 529.36 450.39 C 522.13 453.72 514.14 453.04 506.38 453.31 C 498.39 460.29 498.12 471.79 500.68 481.31 C 501.18 484.89 497.91 501.27 505.50 494.52 C 511.72 490.28 518.84 502.31 524.28 495.27 C 531.73 486.10 531.24 472.92 534.48 461.94 C 534.01 458.10 536.13 447.65 529.36 450.39 M 504.29 497.20 C 499.76 500.17 502.19 507.15 502.67 511.31 C 507.62 513.40 527.57 503.07 515.07 502.91 C 506.91 507.16 511.02 494.05 504.29 497.20 M 520.31 508.34 C 517.30 510.67 514.62 513.41 511.89 516.05 C 515.88 516.94 523.90 510.91 520.31 508.34 Z" />
<path fill="#202225" opacity="1.00" d=" M 229.26 209.10 C 232.29 207.56 229.44 212.38 229.26 209.10 Z" />
<path fill="#202225" opacity="1.00" d=" M 234.14 211.53 C 239.76 211.46 233.28 217.01 234.14 211.53 Z" />




</svg>
