<?xml version="1.0" encoding="UTF-8" ?>
<!DOCTYPE svg PUBLIC "-//W3C//DTD SVG 1.1//EN" "http://www.w3.org/Graphics/SVG/1.1/DTD/svg11.dtd">
<svg width="1225pt" height="647pt" viewBox="0 0 1225 647" version="1.1" xmlns="http://www.w3.org/2000/svg">

<path fill="#232528" opacity="1.00" d=" M 819.24 225.66 C 831.34 225.92 842.95 228.99 854.35 231.56 C 859.09 234.68 855.59 242.35 860.22 245.53 C 863.71 246.67 866.71 250.70 864.25 254.16 C 861.00 259.48 863.95 266.86 859.40 271.39 C 855.94 276.27 849.96 278.59 846.56 283.50 C 847.06 291.40 838.80 296.58 832.03 297.99 C 802.42 300.28 775.91 314.45 747.48 321.42 C 728.55 320.20 709.47 319.02 690.51 317.62 C 690.07 324.87 691.05 332.56 692.25 339.79 C 695.70 344.51 702.49 351.66 698.84 356.97 C 689.80 351.93 694.58 360.53 698.02 365.87 C 691.93 362.76 693.28 368.57 693.80 372.73 C 686.25 376.18 678.90 369.43 671.31 372.40 C 664.94 371.66 663.95 383.09 656.41 380.41 C 644.21 390.14 639.29 406.95 626.04 416.06 C 601.33 433.50 569.33 438.07 541.39 444.36 C 540.24 455.75 540.30 467.24 538.49 478.57 C 536.25 488.42 544.83 499.95 534.88 507.75 C 534.09 515.24 525.47 513.80 522.93 519.94 C 520.99 522.07 514.78 525.32 516.40 519.97 C 513.03 511.30 525.39 511.51 525.88 503.73 C 520.54 507.76 515.53 512.24 510.24 516.32 C 510.25 522.75 507.01 526.47 502.06 529.06 C 502.80 533.91 492.65 541.42 494.85 533.22 C 490.55 530.60 486.28 536.59 486.94 529.98 C 485.75 525.91 498.65 521.55 495.16 515.94 C 488.29 517.11 486.55 510.98 484.84 506.03 C 489.44 504.83 495.34 509.23 499.11 507.15 C 501.35 485.49 498.48 462.77 491.80 442.18 C 482.91 431.39 501.04 426.94 503.02 417.18 C 499.63 414.35 494.37 416.53 491.07 413.78 C 489.88 410.04 500.31 411.07 495.73 407.10 C 482.98 405.67 471.52 414.14 458.50 411.61 C 442.91 416.16 425.71 413.41 410.85 420.15 C 427.69 404.62 448.47 393.80 465.79 378.78 C 460.55 371.72 491.01 363.75 473.60 363.65 C 445.00 377.88 412.36 370.05 382.86 380.59 C 378.29 379.17 367.10 387.45 367.74 379.17 C 361.56 379.18 351.75 386.84 351.77 377.11 C 330.51 379.05 308.72 374.10 290.04 366.02 C 281.60 368.00 284.40 359.00 278.44 356.49 C 276.02 353.31 266.45 351.36 271.19 346.20 C 286.91 338.96 305.28 342.85 322.00 340.93 C 349.12 338.89 377.34 352.41 403.39 341.43 C 429.41 334.60 457.74 338.66 483.14 328.17 C 506.19 326.46 524.99 309.48 548.69 312.67 C 571.99 294.87 605.63 285.36 636.65 285.59 C 658.71 270.70 683.62 263.42 708.29 254.25 C 719.20 255.23 721.29 245.47 730.54 241.40 C 735.06 235.35 744.06 241.99 748.30 236.08 C 753.05 231.93 759.60 238.52 763.92 233.87 C 770.12 229.31 777.66 237.50 783.06 232.08 C 792.11 225.14 803.43 231.82 813.47 229.95 C 812.25 226.24 816.81 226.53 819.24 225.66 M 687.84 361.87 C 691.14 368.44 694.66 363.10 687.84 361.87 M 532.28 443.51 C 525.15 448.14 517.01 445.64 509.33 447.31 C 497.43 459.54 506.27 477.19 506.10 491.77 C 513.58 488.00 523.30 498.20 528.70 489.65 C 533.63 477.82 535.19 464.75 535.97 452.03 C 535.47 449.87 536.41 443.02 532.28 443.51 M 509.25 494.34 C 505.71 495.97 507.07 500.65 507.41 503.55 C 507.85 513.04 522.94 504.28 523.07 499.07 C 516.34 501.65 512.34 498.38 509.25 494.34 Z" />



</svg>
