<?xml version="1.0" encoding="UTF-8" ?>
<!DOCTYPE svg PUBLIC "-//W3C//DTD SVG 1.1//EN" "http://www.w3.org/Graphics/SVG/1.1/DTD/svg11.dtd">
<svg width="1225pt" height="647pt" viewBox="0 0 1225 647" version="1.1" xmlns="http://www.w3.org/2000/svg">

<path fill="#1d1e21" opacity="1.00" d=" M 597.41 263.46 C 615.42 261.13 634.17 263.89 650.01 272.95 C 654.65 275.85 660.63 272.91 664.88 277.16 C 670.84 280.63 680.68 287.04 686.24 280.19 C 691.24 282.99 696.42 279.52 701.62 280.22 C 705.69 288.35 715.93 279.90 722.85 282.65 C 726.32 281.59 737.75 273.39 735.39 281.89 C 747.66 275.29 758.50 288.44 769.94 283.06 C 774.73 283.88 768.68 290.41 772.83 292.19 C 782.89 298.83 796.66 301.98 801.99 314.03 C 832.85 336.66 866.51 355.21 898.10 376.87 C 922.71 391.36 950.86 399.63 974.77 415.04 C 967.14 418.19 985.29 419.57 986.14 425.02 C 976.21 423.52 967.73 416.99 957.80 415.93 C 963.10 419.27 968.93 421.67 974.33 424.85 C 960.68 424.60 949.96 414.18 936.80 411.94 C 941.30 416.42 949.15 417.09 952.31 422.86 C 940.10 419.71 929.83 412.10 918.06 407.88 C 919.20 409.72 923.30 414.43 918.60 412.43 C 889.44 398.31 857.49 391.61 827.51 379.55 C 809.89 381.24 791.99 380.99 774.14 381.80 C 764.04 376.68 756.34 388.29 745.44 384.50 C 736.34 378.34 728.47 392.48 718.08 386.82 C 711.85 378.48 707.28 390.28 699.97 388.02 C 694.52 390.55 691.93 386.00 688.02 383.93 C 682.46 390.59 668.22 397.14 663.71 386.17 C 654.66 396.44 643.20 390.56 631.98 389.95 C 622.40 384.89 615.15 396.56 606.44 399.57 C 586.49 408.56 565.14 415.85 543.69 420.75 C 542.20 429.92 544.24 439.99 548.36 448.65 C 550.70 458.92 545.19 468.84 548.88 478.97 C 547.56 490.80 540.64 499.53 536.32 510.26 C 529.68 526.87 525.68 545.99 514.97 560.01 C 504.25 554.80 516.99 540.91 517.15 532.12 C 520.78 526.08 516.50 514.76 509.14 521.15 C 492.34 545.54 478.64 573.28 457.39 594.40 C 453.16 595.45 454.01 585.14 456.38 582.34 C 467.73 559.99 485.54 540.57 492.54 516.25 C 494.58 506.85 486.18 518.41 484.56 521.58 C 457.30 551.24 435.03 586.36 404.01 612.02 C 402.35 599.70 412.56 592.04 418.96 582.96 C 436.33 560.20 456.82 539.00 469.08 512.89 C 439.74 540.64 413.67 571.61 384.53 599.54 C 379.75 602.94 369.57 621.13 368.74 606.51 C 378.03 591.10 392.09 578.67 404.13 565.11 C 418.90 549.03 432.51 531.58 445.20 513.97 C 411.65 538.41 386.70 572.51 354.85 598.84 C 348.38 603.49 348.02 591.62 355.17 591.74 C 371.64 567.74 397.83 546.01 416.14 521.15 C 422.85 512.82 431.77 506.21 437.26 496.98 C 409.91 515.81 390.60 544.05 365.37 565.38 C 363.30 567.13 357.70 570.02 358.03 565.09 C 364.43 552.48 374.32 542.23 384.63 532.67 C 398.31 518.16 410.62 502.46 424.11 487.82 C 405.78 501.00 390.96 518.92 374.90 534.86 C 369.54 539.64 364.12 550.00 356.16 546.92 C 364.60 525.56 383.92 511.79 397.05 493.76 C 383.67 504.57 373.09 518.74 360.00 529.99 C 358.82 532.96 353.11 532.72 354.11 529.14 C 358.75 521.36 363.65 513.71 367.96 505.72 C 362.57 508.44 359.90 515.95 353.04 515.17 C 357.49 504.92 364.73 496.08 369.21 485.95 C 363.42 487.97 359.17 496.88 352.23 492.91 C 352.29 485.20 356.67 478.81 360.91 472.84 C 361.48 468.96 360.67 464.84 363.95 461.91 C 358.58 455.38 368.72 449.61 371.12 444.14 C 391.89 426.81 416.09 413.91 437.80 397.75 C 439.11 394.78 436.81 395.09 434.62 395.55 C 437.89 390.50 444.68 388.61 447.08 382.97 C 432.76 384.98 418.11 385.18 405.01 392.02 C 401.98 393.61 393.28 401.60 394.20 395.26 C 415.54 380.11 438.25 366.86 459.51 351.56 C 458.21 345.83 464.32 344.53 467.95 341.89 C 493.59 321.02 524.14 308.20 548.62 285.61 C 561.99 273.16 579.85 267.07 597.41 263.46 M 690.29 333.22 C 687.10 336.71 695.64 340.55 695.10 345.12 C 690.84 343.45 687.16 340.58 682.95 338.81 C 689.41 347.34 696.86 360.77 708.37 361.39 C 707.15 351.54 700.68 336.25 690.29 333.22 M 968.42 414.22 C 968.55 418.68 973.00 413.14 968.42 414.22 M 400.10 489.26 C 398.56 492.29 403.37 489.44 400.10 489.26 M 398.26 492.10 C 398.44 495.37 401.29 490.56 398.26 492.10 M 372.26 607.10 C 372.44 610.37 375.29 605.56 372.26 607.10 Z" />

<path fill="#1d1e21" opacity="1.00" d=" M 432.18 396.18 C 436.20 395.16 431.16 400.20 432.18 396.18 Z" />




</svg>
