<?xml version="1.0" encoding="UTF-8" ?>
<!DOCTYPE svg PUBLIC "-//W3C//DTD SVG 1.1//EN" "http://www.w3.org/Graphics/SVG/1.1/DTD/svg11.dtd">
<svg width="1225pt" height="647pt" viewBox="0 0 1225 647" version="1.1" xmlns="http://www.w3.org/2000/svg">

<path fill="#292b2f" opacity="1.00" d=" M 717.46 248.50 C 735.48 244.87 747.56 261.20 760.64 270.41 C 772.75 282.56 784.64 295.39 800.70 302.30 C 811.60 316.23 829.97 322.93 838.40 338.63 C 863.45 359.35 891.43 376.39 919.67 392.43 C 918.16 399.40 902.61 386.61 899.08 387.84 C 911.38 399.04 929.49 404.70 940.11 417.03 C 931.04 416.15 923.02 411.69 914.80 408.23 C 911.59 406.68 913.88 409.97 914.99 411.05 C 922.51 417.31 931.02 422.24 938.12 428.97 C 920.45 432.75 909.61 414.00 895.00 407.74 C 903.04 415.50 910.33 426.19 921.96 428.31 C 918.78 441.15 900.63 427.60 892.18 431.74 C 884.60 422.07 871.60 430.73 864.00 421.99 C 857.46 412.65 846.33 412.65 837.28 406.85 C 827.26 407.49 821.06 396.84 811.26 398.30 C 792.70 387.61 783.85 365.95 770.80 350.28 C 768.61 350.33 765.95 350.73 764.68 348.44 C 762.01 339.67 753.90 332.92 755.16 322.96 C 755.57 317.50 753.83 309.51 747.48 308.27 C 744.76 301.82 741.60 295.52 739.44 288.85 C 735.72 298.31 728.84 309.45 735.54 319.41 C 738.60 323.88 740.77 330.71 746.23 332.34 C 753.81 332.50 747.52 342.86 747.66 347.42 C 735.88 350.28 740.72 368.03 738.87 376.99 C 735.33 384.11 742.25 386.16 745.97 390.04 C 740.03 393.91 728.74 375.66 723.72 385.84 C 722.19 393.12 711.95 390.06 707.12 387.25 C 700.25 393.13 689.67 391.97 683.92 384.98 C 677.97 388.88 668.80 388.99 664.79 382.32 C 658.89 387.82 648.60 389.60 644.60 381.29 C 640.20 382.37 635.75 386.53 630.34 384.47 C 606.79 407.11 572.84 414.95 542.09 423.26 C 542.26 436.73 543.42 450.24 544.44 463.65 C 551.55 475.08 547.84 491.94 537.07 499.08 C 535.13 505.05 530.68 506.28 528.64 500.13 C 520.93 499.45 530.37 513.97 518.28 509.27 C 517.63 514.64 515.44 520.05 508.66 517.27 C 501.66 513.97 507.73 508.55 512.79 507.60 C 513.52 502.62 506.52 498.25 502.03 498.94 C 501.85 503.48 502.53 507.98 502.69 512.51 C 491.41 516.32 497.58 538.02 484.39 534.74 C 477.49 526.10 489.13 512.72 480.30 506.24 C 467.76 530.85 458.54 558.69 443.66 582.71 C 440.67 589.48 435.05 582.97 436.39 578.35 C 442.31 561.86 447.52 545.05 455.11 529.20 C 457.76 525.34 456.03 516.87 451.07 522.02 C 437.44 548.33 422.65 574.59 407.25 600.18 C 406.33 603.36 397.70 613.99 398.21 606.14 C 407.54 577.52 425.53 552.26 435.01 523.63 C 433.76 523.30 432.22 521.72 431.13 523.07 C 409.50 553.42 393.91 587.91 371.78 617.83 C 366.18 617.70 371.00 610.32 372.42 607.51 C 387.70 575.27 408.94 545.56 421.18 512.06 C 413.10 516.89 410.07 526.54 404.93 533.92 C 389.81 557.63 375.90 582.07 360.74 605.75 C 358.54 609.00 351.67 615.28 355.36 605.34 C 374.20 569.05 396.61 534.32 412.97 496.83 C 395.06 519.51 385.78 548.93 365.28 569.26 C 365.42 559.03 373.83 551.54 375.87 541.81 C 366.65 546.13 367.53 539.71 371.00 532.99 C 367.84 509.64 379.07 486.03 374.35 463.36 C 376.91 455.87 379.37 451.64 383.00 445.84 C 381.07 447.73 374.52 451.26 375.37 446.33 C 386.10 428.04 398.96 410.89 412.83 394.89 C 414.08 391.63 419.96 387.84 416.96 384.06 C 408.99 387.81 401.79 393.01 393.88 396.85 C 387.17 398.11 393.08 389.02 397.08 389.12 C 417.89 377.97 436.79 364.14 453.73 347.72 C 461.25 336.16 467.42 321.32 480.11 314.37 C 484.66 316.52 485.23 309.54 489.66 311.29 C 493.30 310.90 504.63 315.13 503.38 307.99 C 507.68 305.48 520.35 312.86 520.59 304.37 C 537.46 300.86 547.90 284.99 563.17 278.08 C 587.90 264.50 618.49 262.55 644.95 271.91 C 650.88 277.12 647.53 265.51 652.37 268.58 C 656.41 270.38 666.93 270.91 664.21 264.13 C 676.71 257.56 692.86 260.47 703.14 249.06 C 707.86 251.88 712.69 250.19 717.46 248.50 M 710.99 320.22 C 708.12 326.28 714.97 335.93 722.06 335.04 C 722.00 327.79 718.39 321.77 710.99 320.22 M 687.12 333.17 C 684.26 337.14 694.61 341.75 693.43 345.34 C 690.98 346.49 686.14 340.40 686.41 345.80 C 689.69 352.79 697.60 362.32 705.92 360.87 C 702.50 350.42 698.01 337.61 687.12 333.17 M 684.10 342.26 C 682.56 345.29 687.37 342.44 684.10 342.26 M 798.86 374.93 C 798.06 379.56 800.26 382.93 804.16 385.02 C 804.83 380.10 798.05 380.29 798.86 374.93 M 805.21 385.32 C 801.67 388.73 809.06 388.93 805.21 385.32 M 902.54 400.28 C 905.04 403.63 908.70 405.90 912.23 408.05 C 911.16 403.54 905.92 402.41 902.54 400.28 M 885.53 414.14 C 885.45 419.76 891.01 413.28 885.53 414.14 M 889.15 416.45 C 886.94 420.09 892.85 417.39 889.15 416.45 M 891.10 418.26 C 889.56 421.29 894.37 418.44 891.10 418.26 M 534.31 424.41 C 528.63 426.87 522.58 428.10 516.63 429.65 C 514.37 442.97 512.16 457.12 516.98 470.05 C 522.50 477.23 535.18 476.99 536.94 466.88 C 538.15 454.33 540.26 433.73 534.31 424.41 M 510.72 483.76 C 507.14 483.76 506.14 489.48 509.64 490.41 C 515.12 496.70 517.98 477.99 510.72 483.76 M 519.79 482.98 C 521.35 484.81 523.09 486.50 524.89 488.12 C 528.08 494.07 538.06 481.88 530.46 484.30 C 529.49 490.87 523.79 479.39 519.79 482.98 Z" />



<path fill="#292b2f" opacity="1.00" d=" M 756.62 360.67 C 767.69 358.76 774.74 368.82 780.28 376.68 C 786.62 381.06 783.71 389.79 779.54 394.74 C 761.04 400.78 743.05 381.16 748.23 363.46 C 751.07 362.70 753.97 362.02 756.62 360.67 Z" />
<path fill="#292b2f" opacity="1.00" d=" M 762.26 360.10 C 765.28 358.56 762.44 363.37 762.26 360.10 Z" />









</svg>
