<?xml version="1.0" encoding="UTF-8" ?>
<!DOCTYPE svg PUBLIC "-//W3C//DTD SVG 1.1//EN" "http://www.w3.org/Graphics/SVG/1.1/DTD/svg11.dtd">
<svg width="1225pt" height="647pt" viewBox="0 0 1225 647" version="1.1" xmlns="http://www.w3.org/2000/svg">

<path fill="#25272b" opacity="1.00" d=" M 675.47 227.45 C 696.12 226.23 712.62 243.41 728.22 254.77 C 751.09 274.82 780.24 287.15 798.20 312.80 C 798.23 324.41 812.78 328.75 817.12 338.86 C 836.10 363.74 854.70 389.15 871.29 415.71 C 876.28 421.66 864.36 419.92 862.07 416.93 C 837.88 398.49 813.68 379.82 788.96 362.03 C 786.70 354.87 780.33 350.79 775.31 345.67 C 757.21 331.34 743.65 310.82 722.15 300.95 C 721.92 314.47 732.47 326.98 737.05 339.08 C 732.01 336.46 726.68 331.69 720.02 331.94 C 717.63 338.22 724.20 343.91 720.70 349.83 C 708.29 352.18 696.11 348.76 687.72 340.18 C 679.98 339.43 687.20 348.47 689.11 351.08 C 684.80 350.81 682.06 346.80 677.98 345.78 C 680.07 348.36 682.49 350.79 683.76 353.93 C 679.07 360.45 668.73 354.87 660.37 357.23 C 660.55 363.92 655.09 366.24 649.40 367.39 C 639.02 377.18 632.53 390.97 620.64 399.66 C 601.56 413.13 578.56 419.44 556.54 426.43 C 551.59 429.57 542.19 425.86 539.32 431.27 C 541.75 446.74 539.76 463.06 546.53 477.62 C 544.51 484.46 544.75 496.21 535.82 497.87 C 534.26 500.71 530.13 510.25 527.19 504.87 C 520.65 496.73 534.00 493.96 534.04 485.84 C 528.26 492.45 518.89 499.00 521.88 509.05 C 523.18 513.15 517.73 513.52 516.29 516.24 C 516.05 519.38 512.32 527.47 509.42 523.83 C 510.31 515.59 499.02 524.84 501.03 520.25 C 497.47 514.35 505.68 512.43 507.74 507.70 C 509.87 501.21 499.20 504.53 498.70 498.28 C 492.46 489.49 512.39 500.70 510.53 491.52 C 508.30 473.60 506.28 454.96 497.51 439.04 C 500.25 431.47 487.75 428.39 491.95 420.98 C 496.46 415.39 502.31 407.77 495.87 401.14 C 489.74 395.43 484.21 389.12 482.26 380.69 C 476.13 422.47 481.50 465.14 475.76 506.98 C 466.46 500.52 472.79 485.13 470.01 475.99 C 468.54 469.13 471.79 453.74 464.27 451.03 C 457.50 481.73 455.73 513.31 449.03 544.01 C 448.83 547.66 446.75 550.67 444.19 553.04 C 438.52 520.56 449.60 488.14 450.95 455.75 C 436.12 487.59 431.71 523.92 420.44 557.38 C 419.02 563.58 416.77 569.83 411.98 574.23 C 413.67 540.68 426.04 508.89 432.03 476.02 C 432.17 472.74 435.81 468.00 432.29 466.07 C 421.19 489.36 414.57 514.51 405.65 538.64 C 399.86 552.90 397.50 569.99 387.15 581.17 C 393.75 542.42 411.01 506.04 419.77 467.72 C 410.57 479.40 407.17 495.35 401.02 509.01 C 393.65 527.67 386.33 546.34 378.77 564.92 C 376.90 567.70 375.72 572.49 371.91 573.11 C 381.07 539.46 398.34 507.95 405.00 473.78 C 396.83 489.91 392.09 507.65 383.57 523.59 C 381.13 525.34 378.42 534.62 380.52 524.49 C 385.15 508.00 392.73 492.25 397.05 475.79 C 392.99 480.31 391.71 486.52 388.07 491.31 C 387.46 483.45 393.04 476.87 393.19 469.02 C 391.19 470.69 387.15 476.51 390.09 467.08 C 394.36 453.88 400.06 441.08 403.92 427.70 C 399.66 431.69 400.47 439.83 392.94 441.06 C 394.50 426.45 404.39 412.91 404.91 398.89 C 399.47 405.93 397.48 415.07 392.07 422.18 C 389.88 415.42 397.39 409.08 397.77 402.05 C 395.56 398.48 392.67 406.23 391.23 402.66 C 387.88 382.84 410.13 370.74 409.96 352.26 C 400.50 355.07 404.38 344.35 404.14 339.15 C 414.16 325.49 427.97 315.62 443.07 308.16 C 454.80 304.69 456.51 290.51 465.20 283.24 C 473.54 270.59 489.31 281.80 500.57 284.44 C 508.34 284.78 514.38 294.70 522.02 290.00 C 529.50 293.56 537.39 296.12 545.84 295.84 C 565.39 280.85 589.60 275.33 613.60 273.60 C 624.76 266.68 634.59 257.22 642.85 246.95 C 644.23 239.32 652.82 238.22 658.95 236.69 C 653.16 225.46 670.60 233.85 675.47 227.45 M 406.10 397.26 C 404.56 400.29 409.37 397.44 406.10 397.26 M 404.22 423.53 C 401.73 428.00 407.86 425.54 404.22 423.53 M 530.40 430.43 C 524.72 433.99 518.22 434.31 511.76 434.65 C 504.36 447.63 511.34 462.65 515.13 475.69 C 521.26 474.00 529.62 480.54 533.28 473.27 C 537.86 462.53 535.79 450.24 535.28 438.87 C 535.33 435.70 535.18 428.68 530.40 430.43 M 408.22 464.17 C 408.00 466.55 409.17 470.05 405.90 469.69 C 403.51 481.49 413.27 463.86 408.22 464.17 M 516.04 479.84 C 517.32 483.73 515.74 495.05 522.86 490.83 C 526.79 490.66 534.21 480.06 527.02 483.06 C 521.68 488.00 520.07 481.21 516.04 479.84 M 509.46 509.45 C 502.70 516.29 512.39 513.97 509.46 509.45 Z" />
<path fill="#25272b" opacity="1.00" d=" M 746.35 343.32 C 751.99 341.13 763.85 357.90 753.17 353.82 C 748.77 353.19 739.10 344.58 746.35 343.32 Z" />
<path fill="#25272b" opacity="1.00" d=" M 760.26 355.10 C 763.28 353.56 760.44 358.37 760.26 355.10 Z" />

<path fill="#25272b" opacity="1.00" d=" M 390.15 422.45 C 393.85 423.39 387.94 426.09 390.15 422.45 Z" />




<path fill="#25272b" opacity="1.00" d=" M 386.26 492.10 C 389.29 490.56 386.44 495.37 386.26 492.10 Z" />

</svg>
