<?xml version="1.0" encoding="UTF-8" ?>
<!DOCTYPE svg PUBLIC "-//W3C//DTD SVG 1.1//EN" "http://www.w3.org/Graphics/SVG/1.1/DTD/svg11.dtd">
<svg width="1225pt" height="647pt" viewBox="0 0 1225 647" version="1.1" xmlns="http://www.w3.org/2000/svg">

<path fill="#212326" opacity="1.00" d=" M 622.47 198.38 C 633.00 195.46 649.61 206.40 646.99 217.92 C 655.82 241.26 651.88 267.91 666.41 289.42 C 664.00 298.69 666.56 307.28 673.70 313.50 C 669.19 327.35 680.96 336.04 679.63 348.54 C 673.26 352.23 682.60 356.67 682.94 361.27 C 678.91 359.16 675.36 356.00 670.88 354.86 C 673.26 357.92 678.46 360.48 676.84 365.74 C 670.82 370.76 661.35 360.76 657.25 368.41 C 654.71 383.12 656.93 398.77 652.90 413.20 C 648.10 402.67 648.24 389.78 643.93 379.00 C 633.69 385.69 631.47 400.09 620.45 406.44 C 597.39 427.67 564.27 432.44 535.30 440.09 C 538.92 454.06 534.55 469.55 541.62 482.45 C 541.49 495.23 532.22 504.46 522.87 511.85 C 519.21 512.76 520.19 505.73 519.08 503.26 C 523.40 500.74 527.70 497.98 528.85 492.65 C 522.10 496.52 518.44 505.25 510.00 506.16 C 510.13 495.71 523.24 496.58 526.14 488.01 C 518.23 491.19 514.20 486.11 509.10 482.88 C 513.34 475.32 524.09 486.75 528.82 479.78 C 535.32 467.89 531.64 452.70 531.15 439.70 C 521.30 435.12 509.58 441.75 499.19 440.24 C 486.01 455.35 501.20 474.44 500.07 491.89 C 504.10 498.36 511.81 514.64 500.42 517.57 C 502.15 520.44 498.26 530.22 494.99 525.03 C 493.44 519.59 483.77 525.43 485.18 518.35 C 490.29 513.76 490.01 521.42 495.26 516.33 C 494.15 508.58 485.45 506.18 480.89 499.82 C 483.56 494.34 490.92 500.56 493.85 496.64 C 494.78 483.79 491.21 471.19 491.46 458.33 C 490.17 450.90 482.68 445.33 484.48 437.36 C 481.13 434.21 474.20 427.23 480.38 423.31 C 486.42 420.90 493.59 410.31 485.54 406.56 C 477.56 406.39 480.52 403.21 484.81 401.76 C 482.37 396.04 473.68 393.88 476.67 385.56 C 472.60 384.82 469.53 381.96 467.78 378.32 C 457.31 381.43 446.32 380.53 435.65 381.64 C 419.91 388.61 408.24 405.43 389.42 404.42 C 380.16 403.42 375.37 414.60 367.26 416.25 C 364.32 406.92 354.96 414.33 348.28 414.26 C 350.07 420.06 340.06 414.96 337.17 416.86 C 337.32 412.38 341.32 409.23 342.12 404.95 C 337.12 405.10 333.60 410.98 328.59 410.45 C 326.93 405.00 335.21 400.82 330.33 395.67 C 326.48 388.34 339.07 384.69 341.63 378.67 C 346.24 375.73 340.15 370.46 343.87 366.89 C 350.25 358.90 347.36 347.80 355.44 340.82 C 352.95 332.82 363.88 329.21 361.38 321.32 C 382.49 288.18 414.72 263.45 448.50 244.37 C 472.36 242.78 487.79 215.72 511.84 218.09 C 518.39 227.50 527.08 235.08 529.75 247.18 C 536.98 250.53 549.28 252.35 554.95 243.96 C 564.70 232.21 583.40 232.04 590.53 218.57 C 599.14 208.91 612.22 206.01 622.47 198.38 M 471.12 293.11 C 467.29 303.13 459.02 310.56 458.88 321.91 C 454.64 337.18 448.72 356.04 431.78 360.78 C 425.00 366.99 419.84 375.05 412.99 381.42 C 413.99 382.04 415.10 383.10 416.33 382.30 C 432.64 376.25 449.02 368.83 463.20 358.89 C 457.80 359.70 453.28 363.32 447.84 364.02 C 448.47 360.82 452.70 360.61 455.01 359.03 C 470.49 353.25 481.82 340.39 497.03 334.13 C 504.62 331.08 511.82 327.05 518.14 321.84 C 515.60 317.98 509.72 320.66 505.98 318.97 C 489.78 317.20 485.89 298.06 471.12 293.11 Z" />

</svg>
