<?xml version="1.0" encoding="UTF-8" ?>
<!DOCTYPE svg PUBLIC "-//W3C//DTD SVG 1.1//EN" "http://www.w3.org/Graphics/SVG/1.1/DTD/svg11.dtd">
<svg width="1225pt" height="647pt" viewBox="0 0 1225 647" version="1.1" xmlns="http://www.w3.org/2000/svg">

<path fill="#202125" opacity="1.00" d=" M 627.29 184.49 C 640.08 187.72 641.57 203.71 635.50 213.57 C 627.09 227.45 639.34 241.49 633.66 256.27 C 633.43 262.17 624.49 262.07 623.59 267.63 C 622.58 274.61 622.83 281.76 623.09 288.81 C 630.88 296.52 643.76 287.56 649.80 297.22 C 654.29 305.31 662.32 310.12 667.85 317.15 C 667.57 325.67 666.36 335.12 674.75 340.23 C 678.29 342.93 678.85 351.23 673.07 350.38 C 671.83 354.97 678.43 356.59 678.13 361.07 C 674.17 359.77 670.70 357.38 666.82 355.91 C 668.98 359.47 674.35 361.56 672.94 366.80 C 665.92 370.22 655.71 363.57 650.36 371.35 C 647.44 380.14 635.69 378.95 633.06 388.02 C 614.38 426.03 569.86 435.03 532.79 443.67 C 533.58 456.01 533.09 469.60 534.83 482.26 C 542.52 496.89 528.49 511.33 517.19 519.12 C 510.74 509.69 523.01 507.17 524.15 498.90 C 517.66 502.65 514.09 511.36 506.01 512.13 C 506.30 502.53 517.69 502.46 521.34 495.25 C 513.14 498.45 511.15 492.35 504.96 490.72 C 508.07 481.47 521.34 494.67 525.28 485.27 C 530.87 472.42 529.80 456.83 528.20 443.69 C 516.73 440.01 503.47 445.02 491.62 443.58 C 480.15 453.20 487.69 469.43 488.56 481.94 C 487.80 495.49 498.67 506.95 495.83 519.78 C 487.23 519.89 493.54 530.15 486.46 531.79 C 485.82 526.36 480.02 527.33 476.07 525.80 C 474.79 522.27 478.30 521.09 480.87 520.03 C 478.33 527.55 490.97 519.46 483.88 516.34 C 480.30 509.78 473.66 510.63 472.01 503.15 C 475.91 501.98 480.42 503.59 483.73 500.59 C 486.01 487.60 481.74 474.46 482.95 461.46 C 476.22 452.95 479.21 441.25 471.03 433.99 C 466.13 424.69 485.50 424.77 482.78 414.34 C 481.92 410.44 472.80 412.62 477.62 408.60 C 482.00 402.29 469.36 398.81 471.73 392.26 C 463.97 379.20 449.64 390.53 438.04 387.12 C 419.83 388.84 408.53 406.65 391.14 410.98 C 387.10 404.02 392.76 398.46 398.81 395.87 C 418.86 387.22 439.68 379.32 457.19 366.00 C 452.79 366.35 449.20 369.34 444.89 370.06 C 445.25 365.84 451.28 366.03 453.99 363.95 C 466.85 357.82 476.81 347.07 489.33 340.36 C 499.03 336.48 508.52 331.48 516.03 324.11 C 501.13 320.24 483.98 321.33 472.07 309.91 C 462.25 297.29 449.76 287.26 437.19 277.73 C 424.89 272.37 407.80 272.68 399.07 284.04 C 380.23 287.61 367.87 306.50 350.31 313.67 C 336.37 311.67 331.32 297.49 335.44 285.50 C 344.16 272.07 354.54 259.50 366.42 248.43 C 375.10 241.70 381.49 229.93 393.04 228.30 C 394.13 222.82 390.63 217.69 391.26 212.36 C 406.67 199.29 428.35 195.76 448.03 196.96 C 462.65 199.75 478.20 196.80 492.12 203.51 C 500.21 201.78 514.43 198.74 517.88 209.04 C 520.22 220.15 533.97 222.99 543.52 220.39 C 555.04 215.60 569.20 218.55 579.90 211.93 C 590.22 195.41 609.81 190.09 627.29 184.49 M 478.37 524.14 C 477.71 528.13 482.34 523.33 478.37 524.14 Z" />

</svg>
