<?xml version="1.0" encoding="UTF-8" ?>
<!DOCTYPE svg PUBLIC "-//W3C//DTD SVG 1.1//EN" "http://www.w3.org/Graphics/SVG/1.1/DTD/svg11.dtd">
<svg width="1225pt" height="647pt" viewBox="0 0 1225 647" version="1.1" xmlns="http://www.w3.org/2000/svg">

<path fill="#1f2125" opacity="1.00" d=" M 525.94 62.00 C 533.31 61.49 538.13 74.34 539.24 62.24 C 553.75 71.99 564.59 87.07 579.48 95.69 C 593.89 92.75 602.51 108.19 608.97 118.99 C 616.25 130.34 619.00 145.48 632.14 151.92 C 641.75 160.50 657.13 170.68 652.78 185.68 C 653.28 200.19 638.98 208.05 632.13 219.04 C 619.57 239.66 613.07 263.79 611.22 287.72 C 617.32 292.37 627.09 296.45 635.12 293.25 C 643.72 293.68 646.88 303.53 652.44 308.42 C 662.51 311.92 664.57 322.45 663.88 332.14 C 671.08 338.64 673.37 347.14 678.25 355.02 C 675.25 353.15 672.83 349.62 668.91 349.94 C 669.15 354.41 673.90 356.88 674.99 361.15 C 670.37 358.90 665.68 356.78 660.89 354.94 C 664.15 358.18 670.79 360.96 669.49 366.67 C 660.04 371.34 644.42 364.21 641.46 378.50 C 625.33 381.41 624.80 401.23 612.79 409.79 C 591.35 433.21 558.64 438.63 529.28 446.39 C 528.40 464.94 526.03 484.15 531.87 501.90 C 527.79 508.33 528.19 520.04 519.25 521.32 C 517.76 522.78 510.26 534.16 509.44 527.34 C 504.78 518.52 518.35 516.46 518.96 507.72 C 511.41 511.31 507.82 520.71 498.98 522.13 C 499.39 513.20 508.62 512.89 513.73 507.64 C 515.60 501.07 505.12 511.17 504.17 504.86 C 503.65 501.21 500.39 502.06 497.69 502.60 C 502.02 492.34 516.66 505.05 520.37 493.38 C 523.69 478.40 526.32 462.28 522.65 447.12 C 509.87 446.29 498.11 452.77 485.25 451.20 C 472.85 462.09 479.84 479.67 480.21 493.84 C 479.08 507.38 488.51 519.07 487.35 532.27 C 485.86 535.20 480.82 531.43 481.49 535.94 C 483.57 543.83 474.49 546.68 472.70 537.58 C 475.96 534.48 479.19 521.91 472.49 526.87 C 471.56 521.56 463.53 521.93 462.28 517.26 C 464.60 511.97 472.06 516.89 473.73 510.63 C 475.91 486.52 473.19 460.99 463.59 439.65 C 467.99 433.59 474.01 428.71 478.05 422.07 C 476.00 418.34 471.97 417.15 468.01 416.72 C 474.47 413.04 474.43 405.32 467.28 402.67 C 467.20 393.34 454.96 393.46 448.34 394.41 C 433.96 397.41 417.51 393.62 404.67 402.62 C 397.51 405.88 391.66 413.17 383.30 412.89 C 379.53 408.73 386.63 406.63 389.18 404.22 C 408.55 395.17 428.28 386.27 445.72 373.73 C 450.88 369.51 437.11 374.90 442.43 371.42 C 460.00 362.46 473.05 345.61 492.59 340.49 C 497.63 336.50 503.98 333.86 508.19 328.92 C 496.57 330.88 484.06 333.20 472.94 328.07 C 461.83 322.73 457.70 308.25 461.81 297.34 C 452.46 292.63 451.40 282.37 449.63 273.41 C 443.99 269.79 438.64 265.26 436.24 258.83 C 433.20 244.37 413.03 244.28 408.50 230.39 C 404.88 211.57 398.14 192.73 399.61 173.33 C 389.17 152.94 373.17 135.89 358.70 118.29 C 347.44 107.53 331.92 96.06 333.00 78.85 C 338.02 70.77 349.06 86.70 351.08 77.12 C 366.85 86.09 380.80 97.86 395.40 108.55 C 397.57 110.24 399.58 109.54 400.81 107.26 C 417.60 119.31 424.64 139.51 440.10 152.88 C 451.76 166.91 470.28 172.98 483.35 184.71 C 482.35 189.45 486.83 191.83 490.82 192.23 C 501.55 195.89 495.17 210.58 505.50 213.58 C 509.02 217.39 505.59 227.08 511.68 226.87 C 517.75 207.07 521.48 186.27 534.44 169.57 C 548.00 141.95 524.48 114.55 515.74 89.03 C 521.38 94.44 514.61 80.50 516.71 77.73 C 519.87 74.68 518.41 70.74 517.98 66.96 C 521.79 66.61 524.48 69.92 527.76 71.29 C 526.27 68.43 526.06 65.18 525.94 62.00 Z" />
<path fill="#1f2125" opacity="1.00" d=" M 471.39 530.39 C 473.80 530.89 468.06 536.29 470.80 538.89 C 464.75 541.25 465.81 531.17 471.39 530.39 Z" />
</svg>
