<?xml version="1.0" encoding="UTF-8" ?>
<!DOCTYPE svg PUBLIC "-//W3C//DTD SVG 1.1//EN" "http://www.w3.org/Graphics/SVG/1.1/DTD/svg11.dtd">
<svg width="1225pt" height="647pt" viewBox="0 0 1225 647" version="1.1" xmlns="http://www.w3.org/2000/svg">

<path fill="#202225" opacity="1.00" d=" M 791.38 187.26 C 801.93 189.02 812.75 189.96 823.02 192.97 C 826.97 194.43 827.04 198.22 826.29 201.74 C 828.48 204.39 832.54 205.30 834.99 208.07 C 838.37 223.75 832.70 238.68 820.05 249.14 C 823.63 259.49 811.34 265.23 803.48 268.28 C 786.67 271.48 770.36 277.77 755.98 286.98 C 726.13 305.70 690.27 295.27 657.11 301.16 C 658.75 304.83 660.59 308.88 664.49 310.63 C 676.21 317.74 665.98 334.98 679.18 341.83 C 678.65 345.40 685.76 355.84 679.38 351.68 C 669.44 348.70 681.61 357.23 681.35 361.80 C 677.17 358.96 672.41 357.11 667.83 355.07 C 671.52 358.98 676.96 361.33 676.70 367.68 C 664.78 369.47 649.70 365.23 641.96 376.97 C 634.57 380.30 623.52 377.98 619.91 387.86 C 606.04 413.69 576.42 423.52 550.11 430.66 C 540.88 427.50 535.80 436.96 529.65 441.67 C 528.30 462.88 529.27 484.73 531.44 505.54 C 528.24 510.49 530.79 526.23 520.58 521.98 C 520.93 526.80 516.44 530.19 513.18 533.08 C 504.75 522.81 519.84 517.93 521.08 507.92 C 512.33 509.57 511.12 523.04 501.70 524.72 C 497.19 519.54 518.82 510.64 506.82 510.03 C 504.79 508.42 502.95 506.00 499.83 506.57 C 502.91 497.38 517.61 506.65 519.52 495.44 C 523.38 486.18 523.14 475.80 523.98 465.97 C 528.38 456.89 520.67 446.67 521.85 436.03 C 511.34 434.98 502.47 442.48 491.94 441.93 C 485.15 441.40 485.87 449.48 482.18 453.18 C 479.39 477.18 487.38 500.76 491.02 524.07 C 493.42 530.08 490.30 537.28 485.26 530.70 C 487.35 534.86 482.61 548.66 478.44 539.55 C 474.17 533.84 484.67 525.74 480.11 521.06 C 473.18 523.94 478.59 535.79 471.10 539.10 C 464.82 532.09 476.73 528.94 476.05 522.16 C 472.29 519.91 463.28 518.69 467.71 513.73 C 486.05 510.13 476.15 485.24 476.81 472.06 C 475.57 458.15 472.66 443.89 466.32 432.32 C 470.25 424.99 478.71 419.46 480.85 411.28 C 471.04 406.13 458.82 401.83 448.03 408.03 C 424.74 408.26 401.09 415.49 378.00 409.84 C 392.91 394.58 414.98 384.75 432.06 371.06 C 436.45 370.23 434.70 367.47 433.36 365.58 C 449.03 356.26 464.15 345.77 478.33 334.41 C 470.17 333.72 461.59 329.00 453.85 333.83 C 450.91 333.97 443.25 337.16 443.52 332.98 C 430.35 337.08 415.59 339.40 402.22 337.69 C 379.20 331.23 354.88 337.16 331.47 334.87 C 333.12 328.00 320.31 336.09 318.60 332.36 C 317.58 320.12 300.39 326.61 292.47 321.43 C 281.65 318.82 273.17 311.81 263.92 306.16 C 256.03 304.48 252.78 296.72 246.28 292.60 C 246.32 290.35 248.54 288.02 246.40 285.86 C 271.19 283.16 295.88 286.28 319.47 294.42 C 340.82 305.92 365.46 308.02 389.04 303.11 C 414.56 306.28 440.23 304.82 465.57 300.54 C 484.45 302.22 501.76 289.36 520.67 294.39 C 528.59 297.05 537.64 295.37 544.18 290.24 C 553.06 283.92 565.89 283.96 572.29 274.33 C 583.07 264.13 600.00 273.40 611.68 265.74 C 634.41 245.36 664.73 236.08 692.03 222.00 C 698.27 215.15 706.28 204.44 716.85 208.95 C 721.80 204.73 726.65 202.22 733.23 204.37 C 738.39 199.01 746.20 200.43 752.70 201.94 C 757.44 192.64 771.74 193.25 780.90 195.99 C 785.31 194.44 787.50 189.69 791.38 187.26 M 525.14 466.37 C 524.33 470.34 529.13 465.71 525.14 466.37 Z" />

</svg>
