<?xml version="1.0" encoding="UTF-8" ?>
<!DOCTYPE svg PUBLIC "-//W3C//DTD SVG 1.1//EN" "http://www.w3.org/Graphics/SVG/1.1/DTD/svg11.dtd">
<svg width="1225pt" height="647pt" viewBox="0 0 1225 647" version="1.1" xmlns="http://www.w3.org/2000/svg">

<path fill="#222326" opacity="1.00" d=" M 590.42 262.40 C 606.04 261.03 622.17 265.63 634.17 275.74 C 642.15 276.93 644.11 289.28 652.92 286.34 C 663.06 289.88 673.97 299.25 684.84 295.12 C 698.81 300.70 713.09 302.59 727.15 307.87 C 740.72 302.48 752.10 323.37 765.56 319.40 C 771.96 332.90 788.81 327.35 800.50 328.66 C 834.86 336.03 866.66 341.23 899.94 351.06 C 905.51 354.65 918.55 348.65 917.51 358.31 C 922.01 361.82 931.23 356.82 935.26 361.94 C 927.86 366.07 916.88 364.93 912.64 373.71 C 886.92 380.97 860.33 370.08 835.85 361.53 C 830.34 365.86 822.97 362.84 817.57 359.48 C 787.41 347.28 756.65 328.60 723.12 334.92 C 715.49 329.27 707.64 332.39 699.04 334.04 C 694.26 333.67 690.88 328.44 685.66 330.58 C 675.73 331.17 687.09 340.26 686.76 346.20 C 690.46 351.59 682.74 344.99 679.88 345.90 C 680.68 349.49 683.36 352.27 684.29 355.81 C 680.04 355.83 677.26 352.76 673.91 350.79 C 677.16 354.80 680.32 358.78 681.75 363.87 C 671.83 363.33 661.23 361.33 651.66 364.66 C 644.68 373.55 633.32 371.73 623.66 372.73 C 609.14 398.93 580.03 409.59 554.57 421.53 C 535.94 419.09 523.15 439.67 527.97 457.00 C 528.79 468.59 525.52 481.12 531.15 491.88 C 532.52 501.18 529.90 511.16 526.89 520.01 C 519.14 513.88 521.28 528.68 514.11 529.97 C 505.72 520.15 519.60 515.64 520.00 506.01 C 522.79 501.78 517.76 502.58 516.83 505.92 C 512.24 510.84 509.56 519.93 502.03 521.13 C 500.89 514.52 506.33 511.94 510.03 508.43 C 505.90 508.15 503.67 503.03 499.71 506.80 C 499.75 497.18 511.91 501.66 516.08 496.06 C 527.54 475.08 522.54 450.19 521.57 427.62 C 524.03 420.06 513.57 423.76 510.14 426.17 C 503.98 432.45 489.13 426.25 488.16 437.63 C 478.57 454.21 488.59 474.43 488.57 492.40 C 492.31 503.17 495.98 516.28 491.85 527.21 C 484.05 518.19 490.21 535.48 482.23 535.99 C 475.95 528.88 483.70 520.81 482.99 512.91 C 475.69 514.62 480.06 528.14 472.19 530.98 C 467.63 523.41 478.61 520.94 476.92 513.41 C 473.36 513.74 471.35 510.40 468.01 510.35 C 467.54 502.78 477.77 507.33 478.96 500.93 C 483.72 474.51 479.38 445.01 469.02 421.11 C 473.91 414.46 481.10 407.56 482.78 399.30 C 475.20 389.25 461.99 400.27 459.79 409.84 C 457.53 423.30 454.82 439.04 442.66 447.65 C 427.38 456.49 412.72 469.18 394.01 468.39 C 387.07 468.14 374.94 470.60 372.11 461.81 C 351.36 457.24 330.25 449.44 307.51 451.60 C 296.03 451.55 305.39 450.85 303.68 445.22 C 297.61 444.54 290.51 445.08 285.00 442.22 C 288.15 441.41 293.53 441.97 292.00 437.16 C 282.98 436.44 273.26 436.44 264.62 436.35 C 262.11 429.36 273.29 433.19 276.05 430.10 C 263.34 428.38 250.67 432.96 237.78 430.86 C 240.01 429.20 244.33 427.43 247.19 428.78 C 252.34 431.14 244.24 426.04 246.07 423.36 C 249.49 423.67 252.60 422.40 255.09 420.23 C 252.05 418.97 247.41 419.70 246.05 416.16 C 250.54 412.18 257.33 412.10 261.73 407.83 C 258.52 397.77 277.08 397.50 277.83 388.28 C 287.71 377.63 303.31 376.37 314.01 367.05 C 357.52 354.10 402.31 345.15 445.70 331.72 C 465.21 325.18 486.69 321.33 501.38 305.36 C 509.67 295.38 525.34 295.37 532.00 283.93 C 550.47 274.90 568.82 262.73 590.42 262.40 Z" />
<path fill="#222326" opacity="1.00" d=" M 281.45 442.15 C 285.09 439.94 282.40 445.85 281.45 442.15 Z" />
</svg>
