<?xml version="1.0" encoding="UTF-8" ?>
<!DOCTYPE svg PUBLIC "-//W3C//DTD SVG 1.1//EN" "http://www.w3.org/Graphics/SVG/1.1/DTD/svg11.dtd">
<svg width="1225pt" height="647pt" viewBox="0 0 1225 647" version="1.1" xmlns="http://www.w3.org/2000/svg">

<path fill="#202226" opacity="1.00" d=" M 527.19 203.60 C 536.12 205.17 536.59 216.03 542.51 221.21 C 547.21 230.65 549.66 241.81 555.44 250.45 C 563.04 251.50 559.51 263.61 567.21 264.37 C 579.14 266.57 588.09 256.10 598.96 252.93 C 610.33 246.25 626.41 248.10 633.96 236.00 C 644.09 228.55 652.78 223.70 665.69 223.26 C 675.25 222.26 674.80 235.20 683.34 235.70 C 680.32 249.31 689.20 264.07 685.21 277.84 C 684.59 297.41 698.21 314.17 692.90 333.97 C 694.23 344.02 682.82 349.66 684.02 358.75 C 678.40 353.56 679.15 364.33 682.76 366.37 C 671.48 385.42 668.94 409.34 656.94 427.92 C 654.19 409.96 656.87 387.70 651.72 368.19 C 635.79 364.11 632.11 383.23 621.39 390.34 C 596.85 408.01 565.58 418.84 535.90 415.86 C 523.01 420.58 519.32 433.94 521.60 446.76 C 520.08 461.16 519.86 475.66 522.64 489.64 C 517.29 495.36 520.84 513.48 509.41 507.04 C 510.56 512.01 499.31 521.66 500.34 513.35 C 496.99 504.82 510.67 500.93 511.11 491.92 C 502.28 493.79 499.84 506.38 490.25 508.24 C 491.19 503.05 493.22 498.45 498.89 497.66 C 498.71 491.54 487.33 493.27 493.95 487.92 C 512.38 491.03 514.66 469.24 515.80 455.95 C 519.41 442.17 514.01 428.08 515.81 413.96 C 505.01 412.92 495.24 419.10 484.35 416.22 C 480.27 420.61 475.18 427.60 468.21 422.72 C 469.35 416.06 468.07 410.15 463.03 405.82 C 464.75 396.20 478.32 392.80 481.07 383.14 C 476.03 379.56 468.52 381.27 463.86 377.23 C 468.01 374.62 477.63 376.55 477.02 370.12 C 471.04 365.50 465.85 358.16 464.85 352.03 C 452.04 348.97 438.82 348.59 425.88 346.33 C 412.06 345.99 400.46 358.06 386.32 354.27 C 373.16 364.42 361.22 376.07 347.96 386.12 C 344.68 385.15 346.21 381.45 347.21 379.26 C 356.24 362.75 361.59 344.23 376.74 331.74 C 386.35 320.65 397.13 310.74 407.72 300.65 C 410.75 293.60 395.32 298.29 402.56 293.57 C 409.16 280.48 424.57 274.29 436.89 266.84 C 452.25 253.14 471.02 243.99 486.62 230.60 C 499.96 221.41 510.13 205.91 527.19 203.60 M 468.34 278.40 C 458.87 278.98 451.45 285.68 445.42 292.39 C 437.69 308.76 423.63 320.81 409.44 331.46 C 406.80 334.75 397.71 341.47 406.08 342.87 C 423.97 338.60 442.80 335.53 459.37 327.33 C 458.10 326.85 447.12 329.44 452.98 325.96 C 472.86 320.66 491.78 312.11 510.65 304.02 C 510.27 302.11 505.29 302.39 503.40 300.59 C 492.93 291.11 482.32 281.73 468.34 278.40 M 540.14 400.36 C 539.33 404.34 544.13 399.72 540.14 400.36 Z" />


<path fill="#202226" opacity="1.00" d=" M 470.38 474.28 C 479.97 478.88 470.54 497.83 472.89 506.83 C 468.65 507.99 464.25 512.51 460.15 508.66 C 459.33 505.44 461.50 503.20 462.56 500.55 C 467.37 491.93 449.16 497.20 452.98 490.02 C 459.69 485.84 465.33 480.39 470.38 474.28 M 471.10 501.26 C 469.56 504.29 474.37 501.44 471.10 501.26 Z" />

</svg>
