<?xml version="1.0" encoding="UTF-8" ?>
<!DOCTYPE svg PUBLIC "-//W3C//DTD SVG 1.1//EN" "http://www.w3.org/Graphics/SVG/1.1/DTD/svg11.dtd">
<svg width="1225pt" height="647pt" viewBox="0 0 1225 647" version="1.1" xmlns="http://www.w3.org/2000/svg">

<path fill="#1e1f23" opacity="1.00" d=" M 427.20 128.51 C 438.31 126.38 448.92 133.00 459.99 130.06 C 473.39 134.29 484.99 145.64 499.99 143.99 C 519.66 142.63 536.57 154.46 553.64 161.42 C 559.39 158.29 563.12 166.59 568.84 167.23 C 575.18 168.58 575.07 179.14 581.77 178.95 C 586.78 171.41 581.24 163.00 578.12 155.96 C 594.19 149.08 611.56 161.72 628.51 160.75 C 641.48 164.19 653.57 171.04 666.30 175.64 C 670.65 184.85 682.77 176.83 688.97 185.07 C 701.37 187.67 694.52 202.40 687.86 207.98 C 660.46 225.14 647.71 258.45 642.01 288.79 C 654.80 291.48 661.52 305.11 674.64 306.54 C 682.61 312.86 682.61 324.38 689.19 331.89 C 694.79 340.76 685.15 351.50 690.79 360.17 C 695.70 367.57 692.14 376.40 696.04 384.19 C 692.73 380.10 691.43 373.70 686.06 371.68 C 685.68 375.82 687.46 379.54 688.81 383.29 C 684.94 382.90 684.18 378.17 680.90 376.83 C 681.26 380.47 682.85 383.84 682.96 387.56 C 673.54 390.24 665.64 378.62 656.11 381.14 C 650.45 388.09 640.24 383.12 635.23 391.22 C 614.89 415.59 582.25 422.28 552.39 425.32 C 543.18 421.43 535.72 427.36 530.41 434.44 C 529.84 454.56 524.16 475.22 529.90 494.86 C 524.14 500.07 527.88 519.63 517.24 512.21 C 516.01 516.86 513.45 520.82 508.99 523.05 C 502.21 512.15 517.30 508.47 518.02 497.83 C 509.59 500.43 506.93 511.65 498.17 513.25 C 498.53 507.43 502.09 503.84 507.94 503.71 C 507.01 499.55 500.77 498.38 500.17 494.22 C 504.44 488.66 515.35 496.28 517.05 487.03 C 527.01 464.39 525.51 447.63 523.84 423.16 C 509.66 418.90 495.50 422.96 481.30 419.18 C 464.50 432.17 471.03 456.20 467.63 474.66 C 468.30 485.77 472.32 498.00 469.04 508.86 C 460.47 501.40 465.91 514.41 459.00 517.25 C 451.05 510.36 464.48 501.16 459.85 493.07 C 452.40 494.39 456.66 510.07 448.03 510.11 C 444.94 504.18 459.87 498.91 451.31 494.65 C 444.35 491.22 449.81 485.24 455.56 485.58 C 464.93 468.02 463.74 447.24 465.95 428.04 C 461.51 421.57 468.77 413.70 463.06 407.95 C 459.71 403.50 466.15 398.32 470.67 399.57 C 474.29 395.32 478.42 391.68 483.29 388.94 C 481.38 383.33 472.84 384.63 471.08 380.23 C 475.37 379.40 480.64 377.64 481.93 373.08 C 473.72 367.67 471.81 359.53 468.57 350.55 C 467.49 345.58 460.94 347.55 458.22 343.77 C 444.10 340.11 472.61 341.26 463.58 338.33 C 444.73 339.74 427.20 352.16 407.74 350.58 C 403.49 346.83 403.36 341.37 405.20 336.17 C 420.94 326.80 440.77 336.02 457.47 330.60 C 456.63 326.89 459.76 325.24 462.41 324.37 C 487.46 325.82 511.02 315.18 533.31 305.05 C 529.07 298.74 520.57 298.69 514.14 295.79 C 500.94 291.37 490.37 275.81 495.93 262.03 C 488.57 255.52 485.37 245.61 487.94 236.07 C 476.93 228.55 479.77 213.87 469.77 206.17 C 462.61 190.68 474.65 172.64 466.82 157.17 C 455.51 148.80 441.21 143.92 427.94 140.01 C 424.95 136.97 425.74 132.12 427.20 128.51 M 479.56 327.22 C 481.50 330.90 483.97 324.70 479.56 327.22 M 546.30 410.27 C 538.26 417.16 556.39 410.98 546.30 410.27 Z" />


</svg>
