<?xml version="1.0" encoding="UTF-8" ?>
<!DOCTYPE svg PUBLIC "-//W3C//DTD SVG 1.1//EN" "http://www.w3.org/Graphics/SVG/1.1/DTD/svg11.dtd">
<svg width="1225pt" height="647pt" viewBox="0 0 1225 647" version="1.1" xmlns="http://www.w3.org/2000/svg">

<path fill="#25272b" opacity="1.00" d=" M 348.23 61.65 C 359.86 60.73 363.21 73.87 372.13 77.86 C 363.58 76.81 374.88 81.86 377.13 84.90 C 384.40 98.70 396.77 109.09 409.21 118.42 C 422.96 142.57 440.88 164.19 463.52 180.51 C 469.52 183.14 471.57 192.18 478.95 190.19 C 482.38 191.44 477.35 199.83 483.64 198.31 C 491.63 195.96 489.93 208.10 496.95 207.56 C 505.98 210.09 508.00 221.38 516.69 224.45 C 521.35 226.82 520.13 235.38 526.90 234.23 C 530.28 234.47 528.98 240.68 532.87 239.66 C 543.91 238.65 539.91 262.82 551.74 257.15 C 553.79 258.92 555.92 266.76 558.45 262.44 C 565.64 249.97 566.53 234.36 572.78 221.78 C 593.70 211.50 605.74 187.77 627.37 178.39 C 629.67 175.52 631.48 170.98 635.84 172.67 C 636.31 156.31 645.82 142.32 650.74 127.52 C 654.11 120.97 644.40 108.28 655.38 107.43 C 661.66 106.75 652.41 101.27 655.92 97.96 C 656.60 92.98 664.99 92.67 662.92 87.71 C 666.18 78.13 681.04 78.93 689.02 76.29 C 706.75 83.98 716.95 102.63 719.83 121.17 C 720.55 129.16 728.04 132.22 733.52 136.48 C 739.02 150.91 736.32 166.36 731.40 180.31 C 733.26 195.75 746.18 212.91 736.31 228.36 C 730.87 240.93 717.70 244.95 705.50 248.38 C 685.49 256.78 670.27 273.29 656.24 289.30 C 647.05 297.77 661.28 300.71 665.14 306.82 C 668.03 310.56 672.39 312.07 676.82 313.21 C 684.25 317.21 681.65 328.91 689.00 333.02 C 695.49 341.97 691.56 352.82 691.09 362.89 C 697.71 373.01 697.03 384.97 699.92 396.24 C 695.65 391.35 696.36 380.70 688.98 379.96 C 688.24 385.52 694.42 388.82 694.98 394.12 C 693.18 398.14 685.11 383.66 686.50 390.44 C 692.44 403.89 675.65 391.66 670.75 389.36 C 664.76 389.20 657.88 383.28 652.59 388.56 C 649.24 392.17 645.19 386.50 641.67 389.70 C 624.16 404.95 603.74 420.57 579.62 421.58 C 572.26 423.89 565.47 428.94 557.32 427.59 C 549.10 425.24 545.80 434.53 540.22 438.44 C 541.38 458.09 537.73 478.90 545.52 497.43 C 543.21 504.50 545.10 522.97 534.74 518.81 C 534.66 527.50 522.76 531.98 525.11 519.30 C 531.41 516.92 532.78 510.82 534.08 504.87 C 529.83 504.88 529.48 510.75 525.23 510.66 C 522.61 507.44 518.15 505.40 516.10 501.97 C 518.28 495.62 529.69 502.11 531.88 494.89 C 538.74 475.56 538.49 455.97 533.56 436.54 C 537.21 414.60 509.22 429.15 497.04 425.92 C 487.54 421.21 479.83 432.49 479.70 440.83 C 478.40 464.67 478.98 488.45 484.63 511.72 C 485.18 520.78 473.17 507.83 477.48 519.21 C 477.15 527.15 467.08 523.07 470.61 516.63 C 472.99 513.84 475.90 496.48 469.92 502.94 C 469.60 508.91 463.92 502.02 461.17 500.78 C 457.74 496.89 464.38 494.33 467.48 493.51 C 474.68 472.68 476.99 448.85 471.47 427.57 C 475.38 420.85 465.00 412.12 471.79 406.85 C 480.14 407.28 481.70 397.35 488.85 394.86 C 485.14 389.04 481.23 384.01 475.66 380.22 C 492.59 384.34 482.57 372.55 478.27 366.14 C 481.71 363.42 477.22 362.39 475.25 360.73 C 473.14 356.61 472.08 352.02 470.19 347.79 C 463.92 348.21 461.18 340.98 455.01 341.37 C 442.65 343.79 430.90 348.94 418.32 350.37 C 408.96 353.46 406.71 341.00 407.73 334.65 C 422.58 323.76 443.26 334.61 459.32 328.42 C 467.21 315.13 487.03 326.00 499.42 320.50 C 509.00 317.61 518.49 313.94 527.40 309.37 C 507.58 309.76 479.91 297.79 483.67 274.30 C 476.89 268.22 469.20 261.95 467.42 252.51 C 456.28 246.50 449.42 235.16 437.00 230.98 C 430.79 227.22 423.21 223.46 420.95 216.02 C 415.21 201.08 404.06 187.05 407.73 170.15 C 387.54 142.62 364.85 115.28 349.42 84.58 C 340.60 79.92 329.55 59.11 348.23 61.65 M 469.29 336.17 C 466.77 341.77 481.75 333.90 469.29 336.17 Z" />

<path fill="#25272b" opacity="1.00" d=" M 699.27 397.47 C 703.58 400.15 696.85 404.45 699.27 397.47 Z" />
<path fill="#25272b" opacity="1.00" d=" M 464.26 511.15 C 468.77 510.51 467.52 518.06 463.18 516.99 C 460.92 515.32 462.19 512.31 464.26 511.15 Z" />
<path fill="#25272b" opacity="1.00" d=" M 519.38 512.17 C 530.31 508.73 521.66 519.56 517.02 520.26 C 516.10 517.06 516.56 513.81 519.38 512.17 Z" />
</svg>
