<?xml version="1.0" encoding="UTF-8" ?>
<!DOCTYPE svg PUBLIC "-//W3C//DTD SVG 1.1//EN" "http://www.w3.org/Graphics/SVG/1.1/DTD/svg11.dtd">
<svg width="1225pt" height="647pt" viewBox="0 0 1225 647" version="1.1" xmlns="http://www.w3.org/2000/svg">

<path fill="#1e1f22" opacity="1.00" d=" M 832.43 203.33 C 840.05 199.24 843.77 210.33 850.67 208.66 C 865.74 202.11 864.38 224.42 873.66 230.12 C 871.12 241.05 874.23 255.09 863.06 262.06 C 859.23 266.75 847.31 269.25 851.70 276.96 C 843.73 289.16 828.37 291.28 814.98 290.96 C 799.93 292.82 785.97 299.36 772.16 305.19 C 759.86 305.31 749.27 313.67 737.05 308.85 C 715.57 308.81 692.75 299.77 671.96 308.17 C 671.87 314.52 680.77 315.55 683.97 320.08 C 687.79 333.90 700.86 343.86 695.79 359.86 C 691.83 368.74 704.38 375.52 700.39 384.03 C 703.08 391.52 706.79 398.86 705.92 407.12 C 700.01 400.58 693.42 394.71 687.87 387.83 C 689.24 391.88 692.61 395.18 691.86 399.82 C 680.14 396.94 669.28 387.80 656.73 388.72 C 651.60 392.75 645.10 389.58 639.32 389.49 C 632.49 388.14 628.72 395.26 623.60 398.59 C 609.32 410.23 588.97 410.26 576.05 424.05 C 565.68 424.17 558.05 430.66 553.55 439.51 C 549.28 446.06 554.60 454.11 552.95 461.05 C 546.41 449.53 540.41 434.19 545.82 420.86 C 529.94 419.20 515.25 425.87 499.60 425.58 C 488.48 435.34 491.79 451.98 494.00 464.93 C 493.68 483.56 503.11 499.76 504.99 517.94 C 505.36 522.11 497.25 516.40 498.20 520.06 C 499.21 523.16 498.66 529.66 494.28 528.86 C 487.88 522.89 498.43 510.91 491.88 505.05 C 486.35 502.97 491.62 513.75 485.93 510.18 C 479.65 509.83 480.59 502.53 485.50 500.51 C 492.81 483.69 487.61 464.40 488.34 446.46 C 481.43 437.18 485.88 424.88 478.40 416.50 C 475.42 408.88 485.96 410.11 487.47 404.42 C 488.56 400.04 498.31 398.02 494.52 393.45 C 485.99 389.84 493.83 378.62 483.62 378.41 C 474.56 374.67 493.65 379.13 487.87 371.26 C 484.64 368.58 480.64 363.51 483.86 359.23 C 479.59 357.53 476.68 354.53 475.95 350.00 C 474.01 344.36 467.87 346.86 463.36 346.84 C 461.90 342.89 457.60 340.01 453.26 341.33 C 437.87 345.85 423.43 354.18 407.32 355.88 C 401.94 352.09 405.62 346.58 409.18 343.13 C 418.26 339.33 428.45 338.51 437.31 334.19 C 414.26 324.55 388.45 331.53 365.06 322.99 C 334.00 314.54 303.32 303.49 276.32 285.72 C 271.97 282.34 266.14 278.33 266.59 272.13 C 260.09 264.21 252.99 257.58 244.34 250.68 C 239.53 247.32 252.91 251.50 245.95 247.85 C 244.51 243.43 250.37 238.23 255.60 241.53 C 282.12 245.14 308.82 249.18 334.39 257.54 C 361.01 267.94 388.98 275.38 417.96 274.12 C 443.73 279.76 469.10 290.55 496.00 289.07 C 515.51 292.10 535.26 278.91 553.80 289.32 C 561.13 290.67 568.12 285.84 574.01 282.05 C 576.63 280.24 582.91 280.76 581.58 276.21 C 581.31 268.59 589.87 265.19 595.80 262.87 C 592.59 252.93 605.22 244.71 613.94 244.99 C 622.59 247.20 631.72 254.77 640.63 249.55 C 645.08 243.74 653.49 247.31 658.30 242.28 C 663.56 236.36 672.45 241.92 677.87 236.89 C 682.84 233.17 689.77 235.51 695.40 234.60 C 698.62 227.63 708.80 232.74 714.00 228.02 C 719.12 223.95 726.79 227.35 731.21 222.21 C 747.02 207.85 768.30 213.68 786.81 209.17 C 791.13 213.49 796.61 210.77 799.81 206.50 C 811.07 205.15 823.11 212.57 832.43 203.33 M 693.93 384.94 C 693.95 389.40 698.31 392.12 701.07 395.17 C 699.64 391.48 698.77 384.96 693.93 384.94 M 702.10 399.26 C 700.56 402.29 705.37 399.44 702.10 399.26 Z" />


<path fill="#1e1f22" opacity="1.00" d=" M 552.22 462.16 C 555.22 461.09 555.21 465.20 555.02 467.12 C 552.70 467.25 549.20 463.70 552.22 462.16 Z" />
<path fill="#1e1f22" opacity="1.00" d=" M 553.20 468.10 C 558.30 472.38 555.08 485.62 560.49 492.54 C 568.61 500.65 562.21 511.07 563.53 520.62 C 563.31 524.41 558.98 523.17 556.47 523.17 C 556.99 527.10 551.94 535.81 548.95 531.03 C 542.59 523.28 556.40 521.42 553.77 513.72 C 556.69 506.29 549.31 512.99 546.92 514.99 C 543.11 514.02 537.59 511.34 536.99 507.16 C 540.82 504.21 546.43 505.21 550.21 502.22 C 556.35 491.97 552.59 478.10 553.20 468.10 Z" />
<path fill="#1e1f22" opacity="1.00" d=" M 485.13 517.01 C 490.87 520.19 480.22 522.96 485.13 517.01 Z" />
<path fill="#1e1f22" opacity="1.00" d=" M 541.39 518.21 C 551.51 513.09 542.03 527.99 539.10 522.76 C 538.44 520.77 539.76 519.15 541.39 518.21 Z" />
</svg>
