<?xml version="1.0" encoding="UTF-8" ?>
<!DOCTYPE svg PUBLIC "-//W3C//DTD SVG 1.1//EN" "http://www.w3.org/Graphics/SVG/1.1/DTD/svg11.dtd">
<svg width="1225pt" height="647pt" viewBox="0 0 1225 647" version="1.1" xmlns="http://www.w3.org/2000/svg">

<path fill="#1e2022" opacity="1.00" d=" M 602.46 271.56 C 622.44 269.13 646.36 271.38 660.19 287.81 C 665.87 291.49 668.70 300.17 676.58 297.31 C 679.93 306.56 686.38 295.50 690.06 301.72 C 689.99 307.66 698.17 306.25 702.20 308.49 C 707.56 302.30 719.87 308.24 725.69 313.25 C 746.42 317.03 768.27 320.46 786.65 331.43 C 796.47 343.63 814.08 344.80 824.20 356.79 C 852.52 374.86 883.83 387.64 913.33 403.64 C 937.93 413.73 963.28 422.65 989.39 427.77 C 897.00 423.59 809.55 389.91 718.98 375.93 C 714.03 375.52 709.87 372.47 704.98 371.90 C 704.77 383.61 711.52 393.63 710.97 405.29 C 706.56 402.58 695.03 386.89 698.03 399.77 C 686.17 394.46 675.14 388.18 662.80 384.42 C 652.32 391.77 638.02 378.41 628.83 388.81 C 618.90 399.31 597.76 397.95 594.92 413.96 C 590.80 426.55 573.71 425.86 570.11 438.17 C 563.90 445.92 562.16 456.57 567.52 465.36 C 568.86 471.14 562.52 467.38 561.89 464.05 C 557.23 453.26 551.08 441.22 555.52 429.30 C 547.86 427.09 558.54 423.96 558.15 419.17 C 563.50 407.57 548.39 417.31 544.13 418.14 C 530.43 422.26 533.33 437.45 524.96 445.96 C 518.97 452.65 511.47 465.04 517.97 472.04 C 521.42 489.65 530.77 504.67 535.35 521.65 C 537.81 526.62 543.74 539.32 533.09 535.02 C 532.18 536.58 535.59 549.18 528.96 546.12 C 522.32 539.97 531.81 524.48 522.38 519.72 C 518.58 526.45 523.81 534.04 519.78 539.92 C 511.48 540.92 520.28 530.86 515.77 528.24 C 511.64 524.98 516.77 520.73 518.47 517.53 C 520.20 501.55 516.51 485.46 511.99 470.12 C 503.66 470.61 498.52 478.19 491.03 480.52 C 469.11 475.44 446.45 479.14 425.51 486.39 C 410.63 489.03 425.17 483.83 428.33 479.05 C 414.48 478.99 401.76 485.40 388.48 488.36 C 381.48 492.52 383.76 487.99 385.19 486.13 C 390.73 482.80 397.08 480.98 402.27 477.04 C 386.86 479.78 372.21 484.97 356.38 480.80 C 357.06 475.38 349.37 475.48 347.27 479.16 C 339.00 481.11 331.42 485.98 322.72 485.96 C 323.44 481.65 328.49 480.68 330.18 477.08 C 328.05 476.78 325.48 476.35 326.47 479.33 C 320.66 477.07 326.39 469.68 325.36 465.41 C 324.61 458.77 335.07 456.84 333.51 449.85 C 334.52 439.18 324.89 425.93 336.99 419.04 C 346.28 414.28 350.29 404.37 354.92 395.94 C 375.07 377.60 405.27 382.62 428.95 371.89 C 441.04 366.38 453.12 360.85 465.07 355.06 C 467.17 354.21 467.04 351.35 466.40 349.61 C 445.40 342.83 429.45 370.75 410.27 368.69 C 406.90 363.51 412.53 358.00 417.00 356.04 C 432.29 348.43 448.39 342.52 463.56 334.68 C 460.89 330.49 464.92 327.83 468.87 326.82 C 484.72 324.20 496.02 312.85 510.01 306.04 C 531.12 296.00 553.83 289.64 574.36 278.41 C 583.21 274.27 592.90 272.90 602.46 271.56 M 490.35 373.33 C 483.85 375.33 477.30 377.90 471.57 381.56 C 480.52 381.23 489.06 378.36 497.21 374.82 C 495.28 373.42 492.69 372.71 490.35 373.33 M 700.13 384.43 C 698.45 389.52 705.10 384.50 700.13 384.43 M 693.26 387.47 C 692.58 393.64 699.05 388.42 693.26 387.47 M 567.10 437.26 C 565.56 440.29 570.37 437.44 567.10 437.26 M 563.10 461.26 C 561.56 464.29 566.37 461.44 563.10 461.26 Z" />





<path fill="#1e2022" opacity="1.00" d=" M 568.17 469.35 C 570.42 471.46 573.20 478.73 570.34 482.49 C 576.35 485.29 574.74 493.85 578.45 498.58 C 586.74 508.20 586.37 522.57 584.00 533.89 C 575.56 525.14 580.27 543.20 573.32 543.80 C 563.95 535.77 576.17 526.77 574.98 516.95 C 566.97 519.06 569.12 534.49 561.17 537.65 C 556.40 532.54 562.24 528.25 565.84 525.27 C 561.70 523.45 552.44 520.28 560.40 516.45 C 576.07 512.55 569.76 492.60 567.38 481.46 C 566.90 477.49 562.06 470.80 568.17 469.35 M 568.10 475.26 C 566.56 478.29 571.37 475.44 568.10 475.26 Z" />

<path fill="#1e2022" opacity="1.00" d=" M 346.17 485.17 C 350.80 484.15 345.15 489.80 346.17 485.17 Z" />
<path fill="#1e2022" opacity="1.00" d=" M 344.10 486.26 C 347.37 486.44 342.56 489.29 344.10 486.26 Z" />
<path fill="#1e2022" opacity="1.00" d=" M 340.26 488.10 C 343.29 486.56 340.44 491.37 340.26 488.10 Z" />
</svg>
