<?xml version="1.0" encoding="UTF-8" ?>
<!DOCTYPE svg PUBLIC "-//W3C//DTD SVG 1.1//EN" "http://www.w3.org/Graphics/SVG/1.1/DTD/svg11.dtd">
<svg width="1225pt" height="647pt" viewBox="0 0 1225 647" version="1.1" xmlns="http://www.w3.org/2000/svg">

<path fill="#1f2023" opacity="1.00" d=" M 603.47 272.56 C 626.67 269.03 652.36 274.56 667.47 293.56 C 673.85 293.91 678.38 300.19 684.91 295.99 C 691.59 307.63 708.89 296.29 719.00 304.00 C 735.92 309.71 755.68 303.53 771.74 313.26 C 774.89 314.07 789.32 312.06 784.09 319.08 C 791.81 325.83 801.63 329.38 810.26 334.75 C 825.21 352.40 848.85 358.61 867.25 371.79 C 886.99 381.30 902.11 397.34 922.70 405.25 C 937.98 412.46 953.79 418.46 969.54 424.52 C 973.62 426.86 966.45 424.77 964.80 424.99 C 970.17 428.63 976.67 429.84 982.37 432.81 C 975.85 433.23 970.08 429.70 963.75 429.01 C 968.04 433.68 977.24 432.46 980.14 438.01 C 970.69 436.54 962.08 431.95 952.79 430.01 C 955.82 433.69 961.81 433.76 964.33 437.81 C 951.52 436.55 940.82 428.65 928.68 425.12 C 931.39 429.89 938.57 429.93 941.14 435.09 C 928.12 432.66 917.48 423.46 904.86 419.90 C 907.73 421.55 916.30 428.60 908.62 426.40 C 881.32 415.15 852.18 409.41 824.41 399.50 C 811.94 392.60 797.93 401.44 785.17 395.74 C 775.46 394.64 765.56 397.10 756.01 394.06 C 747.60 398.25 738.23 396.98 730.15 393.30 C 724.27 398.33 708.03 391.01 711.67 402.23 C 708.33 405.51 696.88 384.03 698.64 398.07 C 691.48 395.59 684.79 390.58 677.17 390.20 C 668.80 394.55 659.48 393.33 652.04 388.21 C 645.50 391.66 637.98 391.31 631.09 389.12 C 620.93 396.31 608.55 399.58 598.18 406.19 C 595.32 418.45 584.97 425.49 574.26 430.32 C 568.04 439.00 559.64 449.76 565.07 460.97 C 566.82 465.96 570.36 471.76 566.99 476.80 C 575.39 474.26 565.41 484.89 572.63 483.43 C 578.44 499.47 589.77 516.38 583.86 533.84 C 577.46 527.23 578.76 535.49 576.65 540.52 C 574.68 549.18 566.16 537.04 570.20 533.19 C 572.08 529.09 577.04 517.11 572.21 517.12 C 567.56 523.69 567.69 534.18 560.05 538.24 C 557.84 532.37 561.05 528.59 565.03 525.28 C 561.22 521.63 556.82 521.26 556.07 527.34 C 551.63 513.40 574.10 517.00 570.09 503.02 C 572.15 491.37 562.23 479.00 565.16 468.65 C 557.50 457.27 549.37 442.16 554.97 428.27 C 545.07 428.22 562.85 419.30 557.67 414.28 C 544.91 415.37 535.42 426.51 530.83 437.94 C 527.78 447.16 518.04 453.35 518.99 463.99 C 522.87 490.65 539.06 512.84 544.05 538.95 C 543.51 543.58 537.94 536.31 537.43 540.74 C 537.57 543.30 538.67 554.54 533.19 549.83 C 527.02 543.21 534.80 530.32 528.03 524.03 C 522.14 528.67 530.10 540.91 523.00 545.16 C 518.13 542.12 518.72 536.41 521.93 534.20 C 515.62 531.92 519.25 524.63 523.43 521.38 C 522.57 505.46 522.75 487.65 514.19 472.80 C 499.32 486.09 492.24 507.91 474.03 517.21 C 471.23 504.53 486.27 497.92 487.62 486.16 C 486.23 480.25 480.99 485.84 477.74 486.85 C 459.05 500.99 443.58 519.32 423.19 531.23 C 418.22 517.31 433.83 510.66 441.95 502.92 C 449.80 494.66 461.06 488.04 465.11 476.90 C 451.90 484.31 439.20 494.59 426.41 503.40 C 415.25 511.54 404.76 522.11 390.95 525.04 C 388.69 513.25 402.19 508.98 407.50 500.55 C 416.75 497.58 425.76 490.32 431.17 481.88 C 423.36 486.52 413.36 489.19 408.63 497.68 C 400.86 499.74 394.25 504.43 387.49 508.55 C 379.90 514.15 383.91 501.65 378.46 504.48 C 368.15 510.08 357.10 515.20 347.60 521.44 C 339.57 520.08 350.42 520.84 346.23 518.54 C 351.77 512.25 367.54 507.23 364.84 497.30 C 351.36 502.26 339.45 511.75 326.57 518.59 C 314.56 519.69 325.35 515.40 327.81 510.86 C 331.92 507.01 338.64 505.15 340.18 498.98 C 335.59 498.83 330.24 504.96 326.64 501.34 C 326.28 495.32 342.91 488.93 332.30 485.44 C 334.00 477.37 338.51 469.10 337.24 460.29 C 341.77 453.64 350.15 449.89 352.97 441.82 C 348.05 442.95 335.41 449.74 339.42 439.42 C 351.15 429.67 355.34 413.68 368.98 405.95 C 388.88 395.72 409.24 386.50 429.02 376.02 C 431.12 374.89 436.35 372.52 432.24 370.43 C 442.37 360.72 463.80 359.63 468.05 345.01 C 448.24 346.82 433.37 364.87 414.11 369.92 C 411.99 369.06 411.18 366.11 409.35 364.60 C 421.22 345.30 448.27 346.06 464.73 332.65 C 463.65 324.09 480.07 323.91 487.66 320.62 C 503.17 304.92 526.56 300.53 546.02 291.08 C 565.52 285.69 582.62 273.08 603.47 272.56 M 408.35 400.31 C 406.19 401.07 404.40 402.63 403.68 404.84 C 405.93 404.49 410.99 401.29 408.35 400.31 M 923.48 422.29 C 925.24 427.98 930.08 422.48 923.48 422.29 M 566.15 436.45 C 563.95 440.10 569.84 437.40 566.15 436.45 M 407.32 460.32 C 403.69 463.21 399.76 465.58 395.64 467.76 C 395.14 473.14 414.44 458.87 407.32 460.32 M 562.17 461.17 C 561.15 465.80 566.80 460.15 562.17 461.17 M 380.45 462.27 C 374.64 466.67 384.82 463.91 380.45 462.27 M 374.26 466.22 C 372.59 467.44 371.74 469.38 370.98 471.24 C 374.04 470.38 381.57 464.21 374.26 466.22 M 392.60 470.67 C 390.45 471.73 387.70 472.21 386.36 474.39 C 386.37 477.31 398.98 468.33 392.60 470.67 M 342.28 496.05 C 336.57 498.93 347.05 497.67 342.28 496.05 Z" />









<path fill="#1f2023" opacity="1.00" d=" M 318.18 525.44 C 333.09 526.41 308.53 532.58 318.18 525.44 Z" />
<path fill="#1f2023" opacity="1.00" d=" M 388.40 526.45 C 391.32 530.92 382.44 529.80 388.40 526.45 Z" />
</svg>
