<?xml version="1.0" encoding="UTF-8" ?>
<!DOCTYPE svg PUBLIC "-//W3C//DTD SVG 1.1//EN" "http://www.w3.org/Graphics/SVG/1.1/DTD/svg11.dtd">
<svg width="1225pt" height="647pt" viewBox="0 0 1225 647" version="1.1" xmlns="http://www.w3.org/2000/svg">

<path fill="#24262a" opacity="1.00" d=" M 532.41 235.43 C 545.33 240.84 553.24 256.06 561.79 267.16 C 570.09 270.67 573.93 279.93 582.18 283.60 C 603.22 280.28 620.20 265.66 640.98 261.07 C 653.87 261.76 654.23 247.81 665.68 246.57 C 670.52 247.32 669.62 239.54 673.69 240.31 C 681.66 244.09 691.62 236.92 697.99 244.94 C 700.61 250.73 713.67 255.53 707.05 261.99 C 713.61 280.28 710.53 299.81 716.79 318.13 C 721.73 335.68 726.39 355.47 719.99 373.00 C 711.35 379.95 706.76 390.79 706.29 401.73 C 712.48 411.02 708.55 422.76 703.80 431.81 C 696.84 434.81 695.89 442.51 692.50 448.35 C 689.60 438.13 689.78 427.68 687.84 417.23 C 683.47 410.46 694.33 406.09 688.98 399.99 C 690.14 387.74 674.14 385.89 664.98 382.17 C 658.91 387.58 650.08 381.19 644.20 387.22 C 626.99 403.38 604.04 408.96 581.75 413.87 C 573.57 422.69 561.52 415.95 553.25 423.26 C 547.38 429.03 548.88 438.16 551.73 445.18 C 556.35 456.93 557.35 470.05 564.05 480.96 C 571.01 489.55 565.75 501.15 567.98 511.01 C 569.01 514.58 565.06 512.58 563.70 511.29 C 557.15 506.22 561.51 521.11 556.16 523.23 C 544.73 515.34 562.99 504.19 555.99 496.05 C 551.74 499.77 543.62 523.59 543.19 507.37 C 552.87 506.41 541.94 501.30 541.96 496.19 C 545.35 494.28 549.37 493.79 552.66 491.65 C 558.98 477.69 547.97 462.16 550.91 449.02 C 544.16 447.17 543.73 431.08 537.99 426.04 C 532.61 432.71 524.65 438.27 516.18 440.14 C 509.06 458.10 518.68 475.94 523.84 493.11 C 530.43 508.03 535.10 523.13 538.94 539.05 C 540.31 543.94 531.34 537.06 532.28 541.68 C 533.73 545.78 530.89 554.43 526.21 548.81 C 523.47 541.26 527.50 532.08 524.92 523.94 C 517.60 526.10 525.80 547.65 516.21 543.79 C 509.96 540.14 523.35 533.33 514.75 532.44 C 507.84 527.31 521.30 522.85 518.67 516.52 C 520.21 496.80 512.96 477.79 506.49 459.41 C 499.52 452.34 503.91 440.39 494.19 435.69 C 498.33 426.96 503.16 417.02 505.98 407.11 C 501.62 402.24 499.35 396.37 502.84 389.95 C 494.28 384.94 499.40 373.58 489.91 369.22 C 489.30 360.18 487.38 343.03 475.14 342.97 C 449.48 373.59 425.08 405.99 402.90 439.94 C 399.68 443.82 397.84 450.97 391.97 451.07 C 395.10 434.92 408.97 422.89 414.96 407.73 C 397.76 423.43 387.45 445.72 371.87 463.07 C 366.26 462.09 367.34 453.03 371.78 450.82 C 380.74 438.55 389.71 426.15 397.02 412.88 C 379.33 430.70 368.51 453.89 350.14 471.10 C 347.59 461.37 358.84 454.52 359.21 445.09 C 352.01 450.72 347.13 459.21 339.93 465.21 C 340.10 452.41 353.13 444.70 357.68 433.67 C 357.20 427.69 354.61 438.10 350.01 434.61 C 364.10 400.10 379.03 365.20 403.35 336.39 C 408.24 330.35 398.18 333.71 394.91 335.03 C 401.73 309.21 433.46 307.07 446.82 286.81 C 462.73 277.79 480.11 270.80 495.02 260.02 C 505.92 249.70 517.65 239.58 532.41 235.43 M 500.15 302.33 C 489.79 309.39 504.40 315.80 509.10 307.08 C 512.70 302.32 502.47 302.62 500.15 302.33 M 384.42 412.42 C 379.66 417.02 375.43 422.45 372.11 428.17 C 375.78 428.67 385.24 412.94 384.42 412.42 M 358.14 429.36 C 357.33 433.34 362.13 428.72 358.14 429.36 M 547.36 442.14 C 546.72 446.13 551.34 441.33 547.36 442.14 M 361.19 443.29 C 356.87 447.01 364.18 446.73 361.19 443.29 Z" />



<path fill="#24262a" opacity="1.00" d=" M 348.35 436.33 C 353.31 437.72 344.47 442.05 348.35 436.33 Z" />
<path fill="#24262a" opacity="1.00" d=" M 344.23 440.17 C 351.27 438.45 339.07 448.28 344.23 440.17 Z" />


</svg>
