<?xml version="1.0" encoding="UTF-8" ?>
<!DOCTYPE svg PUBLIC "-//W3C//DTD SVG 1.1//EN" "http://www.w3.org/Graphics/SVG/1.1/DTD/svg11.dtd">
<svg width="1225pt" height="647pt" viewBox="0 0 1225 647" version="1.1" xmlns="http://www.w3.org/2000/svg">

<path fill="#222428" opacity="1.00" d=" M 547.41 218.42 C 559.35 213.17 557.79 226.79 564.06 231.92 C 567.88 238.91 569.08 247.60 574.30 253.83 C 595.96 252.83 617.27 248.13 638.82 245.77 C 650.65 230.92 671.38 225.71 689.70 227.26 C 694.92 232.98 701.24 241.18 698.29 249.14 C 693.68 269.94 683.83 289.18 685.45 310.98 C 697.75 315.51 697.42 329.69 704.06 339.03 C 709.75 350.85 697.37 365.04 707.23 375.70 C 705.98 385.42 709.92 394.49 710.69 404.13 C 707.16 409.16 703.37 395.46 698.19 394.96 C 699.17 405.37 686.23 393.11 681.85 391.15 C 668.57 382.47 648.82 383.91 637.80 395.81 C 613.15 416.30 579.81 412.60 550.33 418.39 C 542.76 420.37 544.93 429.55 546.97 435.01 C 551.50 448.89 550.80 464.51 558.78 477.17 C 562.94 485.14 559.32 494.41 559.85 502.90 C 558.94 509.59 548.67 494.55 551.88 506.94 C 551.75 515.70 542.86 514.40 543.28 506.27 C 547.21 503.09 553.73 490.78 547.47 489.41 C 545.32 499.22 534.53 496.84 534.97 487.16 C 554.59 485.97 547.26 460.92 545.45 448.01 C 547.15 439.54 539.54 434.16 538.50 425.61 C 537.14 419.34 530.38 426.05 528.36 428.34 C 523.93 433.49 516.46 432.92 510.75 435.77 C 501.57 454.26 513.49 473.74 517.87 492.12 C 525.38 502.77 524.15 515.94 529.40 527.52 C 532.90 534.27 527.62 536.05 523.07 533.26 C 524.93 537.46 522.23 548.03 516.76 542.34 C 515.38 535.52 521.30 522.52 514.06 517.83 C 517.61 522.38 509.89 529.10 506.20 523.81 C 502.45 520.20 507.57 516.44 510.44 514.45 C 513.60 493.18 506.92 470.94 498.91 451.04 C 492.81 445.00 498.63 434.23 489.25 430.55 C 492.33 421.59 500.55 412.48 503.02 402.11 C 497.45 398.20 495.66 391.86 501.04 387.17 C 496.10 384.14 495.16 378.59 496.77 373.25 C 492.55 370.65 487.80 369.00 483.60 366.37 C 486.69 366.11 489.97 366.09 493.12 365.93 C 485.89 363.20 491.43 351.62 484.41 347.60 C 475.94 332.48 457.33 341.45 444.31 346.31 C 421.36 367.87 397.34 388.91 371.59 407.15 C 363.64 404.52 358.75 410.51 352.82 414.93 C 344.79 418.30 349.08 412.54 349.53 409.63 C 347.01 409.56 343.86 410.65 342.38 407.92 C 345.96 393.28 358.98 384.90 364.11 371.06 C 379.12 349.47 394.87 328.11 413.30 309.33 C 421.11 301.19 432.41 295.82 436.90 284.98 C 430.54 283.09 423.97 284.76 417.59 285.59 C 427.51 277.27 436.93 265.75 452.11 264.12 C 458.61 263.47 451.74 252.83 460.01 254.09 C 475.86 251.55 492.00 250.64 506.16 242.23 C 520.26 235.27 530.45 219.77 547.41 218.42 M 505.32 282.25 C 496.75 290.44 485.65 296.67 481.84 308.88 C 500.22 314.65 519.20 306.77 536.24 300.23 C 524.14 297.38 516.42 285.57 505.32 282.25 M 699.97 382.91 C 698.63 391.98 707.53 384.75 699.97 382.91 M 559.30 405.26 C 557.80 410.40 564.27 405.06 559.30 405.26 M 350.37 407.14 C 349.71 411.13 354.34 406.33 350.37 407.14 M 543.17 434.17 C 542.15 438.80 547.80 433.15 543.17 434.17 M 506.26 465.10 C 506.44 468.37 509.29 463.56 506.26 465.10 Z" />

<path fill="#222428" opacity="1.00" d=" M 426.26 286.10 C 429.29 284.56 426.44 289.38 426.26 286.10 Z" />
<path fill="#222428" opacity="1.00" d=" M 421.43 296.23 C 419.64 299.40 416.22 301.18 412.82 302.09 C 414.84 299.12 418.49 298.04 421.43 296.23 Z" />



<path fill="#222428" opacity="1.00" d=" M 350.26 416.10 C 353.29 414.56 350.44 419.37 350.26 416.10 Z" />


<path fill="#222428" opacity="1.00" d=" M 537.33 498.33 C 540.92 496.93 541.12 504.33 537.36 504.35 C 533.14 507.80 533.48 498.04 537.33 498.33 Z" />
<path fill="#222428" opacity="1.00" d=" M 510.32 528.36 C 514.29 526.38 513.15 536.45 509.87 536.90 C 505.01 537.80 506.35 528.80 510.32 528.36 Z" />
</svg>
