<?xml version="1.0" encoding="UTF-8" ?>
<!DOCTYPE svg PUBLIC "-//W3C//DTD SVG 1.1//EN" "http://www.w3.org/Graphics/SVG/1.1/DTD/svg11.dtd">
<svg width="1225pt" height="647pt" viewBox="0 0 1225 647" version="1.1" xmlns="http://www.w3.org/2000/svg">

<path fill="#212327" opacity="1.00" d=" M 560.39 198.38 C 567.54 197.54 582.94 196.26 580.21 207.86 C 597.60 208.28 615.11 211.55 632.35 207.29 C 638.67 204.91 645.20 208.68 651.32 210.21 C 665.22 209.15 679.20 205.65 692.62 210.43 C 698.70 214.27 697.80 223.49 695.32 229.35 C 690.00 238.97 677.14 239.46 670.72 247.69 C 670.81 257.15 663.98 263.32 656.39 267.55 C 655.31 274.54 649.23 283.30 653.95 290.09 C 665.06 298.06 677.13 305.04 686.33 315.53 C 698.74 318.44 696.66 333.22 703.71 341.32 C 707.23 348.67 704.83 357.06 703.65 364.68 C 701.68 372.41 711.21 378.54 707.47 386.38 C 708.05 394.26 711.21 402.02 710.94 410.13 C 706.38 406.92 704.29 399.96 698.32 397.75 C 701.14 406.27 695.28 401.42 692.39 400.53 C 682.68 395.32 670.83 384.88 659.75 390.56 C 647.17 385.52 639.40 400.99 628.95 405.02 C 603.02 420.41 571.40 414.09 543.06 420.21 C 545.36 434.45 545.92 449.01 548.83 463.14 C 555.08 472.69 553.03 484.82 551.27 495.30 C 548.85 500.66 543.05 488.42 543.31 495.50 C 545.35 502.98 535.60 508.73 535.02 499.07 C 537.94 496.01 547.19 481.51 539.48 482.48 C 535.81 491.37 530.66 486.04 527.24 480.83 C 527.81 474.68 536.20 478.06 539.29 474.28 C 545.03 460.71 539.46 444.49 541.48 431.65 C 538.19 428.06 540.95 418.55 531.13 421.09 C 523.01 426.76 513.91 428.97 504.34 430.30 C 494.43 447.72 505.85 467.03 509.21 484.85 C 515.52 496.60 515.77 510.10 519.65 522.64 C 520.88 527.63 514.92 525.07 512.24 524.99 C 513.04 528.80 513.05 536.40 507.23 534.88 C 504.12 527.12 511.13 517.67 505.84 510.16 C 502.39 509.60 504.64 516.84 501.02 516.92 C 494.83 515.99 493.39 508.59 499.72 506.55 C 508.29 481.27 493.82 453.88 488.57 429.29 C 488.46 424.57 479.43 420.92 485.20 416.20 C 492.15 413.40 493.81 405.84 498.75 400.73 C 503.47 394.76 489.44 389.31 497.32 383.43 C 499.34 374.02 491.51 370.63 484.15 367.78 C 483.42 362.82 493.33 370.26 493.90 365.11 C 490.13 363.65 487.53 355.85 488.62 350.88 C 484.20 345.01 479.80 338.40 471.38 337.43 C 457.71 341.15 444.21 345.64 430.32 348.41 C 416.62 352.32 414.92 332.99 416.89 324.19 C 407.74 307.25 393.03 331.68 379.15 330.22 C 370.95 328.43 359.92 338.31 353.70 331.18 C 349.04 331.63 353.22 327.11 353.92 324.92 C 360.92 314.34 374.68 312.34 383.36 303.36 C 400.95 292.32 416.00 277.95 434.90 268.90 C 439.01 265.83 455.86 259.09 441.84 259.79 C 446.12 254.15 453.80 252.75 458.01 247.02 C 463.32 243.85 455.77 242.60 456.35 237.71 C 458.02 226.60 472.99 228.66 476.94 218.98 C 490.37 211.29 505.82 228.99 519.23 219.36 C 527.78 216.74 535.72 212.62 543.64 208.54 C 549.35 205.36 552.89 197.88 560.39 198.38 M 508.44 255.35 C 504.99 259.05 500.38 260.92 495.41 261.46 C 485.81 272.08 476.62 283.31 465.45 292.46 C 457.78 302.15 444.37 292.92 437.06 304.16 C 444.53 314.35 460.95 310.50 471.86 312.84 C 481.53 302.81 499.10 311.56 511.64 309.61 C 524.07 306.10 536.81 303.28 548.95 298.88 C 542.48 293.77 530.01 294.98 524.70 286.32 C 516.61 277.59 519.24 260.76 508.44 255.35 M 699.91 387.00 C 699.72 390.04 702.32 392.03 704.10 394.12 C 703.57 391.34 704.25 385.82 699.91 387.00 M 560.17 407.24 C 556.06 410.06 563.48 409.92 560.17 407.24 M 540.26 480.10 C 540.44 483.37 543.29 478.56 540.26 480.10 Z" />
<path fill="#212327" opacity="1.00" d=" M 453.94 245.91 C 453.46 250.08 446.95 249.45 443.67 250.78 C 445.28 246.93 450.65 247.42 453.94 245.91 Z" />




<path fill="#212327" opacity="1.00" d=" M 528.28 490.12 C 541.95 488.50 522.11 502.15 528.28 490.12 Z" />
<path fill="#212327" opacity="1.00" d=" M 499.08 520.96 C 505.55 521.72 501.90 531.25 497.02 526.85 C 497.31 524.77 498.06 522.78 499.08 520.96 Z" />
</svg>
