<?xml version="1.0" encoding="UTF-8" ?>
<!DOCTYPE svg PUBLIC "-//W3C//DTD SVG 1.1//EN" "http://www.w3.org/Graphics/SVG/1.1/DTD/svg11.dtd">
<svg width="1225pt" height="647pt" viewBox="0 0 1225 647" version="1.1" xmlns="http://www.w3.org/2000/svg">

<path fill="#1f2124" opacity="1.00" d=" M 561.44 180.44 C 586.71 176.26 612.25 196.94 635.84 187.11 C 652.94 190.90 670.14 198.89 687.84 195.19 C 695.58 198.07 711.29 201.65 702.99 210.98 C 693.85 219.38 680.51 223.58 673.98 234.96 C 665.81 250.84 658.96 267.83 655.44 285.42 C 649.51 301.92 672.11 299.23 677.76 310.18 C 682.37 315.86 687.87 320.49 694.65 323.33 C 698.48 330.82 700.34 339.15 704.84 346.26 C 709.98 357.24 699.71 369.89 707.12 379.89 C 709.89 386.94 707.43 394.99 710.90 402.00 C 711.66 404.49 714.45 416.29 709.19 411.83 C 708.43 406.36 696.52 395.79 698.76 406.80 C 687.30 402.35 678.44 392.28 665.60 391.64 C 659.34 396.37 650.28 389.86 644.98 396.97 C 618.05 422.24 578.98 418.33 545.00 420.00 C 541.03 419.82 541.02 424.92 541.46 427.79 C 537.88 448.45 551.28 467.02 544.09 487.08 C 541.57 493.49 533.55 476.51 535.99 490.00 C 536.27 493.89 530.72 499.92 528.92 494.02 C 526.38 486.37 541.08 480.15 534.72 472.05 C 531.65 481.57 520.96 479.00 520.98 470.15 C 539.64 470.20 537.59 446.95 537.33 433.36 C 535.96 427.26 542.51 427.38 537.05 421.97 C 525.69 415.53 511.90 427.44 499.20 424.18 C 488.01 440.77 499.08 460.99 501.26 478.85 C 506.39 490.23 506.94 502.91 509.63 515.00 C 510.57 522.21 499.97 511.03 502.31 517.82 C 504.40 521.48 499.82 528.87 496.12 524.74 C 496.69 517.48 498.61 510.30 497.97 502.97 C 494.31 501.78 493.59 505.25 492.67 507.88 C 489.06 506.90 484.21 503.81 485.99 499.21 C 497.31 497.41 492.86 481.86 493.96 474.01 C 492.08 459.29 491.03 444.13 484.58 430.52 C 490.43 421.46 473.12 413.47 481.88 406.97 C 489.61 406.68 490.87 397.96 497.04 395.02 C 502.17 392.04 494.63 388.50 494.02 384.92 C 491.33 381.03 496.90 378.20 495.97 374.25 C 492.87 372.51 489.50 371.31 486.42 369.53 C 477.99 364.39 501.35 370.37 491.53 363.30 C 489.50 354.57 487.52 346.54 480.67 340.30 C 461.79 333.48 441.78 351.68 422.29 345.76 C 421.37 341.78 420.39 337.76 417.24 334.69 C 418.54 328.44 419.51 321.83 419.54 315.28 C 432.38 299.00 455.70 309.47 472.95 309.97 C 486.65 303.53 502.08 309.40 516.46 309.46 C 529.66 307.22 542.57 303.40 555.34 299.40 C 538.69 293.90 519.11 288.44 510.08 271.99 C 506.12 258.24 501.40 244.46 493.77 232.34 C 494.42 222.07 484.20 210.43 473.55 215.43 C 453.97 220.82 433.75 222.83 413.92 226.87 C 400.99 228.96 382.51 239.41 373.21 231.53 C 378.84 216.42 398.75 218.65 411.47 213.57 C 428.67 209.04 446.12 205.58 463.65 202.58 C 468.50 201.88 469.11 195.86 473.32 194.31 C 486.55 190.70 500.48 199.06 513.64 192.60 C 526.86 185.33 544.31 194.10 555.60 182.64 C 557.25 181.28 559.34 180.70 561.44 180.44 M 700.97 389.90 C 700.09 393.23 702.49 395.59 705.11 397.15 C 704.51 394.56 704.64 389.78 700.97 389.90 Z" />

<path fill="#1f2124" opacity="1.00" d=" M 521.36 482.14 C 535.28 481.22 513.96 493.38 521.36 482.14 Z" />
<path fill="#1f2124" opacity="1.00" d=" M 489.08 513.07 C 497.83 516.75 482.31 521.72 489.08 513.07 Z" />
</svg>
