<?xml version="1.0" encoding="UTF-8" ?>
<!DOCTYPE svg PUBLIC "-//W3C//DTD SVG 1.1//EN" "http://www.w3.org/Graphics/SVG/1.1/DTD/svg11.dtd">
<svg width="1225pt" height="647pt" viewBox="0 0 1225 647" version="1.1" xmlns="http://www.w3.org/2000/svg">

<path fill="#1e2023" opacity="1.00" d=" M 409.60 119.19 C 424.52 119.22 441.68 121.17 453.61 130.41 C 462.35 131.87 472.36 129.57 480.07 134.88 C 496.21 146.73 517.98 138.87 535.13 148.83 C 549.36 155.19 561.44 165.57 575.32 172.71 C 586.19 171.66 602.56 170.88 600.00 155.05 C 594.64 149.27 594.22 141.51 596.20 134.06 C 612.79 134.62 629.50 140.65 643.47 149.38 C 655.74 150.44 662.71 162.96 675.04 163.97 C 686.67 166.45 684.98 184.50 698.57 181.44 C 704.56 187.47 718.32 190.82 714.48 201.41 C 708.02 217.15 689.20 221.59 681.73 236.73 C 670.72 256.16 658.95 276.92 658.09 299.78 C 673.18 305.13 680.95 320.33 694.97 326.99 C 700.10 340.31 711.03 353.35 705.39 368.63 C 701.29 376.74 710.11 382.89 709.76 390.86 C 708.80 399.47 713.49 407.45 712.85 416.10 C 707.95 414.04 706.89 406.76 701.03 405.13 C 700.54 415.37 686.93 402.30 680.73 399.53 C 674.43 399.72 668.25 391.43 662.50 396.49 C 658.67 398.76 653.98 394.62 650.07 397.10 C 635.71 406.88 621.14 418.32 603.01 419.08 C 582.13 421.12 561.16 423.70 540.19 422.08 C 539.69 433.22 534.59 445.38 540.11 455.88 C 542.70 463.72 538.22 471.49 538.35 479.38 C 537.23 484.46 533.30 478.78 530.24 478.82 C 532.60 483.16 526.60 494.43 522.91 487.05 C 519.49 479.75 532.23 477.31 530.37 469.31 C 531.28 462.64 525.22 466.70 524.28 471.28 C 520.53 473.97 517.63 468.02 515.20 465.71 C 513.55 459.03 524.98 463.88 527.01 459.02 C 532.00 447.14 536.03 434.13 534.53 421.18 C 527.22 420.66 519.66 418.92 512.55 421.40 C 506.48 423.09 496.33 416.26 493.32 424.45 C 484.61 435.99 493.49 450.01 492.59 462.70 C 494.65 478.15 499.16 493.32 500.73 508.67 C 499.85 513.82 495.82 510.26 492.88 509.06 C 494.08 513.28 494.35 517.64 490.65 520.69 C 480.15 517.62 498.11 499.40 486.52 497.20 C 486.01 505.84 475.68 498.36 477.71 493.73 C 490.67 488.10 487.47 469.87 486.67 458.32 C 486.79 445.56 484.28 433.02 480.40 421.05 C 485.47 413.74 472.11 408.36 479.28 402.28 C 487.94 401.77 491.87 393.59 498.88 389.89 C 495.72 385.62 489.82 380.24 495.51 375.64 C 494.68 372.92 477.37 367.85 489.75 369.51 C 498.94 370.76 491.94 360.32 489.18 356.10 C 494.46 351.58 482.31 350.12 484.43 344.43 C 483.50 340.61 478.41 340.67 475.59 338.61 C 458.55 339.64 440.56 350.32 423.75 345.23 C 423.75 338.75 415.71 334.51 420.22 327.78 C 419.99 319.23 419.55 309.84 430.07 307.05 C 448.65 301.15 467.22 314.49 485.43 307.51 C 508.64 310.41 532.61 312.85 554.17 301.40 C 536.28 297.07 514.21 287.71 510.51 267.41 C 512.06 259.90 509.63 254.28 505.86 248.13 C 507.13 237.86 500.65 230.30 497.72 221.33 C 497.62 212.47 494.73 204.59 489.03 198.00 C 480.86 182.40 499.01 155.78 478.87 147.19 C 457.23 134.68 433.53 125.78 409.60 119.19 M 701.92 393.96 C 702.52 402.66 709.34 396.14 701.92 393.96 M 695.10 395.26 C 693.56 398.29 698.37 395.44 695.10 395.26 Z" />


<path fill="#1e2023" opacity="1.00" d=" M 518.31 474.34 C 523.26 472.95 517.11 484.48 514.72 479.28 C 512.71 477.07 516.00 474.41 518.31 474.34 Z" />
<path fill="#1e2023" opacity="1.00" d=" M 480.18 508.09 C 487.38 510.33 475.01 516.51 480.18 508.09 Z" />
</svg>
