<?xml version="1.0" encoding="UTF-8" ?>
<!DOCTYPE svg PUBLIC "-//W3C//DTD SVG 1.1//EN" "http://www.w3.org/Graphics/SVG/1.1/DTD/svg11.dtd">
<svg width="1225pt" height="647pt" viewBox="0 0 1225 647" version="1.1" xmlns="http://www.w3.org/2000/svg">

<path fill="#212328" opacity="1.00" d=" M 448.37 13.61 C 455.22 13.56 456.99 26.60 464.86 21.43 C 478.62 35.99 492.41 51.78 502.67 69.35 C 505.60 74.23 510.92 80.67 509.03 69.06 C 523.91 79.88 522.94 100.93 530.97 116.02 C 538.54 133.11 550.19 148.89 563.22 161.52 C 567.70 161.79 566.65 166.68 566.21 169.75 C 567.54 173.59 572.66 168.98 573.49 172.47 C 572.68 178.78 577.11 183.80 581.98 187.00 C 593.53 177.29 597.11 161.65 610.23 153.29 C 627.58 140.09 621.86 114.19 621.65 95.40 C 612.80 86.01 618.37 72.28 615.95 61.00 C 616.75 55.15 619.97 42.92 626.78 50.79 C 629.91 42.05 636.37 48.69 639.53 53.56 C 648.99 48.66 653.28 64.89 659.58 70.46 C 667.08 80.44 673.29 103.92 688.17 99.94 C 696.10 113.64 698.98 129.49 700.97 145.01 C 700.74 160.67 718.33 166.45 722.89 180.08 C 732.82 191.88 732.15 210.86 719.61 220.55 C 690.39 239.13 668.81 270.18 661.06 303.75 C 672.97 308.53 680.12 319.63 690.32 326.54 C 698.74 329.37 698.47 339.35 702.16 345.84 C 711.11 354.72 705.78 367.80 705.30 378.67 C 712.08 389.18 709.71 401.65 713.98 413.03 C 715.51 429.23 705.15 404.56 701.06 408.88 C 703.95 417.30 694.87 408.10 690.88 408.11 C 684.10 401.73 675.18 400.99 667.14 397.11 C 661.43 402.97 652.59 395.85 647.06 402.07 C 617.17 428.58 574.22 423.67 537.28 424.18 C 535.33 434.76 531.98 445.70 536.87 456.07 C 533.44 461.63 537.97 482.43 526.58 474.88 C 526.82 478.66 523.66 487.56 519.24 483.76 C 513.51 474.90 529.18 470.08 524.86 460.92 C 522.31 472.08 509.55 466.76 510.06 458.16 C 528.82 460.04 529.37 435.16 531.99 422.24 C 520.43 417.61 508.65 424.22 497.08 419.09 C 481.83 426.30 489.26 446.10 488.68 459.21 C 488.22 475.80 493.34 491.52 493.97 508.01 C 483.92 503.18 490.17 513.56 482.99 517.14 C 474.42 512.63 490.53 497.18 480.50 494.13 C 479.81 501.32 472.32 495.79 471.01 491.90 C 469.79 486.05 479.88 488.87 479.83 482.74 C 484.82 456.67 483.90 427.69 476.12 403.25 C 483.24 398.90 492.28 395.39 497.76 389.04 C 492.05 383.90 496.59 374.67 488.04 372.98 C 481.13 368.02 498.02 375.78 495.71 368.12 C 492.09 365.94 490.26 359.02 491.62 355.27 C 485.40 350.48 484.64 341.95 475.58 340.61 C 459.56 342.33 443.83 349.51 427.42 348.71 C 421.52 347.09 423.46 339.29 419.00 335.91 C 422.75 327.14 418.07 316.03 428.01 311.01 C 446.97 301.98 467.29 317.33 486.02 309.99 C 506.28 310.74 528.78 316.86 547.10 306.09 C 531.27 302.08 509.39 296.07 507.48 276.53 C 503.21 268.43 516.16 262.22 509.24 255.77 C 505.00 249.42 506.13 241.50 506.65 234.31 C 500.88 226.79 495.78 218.30 496.56 208.37 C 484.11 198.22 474.49 183.69 480.03 167.01 C 479.52 151.35 484.36 136.38 485.04 120.99 C 477.17 90.41 460.32 63.22 447.43 34.63 C 444.81 27.89 439.57 17.97 448.37 13.61 M 702.94 397.03 C 702.61 405.49 710.33 396.22 702.94 397.03 Z" />

<path fill="#212328" opacity="1.00" d=" M 513.37 469.34 C 520.51 466.95 514.01 475.53 511.05 477.15 C 508.88 474.22 509.93 470.36 513.37 469.34 Z" />
<path fill="#212328" opacity="1.00" d=" M 474.37 504.39 C 481.28 507.02 467.50 512.47 474.37 504.39 Z" />
</svg>
