<?xml version="1.0" encoding="UTF-8" ?>
<!DOCTYPE svg PUBLIC "-//W3C//DTD SVG 1.1//EN" "http://www.w3.org/Graphics/SVG/1.1/DTD/svg11.dtd">
<svg width="1225pt" height="647pt" viewBox="0 0 1225 647" version="1.1" xmlns="http://www.w3.org/2000/svg">

<path fill="#ffffff" opacity="1.00" d=" M 446.28 9.63 C 452.65 10.36 457.63 16.20 464.85 16.15 C 476.45 31.84 489.59 46.35 500.24 62.71 C 503.27 67.73 509.82 78.62 508.10 64.93 C 523.26 77.10 522.44 98.95 531.03 115.00 C 538.19 130.74 547.58 145.81 560.44 157.43 C 562.62 162.45 569.84 162.56 567.25 170.69 C 576.86 168.01 572.71 177.29 575.82 181.20 C 584.98 192.75 590.88 173.60 595.59 166.59 C 603.16 156.66 618.09 151.37 619.55 137.60 C 619.90 123.07 624.10 107.24 617.18 93.66 C 612.74 76.79 611.23 58.42 620.72 42.79 C 622.11 37.62 629.15 45.81 630.45 40.58 C 633.17 31.86 637.48 45.30 639.70 47.34 C 650.10 38.53 653.74 57.62 659.05 62.95 C 666.60 74.18 671.79 87.72 682.89 95.62 C 689.82 92.84 692.87 101.59 695.34 106.49 C 706.31 125.24 697.26 152.23 716.33 166.61 C 723.20 172.55 724.64 182.72 729.97 189.97 C 736.99 206.70 723.47 221.27 710.00 229.01 C 687.31 246.40 671.27 271.62 662.62 298.66 C 659.52 308.06 672.90 307.73 677.07 313.97 C 683.48 326.10 701.20 326.99 700.98 343.03 C 709.09 350.86 708.65 363.29 706.78 373.86 C 704.46 381.17 711.83 386.55 711.68 393.67 C 709.96 403.09 716.86 411.54 714.98 421.09 C 709.60 422.53 706.71 407.90 702.56 415.71 C 691.83 408.40 681.13 401.92 668.65 398.29 C 663.68 399.05 659.32 402.03 653.61 400.16 C 644.76 401.05 639.43 410.36 631.14 413.22 C 620.09 421.30 606.03 421.40 592.96 422.82 C 574.65 423.98 556.39 426.86 538.07 424.01 C 534.81 435.31 534.51 447.36 537.52 458.64 C 533.11 463.63 539.39 479.52 529.03 477.48 C 525.32 479.22 525.04 486.74 520.13 487.08 C 518.55 484.14 517.00 481.17 516.08 477.97 C 517.71 473.16 525.57 472.54 523.01 465.81 C 517.66 469.06 516.68 478.10 509.23 477.89 C 506.21 474.34 509.72 468.96 513.66 467.53 C 514.86 463.76 509.29 462.60 506.87 464.80 C 505.53 454.65 516.99 458.75 521.81 453.81 C 525.35 443.46 531.53 433.63 531.02 422.25 C 519.63 420.02 508.06 423.43 496.94 419.24 C 487.53 423.85 488.21 435.91 488.76 445.00 C 487.57 466.02 493.02 486.18 494.74 506.69 C 494.06 510.04 491.57 510.37 489.19 508.31 C 488.87 516.40 480.39 524.23 476.79 511.43 C 470.44 515.76 467.43 505.43 473.80 502.82 C 481.82 496.88 465.16 495.85 469.70 489.72 C 486.55 482.66 480.38 460.60 481.59 445.54 C 482.91 430.35 474.87 414.21 477.66 400.67 C 486.41 400.53 490.04 392.10 497.90 389.74 C 495.21 385.59 491.97 381.73 492.72 376.29 C 490.55 374.70 481.90 370.09 488.45 370.55 C 499.87 375.10 491.83 362.37 489.24 358.02 C 493.57 352.73 481.65 351.61 483.83 345.10 C 466.43 334.97 446.76 351.80 427.99 349.08 C 419.86 349.70 423.30 339.47 418.01 335.90 C 422.29 327.12 416.25 315.04 427.78 310.81 C 442.83 302.95 460.10 311.59 475.67 312.54 C 492.91 303.49 512.36 317.80 530.01 311.02 C 535.41 309.49 540.88 308.26 546.31 306.77 C 535.79 302.11 522.75 301.42 514.66 292.35 C 505.91 284.87 503.17 269.25 511.68 260.70 C 507.27 253.17 501.97 243.52 506.88 234.89 C 499.89 228.22 495.54 219.00 496.39 209.17 C 489.65 199.96 477.88 192.61 478.01 179.97 C 479.06 161.16 480.19 142.41 484.06 124.01 C 476.73 86.22 450.25 55.04 439.49 18.37 C 438.06 13.40 441.32 9.74 446.28 9.63 M 703.31 397.31 C 702.51 403.29 709.29 396.51 703.31 397.31 M 479.14 502.14 C 474.86 507.49 484.94 504.83 479.14 502.14 Z" />

<path fill="#ffffff" opacity="1.00" d=" M 709.30 423.41 C 713.91 424.68 708.12 428.79 709.30 423.41 Z" />

</svg>
