<?xml version="1.0" encoding="UTF-8" ?>
<!DOCTYPE svg PUBLIC "-//W3C//DTD SVG 1.1//EN" "http://www.w3.org/Graphics/SVG/1.1/DTD/svg11.dtd">
<svg width="1225pt" height="647pt" viewBox="0 0 1225 647" version="1.1" xmlns="http://www.w3.org/2000/svg">

<path fill="#ffffff" opacity="1.00" d=" M 763.32 126.35 C 767.12 129.19 757.68 132.11 763.32 126.35 Z" />
<path fill="#ffffff" opacity="1.00" d=" M 770.33 130.29 C 781.48 132.29 790.66 141.60 798.19 149.81 C 806.54 167.42 796.34 188.26 805.50 205.48 C 806.63 216.68 798.54 227.37 790.33 234.37 C 780.06 240.18 782.90 253.66 778.97 263.00 C 775.93 273.03 766.91 278.91 759.45 285.44 C 738.50 292.39 713.56 287.16 694.86 300.78 C 686.69 302.98 679.45 308.90 673.96 315.04 C 681.30 322.84 688.65 332.65 698.53 338.34 C 702.27 352.30 714.67 363.20 708.89 378.95 C 704.38 388.22 716.64 395.23 712.61 404.31 C 713.86 412.25 719.45 420.62 716.81 428.97 C 712.30 428.82 708.39 415.41 703.93 423.02 C 692.95 415.08 681.45 408.32 668.14 405.15 C 660.71 411.86 649.90 401.83 642.95 409.93 C 624.64 426.93 598.72 426.65 575.34 428.49 C 562.28 430.63 549.13 428.88 536.18 427.04 C 528.09 444.58 539.54 463.07 530.22 480.27 C 527.12 483.46 528.03 477.34 525.44 478.12 C 524.78 482.23 522.40 485.68 519.65 488.72 C 515.30 490.16 515.34 483.16 514.27 480.25 C 518.85 475.37 521.92 469.47 523.08 462.83 C 516.54 468.69 514.40 479.40 504.90 481.92 C 502.56 478.34 515.86 465.77 506.85 466.80 C 501.00 476.71 502.47 460.82 508.87 459.88 C 523.00 459.75 523.24 442.71 527.98 432.99 C 535.26 419.49 513.50 424.21 506.90 422.14 C 495.99 414.38 486.83 427.36 487.61 437.25 C 487.54 453.11 483.39 469.33 487.69 484.89 C 486.38 491.84 490.49 499.72 487.27 506.21 C 481.10 505.87 480.96 512.53 477.82 516.02 C 472.54 517.54 474.05 504.41 469.28 508.27 C 464.72 513.78 462.02 501.47 467.23 500.27 C 472.99 496.46 468.83 490.47 462.95 492.68 C 461.08 482.72 475.24 485.49 475.05 476.01 C 481.79 454.44 480.14 431.27 480.25 409.73 C 475.13 404.02 480.56 396.97 487.36 398.15 C 489.77 393.42 502.85 392.56 497.25 385.82 C 495.88 380.56 490.14 380.34 486.76 377.05 C 489.89 375.08 493.68 376.99 497.02 376.82 C 498.07 370.37 488.27 366.65 491.74 360.32 C 489.12 358.67 486.89 356.57 486.46 353.34 C 482.22 351.17 475.11 354.19 473.45 348.28 C 455.14 352.24 437.26 360.45 418.25 359.86 C 414.98 356.57 417.52 350.88 413.29 347.66 C 416.48 336.83 418.44 322.88 431.31 319.28 C 449.66 312.18 468.74 324.67 486.45 317.46 C 502.61 315.81 520.20 323.01 535.17 314.19 C 515.99 313.11 501.44 300.73 486.73 290.24 C 466.35 285.55 446.07 280.01 426.29 272.75 C 409.77 268.18 401.34 251.85 389.65 240.38 C 386.72 231.94 378.68 226.03 379.64 216.30 C 368.54 203.83 352.19 196.47 342.12 182.96 C 354.39 180.50 368.78 172.99 379.52 182.66 C 376.77 192.72 388.88 187.11 391.74 191.23 C 403.52 198.69 415.91 206.91 425.27 217.68 C 440.72 225.76 456.38 232.70 470.85 242.14 C 474.93 246.12 483.18 243.73 484.33 250.75 C 485.90 254.17 489.58 252.65 492.23 251.67 C 506.31 259.51 522.69 264.57 537.05 272.53 C 546.15 270.00 548.95 280.66 556.06 282.91 C 563.87 278.08 568.07 295.23 575.42 291.50 C 578.58 282.42 589.53 282.38 592.82 273.86 C 601.90 268.48 606.65 255.61 619.82 258.77 C 636.88 244.44 651.50 226.50 671.86 216.85 C 677.19 209.89 689.05 208.26 688.89 197.90 C 692.90 188.96 700.91 183.42 706.92 175.96 C 713.68 174.75 712.39 166.10 719.65 164.77 C 716.54 154.26 722.55 151.07 732.05 153.96 C 731.88 150.03 725.00 138.96 733.51 141.57 C 737.30 142.63 746.07 143.23 743.25 137.30 C 750.40 130.34 761.94 134.99 770.33 130.29 M 705.22 404.42 C 704.14 409.00 709.68 404.55 705.22 404.42 M 475.32 497.27 C 472.86 499.09 471.56 502.07 471.95 505.13 C 475.45 505.53 477.29 496.50 475.32 497.27 M 481.42 504.13 C 481.51 509.09 486.52 502.46 481.42 504.13 Z" />
<path fill="#ffffff" opacity="1.00" d=" M 760.53 131.22 C 764.99 128.73 762.54 134.86 760.53 131.22 Z" />
<path fill="#ffffff" opacity="1.00" d=" M 321.50 155.03 C 324.83 156.17 328.32 156.60 331.78 157.22 C 330.09 161.01 331.72 168.05 326.02 167.99 C 319.01 168.44 320.35 159.78 321.50 155.03 Z" />
<path fill="#ffffff" opacity="1.00" d=" M 331.98 169.02 C 335.97 167.99 336.99 170.45 336.27 174.63 C 339.24 174.55 340.78 175.95 340.00 179.00 C 332.76 182.25 331.87 173.45 331.98 169.02 Z" />

<path fill="#ffffff" opacity="1.00" d=" M 711.32 431.33 C 716.80 431.18 710.56 436.92 711.32 431.33 Z" />


<path fill="#ffffff" opacity="1.00" d=" M 474.18 517.18 C 478.20 516.16 473.16 521.20 474.18 517.18 Z" />
</svg>
