<?xml version="1.0" encoding="UTF-8" ?>
<!DOCTYPE svg PUBLIC "-//W3C//DTD SVG 1.1//EN" "http://www.w3.org/Graphics/SVG/1.1/DTD/svg11.dtd">
<svg width="1225pt" height="647pt" viewBox="0 0 1225 647" version="1.1" xmlns="http://www.w3.org/2000/svg">

<path fill="#ffffff" opacity="1.00" d=" M 907.43 328.35 C 911.56 325.91 916.92 328.78 912.29 332.31 C 906.64 338.44 898.98 342.53 893.85 349.12 C 909.81 346.79 921.74 327.22 937.84 330.14 C 930.83 339.20 918.19 343.04 910.84 352.08 C 925.35 348.45 937.08 336.78 952.02 334.99 C 946.86 344.93 931.85 348.59 922.77 355.93 C 932.95 354.41 941.68 347.48 952.03 347.03 C 954.39 346.16 954.20 348.04 953.80 349.73 C 935.29 359.21 915.24 365.35 895.61 371.63 C 877.92 378.94 858.78 373.01 840.83 378.73 C 816.05 375.04 790.61 372.93 765.64 374.37 C 749.13 372.49 732.58 369.19 715.90 369.04 C 724.27 380.39 726.56 394.77 723.32 408.67 C 730.93 418.78 727.01 430.36 732.87 441.05 C 733.71 444.64 734.20 448.37 733.96 452.07 C 728.56 453.02 727.65 444.77 723.40 444.25 C 720.73 449.84 717.28 442.42 713.82 441.23 C 703.05 436.30 691.35 424.42 679.30 432.57 C 656.97 436.98 638.82 451.56 616.88 456.86 C 609.06 462.05 602.29 453.16 594.10 457.20 C 570.66 461.25 548.16 451.99 529.63 438.32 C 518.13 440.86 525.90 460.03 513.38 463.37 C 506.99 466.45 501.78 472.92 494.29 472.81 C 489.64 471.40 497.19 465.64 491.07 465.99 C 483.55 470.12 493.65 481.95 486.78 486.83 C 480.41 482.64 482.91 497.09 475.15 498.09 C 476.81 492.84 472.35 485.88 467.01 490.03 C 459.19 483.73 479.48 476.64 468.02 471.93 C 459.06 472.98 467.18 459.96 473.73 463.77 C 484.42 449.40 482.80 430.50 486.44 413.78 C 486.17 411.17 486.64 406.46 484.23 405.31 C 465.23 407.20 449.03 415.56 431.40 421.73 C 429.28 418.27 425.89 419.67 422.82 420.81 C 400.55 415.83 376.26 420.16 353.52 414.65 C 347.05 412.69 338.09 415.62 333.62 409.36 C 287.60 400.05 241.78 389.34 196.26 377.79 C 197.05 375.41 205.77 380.94 206.81 378.19 C 196.80 374.89 186.13 372.94 176.78 367.97 C 194.96 370.38 212.14 377.93 230.20 381.07 C 218.66 374.58 204.28 372.93 193.83 364.93 C 215.67 368.77 235.69 380.04 257.23 384.99 C 247.99 378.45 235.75 376.24 227.71 368.03 C 249.87 372.34 269.10 388.30 292.11 390.04 C 290.44 388.16 285.06 382.72 290.84 384.17 C 302.34 390.58 316.93 390.45 329.03 386.11 C 364.45 384.77 400.50 376.75 434.58 366.58 C 439.82 363.58 429.56 359.19 434.61 354.91 C 440.17 330.62 475.52 352.79 488.68 337.64 C 506.64 334.21 524.82 342.24 542.95 337.91 C 567.52 333.77 592.27 330.77 617.01 328.91 C 635.40 327.45 652.22 335.91 670.09 337.46 C 700.01 351.58 734.43 343.06 766.76 345.63 C 774.19 338.06 786.38 335.84 796.42 337.55 C 802.39 342.52 809.78 334.16 816.36 337.58 C 820.56 345.77 830.21 332.95 837.02 337.93 C 836.78 351.34 847.21 332.60 854.66 333.60 C 868.37 329.86 858.08 342.25 854.93 347.17 C 868.07 344.98 873.96 327.46 888.05 329.00 C 887.72 336.83 877.47 339.67 875.92 347.09 C 888.07 344.38 896.14 333.16 907.43 328.35 M 330.75 399.17 C 331.72 402.35 336.47 401.45 339.18 402.04 C 337.76 398.80 333.69 399.73 330.75 399.17 M 340.17 400.17 C 339.15 404.80 344.80 399.15 340.17 400.17 M 495.21 411.03 C 491.77 419.68 490.85 429.29 490.13 438.57 C 496.73 438.63 501.09 443.67 506.11 447.02 C 514.00 446.69 521.57 439.69 523.18 432.08 C 517.34 426.25 508.33 424.53 503.31 417.69 C 500.59 415.63 499.39 410.19 495.21 411.03 M 524.16 438.11 C 520.64 440.42 527.52 440.22 524.16 438.11 M 490.21 443.03 C 488.58 447.39 486.54 453.76 487.66 458.30 C 493.77 458.92 502.10 459.50 506.07 453.17 C 501.12 450.62 491.48 453.26 493.52 444.36 C 493.53 442.61 491.32 443.03 490.21 443.03 M 475.24 480.11 C 469.95 486.95 480.70 480.80 475.24 480.11 Z" />
<path fill="#ffffff" opacity="1.00" d=" M 190.51 376.23 C 195.03 373.76 192.58 379.82 190.51 376.23 Z" />





<path fill="#ffffff" opacity="1.00" d=" M 728.22 454.41 C 732.67 454.58 727.16 459.01 728.22 454.41 Z" />

</svg>
