<?xml version="1.0" encoding="UTF-8" ?>
<!DOCTYPE svg PUBLIC "-//W3C//DTD SVG 1.1//EN" "http://www.w3.org/Graphics/SVG/1.1/DTD/svg11.dtd">
<svg width="1225pt" height="647pt" viewBox="0 0 1225 647" version="1.1" xmlns="http://www.w3.org/2000/svg">

<path fill="#ffffff" opacity="1.00" d=" M 610.42 338.47 C 633.33 336.71 654.30 347.15 676.39 350.63 C 690.49 360.02 707.33 351.76 722.95 354.11 C 738.32 357.66 754.30 354.17 769.87 355.91 C 777.53 347.92 790.50 345.92 800.60 348.44 C 806.66 352.45 813.51 344.76 819.58 348.34 C 823.92 358.40 844.50 338.93 841.59 355.54 C 848.23 351.34 855.40 343.45 864.68 344.14 C 870.48 349.27 860.01 355.25 858.85 361.07 C 872.62 359.81 879.17 338.05 893.96 342.19 C 891.98 350.26 882.94 354.49 879.85 362.02 C 893.40 360.46 901.63 346.40 914.40 342.37 C 916.59 340.49 920.38 342.44 920.80 344.84 C 914.22 351.29 907.50 357.61 900.31 363.38 C 898.72 366.49 903.32 363.93 904.80 363.72 C 917.89 359.16 927.72 346.74 942.05 345.95 C 941.06 357.77 924.19 359.87 917.90 369.15 C 931.10 366.12 942.10 356.58 955.79 355.04 C 959.84 363.93 941.36 364.95 938.35 370.79 C 942.85 374.90 955.91 362.90 957.86 371.80 C 939.36 382.49 917.29 385.92 896.91 391.91 C 884.60 395.88 871.54 396.99 858.85 394.20 C 831.14 401.12 802.56 387.37 774.61 392.56 C 756.49 390.94 735.67 383.74 719.00 384.98 C 732.59 399.52 719.10 421.25 730.49 437.01 C 727.75 446.48 738.33 458.43 732.94 465.96 C 727.76 465.90 726.85 454.82 721.09 460.04 C 715.60 454.06 706.91 452.65 701.53 446.46 C 687.29 437.16 673.27 450.19 658.34 450.58 C 639.01 457.25 618.67 472.02 598.34 465.39 C 578.05 468.54 556.70 464.10 539.97 452.09 C 533.91 449.25 529.21 442.02 521.90 442.83 C 528.86 446.77 516.11 453.19 519.59 459.66 C 516.37 467.92 504.49 469.41 498.27 475.17 C 484.85 473.17 496.02 487.44 489.29 492.25 C 482.91 491.56 483.49 501.54 477.25 504.15 C 478.08 498.57 474.22 491.14 469.04 496.96 C 463.96 488.80 474.13 486.64 475.98 480.09 C 471.28 480.22 470.42 473.03 466.14 477.13 C 465.04 466.40 477.67 472.26 480.62 464.58 C 484.17 451.78 486.33 437.54 486.34 424.64 C 469.70 424.12 454.72 433.37 439.02 438.03 C 400.24 439.14 357.93 437.95 322.17 419.80 C 279.41 405.96 235.31 394.25 194.74 375.08 C 204.84 377.00 214.19 381.61 224.19 384.02 C 220.43 378.88 212.77 379.18 208.79 374.03 C 224.74 376.73 238.57 386.99 254.11 391.05 C 252.17 386.46 244.96 386.09 242.83 380.97 C 258.28 383.22 269.90 397.76 285.93 398.13 C 294.46 393.21 309.75 400.38 321.21 401.05 C 317.00 397.96 310.90 398.91 306.12 396.88 C 311.30 390.00 323.70 401.08 328.96 393.88 C 359.92 394.26 390.50 386.45 420.84 379.74 C 436.21 374.31 452.53 369.82 469.06 369.88 C 462.46 362.16 447.90 368.85 438.83 364.26 C 434.71 358.73 437.44 352.18 439.66 346.68 C 453.66 338.40 471.58 345.18 486.87 344.83 C 495.05 334.61 511.29 342.59 522.66 343.39 C 552.01 344.95 581.09 339.85 610.42 338.47 M 312.26 404.10 C 312.44 407.37 315.29 402.56 312.26 404.10 M 496.24 419.05 C 493.06 427.69 487.08 442.56 498.99 447.01 C 506.74 457.02 520.46 445.00 521.34 436.71 C 512.12 432.08 505.25 422.38 496.24 419.05 M 490.87 451.99 C 484.95 463.98 499.40 464.47 504.28 457.99 C 500.49 454.73 494.56 455.62 490.87 451.99 M 478.29 485.30 C 472.21 491.73 481.73 488.86 478.29 485.30 Z" />



<path fill="#ffffff" opacity="1.00" d=" M 728.48 468.22 C 733.40 468.58 728.01 473.47 728.48 468.22 Z" />

</svg>
