<?xml version="1.0" encoding="UTF-8" ?>
<!DOCTYPE svg PUBLIC "-//W3C//DTD SVG 1.1//EN" "http://www.w3.org/Graphics/SVG/1.1/DTD/svg11.dtd">
<svg width="1225pt" height="647pt" viewBox="0 0 1225 647" version="1.1" xmlns="http://www.w3.org/2000/svg">

<path fill="#ffffff" opacity="1.00" d=" M 497.39 350.27 C 519.83 352.41 541.72 360.46 564.86 357.30 C 583.25 354.37 601.55 359.32 620.02 356.97 C 633.63 358.29 646.99 361.90 659.98 366.06 C 664.07 366.50 667.86 374.71 671.32 369.36 C 677.29 374.99 688.21 376.83 695.45 372.39 C 722.39 372.78 748.85 372.90 775.94 373.70 C 783.60 367.00 795.70 361.50 805.72 364.26 C 811.13 372.82 820.99 360.98 827.87 366.12 C 828.57 378.23 839.67 362.51 847.00 365.93 C 854.82 367.15 847.27 375.71 846.82 380.05 C 854.79 371.99 863.85 359.82 876.35 361.65 C 878.24 370.83 866.13 377.19 864.79 386.00 C 881.49 381.39 888.50 356.00 906.97 359.11 C 900.44 369.93 891.23 378.91 883.92 389.18 C 900.70 385.03 910.94 369.12 926.41 362.36 C 927.10 361.68 937.54 360.97 933.74 364.68 C 923.29 374.33 913.37 384.58 902.82 394.06 C 922.01 390.77 934.88 372.47 954.07 369.03 C 955.82 368.50 957.42 370.15 957.05 371.91 C 945.36 382.89 931.31 391.12 918.69 400.96 C 936.89 398.98 951.41 383.51 970.01 382.98 C 963.06 396.85 940.66 399.52 928.83 410.06 C 941.62 410.04 957.83 395.31 969.01 403.04 C 950.13 415.33 925.14 418.26 903.18 424.24 C 884.04 434.64 862.29 426.11 842.06 428.90 C 822.61 423.78 802.37 426.51 782.61 423.41 C 761.90 426.89 742.72 411.95 721.96 410.98 C 719.32 415.71 729.96 422.15 727.98 429.02 C 724.37 451.58 734.16 471.78 735.98 493.89 C 734.06 499.70 729.44 490.98 727.75 489.28 C 710.94 486.10 697.00 462.63 677.39 470.31 C 656.35 469.36 638.15 479.83 618.00 484.02 C 613.32 486.03 607.37 487.58 603.43 483.46 C 585.60 484.02 567.48 481.21 550.98 474.03 C 541.90 467.79 533.52 460.35 524.41 454.23 C 519.39 459.08 521.67 466.58 517.80 471.80 C 510.63 476.65 503.60 482.42 495.57 485.35 C 483.76 480.70 492.71 499.36 482.38 496.38 C 482.97 501.49 471.77 512.47 473.77 503.07 C 473.24 500.26 470.73 497.79 467.99 499.98 C 463.76 502.97 465.71 496.82 465.34 494.29 C 468.32 490.80 473.54 488.40 474.07 483.37 C 467.24 486.17 469.86 475.60 463.85 478.78 C 464.73 475.47 467.18 471.17 471.60 473.44 C 478.19 475.66 482.65 466.72 481.03 461.25 C 466.27 464.21 453.15 473.61 438.04 474.03 C 413.80 478.48 388.60 471.41 364.42 467.56 C 344.38 455.43 321.59 449.56 299.88 441.11 C 275.95 430.08 246.66 426.51 227.79 407.05 C 242.22 411.13 254.98 420.13 270.05 422.08 C 269.41 420.33 268.58 418.68 267.95 416.94 C 277.83 417.72 287.19 421.75 297.15 422.05 C 294.81 420.63 291.17 419.48 291.94 416.02 C 301.81 416.31 311.28 419.85 321.17 420.08 C 318.55 417.91 311.56 418.35 312.48 413.44 C 319.54 412.13 326.52 414.44 333.55 414.84 C 333.46 411.81 335.49 409.96 338.48 410.54 C 358.36 415.11 377.23 406.74 396.81 404.74 C 412.86 400.67 431.57 399.67 443.96 387.96 C 452.47 383.78 462.11 385.34 471.24 384.85 C 466.57 383.12 457.27 378.42 465.13 373.97 C 457.31 374.77 439.48 376.39 443.28 363.35 C 448.97 336.95 483.21 363.78 497.39 350.27 M 488.53 373.22 C 490.55 376.85 493.00 370.73 488.53 373.22 M 309.26 432.10 C 309.44 435.37 312.29 430.56 309.26 432.10 M 518.31 446.40 C 513.16 450.55 505.48 451.89 501.06 456.09 C 504.16 466.57 523.93 451.83 518.31 446.40 M 490.12 459.96 C 482.27 471.87 500.49 475.11 504.02 466.15 C 498.82 464.26 492.90 465.03 490.12 459.96 M 490.37 479.39 C 487.03 486.49 495.26 481.39 490.37 479.39 M 476.31 490.34 C 470.18 493.42 479.19 494.80 476.31 490.34 Z" />






</svg>
