<?xml version="1.0" encoding="UTF-8" ?>
<!DOCTYPE svg PUBLIC "-//W3C//DTD SVG 1.1//EN" "http://www.w3.org/Graphics/SVG/1.1/DTD/svg11.dtd">
<svg width="1225pt" height="647pt" viewBox="0 0 1225 647" version="1.1" xmlns="http://www.w3.org/2000/svg">

<path fill="#ffffff" opacity="1.00" d=" M 454.46 355.47 C 467.37 354.61 480.09 358.33 492.94 359.02 C 503.85 349.33 518.61 361.09 531.12 361.74 C 576.85 367.59 628.05 353.92 669.59 378.66 C 673.12 371.26 676.78 385.92 683.04 380.27 C 711.77 376.93 740.62 380.14 769.67 379.36 C 782.10 383.18 792.56 363.85 806.59 370.36 C 811.51 379.64 822.26 363.32 828.75 371.32 C 828.90 383.02 841.23 366.17 847.68 369.31 C 855.47 372.24 846.65 380.88 845.95 386.14 C 854.91 377.85 863.65 360.64 878.01 365.15 C 875.32 374.76 868.16 382.26 864.06 391.23 C 880.73 386.32 885.81 365.93 901.64 359.64 C 903.35 358.37 908.05 358.74 906.67 361.69 C 899.87 373.03 891.17 383.09 883.85 394.05 C 900.87 389.78 910.35 372.48 925.08 364.04 C 927.65 364.04 934.15 359.51 934.97 363.97 C 924.95 377.16 911.89 388.02 901.69 400.91 C 922.79 395.31 935.69 371.89 958.14 371.00 C 947.53 386.73 928.90 395.62 915.86 409.12 C 932.12 405.08 945.52 393.90 961.07 388.05 C 963.71 388.23 970.17 383.39 970.96 388.03 C 956.71 401.40 936.88 408.73 920.82 420.06 C 937.64 415.91 953.51 406.24 971.24 407.14 C 950.95 419.99 926.89 424.85 904.07 431.20 C 884.14 442.55 861.32 432.85 840.06 435.92 C 811.11 429.59 779.62 435.21 750.98 425.02 C 740.46 421.81 729.92 418.20 718.95 416.97 C 720.45 429.20 734.22 437.69 728.57 451.58 C 724.31 461.33 730.39 469.20 733.13 477.90 C 731.99 488.29 738.56 497.66 736.93 508.13 C 731.31 508.33 730.06 497.56 724.66 501.32 C 713.16 494.07 701.44 484.61 688.03 479.98 C 680.90 483.37 672.71 480.87 665.05 481.72 C 652.38 473.11 639.23 488.18 626.31 489.16 C 610.91 494.75 596.24 490.07 580.31 488.74 C 558.36 486.53 540.26 473.84 524.99 458.75 C 520.56 463.09 521.53 469.53 519.99 474.96 C 512.76 480.83 505.41 487.43 496.57 490.55 C 487.34 495.63 496.84 481.77 490.10 483.08 C 482.11 483.70 490.86 498.22 480.23 496.25 C 478.52 499.67 476.14 505.94 471.12 507.11 C 469.69 504.97 472.03 501.86 469.81 500.16 C 467.99 497.20 463.12 503.31 462.27 500.33 C 460.66 492.27 470.34 490.82 472.12 484.21 C 468.97 483.21 465.58 480.10 462.32 482.29 C 428.98 497.63 390.85 494.32 355.63 488.40 C 352.56 487.81 356.11 483.17 352.68 482.34 C 342.26 480.21 330.59 480.55 321.63 474.11 C 329.00 473.12 335.79 480.42 342.93 478.01 C 335.25 472.88 324.26 473.31 315.63 469.15 C 321.87 469.42 328.03 470.54 334.26 470.88 C 312.70 464.33 289.45 460.57 268.75 452.06 C 286.99 455.63 304.81 461.30 323.24 463.92 C 298.81 453.94 271.73 451.36 246.87 442.22 C 244.67 441.03 237.07 441.97 241.30 439.10 C 268.45 444.89 298.19 455.11 323.97 457.10 C 297.95 449.76 269.33 445.10 242.83 436.55 C 268.67 434.73 294.00 448.69 320.22 450.05 C 303.92 444.80 285.96 442.55 269.78 436.19 C 267.03 434.60 268.51 433.34 271.10 433.21 C 282.30 434.01 293.13 437.45 304.27 438.77 C 301.17 435.13 291.59 436.95 292.06 431.15 C 300.95 429.05 309.90 433.12 318.72 433.60 C 325.91 431.24 307.74 431.31 313.21 427.23 C 318.42 420.46 334.14 433.99 334.80 423.55 C 369.74 424.00 404.46 414.22 437.64 402.64 C 440.05 390.50 456.49 391.59 466.48 392.36 C 484.30 394.11 455.47 389.66 463.67 382.69 C 472.27 378.64 482.81 380.44 492.20 381.00 C 481.71 371.96 466.19 380.59 454.12 377.85 C 440.15 379.59 443.32 355.64 454.46 355.47 M 501.21 469.56 C 496.95 471.69 484.30 470.00 488.16 476.83 C 492.02 477.33 511.62 472.47 501.21 469.56 M 473.26 491.30 C 467.92 493.72 475.93 494.86 473.26 491.30 Z" />
<path fill="#ffffff" opacity="1.00" d=" M 235.16 437.11 C 238.52 439.22 231.64 439.42 235.16 437.11 Z" />
<path fill="#ffffff" opacity="1.00" d=" M 258.78 452.93 C 269.07 455.01 278.50 460.41 288.22 464.02 C 278.34 461.76 267.43 458.38 258.78 452.93 Z" />


</svg>
