<?xml version="1.0" encoding="UTF-8" ?>
<!DOCTYPE svg PUBLIC "-//W3C//DTD SVG 1.1//EN" "http://www.w3.org/Graphics/SVG/1.1/DTD/svg11.dtd">
<svg width="1225pt" height="647pt" viewBox="0 0 1225 647" version="1.1" xmlns="http://www.w3.org/2000/svg">

<path fill="#ffffff" opacity="1.00" d=" M 498.40 362.41 C 510.17 362.25 520.78 368.61 532.46 369.45 C 574.45 372.90 618.56 366.47 658.63 379.39 C 661.92 381.61 664.65 384.51 667.77 386.96 C 666.67 375.72 671.55 386.31 674.90 386.73 C 705.17 382.20 734.24 393.49 763.98 395.98 C 782.45 399.92 801.27 396.45 818.85 399.11 C 826.14 405.00 834.69 388.86 841.79 396.20 C 846.04 398.71 839.41 404.55 844.83 404.75 C 851.06 399.92 855.87 390.50 864.80 391.03 C 869.68 396.78 861.28 401.43 860.90 407.08 C 872.23 406.37 876.69 391.52 887.75 391.08 C 892.37 400.93 878.32 406.49 873.86 414.09 C 888.35 410.51 898.04 395.64 913.11 393.93 C 909.43 405.81 895.78 410.40 887.84 419.03 C 902.32 416.21 914.42 402.78 929.05 402.89 C 920.82 413.12 908.14 417.59 897.76 424.92 C 908.68 423.85 921.48 414.90 930.95 416.92 C 915.59 429.78 893.40 431.68 874.16 436.27 C 863.52 438.76 853.48 433.14 843.03 432.54 C 825.88 437.75 810.96 425.01 794.36 422.59 C 778.16 416.10 761.17 418.59 744.32 414.72 C 728.97 412.27 713.46 409.18 697.83 411.13 C 700.61 418.16 707.66 422.05 712.91 427.06 C 718.81 431.01 717.98 439.39 723.39 443.65 C 732.05 453.21 727.16 467.06 727.75 478.31 C 734.27 486.25 731.76 496.75 736.59 505.37 C 737.52 510.70 740.79 516.48 738.95 521.98 C 733.27 521.16 732.37 510.22 725.88 514.74 C 714.26 505.90 701.07 499.96 688.01 493.98 C 679.92 498.60 670.20 493.99 661.77 494.23 C 655.86 482.52 644.27 489.57 635.28 492.86 C 614.44 503.42 591.36 498.19 569.43 494.50 C 551.79 491.57 538.83 479.27 525.17 468.81 C 518.32 465.02 524.83 478.24 520.13 481.13 C 511.96 487.60 503.95 497.00 493.06 498.05 C 493.27 496.03 493.75 494.05 493.94 492.04 C 493.60 487.58 484.23 493.45 484.12 488.41 C 488.99 489.18 488.48 482.92 492.46 482.60 C 497.45 482.00 503.62 481.13 506.16 476.11 C 501.49 475.16 491.01 478.83 492.60 469.87 C 480.71 470.98 477.34 480.45 476.86 490.86 C 469.13 490.22 471.61 499.19 465.68 501.69 C 463.64 503.84 459.49 501.92 462.13 499.20 C 463.53 492.38 448.99 502.62 454.87 494.72 C 419.36 517.61 379.13 534.59 338.45 547.61 C 321.38 554.75 303.49 549.63 286.27 556.20 C 279.15 556.82 264.55 564.63 262.75 554.16 C 246.62 554.85 231.17 561.44 214.78 558.91 C 216.14 556.45 222.19 554.72 217.72 552.32 C 209.47 548.64 200.33 554.80 191.64 552.99 C 197.78 550.25 197.95 541.16 207.59 542.57 C 204.87 540.85 192.30 543.62 188.16 540.07 C 199.71 533.60 214.43 530.80 227.51 527.39 C 238.92 524.78 245.63 513.04 258.29 513.21 C 284.56 495.98 315.83 484.81 338.36 461.33 C 354.73 458.02 366.29 445.68 380.58 438.61 C 409.18 426.95 433.26 403.35 466.20 402.75 C 459.36 400.52 457.62 391.82 466.32 391.29 C 473.72 389.10 481.62 390.35 489.23 389.94 C 478.27 378.08 461.45 389.07 448.27 383.78 C 444.13 377.89 447.14 369.14 451.11 364.14 C 466.15 357.03 485.74 373.45 498.40 362.41 M 508.34 456.30 C 504.33 458.79 498.53 461.16 497.09 465.79 C 502.77 471.56 510.22 472.46 515.12 465.15 C 521.79 461.87 513.01 454.84 508.34 456.30 Z" />

<path fill="#ffffff" opacity="1.00" d=" M 733.37 523.14 C 737.34 522.33 732.71 527.13 733.37 523.14 Z" />
</svg>
