<?xml version="1.0" encoding="UTF-8" ?>
<!DOCTYPE svg PUBLIC "-//W3C//DTD SVG 1.1//EN" "http://www.w3.org/Graphics/SVG/1.1/DTD/svg11.dtd">
<svg width="1225pt" height="647pt" viewBox="0 0 1225 647" version="1.1" xmlns="http://www.w3.org/2000/svg">

<path fill="#ffffff" opacity="1.00" d=" M 736.27 355.56 C 746.49 356.84 757.90 354.73 764.32 364.53 C 774.05 358.99 771.08 376.88 778.65 380.33 C 785.44 399.49 805.19 406.73 816.51 422.45 C 818.29 424.04 822.37 427.80 817.31 426.78 C 804.24 430.57 796.03 420.09 783.54 418.42 C 779.08 412.98 768.29 421.43 767.60 412.31 C 762.98 412.59 758.08 414.16 754.11 410.83 C 734.76 401.70 712.36 401.14 693.36 391.59 C 688.14 389.30 681.36 391.97 679.35 397.20 C 691.69 411.56 712.77 421.02 720.03 439.99 C 731.40 449.04 726.14 464.86 728.04 476.99 C 734.97 484.53 731.74 494.81 737.07 502.98 C 738.29 508.03 741.58 513.98 739.84 519.05 C 734.03 518.94 732.81 507.94 726.66 512.27 C 714.16 505.26 701.88 497.59 688.14 493.06 C 682.08 498.64 673.12 493.81 665.95 495.09 C 659.79 495.65 657.90 486.24 650.98 488.93 C 639.01 493.46 627.00 498.28 614.53 501.51 C 593.14 500.23 570.39 500.89 550.05 491.94 C 542.58 484.68 532.45 481.35 524.67 474.44 C 519.45 469.34 523.50 481.26 520.96 483.94 C 514.50 492.51 504.27 496.05 495.83 501.91 C 489.15 502.95 496.05 497.04 492.79 494.10 C 490.00 493.61 486.24 496.33 484.23 493.82 C 487.72 486.77 498.34 488.01 504.78 482.74 C 505.40 476.59 490.52 484.03 492.36 474.48 C 491.80 471.02 488.09 472.58 485.76 472.74 C 488.28 464.42 497.43 469.64 501.92 473.08 C 506.29 477.27 515.22 472.42 515.72 467.38 C 507.39 461.93 501.28 454.25 495.65 446.19 C 486.49 446.56 483.05 455.90 481.29 463.31 C 472.52 471.78 477.70 488.34 465.63 493.56 C 465.30 498.48 454.85 505.30 455.38 497.06 C 446.34 502.67 446.44 488.78 453.61 488.46 C 459.39 487.58 463.80 476.39 453.01 479.95 C 430.04 500.15 401.89 518.54 376.63 538.61 C 343.11 559.47 311.14 583.69 273.81 597.01 C 275.53 592.24 282.28 591.54 284.18 586.89 C 279.56 587.81 276.09 592.04 271.23 591.96 C 268.19 587.97 277.78 587.79 277.20 583.53 C 274.82 584.55 270.97 582.22 274.36 580.36 C 283.27 575.41 284.91 563.73 294.35 559.37 C 301.87 553.56 313.29 551.05 316.58 541.62 C 342.81 524.43 359.30 497.16 383.53 477.51 C 381.54 476.86 373.61 481.50 369.40 481.47 C 353.51 482.36 376.72 469.61 379.77 466.12 C 371.01 462.11 388.74 456.19 387.14 453.17 C 374.25 454.84 388.68 445.02 393.64 441.98 C 387.97 434.24 401.62 433.77 404.48 428.74 C 402.48 419.52 417.75 422.81 416.63 413.48 C 418.44 408.80 428.77 410.97 426.64 404.16 C 434.94 395.51 449.52 399.13 459.99 394.96 C 456.34 392.32 454.61 389.50 460.23 388.10 C 445.99 393.78 443.40 375.74 450.18 368.19 C 464.67 361.21 482.85 375.51 496.30 366.19 C 514.80 366.86 532.68 377.51 551.70 373.54 C 573.27 377.92 592.67 365.14 614.01 368.13 C 629.46 367.29 645.54 374.77 660.34 368.31 C 685.30 362.16 713.16 367.01 736.27 355.56 M 479.00 387.00 C 487.94 390.42 493.26 385.31 479.00 387.00 M 499.18 422.18 C 498.16 426.20 503.20 421.16 499.18 422.18 M 482.05 445.99 C 474.86 451.92 465.21 456.85 462.35 466.35 C 458.24 469.56 460.87 475.71 465.67 471.68 C 472.43 464.45 479.95 455.88 482.05 445.99 M 288.30 583.34 C 281.21 585.46 289.21 588.15 288.30 583.34 Z" />




</svg>
