<?xml version="1.0" encoding="UTF-8" ?>
<!DOCTYPE svg PUBLIC "-//W3C//DTD SVG 1.1//EN" "http://www.w3.org/Graphics/SVG/1.1/DTD/svg11.dtd">
<svg width="1225pt" height="647pt" viewBox="0 0 1225 647" version="1.1" xmlns="http://www.w3.org/2000/svg">

<path fill="#ffffff" opacity="1.00" d=" M 624.46 325.51 C 643.50 323.39 662.50 329.80 681.26 329.11 C 686.56 320.17 694.93 328.73 701.62 329.56 C 714.08 322.93 733.38 326.44 738.08 340.88 C 736.73 353.44 751.73 357.51 754.07 368.66 C 744.87 372.55 735.75 366.64 727.95 361.11 C 719.94 360.12 713.91 354.02 705.77 353.55 C 687.72 358.50 668.62 372.71 667.12 392.69 C 683.34 401.76 697.21 414.03 711.90 425.13 C 715.35 432.43 720.13 438.07 724.37 444.66 C 728.51 453.59 725.27 463.84 726.86 473.12 C 735.37 484.26 733.59 497.74 739.89 510.10 C 741.47 521.13 734.33 510.97 731.36 508.58 C 724.92 510.67 719.23 504.24 712.86 502.19 C 706.03 496.00 696.61 495.88 688.98 491.23 C 682.47 496.43 673.41 493.38 665.66 494.76 C 661.40 495.28 659.62 489.02 655.14 490.10 C 639.18 493.51 624.89 503.99 608.24 504.62 C 586.81 500.93 562.01 505.51 543.30 491.73 C 535.72 487.25 527.60 483.80 520.93 477.91 C 524.25 492.75 508.07 494.33 500.14 502.13 C 498.32 504.31 487.54 506.69 491.31 501.37 C 494.91 495.24 484.73 499.93 482.10 496.87 C 486.11 489.73 496.55 491.14 503.74 486.67 C 505.11 479.98 490.52 486.81 491.63 478.89 C 492.42 474.07 487.14 474.24 483.92 474.94 C 492.13 461.68 503.88 487.66 513.01 474.80 C 503.75 470.16 497.92 450.63 485.58 459.56 C 473.26 471.84 470.74 490.88 454.70 499.79 C 450.11 499.39 445.56 498.40 441.21 496.91 C 442.48 488.26 454.40 491.20 455.82 482.39 C 447.58 482.06 447.76 474.13 443.82 469.02 C 450.37 466.97 454.09 473.21 458.97 475.90 C 474.12 470.28 482.92 453.45 486.41 438.36 C 487.46 432.35 498.66 438.63 496.10 433.94 C 489.41 429.43 496.88 429.66 500.99 431.72 C 502.52 426.99 497.50 422.70 494.36 419.65 C 492.00 412.04 488.53 404.84 486.05 397.27 C 475.44 397.92 476.07 409.54 467.92 413.93 C 462.20 417.69 459.28 426.09 451.30 425.34 C 449.17 430.05 446.33 434.46 440.13 433.27 C 421.12 444.12 402.26 455.31 383.20 466.16 C 364.79 477.57 344.11 484.40 325.12 494.82 C 314.69 498.59 303.28 505.19 292.32 501.70 C 287.07 494.08 291.96 482.95 299.34 478.39 C 320.12 465.92 339.41 451.59 357.83 435.85 C 362.45 430.94 375.24 425.17 369.09 417.13 C 381.68 407.69 392.73 397.37 405.30 387.34 C 408.42 386.27 403.41 385.51 406.46 384.51 C 423.76 378.59 441.87 376.11 459.11 370.09 C 473.80 364.77 493.29 367.52 503.68 353.65 C 516.87 341.08 539.86 344.21 546.22 361.76 C 550.92 362.34 559.95 372.09 557.01 360.99 C 558.47 346.84 574.16 344.87 584.35 339.32 C 596.59 331.72 610.65 328.72 624.46 325.51 M 482.10 459.26 C 480.56 462.29 485.37 459.44 482.10 459.26 M 478.18 463.18 C 477.16 467.20 482.20 462.16 478.18 463.18 Z" />


</svg>
