<?xml version="1.0" encoding="UTF-8" ?>
<!DOCTYPE svg PUBLIC "-//W3C//DTD SVG 1.1//EN" "http://www.w3.org/Graphics/SVG/1.1/DTD/svg11.dtd">
<svg width="1225pt" height="647pt" viewBox="0 0 1225 647" version="1.1" xmlns="http://www.w3.org/2000/svg">

<path fill="#ffffff" opacity="1.00" d=" M 731.40 293.39 C 743.71 290.00 753.19 301.13 765.02 300.85 C 775.28 302.70 789.78 297.69 796.32 308.66 C 801.01 310.55 806.29 310.61 811.09 312.29 C 800.23 316.50 788.69 324.84 776.52 320.61 C 756.48 319.74 735.35 319.07 717.85 330.80 C 713.69 334.16 714.56 327.16 713.65 324.82 C 694.42 336.07 680.99 354.38 671.02 374.00 C 666.39 382.85 664.49 395.71 673.99 401.99 C 687.04 408.23 697.28 419.08 709.35 426.66 C 712.05 437.02 723.15 442.24 723.52 453.45 C 725.48 461.38 720.93 471.33 727.08 477.89 C 729.47 482.07 732.99 486.82 730.66 491.76 C 734.48 499.38 738.69 507.36 738.00 516.21 C 732.57 516.08 728.98 502.98 724.89 510.97 C 718.22 505.43 709.52 503.58 702.59 498.50 C 695.29 499.40 688.23 489.54 682.34 496.33 C 673.76 495.13 663.14 499.99 655.73 493.32 C 638.91 496.53 623.68 507.57 606.47 508.27 C 583.83 505.80 558.42 509.22 538.80 495.19 C 532.11 491.63 524.95 488.96 519.20 483.81 C 513.50 479.99 517.87 491.55 512.55 492.45 C 503.08 495.47 494.13 509.95 483.87 502.29 C 493.63 500.65 483.08 497.59 478.44 496.96 C 482.29 489.46 494.87 493.30 500.39 485.94 C 496.97 482.37 486.20 486.46 487.51 478.95 C 487.74 474.38 482.99 474.95 479.68 475.59 C 484.92 465.27 495.29 476.34 501.12 479.98 C 511.98 478.25 497.03 469.56 493.64 465.33 C 467.35 461.30 465.15 511.89 436.13 498.04 C 437.22 489.34 449.16 493.10 451.15 484.96 C 443.55 482.90 442.32 475.82 439.08 470.19 C 445.62 467.15 449.81 475.11 454.13 478.55 C 469.29 475.01 480.81 460.43 484.81 445.76 C 486.92 441.49 491.94 443.69 495.75 443.56 C 501.31 441.99 493.59 439.25 491.86 437.14 C 488.88 433.08 496.59 436.27 498.82 436.09 C 494.59 422.51 482.75 411.07 485.03 396.04 C 472.01 393.75 455.87 399.23 442.06 395.98 C 434.95 389.77 441.03 378.03 444.86 372.24 C 428.26 360.82 407.66 354.84 387.62 353.48 C 369.83 356.19 351.49 349.94 333.52 354.43 C 328.90 354.20 315.19 357.53 318.02 348.15 C 380.68 330.47 448.46 314.06 513.48 308.68 C 515.21 300.17 522.61 311.29 527.21 306.27 C 533.63 308.04 539.62 311.58 541.08 318.99 C 553.28 325.51 552.53 341.61 564.21 348.77 C 596.66 332.21 631.57 322.13 667.99 318.09 C 692.00 318.65 708.81 297.63 731.40 293.39 M 475.26 469.10 C 475.44 472.37 478.29 467.56 475.26 469.10 Z" />
<path fill="#ffffff" opacity="1.00" d=" M 296.28 356.47 C 296.95 356.00 299.02 358.13 297.25 358.00 C 285.69 361.65 274.32 367.39 261.94 367.02 C 270.63 361.50 285.39 360.10 296.28 356.47 Z" />

<path fill="#ffffff" opacity="1.00" d=" M 733.10 518.26 C 736.37 518.44 731.56 521.29 733.10 518.26 Z" />
</svg>
