<?xml version="1.0" encoding="UTF-8" ?>
<!DOCTYPE svg PUBLIC "-//W3C//DTD SVG 1.1//EN" "http://www.w3.org/Graphics/SVG/1.1/DTD/svg11.dtd">
<svg width="1225pt" height="647pt" viewBox="0 0 1225 647" version="1.1" xmlns="http://www.w3.org/2000/svg">

<path fill="#ffffff" opacity="1.00" d=" M 886.42 269.42 C 892.03 271.86 900.51 269.88 903.73 276.21 C 921.16 275.30 904.46 290.17 900.00 296.00 C 882.67 308.73 865.95 325.26 842.97 326.01 C 820.17 343.00 785.43 333.15 763.02 350.98 C 749.33 353.18 738.35 362.22 724.98 365.93 C 705.36 372.58 689.36 386.33 674.10 399.69 C 682.44 405.44 688.43 414.74 698.63 417.38 C 706.06 422.32 707.05 432.64 713.71 438.43 C 718.85 447.11 715.67 457.95 717.73 467.30 C 725.48 477.70 726.02 490.63 730.60 502.40 C 733.55 517.10 723.87 501.48 719.45 501.13 C 719.24 506.47 715.06 501.52 712.51 500.60 C 700.02 496.42 685.46 485.22 673.13 492.66 C 665.32 491.00 655.51 496.20 649.57 489.42 C 644.99 486.18 639.85 491.93 635.29 493.24 C 622.84 498.55 609.71 506.05 596.18 504.77 C 580.52 501.68 563.25 506.27 547.96 499.12 C 529.98 494.74 517.44 479.41 502.00 470.98 C 496.08 477.55 486.01 482.58 477.63 487.63 C 475.10 489.84 467.07 488.69 470.42 484.53 C 472.99 479.94 456.98 482.70 463.82 478.81 C 467.07 470.66 478.97 477.02 482.95 469.95 C 480.76 465.72 471.78 469.11 470.55 462.52 C 460.07 474.99 450.03 505.55 427.05 494.82 C 426.33 484.84 440.60 490.78 441.89 481.95 C 441.10 478.30 432.18 479.92 434.30 474.38 C 435.74 469.97 429.53 469.89 429.86 466.01 C 439.79 461.16 442.21 480.43 451.00 474.00 C 463.16 465.28 470.35 451.34 477.38 438.54 C 476.20 429.94 485.02 428.99 490.67 431.65 C 497.09 432.18 490.31 426.74 488.32 424.74 C 484.41 416.31 481.39 404.13 470.12 404.71 C 473.17 401.86 471.90 399.37 476.42 397.14 C 455.70 396.75 435.20 405.59 414.64 403.35 C 415.26 397.53 422.27 394.30 426.05 390.15 C 403.30 388.05 380.62 384.97 358.16 380.76 C 317.96 379.57 278.55 369.42 239.99 359.04 C 237.68 358.06 232.51 359.31 233.47 355.29 C 220.33 348.13 205.25 348.51 190.89 346.09 C 179.68 346.69 189.40 344.16 192.11 343.58 C 182.42 338.67 166.72 337.90 163.54 325.42 C 161.44 322.35 155.25 316.46 162.02 315.25 C 165.60 315.62 172.53 311.06 168.04 307.74 C 218.66 313.35 269.12 326.82 319.34 337.70 C 345.95 343.48 373.48 340.59 399.84 347.24 C 421.94 349.45 446.34 348.20 466.80 353.83 C 472.49 348.57 478.69 356.82 485.60 353.42 C 492.43 352.08 495.92 362.34 502.63 358.74 C 508.09 356.81 510.42 362.71 514.77 364.28 C 524.25 367.99 534.52 364.25 542.12 372.84 C 545.31 381.99 554.67 373.41 560.89 377.80 C 580.35 373.65 598.38 364.17 617.04 358.06 C 623.81 347.26 638.48 352.27 646.40 343.40 C 659.58 343.63 669.34 333.18 682.49 333.57 C 707.51 326.15 733.61 326.20 759.15 321.16 C 768.87 312.76 781.45 310.08 792.26 303.56 C 800.27 305.49 805.82 292.21 813.02 298.56 C 818.08 294.98 821.12 288.77 826.96 285.98 C 831.92 286.67 829.28 292.56 830.18 296.08 C 837.61 293.17 839.78 277.65 848.39 277.48 C 856.42 291.97 862.88 263.00 873.08 273.86 C 877.92 276.90 882.02 270.83 886.42 269.42 M 478.32 454.14 C 471.98 458.88 488.64 466.68 490.71 460.23 C 488.71 455.41 483.62 452.23 478.32 454.14 M 717.22 485.49 C 716.93 490.54 722.35 485.62 717.22 485.49 Z" />


<path fill="#ffffff" opacity="1.00" d=" M 726.22 511.42 C 730.68 511.55 725.13 516.00 726.22 511.42 Z" />
</svg>
