<?xml version="1.0" encoding="UTF-8" ?>
<!DOCTYPE svg PUBLIC "-//W3C//DTD SVG 1.1//EN" "http://www.w3.org/Graphics/SVG/1.1/DTD/svg11.dtd">
<svg width="1225pt" height="647pt" viewBox="0 0 1225 647" version="1.1" xmlns="http://www.w3.org/2000/svg">

<path fill="#ffffff" opacity="1.00" d=" M 901.47 274.39 C 904.60 273.27 908.41 273.09 906.60 276.66 C 901.14 288.22 893.00 298.35 887.89 310.07 C 905.72 303.67 911.71 277.35 932.08 275.01 C 927.17 289.42 914.13 300.22 906.12 313.28 C 920.05 307.76 928.89 293.98 941.96 286.97 C 944.01 285.53 949.73 284.98 948.98 288.93 C 942.52 298.64 931.62 305.02 925.81 315.06 C 935.26 313.61 943.18 301.90 952.94 306.24 C 938.27 322.53 915.97 332.34 895.88 342.00 C 880.20 356.93 857.24 351.06 839.06 360.08 C 802.66 360.59 768.16 369.06 733.33 377.30 C 712.88 378.63 694.07 386.90 677.03 397.74 C 683.61 403.67 689.77 410.18 698.70 412.34 C 705.37 424.80 717.24 436.18 714.40 451.64 C 712.04 459.84 718.69 465.41 721.50 472.32 C 719.76 482.62 729.14 490.64 728.03 501.03 C 724.21 506.08 715.75 485.12 714.69 497.09 C 707.75 492.72 699.42 491.41 692.71 486.52 C 685.55 487.69 678.01 479.65 672.31 486.33 C 665.35 485.82 657.66 487.04 650.38 486.54 C 647.66 485.05 645.56 479.95 642.02 482.98 C 626.94 489.71 611.86 498.80 595.09 499.87 C 572.91 496.43 547.79 500.28 528.68 485.33 C 516.05 478.45 508.04 465.19 495.17 459.11 C 490.05 468.88 476.07 476.56 465.09 479.00 C 459.03 476.45 466.44 476.50 464.89 472.18 C 459.01 469.24 453.27 472.92 453.67 479.68 C 445.34 486.28 434.77 494.81 423.91 487.89 C 425.06 483.31 428.22 479.70 433.65 480.53 C 442.49 477.75 437.33 471.91 431.38 469.80 C 435.38 464.11 422.67 461.73 430.11 458.98 C 437.98 457.89 439.96 472.47 447.77 467.71 C 454.09 463.21 459.69 456.59 462.83 449.34 C 460.57 449.33 459.09 447.91 461.12 446.17 C 475.55 446.00 470.36 423.48 481.16 419.24 C 490.32 415.98 480.49 407.98 477.66 403.31 C 472.75 405.10 458.88 401.26 469.57 398.73 C 467.18 395.65 469.09 394.58 472.42 394.16 C 450.42 395.00 429.16 402.82 407.09 402.99 C 401.39 400.53 412.65 398.03 409.56 393.03 C 341.50 389.92 271.92 383.83 208.00 359.10 C 224.31 357.66 240.78 365.12 257.27 365.81 C 225.82 356.22 192.67 351.93 161.94 339.83 C 162.59 338.15 164.03 337.71 165.67 338.27 C 193.61 344.09 221.23 351.48 249.23 356.98 C 218.80 344.53 183.71 338.87 155.74 321.98 C 191.87 328.24 226.17 344.50 262.24 351.99 C 232.22 337.93 199.44 328.55 172.34 308.74 C 170.64 305.54 177.30 308.12 179.62 308.45 C 213.80 323.06 247.55 339.22 283.21 349.90 C 257.30 334.86 225.54 325.65 206.07 301.89 C 213.06 298.74 221.77 308.49 228.94 312.06 C 251.24 324.80 273.72 338.32 298.36 345.82 C 286.33 334.54 269.20 328.49 259.96 314.03 C 263.13 311.49 266.60 315.10 269.48 316.47 C 288.28 329.40 306.92 343.35 328.34 351.69 C 352.19 363.66 379.08 364.80 405.12 367.91 C 481.89 378.54 561.56 381.90 635.60 355.53 C 673.66 335.75 717.90 330.78 760.25 328.04 C 767.20 323.77 773.76 314.62 782.58 315.49 C 791.07 321.13 795.75 306.24 804.74 309.03 C 807.50 320.37 814.95 303.30 821.15 303.04 C 829.22 300.18 826.26 308.89 827.28 313.22 C 832.98 304.34 838.66 290.68 850.74 290.12 C 852.87 297.15 846.35 305.75 846.15 313.30 C 860.13 306.68 860.35 286.43 874.15 279.06 C 880.86 275.32 879.02 279.94 878.28 282.31 C 875.05 291.80 870.48 300.74 866.97 310.10 C 883.20 304.54 886.54 282.60 901.47 274.39 M 478.41 443.28 C 469.47 445.59 475.95 456.55 483.03 452.03 C 492.17 451.01 484.59 439.50 478.41 443.28 M 467.30 457.23 C 456.59 464.92 475.62 467.18 477.05 459.17 C 474.33 457.11 470.57 457.15 467.30 457.23 M 713.91 477.95 C 714.28 486.07 720.30 480.10 713.91 477.95 Z" />



<path fill="#ffffff" opacity="1.00" d=" M 723.14 505.37 C 727.13 504.71 722.33 509.34 723.14 505.37 Z" />
</svg>
