<?xml version="1.0" encoding="UTF-8" ?>
<!DOCTYPE svg PUBLIC "-//W3C//DTD SVG 1.1//EN" "http://www.w3.org/Graphics/SVG/1.1/DTD/svg11.dtd">
<svg width="1225pt" height="647pt" viewBox="0 0 1225 647" version="1.1" xmlns="http://www.w3.org/2000/svg">

<path fill="#ffffff" opacity="1.00" d=" M 906.31 274.26 C 907.83 273.67 909.71 273.82 910.89 275.05 C 903.95 292.06 893.09 307.47 885.84 324.09 C 905.75 312.86 914.04 289.06 933.14 277.14 C 941.57 275.45 933.04 284.91 931.14 288.11 C 923.53 302.69 910.28 314.08 903.79 329.01 C 920.72 319.03 932.63 302.61 948.97 291.95 C 950.75 290.99 955.87 288.75 954.70 292.70 C 942.82 309.95 926.22 323.14 911.88 338.12 C 927.44 331.48 939.91 318.57 956.13 313.16 C 958.53 312.32 959.75 313.29 958.80 315.76 C 937.44 335.84 909.60 346.12 884.94 360.97 C 846.92 372.79 807.56 369.88 768.87 377.83 C 742.16 383.88 712.50 380.60 686.86 392.79 C 673.64 396.44 691.85 406.19 697.67 407.37 C 702.34 419.09 713.80 427.40 713.61 440.89 C 711.57 450.07 713.34 458.66 719.00 465.98 C 717.84 477.39 727.94 486.44 726.00 498.07 C 720.61 498.74 714.17 482.13 713.03 493.06 C 701.50 486.59 689.72 480.67 676.62 478.41 C 667.54 482.35 653.13 484.39 643.93 478.03 C 625.00 484.68 605.59 501.23 584.98 494.12 C 561.73 495.22 536.79 491.58 519.25 474.79 C 509.93 468.72 504.14 456.36 493.30 453.06 C 493.55 466.86 478.31 469.57 469.60 476.68 C 468.15 478.12 457.62 477.21 462.92 473.89 C 466.15 469.83 458.47 469.16 455.22 470.10 C 448.75 476.79 439.20 486.40 429.08 484.09 C 422.14 484.98 422.07 478.88 425.74 475.81 C 430.04 475.30 435.23 474.82 437.76 470.68 C 439.59 465.48 428.80 467.41 430.49 461.67 C 432.15 457.62 423.16 456.31 427.29 453.13 C 434.26 451.74 437.79 458.97 442.11 463.01 C 450.98 461.88 457.28 452.95 459.07 445.07 C 474.93 439.22 469.42 413.40 485.91 410.81 C 483.31 408.06 480.81 405.25 479.08 401.87 C 455.25 397.41 430.26 396.89 406.12 400.86 C 395.39 395.46 382.60 397.62 370.98 395.94 C 319.66 387.54 266.69 378.98 221.52 351.64 C 219.66 350.95 216.30 349.21 219.09 347.32 C 228.84 348.95 237.78 353.35 247.22 356.02 C 226.82 345.28 204.47 337.03 184.09 325.72 C 182.99 323.03 185.98 321.73 188.10 322.83 C 209.43 330.82 229.70 341.47 251.19 349.04 C 230.54 334.78 206.73 324.61 186.31 309.68 C 182.74 305.81 189.11 305.09 192.10 306.88 C 220.57 320.71 246.76 339.22 276.19 351.05 C 253.48 334.59 229.06 319.92 209.26 299.69 C 206.55 297.49 204.75 291.08 209.88 294.14 C 240.40 313.33 267.53 339.00 301.16 352.99 C 279.87 336.19 255.61 320.45 243.80 295.01 C 248.30 293.68 251.27 297.33 254.22 299.78 C 274.06 320.15 295.06 340.10 320.16 353.81 C 321.97 354.46 322.46 353.96 321.63 352.32 C 312.18 342.11 300.77 332.65 295.54 319.39 C 293.40 315.88 298.82 315.06 300.64 317.35 C 314.29 333.49 327.75 351.35 347.39 360.52 C 368.03 373.74 393.07 375.78 417.00 376.92 C 435.82 380.30 453.94 371.79 472.99 374.99 C 487.25 367.45 504.18 368.44 519.83 371.38 C 540.66 371.87 561.46 365.92 582.45 367.44 C 599.90 363.88 618.46 368.71 634.84 359.83 C 650.01 350.96 667.71 349.35 683.33 341.29 C 706.11 337.32 728.69 333.73 751.81 331.29 C 762.72 332.97 768.84 315.87 780.86 317.98 C 787.70 326.70 794.50 307.33 803.07 311.92 C 805.66 313.04 803.46 319.77 806.54 318.51 C 810.53 312.58 816.06 307.04 823.00 304.98 C 832.71 305.98 819.50 324.56 826.23 323.25 C 832.64 312.16 836.05 293.90 850.37 291.56 C 854.59 301.32 844.69 314.10 843.95 325.10 C 858.67 314.76 861.99 296.06 872.19 282.23 C 874.14 279.88 878.31 277.39 880.90 280.15 C 876.48 293.90 871.20 307.34 865.65 320.66 C 863.54 324.68 869.75 318.95 870.05 319.03 C 886.39 307.72 889.88 285.19 906.31 274.26 M 477.33 436.13 C 475.24 439.01 467.90 443.78 471.31 447.64 C 476.53 454.50 483.19 450.19 488.97 446.73 C 487.94 441.54 484.24 433.24 477.33 436.13 M 463.27 455.17 C 461.20 458.29 453.84 466.18 456.69 466.81 C 459.91 458.69 471.73 465.74 475.97 458.06 C 473.28 455.36 467.41 455.44 463.27 455.17 M 711.87 473.96 C 713.68 481.16 718.56 475.40 711.87 473.96 Z" />



<path fill="#ffffff" opacity="1.00" d=" M 721.22 500.42 C 725.68 500.56 720.14 505.00 721.22 500.42 Z" />
</svg>
