<?xml version="1.0" encoding="UTF-8" ?>
<!DOCTYPE svg PUBLIC "-//W3C//DTD SVG 1.1//EN" "http://www.w3.org/Graphics/SVG/1.1/DTD/svg11.dtd">
<svg width="1225pt" height="647pt" viewBox="0 0 1225 647" version="1.1" xmlns="http://www.w3.org/2000/svg">

<path fill="#ffffff" opacity="1.00" d=" M 204.92 286.88 C 237.81 307.35 265.73 336.35 301.34 352.82 C 279.83 333.97 252.74 316.83 242.13 288.80 C 257.10 296.75 265.73 313.38 279.35 323.65 C 291.87 333.75 303.92 346.44 319.10 352.15 C 310.51 339.23 294.71 329.07 291.96 312.92 C 301.03 313.61 303.46 325.17 309.72 330.25 C 334.78 362.51 376.23 378.87 416.14 377.11 C 427.56 370.08 440.56 366.29 454.02 365.15 C 479.07 365.82 504.28 360.16 529.07 366.03 C 548.78 368.27 567.94 360.50 587.82 362.67 C 606.99 356.62 628.19 371.61 645.39 358.47 C 676.83 346.94 709.57 340.60 743.00 338.05 C 754.98 340.70 763.00 317.69 775.87 327.15 C 782.02 328.76 789.56 313.73 796.16 320.76 C 796.88 337.26 804.18 316.22 811.06 315.05 C 822.75 307.89 818.17 326.90 818.12 333.23 C 825.73 322.70 828.10 306.78 841.11 301.03 C 845.06 299.90 846.11 304.23 844.49 307.42 C 843.25 316.22 839.96 324.55 838.05 333.19 C 855.18 323.98 855.12 297.99 872.92 290.12 C 874.43 304.26 862.61 317.89 859.92 332.20 C 872.43 323.88 881.09 311.52 889.17 299.10 C 893.37 294.30 897.60 286.66 905.21 288.05 C 900.13 303.90 887.60 317.94 881.61 332.40 C 899.74 325.04 909.63 304.04 926.34 293.37 C 928.37 292.60 931.14 291.07 932.96 293.07 C 924.60 310.17 908.57 322.04 898.82 338.10 C 917.20 331.25 929.11 313.70 947.01 306.05 C 950.97 303.19 953.29 305.14 951.27 308.27 C 938.94 323.45 921.43 333.18 907.88 347.08 C 921.89 341.12 934.68 332.52 948.85 326.79 C 951.38 325.86 955.60 323.22 957.09 326.85 C 937.91 341.64 915.31 351.04 893.03 360.07 C 875.89 372.16 853.83 367.55 835.18 375.36 C 814.78 375.79 794.40 377.92 773.92 379.84 C 745.20 388.89 712.43 379.69 684.23 393.42 C 685.97 400.48 698.91 399.23 701.13 406.92 C 703.84 411.07 703.41 417.20 708.11 419.92 C 718.56 431.64 706.22 449.77 718.00 460.98 C 717.04 471.86 724.12 481.30 724.72 492.10 C 721.93 499.17 712.47 476.51 711.67 489.17 C 700.49 480.69 687.64 476.93 674.71 472.68 C 668.01 477.74 657.46 474.92 649.21 475.73 C 640.39 471.36 632.49 480.75 624.23 483.09 C 612.05 486.73 598.71 496.88 586.39 489.58 C 561.91 491.81 536.02 486.64 517.58 469.43 C 510.86 464.78 506.84 457.16 499.91 452.84 C 494.39 455.65 494.22 461.71 492.93 466.93 C 488.06 474.89 478.35 476.86 471.56 482.61 C 469.64 486.24 457.53 481.58 464.86 480.62 C 467.10 473.54 457.47 478.28 454.94 474.31 C 460.96 468.96 467.29 466.81 475.74 465.82 C 480.77 459.07 462.31 466.08 465.38 456.48 C 461.99 449.72 458.68 461.15 456.26 464.16 C 456.76 476.28 443.44 476.12 437.61 483.58 C 433.25 487.03 428.71 481.13 424.09 480.70 C 423.14 470.75 439.28 476.15 438.96 467.22 C 435.72 465.07 429.45 464.35 431.71 459.04 C 432.36 455.67 425.02 455.91 427.66 452.65 C 433.85 450.15 438.63 456.62 442.49 460.73 C 449.36 462.49 452.38 455.24 456.02 451.01 C 464.96 440.05 470.85 427.20 476.33 414.66 C 474.42 408.27 483.10 408.10 487.09 406.70 C 481.57 400.09 472.38 399.81 464.43 399.68 C 430.67 398.22 396.66 401.86 363.14 395.83 C 312.62 387.69 260.28 374.58 218.75 345.03 C 234.34 347.03 248.00 356.31 263.23 359.99 C 236.29 344.16 205.09 334.59 179.78 315.98 C 207.09 323.15 231.02 341.10 258.23 349.00 C 232.83 332.07 203.95 319.15 182.00 297.80 C 215.01 310.97 243.02 335.71 276.13 349.12 C 251.94 329.70 222.04 312.78 204.92 286.88 M 478.38 432.23 C 472.79 436.72 469.25 443.23 466.30 449.63 C 470.62 451.96 474.55 455.15 479.06 457.02 C 484.54 455.87 489.32 452.02 493.87 448.74 C 488.22 444.00 487.20 430.77 478.38 432.23 M 711.31 470.31 C 710.51 476.29 717.29 469.51 711.31 470.31 Z" />


<path fill="#ffffff" opacity="1.00" d=" M 719.22 496.42 C 723.68 496.55 718.13 501.00 719.22 496.42 Z" />
</svg>
