<?xml version="1.0" encoding="UTF-8" ?>
<!DOCTYPE svg PUBLIC "-//W3C//DTD SVG 1.1//EN" "http://www.w3.org/Graphics/SVG/1.1/DTD/svg11.dtd">
<svg width="1225pt" height="647pt" viewBox="0 0 1225 647" version="1.1" xmlns="http://www.w3.org/2000/svg">

<path fill="#ffffff" opacity="1.00" d=" M 212.25 313.26 C 224.85 319.82 243.48 335.19 260.10 341.12 C 255.71 336.81 250.74 333.02 246.97 328.12 C 253.18 325.11 257.23 333.34 262.61 335.48 C 284.22 350.66 308.01 362.09 332.68 371.33 C 359.87 375.10 387.27 383.60 414.95 380.84 C 409.45 373.12 415.25 368.16 420.80 362.79 C 438.68 350.09 463.14 363.33 481.17 352.13 C 506.45 352.08 531.94 359.68 557.02 352.48 C 580.62 353.76 604.23 346.72 627.49 353.34 C 636.59 353.81 645.60 360.36 653.73 360.74 C 658.04 356.23 660.78 371.01 666.30 364.29 C 684.96 365.04 704.93 357.70 724.43 359.43 C 736.97 362.61 745.06 348.92 757.85 351.08 C 764.08 358.16 770.37 345.76 778.03 347.93 C 781.57 347.13 782.34 355.65 785.59 351.63 C 790.04 345.01 805.55 339.46 804.24 352.87 C 806.18 358.61 808.79 350.05 809.76 347.70 C 812.51 340.11 829.74 328.54 826.80 344.84 C 820.62 362.94 838.38 346.13 839.97 339.00 C 842.03 334.32 850.03 324.26 854.00 330.10 C 853.23 337.52 848.99 344.04 846.95 351.13 C 860.85 347.47 866.56 332.27 877.65 324.65 C 879.80 323.50 884.58 321.64 883.96 325.92 C 879.79 334.15 873.64 341.21 868.92 349.12 C 885.64 345.73 894.12 326.37 910.12 321.16 C 912.50 320.00 912.16 322.27 911.95 323.92 C 905.52 334.01 894.54 340.39 887.92 350.12 C 902.72 344.92 914.15 333.11 927.97 325.99 C 929.28 325.32 935.49 323.39 933.69 326.75 C 924.01 337.40 910.38 343.81 899.68 352.88 C 910.71 348.02 921.91 343.41 932.36 337.36 C 934.75 336.10 946.64 333.00 939.95 338.00 C 898.09 362.09 849.77 378.65 802.31 376.87 C 791.08 379.52 779.09 376.99 767.97 380.89 C 743.30 384.13 716.92 377.84 692.82 385.64 C 703.94 388.58 703.06 400.96 709.77 408.18 C 717.41 421.23 706.50 437.10 715.55 449.57 C 716.96 460.71 719.64 471.60 719.96 483.07 C 713.55 484.87 713.82 471.32 707.75 476.77 C 697.00 470.61 685.67 460.74 672.33 458.71 C 659.54 462.58 644.75 460.34 632.84 467.82 C 618.51 473.04 602.99 483.38 588.00 477.24 C 561.00 480.84 534.43 472.92 512.23 457.96 C 507.79 467.25 501.31 476.09 501.92 486.90 C 496.81 496.29 486.88 500.69 478.61 506.77 C 476.66 508.54 466.96 505.16 473.88 504.55 C 476.60 496.63 468.88 500.66 465.03 498.90 C 467.75 489.71 477.93 491.29 485.08 486.84 C 482.77 481.10 473.58 488.58 473.00 481.01 C 471.87 473.70 464.39 481.60 467.11 486.05 C 467.34 495.76 455.95 497.84 451.98 504.99 C 446.70 507.02 432.58 503.15 439.75 495.83 C 444.84 495.43 456.89 488.38 447.16 485.73 C 443.44 484.09 435.31 474.00 442.88 473.08 C 448.56 473.27 452.58 483.33 457.83 478.76 C 467.17 460.80 473.45 440.50 473.23 420.11 C 474.21 412.36 483.30 416.88 488.21 415.00 C 482.30 412.50 479.89 406.99 488.01 410.69 C 495.95 405.93 482.87 401.26 484.72 395.11 C 468.33 394.82 452.27 398.42 436.73 403.57 C 377.77 415.89 317.75 400.99 263.58 377.51 C 254.23 368.75 240.13 367.57 229.67 360.15 C 241.70 361.02 252.50 367.41 264.23 369.98 C 238.67 357.10 210.28 348.19 185.77 332.97 C 200.58 336.08 213.71 344.51 228.13 349.03 C 214.68 335.75 192.03 332.08 179.90 317.91 C 195.27 323.22 208.44 333.86 224.22 337.98 C 215.52 328.92 199.71 325.15 193.93 313.92 C 205.96 317.80 215.71 327.71 228.04 331.23 C 223.18 325.04 210.74 321.15 212.25 313.26 M 447.47 377.56 C 442.24 378.28 437.04 379.18 431.74 379.20 C 441.01 380.65 452.93 381.59 462.22 378.33 C 457.42 377.12 452.36 376.59 447.47 377.56 M 481.26 440.12 C 474.91 449.54 472.72 461.52 470.07 472.51 C 475.94 473.15 480.70 476.73 486.02 478.88 C 496.25 474.40 502.85 464.13 507.06 454.20 C 497.11 451.83 491.05 441.04 481.26 440.12 M 708.26 459.10 C 708.44 462.37 711.29 457.56 708.26 459.10 Z" />



<path fill="#ffffff" opacity="1.00" d=" M 714.48 485.17 C 718.83 485.42 713.29 489.84 714.48 485.17 Z" />
</svg>
