<?xml version="1.0" encoding="UTF-8" ?>
<!DOCTYPE svg PUBLIC "-//W3C//DTD SVG 1.1//EN" "http://www.w3.org/Graphics/SVG/1.1/DTD/svg11.dtd">
<svg width="1225pt" height="647pt" viewBox="0 0 1225 647" version="1.1" xmlns="http://www.w3.org/2000/svg">

<path fill="#ffffff" opacity="1.00" d=" M 896.97 315.14 C 898.40 314.67 901.21 314.92 900.91 316.98 C 896.82 326.60 887.49 332.96 882.82 342.12 C 898.17 338.21 906.75 317.04 922.40 316.66 C 919.75 325.59 906.99 332.11 900.84 340.11 C 909.65 337.29 916.33 330.23 925.02 327.04 C 926.86 326.10 931.54 323.58 930.90 327.78 C 905.80 347.15 876.52 360.93 845.21 366.29 C 832.09 375.68 816.01 369.56 801.54 371.67 C 789.29 372.29 776.52 372.13 764.81 376.38 C 740.82 376.95 716.62 375.13 692.96 380.24 C 692.84 384.66 699.21 384.52 700.82 388.07 C 705.94 400.99 715.45 412.30 711.55 427.36 C 706.80 437.18 717.96 445.07 715.34 455.17 C 716.00 463.59 721.03 471.35 720.00 480.09 C 713.16 481.59 713.56 468.51 706.65 473.27 C 696.98 466.73 687.06 457.93 674.95 455.26 C 649.25 454.38 627.04 468.26 602.94 474.90 C 597.15 478.90 593.08 471.38 587.17 473.21 C 564.14 476.86 540.16 472.74 519.99 461.01 C 512.74 455.14 512.15 467.81 508.83 471.92 C 502.86 478.76 508.68 489.50 501.04 495.05 C 495.58 502.13 487.93 505.82 480.88 510.97 C 469.04 512.27 481.41 507.90 476.75 503.07 C 468.17 501.61 463.23 511.13 457.88 515.90 C 453.18 518.49 448.66 513.88 444.21 512.67 C 443.01 504.53 453.15 505.22 456.44 500.40 C 459.21 495.20 450.32 497.57 449.62 493.52 C 451.99 489.40 442.10 487.19 446.73 484.69 C 453.15 479.97 459.82 496.07 463.97 486.95 C 471.81 468.18 475.37 446.62 473.75 426.86 C 476.52 418.16 488.99 425.90 492.97 418.96 C 493.16 412.93 486.57 411.38 482.80 408.24 C 477.04 403.21 491.12 409.60 490.49 405.46 C 487.35 402.89 487.59 395.80 482.33 397.20 C 460.90 397.39 442.58 410.54 421.57 412.55 C 361.11 422.67 299.44 409.27 243.06 387.95 C 244.69 380.53 227.34 376.86 220.80 374.25 C 217.13 372.65 214.86 367.89 210.13 370.06 C 214.39 362.68 197.47 358.76 200.48 350.03 C 210.83 352.98 190.16 340.39 204.91 341.80 C 210.74 338.11 200.43 335.24 200.80 331.08 C 212.49 337.27 223.65 345.02 236.13 349.81 C 243.72 351.05 231.37 340.05 238.13 342.89 C 274.17 366.40 314.37 386.13 357.98 388.08 C 394.69 396.79 429.89 382.20 465.76 379.80 C 464.06 377.82 455.58 380.34 451.65 377.12 C 455.67 374.49 467.06 378.82 467.33 372.86 C 452.36 367.84 435.67 375.47 419.99 374.11 C 413.66 377.68 410.03 368.06 413.53 364.52 C 425.23 345.60 451.80 357.83 469.55 353.46 C 485.98 342.14 506.35 355.19 524.49 352.66 C 562.86 350.33 602.16 341.68 639.93 353.11 C 644.92 354.06 650.16 360.58 654.07 355.19 C 657.01 357.75 661.50 364.78 665.91 359.95 C 689.16 360.08 712.48 351.77 736.01 355.95 C 742.85 354.54 749.83 351.56 756.78 354.42 C 763.27 350.97 771.59 347.57 778.01 352.90 C 783.90 346.75 797.53 341.01 799.37 353.96 C 804.08 348.02 805.84 338.09 815.00 336.96 C 822.60 337.06 816.56 346.93 820.15 351.13 C 832.99 347.98 829.35 325.59 844.84 327.88 C 843.84 334.65 841.59 341.20 840.84 348.02 C 855.77 343.77 857.14 321.03 872.76 320.11 C 874.65 327.14 865.36 335.12 863.23 342.18 C 861.74 346.76 869.12 340.86 870.08 340.11 C 880.54 333.41 885.35 320.06 896.97 315.14 M 220.26 372.10 C 220.44 375.37 223.29 370.56 220.26 372.10 M 484.40 447.28 C 477.40 454.43 477.92 467.02 475.31 476.78 C 480.82 478.30 485.65 482.64 491.61 481.73 C 499.29 475.51 506.73 466.31 507.82 456.43 C 499.07 455.48 492.70 447.52 484.40 447.28 M 475.10 482.28 C 473.16 485.83 472.21 490.61 473.65 494.35 C 478.52 498.13 497.17 485.74 481.47 488.41 C 477.01 489.95 474.68 483.61 475.10 482.28 M 484.21 496.99 C 480.65 500.97 489.52 497.83 484.21 496.99 Z" />
<path fill="#ffffff" opacity="1.00" d=" M 197.26 343.10 C 200.29 341.56 197.44 346.37 197.26 343.10 Z" />
<path fill="#ffffff" opacity="1.00" d=" M 206.25 366.30 C 211.40 364.81 206.07 371.27 206.25 366.30 Z" />



<path fill="#ffffff" opacity="1.00" d=" M 714.22 482.43 C 718.69 482.54 713.12 487.00 714.22 482.43 Z" />

</svg>
