<?xml version="1.0" encoding="UTF-8" ?>
<!DOCTYPE svg PUBLIC "-//W3C//DTD SVG 1.1//EN" "http://www.w3.org/Graphics/SVG/1.1/DTD/svg11.dtd">
<svg width="1225pt" height="647pt" viewBox="0 0 1225 647" version="1.1" xmlns="http://www.w3.org/2000/svg">

<path fill="#ffffff" opacity="1.00" d=" M 889.29 302.28 C 890.54 302.01 891.81 301.90 893.11 301.95 C 889.14 314.09 880.28 323.89 874.90 335.17 C 889.76 327.99 895.83 307.47 912.17 303.97 C 906.34 316.25 895.33 325.10 887.72 336.02 C 899.59 330.92 906.78 316.11 920.18 314.94 C 909.43 329.84 892.24 338.07 878.06 349.08 C 863.36 358.66 844.44 357.62 829.68 366.68 C 815.14 371.18 800.01 365.66 785.29 369.17 C 769.68 368.82 755.09 375.15 739.44 373.52 C 717.55 374.52 693.77 371.07 673.45 381.22 C 676.99 387.47 688.57 387.68 690.99 396.00 C 693.54 402.10 698.80 406.29 702.22 411.83 C 707.31 423.42 700.06 437.88 710.44 447.57 C 711.73 459.32 719.31 469.31 720.94 481.13 C 714.52 481.92 712.39 470.29 706.06 475.88 C 694.53 469.41 682.65 463.77 669.59 461.51 C 659.21 463.92 645.56 467.85 636.02 461.02 C 621.54 465.49 608.34 473.69 593.55 477.53 C 573.83 475.85 553.61 477.64 534.35 471.59 C 515.53 463.29 499.71 449.80 482.84 438.19 C 469.01 442.78 452.75 450.51 453.70 467.77 C 447.10 476.14 432.65 477.29 423.01 473.80 C 421.48 463.97 438.28 470.37 437.79 462.32 C 430.97 458.95 429.67 452.03 425.89 446.15 C 433.65 441.67 437.67 455.67 444.03 457.04 C 450.96 455.63 453.54 444.74 446.34 441.70 C 447.45 435.38 465.80 436.69 457.24 427.78 C 453.97 413.15 439.63 430.47 429.62 426.62 C 361.96 449.59 290.23 456.03 219.13 451.81 C 201.62 444.59 181.74 447.21 164.09 440.93 C 166.93 436.97 177.23 442.10 179.94 439.12 C 170.74 435.62 157.94 435.48 148.92 429.09 C 157.27 426.60 165.79 432.07 174.30 430.89 C 166.43 425.73 156.26 424.99 148.99 418.82 C 156.62 414.13 167.27 424.34 176.36 423.80 C 171.80 418.76 164.30 416.99 160.63 411.09 C 178.32 413.40 193.19 426.24 211.21 428.03 C 206.28 424.58 199.55 422.92 196.95 416.93 C 236.76 435.24 280.75 448.89 324.96 439.92 C 321.48 436.59 312.15 440.24 309.88 435.16 C 323.38 436.14 334.08 430.46 346.90 429.05 C 341.66 424.76 354.10 425.99 355.69 424.69 C 373.84 417.31 395.89 413.13 413.64 402.61 C 421.35 392.35 435.45 391.44 447.25 389.63 C 444.12 387.82 438.59 388.38 437.18 385.18 C 444.37 378.67 455.35 380.61 464.23 378.75 C 459.95 374.43 449.16 377.53 446.27 373.29 C 450.84 371.96 453.46 371.66 449.52 367.41 C 429.15 366.37 407.71 371.84 387.71 367.27 C 383.01 363.89 394.12 363.79 389.05 359.12 C 409.85 345.21 435.45 349.80 458.78 350.65 C 480.68 341.81 502.66 358.31 524.70 350.87 C 560.23 348.71 597.15 344.41 631.96 353.09 C 635.25 353.81 641.19 361.47 640.29 353.94 C 649.87 362.04 662.88 355.99 674.43 354.52 C 694.44 351.13 714.79 351.70 734.97 352.97 C 743.16 353.62 749.99 345.08 758.12 347.89 C 764.79 350.94 770.37 340.70 777.09 343.91 C 784.01 349.43 788.79 335.66 796.37 338.54 C 799.54 339.57 799.03 343.60 800.20 346.25 C 803.66 339.00 807.31 329.83 816.01 327.95 C 823.47 328.84 818.17 339.46 818.98 344.06 C 830.21 339.06 827.88 322.28 838.63 316.57 C 840.01 315.78 842.03 315.62 842.94 317.21 C 842.62 325.09 838.99 332.43 837.93 340.17 C 852.97 334.35 851.75 310.48 867.98 306.83 C 867.52 317.85 860.30 326.97 856.98 337.20 C 871.91 329.84 875.24 310.60 889.29 302.28 Z" />
<path fill="#ffffff" opacity="1.00" d=" M 715.37 484.14 C 719.34 483.33 714.71 488.13 715.37 484.14 Z" />
</svg>
