<?xml version="1.0" encoding="UTF-8" ?>
<!DOCTYPE svg PUBLIC "-//W3C//DTD SVG 1.1//EN" "http://www.w3.org/Graphics/SVG/1.1/DTD/svg11.dtd">
<svg width="1225pt" height="647pt" viewBox="0 0 1225 647" version="1.1" xmlns="http://www.w3.org/2000/svg">

<path fill="#ffffff" opacity="1.00" d=" M 184.24 233.69 C 197.90 240.21 210.64 247.37 222.25 257.73 C 241.22 273.41 262.48 285.73 283.22 298.80 C 306.72 309.47 333.06 313.07 356.15 324.79 C 372.35 327.28 388.57 330.43 404.56 333.44 C 421.34 323.50 441.46 329.00 458.90 334.16 C 468.26 338.32 478.34 330.62 487.61 336.45 C 500.63 340.74 512.95 347.83 527.04 347.90 C 560.92 344.75 596.49 338.04 629.38 350.59 C 634.51 351.90 639.35 357.56 644.83 354.46 C 649.53 363.73 659.74 356.79 666.17 362.76 C 682.52 362.03 699.05 358.45 715.38 361.66 C 726.87 361.67 735.97 349.64 747.68 351.68 C 751.25 347.03 756.74 342.49 762.73 345.80 C 764.64 340.48 766.72 331.02 774.77 333.07 C 778.40 337.04 779.55 342.51 782.14 347.11 C 787.76 340.48 778.85 327.64 787.29 321.11 C 799.57 318.60 791.80 340.66 800.80 341.94 C 803.57 332.59 800.96 320.59 808.33 313.13 C 821.85 310.17 810.67 333.57 815.95 337.89 C 825.84 332.07 819.74 308.08 835.99 308.93 C 836.78 318.92 833.17 328.40 831.95 338.16 C 841.22 332.12 841.71 310.98 855.33 312.65 C 854.52 321.17 848.78 330.35 846.01 339.09 C 853.61 334.84 858.22 321.14 867.98 323.00 C 861.11 338.30 846.82 348.37 837.60 361.53 C 830.43 367.10 820.73 366.89 812.78 370.85 C 800.75 380.38 784.65 375.40 770.98 380.87 C 746.28 389.84 719.98 379.06 694.54 382.49 C 680.65 381.45 692.41 396.05 694.82 402.13 C 702.67 416.13 689.95 432.61 700.57 446.00 C 696.26 455.97 706.19 465.83 702.87 476.00 C 696.81 475.52 697.33 466.84 691.23 465.77 C 693.54 475.04 684.82 463.64 680.24 463.70 C 665.51 449.11 644.63 454.62 626.55 457.62 C 610.79 465.59 594.08 473.09 576.22 474.01 C 567.27 467.52 554.33 472.81 544.01 469.90 C 520.51 466.87 503.19 449.51 486.93 433.90 C 478.17 434.94 481.11 445.20 475.70 449.65 C 467.57 454.86 457.47 463.20 448.13 460.82 C 452.53 454.50 445.85 454.09 440.93 452.91 C 444.98 443.43 454.80 448.73 461.97 443.80 C 462.35 439.14 454.17 441.93 452.56 438.59 C 453.71 425.91 438.16 434.90 438.44 442.68 C 430.09 448.92 416.68 448.40 407.04 444.77 C 406.28 434.01 425.47 444.24 423.76 434.35 C 413.59 431.64 420.39 421.88 413.96 416.98 C 425.25 411.36 424.07 433.53 434.88 431.05 C 446.40 421.66 456.52 409.89 462.43 396.32 C 462.37 386.29 475.19 391.59 475.59 385.31 C 470.36 382.64 468.45 377.87 467.60 372.34 C 462.23 371.06 453.61 370.80 463.37 367.13 C 409.73 376.80 357.23 357.30 306.96 341.07 C 280.36 329.02 252.06 317.79 231.16 296.81 C 218.37 289.58 212.09 274.95 198.78 268.24 C 188.19 263.43 187.09 251.68 181.03 243.20 C 191.43 244.01 173.67 231.91 184.24 233.69 M 468.23 412.47 C 465.23 414.56 452.39 413.63 455.47 418.68 C 453.88 421.71 450.53 424.01 450.12 427.51 C 455.88 428.58 459.75 433.22 464.26 436.54 C 469.99 435.72 474.76 431.84 480.11 429.83 C 476.32 424.25 473.38 416.54 468.23 412.47 M 691.05 450.81 C 692.04 454.74 694.43 458.06 696.91 461.20 C 695.53 457.66 695.97 450.88 691.05 450.81 Z" />


<path fill="#ffffff" opacity="1.00" d=" M 697.19 477.55 C 701.80 479.09 695.67 482.75 697.19 477.55 Z" />
</svg>
