<?xml version="1.0" encoding="UTF-8" ?>
<!DOCTYPE svg PUBLIC "-//W3C//DTD SVG 1.1//EN" "http://www.w3.org/Graphics/SVG/1.1/DTD/svg11.dtd">
<svg width="1225pt" height="647pt" viewBox="0 0 1225 647" version="1.1" xmlns="http://www.w3.org/2000/svg">

<path fill="#ffffff" opacity="1.00" d=" M 601.48 305.58 C 615.79 303.99 629.80 308.55 643.76 311.09 C 656.40 312.39 663.63 325.55 675.77 328.02 C 685.67 328.85 686.77 341.05 689.45 348.66 C 692.22 351.05 694.15 348.52 696.04 347.29 C 701.97 351.60 713.36 348.49 714.57 357.66 C 723.16 356.05 730.11 363.69 738.54 360.75 C 745.32 356.07 744.50 366.28 749.82 366.22 C 757.62 366.38 763.20 371.94 769.66 375.33 C 772.91 377.30 779.95 377.68 778.73 382.86 C 777.99 389.89 786.59 392.19 790.59 396.46 C 800.87 403.02 804.60 415.42 814.21 422.79 C 838.06 443.59 861.05 465.42 886.00 484.99 C 908.88 502.72 938.89 513.04 956.30 536.69 C 942.06 535.28 930.27 526.36 916.57 524.34 C 906.82 519.57 898.85 510.98 887.73 510.41 C 857.82 492.19 826.05 477.13 795.94 459.12 C 781.37 466.30 769.50 451.99 755.14 452.82 C 744.24 446.13 730.75 450.36 719.99 443.07 C 704.48 441.55 689.98 436.82 674.70 434.31 C 665.38 427.09 650.67 438.18 642.98 426.29 C 633.82 431.27 623.60 422.36 615.61 429.55 C 585.44 444.28 548.85 444.97 516.91 436.01 C 526.09 446.50 526.68 463.82 522.39 477.50 C 516.49 488.80 507.26 497.91 503.51 510.47 C 501.27 520.69 491.01 524.69 483.05 528.97 C 481.37 537.97 471.85 538.54 465.29 542.29 C 455.23 549.58 453.22 530.52 443.04 535.01 C 432.18 539.93 421.35 545.33 409.97 548.91 C 410.74 545.61 412.04 542.38 412.04 538.95 C 400.58 539.85 389.25 545.36 378.32 539.77 C 369.37 541.46 371.99 535.60 375.20 532.09 C 361.03 536.14 346.79 540.03 332.84 544.78 C 328.50 542.99 323.64 539.22 320.33 535.55 C 323.77 534.34 320.09 529.91 317.82 531.75 C 307.52 536.40 295.86 538.84 284.72 538.39 C 278.70 531.67 270.09 538.03 262.82 537.71 C 264.20 526.10 277.41 525.70 285.46 520.48 C 288.03 515.89 291.92 512.38 295.49 508.60 C 291.86 503.97 303.99 501.54 297.42 496.41 C 306.95 492.10 299.88 478.58 307.77 472.75 C 305.55 460.81 325.38 450.90 312.40 440.64 C 312.08 431.65 325.59 430.87 327.86 422.88 C 328.56 418.25 335.77 418.48 332.38 412.33 C 357.04 392.75 391.67 395.23 420.03 382.99 C 424.49 373.57 438.63 376.20 447.00 372.03 C 444.95 363.43 467.11 366.91 468.08 358.08 C 460.57 356.76 441.44 361.98 453.04 352.13 C 430.10 346.76 407.23 361.33 383.90 359.96 C 386.10 344.95 406.40 346.54 417.57 344.54 C 429.97 342.06 444.86 346.15 454.90 336.90 C 471.54 334.08 488.66 336.40 505.15 331.22 C 537.60 323.49 567.83 306.78 601.48 305.58 M 689.84 399.08 C 690.22 403.59 691.95 407.83 693.71 411.96 C 686.02 413.00 694.63 423.60 699.04 424.09 C 699.17 420.97 697.64 418.15 697.12 415.15 C 703.02 410.48 697.00 399.55 689.84 399.08 M 287.99 524.03 C 290.20 529.55 302.92 520.63 287.99 524.03 M 376.26 532.10 C 376.44 535.37 379.29 530.56 376.26 532.10 Z" />



</svg>
