<?xml version="1.0" encoding="UTF-8" ?>
<!DOCTYPE svg PUBLIC "-//W3C//DTD SVG 1.1//EN" "http://www.w3.org/Graphics/SVG/1.1/DTD/svg11.dtd">
<svg width="1225pt" height="647pt" viewBox="0 0 1225 647" version="1.1" xmlns="http://www.w3.org/2000/svg">

<path fill="#ffffff" opacity="1.00" d=" M 498.68 295.56 C 510.58 293.99 519.98 301.94 530.88 305.03 C 535.71 307.27 539.28 313.64 545.04 310.37 C 551.53 312.14 555.48 320.68 563.75 316.69 C 583.88 307.86 606.23 306.94 627.88 308.44 C 642.36 299.09 657.56 316.07 672.01 314.01 C 678.49 303.86 693.16 316.98 695.98 305.02 C 702.51 311.71 712.66 309.39 719.41 315.56 C 727.25 320.33 734.58 327.09 736.87 336.21 C 748.87 349.21 754.22 366.00 763.31 380.77 C 778.71 398.05 791.06 419.59 795.79 442.33 C 804.32 453.23 806.74 467.29 812.14 479.88 C 818.53 496.07 827.37 510.79 832.42 527.48 C 832.48 537.75 834.31 547.81 836.28 557.84 C 840.01 570.40 822.95 563.47 818.08 558.89 C 810.58 550.08 809.31 536.81 798.14 530.95 C 787.20 505.17 763.32 489.64 742.88 472.17 C 732.38 471.01 724.17 465.22 720.76 455.15 C 709.82 458.61 702.30 449.16 697.71 441.20 C 688.65 446.35 677.23 436.50 679.58 426.62 C 681.31 422.54 672.73 413.73 675.78 424.73 C 664.82 433.10 649.82 421.33 649.61 408.96 C 631.99 417.93 618.18 436.69 597.02 439.06 C 571.86 442.36 545.50 447.31 520.52 440.58 C 511.19 435.92 512.46 447.96 510.01 453.00 C 506.04 462.66 504.62 472.80 504.15 483.13 C 496.67 493.16 485.61 500.78 473.03 502.16 C 453.48 505.89 451.68 526.94 440.70 539.90 C 438.44 540.12 436.34 537.54 437.32 535.36 C 439.12 525.89 445.71 518.23 448.10 508.98 C 445.66 509.58 440.93 507.42 440.09 511.11 C 432.00 529.28 419.79 545.34 413.12 564.17 C 410.57 568.73 399.37 582.16 401.37 569.34 C 401.82 565.46 406.55 560.07 401.03 557.88 C 392.74 563.40 389.90 574.28 384.62 582.43 C 378.80 576.48 364.75 593.42 367.45 582.50 C 371.32 570.99 349.03 591.82 354.43 575.38 C 356.59 561.95 374.79 549.10 365.03 535.92 C 367.09 529.13 368.80 522.24 371.80 516.27 C 362.66 508.56 376.68 499.35 370.33 491.71 C 372.65 478.97 370.92 464.98 376.90 452.82 C 385.22 447.41 381.15 439.02 371.93 440.73 C 373.35 436.50 376.20 432.94 377.68 428.74 C 376.82 424.35 364.27 430.99 367.34 424.35 C 375.36 412.06 388.32 403.50 397.11 391.80 C 386.09 396.83 379.03 411.01 365.80 411.04 C 379.49 398.20 394.38 386.52 408.14 373.85 C 396.93 377.27 389.44 389.02 377.90 391.13 C 383.16 385.51 389.80 381.46 395.76 376.66 C 397.55 372.27 392.22 375.09 389.87 374.93 C 394.16 358.75 412.11 351.72 427.07 348.79 C 424.20 342.39 417.07 345.03 411.98 342.81 C 414.87 331.60 429.02 329.48 437.81 323.83 C 459.70 317.24 482.92 314.00 498.68 295.56 M 692.94 385.87 C 693.52 391.59 697.02 396.42 698.26 401.97 C 688.93 392.28 693.38 412.47 700.01 413.08 C 701.95 410.39 703.01 420.53 705.04 416.02 C 701.69 405.91 704.39 391.49 692.94 385.87 M 492.23 436.08 C 485.85 445.61 486.16 458.27 478.08 467.02 C 482.26 469.43 486.19 473.88 491.59 472.77 C 500.40 463.97 502.82 451.06 507.86 440.07 C 504.84 436.29 497.09 436.75 492.23 436.08 M 458.20 477.26 C 453.47 481.30 462.41 481.28 458.20 477.26 M 475.51 478.97 C 472.29 487.22 480.97 485.51 485.83 481.79 C 487.84 475.93 478.39 480.12 475.51 478.97 M 483.19 488.02 C 479.81 491.74 487.89 488.53 483.19 488.02 M 450.42 491.32 C 448.21 493.85 442.64 503.09 449.53 500.53 C 453.38 499.19 456.83 489.97 450.42 491.32 Z" />






</svg>
