<?xml version="1.0" encoding="UTF-8" ?>
<!DOCTYPE svg PUBLIC "-//W3C//DTD SVG 1.1//EN" "http://www.w3.org/Graphics/SVG/1.1/DTD/svg11.dtd">
<svg width="1225pt" height="647pt" viewBox="0 0 1225 647" version="1.1" xmlns="http://www.w3.org/2000/svg">

<path fill="#ffffff" opacity="1.00" d=" M 500.45 204.46 C 518.38 201.31 534.29 212.57 551.78 213.43 C 557.32 214.50 562.11 217.50 564.75 222.54 C 576.92 222.23 591.92 225.11 602.43 217.35 C 617.51 216.81 632.89 216.03 647.75 218.76 C 655.71 212.14 668.24 213.66 675.07 220.90 C 681.35 228.20 672.98 237.39 665.85 240.84 C 644.26 252.49 647.10 280.70 640.21 301.09 C 652.07 309.14 674.59 298.50 683.54 313.41 C 685.89 318.76 688.52 324.07 692.89 328.11 C 700.25 333.66 695.12 343.45 697.08 350.98 C 703.97 359.15 702.79 370.14 708.05 379.19 C 704.25 375.92 702.63 368.98 696.88 368.91 C 700.12 374.51 701.33 380.21 697.51 385.85 C 690.89 384.21 684.06 383.85 677.31 383.13 C 669.90 399.29 653.90 408.72 644.71 423.71 C 617.22 454.58 572.74 458.31 534.76 459.75 C 531.24 475.47 526.26 491.46 527.72 507.69 C 522.48 518.60 511.46 522.94 501.80 528.56 C 494.58 528.84 504.27 519.40 496.17 520.02 C 495.73 531.34 486.05 535.25 481.70 543.71 C 475.88 546.78 463.32 541.24 468.94 534.01 C 474.76 533.71 483.09 524.84 473.43 523.42 C 470.67 519.79 461.89 509.95 473.62 512.33 C 477.03 512.79 481.90 520.36 483.69 514.67 C 487.09 493.26 487.93 470.93 483.10 449.96 C 478.12 439.80 493.47 439.99 495.71 431.71 C 500.34 427.49 482.60 430.14 487.89 423.99 C 500.86 422.27 488.60 410.50 483.91 406.06 C 474.76 404.70 465.35 406.42 456.12 405.32 C 443.12 409.45 433.53 422.91 419.26 422.85 C 410.57 413.63 426.80 405.10 434.29 403.27 C 446.39 396.84 465.54 397.30 471.43 383.48 C 483.96 381.05 490.52 369.65 501.60 364.54 C 511.41 356.33 524.09 352.91 534.24 345.27 C 523.21 337.35 506.93 339.23 498.59 327.38 C 493.07 322.74 496.25 314.46 491.18 309.83 C 484.47 303.86 487.97 291.52 477.18 288.99 C 470.83 287.67 463.88 283.77 463.43 276.55 C 461.65 264.64 470.01 253.00 466.80 241.09 C 458.79 241.17 451.95 245.98 444.19 247.38 C 433.24 251.71 420.89 249.32 409.95 254.01 C 404.94 255.70 394.70 255.57 397.99 247.01 C 401.89 231.06 421.65 230.20 434.54 225.41 C 448.44 220.13 464.81 223.53 477.12 214.25 C 484.86 210.87 491.68 204.86 500.45 204.46 M 522.48 459.65 C 515.94 462.14 509.12 459.24 502.39 460.20 C 492.36 468.40 491.80 483.05 494.14 494.64 C 502.25 490.89 508.50 502.21 515.65 497.65 C 521.29 489.82 522.81 479.88 525.73 470.84 C 525.44 467.64 531.43 454.71 522.48 459.65 M 496.22 498.14 C 491.83 500.91 492.36 507.19 493.66 511.28 C 498.30 513.57 518.08 505.98 502.66 505.28 C 498.07 505.59 500.48 498.67 496.22 498.14 Z" />
<path fill="#ffffff" opacity="1.00" d=" M 708.10 380.26 C 711.37 380.44 706.56 383.29 708.10 380.26 Z" />
<path fill="#ffffff" opacity="1.00" d=" M 708.22 384.26 C 713.64 384.05 706.16 389.89 708.22 384.26 Z" />


</svg>
