<?xml version="1.0" encoding="UTF-8" ?>
<!DOCTYPE svg PUBLIC "-//W3C//DTD SVG 1.1//EN" "http://www.w3.org/Graphics/SVG/1.1/DTD/svg11.dtd">
<svg width="1225pt" height="647pt" viewBox="0 0 1225 647" version="1.1" xmlns="http://www.w3.org/2000/svg">

<path fill="#ffffff" opacity="1.00" d=" M 806.20 218.53 C 818.67 215.99 829.83 223.14 841.96 218.99 C 849.57 223.78 859.33 226.84 863.51 235.48 C 873.25 238.53 874.47 248.90 877.86 256.97 C 872.48 265.22 866.91 274.14 858.07 279.11 C 848.52 284.98 847.32 299.52 834.03 299.99 C 797.37 301.36 765.43 330.10 728.02 322.04 C 715.64 322.56 703.59 318.84 691.24 319.02 C 688.16 337.91 700.54 351.85 706.78 368.45 C 702.02 364.95 700.97 355.81 693.83 356.98 C 696.11 362.45 700.58 366.66 703.07 372.05 C 700.38 370.43 693.84 367.02 696.90 375.05 C 687.63 376.36 669.23 365.31 663.05 380.04 C 650.75 379.66 647.30 394.36 639.96 401.97 C 617.82 433.29 575.30 436.77 542.04 445.11 C 541.95 462.76 536.25 480.69 540.44 498.23 C 537.77 510.18 527.87 516.13 519.24 523.25 C 512.47 526.85 517.01 517.50 514.80 513.94 C 506.85 515.43 511.26 527.49 502.75 529.55 C 503.56 535.95 491.56 542.49 492.01 533.27 C 488.46 534.26 482.12 537.11 485.07 531.13 C 485.38 524.96 495.41 523.41 493.97 516.36 C 485.33 520.24 488.93 507.08 481.83 510.77 C 483.03 499.87 494.68 510.83 498.79 505.65 C 499.16 488.47 498.51 470.91 493.95 454.25 C 496.04 446.07 484.23 438.69 489.80 431.78 C 494.88 428.18 500.28 423.17 502.03 417.17 C 498.05 415.98 493.38 416.66 490.06 413.81 C 489.46 410.23 495.25 411.21 496.30 408.26 C 485.30 404.48 475.63 413.27 464.55 411.55 C 446.67 415.62 426.43 413.71 409.94 421.98 C 406.37 423.24 409.13 419.43 410.35 418.33 C 428.02 406.11 445.22 393.21 462.70 380.74 C 456.86 376.49 474.42 370.82 477.21 365.14 C 460.35 365.54 445.60 378.10 428.00 376.01 C 405.07 374.55 384.65 385.08 362.05 385.87 C 356.92 382.63 349.32 387.94 346.03 381.95 C 321.12 377.85 292.22 379.32 270.75 363.38 C 265.42 361.49 262.62 356.17 260.03 351.64 C 257.58 349.78 247.06 347.34 252.97 343.98 C 268.83 338.05 286.19 339.86 302.46 335.52 C 333.33 329.65 362.35 344.92 393.00 341.95 C 403.86 340.53 413.94 335.21 425.02 335.20 C 453.83 334.89 482.06 328.34 509.61 320.57 C 520.69 314.06 533.31 312.30 546.03 312.25 C 567.79 302.04 593.18 282.77 620.86 282.90 C 632.79 283.31 644.11 278.67 653.02 271.05 C 670.05 263.81 686.69 256.54 704.14 250.28 C 719.45 249.59 724.56 229.63 741.12 232.09 C 746.75 226.31 753.85 233.85 758.65 227.81 C 767.06 227.40 778.85 231.00 783.39 221.15 C 791.64 223.89 800.29 225.79 806.20 218.53 M 531.35 444.36 C 524.74 447.85 517.63 448.31 510.29 447.15 C 498.98 458.69 505.47 476.09 506.64 490.37 C 512.67 489.61 518.61 492.41 524.76 492.93 C 534.03 483.33 532.35 468.17 534.90 455.96 C 534.08 452.91 537.73 442.26 531.35 444.36 M 509.30 495.30 C 504.92 497.97 507.77 510.72 514.31 506.34 C 516.91 504.37 523.08 503.10 522.52 499.46 C 519.36 499.66 516.36 500.92 513.19 501.03 C 511.69 499.35 512.25 494.02 509.30 495.30 M 522.53 507.45 C 520.43 508.74 518.46 510.26 516.83 512.10 C 519.46 512.42 524.18 507.97 522.53 507.45 Z" />
<path fill="#ffffff" opacity="1.00" d=" M 154.89 310.92 C 160.39 311.32 165.60 313.75 170.12 316.81 C 164.90 318.84 156.22 316.70 154.89 310.92 Z" />
<path fill="#ffffff" opacity="1.00" d=" M 707.44 371.53 C 713.94 376.76 698.99 376.34 707.44 371.53 Z" />
<path fill="#ffffff" opacity="1.00" d=" M 705.14 380.37 C 709.13 379.71 704.32 384.34 705.14 380.37 Z" />



</svg>
