<?xml version="1.0" encoding="UTF-8" ?>
<!DOCTYPE svg PUBLIC "-//W3C//DTD SVG 1.1//EN" "http://www.w3.org/Graphics/SVG/1.1/DTD/svg11.dtd">
<svg width="1225pt" height="647pt" viewBox="0 0 1225 647" version="1.1" xmlns="http://www.w3.org/2000/svg">

<path fill="#ffffff" opacity="1.00" d=" M 602.46 270.52 C 627.07 266.53 648.58 280.78 670.52 287.48 C 675.79 295.85 682.72 305.32 693.55 305.40 C 701.18 303.87 710.86 306.53 717.15 311.86 C 736.04 316.56 755.37 318.15 772.12 329.81 C 782.14 326.83 785.53 339.65 795.28 340.74 C 809.78 349.24 825.93 347.11 841.62 350.42 C 848.88 355.99 858.61 353.42 866.97 355.02 C 872.25 358.53 878.54 357.52 884.48 357.32 C 915.54 366.72 949.35 361.34 979.29 373.17 C 979.49 376.70 986.38 373.91 983.62 378.59 C 973.73 387.08 960.66 390.22 947.97 391.94 C 918.41 391.97 888.48 388.39 860.88 377.16 C 855.63 373.48 852.43 376.33 848.22 378.52 C 828.14 371.71 809.32 361.22 789.58 353.41 C 762.31 351.76 734.81 353.00 707.66 352.64 C 703.18 360.95 701.30 343.81 693.89 345.92 C 695.27 351.81 700.97 355.37 703.30 360.87 C 700.41 357.68 696.67 360.01 696.84 364.00 C 686.91 365.34 668.77 356.66 660.93 368.94 C 650.79 369.18 643.05 374.46 638.73 383.72 C 617.78 415.34 577.56 420.26 544.18 430.24 C 543.15 445.88 543.01 462.46 544.88 478.10 C 550.18 487.08 542.94 495.00 540.26 503.26 C 534.57 505.38 531.73 510.59 527.65 514.76 C 518.35 518.38 527.01 511.92 523.85 509.19 C 520.13 502.79 531.39 501.70 531.98 495.71 C 526.66 500.55 517.93 504.62 518.95 512.99 C 519.21 517.32 512.47 516.32 512.73 520.84 C 512.21 527.13 500.59 531.98 504.00 522.92 C 500.31 523.03 493.46 527.87 495.47 521.10 C 495.02 514.66 505.01 513.16 504.92 506.04 C 498.02 507.85 487.13 500.45 495.38 495.17 C 499.95 493.24 510.64 502.07 508.00 490.99 C 506.06 474.74 505.95 457.34 498.69 442.41 C 500.23 441.52 497.41 434.44 496.09 438.02 C 490.49 453.64 501.12 472.74 488.01 485.99 C 472.31 504.53 450.87 521.87 425.63 522.42 C 418.83 515.34 409.31 516.96 400.79 520.44 C 378.82 517.11 356.46 522.82 334.80 524.34 C 327.33 514.97 306.79 528.07 303.01 518.28 C 290.29 521.16 274.73 527.28 262.93 523.13 C 273.02 518.15 279.53 511.21 285.71 501.97 C 294.13 495.46 295.21 481.67 304.97 475.12 C 304.48 468.42 310.04 462.30 316.45 460.45 C 316.62 454.74 322.20 451.75 323.31 446.45 C 321.57 437.24 332.27 438.84 337.53 435.43 C 371.72 413.76 412.88 402.00 441.78 372.71 C 453.14 370.60 455.68 359.04 465.11 355.09 C 488.23 337.99 513.23 323.75 535.67 305.72 C 553.22 287.14 576.72 273.28 602.46 270.52 M 534.01 431.34 C 527.90 434.52 521.30 435.81 514.41 435.27 C 505.55 448.36 512.44 464.31 514.51 478.55 C 515.91 485.40 525.80 481.37 530.65 482.84 C 539.13 471.06 536.82 455.00 537.37 441.24 C 536.44 438.07 538.79 429.80 534.01 431.34 M 516.30 488.24 C 514.83 493.41 521.25 488.09 516.30 488.24 M 527.44 490.48 C 524.29 492.79 513.57 489.85 518.77 495.23 C 521.41 501.47 531.04 488.89 527.44 490.48 M 307.98 517.00 C 306.79 521.57 314.86 517.09 316.02 519.00 C 317.22 514.46 309.09 518.83 307.98 517.00 Z" />
<path fill="#ffffff" opacity="1.00" d=" M 707.46 359.55 C 709.58 359.17 709.58 367.45 705.60 364.42 C 701.96 363.27 706.26 361.07 707.46 359.55 Z" />
<path fill="#ffffff" opacity="1.00" d=" M 972.26 387.10 C 975.28 385.56 972.43 390.37 972.26 387.10 Z" />




<path fill="#ffffff" opacity="1.00" d=" M 231.97 530.01 C 234.86 530.33 240.60 528.31 240.94 532.93 C 238.64 534.53 230.75 534.49 231.97 530.01 Z" />
</svg>
