<?xml version="1.0" encoding="UTF-8" ?>
<!DOCTYPE svg PUBLIC "-//W3C//DTD SVG 1.1//EN" "http://www.w3.org/Graphics/SVG/1.1/DTD/svg11.dtd">
<svg width="1225pt" height="647pt" viewBox="0 0 1225 647" version="1.1" xmlns="http://www.w3.org/2000/svg">

<path fill="#ffffff" opacity="1.00" d=" M 600.46 262.56 C 620.20 259.06 638.81 267.86 656.63 273.76 C 666.80 274.83 675.62 286.46 686.28 279.37 C 692.44 283.07 700.57 273.91 704.69 281.54 C 714.99 281.15 725.93 282.48 734.79 275.76 C 740.05 271.75 737.09 283.83 743.96 278.96 C 754.24 274.35 762.43 286.16 772.94 282.22 C 778.40 282.76 769.16 290.33 776.01 291.01 C 785.86 298.09 800.90 301.18 805.35 313.78 C 819.41 326.76 837.19 334.13 852.06 345.94 C 876.24 359.98 897.87 378.42 924.03 388.92 C 945.03 398.89 968.40 406.23 987.04 419.70 C 979.71 420.35 990.53 422.41 990.10 426.03 C 982.15 425.94 975.51 420.81 967.76 420.03 C 970.81 422.87 976.58 422.96 978.24 426.98 C 966.49 426.62 956.90 418.57 945.82 415.91 C 948.81 419.12 955.13 419.55 956.10 424.06 C 943.84 422.24 933.48 414.28 922.09 409.81 C 923.39 412.27 926.89 416.64 921.82 414.26 C 891.97 399.72 859.35 392.61 828.52 380.50 C 811.12 381.02 793.62 381.81 776.22 382.67 C 764.27 379.18 751.99 391.10 739.99 383.23 C 733.16 388.29 722.78 392.58 715.30 386.71 C 711.94 382.67 707.86 388.28 704.32 389.29 C 698.47 391.82 692.87 388.94 687.96 386.02 C 682.24 393.27 668.22 397.56 662.94 387.97 C 653.74 398.72 641.55 392.27 629.98 392.12 C 620.74 385.38 611.88 399.26 603.21 402.21 C 583.66 408.42 564.74 418.09 544.09 420.26 C 541.79 437.47 552.39 452.90 547.81 470.14 C 552.62 480.73 544.85 491.45 540.77 500.83 C 532.15 520.08 528.02 541.17 517.75 559.77 C 516.56 561.36 514.64 563.17 513.18 560.81 C 501.59 549.06 523.19 533.69 515.29 520.66 C 510.85 518.63 507.29 524.87 505.26 528.28 C 491.88 552.24 476.09 574.70 459.60 596.57 C 450.69 602.34 449.77 583.08 456.06 579.05 C 466.95 556.78 485.72 538.01 492.06 513.81 C 462.93 548.00 436.71 585.02 404.62 616.71 C 396.51 618.86 399.61 605.61 402.01 600.99 C 421.83 573.42 445.69 548.89 464.48 520.55 C 466.43 517.69 462.61 519.47 461.82 520.82 C 428.12 554.55 397.59 591.31 362.91 623.92 C 355.29 620.38 357.44 609.06 363.25 604.35 C 389.07 577.24 415.95 550.82 439.11 521.17 C 442.17 518.03 433.54 521.53 433.98 523.00 C 400.36 553.33 373.67 591.68 336.75 618.07 C 328.40 604.69 344.92 594.73 352.66 585.65 C 355.81 578.66 345.92 570.44 352.83 563.88 C 360.71 556.84 346.83 549.55 353.98 542.98 C 356.79 535.21 364.63 531.06 368.17 523.95 C 363.16 526.11 357.19 539.34 352.03 531.85 C 351.35 525.96 366.78 511.04 355.58 516.63 C 347.60 520.56 351.99 513.50 353.00 510.98 C 357.29 503.57 362.49 496.65 365.97 488.79 C 361.64 491.26 355.30 498.61 351.12 492.66 C 349.85 479.76 365.35 470.08 360.04 457.05 C 377.60 429.04 412.35 419.41 435.82 397.75 C 434.96 395.66 430.37 400.61 427.85 401.15 C 431.32 394.22 439.63 390.77 444.01 385.12 C 428.60 385.57 411.60 386.66 398.89 396.87 C 396.71 399.58 390.64 400.02 392.14 395.26 C 413.31 380.21 436.12 367.42 457.06 352.05 C 460.39 350.03 452.09 351.26 456.05 349.06 C 473.67 338.18 488.74 323.04 507.99 314.96 C 538.22 296.45 562.84 265.83 600.46 262.56 M 690.97 333.90 C 692.95 340.08 697.17 348.33 703.95 350.15 C 701.55 343.72 698.20 335.43 690.97 333.90 M 692.83 347.10 C 691.61 354.91 713.83 365.99 706.23 354.73 C 701.91 351.99 698.04 348.05 692.83 347.10 M 412.50 497.50 C 398.29 511.32 383.75 525.11 371.66 540.85 C 387.52 529.64 399.50 513.76 412.33 499.34 C 413.13 498.21 415.11 495.75 412.50 497.50 M 432.44 500.50 C 421.87 508.48 413.45 518.79 403.80 527.79 C 400.88 531.55 395.79 534.70 396.02 540.05 C 409.97 528.32 421.56 513.29 434.03 499.82 C 433.64 499.99 432.84 500.33 432.44 500.50 Z" />




</svg>
