<?xml version="1.0" encoding="UTF-8" ?>
<!DOCTYPE svg PUBLIC "-//W3C//DTD SVG 1.1//EN" "http://www.w3.org/Graphics/SVG/1.1/DTD/svg11.dtd">
<svg width="1225pt" height="647pt" viewBox="0 0 1225 647" version="1.1" xmlns="http://www.w3.org/2000/svg">

<path fill="#ffffff" opacity="1.00" d=" M 671.42 226.35 C 690.09 223.62 704.80 237.38 719.22 246.83 C 741.92 268.13 771.30 280.37 792.12 303.86 C 795.19 309.35 804.24 312.45 802.34 319.72 C 822.46 337.55 836.79 360.32 851.58 382.38 C 858.44 397.94 877.11 408.23 879.29 425.39 C 862.70 423.94 851.22 406.95 837.13 398.83 C 823.25 388.58 810.41 376.24 793.93 370.16 C 779.39 361.19 761.51 363.44 746.56 355.51 C 740.15 350.80 731.65 353.13 724.82 349.40 C 723.07 359.24 704.98 352.44 698.58 347.51 C 692.99 345.46 699.71 353.18 699.06 356.19 C 694.99 352.13 691.51 338.35 685.18 341.28 C 684.65 348.37 694.14 351.55 696.25 358.04 C 693.62 356.87 686.38 350.45 687.41 356.64 C 687.99 359.08 684.16 356.61 682.90 357.96 C 676.63 363.47 665.82 355.04 660.96 362.87 C 657.70 369.99 647.03 366.95 644.22 375.17 C 621.72 410.32 578.98 421.52 541.18 430.19 C 535.33 451.84 553.77 475.67 540.99 495.91 C 533.53 497.09 533.29 508.48 525.41 508.13 C 527.62 505.10 522.42 494.61 522.72 502.45 C 525.78 511.41 516.43 514.70 515.02 522.06 C 513.38 525.42 505.08 529.42 507.70 521.01 C 504.56 520.72 502.03 522.93 499.22 523.93 C 499.44 518.98 498.24 514.02 503.78 511.72 C 513.59 502.94 495.47 503.19 495.17 496.27 C 498.45 488.84 510.66 499.85 509.61 490.54 C 506.92 469.80 502.99 448.17 493.22 429.83 C 483.40 420.05 503.45 413.50 496.17 403.90 C 490.68 398.97 482.51 394.36 482.47 385.70 C 476.34 426.27 481.89 468.28 475.81 508.99 C 458.89 496.78 475.37 468.45 464.08 454.95 C 456.86 484.82 456.41 516.04 448.88 545.90 C 447.26 549.54 446.58 554.92 443.15 556.94 C 438.22 524.92 445.76 492.59 450.02 460.90 C 447.75 460.71 447.45 463.20 446.69 464.77 C 434.88 498.36 429.39 533.81 417.31 567.31 C 415.34 570.76 414.54 576.21 410.02 577.26 C 412.42 540.30 425.97 505.07 431.91 468.72 C 420.09 491.03 414.62 515.95 405.42 539.33 C 397.90 554.24 397.15 574.55 384.31 586.28 C 390.69 548.79 406.47 513.58 416.11 476.87 C 410.41 479.65 410.10 487.83 407.15 493.12 C 394.34 521.52 387.22 553.62 370.00 579.29 C 376.10 545.33 394.15 514.21 402.79 480.65 C 392.51 496.98 389.99 519.66 376.91 534.08 C 378.77 520.04 386.57 507.53 389.06 493.81 C 386.07 495.59 386.22 499.64 384.22 502.21 C 379.44 507.35 383.88 494.66 384.65 492.69 C 384.74 487.98 393.79 477.19 385.98 475.78 C 388.66 463.75 394.70 452.68 397.85 440.75 C 394.79 440.83 393.33 443.78 391.09 445.37 C 391.60 429.65 401.11 415.90 403.98 400.75 C 397.93 409.65 394.54 422.82 387.18 429.63 C 386.33 421.66 394.21 412.58 396.09 403.95 C 393.34 405.60 390.78 407.53 388.05 409.19 C 386.76 390.97 397.90 375.50 406.68 360.66 C 408.50 355.81 402.42 357.12 400.69 354.29 C 398.25 341.73 405.48 330.70 414.83 322.86 C 428.86 309.68 451.29 306.44 459.06 287.04 C 464.73 272.61 480.43 273.15 491.91 280.04 C 500.07 281.58 507.59 285.09 514.69 289.29 C 525.71 286.22 535.03 298.70 546.34 295.31 C 565.29 280.24 589.45 274.22 613.20 273.25 C 623.86 266.07 633.80 255.89 640.86 244.94 C 640.56 234.66 662.77 239.95 653.99 230.05 C 657.87 228.11 666.39 230.45 671.42 226.35 M 731.34 317.66 C 732.16 320.81 731.80 327.60 736.64 326.71 C 744.58 325.28 734.12 319.85 731.34 317.66 M 529.40 431.45 C 524.30 434.30 518.18 433.64 512.86 434.82 C 504.32 446.76 512.88 461.57 514.65 474.35 C 520.37 475.07 531.08 479.48 533.54 471.53 C 536.85 458.81 534.91 445.31 533.64 432.40 C 533.25 430.28 530.82 430.93 529.40 431.45 M 417.24 471.36 C 412.14 476.28 419.52 476.42 417.24 471.36 M 403.26 477.39 C 399.51 480.65 406.76 479.85 403.26 477.39 M 517.19 480.34 C 515.43 483.05 517.89 494.19 523.26 490.24 C 525.79 488.05 528.71 486.06 530.11 482.91 C 524.74 484.99 519.08 485.26 517.19 480.34 M 532.23 490.09 C 530.02 491.95 526.72 493.07 525.73 496.01 C 528.61 495.03 531.29 493.11 532.23 490.09 Z" />

<path fill="#ffffff" opacity="1.00" d=" M 735.20 323.55 C 740.60 322.71 733.93 328.46 735.20 323.55 Z" />





</svg>
