<?xml version="1.0" encoding="UTF-8" ?>
<!DOCTYPE svg PUBLIC "-//W3C//DTD SVG 1.1//EN" "http://www.w3.org/Graphics/SVG/1.1/DTD/svg11.dtd">
<svg width="1225pt" height="647pt" viewBox="0 0 1225 647" version="1.1" xmlns="http://www.w3.org/2000/svg">

<path fill="#ffffff" opacity="1.00" d=" M 813.81 180.25 C 823.46 180.31 826.99 189.79 832.45 195.44 C 840.31 196.71 842.12 205.16 844.13 210.98 C 848.37 214.89 847.99 201.24 848.49 213.74 C 848.76 229.40 834.69 240.14 825.46 251.24 C 827.04 259.69 818.13 264.16 812.48 268.42 C 791.96 271.70 772.73 280.24 755.20 291.19 C 725.63 307.63 691.05 297.74 658.90 302.16 C 659.21 309.37 668.37 310.74 671.18 316.81 C 671.60 325.76 671.23 335.64 679.66 341.28 C 679.85 348.49 685.19 353.71 688.14 360.07 C 684.29 357.39 681.56 351.60 676.42 351.41 C 677.61 356.93 683.56 360.87 685.94 366.26 C 681.66 361.52 677.59 364.39 679.80 370.04 C 666.14 367.76 649.58 367.01 639.78 378.59 C 623.28 376.09 618.71 393.24 609.52 402.54 C 593.71 418.36 571.94 425.31 550.90 430.63 C 538.48 429.33 525.54 442.07 529.31 454.86 C 530.72 471.03 527.24 487.45 532.88 503.01 C 528.72 510.76 531.87 524.18 520.89 525.98 C 518.13 530.70 509.85 538.31 509.66 527.21 C 509.16 520.33 520.58 517.11 519.69 508.54 C 512.91 514.51 509.20 524.74 499.16 526.17 C 502.16 520.74 502.23 513.59 510.01 512.64 C 505.26 508.89 502.49 505.38 497.94 511.19 C 496.65 496.17 518.03 507.70 519.19 494.15 C 523.98 475.36 525.53 454.75 519.85 436.10 C 509.06 437.48 499.48 443.27 488.33 443.35 C 475.51 459.81 486.22 482.76 486.19 501.87 C 490.77 511.39 491.66 522.28 491.85 532.75 C 489.35 537.93 482.76 526.23 485.80 536.96 C 485.77 539.66 481.26 550.39 478.60 545.29 C 479.36 539.69 473.61 534.99 469.94 540.87 C 460.31 535.34 482.03 522.72 469.18 520.87 C 460.35 522.03 466.31 508.17 473.70 511.65 C 481.36 498.67 475.68 481.48 475.08 466.99 C 472.45 455.16 472.23 442.35 465.32 432.20 C 468.98 426.83 474.00 422.96 476.96 417.00 C 484.24 413.23 477.91 407.07 471.33 408.59 C 458.37 399.76 444.20 413.55 429.99 409.11 C 411.99 413.94 393.10 413.42 374.88 410.76 C 392.32 394.59 414.51 384.25 432.96 369.27 C 430.88 367.89 431.46 365.52 433.66 364.68 C 449.07 356.17 462.91 345.28 477.16 335.04 C 470.35 334.98 463.55 328.57 457.02 333.04 C 447.62 338.76 437.29 333.28 427.87 337.87 C 410.98 341.97 394.81 339.48 378.04 337.23 C 361.52 334.85 345.36 341.47 328.37 338.82 C 328.65 330.60 317.18 338.93 314.00 335.01 C 313.29 332.78 312.90 330.47 312.28 328.22 C 286.17 326.54 261.79 313.61 240.12 300.84 C 243.36 290.99 223.58 290.28 230.32 282.30 C 266.98 278.40 304.71 284.01 338.19 299.82 C 368.80 306.10 399.99 300.77 431.00 303.96 C 452.74 299.59 475.72 302.68 496.68 294.72 C 513.15 289.33 532.64 301.01 547.01 288.05 C 554.45 283.23 564.99 283.07 569.91 274.91 C 579.80 263.44 596.20 272.05 608.28 265.29 C 614.40 257.15 624.18 254.22 631.20 247.22 C 641.13 246.14 646.70 236.39 656.96 236.47 C 665.85 224.90 684.26 226.81 692.22 214.17 C 698.18 203.29 711.65 206.89 720.00 199.33 C 722.95 199.93 725.76 201.11 728.72 201.70 C 728.98 194.03 739.72 197.07 744.98 195.92 C 739.69 191.89 749.57 196.89 750.52 192.51 C 755.66 183.54 765.82 193.10 772.08 188.07 C 779.45 172.38 800.98 187.29 813.81 180.25 M 478.39 528.36 C 476.01 529.42 475.78 531.86 475.97 534.19 C 477.45 533.03 480.30 528.11 478.39 528.36 Z" />
<path fill="#ffffff" opacity="1.00" d=" M 690.13 366.16 C 694.87 367.27 686.99 369.57 690.13 366.16 Z" />
<path fill="#ffffff" opacity="1.00" d=" M 688.22 373.49 C 693.35 373.62 687.93 378.54 688.22 373.49 Z" />

</svg>
