<?xml version="1.0" encoding="UTF-8" ?>
<!DOCTYPE svg PUBLIC "-//W3C//DTD SVG 1.1//EN" "http://www.w3.org/Graphics/SVG/1.1/DTD/svg11.dtd">
<svg width="1225pt" height="647pt" viewBox="0 0 1225 647" version="1.1" xmlns="http://www.w3.org/2000/svg">

<path fill="#ffffff" opacity="1.00" d=" M 596.49 255.54 C 615.86 254.52 635.12 262.72 649.59 275.44 C 655.66 277.00 663.92 276.92 666.89 284.05 C 673.71 296.91 694.59 282.21 701.37 293.88 C 711.91 294.96 722.37 293.46 732.75 292.04 C 734.75 301.75 748.63 294.95 755.25 299.83 C 759.51 300.42 776.40 300.81 766.00 305.50 C 782.82 314.82 798.46 325.55 813.33 337.65 C 835.17 349.61 857.52 360.70 877.92 375.11 C 901.28 399.41 936.52 407.20 963.87 425.16 C 956.95 427.52 946.20 419.98 937.81 417.96 C 949.50 427.77 965.42 431.36 978.14 439.84 C 982.11 442.38 974.09 440.93 972.04 440.90 C 958.63 437.25 946.56 430.24 933.81 424.99 C 946.43 436.33 965.66 440.44 977.19 452.00 C 958.41 450.30 942.12 438.65 925.70 430.08 C 935.53 441.31 951.78 445.87 962.13 456.85 C 942.07 455.58 927.92 438.34 909.64 432.14 C 917.90 441.08 929.13 446.87 937.28 455.99 C 918.30 453.65 905.48 436.67 888.92 428.87 C 892.89 435.25 900.19 438.65 904.38 444.63 C 904.13 451.02 890.76 441.32 886.49 439.54 C 861.24 431.05 832.09 427.76 807.85 414.10 C 784.17 421.73 758.55 410.49 734.24 414.67 C 716.94 412.77 700.12 411.03 682.62 409.41 C 677.90 408.34 673.44 403.76 668.50 406.35 C 659.23 411.58 651.90 401.95 643.11 401.40 C 627.77 404.00 613.97 394.06 599.35 393.34 C 588.04 402.10 573.74 404.90 562.16 413.10 C 559.60 415.26 562.04 419.33 564.14 420.86 C 577.53 424.97 581.93 439.62 588.61 450.36 C 596.80 467.35 584.66 485.18 591.56 502.41 C 590.61 523.72 589.82 545.38 588.92 566.96 C 587.51 578.60 577.08 564.58 571.17 562.84 C 560.44 555.41 574.05 536.36 563.21 529.09 C 551.98 549.29 551.05 574.39 540.41 595.36 C 538.69 599.60 537.62 605.52 532.36 606.66 C 528.23 600.91 522.64 596.56 516.26 593.57 C 514.73 588.80 519.98 570.64 510.37 573.29 C 499.03 587.50 491.50 604.74 480.19 619.18 C 474.41 626.70 471.86 613.97 467.75 611.33 C 454.08 615.22 464.40 599.36 458.37 594.54 C 450.01 593.75 445.30 605.15 440.70 610.69 C 434.40 615.80 430.05 623.57 423.29 628.85 C 421.78 619.17 409.56 614.48 414.25 604.17 C 419.13 595.70 403.37 599.89 400.94 604.96 C 398.38 608.61 388.71 621.99 386.85 614.18 C 383.52 613.36 381.91 610.22 380.68 607.33 C 378.07 611.07 377.30 602.69 378.96 600.96 C 386.33 591.45 395.45 579.66 388.71 567.35 C 386.58 560.86 374.06 566.59 378.25 557.31 C 384.85 550.75 382.31 538.06 371.16 538.72 C 373.39 530.82 376.21 522.58 365.81 518.24 C 366.60 511.52 365.52 502.50 357.05 500.71 C 356.51 494.84 364.84 489.15 360.72 483.27 C 353.64 480.12 349.38 469.64 355.81 463.86 C 363.93 457.39 355.58 447.81 354.57 439.77 C 357.70 423.33 372.92 415.19 386.76 408.67 C 400.30 401.30 414.90 395.96 428.29 388.28 C 412.50 391.28 439.69 376.94 424.05 380.22 C 407.30 381.83 390.68 379.72 374.12 377.78 C 369.60 377.57 374.31 373.86 376.08 373.06 C 395.86 363.09 415.30 352.45 434.61 341.59 C 436.33 331.83 451.64 331.53 458.98 324.94 C 479.20 310.78 503.39 305.23 522.96 290.01 C 543.68 271.92 568.00 256.62 596.49 255.54 M 684.04 338.91 C 680.97 343.63 687.71 347.35 689.03 351.79 C 674.14 349.82 694.65 372.13 696.90 361.92 C 695.33 353.14 691.59 344.15 684.04 338.91 Z" />

</svg>
