<?xml version="1.0" encoding="UTF-8" ?>
<!DOCTYPE svg PUBLIC "-//W3C//DTD SVG 1.1//EN" "http://www.w3.org/Graphics/SVG/1.1/DTD/svg11.dtd">
<svg width="1225pt" height="647pt" viewBox="0 0 1225 647" version="1.1" xmlns="http://www.w3.org/2000/svg">

<path fill="#ffffff" opacity="1.00" d=" M 504.31 157.47 C 520.25 152.61 533.52 162.05 548.00 166.02 C 555.99 173.71 569.84 169.55 576.63 179.42 C 576.67 184.74 576.56 193.00 584.66 191.35 C 594.74 190.38 608.70 200.12 615.41 189.17 C 629.99 189.24 643.99 196.42 658.85 194.85 C 666.77 188.48 682.33 191.80 686.06 200.55 C 693.08 199.31 684.51 211.69 682.73 213.64 C 669.99 219.02 656.63 226.02 652.42 240.37 C 648.89 254.85 640.03 267.67 639.05 282.83 C 648.88 284.62 656.22 291.41 663.70 297.28 C 681.64 296.84 682.07 316.73 689.86 328.14 C 692.74 334.25 688.40 340.77 688.09 347.01 C 693.56 360.31 694.06 375.01 697.00 389.07 C 692.20 384.36 695.06 370.51 686.11 365.95 C 683.74 370.76 695.25 386.83 685.55 378.84 C 686.57 387.99 681.44 382.01 675.72 382.19 C 669.70 378.75 663.06 376.31 656.08 376.06 C 652.17 380.61 647.02 382.65 641.26 381.22 C 617.85 413.44 574.77 424.18 537.76 422.79 C 534.60 427.45 526.16 428.76 526.49 435.45 C 526.05 448.50 525.25 461.54 523.56 474.50 C 521.11 481.67 528.82 488.78 524.47 495.54 C 520.54 501.83 522.94 512.47 514.37 515.18 C 513.60 503.88 509.12 524.22 502.10 520.98 C 496.43 509.75 510.42 506.60 512.11 496.82 C 504.43 501.51 500.84 511.71 490.92 513.12 C 493.37 508.14 494.11 501.63 500.64 500.61 C 499.90 495.80 495.25 496.18 491.99 498.98 C 490.84 487.01 504.10 491.21 510.31 487.32 C 521.71 466.89 518.73 441.99 519.37 419.55 C 509.78 415.86 499.91 419.05 490.31 417.75 C 481.29 412.09 474.31 419.52 471.36 427.39 C 468.76 447.33 466.82 467.65 468.58 487.64 C 466.85 493.81 471.89 500.50 468.27 506.26 C 467.11 508.40 462.91 509.06 464.48 505.64 C 461.31 502.57 462.17 521.79 455.60 515.43 C 451.90 514.02 453.64 505.13 449.19 508.17 C 435.86 510.39 459.41 491.99 446.14 492.34 C 440.24 490.97 447.14 481.55 452.60 482.52 C 462.92 468.27 460.71 448.75 463.01 432.01 C 459.89 421.80 466.67 410.82 459.94 401.97 C 462.90 393.54 474.56 392.62 480.50 385.69 C 480.11 383.55 462.18 381.23 470.66 377.66 C 474.87 379.09 480.26 371.50 476.08 368.88 C 468.61 364.11 468.82 354.38 464.75 347.38 C 460.71 347.13 452.31 346.33 452.31 340.86 C 435.69 342.18 420.94 352.68 403.99 353.06 C 395.16 352.62 397.53 336.80 406.01 337.01 C 422.80 334.04 440.00 334.42 456.89 331.97 C 454.28 330.77 452.80 326.05 456.83 325.79 C 482.12 326.12 504.29 312.23 527.36 304.05 C 516.21 294.97 500.39 291.03 493.01 278.02 C 489.26 261.21 481.31 246.28 471.87 232.26 C 466.08 231.27 460.78 226.39 461.95 219.97 C 460.21 209.80 471.64 201.65 468.37 191.79 C 452.30 192.11 435.48 195.20 419.15 193.36 C 410.34 193.42 398.74 199.06 392.14 190.82 C 396.77 185.13 400.75 177.96 407.33 174.32 C 429.49 169.74 452.32 170.56 474.79 168.67 C 483.34 161.90 494.33 160.91 504.31 157.47 M 454.28 498.25 C 453.54 500.10 451.44 507.43 454.77 503.73 C 456.96 502.47 457.67 496.18 454.28 498.25 Z" />

</svg>
