<?xml version="1.0" encoding="UTF-8" ?>
<!DOCTYPE svg PUBLIC "-//W3C//DTD SVG 1.1//EN" "http://www.w3.org/Graphics/SVG/1.1/DTD/svg11.dtd">
<svg width="1225pt" height="647pt" viewBox="0 0 1225 647" version="1.1" xmlns="http://www.w3.org/2000/svg">

<path fill="#ffffff" opacity="1.00" d=" M 607.47 270.54 C 632.80 267.35 656.18 280.23 671.17 299.80 C 675.77 293.81 679.43 301.00 682.87 304.21 C 687.39 293.71 693.65 308.50 700.32 307.70 C 711.11 304.69 721.49 313.15 732.09 315.71 C 739.90 315.68 746.46 324.08 754.02 319.01 C 760.90 326.02 773.85 325.32 780.67 333.43 C 786.27 333.05 791.73 333.88 793.28 339.79 C 798.91 344.64 806.66 346.10 812.83 350.22 C 826.72 367.07 851.27 366.14 869.18 377.78 C 883.69 379.60 899.17 382.54 911.31 390.74 C 930.09 391.74 948.34 396.66 966.91 399.07 C 977.60 401.77 953.62 405.05 968.99 405.03 C 974.15 405.22 983.97 405.52 980.92 410.07 C 971.79 410.61 968.20 421.96 957.95 418.10 C 947.81 414.49 930.96 415.64 918.30 410.70 C 915.46 410.43 903.69 405.01 908.95 411.08 C 891.15 404.62 873.69 396.53 855.60 390.58 C 846.92 392.42 839.85 386.12 832.79 382.20 C 814.35 374.62 797.85 362.03 777.53 359.67 C 752.13 355.10 727.62 350.40 702.21 346.05 C 699.46 351.73 702.72 359.43 700.60 365.64 C 701.53 372.62 708.99 378.40 706.29 385.93 C 708.68 393.46 712.07 400.83 712.83 408.83 C 707.81 414.69 701.86 395.66 700.36 405.15 C 687.96 397.84 674.51 391.27 661.38 387.37 C 651.89 394.56 639.80 383.08 630.03 387.99 C 621.69 398.29 607.20 399.39 597.35 407.33 C 594.51 420.23 582.15 425.84 572.22 432.22 C 569.24 440.57 560.10 448.03 564.61 457.38 C 571.38 474.06 573.01 492.70 583.18 507.87 C 579.99 516.14 589.56 530.56 579.20 535.06 C 578.24 521.67 575.41 551.40 568.95 542.02 C 561.45 534.20 573.10 527.57 570.98 518.81 C 566.62 525.12 565.65 534.45 557.90 537.91 C 555.25 535.05 556.85 527.07 561.24 523.91 C 557.58 518.93 554.74 525.18 554.21 526.51 C 546.20 511.58 570.91 516.58 568.03 502.98 C 567.83 486.54 563.77 470.13 556.66 455.32 C 552.96 447.63 550.48 438.74 553.34 430.34 C 554.84 427.81 551.49 427.78 549.94 426.82 C 553.59 423.52 556.82 419.83 557.97 414.87 C 540.19 414.16 530.04 429.61 513.75 432.79 C 509.85 441.83 507.71 451.99 511.93 462.09 C 516.03 483.76 525.82 503.03 532.13 523.88 C 535.00 527.88 534.44 537.29 528.23 531.91 C 530.68 541.53 521.81 547.65 516.91 537.02 C 506.64 541.22 505.82 526.73 505.97 520.02 C 515.33 506.76 510.34 487.88 507.33 472.65 C 505.32 463.27 503.53 453.64 498.61 445.26 C 494.36 444.30 496.57 452.99 492.28 454.28 C 479.87 463.69 469.46 477.22 453.43 480.52 C 433.22 488.35 415.37 469.53 394.95 475.82 C 392.55 475.53 372.90 477.32 378.08 471.96 C 364.63 468.60 347.78 474.29 336.59 466.61 C 325.39 468.45 320.76 458.51 308.99 461.91 C 295.67 467.31 290.45 455.33 277.33 457.72 C 268.81 451.26 278.78 443.39 283.64 438.70 C 282.40 433.58 286.50 430.64 290.85 428.96 C 293.97 420.06 299.00 409.80 308.72 405.70 C 311.20 399.05 314.71 391.88 310.41 385.22 C 315.08 377.33 326.25 378.19 333.22 373.30 C 353.11 351.89 388.40 356.18 415.26 350.47 C 429.16 344.47 442.64 336.96 457.53 333.54 C 460.83 320.85 477.69 324.23 486.97 318.92 C 508.44 306.77 531.01 296.89 554.04 288.06 C 570.44 278.52 588.29 271.79 607.47 270.54 M 515.94 524.97 C 515.99 527.17 515.91 531.36 519.06 531.06 C 518.41 528.97 519.13 524.55 515.94 524.97 Z" />
<path fill="#ffffff" opacity="1.00" d=" M 909.26 388.10 C 912.28 386.56 909.43 391.37 909.26 388.10 Z" />
<path fill="#ffffff" opacity="1.00" d=" M 707.30 412.41 C 711.91 413.67 706.11 417.79 707.30 412.41 Z" />
<path fill="#ffffff" opacity="1.00" d=" M 222.48 462.49 C 231.69 463.33 241.05 461.30 250.09 463.26 C 241.79 470.32 227.96 462.43 217.98 465.00 C 212.58 464.13 219.40 461.91 222.48 462.49 Z" />

</svg>
