<?xml version="1.0" encoding="UTF-8" ?>
<!DOCTYPE svg PUBLIC "-//W3C//DTD SVG 1.1//EN" "http://www.w3.org/Graphics/SVG/1.1/DTD/svg11.dtd">
<svg width="1225pt" height="647pt" viewBox="0 0 1225 647" version="1.1" xmlns="http://www.w3.org/2000/svg">

<path fill="#ffffff" opacity="1.00" d=" M 508.23 251.53 C 523.01 255.58 534.45 266.86 546.99 274.96 C 557.14 275.25 562.89 287.58 573.62 284.56 C 597.53 273.41 624.62 274.94 649.62 280.65 C 659.28 274.24 670.21 268.65 677.73 259.71 C 682.91 257.21 695.03 261.43 691.37 252.23 C 696.62 251.79 704.47 254.72 710.87 252.20 C 720.27 255.23 728.22 262.15 736.27 267.76 C 740.13 269.82 733.97 272.59 736.70 275.29 C 745.10 286.33 753.02 297.86 758.29 310.76 C 773.51 337.74 794.58 362.92 800.58 393.88 C 805.18 413.15 803.91 432.95 807.92 452.31 C 803.12 441.73 789.08 452.39 782.43 444.56 C 773.16 419.01 754.43 398.94 736.95 379.09 C 728.21 377.35 719.78 374.35 711.00 372.96 C 716.03 379.21 707.61 385.96 712.55 391.42 C 714.16 396.23 707.89 399.12 703.82 399.38 C 688.74 394.15 675.06 379.42 657.97 384.85 C 641.59 379.03 632.70 396.29 618.86 400.95 C 608.88 405.44 597.30 406.79 588.36 413.37 C 579.64 425.86 559.05 421.99 554.68 438.35 C 558.17 459.10 566.23 479.46 575.64 498.34 C 573.85 506.60 579.42 515.44 574.90 523.06 C 566.77 514.79 569.52 530.31 564.28 532.76 C 553.48 527.55 561.80 517.73 562.00 509.82 C 557.73 514.91 556.84 522.52 550.97 526.23 C 548.05 520.34 544.34 507.27 550.98 503.04 C 566.56 500.31 558.41 480.19 556.83 470.13 C 555.01 453.57 540.43 441.00 542.83 423.78 C 537.25 431.97 530.43 439.77 520.38 442.58 C 515.09 466.86 526.72 491.81 537.45 513.43 C 536.85 525.05 546.39 534.31 545.02 545.99 C 536.07 539.70 540.49 553.20 536.88 557.59 C 524.24 552.94 533.81 537.35 529.00 529.03 C 526.00 534.53 530.32 545.67 523.87 550.77 C 519.04 547.92 516.02 540.36 517.50 534.59 C 529.52 513.19 518.35 487.83 511.84 466.14 C 505.40 456.54 504.62 445.18 497.43 436.26 C 501.92 427.72 504.53 418.18 507.72 409.25 C 499.21 402.77 505.01 391.67 497.58 384.53 C 499.91 377.06 494.12 380.73 492.96 382.94 C 488.41 417.37 478.49 450.77 469.33 484.34 C 466.79 492.43 459.90 482.31 461.18 477.88 C 461.71 464.19 466.34 450.83 465.89 437.12 C 465.52 433.20 463.28 436.37 462.24 438.19 C 450.50 463.57 441.15 489.99 429.32 515.32 C 428.08 517.95 422.76 525.85 421.37 519.57 C 419.83 498.85 430.16 479.45 435.92 459.95 C 436.42 456.17 441.76 450.33 436.16 447.93 C 420.31 473.99 405.61 500.74 389.81 526.82 C 388.18 530.15 379.60 534.89 382.96 525.98 C 387.97 499.91 406.01 478.10 413.03 452.87 C 391.84 473.17 379.10 502.14 359.81 524.76 C 358.28 528.82 350.95 535.29 353.08 525.03 C 358.25 503.98 372.63 486.26 383.15 467.44 C 376.29 465.41 374.70 473.75 370.48 477.48 C 359.20 489.48 349.67 505.35 339.01 516.51 C 332.83 504.70 346.00 492.27 350.86 481.97 C 354.11 473.43 354.79 464.34 354.35 455.33 C 361.49 444.55 357.77 431.62 363.45 420.56 C 366.22 407.10 377.55 397.55 381.32 384.57 C 380.76 368.81 387.74 353.79 400.45 344.44 C 405.80 338.71 413.71 335.13 416.27 327.24 C 433.20 310.45 454.58 298.89 473.11 284.08 C 483.25 271.66 492.47 257.56 508.23 251.53 M 550.31 511.31 C 549.51 517.29 556.29 510.51 550.31 511.31 Z" />

</svg>
