<?xml version="1.0" encoding="UTF-8" ?>
<!DOCTYPE svg PUBLIC "-//W3C//DTD SVG 1.1//EN" "http://www.w3.org/Graphics/SVG/1.1/DTD/svg11.dtd">
<svg width="1225pt" height="647pt" viewBox="0 0 1225 647" version="1.1" xmlns="http://www.w3.org/2000/svg">

<path fill="#ffffff" opacity="1.00" d=" M 553.37 216.37 C 562.02 215.10 558.93 227.01 565.03 229.97 C 568.25 236.97 569.52 245.45 574.21 251.72 C 596.05 249.73 617.93 247.81 639.64 244.64 C 650.89 229.14 674.53 221.84 692.05 228.00 C 694.29 232.37 696.31 236.79 700.39 239.67 C 701.00 260.24 687.13 279.77 689.00 301.00 C 691.06 305.00 685.25 312.18 690.88 314.22 C 701.03 316.66 696.33 329.89 703.94 334.11 C 708.56 344.28 705.54 356.55 705.14 367.78 C 708.33 372.57 710.11 378.59 707.37 384.02 C 709.55 391.87 712.37 399.71 711.84 408.01 C 705.22 411.15 705.38 396.47 698.92 402.05 C 686.40 395.94 674.32 382.99 659.00 387.67 C 645.52 384.24 638.06 398.49 627.05 403.11 C 603.17 416.99 574.31 412.65 548.42 419.36 C 541.85 431.43 552.57 445.26 552.77 458.17 C 553.07 469.47 563.63 477.87 560.59 489.59 C 560.18 496.10 563.99 510.22 553.38 503.94 C 554.22 511.67 545.40 521.23 542.61 508.60 C 542.42 500.16 535.78 511.53 533.58 505.36 C 531.73 501.60 532.69 494.06 538.20 496.76 C 537.95 493.52 533.58 492.86 533.19 490.05 C 533.22 483.06 543.16 486.26 545.73 480.64 C 549.07 461.23 544.65 440.13 536.01 422.91 C 529.22 430.08 520.81 433.90 511.38 436.45 C 502.52 454.22 513.67 473.70 518.36 491.66 C 525.56 505.35 528.49 520.83 531.03 535.95 C 523.60 532.42 524.29 540.98 522.70 546.04 C 515.98 546.82 514.71 534.53 508.13 539.95 C 503.71 533.15 498.90 518.28 509.03 513.93 C 513.04 489.46 503.76 464.77 494.68 442.34 C 498.22 434.21 485.16 432.92 488.58 425.62 C 494.52 418.95 499.80 410.77 502.02 402.10 C 497.11 398.21 494.96 391.37 500.05 387.13 C 494.77 384.33 495.91 378.32 496.65 373.31 C 492.04 371.24 487.35 369.31 482.94 366.82 C 483.69 362.21 492.37 369.11 489.93 364.19 C 488.89 351.37 481.23 338.44 467.47 339.51 C 457.87 344.25 445.75 344.96 438.78 353.79 C 428.70 366.72 413.70 374.57 403.04 387.03 C 389.76 395.68 379.21 410.70 362.18 411.30 C 356.24 415.49 350.18 420.30 342.97 421.97 C 338.83 423.04 344.68 414.93 338.95 417.37 C 330.54 420.96 338.60 410.83 336.35 406.07 C 338.61 396.13 348.23 389.96 354.59 382.63 C 366.03 363.32 380.55 346.07 394.40 328.37 C 403.73 314.49 419.42 305.85 429.27 293.04 C 421.79 296.43 415.95 303.24 407.84 305.14 C 414.14 298.47 422.55 293.94 430.07 288.66 C 427.05 285.08 422.03 290.21 418.62 290.72 C 423.65 286.96 424.33 282.84 415.65 285.77 C 423.46 281.91 424.79 274.93 432.05 270.06 C 438.76 266.56 445.92 263.91 453.28 262.20 C 455.97 259.87 449.54 255.18 454.98 253.98 C 475.78 249.49 497.96 248.57 515.98 235.95 C 525.51 225.21 538.70 217.01 553.37 216.37 M 504.78 283.19 C 497.06 291.80 485.93 296.69 483.10 308.93 C 500.97 314.82 518.04 305.71 534.92 300.87 C 523.09 298.31 515.90 287.38 504.78 283.19 M 700.30 384.25 C 698.82 389.41 705.26 384.08 700.30 384.25 M 544.22 496.13 C 542.63 497.67 541.95 499.89 541.93 502.06 C 546.32 503.89 549.88 494.34 544.22 496.13 M 514.07 526.78 C 511.76 535.47 518.71 531.62 514.07 526.78 Z" />




</svg>
