<?xml version="1.0" encoding="UTF-8" ?>
<!DOCTYPE svg PUBLIC "-//W3C//DTD SVG 1.1//EN" "http://www.w3.org/Graphics/SVG/1.1/DTD/svg11.dtd">
<svg width="1225pt" height="647pt" viewBox="0 0 1225 647" version="1.1" xmlns="http://www.w3.org/2000/svg">

<path fill="#ffffff" opacity="1.00" d=" M 558.52 179.47 C 578.49 176.83 597.62 184.84 617.11 187.87 C 622.34 188.65 628.73 191.49 632.36 186.19 C 647.47 186.91 661.85 193.91 676.82 195.73 C 685.55 193.04 697.67 193.63 703.33 201.61 C 711.77 199.57 703.09 212.59 700.87 214.80 C 689.43 221.34 676.52 227.25 671.53 240.57 C 664.68 258.32 654.34 276.03 656.12 295.78 C 668.46 300.66 678.26 309.22 687.10 318.85 C 699.15 321.01 697.10 335.50 704.21 342.72 C 711.74 354.53 699.57 368.89 707.99 380.00 C 710.48 391.56 710.89 403.37 712.95 415.08 C 705.97 416.58 705.41 400.40 699.91 408.96 C 684.43 397.99 664.67 385.67 645.87 396.85 C 618.07 423.30 577.32 418.75 542.03 421.15 C 543.09 437.37 541.40 453.79 547.85 469.03 C 544.80 475.80 550.03 493.64 538.43 488.05 C 537.80 491.93 535.93 495.55 532.88 498.06 C 528.02 498.89 528.29 492.38 526.53 489.37 C 524.35 486.64 521.24 492.05 519.19 488.84 C 516.76 485.76 518.24 477.15 524.08 479.66 C 524.48 476.14 520.92 474.72 518.21 473.81 C 518.13 465.11 529.56 469.93 532.42 463.37 C 536.69 449.78 537.55 434.60 535.44 420.62 C 523.14 418.16 512.66 426.64 500.22 424.17 C 489.07 437.04 498.61 454.43 499.82 469.10 C 504.42 485.29 510.07 502.12 509.87 518.86 C 502.52 515.55 504.42 524.00 500.80 527.99 C 495.91 528.40 495.16 521.18 490.78 521.54 C 484.61 523.11 483.35 514.54 487.46 511.45 C 492.33 507.30 480.26 505.38 483.96 500.08 C 485.26 495.61 492.99 496.59 491.58 490.46 C 496.30 462.66 484.39 434.73 478.31 409.36 C 484.89 404.07 491.51 398.85 498.10 392.91 C 495.81 387.98 490.65 383.14 494.52 377.58 C 499.19 371.42 474.98 367.88 488.47 367.64 C 497.31 369.75 489.57 359.96 488.25 355.71 C 488.41 348.82 482.63 339.24 473.86 338.20 C 456.57 340.18 439.53 349.79 421.93 346.12 C 413.00 337.24 418.85 326.10 418.32 315.25 C 432.41 298.80 456.43 309.50 474.52 309.46 C 489.87 301.37 507.08 312.18 523.12 308.21 C 532.92 305.02 544.36 303.41 552.93 299.11 C 541.14 294.82 526.56 290.76 516.47 281.53 C 504.24 269.75 504.91 250.84 495.75 237.27 C 490.55 229.58 492.32 214.12 478.22 216.32 C 450.43 223.82 421.22 223.48 393.84 232.77 C 387.95 232.03 372.31 239.84 374.05 232.97 C 366.95 228.11 380.05 221.65 384.79 219.78 C 411.91 212.08 439.53 205.45 466.90 199.01 C 469.33 191.66 479.03 189.43 485.77 192.10 C 498.77 196.71 511.87 190.45 524.45 187.54 C 536.30 186.89 549.20 188.36 558.52 179.47 M 700.86 391.03 C 702.28 398.70 707.42 390.31 700.86 391.03 M 530.27 480.20 C 522.51 488.36 539.51 481.21 530.27 480.20 M 494.15 511.45 C 491.94 515.09 497.85 512.39 494.15 511.45 Z" />

<path fill="#ffffff" opacity="1.00" d=" M 707.30 417.42 C 711.93 418.64 706.09 422.78 707.30 417.42 Z" />


</svg>
