<?xml version="1.0" encoding="UTF-8"?>
<svg width="601px" height="100px" viewBox="0 0 601 100" version="1.1" xmlns="http://www.w3.org/2000/svg" xmlns:xlink="http://www.w3.org/1999/xlink">
    <!-- Generator: Sketch 54.1 (76490) - https://sketchapp.com -->
    <title>bluehost-vector-logo</title>
    <desc>Created with Sketch.</desc>
    <g id="Page-1" stroke="none" stroke-width="1" fill="none" fill-rule="evenodd">
        <g id="bluehost-vector-logo" fill="#ffffff" fill-rule="nonzero">
            <rect id="Rectangle" x="0.9" y="0.5" width="27.2" height="27.2"></rect>
            <rect id="Rectangle" x="36" y="0.5" width="27.2" height="27.2"></rect>
            <rect id="Rectangle" x="71.1" y="0.5" width="27.2" height="27.2"></rect>
            <rect id="Rectangle" x="0.9" y="35.6" width="27.2" height="27.2"></rect>
            <rect id="Rectangle" x="36" y="35.6" width="27.2" height="27.2"></rect>
            <rect id="Rectangle" x="71.1" y="35.6" width="27.2" height="27.2"></rect>
            <rect id="Rectangle" x="0.9" y="70.8" width="27.2" height="27.2"></rect>
            <rect id="Rectangle" x="36" y="70.8" width="27.2" height="27.2"></rect>
            <rect id="Rectangle" x="71.1" y="70.8" width="27.2" height="27.2"></rect>
            <path d="M154,42.6 C159.2,38 166.5,34.7 174.7,34.7 C188.6,34.7 202.1,44.2 202.1,67 C202.1,90.6 187,99.5 170.8,99.5 C161.7,99.5 153.3,96.6 147,93 L147,0.6 L154,0.6 L154,42.6 Z M154,89.1 C159.8,92 165.4,93.2 170.4,93.2 C183.2,93.2 195.1,85.7 195.1,67 C195,50.5 185.8,41 174.1,41 C166.1,41 158.9,45.4 154,50.8 L154,89.1 Z" id="Shape"></path>
            <rect id="Rectangle" x="214.3" y="0.5" width="6.7" height="97.9"></rect>
            <path d="M244.1,73.9 C244.1,88.8 251.4,92.8 258.7,92.8 C266.9,92.8 274.4,87.6 280.3,79.1 L280.3,35.7 L287.3,35.7 L287.3,98.3 L280.3,98.3 L280.3,86.2 C274.8,94 266,99.3 256.5,99.3 C246.6,99.3 237.1,93.7 237.1,74.6 L237.1,35.7 L244.1,35.7" id="Path"></path>
            <path d="M353.8,94.1 C348.4,97 340.6,99.8 331.5,99.5 C310.5,98.8 299.7,82.3 300.4,64.7 C301.2,45 315.8,34.3 331.4,34.8 C348.2,35.2 359.7,48.7 357.5,68.5 L307.2,68.5 C307.1,80.1 315.3,92.5 331.8,93.1 C339.1,93.4 345.9,91.2 351.4,88.3 L353.8,94.1 Z M351,62.8 C351.3,51.9 343.7,41.5 330.7,41.1 C318.2,40.7 308.3,50 307.5,62.8 L351,62.8 Z" id="Shape"></path>
            <path d="M380.1,47.9 C385.2,40.1 393.5,34.7 403.1,34.7 C415.6,34.7 423,44.2 423,58.2 L423,98.4 L416.1,98.4 L416.1,59.7 C416.1,46.1 409.1,41.3 401.6,41.3 C392.5,41.2 384.3,48.3 380.1,55.4 L380.1,98.4 L373.1,98.4 L373.1,0.6 L380.1,0.6" id="Path"></path>
            <path d="M494.6,66.9 C494.6,87.6 480.5,99.3 464.5,99.3 C446.5,99.3 434.4,84.8 434.4,66.9 C434.4,47.9 447.8,34.7 464.5,34.7 C480.6,34.7 494.6,46.7 494.6,66.9 M441.4,66.9 C441.4,80.7 449.5,92.8 464.5,92.8 C479,92.8 487.7,80.7 487.7,66.9 C487.7,53 479.1,41.1 464.5,41.1 C449.5,41.2 441.4,53 441.4,66.9" id="Shape"></path>
            <path d="M510.5,87.5 C515.7,91 521.6,92.8 527.2,92.8 C533.7,92.8 541.9,90.1 541.8,83.5 C541.8,77.9 535.8,73.5 526.2,69.7 C515.5,65.5 506.2,61.6 506.2,51.5 C506.2,41.5 515.6,34.8 527.9,34.8 C534.4,34.8 540.3,36.7 545.3,39.3 L542.6,44.8 C538.6,42.7 533.7,41.1 528.1,41.1 C517.7,41.1 513.1,46.2 513.1,51.5 C513.1,58.3 520.8,60.8 530.4,64.7 C545.5,70.6 548.7,77.4 548.7,83.1 C548.7,92.9 539.5,99.1 527.3,99.1 C520.4,99.1 513.7,97.1 507.4,93.4" id="Path"></path>
            <path d="M594.5,35.7 L594.5,41.6 L573.8,41.6 L573.8,75.8 C573.8,85.9 578.1,92.4 587.2,92.8 C591.1,93 595.3,92 599,90.4 L601,96.5 C596.8,98.1 592,99.3 587.1,99.3 C575.8,99.3 566.8,92.4 566.8,76.3 L566.8,41.6 L555.6,41.6 L555.6,35.7 L566.8,35.7 L566.8,14.7 L573.8,14.7 L573.8,35.7" id="Path"></path>
        </g>
    </g>
</svg>
