<svg id="Capa_1" enable-background="new 0 0 512 512" height="512" viewBox="0 0 512 512" width="512" xmlns="http://www.w3.org/2000/svg"><g><path d="m412.51 28.58v126.19l-14.84 12.02h-382.67l-15-12.02v-126.19z" fill="#f3f6ff"/><path d="m412.51 28.58v126.19l-14.84 12.02h-191.4v-138.21z" fill="#cddbf9"/><path d="m191.27 393.87h30v71.43h-30z" fill="#3c4a83"/><path d="m206.27 393.87h15v71.43h-15z" fill="#2a386b"/><path d="m53.023 75.667h30v32.022h-30z" fill="#48588b"/><path d="m123.377 75.667h30v32.022h-30z" fill="#48588b"/><path d="m412.51 280.96v126.19h-412.51v-126.19l15-12.88h380.33z" fill="#f3f6ff"/><path d="m412.51 280.96v126.19h-206.24v-139.07h189.06z" fill="#cddbf9"/><path d="m0 154.77h412.51v126.19h-412.51z" fill="#cddbf9"/><path d="m206.27 154.77h206.24v126.19h-206.24z" fill="#afc2e8"/><path d="m53.023 201.855h30v32.022h-30z" fill="#48588b"/><path d="m0 453.42h412.54v30h-412.54z" fill="#48588b"/><path d="m206.27 453.42h206.27v30h-206.27z" fill="#3c4a83"/><g fill="#48588b"><path d="m123.377 201.855h30v32.022h-30z"/><path d="m53.023 328.044h30v32.022h-30z"/><path d="m123.377 328.044h30v32.022h-30z"/></g><path d="m497 156.76v71.74c0 25.46-8.74 49.24-23.67 68.14s-36.05 32.9-60.82 38.79c-49.53-11.77-84.49-56.02-84.49-106.93v-71.74l84.49-44.33z" fill="#92ca32"/><path d="m497 156.76v71.74c0 25.46-8.74 49.24-23.67 68.14s-36.05 32.9-60.82 38.79v-223z" fill="#67b821"/><path d="m412.51 95.49-99.49 52.2v80.81c0 27.99 9.55 55.49 26.9 77.44 17.35 21.96 41.9 37.62 69.12 44.09l3.47.82 3.47-.82c27.22-6.47 51.77-22.13 69.12-44.09 17.35-21.95 26.9-49.45 26.9-77.44v-80.81zm69.49 133.01c0 42.96-28.4 80.06-69.49 91.45-41.09-11.39-69.49-48.49-69.49-91.45v-62.67l69.49-36.46 69.49 36.46z" fill="#badb47"/><path d="m512 147.69v80.81c0 27.99-9.55 55.49-26.9 77.44-17.35 21.96-41.9 37.62-69.12 44.09l-3.47.82v-30.9c41.09-11.39 69.49-48.49 69.49-91.45v-62.67l-69.49-36.46v-33.88z" fill="#92ca32"/><path d="m461.18 211.54-48.67 48.68-7.86 7.86-40.75-40.21 21.08-21.35 19.53 19.27 8-8 27.46-27.46z" fill="#f3f6ff"/><path d="m461.18 211.54-48.67 48.68v-42.43l27.46-27.46z" fill="#cddbf9"/></g></svg>