<?xml version="1.0" encoding="UTF-8"?>
<svg width="573px" height="571px" viewBox="0 0 573 571" version="1.1" xmlns="http://www.w3.org/2000/svg" xmlns:xlink="http://www.w3.org/1999/xlink">
    <!-- Generator: Sketch 54.1 (76490) - https://sketchapp.com -->
    <title>star-sky</title>
    <desc>Created with Sketch.</desc>
    <g id="Page-1" stroke="none" stroke-width="1" fill="none" fill-rule="evenodd">
        <polygon id="Path" fill="#12825A" points="45.1932464 56.609375 53.7517718 77.9283817 74.1210938 87.5482297 53.7517718 99.3652581 45.1932464 118.609375 36.8115436 99.3652581 17.1210938 87.5482297 36.8115436 77.9283817"></polygon>
        <polygon id="Path" fill="#12825A" points="28.0721527 263 36.630678 284.319007 57 293.938855 36.630678 305.755883 28.0721527 325 19.6904498 305.755883 0 293.938855 19.6904498 284.319007"></polygon>
        <polygon id="Path" fill="#12825A" points="325.072153 0 333.630678 21.3190067 354 30.9388547 333.630678 42.7558831 325.072153 62 316.69045 42.7558831 297 30.9388547 316.69045 21.3190067"></polygon>
        <polygon id="Path" fill="#12825A" points="548.132201 100 555.48953 117.192747 573 124.950689 555.48953 134.480551 548.132201 150 540.926878 134.480551 524 124.950689 540.926878 117.192747"></polygon>
        <polygon id="Path" fill="#12825A" points="210.132201 521 217.48953 538.192747 235 545.950689 217.48953 555.480551 210.132201 571 202.926878 555.480551 186 545.950689 202.926878 538.192747"></polygon>
        <polygon id="Path" fill="#12825A" points="527.132201 415.683594 534.48953 430.813211 552 437.6402 534.48953 446.026479 527.132201 459.683594 519.926878 446.026479 503 437.6402 519.926878 430.813211"></polygon>
        <polygon id="Path" fill="#12825A" points="454.132201 281 461.48953 296.129618 479 302.956607 461.48953 311.342885 454.132201 325 446.926878 311.342885 430 302.956607 446.926878 296.129618"></polygon>
        <polygon id="Path" fill="#12825A" points="226.967067 346 237.627687 370.069846 263 380.930965 237.627687 394.272771 226.967067 416 216.526701 394.272771 192 380.930965 216.526701 370.069846"></polygon>
        <polygon id="Path" fill="#12825A" points="262.729781 192 268.135165 205.410343 281 211.461538 268.135165 218.89483 262.729781 231 257.436074 218.89483 245 211.461538 257.436074 205.410343"></polygon>
    </g>
</svg>