<?xml version="1.0" encoding="UTF-8" ?>
<!DOCTYPE svg PUBLIC "-//W3C//DTD SVG 1.1//EN" "http://www.w3.org/Graphics/SVG/1.1/DTD/svg11.dtd">
<svg width="1225pt" height="647pt" viewBox="0 0 1225 647" version="1.1" xmlns="http://www.w3.org/2000/svg">

<path fill="#ffffff" opacity="1.00" d=" M 372.60 40.60 C 385.81 45.25 395.29 58.32 403.40 69.64 C 416.80 80.95 422.75 97.68 436.52 108.48 C 452.57 117.07 453.31 137.82 464.99 150.05 C 477.98 167.85 494.35 185.24 512.48 196.44 C 511.54 207.32 524.11 202.58 526.02 212.00 C 533.45 214.79 538.56 221.91 540.48 229.68 C 549.39 228.57 546.89 239.63 553.15 242.89 C 556.13 244.76 556.44 250.14 560.89 248.33 C 567.44 252.51 565.31 263.55 571.09 268.45 C 581.93 262.42 586.40 249.20 592.61 238.48 C 594.22 228.83 606.43 230.04 608.97 220.93 C 615.48 213.60 624.28 207.13 627.07 197.10 C 634.39 193.35 639.91 186.81 646.42 182.56 C 647.12 176.71 657.07 176.72 655.62 170.53 C 655.38 154.76 667.44 141.07 667.67 125.18 C 666.07 119.07 662.07 105.57 672.02 109.99 C 674.58 107.27 665.77 101.86 668.10 97.32 C 671.35 96.15 674.81 96.05 678.17 96.77 C 676.53 92.87 675.01 88.78 677.58 84.65 C 683.17 85.48 686.80 81.64 690.45 78.28 C 704.08 74.64 711.68 88.07 720.60 95.38 C 726.26 106.91 727.11 121.19 736.24 130.76 C 749.88 140.09 746.73 157.45 747.74 171.83 C 738.09 191.74 759.45 209.43 754.80 229.71 C 751.60 239.11 746.19 249.05 735.67 251.74 C 706.40 257.42 685.40 281.42 667.94 303.99 C 662.66 309.45 670.81 311.22 673.94 314.08 C 680.53 318.02 683.29 326.38 690.39 329.56 C 700.60 332.23 698.01 345.13 704.79 351.18 C 709.49 359.08 708.12 368.85 706.54 377.48 C 703.28 385.82 715.28 392.06 710.70 400.24 C 712.23 407.29 716.27 416.02 713.97 422.01 C 710.72 418.49 706.55 414.23 702.03 410.90 C 705.06 422.70 690.55 409.82 686.42 407.57 C 675.16 398.75 662.76 401.55 650.10 403.06 C 637.88 409.95 627.17 420.87 612.54 422.44 C 587.08 425.45 561.19 429.43 535.67 425.09 C 528.14 442.32 538.85 460.41 529.92 476.66 C 521.96 470.73 524.60 485.03 517.40 484.78 C 510.69 475.50 524.43 469.52 524.06 459.92 C 516.15 463.13 515.44 474.75 506.87 478.04 C 504.88 472.17 508.79 468.20 513.74 466.65 C 512.97 463.90 508.74 462.55 505.90 462.40 C 505.02 453.90 517.14 459.08 520.22 453.23 C 524.13 443.67 529.06 434.38 530.73 424.05 C 520.72 418.40 508.98 424.27 498.63 419.38 C 493.90 417.91 490.99 423.38 488.27 426.34 C 485.89 451.02 485.49 476.02 490.70 500.12 C 491.07 506.98 488.04 507.01 483.23 503.85 C 486.31 508.70 479.40 519.52 476.35 511.60 C 475.56 505.38 482.07 500.02 479.88 493.23 C 476.02 488.39 475.65 504.15 473.43 494.51 C 465.50 491.94 465.97 484.24 474.58 483.60 C 483.91 463.28 482.41 439.03 479.39 417.53 C 483.94 410.83 472.93 404.79 479.24 399.21 C 487.26 399.37 491.97 392.83 498.71 389.72 C 495.87 383.51 493.74 376.56 486.73 374.07 C 499.07 378.73 496.88 367.47 491.03 361.94 C 492.24 354.39 482.98 345.28 474.00 344.13 C 457.06 346.74 440.64 354.64 423.26 352.78 C 415.97 341.00 416.38 317.86 433.42 313.39 C 447.51 311.41 461.45 313.84 475.24 316.45 C 496.05 307.88 520.41 323.04 540.14 310.22 C 525.22 307.09 507.68 300.63 502.11 284.91 C 500.62 265.79 481.64 256.01 471.75 241.22 C 457.37 234.34 439.18 225.58 435.61 208.25 C 430.98 194.87 420.74 182.68 425.41 167.39 C 426.74 165.17 429.52 161.39 426.70 159.33 C 414.67 147.83 409.12 131.54 399.80 118.09 C 390.07 104.11 379.73 89.72 374.96 73.04 C 368.55 65.25 354.63 56.97 360.33 45.32 C 362.67 40.39 368.86 43.49 372.60 40.60 M 702.88 399.97 C 704.92 408.86 710.91 400.27 702.88 399.97 M 531.26 429.10 C 531.44 432.37 534.29 427.56 531.26 429.10 Z" />


<path fill="#ffffff" opacity="1.00" d=" M 472.87 499.91 C 474.79 504.13 472.70 507.51 469.09 508.96 C 466.48 505.09 469.59 502.02 472.87 499.91 Z" />
</svg>
