<?xml version="1.0" encoding="UTF-8" ?>
<!DOCTYPE svg PUBLIC "-//W3C//DTD SVG 1.1//EN" "http://www.w3.org/Graphics/SVG/1.1/DTD/svg11.dtd">
<svg width="1225pt" height="647pt" viewBox="0 0 1225 647" version="1.1" xmlns="http://www.w3.org/2000/svg">

<path fill="#ffffff" opacity="1.00" d=" M 267.20 159.68 C 281.36 156.46 286.21 179.94 299.44 181.76 C 305.66 190.34 314.02 197.43 318.88 207.02 C 329.69 211.98 338.88 224.45 351.76 227.20 C 351.31 224.95 348.22 219.37 352.84 221.19 C 369.75 227.90 382.89 241.35 398.41 250.57 C 418.20 265.83 443.83 265.49 465.64 276.37 C 479.15 283.52 494.54 282.99 508.93 287.04 C 528.47 294.58 550.04 293.04 569.36 300.67 C 577.78 306.71 589.95 305.67 596.16 297.15 C 605.77 293.74 608.51 280.58 620.41 281.39 C 633.09 285.29 641.94 276.93 653.60 274.66 C 658.78 264.64 672.22 268.45 677.39 258.45 C 686.71 256.04 694.61 254.08 702.83 248.75 C 713.76 250.64 719.57 238.21 731.44 241.49 C 735.48 235.18 743.88 236.39 749.97 234.01 C 755.91 224.32 767.63 219.63 778.58 221.50 C 785.14 214.35 794.89 219.89 802.64 215.77 C 814.53 214.14 822.92 211.33 834.05 206.03 C 839.06 205.44 842.70 210.10 843.38 214.64 C 850.07 213.21 850.60 200.59 858.88 201.00 C 864.68 202.87 862.54 210.08 862.92 214.69 C 870.00 213.34 871.23 203.99 878.92 202.91 C 881.91 204.47 884.64 207.89 883.60 211.46 C 879.20 222.66 901.23 211.04 900.56 224.42 C 900.14 234.44 905.67 247.98 894.30 254.29 C 889.10 265.66 874.60 269.04 871.13 281.15 C 859.48 294.71 839.84 291.04 824.48 296.28 C 806.65 299.20 791.28 309.81 773.24 311.38 C 747.14 322.79 714.40 309.49 688.16 324.07 C 676.86 325.78 689.84 337.43 694.13 340.77 C 702.21 343.55 702.98 352.38 705.75 359.28 C 719.15 372.10 703.93 392.25 715.80 406.10 C 712.05 414.94 720.44 423.73 717.94 433.14 C 714.71 430.51 704.30 415.85 705.46 426.63 C 693.35 422.39 682.63 414.50 670.35 411.40 C 661.06 418.73 648.41 405.02 640.32 415.31 C 622.30 430.54 597.30 428.65 575.31 431.34 C 562.59 433.96 549.70 431.67 537.23 428.98 C 535.96 441.02 533.36 453.26 537.93 464.93 C 534.09 470.98 539.13 487.71 528.44 485.21 C 527.74 489.34 521.81 500.00 519.88 491.04 C 517.22 482.67 529.28 477.12 526.92 467.67 C 520.56 473.33 518.51 484.08 510.15 487.26 C 511.24 482.12 518.09 471.59 507.77 473.56 C 508.19 465.97 518.42 468.16 522.33 463.32 C 526.70 456.31 528.04 447.59 530.79 439.85 C 531.08 435.63 535.08 429.32 530.03 426.99 C 522.06 422.53 512.27 426.27 504.32 421.55 C 499.24 417.40 494.89 423.61 491.24 426.21 C 487.32 439.94 486.42 454.37 484.46 468.48 C 483.11 480.39 489.25 494.58 484.09 504.95 C 476.52 496.30 482.50 511.27 475.15 512.94 C 467.43 506.00 480.36 496.65 475.77 489.14 C 471.42 488.72 473.62 496.47 469.40 497.35 C 471.62 492.27 467.47 490.29 463.18 488.68 C 462.71 483.75 467.83 482.88 471.52 481.54 C 482.72 459.87 483.77 434.37 484.27 410.70 C 479.75 404.89 483.58 396.71 491.88 398.81 C 495.16 396.61 497.96 393.24 501.89 391.69 C 504.37 385.61 479.90 382.34 493.93 382.05 C 505.45 383.15 496.66 371.89 492.27 368.76 C 497.85 364.36 489.30 363.85 488.31 359.36 C 483.14 357.75 465.20 362.72 473.99 353.93 C 453.41 359.65 433.47 368.61 412.08 370.96 C 404.55 368.56 416.42 361.08 407.62 359.25 C 409.90 353.03 416.82 345.38 418.81 337.78 C 434.70 328.41 453.77 326.97 471.81 329.44 C 480.00 331.34 485.15 321.09 493.98 324.97 C 501.47 322.92 516.44 328.96 520.85 322.38 C 505.51 319.75 495.98 305.40 480.61 303.45 C 465.84 303.20 454.59 292.62 440.14 290.78 C 429.71 284.61 416.03 285.19 404.27 280.75 C 407.61 271.88 395.10 278.34 390.12 274.84 C 389.03 271.85 397.51 272.63 393.68 270.44 C 387.27 261.03 375.35 256.61 365.87 250.14 C 344.88 238.61 330.09 219.21 311.40 204.70 C 296.48 195.05 282.23 183.49 271.66 169.24 C 271.49 165.68 264.67 161.83 267.20 159.68 M 708.21 411.17 C 705.49 412.69 709.22 415.65 711.16 416.06 C 710.58 414.36 710.95 410.24 708.21 411.17 M 534.26 429.10 C 534.44 432.37 537.29 427.56 534.26 429.10 Z" />


<path fill="#ffffff" opacity="1.00" d=" M 467.31 498.26 C 472.44 496.43 469.04 506.77 465.23 507.00 C 463.59 503.79 463.76 500.00 467.31 498.26 Z" />
</svg>
