<?xml version="1.0" encoding="UTF-8" ?>
<!DOCTYPE svg PUBLIC "-//W3C//DTD SVG 1.1//EN" "http://www.w3.org/Graphics/SVG/1.1/DTD/svg11.dtd">
<svg width="1225pt" height="647pt" viewBox="0 0 1225 647" version="1.1" xmlns="http://www.w3.org/2000/svg">

<path fill="#ffffff" opacity="1.00" d=" M 907.72 295.09 C 911.45 306.02 890.32 314.97 891.11 324.86 C 904.67 318.27 914.05 305.83 926.20 297.19 C 927.78 295.29 930.07 296.36 931.97 297.11 C 925.30 309.26 912.51 316.76 904.98 328.19 C 920.69 324.35 930.19 306.96 946.16 304.24 C 940.80 316.53 923.85 322.64 916.76 332.34 C 925.89 330.20 935.18 323.15 944.60 319.56 C 946.16 319.20 950.27 317.77 948.78 320.77 C 929.73 334.87 907.14 342.99 885.11 351.06 C 872.79 355.27 859.22 349.40 847.56 355.52 C 827.41 357.91 807.32 350.71 786.96 352.23 C 762.54 355.51 738.06 348.84 713.35 348.44 C 707.57 347.95 710.78 355.46 713.80 357.30 C 722.78 367.47 715.02 380.78 718.07 391.96 C 724.56 398.76 719.60 408.00 724.59 415.37 C 726.53 420.04 725.92 425.27 725.93 430.23 C 722.12 426.72 712.92 412.16 712.96 422.73 C 705.62 421.17 699.37 416.98 693.25 412.88 C 676.52 406.62 658.09 414.02 645.37 425.45 C 626.24 441.20 601.35 439.66 578.32 441.36 C 549.17 445.00 527.79 422.34 504.48 409.50 C 499.62 399.98 488.36 398.95 485.73 410.63 C 478.95 406.64 489.18 415.86 481.66 416.21 C 483.97 424.52 477.45 431.76 475.64 439.64 C 475.56 449.48 478.39 460.72 474.96 469.97 C 468.34 461.93 472.23 475.33 465.95 477.29 C 456.48 470.68 473.20 460.57 465.97 453.70 C 461.72 458.80 461.45 466.47 456.91 471.40 C 452.62 466.84 458.43 463.53 460.73 459.71 C 465.16 454.57 450.95 454.72 455.70 448.70 C 466.14 447.35 469.21 435.15 474.10 427.16 C 481.34 414.09 484.33 399.19 485.87 385.12 C 481.49 373.52 504.78 383.68 495.11 373.91 C 499.93 369.32 490.56 369.12 491.18 364.24 C 489.09 357.88 481.70 363.54 477.59 363.53 C 452.46 360.92 427.63 378.02 404.20 365.71 C 368.61 367.28 333.61 360.42 298.32 356.73 C 280.59 355.36 263.66 349.40 247.40 342.52 C 245.01 340.50 247.49 339.15 249.20 337.89 C 239.87 333.21 229.82 330.25 220.70 325.07 C 235.21 326.32 248.92 331.68 263.26 333.86 C 258.10 330.55 252.49 327.89 247.70 324.00 C 256.28 317.22 267.82 328.27 276.00 326.02 C 279.47 315.69 261.02 311.53 259.97 305.07 C 265.69 304.73 255.27 303.74 259.02 301.20 C 276.50 310.32 292.19 322.60 310.07 331.02 C 312.04 333.06 314.01 332.83 315.04 330.08 C 310.39 323.54 305.07 317.39 301.91 309.91 C 319.37 326.10 343.46 343.19 368.44 351.53 C 388.64 352.34 409.68 350.12 428.98 344.00 C 436.40 319.47 470.94 341.32 486.40 327.34 C 507.33 326.29 528.60 332.45 549.00 324.99 C 580.78 316.43 613.77 305.26 646.96 312.95 C 655.03 313.70 661.98 318.84 670.09 318.94 C 679.30 321.96 686.38 330.46 696.95 327.74 C 720.44 323.68 743.51 334.23 766.81 331.89 C 773.70 324.11 784.81 321.31 794.76 320.29 C 802.34 325.46 811.32 312.86 818.14 320.98 C 824.89 316.78 840.09 310.38 835.00 324.17 C 841.94 317.99 847.49 307.24 857.77 307.09 C 861.33 313.63 852.62 318.77 851.89 325.11 C 866.58 322.28 869.31 301.19 883.98 298.87 C 883.55 308.74 874.14 315.16 871.00 324.20 C 887.07 320.36 893.03 301.36 907.72 295.09 M 714.83 406.99 C 714.72 414.19 721.63 408.52 714.83 406.99 Z" />
<path fill="#ffffff" opacity="1.00" d=" M 260.54 321.22 C 264.99 318.72 262.53 324.87 260.54 321.22 Z" />
<path fill="#ffffff" opacity="1.00" d=" M 262.26 323.10 C 265.29 321.56 262.44 326.38 262.26 323.10 Z" />

<path fill="#ffffff" opacity="1.00" d=" M 523.10 425.26 C 526.37 425.44 521.56 428.29 523.10 425.26 Z" />
<path fill="#ffffff" opacity="1.00" d=" M 521.47 428.32 C 525.19 427.49 526.68 434.99 520.92 433.33 C 532.51 447.50 512.23 460.96 502.83 465.37 C 502.12 458.43 498.64 455.35 492.21 459.25 C 493.70 449.15 505.86 452.44 510.12 445.03 C 501.33 446.79 499.53 441.23 494.98 436.08 C 500.99 430.29 507.94 443.94 513.71 436.72 C 516.46 434.08 518.89 431.13 521.47 428.32 M 509.26 449.10 C 509.44 452.37 512.29 447.56 509.26 449.10 M 508.38 451.32 C 505.31 451.49 503.11 453.36 501.93 456.12 C 505.12 457.84 512.39 451.24 508.38 451.32 Z" />


</svg>
