<?xml version="1.0" encoding="UTF-8" ?>
<!DOCTYPE svg PUBLIC "-//W3C//DTD SVG 1.1//EN" "http://www.w3.org/Graphics/SVG/1.1/DTD/svg11.dtd">
<svg width="1225pt" height="647pt" viewBox="0 0 1225 647" version="1.1" xmlns="http://www.w3.org/2000/svg">

<path fill="#ffffff" opacity="1.00" d=" M 906.35 316.32 C 908.29 315.16 912.62 316.59 910.01 319.00 C 903.59 325.62 896.28 331.45 889.84 338.11 C 905.93 337.14 917.07 318.57 932.28 317.64 C 927.55 327.63 912.33 332.76 904.84 342.12 C 918.48 338.88 929.48 329.17 942.61 324.58 C 944.19 324.24 948.22 322.78 946.82 325.81 C 937.10 334.24 923.90 338.39 914.66 346.85 C 926.79 343.71 937.71 336.14 950.33 335.07 C 934.12 347.04 913.56 350.88 895.02 358.07 C 876.69 365.40 857.06 359.62 838.96 365.99 C 808.94 359.15 777.82 363.92 747.52 360.54 C 736.34 360.88 723.76 355.51 713.24 359.10 C 716.64 368.46 725.54 376.15 721.58 387.48 C 715.81 398.60 729.40 407.34 725.46 417.70 C 727.79 425.07 731.48 432.17 729.94 440.24 C 726.98 436.54 713.21 418.55 717.05 432.02 C 704.56 430.81 694.28 414.33 681.06 420.88 C 660.30 423.71 644.63 438.36 625.50 445.33 C 612.49 450.88 599.46 446.02 586.01 449.01 C 564.39 452.34 543.40 442.36 526.82 429.18 C 522.83 430.09 519.95 437.17 523.33 440.73 C 519.07 437.37 516.34 443.28 521.22 444.88 C 524.78 456.14 509.93 459.55 503.45 465.43 C 501.70 467.23 494.89 470.31 496.57 465.61 C 498.00 460.06 490.73 461.06 487.07 460.97 C 491.28 453.21 501.04 456.63 506.84 450.75 C 507.99 443.96 492.84 450.68 495.78 441.11 C 495.37 438.73 492.44 438.22 490.79 436.90 C 498.13 433.12 502.20 442.16 508.70 443.58 C 515.94 440.77 523.73 434.39 523.89 426.25 C 514.93 420.29 504.83 415.66 498.22 406.79 C 494.93 402.72 491.53 407.37 490.76 410.84 C 488.10 426.39 479.10 441.94 482.71 457.67 C 480.91 463.23 486.94 483.88 477.00 475.04 C 476.44 479.05 477.11 483.50 472.92 486.23 C 464.06 480.29 476.28 471.75 473.93 463.74 C 470.23 464.07 470.01 467.78 468.33 470.25 C 470.84 463.63 460.90 465.16 461.00 459.06 C 461.72 455.08 467.39 458.04 469.43 455.50 C 480.91 437.56 485.21 415.51 486.98 394.99 C 491.12 384.93 479.34 388.58 473.63 388.56 C 458.24 391.01 445.06 397.13 430.01 400.89 C 426.18 398.47 422.30 399.59 418.27 400.71 C 411.72 394.65 402.10 397.65 394.00 396.97 C 368.37 397.10 342.43 396.01 317.59 389.46 C 281.39 385.04 244.77 381.64 209.65 371.39 C 204.71 367.82 213.05 370.89 215.48 370.58 C 230.43 373.46 202.77 364.31 218.95 367.04 C 225.76 367.49 232.25 370.32 239.16 370.06 C 236.80 368.33 227.52 362.89 237.54 365.46 C 263.43 371.37 289.56 375.89 316.01 377.28 C 354.07 375.70 392.83 371.21 429.14 359.16 C 435.80 356.72 431.16 347.03 436.44 343.44 C 451.58 333.63 474.48 346.65 487.42 333.29 C 510.15 331.71 533.71 337.25 556.03 330.09 C 584.41 324.31 613.36 317.47 642.45 322.49 C 657.90 327.30 674.70 327.23 688.45 336.60 C 714.22 335.34 739.90 338.92 765.65 338.79 C 774.02 330.41 787.78 326.53 799.00 330.86 C 804.28 330.59 810.03 326.05 814.94 329.02 C 820.39 336.58 828.82 322.88 835.80 328.21 C 831.56 345.04 845.08 323.77 852.68 323.66 C 868.45 318.89 850.71 335.47 852.82 337.89 C 865.62 334.64 871.50 318.31 885.10 317.99 C 883.33 326.12 874.11 330.46 870.91 338.11 C 884.96 334.93 893.80 322.39 906.35 316.32 M 339.59 384.26 C 348.73 388.72 359.68 387.07 369.41 385.69 C 359.78 382.88 349.47 384.20 339.59 384.26 M 486.37 415.14 C 485.71 419.13 490.34 414.33 486.37 415.14 M 719.17 418.17 C 718.15 422.80 723.79 417.15 719.17 418.17 M 501.46 457.15 C 502.39 460.86 505.09 454.94 501.46 457.15 Z" />
<path fill="#ffffff" opacity="1.00" d=" M 188.04 365.05 C 190.40 365.35 195.10 363.77 195.96 365.95 C 193.59 365.64 188.90 367.22 188.04 365.05 Z" />




<path fill="#ffffff" opacity="1.00" d=" M 465.35 472.43 C 468.67 471.43 466.48 481.10 461.98 479.06 C 461.37 476.24 462.82 473.66 465.35 472.43 Z" />
</svg>
