<?xml version="1.0" encoding="UTF-8" ?>
<!DOCTYPE svg PUBLIC "-//W3C//DTD SVG 1.1//EN" "http://www.w3.org/Graphics/SVG/1.1/DTD/svg11.dtd">
<svg width="1225pt" height="647pt" viewBox="0 0 1225 647" version="1.1" xmlns="http://www.w3.org/2000/svg">

<path fill="#ffffff" opacity="1.00" d=" M 612.19 324.53 C 635.75 324.20 658.94 330.47 681.28 336.73 C 695.53 345.57 713.31 337.05 729.00 341.71 C 743.16 338.26 761.37 347.39 772.98 335.99 C 786.35 328.10 799.50 338.00 812.90 332.04 C 818.38 338.26 825.05 334.34 832.01 332.04 C 837.66 331.55 835.12 337.50 835.08 341.12 C 842.04 336.17 850.42 325.84 859.69 329.30 C 859.71 334.20 853.42 337.96 852.87 343.06 C 865.25 340.15 872.12 325.58 885.09 325.00 C 884.43 332.97 874.37 335.96 871.87 343.07 C 886.94 342.14 896.58 323.53 911.09 325.07 C 905.97 333.18 895.87 336.84 890.66 344.83 C 904.60 341.81 915.09 331.22 928.20 326.24 C 930.05 325.61 932.52 324.29 933.20 327.04 C 925.30 335.51 913.69 339.69 905.81 348.08 C 920.79 344.89 933.11 334.14 948.23 331.19 C 941.52 341.56 925.93 343.27 916.86 352.10 C 927.06 350.75 939.67 341.99 948.86 343.72 C 937.35 351.48 922.31 355.05 908.84 358.83 C 891.65 365.92 872.62 369.21 854.02 367.01 C 841.88 374.00 828.07 368.45 815.15 367.62 C 801.32 366.20 787.13 366.52 773.34 367.35 C 754.01 367.00 734.48 362.90 715.00 362.01 C 714.52 365.90 715.87 369.65 718.89 372.03 C 728.10 383.31 717.38 399.19 725.24 410.83 C 729.06 421.52 729.70 432.98 730.96 444.28 C 727.78 441.88 715.36 424.66 719.08 437.89 C 707.84 434.43 699.11 425.25 687.30 423.41 C 673.57 428.62 658.59 431.04 646.28 439.37 C 632.74 446.94 616.91 455.61 601.17 451.27 C 574.64 456.87 546.01 450.05 526.08 431.04 C 524.69 434.66 518.75 439.08 523.15 442.62 C 519.78 439.85 514.31 446.58 519.76 446.44 C 525.52 454.10 515.49 460.89 508.41 463.53 C 504.74 465.06 499.37 472.47 495.66 468.84 C 497.58 462.28 488.64 461.19 485.12 465.23 C 485.29 471.66 489.51 486.33 479.33 479.86 C 481.17 484.26 476.64 494.60 472.70 487.25 C 471.10 482.14 482.22 470.10 474.18 469.07 C 474.11 471.36 469.30 478.29 471.23 473.18 C 473.53 468.10 462.41 468.70 463.93 462.18 C 480.80 461.70 479.23 439.28 483.68 427.67 C 487.84 417.28 484.35 406.29 487.08 396.08 C 462.28 394.12 440.57 414.19 416.69 408.35 C 390.36 402.90 361.64 411.70 335.88 401.18 C 291.36 393.55 246.43 387.26 202.73 375.55 C 208.09 372.57 215.11 377.06 221.13 376.98 C 219.93 373.28 214.48 373.60 211.75 371.16 C 223.20 371.41 233.62 377.72 245.09 378.04 C 243.34 372.01 233.64 374.21 231.93 368.89 C 248.54 373.79 264.76 380.31 281.66 384.32 C 333.32 384.08 385.34 377.81 434.87 362.71 C 431.62 355.78 435.05 344.71 443.42 343.50 C 456.50 341.82 469.73 341.92 482.87 340.86 C 492.47 328.32 511.50 338.68 524.99 337.06 C 554.23 334.80 582.91 327.37 612.19 324.53 M 329.31 390.12 C 327.86 391.85 327.40 394.41 330.32 394.67 C 342.09 396.15 355.60 398.84 366.20 392.34 C 354.14 389.69 341.55 390.70 329.31 390.12 M 495.16 407.03 C 488.39 417.00 489.15 429.93 486.51 441.38 C 485.32 446.95 481.34 459.01 488.67 460.88 C 491.25 453.02 505.02 460.06 507.12 451.12 C 498.18 450.46 495.60 445.12 491.76 438.02 C 498.82 436.58 501.82 444.83 508.00 446.03 C 515.36 444.04 524.81 436.65 524.03 429.02 C 513.20 423.27 504.17 415.09 495.16 407.03 M 721.10 423.26 C 719.56 426.29 724.37 423.44 721.10 423.26 Z" />



<path fill="#ffffff" opacity="1.00" d=" M 468.18 477.34 C 471.41 478.13 469.14 485.42 465.64 483.37 C 463.83 480.88 465.37 477.99 468.18 477.34 Z" />
</svg>
