<?xml version="1.0" encoding="UTF-8" ?>
<!DOCTYPE svg PUBLIC "-//W3C//DTD SVG 1.1//EN" "http://www.w3.org/Graphics/SVG/1.1/DTD/svg11.dtd">
<svg width="1225pt" height="647pt" viewBox="0 0 1225 647" version="1.1" xmlns="http://www.w3.org/2000/svg">

<path fill="#ffffff" opacity="1.00" d=" M 603.46 334.54 C 622.41 332.86 641.87 335.54 659.67 342.26 C 669.78 342.90 679.50 345.63 688.37 350.54 C 710.01 350.44 731.96 349.60 753.44 351.63 C 769.55 355.68 780.77 337.65 796.97 343.10 C 803.11 347.77 810.46 340.25 816.61 343.32 C 821.71 352.51 832.00 337.64 838.89 344.26 C 839.02 346.98 836.97 349.35 836.94 352.12 C 844.47 347.61 850.94 338.38 860.94 339.07 C 867.72 342.98 848.86 354.10 857.68 354.67 C 869.07 351.75 876.31 333.00 888.65 336.40 C 887.31 342.64 878.20 347.51 875.10 354.13 C 873.78 357.23 877.52 355.75 879.04 355.05 C 890.15 350.48 898.07 340.87 909.00 336.04 C 910.27 335.90 915.29 333.80 913.89 336.91 C 908.61 344.66 899.99 349.76 893.67 356.65 C 890.67 359.70 897.12 357.81 899.02 356.98 C 910.33 352.14 919.91 344.08 931.16 339.13 C 933.19 338.46 936.19 337.36 937.30 339.99 C 928.68 348.40 917.10 353.27 908.73 361.97 C 921.88 360.20 932.72 351.39 945.10 347.10 C 946.98 346.54 950.05 344.81 950.83 347.63 C 942.76 355.63 931.18 358.43 922.89 366.07 C 931.58 365.46 941.76 358.88 948.91 360.88 C 933.15 371.26 912.66 375.00 894.45 380.63 C 876.66 387.63 857.77 381.79 839.67 386.46 C 818.24 383.12 796.41 380.52 774.61 382.56 C 755.68 380.31 736.22 376.56 716.92 375.13 C 718.94 384.40 727.86 391.84 724.64 402.68 C 719.43 414.57 730.80 424.12 728.28 435.86 C 730.11 442.25 735.26 451.12 731.40 456.91 C 728.87 451.61 724.79 447.41 720.14 443.89 C 722.39 454.23 716.50 445.14 712.42 446.43 C 704.00 442.32 692.77 429.21 683.42 437.47 C 662.98 440.96 644.76 450.26 625.88 458.81 C 617.29 460.85 609.08 464.68 600.95 460.04 C 575.26 466.01 548.58 456.73 528.71 440.27 C 519.64 429.34 505.12 424.60 496.94 413.02 C 490.02 418.13 492.21 431.68 491.42 440.43 C 498.82 441.94 503.87 454.36 511.88 447.94 C 517.31 445.79 519.66 440.12 524.17 436.88 C 522.98 440.69 517.81 444.14 521.86 447.97 C 510.78 445.33 526.14 458.11 516.93 461.95 C 509.02 464.96 502.27 474.28 493.56 472.98 C 495.36 469.22 489.42 461.81 490.63 471.78 C 488.98 476.40 494.03 493.09 484.15 487.09 C 483.69 490.64 481.76 500.94 477.61 496.36 C 472.73 489.76 484.31 481.55 480.11 476.06 C 473.83 477.65 476.62 490.10 470.32 490.79 C 465.09 485.52 476.13 484.37 475.91 478.88 C 477.61 474.19 470.21 477.52 469.97 472.98 C 464.01 467.10 473.04 468.46 476.77 467.73 C 486.26 456.36 483.53 440.59 487.23 427.16 C 487.52 423.00 490.31 414.23 484.22 413.42 C 466.46 415.54 452.41 423.87 435.62 428.57 C 424.30 426.70 411.52 428.88 399.50 427.63 C 378.94 422.35 356.38 426.73 336.91 416.19 C 290.23 403.02 242.23 392.75 197.76 372.97 C 214.90 376.32 231.12 384.53 248.21 388.05 C 235.35 380.26 219.77 376.54 207.66 368.17 C 230.87 374.81 251.96 387.49 275.18 394.07 C 265.32 386.50 250.61 383.01 243.80 373.09 C 261.55 380.11 276.96 393.83 296.75 394.91 C 298.06 387.78 304.43 394.22 308.23 395.72 C 315.37 397.76 322.99 398.09 330.40 398.71 C 323.19 396.29 315.34 396.38 308.20 393.79 C 311.12 387.11 332.52 399.80 330.25 390.09 C 348.56 392.87 366.23 387.01 384.07 384.04 C 414.23 380.56 442.05 365.51 473.04 366.86 C 465.66 358.56 448.40 370.29 438.87 364.20 C 434.92 358.44 436.16 349.75 441.31 345.22 C 455.30 339.82 470.44 345.10 484.83 343.86 C 490.33 337.50 499.14 337.66 506.68 339.27 C 538.92 345.33 571.30 337.33 603.46 334.54 M 296.94 396.93 C 296.80 401.25 304.40 398.98 306.38 399.77 C 303.39 398.31 300.24 397.36 296.94 396.93 M 332.04 399.05 C 332.90 401.22 337.59 399.64 339.96 399.95 C 339.09 397.78 334.40 399.36 332.04 399.05 M 342.52 400.23 C 344.56 403.84 347.01 397.74 342.52 400.23 M 348.48 401.31 C 353.14 404.55 355.02 398.78 348.48 401.31 M 322.68 402.04 C 331.39 410.40 344.32 412.89 355.91 409.95 C 350.73 406.23 361.34 408.90 362.38 407.71 C 349.51 404.14 335.96 402.80 322.68 402.04 M 490.16 445.01 C 489.53 450.30 489.11 455.64 489.03 460.98 C 494.66 460.89 502.89 461.69 506.18 455.99 C 504.10 451.58 496.34 455.07 494.59 450.68 C 494.44 448.02 493.87 443.96 490.16 445.01 Z" />
<path fill="#ffffff" opacity="1.00" d=" M 241.26 373.10 C 244.29 371.56 241.44 376.37 241.26 373.10 Z" />






</svg>
