<?xml version="1.0" encoding="UTF-8" ?>
<!DOCTYPE svg PUBLIC "-//W3C//DTD SVG 1.1//EN" "http://www.w3.org/Graphics/SVG/1.1/DTD/svg11.dtd">
<svg width="1225pt" height="647pt" viewBox="0 0 1225 647" version="1.1" xmlns="http://www.w3.org/2000/svg">

<path fill="#ffffff" opacity="1.00" d=" M 495.42 343.37 C 520.33 345.58 545.69 350.42 570.83 345.69 C 602.25 345.13 635.26 340.45 664.46 355.43 C 672.44 355.20 679.94 358.67 687.19 361.73 C 713.08 358.44 739.82 361.02 765.95 361.28 C 775.53 363.08 781.38 351.91 791.84 353.70 C 799.07 349.93 803.83 360.08 810.86 355.84 C 816.21 352.45 821.47 355.15 824.11 360.04 C 831.63 356.35 848.04 352.64 841.01 366.11 C 846.43 364.63 857.51 347.81 866.93 354.22 C 866.69 360.90 859.87 364.93 857.85 371.04 C 871.04 369.81 877.34 354.41 889.43 350.41 C 895.10 346.14 894.52 351.28 893.32 353.35 C 888.98 360.16 882.01 364.97 877.97 371.92 C 894.05 373.27 904.83 349.43 921.11 352.10 C 914.76 361.78 902.98 366.59 896.92 376.14 C 912.77 373.50 924.16 359.59 939.49 355.52 C 948.56 351.68 941.94 359.08 939.64 360.63 C 931.63 368.43 919.30 372.01 912.85 381.04 C 928.89 378.89 941.68 365.23 958.13 364.94 C 948.63 374.17 935.54 378.49 924.66 385.83 C 935.65 386.05 945.12 378.86 956.08 378.96 C 956.20 380.22 955.72 381.11 954.64 381.64 C 933.77 391.41 911.32 396.76 889.32 403.30 C 849.92 409.68 810.03 398.78 770.84 401.29 C 754.32 396.27 736.99 394.12 720.16 390.16 C 716.77 393.45 722.59 397.17 723.56 400.32 C 731.18 412.44 718.97 427.42 728.20 438.85 C 729.42 449.56 732.04 460.27 732.85 471.17 C 728.77 469.33 717.50 450.15 720.08 462.89 C 709.33 460.44 702.24 451.22 691.41 448.68 C 680.07 448.87 668.54 455.40 656.67 455.90 C 640.89 462.55 625.18 470.19 608.02 472.05 C 599.82 466.63 589.52 471.07 580.21 469.36 C 558.33 469.77 539.93 456.65 524.09 443.12 C 518.48 436.37 510.87 430.07 503.00 425.97 C 490.24 426.57 487.07 446.57 499.56 450.44 C 506.84 458.96 515.18 448.33 521.10 443.84 C 520.91 449.41 517.04 450.65 515.14 454.75 C 522.40 454.07 519.04 465.71 513.97 467.04 C 505.57 469.39 499.88 476.87 491.25 478.39 C 492.53 482.52 491.44 499.10 484.39 490.74 C 486.71 496.48 478.42 505.94 476.03 496.86 C 477.88 491.14 487.37 480.30 475.58 480.58 C 471.46 480.64 471.66 475.63 468.28 474.46 C 470.83 467.76 482.59 475.99 482.70 464.78 C 483.35 454.33 490.13 441.76 485.78 432.07 C 474.20 434.72 461.95 436.10 451.86 442.81 C 418.69 450.43 383.61 445.69 350.69 438.32 C 347.32 435.44 339.10 436.43 339.28 431.09 C 343.38 432.59 353.74 430.44 344.55 428.59 C 346.28 421.41 336.71 422.54 332.60 419.25 C 340.57 418.94 348.26 421.59 356.18 421.96 C 335.63 414.83 312.78 413.13 291.86 406.00 C 288.46 405.97 291.02 404.55 292.76 404.55 C 314.18 408.98 335.45 414.78 357.27 416.93 C 341.63 411.97 325.00 409.90 308.98 406.07 C 304.18 404.82 296.91 406.78 294.83 400.96 C 315.62 401.73 335.37 409.58 356.02 411.10 C 341.48 406.73 324.28 404.31 308.94 399.70 C 314.61 393.44 334.04 406.53 332.38 397.25 C 347.85 399.87 362.79 396.97 377.74 393.64 C 410.86 391.39 440.95 372.60 474.43 373.72 C 465.06 367.72 453.70 369.57 443.24 369.86 C 435.78 362.16 442.09 345.75 454.01 348.07 C 467.86 345.30 484.50 354.08 495.42 343.37 M 359.26 417.10 C 359.44 420.37 362.29 415.56 359.26 417.10 M 491.38 449.58 C 492.25 454.25 487.41 461.38 492.29 464.82 C 496.99 464.99 501.97 463.38 505.32 459.92 C 500.53 455.74 492.07 457.97 491.38 449.58 Z" />
<path fill="#ffffff" opacity="1.00" d=" M 233.80 393.10 C 251.71 395.82 269.01 401.49 285.06 409.91 C 300.34 421.05 322.28 414.22 335.13 429.83 C 314.28 425.39 294.51 415.70 273.69 410.31 C 260.96 403.49 244.64 402.08 233.80 393.10 Z" />
<path fill="#ffffff" opacity="1.00" d=" M 282.26 403.10 C 285.29 401.56 282.44 406.37 282.26 403.10 Z" />
<path fill="#ffffff" opacity="1.00" d=" M 307.31 414.29 C 317.89 413.16 300.17 418.85 307.31 414.29 Z" />
<path fill="#ffffff" opacity="1.00" d=" M 315.76 415.05 C 318.61 415.42 321.89 415.20 324.34 416.90 C 321.13 417.74 318.09 417.15 315.76 415.05 Z" />

<path fill="#ffffff" opacity="1.00" d=" M 328.26 418.10 C 331.29 416.56 328.44 421.37 328.26 418.10 Z" />
<path fill="#ffffff" opacity="1.00" d=" M 336.26 429.10 C 339.29 427.56 336.44 432.37 336.26 429.10 Z" />

<path fill="#ffffff" opacity="1.00" d=" M 474.56 486.60 C 478.93 483.50 472.51 497.55 469.92 495.13 C 467.66 491.15 471.68 488.59 474.56 486.60 Z" />
</svg>
