<?xml version="1.0" encoding="UTF-8" ?>
<!DOCTYPE svg PUBLIC "-//W3C//DTD SVG 1.1//EN" "http://www.w3.org/Graphics/SVG/1.1/DTD/svg11.dtd">
<svg width="1225pt" height="647pt" viewBox="0 0 1225 647" version="1.1" xmlns="http://www.w3.org/2000/svg">

<path fill="#ffffff" opacity="1.00" d=" M 496.39 348.26 C 520.95 350.72 545.54 357.18 570.68 353.69 C 602.88 353.43 638.14 349.63 667.10 366.93 C 671.97 363.01 674.34 370.89 679.45 370.53 C 689.57 375.18 698.51 365.22 708.63 369.31 C 728.10 367.71 747.38 370.95 766.99 370.09 C 772.98 372.19 777.61 369.91 781.63 365.63 C 789.42 364.65 799.30 357.81 806.35 364.63 C 812.08 368.92 820.29 359.17 825.79 365.19 C 827.65 376.82 840.31 358.80 846.94 366.26 C 847.26 370.71 844.37 374.21 843.08 378.22 C 852.54 373.88 860.21 359.15 872.37 361.65 C 873.46 369.73 863.24 376.07 860.85 384.08 C 877.67 381.48 884.42 357.71 901.97 359.00 C 896.12 367.93 888.47 375.50 882.06 383.99 C 878.79 388.06 886.44 385.16 888.05 384.08 C 903.04 378.71 912.39 361.10 929.13 360.99 C 921.50 372.43 907.60 379.54 899.85 391.02 C 919.03 387.09 932.47 368.27 952.10 366.98 C 942.95 379.89 923.58 384.89 914.75 397.83 C 931.36 393.48 945.66 383.10 962.04 378.05 C 963.69 377.41 964.55 378.84 965.30 380.06 C 952.97 389.96 937.10 394.32 924.80 404.07 C 937.34 404.06 951.74 393.35 962.70 395.70 C 945.65 408.56 921.23 410.29 901.17 417.25 C 889.88 422.96 876.64 424.05 864.32 421.64 C 838.01 422.25 812.38 416.98 786.00 416.95 C 764.25 419.50 744.03 407.31 722.38 404.57 C 716.12 405.90 725.14 412.76 725.54 416.57 C 729.26 425.68 725.34 435.40 725.37 444.65 C 732.66 457.19 730.49 471.53 732.98 485.18 C 731.07 486.36 718.68 465.31 720.92 477.07 C 707.85 475.67 700.13 460.93 686.57 461.79 C 671.34 465.38 655.27 464.80 641.17 472.25 C 629.93 476.53 618.27 480.74 606.17 480.90 C 599.14 474.94 589.26 481.19 581.14 477.87 C 558.21 476.81 537.52 463.67 522.86 446.75 C 521.28 450.22 512.70 456.73 518.80 458.60 C 522.04 475.01 498.45 477.11 489.20 483.31 C 490.20 487.45 489.63 498.79 483.08 493.10 C 483.22 493.86 480.05 507.44 475.70 501.26 C 469.02 494.79 482.84 491.97 479.84 484.41 C 473.96 483.42 466.87 479.43 468.21 473.11 C 481.06 478.17 486.09 460.70 483.82 451.06 C 467.31 452.68 453.70 463.76 436.91 463.90 C 410.89 467.61 384.69 462.24 359.35 456.67 C 331.21 440.49 298.75 434.29 269.31 420.87 C 273.49 417.61 263.52 413.40 266.65 419.20 C 256.73 417.27 247.51 412.53 238.07 408.97 C 236.99 408.33 233.19 407.07 236.16 406.41 C 248.27 407.66 259.43 414.30 272.01 411.97 C 278.61 412.91 264.66 412.07 270.77 415.27 C 286.51 417.56 297.43 430.70 313.17 433.54 C 318.47 441.47 321.68 431.44 328.37 434.61 C 332.79 436.35 337.52 437.34 342.30 436.92 C 333.66 433.51 324.40 431.44 315.62 428.24 C 329.42 428.93 342.57 434.10 356.38 434.82 C 330.06 426.30 299.64 421.83 275.28 413.12 C 301.74 414.62 328.33 426.15 355.26 428.98 C 335.77 421.02 312.52 421.10 294.00 411.03 C 307.88 409.64 321.40 416.39 335.25 416.93 C 328.07 413.16 319.48 412.94 312.48 408.67 C 315.70 402.72 336.36 415.80 334.15 405.95 C 361.06 408.99 387.28 400.67 413.63 396.50 C 433.64 394.34 448.62 376.37 469.98 382.01 C 479.44 382.38 466.51 378.05 463.76 376.27 C 460.85 368.00 450.23 375.53 444.40 370.63 C 440.26 362.35 445.11 347.57 456.83 350.19 C 469.54 348.12 486.79 359.10 496.39 348.26 M 336.52 417.22 C 338.55 420.85 341.01 414.74 336.52 417.22 M 334.66 439.18 C 339.70 443.09 345.26 446.32 351.05 448.99 C 359.81 442.40 338.14 440.59 334.66 439.18 M 512.35 440.30 C 506.02 442.78 500.01 446.11 493.94 449.17 C 498.08 460.19 512.98 459.01 518.72 449.74 C 524.53 445.36 517.41 439.40 512.35 440.30 M 368.56 454.24 C 372.77 458.82 375.32 452.63 368.56 454.24 M 491.12 455.37 C 489.04 457.48 490.33 461.06 489.29 463.51 C 486.31 473.22 503.72 468.99 504.94 463.20 C 499.50 461.56 491.13 460.80 491.12 455.37 M 496.51 471.14 C 497.20 475.48 501.05 469.60 496.51 471.14 M 491.19 477.20 C 486.85 480.32 495.14 480.22 491.19 477.20 Z" />



<path fill="#ffffff" opacity="1.00" d=" M 520.10 453.26 C 523.37 453.44 518.56 456.29 520.10 453.26 Z" />




<path fill="#ffffff" opacity="1.00" d=" M 474.67 486.59 C 474.83 487.27 471.47 498.81 467.92 497.13 C 464.65 491.39 472.43 490.66 474.67 486.59 Z" />
</svg>
