<?xml version="1.0" encoding="UTF-8" ?>
<!DOCTYPE svg PUBLIC "-//W3C//DTD SVG 1.1//EN" "http://www.w3.org/Graphics/SVG/1.1/DTD/svg11.dtd">
<svg width="1225pt" height="647pt" viewBox="0 0 1225 647" version="1.1" xmlns="http://www.w3.org/2000/svg">

<path fill="#ffffff" opacity="1.00" d=" M 496.50 351.32 C 516.50 352.04 536.23 359.39 556.65 357.54 C 594.05 357.21 634.84 352.83 668.91 371.69 C 673.74 367.76 675.31 377.97 680.99 375.03 C 708.79 371.36 735.74 373.72 764.05 373.28 C 779.56 377.56 794.89 355.54 809.76 368.40 C 815.61 367.40 829.54 359.82 828.42 372.12 C 835.02 370.44 841.37 364.91 848.33 366.64 C 851.54 371.32 838.39 387.89 848.77 378.79 C 855.52 370.83 863.62 361.30 875.03 361.98 C 875.45 372.05 862.20 378.24 862.99 387.91 C 880.09 382.85 886.48 359.13 905.18 359.00 C 898.68 369.81 889.27 378.75 882.35 389.34 C 881.00 391.00 884.83 389.62 885.66 389.60 C 901.39 383.92 911.33 368.88 926.62 362.56 C 928.62 361.40 930.72 362.50 932.27 363.87 C 921.59 374.64 909.38 384.25 899.89 396.02 C 918.88 392.28 932.23 376.01 950.34 370.31 C 952.50 368.82 957.35 371.45 953.33 373.31 C 941.91 384.40 925.90 391.36 915.90 403.01 C 934.28 401.14 949.63 383.18 968.03 385.21 C 955.88 396.69 936.88 400.56 924.94 410.98 C 935.89 412.30 953.86 398.59 964.93 403.93 C 941.50 416.22 913.30 419.33 888.00 427.98 C 857.91 430.37 828.25 423.70 798.21 424.53 C 790.03 424.52 781.93 420.44 773.89 423.73 C 756.02 419.12 738.33 412.51 719.92 409.95 C 720.99 418.25 730.27 424.34 727.56 433.53 C 723.35 453.78 733.80 471.97 733.96 492.14 C 731.97 495.14 721.32 473.02 721.66 484.02 C 709.20 481.35 700.23 470.29 688.19 467.27 C 675.70 472.30 661.00 467.98 648.48 473.61 C 633.25 479.48 616.39 488.02 600.14 482.46 C 570.82 485.55 541.34 472.59 522.92 449.81 C 521.30 453.53 517.68 456.14 516.15 459.66 C 521.35 461.54 520.26 467.82 517.53 471.47 C 510.39 476.06 503.14 480.68 495.88 484.95 C 490.27 486.74 494.77 478.70 490.09 477.96 C 486.95 482.44 491.43 500.32 482.18 494.08 C 483.08 499.18 476.07 508.43 474.03 499.86 C 470.62 494.39 481.02 492.33 479.64 486.10 C 476.17 482.70 465.23 481.40 467.19 474.13 C 475.12 477.14 481.71 471.50 482.86 463.88 C 483.57 458.87 476.44 461.52 473.45 462.24 C 435.35 480.85 389.12 475.95 351.20 459.67 C 331.78 448.92 309.61 445.14 289.62 435.45 C 273.29 429.67 255.14 425.30 241.72 414.22 C 252.98 418.19 264.76 421.39 275.74 426.38 C 274.83 424.42 271.37 419.65 275.02 419.12 C 298.90 423.43 322.30 430.75 346.37 433.82 C 330.03 427.85 311.06 427.11 296.04 418.91 C 308.64 416.24 324.85 423.63 339.25 424.88 C 332.90 419.87 318.37 422.10 315.93 414.02 C 322.97 413.78 329.86 415.45 336.84 416.10 C 334.82 412.95 334.65 408.68 341.00 411.07 C 360.17 415.53 378.65 407.21 397.63 405.52 C 411.40 402.14 425.67 399.71 438.57 393.58 C 446.49 382.21 462.61 387.22 474.27 385.82 C 469.73 383.58 457.64 379.53 466.51 374.42 C 463.07 370.29 444.99 378.74 444.93 367.85 C 442.50 363.83 446.23 357.88 448.18 354.18 C 462.62 345.01 483.19 361.72 496.50 351.32 M 486.02 372.00 C 488.26 377.88 495.93 370.50 486.02 372.00 M 340.18 424.48 C 340.41 428.84 344.84 423.29 340.18 424.48 M 287.63 426.22 C 300.88 431.60 312.98 441.12 327.06 444.07 C 320.65 437.69 335.49 439.75 328.64 435.41 C 314.81 433.10 301.73 426.63 287.63 426.22 M 335.45 438.15 C 336.40 441.85 339.09 435.94 335.45 438.15 M 325.80 444.97 C 328.04 446.71 330.59 448.01 333.27 448.94 C 332.76 445.37 328.55 445.42 325.80 444.97 M 516.59 446.62 C 511.52 449.77 505.55 451.24 500.71 454.78 C 498.07 459.24 507.02 463.18 510.11 459.15 C 515.32 458.52 527.21 445.25 516.59 446.62 M 354.26 453.10 C 354.44 456.37 357.29 451.56 354.26 453.10 M 490.20 459.09 C 479.36 473.10 503.46 476.92 504.95 465.24 C 498.35 464.78 493.37 462.24 490.20 459.09 M 372.74 463.03 C 378.44 467.62 380.60 462.40 372.74 463.03 M 498.45 474.15 C 499.39 477.85 502.09 471.94 498.45 474.15 Z" />










<path fill="#ffffff" opacity="1.00" d=" M 473.44 488.49 C 476.06 486.05 470.55 501.86 467.30 496.68 C 463.84 492.75 470.96 490.84 473.44 488.49 Z" />
</svg>
