<?xml version="1.0" encoding="UTF-8" ?>
<!DOCTYPE svg PUBLIC "-//W3C//DTD SVG 1.1//EN" "http://www.w3.org/Graphics/SVG/1.1/DTD/svg11.dtd">
<svg width="1225pt" height="647pt" viewBox="0 0 1225 647" version="1.1" xmlns="http://www.w3.org/2000/svg">

<path fill="#ffffff" opacity="1.00" d=" M 452.36 360.20 C 469.58 357.22 487.31 367.87 502.95 360.00 C 546.92 373.74 593.52 362.96 638.12 371.81 C 648.54 375.43 661.25 374.78 668.75 384.13 C 670.60 386.52 669.73 381.92 670.27 380.83 C 682.70 391.15 698.80 380.22 712.99 384.88 C 733.10 385.89 753.99 388.17 774.08 388.14 C 780.70 380.56 792.02 377.70 801.52 378.43 C 806.93 388.21 824.43 366.39 823.26 384.08 C 830.08 381.92 836.32 374.46 843.91 377.21 C 844.05 382.59 840.75 387.33 839.27 392.38 C 849.38 385.47 854.69 369.24 869.04 369.98 C 868.28 379.78 860.02 387.00 856.90 396.09 C 874.91 392.24 878.42 366.02 897.15 363.96 C 891.68 376.02 881.40 386.93 876.60 398.38 C 896.21 395.03 902.99 366.95 923.16 365.00 C 915.96 379.64 900.89 389.85 893.89 404.09 C 914.44 398.36 924.86 373.65 946.27 371.04 C 935.55 386.06 918.98 396.76 907.86 411.07 C 924.99 406.95 937.66 392.44 953.60 385.52 C 955.39 384.82 957.64 384.61 959.10 386.14 C 945.37 400.61 927.03 409.50 911.81 422.08 C 927.03 417.87 940.82 408.90 956.31 405.28 C 957.69 404.56 958.44 405.73 959.08 406.80 C 940.61 418.47 920.08 426.53 899.08 432.17 C 884.95 442.07 866.99 436.36 851.24 436.47 C 837.11 438.74 823.75 433.31 810.08 431.97 C 787.74 430.72 765.48 430.18 744.02 422.93 C 732.22 419.75 720.18 416.48 707.84 417.06 C 716.59 423.19 719.24 433.55 725.10 441.89 C 732.61 454.79 721.76 471.09 731.54 483.54 C 731.75 493.90 736.48 503.77 735.92 514.24 C 731.99 509.64 726.47 502.83 722.68 500.58 C 726.65 507.93 716.53 504.34 712.61 501.40 C 708.00 498.14 703.79 493.94 698.01 492.93 C 693.15 491.14 688.25 485.25 683.29 490.25 C 674.19 488.85 662.92 491.78 656.74 483.30 C 640.84 485.89 626.32 495.02 609.92 496.88 C 596.37 491.58 580.25 495.71 566.35 489.62 C 548.89 486.69 537.26 472.46 524.23 461.83 C 521.97 456.64 521.45 463.33 518.24 464.29 C 527.34 472.02 516.91 481.40 510.06 485.99 C 503.67 486.22 501.85 494.67 495.13 494.08 C 497.23 489.03 493.17 483.92 487.91 486.84 C 489.27 476.58 502.55 482.05 507.16 474.06 C 501.39 468.62 494.15 477.35 488.03 478.02 C 477.53 477.78 487.25 497.28 476.03 493.46 C 474.74 496.84 470.94 507.34 468.42 499.48 C 466.34 496.45 456.11 495.24 462.74 490.73 C 467.77 488.10 465.62 493.33 462.74 494.79 C 467.78 494.97 473.01 491.24 473.07 485.93 C 469.67 485.03 467.38 491.83 467.41 485.92 C 432.40 507.68 389.28 512.12 349.25 503.90 C 352.70 494.87 338.25 496.17 332.65 492.41 C 330.94 491.92 324.07 490.45 329.08 489.85 C 329.82 485.10 303.25 485.80 311.91 480.87 C 309.42 476.44 288.27 473.35 302.27 470.69 C 293.11 465.07 280.68 465.70 270.14 462.77 C 268.58 458.79 274.54 461.26 276.96 461.09 C 294.94 464.01 313.00 467.72 331.25 467.95 C 316.01 463.92 299.77 460.99 283.84 460.86 C 289.94 446.86 309.35 450.57 322.25 449.94 C 320.31 447.20 316.66 447.22 313.87 445.89 C 317.58 439.53 326.72 444.48 332.27 443.24 C 336.44 433.00 349.72 438.95 358.06 436.08 C 384.15 424.96 413.20 420.81 439.00 407.88 C 441.17 406.50 437.31 402.03 440.75 400.75 C 450.89 395.06 463.37 396.89 474.39 398.62 C 471.14 394.48 461.68 394.98 462.08 388.23 C 470.53 381.37 482.73 387.66 491.73 385.82 C 481.55 374.00 461.39 387.00 448.36 379.61 C 445.54 373.44 447.44 364.73 452.36 360.20 M 307.93 469.93 C 307.72 473.13 312.13 472.09 314.24 472.88 C 312.72 470.92 310.21 470.42 307.93 469.93 M 316.15 472.33 C 313.58 476.15 327.42 474.24 330.26 475.84 C 326.61 472.33 320.71 473.22 316.15 472.33 M 581.13 478.20 C 576.93 482.69 586.93 480.17 581.13 478.20 M 501.34 481.35 C 490.89 485.59 510.64 482.94 501.34 481.35 M 720.22 496.42 C 719.14 501.00 724.68 496.56 720.22 496.42 Z" />
<path fill="#ffffff" opacity="1.00" d=" M 273.59 468.20 C 279.08 468.38 289.28 467.03 292.09 472.07 C 285.74 472.17 279.49 470.40 273.59 468.20 Z" />





</svg>
