<?xml version="1.0" encoding="UTF-8" ?>
<!DOCTYPE svg PUBLIC "-//W3C//DTD SVG 1.1//EN" "http://www.w3.org/Graphics/SVG/1.1/DTD/svg11.dtd">
<svg width="1225pt" height="647pt" viewBox="0 0 1225 647" version="1.1" xmlns="http://www.w3.org/2000/svg">

<path fill="#ffffff" opacity="1.00" d=" M 612.50 315.66 C 632.09 313.09 651.95 316.32 670.74 320.95 C 675.43 312.38 687.72 321.55 695.69 319.35 C 704.03 320.40 712.42 321.25 720.58 323.43 C 725.01 331.14 730.37 338.19 736.87 344.16 C 740.45 347.98 733.61 345.56 734.42 349.10 C 722.15 348.40 709.88 337.58 698.06 345.20 C 680.87 350.89 669.61 366.36 663.94 382.97 C 659.05 393.78 671.32 398.69 678.73 403.21 C 690.43 407.74 697.20 419.48 708.85 424.19 C 713.51 428.74 714.29 436.24 719.56 440.42 C 726.19 448.54 723.97 459.74 724.59 469.47 C 731.17 483.25 733.64 498.06 737.88 513.09 C 731.96 512.05 729.80 502.77 723.57 501.40 C 725.41 511.58 710.54 500.76 706.36 498.64 C 690.57 486.83 671.17 501.21 655.36 491.43 C 639.27 495.50 624.53 503.98 608.10 506.89 C 604.23 504.16 599.60 503.66 595.11 505.13 C 568.34 507.34 542.69 497.26 521.56 481.44 C 514.88 478.22 520.49 489.02 516.29 491.28 C 509.51 495.50 502.23 498.95 495.89 503.86 C 494.11 505.43 488.34 505.40 491.21 502.16 C 494.73 495.55 477.57 500.21 484.24 496.23 C 488.03 488.78 501.45 494.19 504.04 485.17 C 497.70 484.26 489.13 485.37 489.79 476.25 C 485.70 475.31 483.62 473.15 488.89 472.05 C 495.63 474.67 504.25 484.99 511.27 477.00 C 505.64 471.98 500.21 466.74 494.84 461.45 C 488.82 461.13 472.96 461.42 477.40 470.52 C 468.27 478.02 467.90 491.41 456.03 496.02 C 451.31 505.31 448.75 493.17 442.44 496.82 C 439.52 488.38 455.59 492.10 454.00 483.20 C 449.34 481.45 444.79 480.40 446.38 474.67 C 438.03 465.87 453.29 472.25 456.17 477.94 C 470.63 475.20 480.23 461.37 485.29 448.50 C 483.95 439.52 493.77 440.36 499.12 439.87 C 498.09 436.92 494.72 435.47 492.87 433.07 C 495.82 433.37 498.91 435.41 501.82 434.21 C 496.73 424.65 491.44 415.95 487.45 405.59 C 486.93 401.10 492.43 390.29 482.99 392.97 C 440.81 390.57 404.08 412.23 366.35 428.30 C 353.69 435.31 338.77 435.43 325.95 441.82 C 309.83 445.80 290.45 458.65 274.75 451.09 C 280.67 441.20 295.50 439.38 302.46 429.45 C 324.59 414.10 348.37 401.95 370.37 386.43 C 379.39 382.44 392.53 379.50 394.10 368.13 C 411.40 362.49 429.83 361.91 447.41 357.51 C 462.28 350.61 478.45 347.67 494.61 345.51 C 509.71 341.94 522.00 324.18 538.70 331.37 C 540.90 339.20 548.68 341.42 552.12 347.92 C 567.33 332.13 589.88 319.96 612.50 315.66 M 720.14 497.37 C 719.33 501.34 724.13 496.71 720.14 497.37 Z" />

</svg>
