<?xml version="1.0" encoding="UTF-8" ?>
<!DOCTYPE svg PUBLIC "-//W3C//DTD SVG 1.1//EN" "http://www.w3.org/Graphics/SVG/1.1/DTD/svg11.dtd">
<svg width="1225pt" height="647pt" viewBox="0 0 1225 647" version="1.1" xmlns="http://www.w3.org/2000/svg">

<path fill="#ffffff" opacity="1.00" d=" M 905.30 275.28 C 906.91 274.82 908.96 274.49 907.80 276.86 C 900.92 291.63 893.58 306.25 885.39 320.38 C 885.05 321.53 883.38 324.27 885.10 324.67 C 906.39 314.79 912.88 285.07 935.15 277.99 C 926.40 297.05 910.30 311.63 900.91 330.11 C 919.07 322.23 930.57 303.75 947.01 293.02 C 949.15 292.05 953.61 289.46 951.89 293.86 C 939.45 311.16 922.65 324.79 907.88 340.07 C 925.62 335.73 938.50 315.20 957.14 315.16 C 938.76 332.30 916.02 343.62 893.80 354.79 C 883.35 362.83 870.13 365.91 857.13 365.18 C 846.39 366.64 836.40 372.66 825.33 370.36 C 808.88 370.53 792.07 374.88 775.18 375.28 C 744.85 385.06 709.20 378.48 680.58 395.69 C 681.74 401.47 689.69 404.67 695.44 406.50 C 702.20 410.61 701.31 420.69 707.98 425.00 C 717.37 436.96 706.54 454.03 717.84 465.18 C 716.65 475.79 725.80 484.38 723.96 495.20 C 716.93 491.83 726.07 488.31 720.55 487.65 C 715.88 492.72 707.10 476.42 711.07 489.77 C 701.43 488.02 693.56 481.45 683.88 480.14 C 672.97 474.55 662.64 485.09 650.20 480.88 C 641.49 474.27 632.06 483.90 623.94 486.82 C 614.66 490.96 605.03 494.73 594.95 496.03 C 592.52 496.78 591.37 495.14 591.23 492.95 C 567.83 494.98 541.32 493.64 523.02 476.98 C 511.04 469.79 504.37 455.76 491.41 450.38 C 495.66 460.65 485.61 468.50 476.73 470.86 C 473.18 474.72 461.82 481.58 464.39 471.63 C 456.58 462.93 450.56 477.20 442.83 478.94 C 439.12 486.61 425.03 485.66 425.46 476.58 C 430.18 476.50 440.41 474.88 439.33 468.66 C 429.39 467.31 433.55 459.00 427.98 453.86 C 434.70 453.21 438.05 460.75 442.76 463.56 C 456.73 463.30 456.46 445.72 467.12 440.92 C 470.05 443.35 468.84 445.93 464.97 445.24 C 469.57 449.53 478.90 454.27 485.18 449.28 C 496.31 448.59 482.88 428.61 476.40 436.42 C 474.28 439.26 471.23 440.36 467.87 439.63 C 472.62 430.79 474.88 419.63 480.69 412.76 C 495.16 412.45 481.30 408.20 479.90 402.05 C 455.91 395.96 429.26 398.83 404.47 399.45 C 344.46 390.13 277.77 386.49 225.87 350.92 C 238.59 353.59 250.56 359.00 263.16 362.10 C 244.53 349.47 220.26 344.70 201.86 330.88 C 222.98 336.31 242.11 348.12 263.10 354.15 C 242.61 338.87 217.17 330.08 197.91 312.84 C 227.55 323.62 253.06 344.30 283.10 354.14 C 261.19 336.26 233.12 323.79 216.15 300.67 C 246.25 317.69 272.53 342.47 305.15 355.04 C 286.32 338.05 260.62 323.73 249.69 299.18 C 275.10 317.34 295.53 343.55 325.01 356.13 C 317.78 342.54 301.42 333.96 297.88 318.25 C 310.32 325.39 318.58 341.17 330.91 350.10 C 371.04 383.49 427.03 378.95 475.39 374.33 C 488.60 368.07 504.22 369.46 518.38 371.74 C 539.56 374.10 560.61 364.77 582.01 367.97 C 602.93 364.37 627.19 369.37 645.00 355.02 C 650.45 351.15 658.04 353.83 663.05 349.05 C 690.95 338.28 721.09 335.14 750.97 332.22 C 762.74 335.95 772.69 309.10 783.35 321.73 C 790.18 319.74 794.57 310.06 802.29 312.66 C 806.09 314.55 800.43 320.64 805.77 320.77 C 809.57 313.70 816.24 305.57 824.99 305.96 C 825.41 312.77 823.02 319.30 822.93 326.09 C 832.50 318.49 832.19 302.40 842.85 294.87 C 844.75 292.86 848.48 290.36 850.78 293.10 C 849.78 304.71 842.41 315.58 843.14 327.07 C 860.35 315.12 860.75 289.81 877.87 279.09 C 878.00 294.39 866.19 309.56 862.88 325.11 C 882.81 313.78 887.71 288.46 905.30 275.28 M 464.22 453.57 C 459.94 455.09 449.70 470.23 458.72 466.77 C 460.46 458.30 473.86 465.87 477.28 457.98 C 473.78 454.88 468.27 455.93 464.22 453.57 M 469.97 465.36 C 468.35 469.94 476.63 464.10 469.97 465.36 M 712.31 473.20 C 709.24 477.16 716.79 482.25 719.87 485.35 C 718.59 481.08 716.66 473.51 712.31 473.20 M 704.99 476.75 C 708.17 484.61 712.10 480.35 704.99 476.75 Z" />
<path fill="#ffffff" opacity="1.00" d=" M 214.26 299.10 C 217.29 297.56 214.44 302.38 214.26 299.10 Z" />




</svg>
