<?xml version="1.0" encoding="UTF-8" ?>
<!DOCTYPE svg PUBLIC "-//W3C//DTD SVG 1.1//EN" "http://www.w3.org/Graphics/SVG/1.1/DTD/svg11.dtd">
<svg width="1225pt" height="647pt" viewBox="0 0 1225 647" version="1.1" xmlns="http://www.w3.org/2000/svg">

<path fill="#ffffff" opacity="1.00" d=" M 232.05 292.72 C 256.08 312.12 277.92 337.47 306.93 350.28 C 298.52 336.71 282.94 327.56 277.78 312.18 C 275.51 315.74 275.57 310.90 275.00 308.90 C 292.59 324.16 306.14 345.10 327.99 354.99 C 350.27 371.28 378.68 373.27 405.00 378.06 C 413.73 380.23 419.35 370.83 425.08 366.08 C 442.26 358.17 461.87 359.76 480.09 359.12 C 502.64 350.35 527.37 364.58 550.69 358.72 C 584.33 354.83 620.13 351.37 651.99 365.73 C 678.30 359.59 704.87 355.31 731.80 352.66 C 743.49 356.08 750.92 339.89 762.82 343.14 C 769.73 351.18 779.04 331.91 785.96 341.01 C 789.13 352.79 795.20 334.19 802.81 334.68 C 813.03 331.89 804.17 348.59 810.88 349.02 C 815.56 339.66 818.74 325.99 830.86 323.95 C 834.58 332.35 828.33 341.14 828.86 349.91 C 844.18 342.99 843.30 318.51 859.14 314.85 C 861.07 324.68 850.04 336.01 850.63 346.40 C 867.75 340.67 871.59 312.69 890.09 308.98 C 887.13 321.62 874.97 332.38 872.64 344.36 C 891.33 339.55 898.48 312.08 918.15 307.94 C 910.87 321.08 899.98 331.99 890.99 343.97 C 890.27 345.04 889.49 346.32 891.24 346.83 C 909.19 340.20 920.06 318.94 939.10 314.95 C 927.01 330.05 911.43 341.59 896.89 354.15 C 914.67 349.50 927.90 332.79 946.18 330.11 C 916.90 351.84 883.32 370.73 846.57 374.66 C 830.14 382.80 811.18 375.00 794.01 379.94 C 784.74 382.61 774.31 378.48 765.70 383.77 C 741.06 385.55 714.05 380.86 689.97 389.27 C 692.65 392.95 698.95 392.42 700.58 397.37 C 704.25 409.59 715.61 418.52 711.70 432.69 C 707.18 442.39 714.73 449.47 716.69 458.10 C 714.59 467.31 722.00 474.98 720.69 484.37 C 717.17 486.09 705.99 463.77 706.52 477.93 C 695.21 473.53 685.48 466.75 673.82 463.23 C 664.65 468.08 652.00 464.90 641.48 467.51 C 624.27 474.20 603.95 488.58 587.00 481.07 C 558.56 485.50 529.23 475.51 508.83 455.28 C 502.74 455.66 503.54 463.39 499.80 466.79 C 500.49 478.39 492.85 487.77 482.06 491.08 C 478.77 493.52 475.90 497.83 471.19 497.01 C 472.14 492.66 470.23 486.55 464.08 488.87 C 464.77 478.57 482.60 486.42 481.93 476.27 C 473.40 478.41 469.66 470.58 467.61 465.62 C 474.32 462.83 479.26 473.75 486.34 470.36 C 492.75 465.29 500.93 459.98 503.88 452.20 C 495.44 447.72 489.91 439.92 482.86 433.99 C 475.87 429.19 476.70 444.86 471.35 440.65 C 469.19 433.76 474.26 424.87 475.53 417.55 C 469.01 402.74 502.51 417.54 487.28 404.78 C 480.77 401.07 490.39 400.72 484.27 396.71 C 463.12 392.75 441.56 400.44 420.33 401.44 C 365.18 403.75 308.94 395.07 257.68 374.36 C 253.85 372.92 258.41 373.05 260.24 372.70 C 249.60 367.52 237.68 364.68 227.76 358.11 C 244.00 360.73 258.95 368.39 275.24 370.83 C 247.77 355.78 215.87 348.73 189.81 331.06 C 217.20 340.62 243.53 353.23 271.14 362.12 C 251.86 348.75 229.63 339.96 209.99 327.00 C 203.10 321.55 192.20 318.73 187.67 311.20 C 218.44 325.45 247.07 345.15 279.17 356.05 C 255.11 338.57 228.84 322.84 208.09 301.71 C 209.56 299.40 212.91 303.07 214.57 304.42 C 240.65 322.53 266.32 342.64 296.17 353.98 C 272.53 336.08 248.11 317.78 232.05 292.72 M 709.27 462.27 C 706.19 463.99 711.29 467.03 713.10 468.07 C 712.21 466.13 712.29 461.10 709.27 462.27 M 704.22 467.42 C 703.15 472.00 708.67 467.57 704.22 467.42 M 478.37 484.34 C 468.75 487.56 484.50 487.00 478.37 484.34 Z" />
<path fill="#ffffff" opacity="1.00" d=" M 206.26 299.10 C 209.29 297.56 206.44 302.38 206.26 299.10 Z" />
<path fill="#ffffff" opacity="1.00" d=" M 468.37 442.17 C 477.14 443.81 465.35 456.61 465.16 462.16 C 463.41 475.94 455.60 488.61 442.00 494.03 C 438.80 493.62 438.15 488.81 434.17 488.60 C 432.89 484.19 439.10 485.08 441.65 483.63 C 445.48 482.96 449.36 476.08 443.61 475.45 C 437.88 474.56 439.18 467.67 436.17 463.94 C 442.91 460.52 446.71 475.38 453.69 469.69 C 460.78 462.05 463.66 451.38 468.37 442.17 Z" />



</svg>
