<?xml version="1.0" encoding="UTF-8" ?>
<!DOCTYPE svg PUBLIC "-//W3C//DTD SVG 1.1//EN" "http://www.w3.org/Graphics/SVG/1.1/DTD/svg11.dtd">
<svg width="1225pt" height="647pt" viewBox="0 0 1225 647" version="1.1" xmlns="http://www.w3.org/2000/svg">

<path fill="#ffffff" opacity="1.00" d=" M 905.51 323.43 C 914.31 319.10 908.38 326.61 907.04 328.06 C 900.51 335.86 892.40 342.17 886.00 350.09 C 902.56 349.27 913.94 328.24 931.18 326.97 C 920.95 338.54 906.26 344.98 894.79 355.04 C 910.24 351.32 923.66 338.03 939.20 337.04 C 905.94 358.64 867.34 369.25 829.15 376.74 C 807.17 376.00 784.70 376.46 763.31 381.59 C 739.96 381.98 715.63 378.36 692.94 385.11 C 703.09 390.51 704.79 403.83 710.92 413.16 C 714.83 422.60 708.77 432.51 711.22 441.84 C 718.04 452.24 714.50 464.41 718.81 475.60 C 720.50 491.98 705.53 457.93 705.46 472.95 C 694.27 470.55 687.65 460.08 676.11 458.88 C 647.61 455.96 623.15 474.16 596.30 479.84 C 593.92 476.60 590.59 475.26 586.52 476.41 C 562.85 480.55 538.08 474.05 518.36 460.63 C 515.11 458.82 511.99 456.18 507.90 456.93 C 508.65 458.66 511.55 461.66 507.98 461.93 C 503.35 461.25 509.00 455.64 507.32 453.77 C 499.06 450.55 491.97 445.42 485.35 439.60 C 478.98 436.99 478.18 446.04 474.43 448.80 C 466.60 441.01 478.19 428.00 474.06 418.08 C 478.39 414.27 484.02 416.17 489.16 415.95 C 488.67 412.95 484.00 413.33 483.83 410.18 C 487.91 412.04 491.01 410.14 491.94 405.89 C 489.65 402.47 485.29 400.06 485.17 395.57 C 463.41 391.28 442.96 404.58 421.43 405.50 C 365.07 412.61 306.15 398.53 257.17 371.74 C 250.81 368.60 243.75 366.80 237.74 363.01 C 249.25 364.05 259.55 371.27 271.21 372.05 C 249.43 360.27 224.37 353.23 203.67 340.13 C 218.90 345.76 233.34 353.85 249.11 358.14 C 245.10 351.44 230.57 349.84 229.35 344.66 C 221.46 340.16 238.59 347.93 244.15 348.11 C 238.66 343.91 231.53 340.37 227.65 335.25 C 232.44 337.35 238.03 341.35 243.12 339.99 C 236.73 336.13 235.40 330.19 231.77 328.09 C 244.06 333.80 255.71 342.12 268.37 347.55 C 272.32 349.65 270.52 345.08 270.40 342.76 C 274.53 342.59 273.74 349.09 277.49 346.71 C 296.36 356.23 315.35 365.78 335.46 372.49 C 362.75 374.53 389.63 385.82 417.02 380.92 C 408.94 373.77 418.10 365.99 424.07 361.08 C 439.23 354.59 455.93 357.97 471.84 356.73 C 488.65 347.71 507.65 355.54 525.32 356.13 C 567.77 354.97 612.29 343.03 652.85 361.59 C 656.27 358.11 658.05 362.59 659.86 365.23 C 681.96 364.32 709.32 358.25 733.97 359.92 C 742.02 354.54 752.10 349.22 761.94 353.84 C 768.44 350.47 777.95 344.16 782.59 353.52 C 787.34 352.27 795.14 340.54 801.30 346.73 C 803.57 349.64 801.38 355.17 805.94 356.04 C 809.03 347.96 814.32 338.22 823.72 337.15 C 829.10 341.60 821.96 349.44 825.39 354.65 C 837.65 351.65 838.78 330.85 852.08 329.20 C 852.50 337.47 846.25 344.08 845.97 352.10 C 862.02 348.99 865.98 328.65 880.85 323.96 C 883.49 333.59 869.02 340.37 867.92 350.09 C 883.14 345.93 892.06 330.88 905.51 323.43 M 246.18 341.18 C 245.16 345.20 250.20 340.16 246.18 341.18 M 248.26 343.10 C 248.44 346.37 251.29 341.56 248.26 343.10 M 252.26 345.10 C 252.44 348.37 255.29 343.56 252.26 345.10 M 444.47 377.58 C 438.83 378.23 433.21 379.05 427.55 379.50 C 439.12 382.44 451.30 380.82 462.87 378.86 C 461.35 373.84 449.36 378.44 444.47 377.58 M 709.25 458.33 C 703.14 461.30 715.89 462.89 709.25 458.33 Z" />
<path fill="#ffffff" opacity="1.00" d=" M 210.45 325.15 C 214.09 322.94 211.40 328.85 210.45 325.15 Z" />
<path fill="#ffffff" opacity="1.00" d=" M 214.26 327.10 C 217.29 325.56 214.44 330.38 214.26 327.10 Z" />
<path fill="#ffffff" opacity="1.00" d=" M 204.26 331.10 C 207.29 329.56 204.44 334.38 204.26 331.10 Z" />
<path fill="#ffffff" opacity="1.00" d=" M 222.61 331.18 C 228.89 331.08 224.62 337.06 222.61 331.18 Z" />
<path fill="#ffffff" opacity="1.00" d=" M 207.87 332.86 C 213.35 334.36 217.76 338.34 223.29 339.79 C 225.55 340.73 232.11 343.83 222.47 341.53 C 217.42 339.10 211.92 336.86 207.87 332.86 Z" />
<path fill="#ffffff" opacity="1.00" d=" M 200.52 339.14 C 205.05 337.58 201.19 343.49 200.52 339.14 Z" />




<path fill="#ffffff" opacity="1.00" d=" M 471.15 448.91 C 479.81 450.95 468.93 463.25 469.78 468.89 C 466.15 476.27 478.17 473.43 481.57 477.43 C 493.13 483.27 498.58 467.54 505.86 461.89 C 509.36 466.60 503.26 471.63 502.36 476.19 C 504.53 491.65 488.27 498.63 477.88 505.94 C 472.31 506.95 477.97 493.30 468.16 497.88 C 468.68 487.34 483.55 493.96 486.09 485.14 C 480.30 483.65 473.56 485.42 473.18 477.71 C 461.79 474.74 470.37 490.82 461.97 494.96 C 456.70 497.06 453.86 502.33 449.07 505.02 C 446.41 502.03 440.90 501.19 439.93 497.19 C 444.00 494.96 450.21 494.82 451.73 489.67 C 453.61 484.43 444.05 486.39 444.37 481.36 C 444.58 478.84 441.12 475.99 443.20 474.07 C 449.34 473.99 453.10 485.20 459.20 479.19 C 464.80 469.94 467.04 458.92 471.15 448.91 M 482.25 492.44 C 471.29 495.40 487.08 497.36 482.25 492.44 Z" />


</svg>
