<?xml version="1.0" encoding="UTF-8" ?>
<!DOCTYPE svg PUBLIC "-//W3C//DTD SVG 1.1//EN" "http://www.w3.org/Graphics/SVG/1.1/DTD/svg11.dtd">
<svg width="1225pt" height="647pt" viewBox="0 0 1225 647" version="1.1" xmlns="http://www.w3.org/2000/svg">

<path fill="#ffffff" opacity="1.00" d=" M 887.19 306.33 C 888.14 306.50 889.07 306.77 889.98 307.14 C 886.36 317.00 878.57 324.76 874.15 334.14 C 873.06 336.48 875.01 336.25 876.63 335.61 C 887.64 328.17 895.95 317.56 906.08 309.09 C 907.44 308.07 910.99 305.74 910.85 308.96 C 905.24 320.48 892.88 326.90 886.75 337.96 C 898.90 332.18 907.95 320.55 921.12 316.96 C 909.13 330.66 892.42 338.86 877.03 348.02 C 863.19 355.35 846.69 355.14 833.42 363.49 C 818.54 367.19 802.76 361.85 788.00 366.57 C 774.81 364.57 763.17 373.41 750.04 370.19 C 731.03 372.55 711.47 370.08 692.86 375.82 C 682.30 379.23 700.74 383.53 700.54 390.56 C 703.43 401.06 714.43 408.45 710.33 420.59 C 705.60 433.11 715.65 443.28 714.50 455.61 C 717.42 462.09 718.78 469.07 717.95 476.23 C 714.63 472.66 707.75 460.73 704.84 467.78 C 693.27 463.78 684.21 454.49 672.05 452.14 C 657.32 456.37 641.21 455.10 627.91 463.80 C 617.33 466.21 602.78 477.48 594.06 470.26 C 573.41 473.78 551.82 472.74 531.89 466.11 C 525.42 464.00 519.41 459.77 512.34 460.11 C 503.90 471.44 510.36 488.04 497.09 496.13 C 490.06 498.91 480.00 514.17 478.29 498.73 C 479.52 509.73 467.59 514.54 461.73 521.69 C 459.05 518.62 451.88 519.26 452.12 513.39 C 457.00 512.01 465.80 509.58 462.31 502.80 C 452.50 504.06 457.70 495.77 451.98 492.05 C 458.18 486.94 463.52 501.77 469.03 495.02 C 474.24 488.49 470.03 479.20 474.50 472.42 C 476.70 469.26 474.16 462.80 479.92 463.79 C 473.18 454.87 478.75 441.55 474.98 431.19 C 480.60 428.04 488.23 429.18 493.26 424.33 C 493.20 417.63 489.87 410.02 483.00 406.97 C 477.75 404.33 487.49 405.92 485.60 401.38 C 470.66 406.62 453.88 406.96 439.86 415.80 C 378.72 432.79 313.37 423.33 253.09 406.89 C 249.07 405.35 252.63 404.83 255.23 404.72 C 233.78 398.99 207.53 391.24 196.04 373.89 C 203.14 373.85 209.33 377.13 215.91 379.14 C 215.32 378.05 214.68 376.99 214.09 375.91 C 246.13 386.63 278.54 396.45 311.67 403.32 C 335.40 405.58 359.51 404.37 383.35 405.40 C 400.51 400.20 419.08 399.82 435.18 391.50 C 433.29 390.79 429.43 391.08 429.91 388.11 C 442.38 383.89 455.68 385.02 468.43 382.48 C 463.69 380.81 455.14 382.79 452.06 379.95 C 454.70 375.05 482.84 380.84 467.68 375.23 C 463.01 374.53 467.56 364.30 459.98 368.10 C 444.06 368.65 428.28 371.87 412.31 370.88 C 406.95 363.96 412.90 355.55 421.33 353.30 C 437.92 347.60 457.18 357.07 472.53 348.54 C 486.89 344.75 501.23 350.82 515.58 351.54 C 536.16 351.07 556.96 346.73 577.72 347.50 C 602.07 343.84 628.84 345.09 650.69 357.10 C 650.17 349.72 655.03 355.18 657.40 358.78 C 685.34 353.19 715.75 349.92 745.01 350.99 C 754.46 352.41 764.53 342.71 772.96 349.77 C 777.34 346.67 784.19 338.02 789.67 343.35 C 797.61 358.55 795.60 333.77 805.31 332.26 C 814.10 330.35 810.84 342.16 814.12 347.11 C 824.27 342.82 822.31 328.37 829.92 321.92 C 841.40 317.22 830.78 337.93 834.09 342.03 C 847.01 337.30 848.47 321.35 857.90 312.91 C 859.48 311.38 863.93 311.74 862.64 314.67 C 861.51 322.93 855.57 329.81 854.96 338.10 C 870.26 333.40 873.36 313.43 887.19 306.33 M 486.46 405.15 C 487.39 408.86 490.09 402.94 486.46 405.15 M 488.20 451.49 C 479.74 455.33 475.16 476.19 487.43 478.55 C 498.14 480.13 503.35 466.81 507.93 459.10 C 501.33 456.66 495.12 452.72 488.20 451.49 M 569.37 458.14 C 568.71 462.13 573.34 457.33 569.37 458.14 M 509.10 462.26 C 507.56 465.29 512.37 462.44 509.10 462.26 M 705.14 462.37 C 704.33 466.34 709.13 461.71 705.14 462.37 M 480.43 484.37 C 474.87 484.55 478.10 495.57 482.99 490.99 C 491.27 488.72 492.84 480.11 480.43 484.37 M 486.36 493.37 C 478.88 497.68 492.54 494.59 486.36 493.37 Z" />







</svg>
