<?xml version="1.0" encoding="UTF-8" ?>
<!DOCTYPE svg PUBLIC "-//W3C//DTD SVG 1.1//EN" "http://www.w3.org/Graphics/SVG/1.1/DTD/svg11.dtd">
<svg width="1225pt" height="647pt" viewBox="0 0 1225 647" version="1.1" xmlns="http://www.w3.org/2000/svg">

<path fill="#ffffff" opacity="1.00" d=" M 881.19 297.36 C 882.07 297.49 882.94 297.70 883.81 298.00 C 880.73 309.52 872.51 318.88 868.87 330.07 C 882.90 324.68 889.16 307.74 901.94 300.02 C 905.26 297.66 904.85 301.03 903.88 302.86 C 897.91 313.59 888.41 321.78 881.95 332.16 C 892.48 326.30 900.72 317.15 911.16 311.14 C 912.32 310.53 914.99 309.49 914.82 311.78 C 895.70 330.03 873.09 345.85 846.99 351.88 C 837.23 351.61 832.18 362.65 821.88 360.10 C 803.51 359.49 785.26 361.58 767.30 365.28 C 740.02 370.75 710.38 365.17 684.12 376.17 C 685.62 382.05 695.48 382.30 697.31 388.78 C 701.09 400.28 712.99 408.33 709.12 422.03 C 704.50 434.23 716.45 443.58 714.60 455.37 C 716.26 461.23 723.15 472.69 717.25 475.99 C 714.96 469.96 709.37 466.57 705.21 461.95 C 708.88 473.67 694.07 462.84 689.86 460.11 C 682.21 458.07 673.87 449.39 666.00 454.44 C 649.81 454.85 634.40 458.59 620.06 466.15 C 601.64 476.75 581.07 469.90 560.97 471.98 C 542.09 472.86 526.13 461.32 508.09 458.90 C 500.20 464.39 507.34 476.11 499.17 481.20 C 493.02 490.29 476.56 491.28 477.91 503.87 C 473.25 509.30 468.20 517.31 461.29 518.94 C 459.62 514.18 452.16 519.10 453.03 512.17 C 460.85 511.44 470.38 499.54 456.80 499.21 C 457.72 496.54 449.80 489.04 455.90 489.03 C 460.76 490.61 465.52 499.64 470.27 493.28 C 470.25 483.82 477.26 474.10 473.51 464.25 C 481.79 460.31 474.10 451.52 476.02 445.09 C 478.31 439.24 469.62 430.87 479.24 428.47 C 488.58 430.82 496.07 422.04 488.95 413.99 C 486.31 411.60 480.39 413.03 482.88 408.17 C 464.13 413.28 445.37 419.16 427.11 426.14 C 356.41 440.29 281.68 438.48 212.89 416.09 C 209.72 413.74 198.63 414.92 201.27 410.67 C 197.91 408.46 184.41 405.04 194.24 404.70 C 186.11 404.81 179.06 391.21 193.53 397.50 C 205.24 404.21 219.32 401.11 231.53 406.26 C 295.62 424.93 370.93 433.31 429.75 396.83 C 428.79 395.71 426.89 395.04 427.19 393.29 C 437.62 387.21 450.25 389.04 461.41 385.44 C 458.12 383.82 449.00 386.61 448.06 382.13 C 455.44 378.81 464.19 380.80 472.09 379.03 C 475.83 375.08 454.22 375.88 463.98 371.56 C 447.50 362.46 425.34 373.57 407.06 368.04 C 401.72 359.44 414.03 351.01 422.06 349.11 C 439.31 343.91 458.02 354.19 474.44 346.42 C 495.44 346.22 515.90 353.48 536.98 349.56 C 573.36 348.92 613.96 337.91 647.70 355.98 C 647.42 346.01 654.31 360.95 659.50 356.38 C 688.02 349.09 717.64 348.65 746.63 346.44 C 753.90 348.54 758.72 337.19 766.51 341.51 C 772.01 347.78 774.55 335.65 780.38 335.27 C 788.54 330.26 787.31 344.22 792.31 343.32 C 792.91 335.46 795.57 324.61 804.76 323.13 C 810.38 327.33 806.21 337.07 811.83 340.94 C 821.66 334.32 817.25 320.65 824.88 312.89 C 836.85 308.53 825.73 330.97 831.01 335.88 C 843.23 328.88 843.30 312.92 852.27 303.27 C 861.34 299.58 854.41 313.72 853.93 317.98 C 853.99 322.59 848.76 327.78 851.11 331.99 C 865.73 324.80 867.46 305.16 881.19 297.36 M 486.33 451.26 C 481.49 453.27 481.14 461.95 481.93 465.98 C 489.40 473.17 497.52 463.38 501.70 458.17 C 497.38 455.03 491.88 450.89 486.33 451.26 M 568.43 458.13 C 568.50 463.11 573.52 456.45 568.43 458.13 M 482.31 473.23 C 478.69 473.82 477.68 483.37 482.74 479.84 C 489.55 478.53 489.94 472.12 482.31 473.23 Z" />



</svg>
