<?xml version="1.0" encoding="UTF-8" ?>
<!DOCTYPE svg PUBLIC "-//W3C//DTD SVG 1.1//EN" "http://www.w3.org/Graphics/SVG/1.1/DTD/svg11.dtd">
<svg width="1225pt" height="647pt" viewBox="0 0 1225 647" version="1.1" xmlns="http://www.w3.org/2000/svg">

<path fill="#ffffff" opacity="1.00" d=" M 881.18 297.29 C 883.72 297.33 884.45 298.81 882.90 300.84 C 880.18 311.16 868.90 319.62 869.06 329.99 C 882.78 321.77 889.60 304.08 904.20 298.23 C 899.28 310.91 887.08 319.26 880.77 331.05 C 892.75 324.31 901.33 312.21 914.30 307.11 C 905.19 321.93 887.69 329.57 874.38 340.27 C 858.72 348.55 841.05 351.62 825.33 359.33 C 793.30 358.38 762.67 367.43 730.31 368.35 C 713.01 368.39 694.76 369.36 678.93 377.19 C 686.75 383.61 696.80 387.87 698.89 399.11 C 709.56 407.09 707.30 422.03 707.08 433.97 C 708.23 440.86 716.74 446.41 713.61 453.80 C 716.63 460.98 719.65 468.24 719.93 476.17 C 714.89 473.72 701.15 454.97 706.79 470.05 C 694.48 465.46 683.23 457.21 670.42 454.59 C 661.53 458.28 651.04 458.84 641.69 457.63 C 623.79 462.01 607.09 477.99 588.00 472.00 C 562.03 476.86 535.08 470.35 512.15 457.90 C 508.00 455.82 503.43 454.74 499.02 453.40 C 495.28 456.30 499.25 462.36 495.42 465.41 C 488.19 471.45 479.93 475.83 472.69 481.73 C 469.83 486.70 476.36 494.60 470.25 498.23 C 462.90 501.39 458.50 512.55 449.81 506.29 C 441.46 500.04 456.64 502.43 458.82 496.64 C 461.66 490.67 455.03 490.77 451.78 489.22 C 450.72 485.69 449.18 482.39 447.91 478.95 C 455.00 477.16 458.05 490.49 464.62 485.63 C 471.25 479.81 461.81 468.89 470.68 465.60 C 476.88 459.69 462.18 446.84 472.53 448.42 C 473.52 440.09 470.51 431.07 472.72 423.75 C 475.97 420.36 496.07 424.20 487.15 414.83 C 484.07 410.02 477.19 422.40 479.64 412.88 C 461.05 419.59 441.45 423.77 423.01 431.04 C 366.47 443.96 307.01 444.99 250.90 430.16 C 226.04 420.62 195.36 416.68 177.70 395.17 C 196.93 405.33 218.13 410.18 237.89 419.09 C 279.24 436.58 326.20 436.45 369.23 426.93 C 359.81 422.39 378.95 423.38 382.31 421.84 C 373.52 418.44 390.27 419.07 393.02 416.03 C 404.34 410.91 415.42 407.18 425.73 399.46 C 424.74 398.67 423.73 397.92 422.78 397.10 C 432.85 390.83 444.90 390.49 456.26 388.68 C 453.09 386.05 445.51 388.63 445.15 384.20 C 452.25 379.56 461.89 381.47 470.04 379.93 C 473.93 375.84 449.33 377.16 460.83 372.68 C 445.17 363.20 423.62 376.13 406.01 372.01 C 395.98 374.34 403.32 368.30 400.59 364.62 C 409.83 351.70 428.57 349.27 444.01 350.96 C 461.02 353.70 476.79 344.75 494.00 348.98 C 517.24 355.52 540.96 347.73 564.36 347.44 C 580.70 348.55 597.11 343.62 613.39 347.62 C 624.15 349.36 635.92 348.43 644.67 356.13 C 644.11 349.00 649.50 353.32 651.35 356.88 C 675.82 353.52 699.92 345.67 725.01 348.03 C 734.35 349.95 742.66 343.05 751.89 345.87 C 757.96 343.04 765.53 336.45 771.34 343.43 C 775.05 341.64 778.08 335.93 783.12 335.06 C 790.84 331.23 787.64 343.90 793.66 343.02 C 793.90 335.31 797.46 327.19 805.00 324.03 C 811.83 325.73 808.76 334.87 811.23 339.99 C 824.31 336.45 816.60 314.27 830.78 313.03 C 834.30 320.00 827.81 328.67 831.16 336.06 C 843.52 328.45 844.14 311.41 855.15 303.26 C 863.05 308.53 847.78 323.67 851.28 330.81 C 865.05 324.44 868.39 305.43 881.18 297.29 M 481.31 445.16 C 474.34 449.13 483.00 459.29 488.08 453.10 C 495.10 449.65 485.76 444.01 481.31 445.16 M 475.94 458.94 C 473.72 473.92 491.54 456.45 475.94 458.94 M 567.15 459.45 C 564.94 463.09 570.85 460.39 567.15 459.45 Z" />



</svg>
