<?xml version="1.0" encoding="UTF-8" ?>
<!DOCTYPE svg PUBLIC "-//W3C//DTD SVG 1.1//EN" "http://www.w3.org/Graphics/SVG/1.1/DTD/svg11.dtd">
<svg width="1225pt" height="647pt" viewBox="0 0 1225 647" version="1.1" xmlns="http://www.w3.org/2000/svg">

<path fill="#ffffff" opacity="1.00" d=" M 885.24 306.45 C 887.34 305.75 886.50 308.57 886.49 309.77 C 882.21 318.43 874.47 325.03 870.73 333.97 C 884.57 328.84 892.10 313.34 906.26 309.13 C 902.87 320.12 890.38 324.68 884.94 334.19 C 894.24 330.18 901.96 323.32 911.31 319.37 C 912.09 318.43 913.50 321.00 912.39 321.28 C 899.27 332.32 882.78 337.81 868.14 346.16 C 853.06 351.44 837.38 354.31 823.14 361.24 C 805.65 360.58 788.35 362.95 770.99 364.95 C 740.99 373.24 706.22 363.96 678.15 378.12 C 693.22 389.23 708.78 406.51 706.55 427.36 C 705.20 434.97 708.87 441.74 713.09 447.82 C 711.72 457.95 720.19 465.96 719.87 476.16 C 716.62 479.31 703.03 454.75 704.95 469.88 C 690.65 467.01 677.58 452.17 662.90 458.44 C 651.59 462.77 641.10 454.92 630.79 461.79 C 620.33 466.74 609.47 470.77 598.57 474.57 C 581.36 471.48 563.49 476.74 546.37 471.75 C 528.90 469.82 515.24 457.15 499.01 452.00 C 491.23 447.05 495.78 458.29 490.20 459.27 C 481.59 465.66 465.06 469.78 468.32 483.68 C 471.39 493.44 459.24 493.36 455.05 499.08 C 451.40 502.30 444.40 499.75 442.07 496.14 C 446.31 493.47 456.75 493.17 454.36 485.70 C 447.23 483.93 445.57 477.90 443.17 471.76 C 450.95 470.70 453.87 482.44 461.25 479.31 C 466.94 473.38 460.66 465.30 463.46 459.60 C 474.18 457.49 466.74 446.03 463.91 439.98 C 473.47 444.09 469.96 429.73 469.73 424.28 C 466.67 417.72 476.89 418.78 478.10 413.84 C 430.63 429.89 380.96 444.68 330.05 443.17 C 281.86 444.24 230.23 437.67 187.91 412.24 C 195.83 409.72 179.78 408.81 184.13 401.97 C 192.92 404.47 200.49 409.98 209.14 412.90 C 218.43 412.94 230.23 420.37 241.08 423.98 C 279.56 440.47 325.49 439.94 363.22 427.44 C 352.08 424.66 384.73 424.37 373.73 421.48 C 389.46 419.08 402.91 410.88 416.75 404.79 C 418.29 401.73 425.03 402.09 421.29 398.03 C 431.27 390.79 443.99 391.52 455.37 388.45 C 452.19 387.22 444.60 388.69 443.04 385.05 C 448.94 378.76 462.70 382.51 468.92 378.99 C 466.51 376.57 446.58 375.62 459.04 372.63 C 440.65 362.77 416.67 376.50 396.56 370.28 C 395.07 368.49 400.81 366.47 397.67 363.64 C 413.13 346.14 440.20 351.50 461.52 351.50 C 478.58 342.78 497.25 352.24 514.99 351.97 C 542.15 348.85 569.46 348.12 596.68 346.31 C 612.56 349.71 630.44 346.92 643.90 357.00 C 641.68 346.25 650.43 359.71 654.94 356.91 C 681.17 350.17 708.44 347.99 735.54 348.48 C 743.61 342.13 754.15 349.01 761.65 341.67 C 765.39 339.03 769.98 339.90 773.18 342.90 C 778.15 341.31 782.15 333.16 788.69 335.23 C 792.96 336.06 790.91 343.67 795.63 342.99 C 796.44 335.20 800.35 326.44 808.93 324.94 C 815.22 327.85 810.05 336.76 813.14 342.06 C 823.46 337.18 821.98 323.93 829.26 317.24 C 842.03 312.06 828.95 333.19 833.65 337.56 C 847.03 332.36 847.27 311.42 861.37 309.62 C 861.32 317.67 854.66 325.75 852.94 334.11 C 867.19 330.31 871.44 311.37 885.24 306.45 M 484.16 413.18 C 477.14 419.46 492.64 417.24 484.16 413.18 M 479.24 440.10 C 476.82 441.98 474.12 446.88 479.13 446.94 C 486.25 448.19 485.82 439.92 479.24 440.10 M 473.00 450.95 C 471.26 465.26 485.69 449.39 473.00 450.95 M 702.14 461.37 C 701.33 465.34 706.13 460.71 702.14 461.37 Z" />




</svg>
