<?xml version="1.0" encoding="UTF-8" ?>
<!DOCTYPE svg PUBLIC "-//W3C//DTD SVG 1.1//EN" "http://www.w3.org/Graphics/SVG/1.1/DTD/svg11.dtd">
<svg width="1225pt" height="647pt" viewBox="0 0 1225 647" version="1.1" xmlns="http://www.w3.org/2000/svg">

<path fill="#ffffff" opacity="1.00" d=" M 885.37 303.38 C 886.91 302.82 890.19 302.18 888.86 304.88 C 884.26 315.36 875.42 323.55 870.88 334.08 C 886.25 329.97 893.22 309.84 909.10 306.90 C 902.12 318.08 891.59 326.36 882.97 336.22 C 895.72 332.25 904.67 318.97 918.17 316.99 C 890.93 342.70 854.45 352.76 820.13 363.65 C 791.70 359.88 764.33 370.60 736.05 370.15 C 715.81 370.86 694.37 369.72 675.69 379.00 C 683.30 386.16 693.82 389.11 696.28 400.70 C 708.30 409.16 704.32 425.23 706.20 437.81 C 713.59 449.24 715.02 462.85 719.29 475.71 C 720.14 476.86 719.34 477.49 718.24 477.84 C 713.31 472.03 707.73 466.85 701.92 461.95 C 703.48 465.42 705.06 468.88 706.74 472.30 C 694.29 467.22 682.26 459.99 669.49 457.42 C 663.00 462.36 653.84 459.57 646.16 461.81 C 636.04 454.24 625.45 466.46 615.45 468.51 C 599.40 478.81 581.27 473.17 563.51 474.66 C 535.46 476.21 514.66 456.02 490.22 447.03 C 483.75 457.86 463.54 457.55 463.60 472.47 C 468.09 486.39 449.69 493.39 439.33 490.66 C 432.34 482.83 453.53 489.69 449.99 478.27 C 442.98 476.45 439.89 470.64 438.95 463.90 C 446.38 463.34 448.30 474.36 455.76 472.86 C 459.99 468.13 462.87 460.21 458.14 454.84 C 458.41 448.65 468.75 453.11 467.78 444.79 C 469.90 451.75 479.87 444.94 471.89 443.14 C 464.72 446.40 463.81 437.76 460.76 433.30 C 458.09 428.91 464.53 432.42 466.79 432.62 C 468.64 427.83 472.55 416.52 463.14 419.16 C 432.13 427.61 401.31 437.60 369.33 442.74 C 324.54 447.98 278.78 450.26 233.96 441.05 C 216.66 434.20 193.43 433.06 185.85 414.17 C 199.40 415.41 183.05 410.11 181.67 405.13 C 194.90 410.44 207.17 418.10 220.87 422.24 C 218.94 419.51 218.96 417.86 222.62 419.48 C 253.82 433.74 288.46 444.40 322.91 438.11 C 321.06 432.54 338.05 435.74 343.22 433.50 C 347.35 428.36 355.71 430.81 361.45 428.47 C 340.60 426.43 380.90 425.25 369.90 422.45 C 375.50 418.50 385.43 421.44 389.05 415.06 C 399.94 415.47 404.67 406.79 415.05 405.80 C 415.92 401.88 422.73 403.11 420.29 398.06 C 430.21 392.01 442.00 391.13 453.25 389.69 C 449.42 387.19 443.79 388.84 440.72 385.12 C 448.88 379.92 458.86 381.24 467.99 379.81 C 466.29 374.25 453.57 379.29 451.97 373.23 C 461.66 375.32 455.60 371.19 453.80 369.06 C 434.64 366.51 414.01 372.69 394.62 369.38 C 389.26 367.98 399.72 365.18 395.44 363.59 C 391.99 360.97 399.98 359.67 401.60 357.61 C 421.42 342.44 447.86 356.38 469.46 348.50 C 482.16 346.35 494.60 350.49 507.01 352.61 C 548.51 349.43 590.61 344.21 631.87 351.10 C 635.51 351.46 645.02 361.72 642.19 352.83 C 646.96 352.73 648.26 360.35 653.79 357.61 C 678.40 351.78 703.65 348.29 729.00 350.20 C 738.60 352.23 746.03 340.76 755.87 345.44 C 761.74 342.35 769.73 335.03 775.39 342.70 C 780.25 338.91 784.69 332.55 791.83 333.98 C 793.46 337.17 793.83 340.83 795.25 344.12 C 799.16 336.89 800.73 323.51 811.72 323.14 C 816.31 328.15 812.35 335.95 815.01 341.91 C 827.18 336.02 821.89 313.97 836.94 312.98 C 837.02 321.55 834.34 329.73 832.87 338.08 C 849.42 333.67 847.01 307.59 864.10 306.00 C 861.30 315.97 856.18 325.25 852.96 335.11 C 867.62 329.66 872.44 311.51 885.37 303.38 M 476.32 435.31 C 471.96 444.02 486.22 436.21 476.32 435.31 Z" />
<path fill="#ffffff" opacity="1.00" d=" M 177.45 411.15 C 181.09 408.94 178.40 414.85 177.45 411.15 Z" />
<path fill="#ffffff" opacity="1.00" d=" M 217.45 417.15 C 221.09 414.94 218.40 420.85 217.45 417.15 Z" />

</svg>
