<?xml version="1.0" encoding="UTF-8" ?>
<!DOCTYPE svg PUBLIC "-//W3C//DTD SVG 1.1//EN" "http://www.w3.org/Graphics/SVG/1.1/DTD/svg11.dtd">
<svg width="1225pt" height="647pt" viewBox="0 0 1225 647" version="1.1" xmlns="http://www.w3.org/2000/svg">

<path fill="#ffffff" opacity="1.00" d=" M 887.30 305.30 C 888.00 305.21 889.41 305.02 890.11 304.93 C 886.92 316.66 876.00 325.02 871.88 336.11 C 886.56 330.17 894.25 311.77 908.41 306.58 C 904.58 318.48 890.34 325.95 884.00 337.23 C 895.84 331.40 904.29 319.57 917.35 316.12 C 904.84 330.50 886.94 339.03 871.15 349.18 C 856.45 355.86 839.95 357.18 825.91 364.96 C 803.03 366.30 779.38 364.18 757.36 371.30 C 729.83 373.42 699.72 367.55 673.97 380.13 C 678.95 386.67 689.47 387.40 692.11 395.94 C 694.53 404.10 704.55 407.53 703.97 417.05 C 705.45 426.05 702.18 436.72 708.76 444.18 C 711.65 447.87 713.49 452.21 712.22 456.88 C 715.89 463.84 718.61 471.20 718.94 479.17 C 714.34 474.37 709.68 469.56 704.11 465.85 C 708.70 475.99 698.14 470.57 693.81 468.30 C 684.66 463.07 673.10 456.83 663.10 461.61 C 655.05 462.11 645.50 465.00 638.81 459.38 C 619.91 464.43 602.46 480.16 582.01 475.13 C 566.03 476.54 549.87 474.74 534.44 470.49 C 517.06 463.04 502.93 450.28 486.03 442.05 C 477.90 446.53 469.81 452.29 461.12 456.16 C 459.93 462.52 457.86 469.01 458.24 475.29 C 451.01 479.95 440.79 484.60 432.06 481.81 C 430.73 476.83 437.23 478.54 440.39 477.39 C 443.94 476.97 447.39 470.74 442.76 469.20 C 436.28 467.22 435.17 460.62 433.94 454.90 C 441.85 455.01 443.49 466.95 451.78 465.79 C 453.99 461.90 459.33 455.12 456.23 450.80 C 450.01 446.06 458.34 440.02 463.74 443.92 C 459.54 435.56 474.26 444.10 470.78 437.22 C 462.62 439.82 458.94 429.75 456.31 424.02 C 459.37 421.95 461.78 425.48 464.74 425.98 C 465.54 423.80 468.71 418.60 464.14 419.14 C 424.67 428.64 385.49 441.35 345.03 447.06 C 298.04 449.74 248.62 456.83 203.10 439.74 C 193.47 440.30 188.90 430.54 179.23 429.70 C 170.15 423.77 189.67 430.85 190.49 428.47 C 182.84 422.88 173.76 419.92 165.73 415.05 C 175.59 415.71 184.38 421.64 194.22 422.96 C 189.42 417.17 180.36 415.52 175.95 408.80 C 191.81 414.72 206.64 423.96 223.33 427.79 C 220.93 423.46 214.92 422.83 211.87 418.88 C 246.94 434.53 285.06 447.14 324.01 440.12 C 332.09 438.49 318.43 438.82 315.76 436.29 C 323.90 434.76 332.24 434.95 340.44 433.86 C 339.66 427.68 369.86 430.37 350.72 427.72 C 356.24 424.72 362.87 425.14 368.92 424.05 C 363.53 417.38 388.90 421.74 384.08 415.89 C 394.93 415.48 401.97 408.26 412.04 406.02 C 420.98 397.72 430.43 390.46 444.67 390.69 C 458.81 389.62 442.95 388.34 438.72 385.80 C 446.21 379.44 456.95 381.14 465.98 379.81 C 463.66 374.79 453.87 377.04 448.72 373.88 C 454.00 371.39 457.42 372.94 451.80 368.11 C 431.96 365.84 410.16 372.26 390.00 367.77 C 390.70 364.75 395.33 363.47 391.99 360.12 C 412.18 346.69 437.31 349.68 460.43 351.32 C 474.35 344.21 490.07 350.12 504.47 352.42 C 528.06 353.11 551.20 346.41 574.82 348.74 C 593.64 344.54 612.42 350.59 631.01 352.01 C 634.85 352.09 643.94 362.82 641.21 353.82 C 651.77 363.23 665.88 353.91 678.46 353.48 C 696.78 349.95 715.47 350.89 733.97 351.98 C 741.10 352.28 746.67 346.22 753.96 347.13 C 762.60 351.13 770.22 338.65 778.91 345.94 C 784.74 340.15 796.96 334.54 797.38 346.75 C 802.88 344.18 802.10 331.49 811.02 330.02 C 822.22 324.88 810.93 353.13 821.47 341.46 C 827.18 335.87 827.64 326.88 833.20 321.21 C 834.89 319.45 839.42 317.35 839.63 321.27 C 838.46 327.93 836.25 334.42 834.96 341.07 C 848.55 335.75 850.59 319.49 861.42 311.30 C 869.21 307.33 864.42 313.63 863.96 315.98 C 861.50 323.56 856.21 330.16 854.82 338.04 C 869.34 331.00 874.13 313.67 887.30 305.30 M 454.26 367.10 C 454.44 370.37 457.29 365.56 454.26 367.10 M 701.37 463.14 C 700.71 467.13 705.34 462.33 701.37 463.14 Z" />


</svg>
