<?xml version="1.0" encoding="UTF-8" ?>
<!DOCTYPE svg PUBLIC "-//W3C//DTD SVG 1.1//EN" "http://www.w3.org/Graphics/SVG/1.1/DTD/svg11.dtd">
<svg width="1225pt" height="647pt" viewBox="0 0 1225 647" version="1.1" xmlns="http://www.w3.org/2000/svg">

<path fill="#ffffff" opacity="1.00" d=" M 871.23 304.39 C 874.99 313.45 862.55 325.46 860.96 336.10 C 870.18 333.50 873.82 322.04 880.79 315.77 C 883.22 313.21 888.40 306.50 891.65 311.27 C 886.60 320.79 879.27 328.84 874.01 338.21 C 882.99 333.44 889.10 323.71 899.20 321.16 C 901.10 320.21 899.62 323.49 899.04 324.07 C 879.39 344.05 855.84 362.06 827.34 366.36 C 821.13 372.24 812.77 371.27 805.01 372.00 C 788.32 373.86 770.73 373.08 754.54 378.53 C 729.53 379.59 703.71 374.17 679.16 381.11 C 677.08 382.12 669.70 383.60 675.00 385.96 C 686.36 388.84 688.32 401.03 695.37 408.50 C 703.89 421.13 693.87 437.51 704.82 449.20 C 704.06 459.82 712.55 468.24 711.94 479.10 C 706.03 477.17 703.07 469.21 696.95 466.86 C 696.77 469.41 697.86 471.75 698.82 474.05 C 687.72 471.60 679.95 462.45 668.64 462.37 C 662.96 456.47 658.96 465.54 653.38 462.69 C 646.28 464.08 637.55 464.89 631.92 460.06 C 612.86 465.78 594.99 482.14 573.94 476.19 C 553.13 476.04 528.94 475.23 512.76 460.21 C 498.63 451.09 488.71 437.16 476.43 426.16 C 472.95 434.47 461.96 434.42 455.31 439.30 C 452.95 441.10 444.87 442.32 448.49 437.53 C 448.83 432.44 440.59 433.64 436.75 433.64 C 434.49 446.37 416.73 439.27 407.99 439.03 C 401.22 429.40 430.07 438.52 420.96 428.05 C 413.44 424.90 416.13 416.59 412.21 410.68 C 422.17 413.48 421.80 429.90 433.86 426.91 C 439.73 422.54 455.43 416.70 446.83 407.94 C 454.38 412.23 460.37 407.28 460.04 398.94 C 416.98 401.49 374.65 415.02 331.00 411.96 C 288.74 411.50 244.89 412.04 205.03 395.93 C 193.66 388.91 177.75 386.75 168.22 378.45 C 178.77 375.58 164.97 374.72 162.88 370.09 C 159.63 364.08 168.98 368.90 172.02 369.15 C 170.51 365.39 167.27 363.14 163.99 361.09 C 172.96 358.10 180.74 367.33 189.71 366.88 C 193.67 365.07 184.36 363.58 189.93 364.03 C 205.92 368.29 221.06 375.64 236.60 381.44 C 269.28 392.82 304.70 400.01 339.02 393.14 C 358.97 394.86 378.15 387.95 398.00 388.19 C 415.21 389.33 431.25 381.99 448.23 380.70 C 444.76 379.35 441.18 378.32 437.76 376.88 C 444.66 371.80 454.03 373.84 462.02 372.88 C 460.01 367.84 449.15 371.73 446.90 366.29 C 453.76 369.04 450.08 361.13 453.61 361.07 C 433.44 359.40 411.34 361.38 390.63 358.36 C 384.85 356.82 392.93 354.44 391.96 350.73 C 417.45 334.77 447.49 350.29 474.67 343.33 C 515.79 357.70 558.75 344.97 600.85 348.23 C 614.07 351.07 628.87 350.67 639.57 360.23 C 637.35 352.20 644.58 356.54 646.35 361.86 C 670.64 359.57 694.99 353.55 719.47 357.49 C 733.44 363.09 741.62 346.27 755.42 349.26 C 762.11 340.72 773.10 349.86 778.78 339.84 C 783.21 335.34 789.26 339.64 789.50 345.08 C 792.71 338.23 793.99 328.76 802.08 326.03 C 811.12 325.86 801.79 343.38 809.26 343.58 C 816.85 337.09 814.08 324.21 820.35 316.34 C 821.72 313.88 825.54 313.63 826.40 316.64 C 827.42 324.33 825.38 332.22 824.98 339.99 C 838.79 334.89 834.74 312.87 847.78 307.42 C 854.23 314.89 841.80 328.00 845.10 336.97 C 857.52 329.88 857.53 309.66 871.23 304.39 M 479.01 358.06 C 481.26 363.80 489.11 355.47 479.01 358.06 M 457.21 412.61 C 454.72 412.60 452.15 414.06 452.95 416.92 C 458.92 414.58 468.73 421.84 471.11 413.09 C 466.50 412.53 461.84 412.23 457.21 412.61 M 450.12 416.89 C 449.44 421.01 447.13 425.81 441.99 425.34 C 445.57 429.19 454.79 429.89 459.77 426.78 C 467.34 422.03 452.81 420.51 450.12 416.89 M 440.28 430.24 C 439.95 435.20 445.46 428.08 440.28 430.24 M 698.87 457.93 C 700.64 465.11 705.58 459.51 698.87 457.93 M 694.22 463.49 C 693.93 468.54 699.35 463.62 694.22 463.49 Z" />






</svg>
