<?xml version="1.0" encoding="UTF-8" ?>
<!DOCTYPE svg PUBLIC "-//W3C//DTD SVG 1.1//EN" "http://www.w3.org/Graphics/SVG/1.1/DTD/svg11.dtd">
<svg width="1225pt" height="647pt" viewBox="0 0 1225 647" version="1.1" xmlns="http://www.w3.org/2000/svg">

<path fill="#ffffff" opacity="1.00" d=" M 186.14 305.13 C 203.84 305.88 219.55 313.94 234.87 322.16 C 265.64 337.08 297.78 352.04 332.87 351.22 C 355.79 358.11 379.58 356.38 403.05 359.91 C 418.40 361.84 434.03 363.75 449.46 361.43 C 452.81 360.80 455.14 358.42 455.74 355.08 C 436.28 352.31 415.95 352.95 397.13 346.78 C 398.22 336.39 410.82 335.54 419.01 334.03 C 437.48 331.04 454.86 343.58 473.13 338.34 C 487.96 339.12 501.06 347.45 515.66 349.40 C 557.12 349.99 602.20 337.49 640.58 358.97 C 641.98 351.27 646.82 361.61 649.07 363.00 C 659.34 358.22 671.21 363.36 682.56 359.50 C 699.91 355.29 719.69 365.97 734.70 353.75 C 744.13 356.18 749.33 344.91 758.78 348.59 C 763.39 344.08 769.57 339.69 775.95 343.75 C 778.54 338.31 780.59 329.79 787.92 329.97 C 793.82 332.08 789.19 344.76 795.77 344.89 C 801.39 337.47 795.41 324.76 803.95 318.91 C 814.74 314.66 805.38 336.58 811.08 339.98 C 823.45 335.45 815.18 310.43 830.94 309.98 C 831.60 318.88 827.19 328.64 829.09 336.96 C 841.13 330.49 837.33 307.10 852.95 305.96 C 851.92 316.42 846.27 325.73 844.87 336.06 C 856.45 330.58 857.77 311.28 871.07 308.95 C 869.97 319.46 860.85 327.12 858.77 337.04 C 865.29 330.87 871.77 324.19 879.32 319.32 C 884.51 317.31 880.13 323.03 878.69 324.72 C 868.01 337.63 855.49 349.38 842.18 359.25 C 826.42 362.20 813.64 373.23 797.62 373.52 C 786.15 372.44 775.72 378.09 764.33 378.50 C 736.57 386.01 705.46 372.90 678.00 384.49 C 688.96 386.37 687.29 399.57 694.24 405.68 C 702.30 419.19 692.31 436.36 702.63 449.38 C 699.57 458.56 709.83 468.44 705.91 477.61 C 701.68 474.19 698.32 467.45 692.97 464.88 C 697.03 476.74 682.53 466.39 677.34 463.61 C 661.80 452.44 646.35 464.26 629.03 459.11 C 613.28 466.16 597.41 474.39 580.11 476.99 C 565.38 470.35 546.98 476.72 531.96 469.09 C 508.45 462.57 495.55 439.22 476.26 426.67 C 478.56 430.83 478.71 436.52 473.85 438.84 C 465.89 442.96 458.15 448.85 449.20 450.08 C 452.06 444.32 447.24 441.07 441.81 442.89 C 445.22 432.75 456.16 438.74 462.88 433.76 C 464.58 427.73 454.08 431.06 452.51 427.62 C 452.89 424.18 450.97 421.86 448.05 421.03 C 447.22 426.21 436.39 430.08 435.50 438.58 C 427.04 442.85 415.99 441.45 407.08 438.67 C 404.91 428.06 429.02 438.92 421.74 428.28 C 412.92 425.19 419.46 415.88 413.17 410.66 C 423.75 411.96 421.57 430.04 433.89 426.98 C 441.57 423.84 446.14 416.06 453.10 411.91 C 454.76 416.17 448.96 415.60 449.09 418.66 C 457.57 417.49 461.75 430.87 469.92 425.00 C 481.20 425.80 471.25 416.11 469.70 411.04 C 464.37 410.74 459.11 411.79 453.80 411.65 C 456.93 404.74 462.88 399.35 465.05 391.99 C 465.73 387.95 475.88 389.44 470.31 384.67 C 441.39 373.89 405.79 383.68 373.98 383.01 C 318.56 379.11 259.39 370.78 213.22 337.76 C 204.66 329.31 194.79 322.65 184.99 315.72 C 195.08 312.66 181.55 311.11 186.14 305.13 M 486.26 355.10 C 486.44 358.37 489.29 353.56 486.26 355.10 M 695.29 455.25 C 692.37 457.11 698.61 461.98 701.04 463.18 C 699.41 460.57 699.38 454.24 695.29 455.25 Z" />


</svg>
