<?xml version="1.0" encoding="UTF-8" ?>
<!DOCTYPE svg PUBLIC "-//W3C//DTD SVG 1.1//EN" "http://www.w3.org/Graphics/SVG/1.1/DTD/svg11.dtd">
<svg width="1225pt" height="647pt" viewBox="0 0 1225 647" version="1.1" xmlns="http://www.w3.org/2000/svg">

<path fill="#ffffff" opacity="1.00" d=" M 580.41 328.49 C 605.83 324.46 630.31 332.74 654.20 339.83 C 663.03 344.81 671.24 351.54 679.86 355.92 C 686.82 348.60 694.35 362.03 702.88 356.87 C 719.39 359.70 735.90 364.88 752.85 366.19 C 772.69 372.21 789.83 384.51 808.90 392.14 C 829.28 387.36 850.90 394.58 871.05 392.95 C 880.36 395.16 873.07 402.56 868.58 405.58 C 854.45 419.32 835.36 403.58 818.81 407.69 C 779.17 399.30 738.52 388.97 698.13 388.08 C 689.23 407.40 700.52 428.57 699.68 449.03 C 695.03 444.24 698.86 431.55 690.96 426.59 C 687.05 431.37 693.63 436.98 693.84 442.30 C 689.18 439.81 683.73 432.46 687.05 443.71 C 676.79 442.66 671.68 432.31 661.50 431.57 C 648.15 433.62 633.17 436.30 621.52 444.62 C 606.48 453.59 588.78 459.97 571.15 456.29 C 547.84 459.89 523.11 454.36 504.80 439.20 C 502.70 437.01 492.89 434.91 496.53 438.52 C 493.35 446.03 484.53 450.53 486.82 459.86 C 482.03 471.24 468.78 475.87 458.26 480.08 C 459.18 474.95 459.25 469.31 452.09 469.96 C 453.93 460.70 464.38 466.94 469.94 461.82 C 471.63 454.56 456.67 461.61 459.12 451.80 C 453.42 445.93 448.53 457.71 449.61 462.62 C 443.40 466.05 436.53 468.58 430.21 471.54 C 427.16 470.13 419.65 467.43 423.37 463.41 C 428.13 463.02 435.55 463.24 436.87 457.17 C 430.08 454.01 429.94 447.31 427.89 440.92 C 435.89 439.55 436.25 454.82 444.04 451.08 C 451.47 445.20 453.40 434.97 458.97 427.68 C 462.73 430.26 462.29 431.76 458.41 432.26 C 462.80 437.36 447.97 448.82 461.12 447.86 C 474.15 462.08 487.08 443.66 495.52 435.03 C 491.61 430.20 483.41 429.82 480.11 423.86 C 476.66 418.40 468.80 419.44 465.41 424.40 C 456.58 430.57 462.41 415.81 463.72 410.76 C 468.05 406.82 462.13 399.36 467.95 396.94 C 473.02 395.27 478.87 397.41 483.90 394.92 C 481.43 390.91 478.44 387.23 476.27 383.05 C 480.25 378.84 473.49 376.65 471.89 373.06 C 469.20 367.68 463.19 373.70 459.00 371.39 C 440.62 373.42 422.25 378.11 403.87 379.82 C 393.92 385.07 382.12 389.60 371.06 388.88 C 366.15 385.82 361.35 391.93 356.20 392.13 C 359.38 388.79 355.74 387.18 352.28 386.65 C 325.76 387.54 298.59 385.38 273.46 376.56 C 270.70 371.27 257.01 367.81 264.49 361.34 C 321.79 359.11 379.60 363.19 436.37 353.26 C 443.88 349.93 454.58 356.44 460.22 349.07 C 441.12 345.96 421.20 350.00 401.94 346.86 C 409.84 322.36 440.76 335.00 459.68 335.47 C 481.21 324.22 502.45 344.08 524.46 338.67 C 542.98 334.53 561.80 332.15 580.41 328.49 M 480.36 346.20 C 476.64 349.03 485.20 348.43 487.23 348.98 C 485.65 346.95 483.00 345.28 480.36 346.20 M 493.26 439.10 C 493.44 442.37 496.29 437.56 493.26 439.10 M 467.35 466.27 C 464.76 465.52 457.90 468.96 463.34 469.67 C 465.75 471.81 471.29 465.15 467.35 466.27 Z" />



</svg>
