<?xml version="1.0" encoding="UTF-8" ?>
<!DOCTYPE svg PUBLIC "-//W3C//DTD SVG 1.1//EN" "http://www.w3.org/Graphics/SVG/1.1/DTD/svg11.dtd">
<svg width="1225pt" height="647pt" viewBox="0 0 1225 647" version="1.1" xmlns="http://www.w3.org/2000/svg">

<path fill="#ffffff" opacity="1.00" d=" M 392.18 83.05 C 398.42 83.15 408.50 96.94 408.09 86.06 C 424.91 96.13 439.85 109.40 453.85 123.13 C 458.74 127.20 450.39 115.18 455.74 117.31 C 467.43 127.92 474.90 141.73 482.97 155.02 C 499.33 181.15 530.75 192.74 545.85 219.00 C 541.68 226.77 554.73 238.06 557.95 226.94 C 562.13 211.95 572.62 200.81 581.21 188.20 C 582.95 178.00 581.97 167.33 580.97 157.02 C 580.20 146.65 570.31 140.14 569.40 129.64 C 568.82 124.34 561.04 117.75 566.96 113.85 C 566.63 109.19 560.73 102.47 568.88 102.57 C 566.39 97.78 570.22 89.80 574.59 96.41 C 580.90 102.52 572.32 86.16 578.69 89.32 C 582.93 92.22 588.64 101.04 591.22 93.10 C 608.12 102.31 617.09 123.61 635.96 130.34 C 633.39 128.78 634.67 127.62 636.96 126.98 C 649.06 137.60 657.17 151.98 661.54 167.40 C 667.41 183.74 688.24 188.66 693.54 205.62 C 697.68 219.55 689.11 233.17 677.80 240.81 C 662.84 254.86 655.37 274.90 648.91 293.92 C 640.32 308.65 661.15 305.67 669.99 306.36 C 682.29 306.18 682.60 322.23 691.27 327.72 C 698.35 333.92 693.96 343.68 695.72 351.33 C 702.05 357.23 701.01 365.72 704.26 372.94 C 701.67 370.69 699.11 368.32 695.99 366.85 C 695.62 371.04 698.75 374.29 700.13 378.01 C 697.12 376.52 694.44 374.19 691.00 373.78 C 692.90 376.88 696.22 379.58 694.94 383.80 C 689.03 386.12 683.22 383.18 677.44 382.12 C 670.18 398.64 653.76 408.99 644.25 424.23 C 618.07 454.82 574.51 458.13 537.19 461.14 C 536.29 477.97 527.05 493.54 529.82 510.65 C 522.36 517.99 515.04 524.21 505.67 528.67 C 498.42 532.49 507.24 515.93 500.98 519.92 C 490.79 520.74 495.73 535.66 485.81 536.81 C 485.93 541.40 482.79 544.83 478.44 545.23 C 480.40 540.21 473.85 541.64 470.65 540.72 C 465.89 532.88 484.35 533.97 479.98 524.30 C 472.49 526.81 473.05 518.84 470.03 515.01 C 472.88 509.14 481.63 522.97 485.05 516.04 C 487.86 498.00 490.25 479.29 486.42 461.32 C 489.32 455.39 478.66 448.85 485.19 444.22 C 491.50 443.99 506.26 428.99 491.66 430.30 C 486.80 426.99 499.61 427.93 495.84 421.61 C 492.89 406.74 472.67 410.86 460.95 411.00 C 447.99 412.18 439.51 426.92 426.27 427.94 C 421.79 422.48 428.39 415.67 433.68 413.68 C 450.19 407.75 466.20 400.31 480.93 390.76 C 476.25 384.54 488.29 384.87 488.58 378.50 C 504.25 365.77 522.51 356.39 539.21 345.13 C 523.80 347.29 500.74 348.85 494.42 330.61 C 488.72 322.58 499.14 313.10 491.40 306.65 C 486.08 300.98 487.82 292.42 483.87 286.07 C 473.74 277.30 473.27 261.78 461.01 255.01 C 444.07 242.59 449.36 219.01 445.93 201.01 C 452.18 177.75 433.26 160.07 422.19 141.79 C 411.16 124.58 391.21 110.38 388.36 89.14 C 397.06 91.65 389.26 85.85 392.18 83.05 M 525.48 460.57 C 520.57 461.66 515.49 462.44 510.49 461.38 C 499.38 458.78 492.09 472.08 493.15 482.06 C 495.50 493.95 489.40 508.80 494.97 518.98 C 497.63 510.66 511.01 515.83 514.09 507.21 C 508.89 506.77 501.43 507.75 502.20 499.86 C 493.56 495.79 505.73 494.75 509.13 498.83 C 522.33 509.96 526.35 484.99 529.41 477.31 C 531.03 471.59 537.62 456.98 525.48 460.57 M 511.04 515.30 C 509.08 515.47 501.79 519.77 507.23 518.64 C 510.06 519.80 515.56 514.12 511.04 515.30 Z" />
<path fill="#ffffff" opacity="1.00" d=" M 475.10 389.26 C 478.37 389.44 473.56 392.29 475.10 389.26 Z" />


</svg>
