<?xml version="1.0" encoding="UTF-8" ?>
<!DOCTYPE svg PUBLIC "-//W3C//DTD SVG 1.1//EN" "http://www.w3.org/Graphics/SVG/1.1/DTD/svg11.dtd">
<svg width="1225pt" height="647pt" viewBox="0 0 1225 647" version="1.1" xmlns="http://www.w3.org/2000/svg">

<path fill="#ffffff" opacity="1.00" d=" M 600.47 265.55 C 620.37 262.73 639.77 269.56 656.62 279.45 C 667.05 277.45 672.90 288.60 679.23 294.86 C 684.99 296.89 691.18 300.03 694.97 294.01 C 700.50 299.34 709.94 293.45 714.10 300.90 C 736.94 302.84 760.26 306.99 781.68 316.26 C 786.91 327.26 802.41 325.68 811.29 332.72 C 824.97 347.20 845.56 350.74 862.96 359.09 C 905.74 377.64 950.31 392.98 997.05 396.95 C 998.75 397.42 1005.23 397.44 1001.67 399.82 C 928.73 401.07 856.57 389.80 784.98 377.09 C 753.09 373.14 721.18 370.10 689.16 368.44 C 681.74 369.57 673.35 372.25 666.88 367.18 C 658.95 370.23 649.45 366.88 642.12 370.20 C 623.34 407.00 577.83 412.96 543.77 424.73 C 543.92 432.47 540.16 431.65 538.12 426.62 C 539.10 440.36 549.81 453.40 549.52 468.59 C 551.87 479.83 543.78 488.34 542.86 498.92 C 534.27 507.62 532.69 523.90 517.95 524.62 C 506.59 523.08 500.70 535.25 491.16 537.95 C 487.65 533.91 493.71 528.37 493.95 523.96 C 479.57 529.59 468.39 542.22 454.25 548.60 C 449.48 547.84 444.92 543.34 447.88 537.94 C 438.26 540.00 432.64 549.88 422.21 549.66 C 412.65 545.43 403.71 552.47 395.80 556.97 C 395.35 550.84 401.77 548.31 404.29 543.50 C 385.17 544.01 371.45 561.32 353.89 566.10 C 363.02 555.09 377.49 550.55 385.90 538.99 C 389.53 544.33 388.85 533.56 383.31 538.26 C 372.23 544.10 362.53 551.93 350.97 556.82 C 344.35 555.70 355.16 546.67 353.10 544.19 C 350.94 544.02 348.63 543.14 348.30 540.72 C 351.97 528.03 349.60 514.34 354.47 501.63 C 354.46 495.31 350.87 489.66 345.39 486.59 C 346.05 479.78 349.02 471.22 355.82 467.86 C 356.05 462.52 359.53 458.53 361.87 454.17 C 354.53 447.43 369.22 442.86 369.93 435.85 C 386.17 422.15 407.67 418.03 426.01 408.02 C 433.57 405.30 441.78 400.07 444.14 392.13 C 429.35 393.47 411.68 394.85 399.86 399.92 C 410.57 388.74 426.38 381.57 438.80 371.77 C 446.58 365.21 458.01 361.75 461.34 351.28 C 477.91 341.48 491.43 326.49 509.59 319.57 C 538.48 299.37 563.25 269.73 600.47 265.55 M 691.74 338.10 C 692.47 342.55 696.31 345.61 697.26 349.95 C 692.77 349.16 680.60 339.60 688.22 347.82 C 692.32 355.48 699.62 365.19 708.37 365.41 C 708.31 355.56 702.95 340.80 691.74 338.10 M 496.44 399.42 C 489.03 401.91 482.01 406.25 475.83 411.07 C 485.14 410.75 493.73 406.43 501.27 401.31 C 504.21 398.44 498.39 397.83 496.44 399.42 M 387.26 536.10 C 387.44 539.37 390.29 534.56 387.26 536.10 Z" />



<path fill="#ffffff" opacity="1.00" d=" M 392.18 557.18 C 396.20 556.16 391.16 561.20 392.18 557.18 Z" />
<path fill="#ffffff" opacity="1.00" d=" M 389.26 558.10 C 392.29 556.56 389.44 561.37 389.26 558.10 Z" />
<path fill="#ffffff" opacity="1.00" d=" M 347.10 571.26 C 350.37 571.44 345.56 574.29 347.10 571.26 Z" />
</svg>
