<?xml version="1.0" encoding="UTF-8" ?>
<!DOCTYPE svg PUBLIC "-//W3C//DTD SVG 1.1//EN" "http://www.w3.org/Graphics/SVG/1.1/DTD/svg11.dtd">
<svg width="1225pt" height="647pt" viewBox="0 0 1225 647" version="1.1" xmlns="http://www.w3.org/2000/svg">

<path fill="#ffffff" opacity="1.00" d=" M 640.46 223.41 C 647.80 221.01 653.77 226.99 660.83 227.33 C 663.95 228.19 669.12 228.19 667.44 232.71 C 685.59 245.38 700.10 261.99 717.83 275.16 C 742.26 286.21 753.62 312.37 766.84 333.11 C 776.60 351.83 785.83 371.00 797.59 388.50 C 799.65 400.21 785.31 392.74 781.42 388.54 C 761.51 358.13 718.24 366.93 692.79 344.24 C 688.17 339.34 683.21 344.73 680.47 347.96 C 683.55 352.38 688.88 360.30 680.14 356.11 C 683.28 367.85 667.86 361.58 660.96 362.94 C 654.70 372.44 641.23 373.69 637.30 385.31 C 617.26 420.09 573.78 427.38 538.05 435.28 C 538.55 450.57 539.53 465.97 544.48 480.53 C 544.04 492.85 535.12 498.97 527.88 506.91 C 523.71 510.83 521.45 501.51 523.18 499.21 C 527.13 496.54 531.15 493.92 531.85 488.62 C 524.76 496.57 511.10 501.65 514.36 514.29 C 506.13 513.82 511.82 525.43 503.66 526.07 C 504.22 518.22 495.78 524.32 492.78 518.99 C 495.76 515.29 503.54 511.54 500.30 505.81 C 494.50 506.42 493.75 500.75 490.01 498.15 C 493.76 492.57 507.01 502.42 503.97 490.98 C 501.05 468.78 497.95 445.22 485.01 426.89 C 485.15 420.52 493.27 418.27 495.46 412.40 C 496.45 405.41 487.59 402.12 484.19 399.23 C 493.04 398.82 484.89 393.27 481.33 390.55 C 483.99 382.32 475.38 377.64 468.75 377.24 C 451.77 376.24 449.85 397.16 444.85 408.85 C 435.76 431.12 425.81 453.11 415.49 474.79 C 414.34 478.18 409.48 484.40 412.04 477.08 C 415.55 468.90 419.96 460.66 420.99 451.75 C 415.08 463.41 410.24 475.69 404.03 487.14 C 403.21 479.79 410.42 472.73 408.95 464.76 C 406.19 468.77 405.91 475.23 400.96 477.17 C 402.39 470.21 406.61 463.91 406.97 456.74 C 402.35 463.49 398.82 475.91 394.03 479.79 C 396.79 447.60 412.93 418.37 421.91 387.67 C 415.32 389.61 413.73 407.78 413.87 391.87 C 407.10 395.67 400.01 398.89 392.84 401.87 C 388.66 403.55 388.75 397.32 390.25 395.19 C 397.72 389.19 405.55 383.79 410.99 375.80 C 408.57 385.31 414.15 377.63 418.34 374.62 C 426.04 375.65 431.02 352.61 422.51 367.50 C 420.00 365.19 428.02 357.72 427.35 353.58 C 422.40 352.58 419.17 369.57 416.11 362.44 C 413.14 365.13 411.13 368.76 407.88 371.16 C 413.90 357.45 416.73 342.02 428.20 331.18 C 431.54 327.10 434.89 322.50 435.95 317.31 C 422.35 311.65 440.28 297.26 447.04 293.05 C 463.36 286.71 471.85 272.16 482.50 259.49 C 495.79 248.04 511.62 265.74 521.59 274.36 C 526.91 287.48 541.79 282.09 552.77 280.39 C 571.68 278.13 581.85 259.39 599.27 253.20 C 611.71 250.29 612.47 237.03 624.57 233.60 C 622.64 223.84 635.60 228.77 640.46 223.41 M 472.51 331.41 C 468.04 336.09 466.57 342.86 465.98 349.10 C 472.74 347.71 477.50 341.36 483.81 338.69 C 483.95 334.39 476.11 330.88 472.51 331.41 M 523.51 435.66 C 516.21 439.03 504.68 434.08 502.75 444.70 C 501.61 462.45 509.78 478.08 511.93 494.07 C 517.93 496.24 526.85 489.85 529.13 483.97 C 525.65 483.70 522.60 485.83 519.21 485.98 C 516.43 484.45 517.89 477.90 511.90 480.67 C 513.45 472.11 525.05 480.91 530.28 477.32 C 536.15 471.05 533.40 461.47 534.41 453.81 C 535.52 446.78 535.64 429.80 523.51 435.66 M 422.10 447.26 C 420.56 450.29 425.37 447.44 422.10 447.26 M 409.61 461.09 C 406.96 465.82 414.18 462.50 409.61 461.09 M 503.30 511.29 C 501.05 512.01 499.47 513.85 499.12 516.19 C 500.05 519.29 507.08 512.15 503.30 511.29 Z" />

<path fill="#ffffff" opacity="1.00" d=" M 416.39 366.44 C 419.24 369.93 411.11 369.08 416.39 366.44 Z" />
<path fill="#ffffff" opacity="1.00" d=" M 412.16 372.11 C 415.52 374.22 408.64 374.42 412.16 372.11 Z" />
<path fill="#ffffff" opacity="1.00" d=" M 418.26 372.10 C 421.29 370.56 418.44 375.37 418.26 372.10 Z" />
<path fill="#ffffff" opacity="1.00" d=" M 412.54 400.49 C 414.43 399.26 409.20 410.69 410.04 405.09 C 409.86 403.15 411.44 401.84 412.54 400.49 Z" />



<path fill="#ffffff" opacity="1.00" d=" M 400.10 481.26 C 403.37 481.44 398.56 484.29 400.10 481.26 Z" />
<path fill="#ffffff" opacity="1.00" d=" M 410.20 482.25 C 413.93 484.94 406.51 485.02 410.20 482.25 Z" />

</svg>
