<?xml version="1.0" encoding="UTF-8" ?>
<!DOCTYPE svg PUBLIC "-//W3C//DTD SVG 1.1//EN" "http://www.w3.org/Graphics/SVG/1.1/DTD/svg11.dtd">
<svg width="1225pt" height="647pt" viewBox="0 0 1225 647" version="1.1" xmlns="http://www.w3.org/2000/svg">

<path fill="#ffffff" opacity="1.00" d=" M 773.21 261.63 C 800.01 263.83 826.36 270.66 853.32 268.71 C 860.65 275.69 869.40 273.25 877.66 270.26 C 883.90 271.08 889.28 274.99 895.16 277.04 C 888.19 280.24 899.78 286.53 901.18 279.82 C 913.41 280.79 904.62 293.31 900.10 298.27 C 895.39 299.87 897.14 306.98 902.17 304.27 C 898.81 317.15 886.80 322.76 874.26 324.16 C 860.32 333.03 843.49 330.93 827.96 328.08 C 811.45 331.06 795.58 325.33 779.31 323.59 C 753.23 320.02 726.79 321.30 700.78 315.66 C 691.68 313.58 682.43 311.81 673.06 312.00 C 676.82 319.74 671.42 330.25 678.81 336.15 C 683.31 339.23 683.64 348.09 684.42 350.56 C 674.56 345.30 679.81 355.02 684.00 360.16 C 679.82 358.30 675.82 356.02 671.62 354.22 C 674.76 357.38 678.88 360.70 678.70 365.61 C 668.73 370.64 655.32 362.09 646.40 371.42 C 640.07 380.96 625.26 371.53 620.15 382.07 C 611.85 397.55 596.21 406.95 581.32 415.05 C 567.71 416.92 557.68 429.04 543.09 426.14 C 536.74 430.99 535.73 432.14 529.82 438.88 C 527.26 460.29 529.47 482.58 531.71 503.81 C 528.60 509.86 531.95 524.81 521.44 521.23 C 520.75 525.80 517.81 529.50 514.13 532.15 C 504.55 521.39 523.69 515.29 520.88 504.89 C 513.59 509.81 511.55 521.10 502.34 523.29 C 501.24 515.71 508.94 514.27 511.06 509.23 C 506.19 511.10 503.75 503.35 499.84 508.98 C 499.98 497.13 515.41 505.18 518.47 495.54 C 526.49 474.27 525.67 450.56 520.76 429.05 C 510.06 430.12 501.39 438.19 490.05 437.01 C 477.09 453.03 486.46 475.83 486.94 495.01 C 490.32 506.22 494.90 520.09 490.90 530.86 C 483.21 523.34 489.19 537.77 483.00 540.25 C 474.27 534.66 484.70 524.05 481.83 517.06 C 475.52 519.75 478.75 531.30 472.36 534.97 C 467.26 529.33 474.91 526.37 476.74 521.69 C 480.12 515.17 463.44 516.35 469.80 509.87 C 475.68 510.87 478.10 506.08 479.39 501.37 C 481.36 479.43 477.73 457.43 472.62 436.24 C 460.12 424.68 481.60 416.83 481.83 405.30 C 475.21 399.52 463.35 401.72 455.69 404.71 C 445.57 411.55 434.24 403.14 424.02 408.94 C 415.79 409.64 406.56 412.68 399.02 408.41 C 391.19 410.69 379.98 409.05 374.92 403.97 C 391.12 387.21 416.66 377.89 432.98 361.23 C 412.70 357.91 396.65 375.85 377.36 379.43 C 346.01 391.25 313.55 378.70 282.09 374.74 C 283.18 370.89 290.54 373.06 294.23 371.75 C 287.91 367.59 278.95 369.96 271.84 367.05 C 265.28 365.59 283.34 365.15 276.06 363.94 C 263.98 364.27 257.25 353.62 246.22 350.99 C 251.34 342.72 232.71 348.80 232.77 340.09 C 222.31 337.09 210.72 331.81 199.83 329.24 C 258.55 315.93 319.15 323.10 378.86 319.77 C 407.31 313.76 436.38 311.92 464.96 307.00 C 485.47 305.45 501.83 288.02 523.05 291.77 C 525.31 292.59 535.01 292.37 530.35 288.08 C 545.27 286.03 556.76 274.31 571.89 271.80 C 591.11 265.67 613.27 268.50 629.99 280.03 C 640.35 289.48 656.14 287.09 667.14 280.17 C 686.15 278.51 704.51 273.63 723.68 272.44 C 741.31 273.81 756.27 263.51 773.21 261.63 Z" />
</svg>
