<?xml version="1.0" encoding="UTF-8" ?>
<!DOCTYPE svg PUBLIC "-//W3C//DTD SVG 1.1//EN" "http://www.w3.org/Graphics/SVG/1.1/DTD/svg11.dtd">
<svg width="1225pt" height="647pt" viewBox="0 0 1225 647" version="1.1" xmlns="http://www.w3.org/2000/svg">

<path fill="#ffffff" opacity="1.00" d=" M 595.45 257.63 C 611.63 257.24 627.40 263.18 639.88 273.14 C 645.72 275.15 647.52 284.43 655.30 281.42 C 666.35 283.85 667.98 299.57 681.29 297.39 C 686.65 292.82 694.09 299.19 700.63 298.26 C 704.43 305.93 713.75 300.88 720.03 304.94 C 724.63 307.84 730.00 305.58 734.93 305.15 C 745.24 314.61 763.60 311.95 772.61 324.42 C 794.97 334.14 813.15 351.03 835.84 360.12 C 860.87 371.02 885.24 383.44 910.69 393.32 C 926.32 402.42 947.26 399.47 960.15 413.09 C 872.62 411.46 789.12 382.22 703.15 371.83 C 695.22 363.43 695.46 349.18 684.90 343.04 C 677.37 340.26 685.04 349.79 686.20 352.94 C 682.65 351.44 679.75 348.55 675.91 347.80 C 680.24 353.91 683.61 360.47 687.26 366.98 C 679.67 369.09 673.52 361.96 665.96 364.74 C 658.57 368.17 650.21 358.09 644.33 365.30 C 638.70 367.71 631.66 366.69 625.70 367.79 C 615.92 383.36 600.79 394.86 584.84 403.75 C 570.06 407.01 559.04 420.74 543.11 419.07 C 535.92 420.13 536.79 429.79 543.17 431.82 C 553.15 441.96 558.47 458.44 554.40 472.38 C 547.15 482.44 553.02 496.23 545.17 506.14 C 539.78 514.77 538.27 525.50 531.05 533.04 C 523.01 539.98 525.12 522.20 516.29 522.74 C 499.76 519.53 489.35 538.68 476.90 546.89 C 469.30 553.59 477.65 540.29 476.06 537.01 C 474.22 527.44 461.71 545.72 460.76 536.95 C 452.77 547.62 461.83 525.18 452.21 525.90 C 448.11 532.38 434.65 532.36 428.10 539.53 C 424.27 532.84 416.19 530.21 408.80 534.67 C 403.34 535.89 406.06 526.72 405.78 523.23 C 390.13 524.56 377.11 537.65 361.47 537.88 C 367.42 530.84 376.64 523.39 384.99 518.80 C 387.11 518.46 385.64 513.91 383.58 515.53 C 370.42 521.22 358.11 528.80 344.43 533.30 C 331.69 536.17 344.70 525.12 342.91 519.57 C 328.55 519.58 340.20 503.87 335.01 495.97 C 329.32 487.77 335.46 477.79 339.58 470.33 C 333.49 463.49 328.32 454.38 326.98 445.12 C 332.98 437.14 344.71 427.89 338.43 416.91 C 342.95 401.61 359.25 394.00 373.16 389.15 C 376.81 387.32 374.80 383.22 376.42 380.47 C 392.79 371.62 408.22 361.13 424.91 352.88 C 427.57 350.34 436.95 348.75 432.19 343.97 C 454.15 334.93 471.87 317.58 494.71 310.72 C 523.18 296.25 542.62 267.59 575.04 260.96 C 581.67 259.00 588.56 258.11 595.45 257.63 M 344.10 520.26 C 342.56 523.29 347.37 520.44 344.10 520.26 M 517.43 521.13 C 517.50 526.10 522.52 519.45 517.43 521.13 Z" />


</svg>
