<?xml version="1.0" encoding="UTF-8" ?>
<!DOCTYPE svg PUBLIC "-//W3C//DTD SVG 1.1//EN" "http://www.w3.org/Graphics/SVG/1.1/DTD/svg11.dtd">
<svg width="1225pt" height="647pt" viewBox="0 0 1225 647" version="1.1" xmlns="http://www.w3.org/2000/svg">

<path fill="#ffffff" opacity="1.00" d=" M 522.34 182.31 C 534.93 187.24 548.89 179.34 560.66 187.39 C 563.26 197.96 564.71 208.86 567.63 219.40 C 589.97 224.55 610.87 211.52 633.05 211.04 C 646.35 206.32 660.91 205.97 674.86 207.05 C 681.60 212.81 681.08 224.34 676.29 231.30 C 670.84 241.73 656.44 243.21 653.70 255.65 C 654.43 265.17 646.13 271.11 640.97 277.88 C 652.75 285.72 665.74 290.58 677.20 297.76 C 678.53 310.02 692.45 318.66 687.70 331.62 C 685.77 343.81 693.44 354.83 692.65 367.36 C 690.13 363.87 688.70 359.39 685.13 356.83 C 682.41 360.26 685.92 364.33 686.14 368.08 C 683.31 366.58 681.11 364.26 679.04 361.88 C 679.91 366.63 685.02 377.74 675.34 373.66 C 667.34 369.39 656.56 365.81 649.65 373.62 C 634.87 373.28 631.85 390.41 620.60 396.59 C 603.23 406.57 584.70 417.20 564.16 417.38 C 557.53 417.04 551.75 422.70 544.88 420.14 C 536.00 415.72 530.32 423.55 524.21 428.35 C 521.78 449.63 520.61 471.20 522.43 492.40 C 517.33 497.25 520.63 514.82 511.02 508.92 C 507.28 510.45 505.65 520.25 500.84 518.36 C 495.62 507.87 510.11 503.73 511.10 493.92 C 503.76 495.23 501.32 504.73 494.73 507.73 C 486.92 512.26 493.64 498.20 499.33 499.18 C 500.07 494.56 486.62 492.03 496.30 488.28 C 512.83 492.35 515.57 471.37 516.46 459.51 C 522.13 445.36 515.50 430.82 517.89 416.20 C 509.35 414.90 500.91 415.66 492.41 416.41 C 487.85 416.83 479.78 412.44 477.79 418.85 C 467.03 430.56 471.47 448.10 469.50 462.66 C 468.05 477.62 473.27 493.51 468.99 507.91 C 460.16 498.75 466.52 515.86 458.29 514.87 C 450.83 509.80 462.17 503.14 460.51 496.56 C 462.81 487.23 456.72 492.61 455.85 496.87 C 449.05 493.72 443.32 484.14 455.93 483.93 C 465.51 471.05 463.49 453.48 465.39 438.16 C 465.39 424.95 465.32 411.71 462.11 399.27 C 469.66 395.55 475.54 389.76 482.15 384.26 C 477.44 381.55 468.60 382.93 466.98 377.14 C 472.03 376.76 477.79 376.46 477.68 370.15 C 469.33 364.70 468.48 354.83 464.00 346.92 C 453.80 346.03 443.70 342.20 433.37 343.38 C 421.12 347.09 409.34 353.36 396.32 353.90 C 390.54 349.57 395.36 342.29 401.41 341.40 C 424.25 337.89 447.37 334.61 469.36 327.29 C 465.16 325.76 451.07 332.93 452.62 326.58 C 476.93 323.20 500.69 313.40 522.06 302.15 C 499.79 298.83 504.66 273.04 491.90 260.15 C 483.43 248.96 467.84 257.65 458.62 248.38 C 455.70 245.05 453.38 241.14 449.84 238.42 C 442.97 240.77 435.98 246.06 428.45 242.71 C 407.64 241.73 386.16 251.94 365.22 245.66 C 350.71 240.98 362.43 224.80 373.63 226.53 C 396.14 221.34 416.43 209.75 439.14 205.16 C 463.64 188.81 492.96 181.68 522.34 182.31 M 542.30 403.26 C 534.60 408.60 550.33 405.08 542.30 403.26 Z" />

<path fill="#ffffff" opacity="1.00" d=" M 452.40 500.43 C 456.03 498.35 453.01 511.04 448.69 507.32 C 446.07 504.34 449.72 501.52 452.40 500.43 Z" />
</svg>
