<?xml version="1.0" encoding="UTF-8" ?>
<!DOCTYPE svg PUBLIC "-//W3C//DTD SVG 1.1//EN" "http://www.w3.org/Graphics/SVG/1.1/DTD/svg11.dtd">
<svg width="1225pt" height="647pt" viewBox="0 0 1225 647" version="1.1" xmlns="http://www.w3.org/2000/svg">

<path fill="#ffffff" opacity="1.00" d=" M 746.31 129.29 C 752.16 136.52 760.45 127.53 767.48 132.35 C 777.89 133.85 777.71 146.79 783.42 153.64 C 793.86 168.21 782.18 186.86 790.47 201.47 C 795.44 215.46 782.23 226.28 771.79 232.76 C 765.56 244.67 767.42 261.87 755.62 270.52 C 743.13 283.14 724.69 279.77 708.43 282.45 C 691.47 281.91 675.47 289.53 662.12 299.26 C 662.87 308.80 674.32 312.68 681.45 317.51 C 684.44 328.70 693.60 336.34 694.41 348.20 C 689.71 368.02 703.31 384.54 702.97 404.15 C 698.73 399.37 686.11 387.02 690.79 400.18 C 679.70 395.19 668.72 388.06 656.38 387.39 C 648.90 393.83 637.39 385.31 631.30 395.30 C 619.02 407.55 602.69 414.51 586.01 418.17 C 576.56 421.00 569.28 429.71 558.30 427.33 C 550.68 432.91 543.18 441.64 546.08 451.96 C 549.29 465.83 545.96 480.91 553.21 493.74 C 559.05 502.17 551.11 511.35 552.38 520.37 C 543.25 516.74 545.87 530.22 539.29 529.83 C 533.37 526.13 537.59 519.38 542.76 517.68 C 541.52 514.71 546.23 505.57 540.92 508.84 C 538.07 515.58 525.71 509.52 527.10 503.27 C 531.69 501.10 539.10 502.72 541.83 497.87 C 546.45 477.62 547.34 460.89 539.71 442.32 C 538.11 436.40 537.89 430.22 538.93 424.19 C 523.68 421.51 508.58 426.93 493.60 425.57 C 477.49 440.75 488.85 465.63 487.50 484.77 C 490.15 495.16 494.51 506.20 493.83 516.95 C 485.93 514.27 488.27 518.43 486.83 523.82 C 473.40 534.43 490.19 493.38 478.15 507.19 C 471.77 508.72 466.55 499.14 475.20 497.15 C 486.40 472.48 480.93 444.11 476.11 418.86 C 472.36 415.78 472.28 410.29 476.78 407.88 C 483.57 406.02 485.66 397.68 492.84 395.83 C 485.91 391.68 487.91 380.60 478.77 380.02 C 475.90 375.85 491.77 380.68 486.33 375.69 C 486.38 370.60 477.93 367.66 481.90 361.84 C 475.40 359.78 474.71 353.17 472.28 347.69 C 465.45 349.59 462.71 343.38 457.39 341.51 C 441.60 342.58 426.76 353.33 410.69 352.37 C 402.87 349.03 406.23 337.01 414.11 336.14 C 428.00 333.10 442.37 332.74 456.40 330.47 C 461.40 330.66 459.75 323.45 464.65 322.65 C 482.74 321.33 502.29 320.92 518.34 311.36 C 507.26 310.80 496.15 307.37 487.10 300.87 C 473.58 287.76 452.71 288.83 436.04 280.94 C 415.13 263.23 388.67 260.19 366.61 244.42 C 357.45 245.60 356.56 239.02 360.98 232.97 C 358.57 227.92 358.36 223.10 365.14 224.15 C 382.82 212.14 397.33 232.37 404.20 246.87 C 424.80 248.06 444.97 254.80 463.35 264.61 C 478.47 261.09 493.37 268.70 508.00 272.03 C 523.04 280.82 542.42 273.80 556.70 285.33 C 561.54 283.20 563.62 273.05 571.53 272.53 C 573.09 265.36 574.38 257.08 582.05 254.02 C 581.69 245.34 586.92 235.29 596.42 234.56 C 611.13 237.74 621.36 225.60 631.34 217.38 C 639.52 217.31 643.93 209.27 651.75 208.43 C 660.83 202.28 673.33 198.14 675.79 185.86 C 677.12 176.18 688.96 177.48 692.16 169.17 C 696.51 167.90 701.20 166.60 701.08 161.02 C 710.97 162.30 704.88 152.94 709.30 149.09 C 714.05 148.19 718.63 149.62 723.16 150.78 C 722.67 146.42 720.14 142.57 719.91 138.19 C 726.48 138.80 733.18 139.56 739.67 137.79 C 737.78 132.45 742.37 130.22 746.31 129.29 M 468.38 336.27 C 460.25 341.23 486.56 333.90 468.38 336.27 M 692.17 382.20 C 689.30 387.36 699.48 392.69 699.38 398.89 C 701.68 394.62 695.79 384.80 692.17 382.20 M 685.92 386.81 C 687.45 394.20 692.05 391.42 685.92 386.81 M 483.10 445.26 C 481.56 448.29 486.37 445.44 483.10 445.26 Z" />
<path fill="#ffffff" opacity="1.00" d=" M 313.79 197.05 C 319.55 197.38 323.96 201.93 329.28 203.84 C 323.52 207.63 318.53 198.87 313.79 197.05 Z" />




<path fill="#ffffff" opacity="1.00" d=" M 474.14 513.92 C 480.51 518.83 467.94 520.58 474.14 513.92 Z" />
<path fill="#ffffff" opacity="1.00" d=" M 530.32 515.13 C 540.00 512.09 533.59 521.71 529.24 520.93 C 526.74 519.43 528.31 516.26 530.32 515.13 Z" />
</svg>
