<?xml version="1.0" encoding="UTF-8" ?>
<!DOCTYPE svg PUBLIC "-//W3C//DTD SVG 1.1//EN" "http://www.w3.org/Graphics/SVG/1.1/DTD/svg11.dtd">
<svg width="1225pt" height="647pt" viewBox="0 0 1225 647" version="1.1" xmlns="http://www.w3.org/2000/svg">

<path fill="#ffffff" opacity="1.00" d=" M 617.43 263.40 C 633.88 259.09 646.31 276.72 662.28 274.27 C 668.27 269.96 675.97 271.11 682.64 272.59 C 691.86 263.64 705.14 272.78 716.05 268.02 C 726.49 273.12 736.42 265.06 746.88 269.14 C 752.17 271.56 757.12 266.47 762.44 267.48 C 774.59 271.52 785.76 260.75 797.97 264.05 C 805.91 269.11 816.28 264.49 823.96 270.06 C 830.90 274.85 842.03 267.93 846.82 276.19 C 851.14 280.75 855.47 274.19 860.00 275.93 C 867.63 281.07 880.62 275.31 883.26 286.63 C 891.64 287.05 899.43 281.01 907.79 283.07 C 908.50 288.33 904.36 291.27 901.83 295.11 C 910.25 295.44 918.83 290.74 926.99 292.99 C 925.39 295.99 923.08 298.52 921.32 301.41 C 915.68 311.19 939.70 305.94 927.85 309.84 C 933.21 308.76 931.28 312.83 929.52 316.53 C 919.24 322.99 912.75 333.96 902.99 341.04 C 886.66 340.04 875.03 353.54 858.29 349.75 C 837.77 343.45 816.16 343.62 795.86 336.21 C 778.83 332.66 761.17 331.17 744.30 328.74 C 723.46 325.14 703.38 316.25 681.93 316.89 C 688.18 325.98 692.10 335.69 698.35 344.51 C 699.77 352.45 697.18 360.63 697.46 368.66 C 704.40 381.20 706.17 395.20 707.98 409.34 C 702.38 402.43 695.77 396.49 689.83 389.86 C 691.66 394.12 695.15 397.74 695.00 402.72 C 681.06 398.97 667.72 385.89 653.20 391.62 C 644.09 390.75 632.69 385.02 625.94 393.87 C 616.63 403.97 600.68 403.99 591.10 413.10 C 585.37 426.99 566.73 423.62 561.15 437.10 C 553.23 447.98 559.69 461.88 562.05 473.75 C 563.52 490.32 577.36 503.41 572.38 520.86 C 573.60 526.49 568.76 526.31 564.29 526.01 C 567.91 530.73 558.34 541.51 556.87 532.04 C 555.00 525.52 564.59 522.34 562.55 514.64 C 561.49 509.13 557.49 517.78 554.82 518.76 C 551.18 516.94 546.41 515.32 545.05 511.13 C 550.56 506.53 561.35 508.86 560.02 497.97 C 560.72 479.65 558.89 462.85 550.14 446.91 C 547.45 439.42 546.73 430.94 549.76 423.49 C 544.50 422.63 546.44 419.54 550.13 417.96 C 534.23 417.52 520.53 426.33 505.00 426.95 C 497.45 435.23 495.59 448.57 499.75 459.30 C 501.46 481.55 511.81 500.52 515.95 521.94 C 516.10 526.67 507.16 519.97 508.48 524.49 C 508.92 526.63 509.97 534.47 505.29 532.86 C 498.81 526.52 508.37 513.79 500.72 507.88 C 500.66 515.05 491.06 517.66 491.16 509.28 C 497.79 505.23 496.09 498.12 497.44 491.56 C 499.26 464.55 491.87 438.93 483.07 415.09 C 487.45 408.64 506.25 398.29 493.96 390.95 C 492.17 383.79 493.99 375.54 482.99 375.10 C 480.86 373.09 492.92 374.30 489.28 368.93 C 481.30 364.77 487.86 352.86 476.77 353.80 C 462.02 363.79 445.00 368.32 428.38 374.46 C 415.85 381.93 402.35 387.61 389.55 394.59 C 371.44 393.04 352.73 398.77 335.27 391.59 C 321.92 387.42 309.91 379.64 301.73 368.28 C 288.95 364.02 284.03 350.49 271.97 344.92 C 271.87 335.17 256.48 334.93 251.36 328.11 C 252.99 324.61 250.78 322.40 247.77 320.91 C 261.02 311.93 274.21 301.39 290.94 299.85 C 302.75 292.17 317.42 299.19 330.15 295.33 C 359.80 295.56 389.41 300.55 419.14 297.93 C 412.53 295.79 420.47 291.18 422.21 288.28 C 449.54 293.20 476.84 300.84 504.83 299.72 C 520.28 294.82 535.95 286.61 552.68 290.68 C 567.60 282.63 583.65 276.44 600.65 274.62 C 607.48 273.05 610.39 265.10 617.43 263.40 M 697.30 387.23 C 694.06 389.22 700.94 392.74 702.15 395.10 C 701.49 392.39 699.93 387.40 697.30 387.23 Z" />

<path fill="#ffffff" opacity="1.00" d=" M 496.20 520.26 C 499.21 520.14 498.66 527.08 495.22 525.93 C 493.16 524.51 493.38 520.53 496.20 520.26 Z" />
<path fill="#ffffff" opacity="1.00" d=" M 552.27 520.29 C 556.29 521.97 551.27 528.21 547.86 529.11 C 546.26 524.99 548.71 521.55 552.27 520.29 Z" />
</svg>
