<?xml version="1.0" encoding="UTF-8" ?>
<!DOCTYPE svg PUBLIC "-//W3C//DTD SVG 1.1//EN" "http://www.w3.org/Graphics/SVG/1.1/DTD/svg11.dtd">
<svg width="1225pt" height="647pt" viewBox="0 0 1225 647" version="1.1" xmlns="http://www.w3.org/2000/svg">

<path fill="#ffffff" opacity="1.00" d=" M 602.46 271.55 C 621.74 268.89 644.04 272.27 657.67 287.30 C 664.28 291.24 668.40 302.92 676.66 298.17 C 680.07 307.33 683.68 301.59 689.31 301.50 C 694.06 307.86 702.93 309.07 710.05 307.90 C 724.60 312.36 739.26 323.03 754.28 320.77 C 761.26 326.26 769.98 328.22 777.86 331.99 C 773.96 336.11 785.21 337.58 787.47 336.41 C 791.58 350.60 809.98 348.36 818.12 358.92 C 825.59 370.01 840.61 368.92 851.33 374.91 C 870.06 383.78 891.34 382.99 909.18 393.78 C 916.37 397.10 924.63 395.93 932.28 397.28 C 929.07 399.91 921.14 396.36 921.98 401.86 C 927.68 402.34 934.33 400.80 939.40 404.32 C 938.54 409.77 944.65 408.78 947.38 411.78 C 931.31 413.83 915.77 407.23 900.14 404.79 C 881.04 401.73 864.18 388.35 844.73 388.21 C 813.92 370.09 780.31 354.76 744.15 353.75 C 731.09 346.15 715.04 349.79 701.15 344.98 C 701.45 355.82 697.09 367.84 704.90 377.09 C 704.10 387.97 711.08 397.25 710.99 408.12 C 706.29 406.20 695.46 388.69 697.64 401.98 C 685.67 397.16 674.64 389.93 662.16 387.14 C 651.06 394.61 635.43 378.83 626.16 391.15 C 616.86 400.70 597.20 399.28 594.23 414.30 C 586.68 426.51 569.21 428.53 565.63 443.78 C 557.86 453.70 570.67 466.59 567.97 475.85 C 573.87 476.70 566.61 482.13 571.30 481.85 C 576.80 498.65 586.62 513.68 582.77 532.03 C 573.86 526.11 577.09 539.39 571.90 542.76 C 560.88 536.71 576.01 523.15 572.01 516.01 C 565.85 520.17 566.02 531.63 559.15 536.18 C 554.99 530.97 559.31 527.13 563.02 524.27 C 560.63 522.32 557.88 520.95 555.11 519.65 C 554.72 513.16 564.51 514.97 567.25 510.25 C 571.74 497.45 566.87 483.74 564.37 471.21 C 567.96 467.16 559.12 465.65 562.30 461.81 C 554.93 453.79 550.75 439.51 554.54 428.31 C 546.27 425.49 561.23 420.75 558.12 414.03 C 540.18 414.13 529.41 429.50 512.88 432.86 C 503.21 451.32 514.96 471.52 518.75 490.19 C 525.13 502.54 528.28 516.04 532.90 529.12 C 535.30 535.72 524.65 527.74 526.33 533.42 C 527.77 536.45 525.73 544.37 521.32 540.74 C 516.65 534.26 524.23 521.04 516.18 515.88 C 514.19 518.62 517.61 528.29 510.34 524.84 C 505.30 521.87 509.24 516.16 512.58 513.56 C 512.15 490.03 510.76 463.46 497.80 443.22 C 492.98 449.86 486.23 458.53 477.55 462.59 C 466.93 474.60 450.78 480.14 435.07 479.95 C 424.88 478.47 416.19 470.47 405.58 471.32 C 393.14 465.58 375.20 473.53 365.37 463.64 C 357.25 459.16 339.78 468.64 338.34 456.98 C 349.93 454.33 329.83 457.62 325.58 453.45 C 317.23 447.87 305.44 452.49 295.83 450.94 C 303.08 445.91 297.89 444.13 291.02 444.92 C 293.03 439.67 296.31 435.10 299.83 430.77 C 302.77 428.03 297.64 424.19 300.37 421.44 C 313.92 415.00 316.20 398.94 316.26 385.34 C 323.68 379.70 337.04 379.49 340.89 369.82 C 363.07 355.72 390.26 357.48 415.12 353.10 C 428.92 347.76 441.92 340.65 456.03 336.06 C 461.61 335.06 460.81 327.35 466.08 326.07 C 481.97 322.74 496.29 315.47 510.00 307.02 C 526.59 299.91 543.12 292.68 559.77 285.72 C 572.53 277.44 587.46 273.25 602.46 271.55 M 698.84 385.97 C 699.15 392.66 705.46 387.71 698.84 385.97 Z" />

<path fill="#ffffff" opacity="1.00" d=" M 943.30 400.13 C 946.90 399.66 950.74 399.70 954.14 401.15 C 952.60 404.53 937.97 405.12 943.30 400.13 Z" />
<path fill="#ffffff" opacity="1.00" d=" M 952.03 409.96 C 960.74 408.93 953.24 415.66 952.03 409.96 Z" />
<path fill="#ffffff" opacity="1.00" d=" M 220.04 463.06 C 233.81 459.84 223.71 468.44 220.04 463.06 Z" />
<path fill="#ffffff" opacity="1.00" d=" M 513.27 527.31 C 517.36 528.28 515.33 535.90 511.05 536.03 C 509.01 533.03 508.65 527.14 513.27 527.31 Z" />
</svg>
