<?xml version="1.0" encoding="UTF-8" ?>
<!DOCTYPE svg PUBLIC "-//W3C//DTD SVG 1.1//EN" "http://www.w3.org/Graphics/SVG/1.1/DTD/svg11.dtd">
<svg width="1225pt" height="647pt" viewBox="0 0 1225 647" version="1.1" xmlns="http://www.w3.org/2000/svg">

<path fill="#ffffff" opacity="1.00" d=" M 611.21 273.65 C 628.96 273.58 649.74 275.43 662.76 289.08 C 669.74 290.08 674.70 284.76 681.42 290.67 C 690.50 295.74 685.30 282.72 692.58 287.25 C 702.57 282.53 713.91 291.39 724.02 285.06 C 725.90 275.25 736.45 289.31 742.87 284.15 C 777.30 292.08 791.28 329.46 820.82 346.16 C 836.28 361.29 851.84 376.47 866.81 392.17 C 887.42 409.40 910.54 423.38 930.89 440.90 C 924.99 448.58 942.24 451.68 941.31 458.14 C 935.07 456.95 935.27 464.30 930.34 463.74 C 916.49 459.27 898.92 465.17 889.57 451.28 C 875.98 455.69 869.71 442.63 858.51 438.57 C 835.44 424.68 804.72 420.05 788.72 395.23 C 782.89 397.25 785.27 412.84 774.37 410.56 C 767.21 414.20 761.27 401.16 755.85 406.94 C 746.44 415.06 738.91 396.66 731.59 405.63 C 723.80 410.73 716.58 399.63 710.18 402.76 C 706.77 398.40 703.53 392.62 697.93 390.88 C 698.35 395.52 700.58 399.69 701.98 404.06 C 693.76 406.16 690.86 393.75 683.48 398.38 C 674.09 403.40 667.70 388.32 659.52 394.54 C 646.35 401.55 643.30 380.29 631.87 389.98 C 620.69 402.24 598.39 399.40 591.16 415.21 C 586.06 426.72 570.08 424.47 564.86 435.49 C 560.25 433.87 563.92 438.84 562.18 441.13 C 555.84 448.44 562.53 458.13 564.83 466.06 C 569.49 478.54 571.37 492.37 579.92 503.08 C 579.84 511.87 582.41 521.21 580.96 529.83 C 572.06 521.44 575.61 537.20 570.10 539.84 C 559.23 532.34 574.94 521.42 569.81 512.12 C 563.71 515.69 564.95 530.15 557.18 532.93 C 553.70 527.73 557.58 524.18 561.29 521.03 C 558.92 519.61 555.93 516.78 553.71 519.93 C 551.46 508.92 569.58 512.73 566.02 500.97 C 569.39 488.70 559.33 476.52 561.61 464.96 C 553.56 454.91 546.54 439.15 550.75 425.47 C 542.41 423.30 553.89 420.65 553.95 415.80 C 539.82 421.19 534.96 437.97 520.24 443.37 C 514.48 479.62 541.26 509.60 546.04 543.82 C 536.61 539.33 542.63 551.45 537.91 554.99 C 526.84 549.35 536.67 534.46 530.99 527.05 C 524.50 532.30 533.23 544.35 525.25 549.01 C 521.00 545.50 522.58 541.17 524.88 537.08 C 521.15 532.25 519.06 549.35 519.98 535.00 C 533.72 505.56 514.93 471.96 504.94 445.11 C 492.39 460.96 489.46 486.94 471.89 499.04 C 470.03 483.22 487.00 470.93 482.88 455.07 C 460.20 477.60 447.42 509.65 424.23 532.22 C 421.11 534.64 418.48 532.10 420.98 528.97 C 433.15 506.53 448.31 485.88 460.33 463.36 C 461.23 461.42 461.90 457.32 458.94 460.02 C 435.25 485.44 414.75 513.73 392.31 540.29 C 389.75 543.44 385.53 548.49 381.37 544.60 C 399.03 516.09 424.47 491.98 439.07 461.89 C 411.80 485.55 393.19 517.68 366.09 541.27 C 363.29 531.36 373.34 526.09 377.79 518.77 C 393.30 500.18 408.54 481.29 422.28 461.30 C 424.48 458.51 420.35 460.74 419.76 461.81 C 400.24 480.49 384.14 503.25 364.41 521.28 C 366.45 516.26 356.74 522.51 359.11 516.15 C 360.38 512.97 371.60 499.60 361.81 500.57 C 361.47 493.12 372.39 486.57 363.92 480.92 C 369.91 469.51 370.31 456.06 373.90 443.96 C 380.54 436.27 377.48 425.97 383.89 417.87 C 381.40 419.34 378.65 420.19 375.76 419.60 C 390.32 400.79 407.76 384.25 425.38 368.36 C 428.72 360.43 418.96 366.55 415.04 366.94 C 408.64 362.65 411.12 355.19 415.84 349.85 C 431.44 338.93 454.48 340.91 467.20 326.16 C 480.49 317.92 486.99 300.00 501.56 294.45 C 512.12 294.89 522.12 295.17 533.14 296.66 C 559.22 289.50 583.49 274.48 611.21 273.65 M 700.33 381.32 C 700.19 386.80 705.92 380.57 700.33 381.32 M 418.47 445.40 C 412.01 450.71 406.39 457.15 401.99 464.25 C 408.15 459.62 417.13 450.23 418.47 445.40 M 932.14 458.36 C 931.33 462.34 936.12 457.72 932.14 458.36 M 565.26 477.10 C 565.44 480.37 568.29 475.56 565.26 477.10 Z" />




<path fill="#ffffff" opacity="1.00" d=" M 365.26 542.10 C 368.29 540.56 365.44 545.37 365.26 542.10 Z" />
</svg>
