<?xml version="1.0" encoding="UTF-8" ?>
<!DOCTYPE svg PUBLIC "-//W3C//DTD SVG 1.1//EN" "http://www.w3.org/Graphics/SVG/1.1/DTD/svg11.dtd">
<svg width="1225pt" height="647pt" viewBox="0 0 1225 647" version="1.1" xmlns="http://www.w3.org/2000/svg">

<path fill="#ffffff" opacity="1.00" d=" M 252.48 136.55 C 255.45 135.19 258.82 135.90 260.37 138.66 C 269.16 151.97 280.29 163.53 291.14 175.01 C 289.73 170.01 284.08 164.65 285.14 160.01 C 302.11 181.47 316.05 207.88 341.89 219.78 C 347.18 218.16 353.18 217.19 357.51 221.43 C 379.98 234.70 399.09 254.26 424.17 262.71 C 444.61 266.35 463.35 275.69 483.02 281.95 C 505.42 283.15 526.27 292.70 548.46 295.48 C 559.86 294.99 569.82 300.92 580.12 304.75 C 592.40 302.70 601.48 293.36 609.54 284.53 C 619.56 276.27 634.45 286.82 643.59 276.59 C 655.28 277.04 658.75 262.39 671.38 263.46 C 676.33 253.08 689.31 256.63 696.68 249.72 C 700.76 246.72 705.95 248.44 710.31 247.31 C 714.77 241.37 722.71 241.29 729.45 240.51 C 733.61 235.20 740.43 234.46 746.68 233.69 C 753.59 225.71 763.60 216.48 774.40 220.41 C 781.38 210.47 792.92 221.43 799.46 212.31 C 808.51 213.83 813.83 212.23 817.39 203.24 C 824.54 204.81 830.99 204.49 837.87 202.05 C 847.08 210.40 851.10 194.82 860.01 194.19 C 863.99 195.32 867.62 197.89 869.23 201.81 C 874.77 200.77 878.29 191.82 884.61 196.40 C 891.93 198.27 888.25 211.05 897.10 204.95 C 902.20 206.21 909.27 210.26 907.02 216.92 C 901.37 224.51 917.62 229.02 913.27 237.29 C 906.13 254.04 892.21 267.40 877.03 277.04 C 875.80 289.16 861.14 292.55 851.24 294.67 C 812.83 295.71 778.89 319.49 740.32 317.39 C 723.45 318.34 705.56 315.67 690.11 324.13 C 675.71 327.36 693.25 340.47 699.99 344.00 C 704.24 352.79 708.11 361.46 712.64 370.15 C 712.81 382.88 708.45 395.85 716.77 407.10 C 712.36 416.05 722.47 425.31 720.01 435.04 C 716.70 440.44 708.30 419.32 707.80 430.97 C 697.42 423.61 686.64 417.22 674.52 413.35 C 670.10 409.64 665.80 415.98 661.19 414.11 C 656.26 413.00 651.24 411.84 646.28 411.23 C 628.47 428.88 602.31 429.54 578.91 431.40 C 565.29 433.58 551.67 432.60 538.19 430.05 C 532.91 447.18 539.90 463.85 535.91 480.98 C 535.99 484.73 532.09 488.93 528.95 485.12 C 528.38 489.69 525.87 496.97 520.35 495.92 C 513.65 485.88 525.61 479.39 526.87 469.70 C 520.36 475.22 517.93 486.96 508.27 489.17 C 509.09 484.62 510.91 480.08 512.71 476.28 C 511.04 468.58 503.32 485.07 505.75 475.80 C 505.86 465.97 516.10 468.24 521.59 463.58 C 525.92 453.25 529.67 442.47 531.52 431.36 C 533.37 425.49 523.41 425.75 519.95 425.10 C 510.49 426.03 497.66 415.18 491.59 427.59 C 485.64 451.48 483.14 476.37 486.78 500.87 C 486.81 506.10 482.49 507.31 480.36 502.91 C 480.93 507.45 478.46 511.46 475.80 514.89 C 470.01 513.95 472.06 500.81 465.89 507.96 C 455.10 505.05 475.22 493.24 465.67 491.40 C 459.27 493.95 460.49 486.82 463.74 483.75 C 476.25 481.31 476.63 464.72 479.31 454.39 C 482.63 437.05 484.05 418.63 482.70 401.72 C 488.95 398.35 496.20 396.03 501.89 390.82 C 499.51 385.93 490.64 386.40 488.80 381.18 C 491.65 380.01 496.72 383.90 498.90 380.67 C 503.00 373.38 488.10 372.34 493.32 365.72 C 488.98 359.27 481.59 357.74 473.35 359.67 C 469.38 359.80 470.14 357.32 471.79 354.81 C 451.20 360.85 431.01 370.91 409.26 370.83 C 406.77 366.86 411.62 361.55 406.37 358.23 C 410.82 351.83 413.74 344.94 417.83 337.79 C 435.45 324.93 457.99 328.39 478.44 328.58 C 490.36 319.17 507.73 328.96 520.23 323.15 C 505.92 320.50 496.76 307.72 482.47 305.46 C 475.86 302.07 467.74 303.83 461.41 299.54 C 442.43 288.91 422.59 287.24 402.23 280.80 C 404.97 271.12 390.39 280.75 388.04 274.99 C 386.90 271.95 395.61 272.54 391.62 270.49 C 385.55 260.93 372.50 256.87 362.82 250.26 C 341.79 238.72 325.84 220.48 307.70 205.30 C 282.94 188.21 260.34 167.03 244.09 141.90 C 240.50 134.42 248.84 137.61 252.48 136.55 M 708.13 411.42 C 706.46 416.53 713.09 411.52 708.13 411.42 M 474.10 492.26 C 472.56 495.29 477.37 492.44 474.10 492.26 M 473.44 495.40 C 471.74 497.54 470.34 500.03 470.05 502.80 C 473.50 507.03 475.35 493.27 473.44 495.40 Z" />

<path fill="#ffffff" opacity="1.00" d=" M 714.22 438.42 C 718.68 438.56 713.15 443.00 714.22 438.42 Z" />


<path fill="#ffffff" opacity="1.00" d=" M 473.16 515.11 C 476.52 517.22 469.64 517.42 473.16 515.11 Z" />
</svg>
