<?xml version="1.0" encoding="UTF-8" ?>
<!DOCTYPE svg PUBLIC "-//W3C//DTD SVG 1.1//EN" "http://www.w3.org/Graphics/SVG/1.1/DTD/svg11.dtd">
<svg width="1225pt" height="647pt" viewBox="0 0 1225 647" version="1.1" xmlns="http://www.w3.org/2000/svg">

<path fill="#ffffff" opacity="1.00" d=" M 258.86 213.98 C 266.99 221.31 275.59 229.08 285.81 233.18 C 284.86 228.43 278.12 223.45 281.28 219.24 C 292.50 227.35 302.88 242.78 315.85 249.93 C 323.13 241.75 325.38 255.62 332.06 256.96 C 340.59 268.25 355.28 273.22 368.06 279.04 C 423.88 295.70 482.13 301.02 540.00 306.98 C 552.77 304.37 564.90 307.16 576.93 310.88 C 604.52 297.28 635.30 304.65 663.84 299.29 C 669.42 289.02 683.29 295.87 690.40 287.39 C 703.79 287.85 715.34 280.04 728.92 282.65 C 740.24 276.12 753.57 280.19 765.64 275.60 C 778.24 277.34 787.74 259.72 800.72 264.29 C 807.24 273.05 816.44 254.76 821.53 263.38 C 825.62 271.78 832.58 260.59 838.33 260.31 C 843.98 257.95 842.99 266.29 846.88 268.21 C 853.07 262.25 859.39 248.90 868.35 252.68 C 876.53 257.73 859.55 275.95 868.42 273.46 C 879.35 265.82 881.51 246.49 895.82 245.03 C 899.80 257.09 888.31 266.11 885.88 277.07 C 900.35 271.38 905.23 252.27 919.04 244.89 C 933.33 255.74 905.54 269.49 908.66 279.70 C 919.63 273.11 928.26 262.33 938.07 254.05 C 947.52 249.32 946.24 265.82 939.49 268.48 C 935.58 274.21 927.93 278.59 927.90 286.10 C 937.88 281.75 945.08 271.97 955.74 269.07 C 962.91 279.46 948.46 285.52 942.96 292.17 C 942.78 300.93 958.83 285.63 955.98 299.99 C 940.28 312.74 920.09 321.10 900.58 327.79 C 884.42 342.54 860.93 333.20 841.84 337.66 C 822.29 335.80 802.61 335.44 782.93 335.20 C 754.09 341.25 723.01 329.23 693.89 338.10 C 693.75 343.52 701.98 342.64 703.99 347.06 C 706.29 353.12 707.79 359.61 712.35 364.51 C 720.08 376.57 708.30 391.40 717.47 402.60 C 717.38 414.38 723.21 425.18 722.99 437.08 C 716.33 438.68 715.05 423.35 709.93 430.85 C 698.15 424.10 686.21 416.41 673.19 413.21 C 665.26 420.46 653.91 408.88 646.41 416.45 C 632.45 429.83 612.70 433.53 594.00 434.03 C 574.49 436.74 554.83 438.30 536.15 430.09 C 531.41 447.37 540.28 465.56 529.94 481.70 C 523.28 478.78 524.45 488.67 518.91 489.93 C 512.96 491.05 516.91 475.97 511.42 480.45 C 503.30 485.95 506.72 472.74 510.90 469.83 C 508.71 464.21 505.05 467.46 502.86 471.13 C 501.18 460.70 512.02 459.49 519.25 458.23 C 525.40 449.12 529.22 438.19 529.98 427.14 C 522.30 421.83 512.63 421.64 504.43 417.46 C 500.57 414.96 494.02 414.03 491.70 418.77 C 484.27 440.29 480.37 463.23 482.84 486.02 C 485.74 490.74 479.71 497.17 477.19 491.17 C 476.72 495.08 475.43 498.95 472.72 501.90 C 467.07 503.24 468.97 491.03 463.20 495.14 C 452.72 494.26 472.58 478.92 460.34 478.53 C 454.59 478.61 462.22 467.00 467.14 469.10 C 478.58 450.67 482.18 428.38 484.07 407.08 C 484.43 400.50 480.63 387.70 492.99 390.94 C 501.88 390.09 484.21 385.09 492.68 384.38 C 506.88 389.36 500.92 375.94 493.26 372.60 C 497.18 366.95 488.26 366.97 489.26 361.50 C 482.84 360.71 465.84 362.82 476.13 354.91 C 454.98 359.55 434.07 371.59 412.10 369.78 C 418.27 362.68 406.64 361.74 411.33 356.35 C 417.79 351.04 417.31 339.42 427.07 338.00 C 444.09 326.88 467.05 339.80 483.33 328.12 C 460.86 328.36 437.47 324.71 416.16 325.95 C 416.13 318.19 401.49 329.91 403.40 319.48 C 401.31 315.27 395.80 314.23 391.91 312.07 C 373.78 306.75 357.91 296.67 340.69 289.30 C 324.54 275.31 304.53 267.21 286.13 256.76 C 272.21 246.58 259.78 231.92 258.86 213.98 M 711.30 413.25 C 709.81 418.40 716.27 413.07 711.30 413.25 M 520.45 469.52 C 518.98 471.48 511.65 478.46 517.90 476.92 C 521.35 476.93 523.35 467.13 520.45 469.52 M 469.27 484.37 C 467.71 485.79 465.53 493.27 469.26 490.22 C 471.36 489.05 471.01 483.85 469.27 484.37 Z" />

<path fill="#ffffff" opacity="1.00" d=" M 717.37 440.14 C 721.34 439.33 716.71 444.13 717.37 440.14 Z" />


</svg>
