<?xml version="1.0" encoding="UTF-8" ?>
<!DOCTYPE svg PUBLIC "-//W3C//DTD SVG 1.1//EN" "http://www.w3.org/Graphics/SVG/1.1/DTD/svg11.dtd">
<svg width="1225pt" height="647pt" viewBox="0 0 1225 647" version="1.1" xmlns="http://www.w3.org/2000/svg">

<path fill="#ffffff" opacity="1.00" d=" M 259.16 272.21 C 275.92 278.77 287.12 294.54 303.19 302.60 C 304.79 302.28 306.29 301.57 307.80 300.94 C 302.70 296.05 300.72 288.61 298.86 282.02 C 311.03 288.94 318.82 303.09 330.64 311.37 C 341.15 321.56 354.67 327.43 366.97 335.01 C 383.47 338.05 400.35 335.94 417.00 334.99 C 422.96 334.61 430.21 334.37 433.80 328.77 C 466.01 327.99 498.88 324.07 531.49 324.62 C 552.79 320.46 574.39 316.82 595.25 310.17 C 624.92 303.12 656.00 309.44 682.64 323.39 C 697.87 324.60 713.33 320.36 728.44 323.60 C 743.26 322.33 762.38 328.62 774.02 317.01 C 782.05 314.05 790.34 307.53 799.04 311.62 C 804.69 310.82 809.67 306.64 815.62 307.20 C 819.67 315.52 826.87 304.11 833.14 304.15 C 839.47 301.25 834.29 314.64 839.29 311.23 C 845.00 305.22 850.34 294.94 859.79 295.10 C 863.26 302.08 855.43 308.34 854.90 315.15 C 868.63 310.11 870.87 289.93 884.75 286.07 C 889.52 295.66 873.92 305.17 875.12 313.95 C 890.49 307.05 895.22 285.63 912.04 281.92 C 910.36 295.44 896.75 304.00 891.88 316.16 C 907.65 309.03 915.56 291.52 930.77 283.73 C 932.39 282.28 934.59 283.83 933.91 285.86 C 927.37 298.49 915.53 307.55 907.85 319.12 C 923.89 314.10 932.63 294.03 949.99 292.89 C 942.57 305.47 928.82 313.43 919.87 324.09 C 931.23 320.46 940.10 310.91 952.09 309.02 C 945.04 320.66 929.15 327.25 916.83 333.87 C 897.93 342.36 878.49 352.87 856.97 349.01 C 832.70 357.45 807.10 346.48 782.00 348.99 C 757.88 353.10 733.44 344.06 708.98 346.10 C 708.66 353.66 715.76 357.56 717.41 364.48 C 718.01 372.21 717.17 380.15 716.11 387.89 C 718.80 393.34 722.81 398.79 721.26 405.33 C 721.84 413.88 728.38 422.11 725.84 430.96 C 719.99 432.43 717.91 417.93 713.51 425.59 C 702.80 418.74 691.69 411.70 679.14 409.29 C 674.03 411.97 668.32 410.84 662.90 411.82 C 647.03 419.55 634.16 434.85 615.39 436.59 C 587.20 438.74 554.91 445.73 530.94 426.05 C 521.38 432.60 531.28 447.93 522.32 456.21 C 520.15 462.66 512.03 462.63 508.74 468.75 C 502.73 473.62 504.74 458.99 498.40 461.43 C 493.81 463.35 496.24 456.92 496.07 454.18 C 500.54 453.25 505.33 452.39 507.99 448.21 C 501.48 449.28 499.13 442.95 495.90 438.92 C 500.69 431.02 510.18 445.79 514.69 436.71 C 518.61 432.24 524.08 427.59 524.01 421.20 C 515.80 416.37 506.02 414.02 499.69 406.35 C 497.09 402.74 491.66 402.19 489.51 406.55 C 481.22 423.74 474.10 442.24 476.34 461.68 C 477.95 466.14 477.57 474.29 471.12 471.24 C 470.37 480.81 462.04 483.64 459.83 473.33 C 445.01 476.70 466.91 457.72 454.13 457.36 C 448.53 457.60 455.96 446.48 460.55 448.35 C 475.83 429.86 483.38 405.70 485.02 382.09 C 486.52 375.78 504.53 383.89 495.82 375.19 C 495.43 369.04 489.37 364.63 486.68 357.41 C 466.48 347.93 444.58 361.69 423.55 359.34 C 416.24 355.31 408.77 364.00 403.59 354.31 C 370.31 355.28 337.86 347.39 305.30 341.85 C 286.25 339.21 267.62 334.25 251.29 323.77 C 246.90 321.54 237.48 319.40 239.30 313.57 C 230.45 303.81 215.90 299.58 207.36 291.16 C 219.77 289.15 232.48 298.42 245.17 300.96 C 240.21 294.01 229.50 291.41 226.50 283.46 C 238.18 283.17 249.19 291.51 261.00 287.80 C 264.84 282.00 254.46 276.09 259.16 272.21 M 714.14 407.37 C 713.33 411.34 718.13 406.71 714.14 407.37 M 462.05 463.99 C 459.59 472.96 467.63 465.25 462.05 463.99 Z" />

<path fill="#ffffff" opacity="1.00" d=" M 720.37 434.14 C 724.34 433.33 719.71 438.13 720.37 434.14 Z" />

</svg>
