<?xml version="1.0" encoding="UTF-8" ?>
<!DOCTYPE svg PUBLIC "-//W3C//DTD SVG 1.1//EN" "http://www.w3.org/Graphics/SVG/1.1/DTD/svg11.dtd">
<svg width="1225pt" height="647pt" viewBox="0 0 1225 647" version="1.1" xmlns="http://www.w3.org/2000/svg">

<path fill="#ffffff" opacity="1.00" d=" M 495.37 345.24 C 544.18 356.50 594.87 341.50 643.63 352.48 C 657.77 356.87 671.05 361.16 685.03 365.84 C 714.38 362.30 745.19 366.73 774.97 364.96 C 783.55 358.30 798.01 353.96 807.10 361.97 C 813.87 360.94 823.72 356.00 826.35 365.60 C 833.33 362.64 848.56 355.68 846.14 369.97 C 853.23 365.11 861.79 355.92 870.83 359.18 C 874.73 365.61 863.18 370.17 862.75 376.89 C 877.22 374.16 884.31 352.83 900.01 357.03 C 896.22 365.70 887.05 370.76 882.84 379.05 C 897.04 376.23 906.47 362.84 919.84 357.78 C 922.57 356.26 925.83 356.97 927.17 359.92 C 919.35 367.63 910.64 374.40 902.78 382.04 C 919.46 379.86 931.03 362.94 948.02 361.98 C 951.52 360.85 949.42 364.88 948.15 366.12 C 939.59 373.82 929.02 379.10 920.82 387.09 C 934.87 383.77 946.69 374.10 960.91 371.09 C 962.98 371.36 964.74 372.45 963.91 374.79 C 955.38 381.83 944.05 384.78 935.77 392.03 C 945.14 392.19 956.34 382.45 963.98 388.02 C 945.87 400.43 921.85 403.80 900.89 410.90 C 881.76 419.54 861.28 412.65 841.45 415.29 C 808.01 409.62 773.55 413.98 741.10 402.92 C 735.23 402.05 725.12 398.24 721.02 400.03 C 730.23 411.01 727.19 424.86 725.93 438.02 C 726.84 443.51 731.99 447.90 730.64 453.96 C 729.44 463.30 736.84 472.18 734.34 481.38 C 729.46 483.81 728.48 471.95 722.66 474.45 C 710.71 469.44 701.14 458.07 687.70 455.36 C 673.19 461.31 656.20 460.59 641.90 467.91 C 631.09 472.86 619.56 475.23 608.06 477.82 C 597.40 470.97 584.38 476.45 572.64 473.21 C 554.47 471.28 539.79 459.98 525.89 449.06 C 518.96 451.44 519.71 460.67 517.68 466.67 C 508.59 471.70 500.62 479.35 490.10 481.28 C 490.62 486.61 492.04 495.72 483.78 495.81 C 482.54 500.12 479.38 505.63 474.16 505.23 C 478.92 499.23 470.40 494.64 466.03 499.93 C 463.83 491.08 473.22 488.61 475.12 481.43 C 469.74 482.90 469.68 474.76 464.93 479.03 C 465.17 472.27 471.46 469.36 477.50 471.52 C 484.65 464.11 483.38 452.47 484.98 442.99 C 472.32 444.31 460.43 448.64 448.96 453.92 C 418.61 459.57 387.43 455.67 357.15 450.76 C 345.16 449.13 337.03 437.47 324.47 437.39 C 317.06 434.71 309.84 431.43 302.11 429.74 C 306.77 425.78 304.50 424.51 299.79 427.40 C 270.80 419.50 242.38 406.73 214.74 394.99 C 232.30 398.82 249.75 404.72 267.98 404.97 C 286.36 406.26 304.41 402.31 322.30 408.79 C 319.73 404.93 311.71 406.93 309.13 403.00 C 314.66 396.09 328.99 409.67 332.28 400.10 C 354.73 404.79 376.32 396.12 398.47 393.66 C 423.84 391.85 445.29 374.11 471.22 376.84 C 463.26 370.57 453.44 371.79 444.04 371.02 C 437.94 365.96 441.30 356.63 445.13 351.18 C 460.53 342.43 482.26 357.90 495.37 345.24 M 268.59 408.14 C 273.81 409.71 279.13 411.04 284.32 412.76 C 281.25 408.35 273.70 407.71 268.59 408.14 M 287.24 414.33 C 284.67 415.27 287.95 419.65 290.13 419.09 C 289.51 417.63 289.00 413.84 287.24 414.33 M 309.73 418.04 C 312.98 419.46 316.55 420.02 320.42 419.74 C 317.02 418.49 313.38 417.70 309.73 418.04 M 293.77 420.01 C 296.72 422.85 301.19 425.32 305.14 422.82 C 302.47 419.75 297.35 421.89 293.77 420.01 M 322.26 420.10 C 322.44 423.37 325.29 418.56 322.26 420.10 M 306.14 423.37 C 305.33 427.34 310.13 422.71 306.14 423.37 M 507.35 434.35 C 502.54 436.25 497.15 437.66 493.36 441.36 C 488.96 448.71 499.98 451.36 504.19 454.93 C 511.61 454.89 517.66 448.43 520.89 442.18 C 516.75 439.33 512.58 434.16 507.35 434.35 M 522.18 446.18 C 521.16 450.20 526.20 445.16 522.18 446.18 M 491.19 458.09 C 486.16 467.30 499.20 468.40 503.18 462.02 C 500.18 459.11 495.15 459.01 491.19 458.09 M 477.37 488.35 C 470.92 494.19 480.09 491.90 477.37 488.35 Z" />









<path fill="#ffffff" opacity="1.00" d=" M 728.48 483.18 C 732.84 483.41 727.29 487.84 728.48 483.18 Z" />

</svg>
