<?xml version="1.0" encoding="UTF-8" ?>
<!DOCTYPE svg PUBLIC "-//W3C//DTD SVG 1.1//EN" "http://www.w3.org/Graphics/SVG/1.1/DTD/svg11.dtd">
<svg width="1225pt" height="647pt" viewBox="0 0 1225 647" version="1.1" xmlns="http://www.w3.org/2000/svg">

<path fill="#ffffff" opacity="1.00" d=" M 455.45 359.49 C 467.95 358.95 480.33 362.09 492.64 363.57 C 500.26 354.34 512.67 362.15 521.94 364.03 C 570.05 374.51 624.30 357.02 668.55 382.61 C 671.64 375.80 675.67 387.78 680.94 384.20 C 711.17 382.39 742.31 386.69 772.10 388.12 C 781.56 381.28 796.39 373.11 806.92 380.77 C 812.76 378.88 824.77 370.85 824.37 383.11 C 830.76 380.52 836.43 375.35 843.80 376.01 C 847.25 379.75 842.91 385.13 842.04 389.14 C 850.70 382.35 857.99 366.45 870.98 370.15 C 869.16 379.43 862.32 386.58 858.86 395.12 C 875.99 390.85 880.45 362.19 899.06 364.16 C 893.16 375.79 884.93 386.16 877.99 397.20 C 897.76 392.95 904.61 363.88 925.40 364.63 C 918.32 377.54 904.80 389.99 895.73 402.97 C 912.92 396.26 923.40 379.81 939.66 371.68 C 942.23 370.66 945.62 368.81 948.05 371.10 C 937.48 386.12 922.30 396.91 909.87 410.13 C 927.49 404.83 940.44 389.33 958.01 384.00 C 965.91 386.05 953.39 392.52 950.56 395.58 C 939.40 405.05 926.54 412.24 914.83 420.99 C 930.23 416.36 946.16 404.62 960.97 405.91 C 943.71 418.78 921.83 426.75 900.70 431.77 C 888.54 440.57 872.46 439.88 858.52 436.55 C 829.18 438.66 799.74 428.43 770.63 430.44 C 750.81 424.53 730.53 419.14 709.89 416.99 C 717.84 424.84 721.97 436.21 728.08 445.90 C 730.27 455.00 727.34 464.56 728.15 473.86 C 735.66 486.50 734.05 501.27 738.82 514.94 C 734.79 521.60 731.19 506.17 724.97 509.47 C 713.17 501.92 701.21 494.01 688.03 489.09 C 679.94 492.89 671.63 488.70 663.34 489.69 C 657.40 479.51 646.55 486.51 638.41 489.19 C 610.83 502.02 579.34 494.60 551.67 485.30 C 543.16 477.52 531.51 469.91 523.71 463.60 C 524.90 480.00 508.98 488.18 496.66 494.70 C 492.51 496.26 491.20 492.99 494.60 490.65 C 494.09 484.70 486.90 488.68 483.14 486.40 C 483.71 490.94 481.01 495.41 476.18 494.40 C 477.03 498.16 467.73 509.66 466.73 502.68 C 469.75 496.83 461.22 497.80 458.28 500.27 C 459.35 497.32 459.77 494.21 459.84 491.08 C 425.29 508.97 384.63 512.21 346.52 504.73 C 343.21 495.58 329.99 496.06 321.80 494.41 C 332.89 492.47 306.22 494.31 309.76 485.31 C 297.99 482.84 286.42 479.29 274.94 475.93 C 276.43 469.74 288.97 478.36 288.83 473.16 C 271.04 469.18 252.85 467.47 235.62 461.17 C 244.59 461.89 253.24 464.14 261.94 466.05 C 256.89 460.42 240.77 462.64 235.87 456.03 C 259.25 458.50 282.64 451.58 304.93 447.16 C 309.81 449.65 310.88 445.34 313.29 442.15 C 319.62 440.02 331.84 446.61 333.56 437.35 C 351.32 437.67 367.14 433.08 383.13 426.18 C 402.33 421.70 421.19 415.75 438.77 406.90 C 436.06 393.15 458.97 397.51 466.83 397.29 C 477.04 398.03 455.48 392.22 462.31 387.31 C 471.19 382.90 481.77 385.29 491.32 385.75 C 481.76 376.39 467.49 383.58 455.98 382.09 C 441.38 385.46 443.88 359.43 455.45 359.49 M 271.65 465.10 C 276.94 467.07 282.72 468.01 288.39 467.85 C 283.14 465.62 277.30 465.10 271.65 465.10 M 500.46 473.45 C 494.88 477.69 482.27 476.03 482.96 485.00 C 490.63 488.91 486.88 479.16 492.12 479.21 C 496.35 481.84 514.34 470.83 500.46 473.45 M 462.19 489.03 C 458.79 492.74 466.90 489.52 462.19 489.03 M 468.26 491.10 C 468.44 494.37 471.29 489.56 468.26 491.10 M 328.10 493.26 C 326.56 496.29 331.38 493.44 328.10 493.26 Z" />





<path fill="#ffffff" opacity="1.00" d=" M 733.20 518.25 C 736.94 520.93 729.50 521.01 733.20 518.25 Z" />
</svg>
