<?xml version="1.0" encoding="UTF-8" ?>
<!DOCTYPE svg PUBLIC "-//W3C//DTD SVG 1.1//EN" "http://www.w3.org/Graphics/SVG/1.1/DTD/svg11.dtd">
<svg width="1225pt" height="647pt" viewBox="0 0 1225 647" version="1.1" xmlns="http://www.w3.org/2000/svg">

<path fill="#ffffff" opacity="1.00" d=" M 871.33 238.40 C 878.78 236.22 870.57 242.08 868.67 244.77 C 872.49 243.48 876.20 241.80 880.18 241.02 C 872.47 251.66 857.47 255.84 848.41 264.67 C 840.69 278.89 816.83 272.13 810.99 288.01 C 792.43 296.73 766.76 296.41 752.77 312.80 C 733.58 326.03 715.47 342.16 697.72 357.72 C 688.43 370.34 680.07 383.71 672.17 397.23 C 669.38 404.66 679.15 403.74 682.23 407.76 C 691.38 418.07 707.76 421.01 711.38 435.65 C 722.67 444.03 720.13 459.05 720.77 471.32 C 728.37 482.59 729.10 496.06 734.47 508.46 C 738.09 525.23 721.56 496.23 721.67 509.15 C 710.10 501.40 696.44 496.53 683.62 492.71 C 676.75 498.72 666.69 495.39 658.17 496.75 C 647.13 487.28 634.43 501.53 622.92 503.83 C 606.60 511.64 589.27 506.08 571.99 506.93 C 548.26 506.80 529.13 491.41 510.09 480.02 C 506.15 488.15 494.97 490.94 487.55 496.49 C 483.60 500.96 473.21 497.57 480.31 493.10 C 472.72 493.08 468.53 490.86 475.24 486.18 C 479.39 482.23 490.21 486.49 492.12 479.12 C 487.46 476.00 477.79 479.20 479.60 470.31 C 477.79 468.52 467.90 465.45 472.48 470.40 C 462.79 482.78 451.58 508.23 431.10 497.84 C 431.85 488.37 444.30 493.25 446.99 485.10 C 443.74 481.66 435.80 483.27 437.97 475.97 C 438.44 473.01 431.86 472.83 434.62 469.67 C 443.44 465.41 446.63 483.33 455.16 477.21 C 467.44 469.78 477.99 457.09 480.79 442.74 C 482.61 437.86 494.98 443.17 488.91 438.13 C 483.25 432.44 498.20 441.02 497.56 435.70 C 487.82 427.05 487.10 413.02 478.49 403.55 C 478.35 401.28 479.36 399.10 479.70 396.87 C 463.56 397.42 447.41 400.14 431.32 399.68 C 422.67 398.77 430.93 387.57 435.34 386.36 C 440.13 380.02 452.47 384.67 454.91 377.29 C 437.30 365.53 417.40 357.74 397.67 350.35 C 375.97 340.39 349.90 344.27 329.34 331.68 C 315.09 328.96 302.17 323.03 287.74 321.20 C 285.69 313.38 267.08 320.72 258.59 313.37 C 269.86 312.23 281.32 311.84 292.47 310.30 C 265.78 307.43 237.40 314.64 211.60 306.30 C 224.95 305.64 239.53 306.01 252.26 304.18 C 233.49 301.92 214.20 305.14 195.87 299.73 C 201.42 295.31 210.57 299.52 217.28 297.94 C 209.73 295.63 199.96 297.75 192.73 293.01 C 203.66 292.29 202.41 291.51 194.53 288.30 C 208.34 286.94 222.10 289.19 235.89 289.05 C 233.29 286.99 227.16 287.94 223.59 285.28 C 259.62 287.96 295.50 292.79 331.47 296.43 C 382.54 293.21 431.93 309.95 482.98 307.62 C 487.39 310.44 492.78 309.24 497.10 308.89 C 501.48 315.61 515.83 309.58 518.89 319.11 C 520.44 324.77 527.41 323.66 531.49 326.49 C 534.01 335.96 542.28 342.28 550.66 346.40 C 557.14 355.07 562.65 366.72 574.18 367.19 C 581.96 357.18 594.79 357.97 605.49 353.65 C 609.91 339.99 628.06 342.96 635.81 332.79 C 666.95 316.57 700.73 306.34 734.81 297.72 C 744.20 291.40 753.98 289.39 763.67 285.70 C 795.91 269.03 828.09 250.70 862.27 239.55 C 859.44 246.60 867.17 238.86 871.33 238.40 M 487.40 462.38 C 470.85 460.07 491.66 476.08 498.07 472.02 C 495.09 468.67 492.71 462.14 487.40 462.38 Z" />

<path fill="#ffffff" opacity="1.00" d=" M 730.10 516.26 C 733.37 516.44 728.56 519.29 730.10 516.26 Z" />
</svg>
