<?xml version="1.0" encoding="UTF-8" ?>
<!DOCTYPE svg PUBLIC "-//W3C//DTD SVG 1.1//EN" "http://www.w3.org/Graphics/SVG/1.1/DTD/svg11.dtd">
<svg width="1225pt" height="647pt" viewBox="0 0 1225 647" version="1.1" xmlns="http://www.w3.org/2000/svg">

<path fill="#ffffff" opacity="1.00" d=" M 226.15 291.51 C 252.72 311.12 276.95 337.02 308.09 350.11 C 298.56 337.15 282.40 327.95 275.29 312.67 C 272.37 308.30 276.66 308.12 279.70 310.33 C 299.65 334.91 325.19 354.08 354.20 366.71 C 374.21 370.95 394.15 376.57 414.73 376.95 C 430.18 359.14 457.33 360.90 478.96 360.91 C 494.60 355.10 511.85 358.93 527.94 361.18 C 546.11 364.21 563.71 355.83 581.96 358.91 C 603.06 354.08 624.41 358.84 644.78 364.40 C 675.13 355.31 706.33 349.02 738.00 347.19 C 748.54 348.67 755.76 333.28 766.65 337.29 C 770.65 344.87 776.86 334.40 782.44 333.35 C 788.68 330.07 790.39 336.87 791.36 341.04 C 795.80 335.47 801.49 330.95 808.01 328.03 C 816.04 329.31 808.21 343.04 813.88 343.89 C 818.26 335.22 822.29 325.13 831.16 320.16 C 844.95 316.01 830.71 338.89 833.82 343.83 C 848.08 336.45 848.57 316.69 863.09 310.05 C 868.20 308.50 865.25 314.79 864.35 317.33 C 861.74 326.11 855.94 333.84 854.83 343.01 C 869.42 334.21 877.31 318.67 889.73 307.72 C 891.80 305.96 897.60 304.31 895.90 308.89 C 890.79 320.83 881.52 330.61 875.87 342.13 C 892.46 335.21 902.35 318.79 916.78 308.80 C 918.97 307.46 925.69 304.94 923.71 309.71 C 915.35 322.77 902.45 332.36 893.93 345.16 C 912.86 338.66 925.34 318.36 945.13 315.01 C 934.52 329.71 917.28 338.93 903.82 351.09 C 920.55 345.68 934.41 331.72 952.31 330.17 C 933.14 345.31 910.32 354.58 888.05 364.10 C 871.16 373.85 850.86 370.76 833.17 378.31 C 813.06 377.56 793.09 380.56 773.01 381.11 C 746.57 390.58 715.94 379.29 689.29 390.44 C 689.49 395.30 699.19 395.28 700.87 400.04 C 704.02 412.10 716.38 420.20 712.64 433.82 C 711.10 442.95 713.08 451.26 717.82 459.16 C 715.34 469.72 725.79 479.82 721.78 489.97 C 717.18 489.29 716.24 482.38 711.46 481.27 C 709.43 486.98 705.81 480.41 702.63 479.43 C 693.33 474.30 682.67 468.29 672.87 466.87 C 662.11 473.90 647.35 465.24 636.48 472.58 C 623.29 479.32 609.55 484.71 595.04 487.90 C 582.97 479.16 566.51 488.15 552.89 483.17 C 534.48 479.23 519.49 467.25 505.94 454.93 C 500.36 459.11 496.43 467.07 496.43 474.41 C 491.12 483.24 481.10 487.41 472.67 492.74 C 466.86 495.62 465.25 490.15 467.35 485.68 C 464.09 486.27 453.46 484.34 461.91 481.94 C 464.29 475.12 472.65 477.92 477.91 474.91 C 484.80 469.61 469.62 473.54 468.60 468.54 C 469.28 457.21 457.21 467.16 458.53 472.76 C 456.96 481.72 447.00 483.75 441.65 489.83 C 437.30 489.79 423.19 488.19 429.52 481.42 C 433.01 478.12 440.39 479.83 442.43 474.38 C 444.58 469.19 432.57 472.54 435.30 466.38 C 436.60 462.43 431.77 461.96 430.96 459.13 C 437.08 454.93 442.13 462.15 446.18 466.03 C 455.32 466.03 456.80 454.26 461.43 448.37 C 468.93 438.34 470.76 425.85 475.17 414.89 C 474.29 407.84 481.97 407.60 486.98 408.96 C 481.90 406.25 487.32 401.77 483.82 399.23 C 458.33 393.01 431.93 402.15 406.00 401.06 C 352.88 398.35 299.08 391.57 248.93 373.09 C 240.60 364.89 226.49 365.83 217.66 358.06 C 233.99 359.24 248.99 367.30 265.24 368.99 C 235.01 355.53 201.79 348.22 172.68 332.08 C 199.52 336.74 224.72 349.40 250.96 357.00 C 253.93 356.86 258.16 361.52 259.96 358.25 C 232.58 346.04 205.24 333.58 179.13 318.82 C 176.82 317.29 167.28 311.26 173.84 312.21 C 207.63 324.65 238.87 344.00 273.21 354.99 C 244.90 337.39 214.79 321.77 190.35 298.69 C 187.90 294.96 194.87 297.23 196.71 298.33 C 228.32 318.28 259.38 339.96 294.19 354.06 C 269.84 336.06 241.26 320.56 225.07 293.87 C 223.92 292.41 224.21 291.45 226.15 291.51 M 481.22 432.40 C 475.86 433.02 474.47 439.21 471.96 442.98 C 470.00 449.26 458.38 459.52 470.68 460.36 C 481.33 472.19 493.03 459.97 500.22 451.01 C 491.74 447.12 488.86 436.35 481.22 432.40 M 710.22 465.25 C 708.16 470.90 715.63 465.05 710.22 465.25 Z" />


<path fill="#ffffff" opacity="1.00" d=" M 717.19 491.53 C 721.77 493.14 715.71 496.76 717.19 491.53 Z" />
</svg>
