<?xml version="1.0" encoding="UTF-8" ?>
<!DOCTYPE svg PUBLIC "-//W3C//DTD SVG 1.1//EN" "http://www.w3.org/Graphics/SVG/1.1/DTD/svg11.dtd">
<svg width="1225pt" height="647pt" viewBox="0 0 1225 647" version="1.1" xmlns="http://www.w3.org/2000/svg">

<path fill="#ffffff" opacity="1.00" d=" M 886.48 302.40 C 897.09 300.89 884.24 313.03 882.86 317.89 C 880.12 323.35 874.94 327.31 872.86 333.10 C 887.61 327.26 895.32 309.09 911.14 304.96 C 907.63 317.05 894.58 323.11 887.97 333.22 C 899.46 328.46 908.34 316.87 921.17 316.01 C 897.21 336.35 868.76 352.24 837.39 357.42 C 826.55 368.32 810.61 360.71 797.63 364.34 C 776.14 364.42 755.52 371.28 733.96 370.74 C 714.44 370.89 693.94 370.51 675.90 379.12 C 684.71 385.22 694.16 389.62 697.04 400.95 C 707.46 408.37 706.72 421.72 706.42 433.13 C 705.90 441.35 715.63 446.46 713.46 455.00 C 716.06 463.30 722.06 470.93 721.01 480.13 C 715.26 479.83 713.31 469.89 707.13 474.45 C 695.70 466.73 682.99 462.11 669.98 458.04 C 660.94 462.47 648.62 462.92 639.32 459.39 C 623.49 463.72 609.52 474.14 592.96 476.05 C 578.84 471.54 563.15 478.32 548.90 473.15 C 528.55 471.50 512.98 456.80 494.99 449.00 C 490.06 445.38 488.30 453.07 484.14 454.16 C 474.82 459.47 462.48 465.06 464.17 478.05 C 466.51 487.47 455.52 487.12 451.00 492.00 C 446.40 495.53 438.85 493.89 434.13 490.93 C 433.79 481.70 449.02 487.05 447.95 478.22 C 443.99 475.83 438.50 475.08 439.14 468.75 C 437.97 466.39 433.55 461.89 438.93 462.00 C 445.24 462.74 450.72 477.11 456.80 469.72 C 460.88 463.99 458.99 459.37 453.95 456.24 C 456.64 453.33 458.62 449.32 463.22 449.16 C 466.60 443.38 461.87 435.68 456.92 432.13 C 462.78 429.43 470.46 431.69 468.03 421.02 C 459.70 416.59 449.82 425.99 440.22 426.28 C 434.11 425.88 428.60 428.95 423.11 431.11 C 361.85 448.12 297.79 452.76 235.00 442.98 C 218.05 437.39 200.98 431.70 183.42 428.71 C 180.85 418.98 167.79 420.46 162.85 412.91 C 168.43 415.02 174.42 414.97 180.28 415.72 C 173.02 411.67 165.21 408.43 158.88 402.85 C 166.75 403.04 173.29 408.83 181.17 409.06 C 177.77 405.32 172.20 403.45 169.83 398.91 C 185.86 403.13 198.96 415.13 215.16 419.10 C 211.52 415.54 205.75 414.02 203.68 409.10 C 239.96 426.97 280.44 447.12 321.73 436.82 C 333.41 434.18 345.01 430.95 357.32 428.81 C 347.89 425.19 368.40 425.50 369.31 423.44 C 366.76 419.94 377.61 420.88 378.68 419.63 C 392.04 414.18 405.83 409.87 418.27 402.21 C 422.56 390.91 439.74 391.85 450.21 389.76 C 447.51 387.00 442.81 388.51 439.90 385.88 C 446.08 378.40 458.63 381.76 466.99 379.87 C 464.42 374.65 453.44 379.14 449.72 373.29 C 459.04 376.00 454.50 371.37 452.54 369.31 C 432.85 367.23 412.69 373.54 393.33 369.62 C 392.80 367.12 392.86 360.15 398.07 359.04 C 415.42 345.31 439.30 350.69 459.67 351.19 C 475.58 342.79 493.44 351.40 509.98 351.97 C 532.63 350.48 555.08 347.00 577.86 347.80 C 595.96 343.64 614.16 349.48 631.90 351.07 C 635.37 351.68 638.57 355.21 641.47 355.52 C 643.23 348.02 647.58 357.00 651.05 357.82 C 676.53 351.81 702.79 347.70 729.03 350.10 C 737.80 351.79 743.96 342.26 752.83 344.39 C 760.53 346.40 767.65 333.70 774.85 341.22 C 780.49 340.61 784.79 331.73 791.74 333.09 C 794.56 335.40 794.18 339.61 796.68 342.17 C 797.44 334.20 803.93 321.44 813.27 323.67 C 816.49 328.42 814.27 334.72 815.16 340.15 C 826.42 335.27 823.20 319.29 832.74 312.72 C 844.48 310.38 832.86 331.03 835.88 335.84 C 849.23 329.93 848.30 310.19 862.00 305.01 C 866.90 303.45 864.51 309.10 863.65 311.66 C 861.33 319.37 856.90 326.32 854.82 334.07 C 868.94 327.42 873.42 310.22 886.48 302.40 Z" />
<path fill="#ffffff" opacity="1.00" d=" M 716.22 482.43 C 720.68 482.54 715.13 487.00 716.22 482.43 Z" />
</svg>
