<?xml version="1.0" encoding="UTF-8" ?>
<!DOCTYPE svg PUBLIC "-//W3C//DTD SVG 1.1//EN" "http://www.w3.org/Graphics/SVG/1.1/DTD/svg11.dtd">
<svg width="1225pt" height="647pt" viewBox="0 0 1225 647" version="1.1" xmlns="http://www.w3.org/2000/svg">

<path fill="#ffffff" opacity="1.00" d=" M 871.29 303.31 C 874.78 302.58 876.44 306.05 874.24 309.28 C 871.78 317.31 867.72 324.71 864.05 332.23 C 874.40 329.14 877.38 316.01 886.10 310.10 C 888.06 307.58 894.70 306.47 893.93 310.90 C 890.26 319.17 882.73 325.40 879.67 333.90 C 886.55 329.00 892.51 321.68 900.98 319.97 C 904.30 318.68 903.16 323.54 901.26 324.30 C 883.54 340.43 864.96 357.40 841.10 363.17 C 826.62 365.49 814.67 376.79 799.05 372.71 C 778.88 372.07 759.29 380.11 739.16 378.28 C 717.93 380.48 693.21 373.32 674.14 384.14 C 683.07 387.51 688.45 395.76 692.39 404.59 C 702.87 412.88 698.24 427.68 700.09 438.89 C 702.40 444.86 708.40 450.01 706.36 456.93 C 708.84 464.86 714.04 472.27 713.00 481.11 C 710.03 484.36 699.48 465.36 700.97 477.03 C 688.14 470.32 673.91 460.69 659.62 462.61 C 651.07 464.10 639.02 467.80 631.84 460.33 C 615.84 466.35 600.80 475.16 583.89 478.94 C 568.96 473.50 552.14 479.03 537.09 472.80 C 511.78 466.78 494.66 445.22 477.64 427.31 C 470.61 433.04 458.57 440.30 448.09 440.97 C 440.95 438.94 454.26 433.76 442.05 434.71 C 435.28 431.47 436.91 442.32 429.91 441.64 C 420.91 441.18 410.94 443.14 402.85 438.00 C 407.55 431.96 415.61 433.09 422.02 431.96 C 420.94 426.51 411.56 425.64 413.57 419.63 C 414.91 415.76 411.01 413.25 409.81 409.98 C 422.54 408.26 421.03 430.28 434.04 426.06 C 439.36 421.57 455.08 415.41 444.88 408.08 C 452.05 409.07 458.31 409.37 459.96 400.01 C 438.06 401.93 416.10 402.66 395.03 409.12 C 347.59 415.19 299.55 414.27 252.00 409.92 C 229.17 408.29 207.52 400.57 186.87 391.16 C 174.29 386.26 160.80 382.14 150.12 373.60 C 160.49 367.93 146.25 367.44 144.09 360.94 C 147.60 360.00 151.27 360.50 154.83 360.92 C 152.56 356.37 151.24 349.87 159.53 352.65 C 178.49 358.46 198.43 360.94 215.98 371.04 C 248.13 386.04 283.31 395.53 319.02 394.06 C 360.90 388.23 403.76 389.83 445.21 380.66 C 442.67 378.90 436.86 379.45 438.03 375.13 C 445.92 372.52 454.27 373.12 462.45 372.68 C 457.47 369.72 451.20 369.89 445.85 367.87 C 446.26 364.73 451.93 365.86 450.62 361.79 C 431.46 357.58 407.82 363.31 388.17 357.80 C 387.73 349.45 399.75 346.49 407.24 344.15 C 424.51 339.51 442.14 345.80 459.54 345.33 C 478.98 338.12 497.14 352.96 516.67 350.35 C 556.77 349.78 601.82 338.61 638.67 359.13 C 637.90 351.65 643.87 357.29 645.69 360.59 C 663.31 360.07 681.09 356.62 698.98 355.99 C 713.12 354.35 728.97 362.56 740.78 351.78 C 747.85 347.24 757.34 352.22 763.22 344.14 C 774.37 349.96 780.76 330.35 790.71 341.57 C 792.87 334.61 797.26 323.29 806.29 326.67 C 809.84 331.34 805.96 338.22 809.12 342.94 C 818.91 336.64 811.95 313.61 826.78 314.05 C 829.76 321.23 826.55 330.28 827.06 338.14 C 838.28 331.78 836.02 311.89 847.97 305.97 C 860.72 309.80 841.49 326.76 847.63 335.07 C 857.10 325.61 859.26 310.07 871.29 303.31 M 482.20 357.98 C 478.65 361.97 487.52 358.84 482.20 357.98 M 459.95 413.03 C 458.42 417.44 463.96 419.32 467.06 417.08 C 474.41 412.57 464.69 412.09 459.95 413.03 M 454.17 414.17 C 453.15 418.80 458.80 413.15 454.17 414.17 M 450.26 417.82 C 454.14 423.71 438.80 429.57 453.60 427.63 C 467.70 426.14 456.43 420.43 450.26 417.82 Z" />




<path fill="#ffffff" opacity="1.00" d=" M 708.14 483.53 C 712.50 484.17 706.56 488.04 708.14 483.53 Z" />
</svg>
