<?xml version="1.0" encoding="UTF-8" ?>
<!DOCTYPE svg PUBLIC "-//W3C//DTD SVG 1.1//EN" "http://www.w3.org/Graphics/SVG/1.1/DTD/svg11.dtd">
<svg width="1225pt" height="647pt" viewBox="0 0 1225 647" version="1.1" xmlns="http://www.w3.org/2000/svg">

<path fill="#ffffff" opacity="1.00" d=" M 170.48 291.13 C 180.91 295.32 193.14 295.48 202.84 302.19 C 227.32 317.05 253.23 329.46 279.60 340.52 C 304.26 349.40 330.90 346.96 355.59 355.42 C 383.47 354.99 410.90 360.77 438.59 361.67 C 443.30 361.17 453.72 362.62 452.99 355.23 C 433.79 352.57 413.56 353.66 395.22 346.82 C 397.24 337.31 407.97 336.79 415.26 333.27 C 436.26 331.11 456.07 342.68 476.87 338.18 C 498.60 343.13 519.94 354.01 542.68 347.69 C 571.25 346.16 600.64 342.35 628.31 352.71 C 633.38 353.18 641.30 363.65 641.17 354.99 C 646.23 356.26 648.23 365.71 654.84 360.85 C 676.61 362.44 700.34 354.91 722.86 359.82 C 731.53 352.37 743.36 354.15 752.36 347.51 C 761.66 351.22 765.59 337.69 774.97 341.80 C 779.24 338.52 781.12 328.75 788.41 329.58 C 794.16 331.99 791.08 341.37 795.87 343.92 C 801.07 335.73 794.21 316.54 809.80 318.01 C 810.83 324.96 809.88 332.27 812.10 339.01 C 822.49 332.29 816.27 311.32 830.84 308.98 C 833.94 317.26 830.35 326.58 830.12 335.28 C 841.05 328.02 838.47 308.02 852.86 304.21 C 856.91 312.69 848.93 323.86 846.91 333.08 C 858.21 327.60 859.43 306.91 874.09 307.99 C 871.18 316.60 866.43 324.38 861.99 332.25 C 870.45 329.36 875.49 316.19 885.02 318.08 C 876.58 333.66 860.88 342.72 849.40 355.45 C 841.60 361.90 831.33 362.98 822.06 366.09 C 806.46 376.90 786.11 372.61 768.51 378.27 C 739.73 388.19 707.27 372.73 679.08 384.52 C 689.48 386.64 687.56 399.67 694.55 405.42 C 704.51 417.89 691.68 434.95 702.65 447.36 C 701.36 458.14 709.14 467.65 708.01 479.06 C 703.95 483.93 697.01 463.12 695.75 475.08 C 685.99 468.63 675.93 461.93 664.58 459.54 C 661.78 458.47 658.76 456.36 656.37 459.32 C 644.96 463.08 630.54 456.36 619.76 463.85 C 607.31 469.41 594.48 475.00 580.94 477.05 C 563.90 471.19 543.56 476.75 526.64 467.51 C 506.96 459.91 495.32 441.40 479.11 428.98 C 478.64 442.84 462.42 445.19 452.66 450.70 C 450.35 451.95 444.17 449.41 447.77 446.83 C 452.24 441.46 434.35 445.33 441.10 440.13 C 445.93 432.90 458.71 440.02 462.00 431.23 C 456.47 430.42 450.46 429.74 450.57 423.10 C 442.10 425.82 438.26 436.64 431.72 441.69 C 422.59 439.76 411.58 444.37 403.71 438.04 C 407.61 430.56 416.97 435.23 423.11 431.95 C 421.89 426.91 411.63 425.14 415.41 419.54 C 417.88 415.39 407.02 410.62 414.02 409.95 C 421.24 411.97 422.40 421.08 427.31 425.87 C 437.27 428.92 442.19 417.83 449.35 413.37 C 458.79 406.50 460.87 392.70 469.98 386.92 C 469.44 382.35 464.11 382.96 460.60 383.56 C 446.56 378.76 429.95 380.21 414.96 381.80 C 354.40 389.38 292.73 377.23 236.03 355.93 C 220.13 346.47 204.71 336.07 189.17 325.88 C 175.27 321.70 160.54 304.32 170.48 291.13 M 462.23 411.55 C 459.68 413.04 457.06 414.38 454.08 413.17 C 455.18 419.40 460.70 428.36 468.01 425.04 C 480.14 424.81 469.97 407.85 462.23 411.55 M 450.17 417.17 C 449.15 421.80 454.80 416.15 450.17 417.17 M 696.17 455.27 C 692.98 459.90 701.93 457.89 696.17 455.27 Z" />



<path fill="#ffffff" opacity="1.00" d=" M 702.21 481.51 C 707.91 482.84 701.09 487.65 702.21 481.51 Z" />
</svg>
