<?xml version="1.0" encoding="UTF-8" ?>
<!DOCTYPE svg PUBLIC "-//W3C//DTD SVG 1.1//EN" "http://www.w3.org/Graphics/SVG/1.1/DTD/svg11.dtd">
<svg width="1225pt" height="647pt" viewBox="0 0 1225 647" version="1.1" xmlns="http://www.w3.org/2000/svg">

<path fill="#ffffff" opacity="1.00" d=" M 176.82 211.05 C 186.90 220.31 197.26 229.29 207.82 238.02 C 207.95 236.66 208.09 235.31 208.22 233.96 C 231.93 256.47 258.11 276.34 286.70 292.27 C 304.57 297.36 320.69 307.43 339.01 310.99 C 361.66 323.68 388.54 321.39 413.03 327.87 C 434.57 322.16 454.93 337.66 476.03 331.99 C 487.01 331.39 496.44 339.25 507.56 337.65 C 515.56 336.59 520.83 347.82 528.64 342.68 C 548.33 344.02 569.64 339.55 589.97 338.26 C 614.53 338.68 637.36 348.21 660.27 355.84 C 664.09 356.83 668.33 362.93 671.90 358.90 C 695.84 357.29 721.40 362.03 745.60 358.55 C 749.09 353.70 754.07 352.83 759.56 353.65 C 761.32 350.41 762.20 346.40 765.34 344.14 C 774.04 340.72 773.80 352.91 779.88 355.26 C 781.09 348.17 776.19 335.41 785.98 332.96 C 791.05 337.13 790.58 346.00 794.99 351.31 C 801.40 343.64 794.29 325.80 808.74 326.00 C 809.77 333.41 809.87 340.92 811.19 348.29 C 819.25 340.85 816.57 324.19 828.79 321.03 C 832.06 329.23 827.29 338.50 826.98 347.19 C 835.45 341.01 835.96 324.57 847.77 323.06 C 851.19 330.19 842.46 338.80 841.28 346.35 C 848.49 342.64 852.17 331.68 861.10 331.97 C 857.31 342.96 848.28 351.93 839.31 359.24 C 834.37 374.48 814.01 368.31 803.44 377.55 C 788.44 379.55 772.09 377.77 757.40 383.29 C 735.41 383.22 713.29 378.45 691.30 381.27 C 687.73 385.51 692.66 392.39 695.61 396.38 C 700.83 406.01 695.42 416.13 694.22 425.84 C 700.05 437.71 696.53 450.48 701.06 462.97 C 701.66 481.76 686.87 447.79 689.93 464.18 C 680.26 457.89 671.60 448.49 659.65 446.36 C 646.26 449.51 631.16 448.90 619.16 457.19 C 603.36 464.69 584.93 471.76 568.16 466.27 C 539.46 470.88 513.01 455.93 492.70 437.24 C 486.91 440.17 482.43 447.75 481.69 454.67 C 476.55 464.90 464.15 467.61 454.98 473.03 C 450.08 474.09 451.40 469.73 452.94 467.05 C 452.86 461.96 437.33 465.19 446.46 460.41 C 449.99 452.56 460.64 459.72 465.16 452.20 C 453.32 455.90 457.50 439.15 447.60 443.57 C 442.49 445.10 445.21 452.55 440.45 454.48 C 431.00 456.71 420.90 461.15 411.91 454.81 C 413.35 445.34 423.78 452.36 428.99 446.79 C 429.82 441.68 420.74 441.37 422.30 436.17 C 423.13 432.83 420.79 430.03 419.87 426.99 C 430.87 423.42 429.16 445.31 439.80 438.77 C 451.77 426.46 460.49 410.56 464.28 394.31 C 467.51 389.89 474.13 396.03 477.97 392.92 C 477.09 389.39 471.45 385.89 476.86 383.59 C 471.40 380.06 470.46 374.16 468.60 368.37 C 466.72 363.37 460.19 369.24 457.78 365.23 C 460.55 363.75 463.46 362.52 466.23 361.02 C 417.40 372.81 369.15 351.63 324.88 333.14 C 289.05 319.85 256.21 298.92 226.41 275.66 C 224.49 272.79 229.70 275.24 231.19 274.90 C 219.43 264.81 204.16 258.28 193.69 247.07 C 199.88 249.76 204.46 255.66 211.13 257.12 C 199.97 248.19 189.15 238.72 178.85 228.85 C 185.40 230.91 189.07 238.33 196.08 239.16 C 189.22 232.86 182.10 226.71 176.77 218.98 C 182.22 221.30 185.70 226.50 190.97 229.15 C 186.30 223.07 180.73 217.69 176.82 211.05 M 232.14 275.37 C 231.33 279.34 236.13 274.71 232.14 275.37 M 465.44 417.35 C 456.56 420.93 455.57 431.73 449.83 438.83 C 458.47 435.11 463.68 449.97 471.62 444.58 C 476.53 441.80 491.99 435.48 482.60 429.39 C 475.89 426.19 474.72 413.53 465.44 417.35 M 689.94 442.79 C 690.44 448.75 693.52 454.41 696.87 459.26 C 695.73 453.51 694.96 446.51 689.94 442.79 Z" />



<path fill="#ffffff" opacity="1.00" d=" M 695.21 470.57 C 699.70 473.72 693.43 476.50 695.21 470.57 Z" />
</svg>
