<?xml version="1.0" encoding="UTF-8" ?>
<!DOCTYPE svg PUBLIC "-//W3C//DTD SVG 1.1//EN" "http://www.w3.org/Graphics/SVG/1.1/DTD/svg11.dtd">
<svg width="1225pt" height="647pt" viewBox="0 0 1225 647" version="1.1" xmlns="http://www.w3.org/2000/svg">

<path fill="#ffffff" opacity="1.00" d=" M 531.50 251.58 C 536.92 248.87 541.99 252.93 543.06 258.06 C 549.64 266.20 553.89 275.95 558.50 285.35 C 559.26 298.26 574.41 293.91 582.89 296.87 C 598.65 288.30 615.80 282.18 633.63 279.57 C 647.75 269.60 660.04 256.52 678.42 260.48 C 684.86 260.67 684.65 270.25 690.75 270.62 C 698.64 282.29 695.32 297.99 700.39 311.24 C 696.70 333.98 716.03 352.14 711.10 375.02 C 711.58 382.94 699.77 386.59 696.88 378.10 C 694.75 381.63 701.30 388.87 702.32 393.94 C 700.41 392.47 697.30 388.09 695.11 391.25 C 693.60 398.78 710.13 400.02 702.46 407.46 C 697.48 429.47 688.96 450.50 676.29 469.07 C 671.17 450.00 671.51 429.81 668.20 410.86 C 663.04 397.91 650.31 412.34 644.56 417.58 C 615.27 453.04 564.78 451.94 523.28 451.21 C 521.78 465.75 515.60 479.69 517.44 494.47 C 510.39 513.86 484.38 514.13 473.97 531.03 C 469.42 533.38 462.38 530.50 459.38 527.14 C 455.99 517.25 471.52 521.47 471.04 514.08 C 465.11 510.46 463.83 501.24 457.12 499.88 C 463.63 493.80 470.59 502.71 476.84 505.06 C 482.08 481.26 483.71 454.63 477.06 431.32 C 482.94 427.98 488.77 424.34 492.96 418.95 C 491.39 412.53 480.81 415.15 479.77 408.20 C 484.86 410.76 495.62 405.63 487.03 400.94 C 477.00 397.89 478.84 383.97 467.86 382.20 C 453.52 374.16 439.76 387.13 426.18 391.19 C 397.31 399.00 390.47 436.87 362.27 445.22 C 358.62 448.56 355.88 452.82 351.98 455.92 C 346.40 449.77 333.08 460.13 337.27 445.33 C 356.45 413.74 377.36 382.49 400.89 353.87 C 405.69 330.51 429.01 319.76 447.55 308.68 C 448.02 297.87 457.02 292.05 467.11 291.16 C 482.68 286.50 495.36 275.63 508.52 266.53 C 513.77 258.47 521.82 252.83 531.50 251.58 M 482.34 318.27 C 461.40 328.31 453.02 351.18 440.46 368.84 C 444.30 371.92 462.85 371.62 460.78 361.73 C 481.02 360.66 500.00 350.90 518.12 342.42 C 502.30 340.53 497.29 320.87 482.34 318.27 M 497.18 449.37 C 484.52 459.37 482.56 488.43 503.47 487.55 C 511.70 479.96 512.48 467.62 515.73 457.50 C 520.20 446.51 502.28 453.68 497.18 449.37 M 487.87 492.36 C 483.24 501.08 495.04 500.46 497.96 495.92 C 496.60 492.63 491.08 493.59 487.87 492.36 Z" />



</svg>
