<?xml version="1.0" encoding="UTF-8" ?>
<!DOCTYPE svg PUBLIC "-//W3C//DTD SVG 1.1//EN" "http://www.w3.org/Graphics/SVG/1.1/DTD/svg11.dtd">
<svg width="1225pt" height="647pt" viewBox="0 0 1225 647" version="1.1" xmlns="http://www.w3.org/2000/svg">

<path fill="#ffffff" opacity="1.00" d=" M 634.19 113.31 C 649.00 113.79 664.54 111.19 677.43 119.53 C 685.51 130.45 689.29 144.01 697.03 155.01 C 704.91 156.83 713.97 159.45 714.85 169.12 C 722.32 183.68 704.94 198.77 719.25 210.75 C 730.75 223.34 728.71 241.74 717.45 253.38 C 704.31 260.97 688.57 264.34 678.02 276.02 C 670.49 283.82 662.39 291.53 656.78 300.86 C 664.12 302.50 674.32 298.82 678.00 307.99 C 682.45 319.51 698.04 325.48 693.83 339.95 C 690.87 347.45 700.40 351.96 700.77 358.96 C 699.07 365.54 706.20 369.91 707.01 376.18 C 702.84 372.59 701.34 363.86 694.94 363.97 C 695.27 368.51 699.48 371.61 700.94 375.81 C 697.02 376.68 695.52 379.10 697.07 382.91 C 691.45 378.93 684.26 381.55 678.28 378.72 C 673.49 376.19 674.31 384.10 671.08 386.08 C 659.29 398.43 647.48 410.59 637.57 424.56 C 611.63 450.42 572.61 452.30 539.33 457.31 C 537.15 470.19 534.95 483.12 532.20 495.87 C 538.52 512.46 520.01 521.43 509.58 528.66 C 499.41 532.14 509.01 522.27 504.83 519.95 C 496.84 519.23 500.16 530.22 495.32 533.30 C 488.92 534.75 489.56 548.44 480.86 543.32 C 482.68 537.09 473.37 542.62 472.50 540.43 C 471.93 532.08 483.60 531.70 484.03 523.26 C 473.79 526.58 479.33 512.84 471.06 517.07 C 471.49 503.11 487.69 520.58 488.52 511.54 C 490.02 488.57 491.68 464.71 483.92 443.07 C 485.66 437.93 492.83 439.70 494.13 434.11 C 495.05 430.91 503.84 427.59 496.50 427.58 C 488.20 429.29 488.72 421.01 495.59 421.65 C 498.53 409.00 481.74 409.77 473.39 411.32 C 460.43 412.57 445.38 410.29 434.73 419.72 C 429.68 422.37 425.19 427.67 419.25 427.92 C 415.68 425.17 417.66 421.73 420.93 419.93 C 438.22 408.63 458.78 400.97 474.16 387.25 C 464.78 387.45 476.93 382.44 479.63 380.58 C 493.48 366.82 509.98 356.60 526.27 346.07 C 511.56 347.89 491.42 344.49 484.99 329.09 C 483.71 318.73 470.09 318.72 466.72 309.26 C 458.74 304.22 448.38 301.60 443.51 292.49 C 430.70 288.96 414.06 286.54 408.27 272.74 C 398.72 261.25 389.41 248.03 388.43 232.56 C 373.72 222.21 359.27 210.62 346.02 197.96 C 330.26 185.44 319.18 167.56 301.72 157.28 C 299.04 154.51 295.91 151.82 294.32 148.24 C 301.19 138.08 318.07 138.25 327.10 145.83 C 326.58 142.49 334.22 147.93 338.03 148.98 C 341.28 148.85 341.27 156.37 343.40 152.28 C 352.51 167.33 371.94 169.87 385.61 179.43 C 403.49 202.48 433.64 212.92 457.96 226.02 C 467.70 222.35 461.80 237.62 469.60 233.76 C 475.64 229.73 475.10 238.10 479.41 238.52 C 487.71 239.16 494.85 243.88 499.01 250.97 C 505.86 250.78 509.46 255.85 511.58 261.47 C 516.06 262.50 519.81 268.05 524.26 265.60 C 534.29 265.78 532.48 287.54 543.10 281.12 C 549.27 283.00 548.09 293.41 554.86 293.99 C 559.93 282.54 559.24 263.84 571.89 255.95 C 578.96 241.73 587.31 228.46 597.96 216.93 C 605.55 210.04 613.93 201.77 612.48 190.51 C 613.44 179.86 618.37 170.00 618.66 159.33 C 613.76 152.89 612.23 140.15 624.08 146.05 C 618.80 141.46 611.81 134.08 617.22 127.10 C 620.56 131.77 625.01 135.24 631.18 134.98 C 626.16 130.99 621.38 126.03 621.96 119.01 C 626.32 120.09 630.66 121.60 635.20 121.73 C 634.21 118.97 632.42 116.20 634.19 113.31 M 526.49 456.63 C 519.27 460.40 510.94 456.85 503.89 458.80 C 493.18 468.63 497.41 484.47 497.43 497.53 C 500.25 497.89 501.68 493.69 504.74 494.40 C 510.78 494.06 516.24 503.81 521.28 497.27 C 528.15 488.38 528.32 476.10 531.57 465.63 C 532.44 461.66 533.62 452.93 526.49 456.63 M 501.39 499.35 C 495.84 501.48 495.98 510.83 498.78 514.99 C 503.57 510.08 512.11 512.43 516.21 506.19 C 511.69 505.33 503.63 507.95 504.43 500.44 C 504.41 498.59 502.62 498.71 501.39 499.35 M 513.44 514.21 C 505.78 517.90 517.32 516.76 513.44 514.21 Z" />
<path fill="#ffffff" opacity="1.00" d=" M 707.41 378.49 C 713.38 383.04 701.85 383.24 707.41 378.49 Z" />



</svg>
