<?xml version="1.0" encoding="UTF-8" ?>
<!DOCTYPE svg PUBLIC "-//W3C//DTD SVG 1.1//EN" "http://www.w3.org/Graphics/SVG/1.1/DTD/svg11.dtd">
<svg width="1225pt" height="647pt" viewBox="0 0 1225 647" version="1.1" xmlns="http://www.w3.org/2000/svg">

<path fill="#ffffff" opacity="1.00" d=" M 629.38 195.34 C 637.40 197.44 642.59 206.91 649.79 211.35 C 645.98 219.05 652.39 225.34 654.39 232.48 C 657.99 244.73 657.28 257.70 661.11 269.90 C 665.21 279.45 673.87 287.71 671.97 299.03 C 671.41 308.66 684.92 312.12 679.76 322.97 C 675.59 330.98 687.98 333.10 685.71 340.63 C 683.68 344.74 680.32 348.02 678.05 351.99 C 680.60 355.86 686.16 362.59 686.35 364.69 C 680.35 358.61 683.02 370.67 678.45 367.77 C 671.97 369.24 664.05 364.09 658.70 367.71 C 657.59 384.05 656.83 401.08 652.86 417.32 C 647.39 405.65 646.81 392.47 643.84 380.09 C 635.20 383.09 634.23 394.27 628.07 400.05 C 604.83 426.01 568.33 432.53 536.28 440.07 C 538.69 452.26 536.56 465.11 539.99 477.00 C 546.48 485.35 538.61 493.89 535.85 501.82 C 527.99 502.59 527.92 513.69 519.24 513.10 C 520.16 509.87 519.39 506.38 517.02 503.98 C 514.70 505.83 504.97 509.62 509.29 504.27 C 510.96 495.77 520.98 495.91 525.24 489.14 C 516.54 493.44 513.70 484.37 507.94 484.92 C 509.47 473.33 521.78 484.67 527.60 480.62 C 534.24 468.22 531.10 452.72 529.82 439.22 C 520.39 436.92 511.42 441.97 501.97 440.15 C 498.76 439.84 497.01 443.27 495.33 445.46 C 494.19 461.36 499.48 476.77 501.79 492.29 C 504.63 498.05 512.54 515.27 501.45 517.59 C 504.22 522.78 493.83 534.50 492.49 525.36 C 490.76 520.61 481.87 531.99 483.61 524.00 C 480.11 516.92 494.45 513.97 489.61 507.48 C 485.23 507.49 475.70 501.65 481.28 497.05 C 485.21 496.17 492.41 500.50 492.87 493.89 C 489.73 472.60 490.71 447.71 477.27 430.56 C 473.91 420.99 492.25 419.40 487.66 409.35 C 486.62 405.82 474.90 406.88 481.12 403.17 C 489.30 399.88 471.94 396.16 476.05 389.95 C 476.72 384.25 468.44 384.68 467.30 379.35 C 452.84 383.55 434.87 376.29 424.29 390.25 C 413.79 396.09 405.58 409.17 391.95 405.17 C 379.99 403.03 374.60 419.61 363.05 418.85 C 351.78 415.44 341.39 428.34 330.38 422.60 C 332.30 412.69 317.51 417.46 320.31 408.12 C 314.53 395.74 325.65 386.91 332.60 378.62 C 339.97 356.79 347.02 335.64 358.58 315.63 C 379.61 285.53 409.19 262.64 440.63 244.27 C 457.79 238.35 475.05 231.56 489.98 221.02 C 497.93 216.00 513.02 208.07 517.18 221.89 C 525.68 227.26 524.61 238.26 531.02 244.98 C 551.43 253.98 562.99 229.59 581.31 225.24 C 593.27 210.65 610.36 198.46 629.38 195.34 M 471.06 296.11 C 456.48 314.15 460.12 342.56 440.80 357.70 C 429.85 360.80 422.38 371.45 417.90 381.03 C 432.71 374.91 447.68 368.55 461.19 359.93 C 455.69 360.33 451.65 365.56 445.91 365.05 C 446.02 361.24 450.54 360.50 453.35 359.32 C 467.29 353.95 478.48 343.64 491.31 336.29 C 500.56 332.54 510.09 328.57 517.14 321.21 C 506.93 318.63 493.00 319.91 488.02 308.14 C 485.30 300.94 476.95 299.75 471.06 296.11 M 526.12 495.98 C 517.59 501.32 523.97 502.55 526.12 495.98 Z" />

<path fill="#ffffff" opacity="1.00" d=" M 688.52 365.23 C 693.01 362.74 690.56 368.84 688.52 365.23 Z" />
<path fill="#ffffff" opacity="1.00" d=" M 690.26 373.10 C 693.29 371.56 690.44 376.37 690.26 373.10 Z" />

</svg>
