<?xml version="1.0" encoding="UTF-8" ?>
<!DOCTYPE svg PUBLIC "-//W3C//DTD SVG 1.1//EN" "http://www.w3.org/Graphics/SVG/1.1/DTD/svg11.dtd">
<svg width="1225pt" height="647pt" viewBox="0 0 1225 647" version="1.1" xmlns="http://www.w3.org/2000/svg">

<path fill="#ffffff" opacity="1.00" d=" M 567.34 156.35 C 580.68 158.69 595.13 158.82 607.51 164.49 C 610.57 174.65 620.15 164.43 626.66 170.37 C 630.65 174.90 638.40 169.23 637.99 178.02 C 640.76 196.43 621.62 208.17 617.27 225.29 C 613.79 244.92 607.62 264.55 609.33 284.67 C 614.21 295.45 630.85 292.51 640.81 294.22 C 648.18 297.31 649.60 307.51 657.48 309.68 C 668.98 317.29 660.30 334.26 673.00 341.83 C 672.06 349.73 680.51 353.18 682.12 360.17 C 677.95 357.19 675.94 349.88 669.85 351.00 C 673.05 356.90 678.44 361.49 682.00 367.26 C 677.96 363.64 670.77 360.19 673.63 368.75 C 667.57 369.10 657.32 367.12 650.06 369.99 C 644.66 371.21 646.09 379.67 640.55 380.47 C 629.91 382.03 628.43 394.45 622.44 401.43 C 601.39 431.09 563.82 438.63 530.61 446.61 C 531.49 463.84 528.88 481.59 534.06 498.07 C 531.61 503.83 529.85 510.25 526.84 515.81 C 519.92 517.03 517.94 525.99 511.06 526.97 C 507.13 526.50 511.90 522.84 510.14 520.83 C 505.99 514.35 518.47 514.18 518.12 507.85 C 511.55 511.07 507.60 520.03 499.06 519.17 C 501.02 509.96 510.47 508.65 515.33 502.21 C 510.52 504.43 505.30 504.94 503.89 498.35 C 494.81 504.24 501.71 489.46 507.88 493.35 C 513.03 495.65 520.59 495.56 521.93 488.93 C 524.23 475.14 525.91 459.43 522.81 446.24 C 509.61 450.89 489.30 442.40 481.34 456.44 C 481.65 474.32 480.90 493.85 488.46 510.45 C 488.11 516.62 494.88 525.67 487.58 529.56 C 483.53 532.27 485.06 541.56 478.28 540.95 C 477.69 535.56 472.88 535.28 469.01 537.92 C 460.61 532.09 483.23 518.77 467.04 517.93 C 458.21 512.75 468.83 507.06 474.67 507.71 C 477.89 486.89 473.85 464.61 468.11 444.82 C 455.35 433.86 477.66 429.68 477.83 419.29 C 476.48 415.59 467.92 419.07 470.57 414.65 C 475.17 411.51 472.66 403.38 467.53 402.36 C 466.24 386.30 445.93 394.40 436.01 394.03 C 416.20 391.98 403.49 409.70 386.06 414.97 C 380.70 412.97 384.46 407.30 388.20 405.20 C 408.04 393.42 430.80 386.45 449.21 372.02 C 446.42 370.83 439.62 376.41 440.29 372.32 C 456.58 365.69 468.74 352.50 483.78 343.84 C 494.01 340.36 503.09 334.01 511.31 327.16 C 493.54 328.17 471.67 324.35 463.83 306.14 C 462.14 294.95 449.47 290.89 447.76 279.20 C 437.29 275.39 435.27 264.62 430.35 256.60 C 424.61 253.64 416.13 255.82 412.20 249.63 C 408.92 238.68 420.97 231.62 419.92 220.97 C 419.72 212.35 423.33 202.56 418.18 194.78 C 399.56 187.14 377.71 191.66 358.88 184.87 C 377.25 178.98 399.47 183.49 418.32 182.31 C 423.71 164.03 445.68 164.97 460.88 167.14 C 475.60 181.37 496.06 185.88 513.08 195.96 C 522.78 193.76 528.85 183.97 524.26 174.69 C 522.23 170.19 517.29 166.73 518.09 161.26 C 533.71 154.67 550.99 158.48 567.34 156.35 Z" />
<path fill="#ffffff" opacity="1.00" d=" M 684.16 365.11 C 687.52 367.22 680.64 367.42 684.16 365.11 Z" />
<path fill="#ffffff" opacity="1.00" d=" M 683.10 373.26 C 686.37 373.44 681.56 376.29 683.10 373.26 Z" />
</svg>
