<?xml version="1.0" encoding="UTF-8" ?>
<!DOCTYPE svg PUBLIC "-//W3C//DTD SVG 1.1//EN" "http://www.w3.org/Graphics/SVG/1.1/DTD/svg11.dtd">
<svg width="1225pt" height="647pt" viewBox="0 0 1225 647" version="1.1" xmlns="http://www.w3.org/2000/svg">

<path fill="#ffffff" opacity="1.00" d=" M 608.34 81.46 C 625.76 83.62 637.40 98.78 646.81 112.16 C 651.35 121.56 661.78 123.74 669.15 129.87 C 680.24 144.28 669.46 165.45 682.85 178.15 C 691.24 186.66 696.84 198.33 697.03 210.37 C 690.90 211.70 693.38 222.03 688.65 225.51 C 679.11 231.31 669.44 236.97 659.43 241.63 C 644.85 255.83 631.14 271.55 622.12 289.93 C 628.67 297.83 640.95 288.63 646.73 298.25 C 650.96 306.07 658.64 310.32 664.66 316.48 C 663.71 326.00 665.45 335.45 673.66 341.28 C 674.32 348.58 679.98 353.80 683.01 360.26 C 678.35 358.06 676.88 350.62 670.86 350.92 C 673.10 356.60 678.30 360.56 681.20 365.93 C 678.01 362.86 670.84 360.22 674.00 368.97 C 665.70 368.87 647.99 364.71 642.82 376.77 C 640.14 383.15 630.29 378.83 628.04 385.99 C 618.93 405.11 603.00 420.18 583.78 428.77 C 566.14 435.14 547.14 439.51 529.09 445.25 C 530.07 464.43 526.03 484.41 531.99 502.95 C 527.86 509.24 528.94 518.98 522.60 523.37 C 516.49 524.28 515.03 533.19 508.24 532.07 C 510.26 528.22 505.11 524.04 509.03 521.05 C 511.89 518.39 516.63 516.66 516.06 511.88 C 510.00 516.99 504.84 525.24 495.91 525.09 C 500.19 521.41 500.36 513.70 507.65 512.58 C 514.49 507.98 502.28 510.38 501.83 505.16 C 493.09 511.47 499.03 496.14 505.67 499.28 C 517.15 504.91 520.85 492.15 521.45 483.53 C 522.76 471.03 524.67 457.87 521.28 445.70 C 509.29 443.26 498.12 452.98 485.54 450.36 C 474.72 461.84 480.72 477.89 481.09 491.95 C 481.05 506.44 489.52 519.16 488.97 533.74 C 486.76 536.20 484.22 536.02 483.04 532.84 C 483.79 537.88 482.73 547.38 476.38 547.99 C 477.55 540.29 469.05 538.05 466.24 545.05 C 463.37 536.96 468.99 532.30 471.82 525.07 C 465.31 522.49 457.28 521.26 464.62 514.59 C 473.10 516.56 475.51 507.03 474.04 500.01 C 473.79 478.94 471.44 456.89 463.01 438.13 C 467.44 432.58 473.75 428.27 477.63 421.61 C 479.52 414.85 462.76 417.80 470.11 412.09 C 474.26 408.48 474.00 404.20 468.93 402.08 C 463.21 393.04 450.63 396.74 441.59 398.53 C 422.97 399.45 402.49 399.00 387.04 411.07 C 384.30 413.00 378.02 414.77 380.14 409.25 C 399.56 398.08 419.82 388.11 438.33 375.33 C 440.70 373.63 448.59 370.12 437.70 371.73 C 457.07 360.68 473.23 343.47 494.69 336.65 C 504.47 331.36 492.49 333.17 487.51 333.47 C 471.55 335.98 455.85 325.29 452.55 309.45 C 441.02 304.99 436.32 291.85 423.72 289.30 C 410.11 276.10 390.13 274.76 374.95 264.06 C 363.22 251.42 349.78 238.33 346.15 220.87 C 321.92 197.49 294.68 175.96 274.32 148.71 C 266.21 144.70 259.86 137.89 253.93 131.27 C 254.69 123.37 243.40 121.53 248.93 112.95 C 257.02 104.32 270.36 107.14 279.90 112.12 C 301.22 126.03 318.00 145.82 341.60 156.46 C 352.50 163.82 359.30 175.56 369.39 183.61 C 376.06 184.17 382.60 193.95 389.39 197.55 C 401.63 204.58 414.84 212.88 428.01 216.14 C 427.38 222.77 430.71 222.27 436.05 220.23 C 440.37 228.62 451.01 225.53 456.57 232.44 C 464.43 241.27 476.56 244.68 485.11 252.53 C 495.81 249.71 497.53 263.33 503.72 267.55 C 514.44 261.68 515.08 278.29 523.24 281.44 C 530.15 279.40 530.91 270.66 530.27 264.23 C 536.19 257.41 533.46 247.13 539.47 240.50 C 546.63 235.28 548.24 226.09 553.28 219.20 C 556.22 203.62 570.71 194.58 576.76 181.10 C 569.58 165.91 580.78 148.91 576.47 133.46 C 571.73 128.36 568.33 114.95 580.19 119.80 C 579.66 117.41 566.22 110.60 570.27 104.13 C 575.89 103.92 580.58 108.25 586.12 109.02 C 582.03 103.14 573.27 99.46 573.95 91.07 C 578.88 92.27 583.87 93.19 588.87 94.10 C 587.15 90.28 582.78 87.54 582.93 83.10 C 591.41 82.86 600.03 83.71 608.34 81.46 M 475.37 531.35 C 468.90 537.17 478.12 534.93 475.37 531.35 Z" />
<path fill="#ffffff" opacity="1.00" d=" M 684.15 362.45 C 687.84 363.40 681.94 366.09 684.15 362.45 Z" />
<path fill="#ffffff" opacity="1.00" d=" M 682.26 366.10 C 685.29 364.56 682.44 369.37 682.26 366.10 Z" />
<path fill="#ffffff" opacity="1.00" d=" M 683.22 372.42 C 687.68 372.56 682.14 377.00 683.22 372.42 Z" />

</svg>
