<?xml version="1.0" encoding="UTF-8" ?>
<!DOCTYPE svg PUBLIC "-//W3C//DTD SVG 1.1//EN" "http://www.w3.org/Graphics/SVG/1.1/DTD/svg11.dtd">
<svg width="1225pt" height="647pt" viewBox="0 0 1225 647" version="1.1" xmlns="http://www.w3.org/2000/svg">

<path fill="#ffffff" opacity="1.00" d=" M 590.47 261.47 C 611.71 259.41 632.70 270.57 646.75 285.17 C 659.53 285.35 670.14 298.16 683.20 294.27 C 700.09 298.06 717.65 304.32 735.10 303.87 C 742.70 307.83 751.69 310.40 757.98 315.85 C 768.33 310.78 767.26 328.68 777.76 325.04 C 783.63 317.13 797.95 323.80 806.91 325.31 C 828.54 329.23 849.58 334.31 871.26 336.78 C 888.56 347.14 910.05 340.67 926.96 348.95 C 935.80 348.47 956.26 348.09 952.39 362.40 C 946.54 366.44 957.63 369.04 949.94 372.06 C 931.11 375.97 912.01 381.33 892.46 379.43 C 874.21 376.17 856.20 371.14 839.11 364.16 C 830.87 369.68 821.78 363.38 813.98 360.05 C 791.97 350.81 770.61 338.23 746.56 335.42 C 737.28 331.89 726.70 339.92 718.14 333.82 C 713.25 329.05 708.37 336.33 702.95 335.03 C 695.47 335.69 689.81 328.47 681.86 331.00 C 685.11 339.08 687.07 347.70 691.96 355.30 C 687.75 352.99 686.77 345.46 680.91 346.99 C 680.55 352.25 693.87 361.06 683.73 359.34 C 683.06 360.83 685.34 368.02 680.28 364.80 C 668.83 364.95 654.68 360.42 645.51 369.51 C 638.85 377.13 623.92 366.76 620.14 378.12 C 605.19 401.95 576.85 411.34 552.71 422.54 C 541.27 417.92 537.06 430.31 529.84 435.84 C 524.76 461.94 534.38 488.58 529.45 514.55 C 530.05 517.85 524.00 525.34 523.65 519.04 C 519.77 521.24 518.24 533.58 512.44 529.63 C 505.49 519.22 519.72 514.20 519.97 503.80 C 513.10 510.09 510.28 521.09 499.91 523.09 C 503.02 518.43 501.43 511.94 507.79 509.79 C 504.95 504.53 501.02 506.47 499.00 511.17 C 495.68 501.96 506.12 497.68 513.66 497.70 C 527.98 476.34 520.20 447.64 520.35 423.74 C 510.37 424.22 501.81 433.15 490.93 431.88 C 475.41 457.69 493.19 489.14 493.23 516.84 C 495.32 521.40 493.98 530.33 487.40 527.28 C 487.46 532.33 485.24 538.31 480.24 540.24 C 482.41 533.55 474.22 525.04 470.50 534.31 C 468.79 526.42 473.67 521.37 475.84 514.43 C 469.72 512.21 463.00 513.91 468.94 505.96 C 472.69 503.13 479.15 505.03 479.00 498.04 C 482.42 475.34 476.86 452.19 472.62 430.29 C 461.25 420.09 478.55 412.60 481.16 403.18 C 485.45 399.04 478.88 396.51 475.21 397.23 C 464.72 393.74 462.64 406.92 458.65 413.54 C 458.08 431.97 448.16 449.54 430.94 456.97 C 412.45 473.52 383.91 475.32 362.43 467.03 C 360.12 455.00 340.73 467.82 337.42 457.39 C 321.13 453.72 304.38 455.84 287.91 453.99 C 291.31 452.59 292.34 448.00 288.67 446.20 C 276.76 445.94 264.86 445.78 252.98 444.97 C 247.59 442.19 265.26 443.16 257.74 440.42 C 240.45 441.32 223.12 441.05 205.81 440.92 C 209.87 434.31 221.22 436.40 228.30 433.90 C 228.72 429.49 231.31 424.13 236.10 423.14 C 238.39 422.25 245.08 421.36 239.15 420.75 C 240.14 411.35 253.89 413.91 255.44 405.39 C 257.37 399.44 266.98 398.56 266.70 392.26 C 278.89 385.34 289.51 375.87 300.66 367.67 C 349.98 352.46 401.14 343.97 450.35 328.35 C 469.51 323.89 488.77 317.18 502.95 302.94 C 510.64 293.71 526.00 295.65 530.98 283.95 C 549.61 273.93 568.63 262.78 590.47 261.47 M 479.25 520.16 C 473.62 529.23 484.80 522.75 479.25 520.16 M 487.26 525.10 C 487.44 528.37 490.29 523.56 487.26 525.10 Z" />
<path fill="#ffffff" opacity="1.00" d=" M 689.14 361.37 C 693.13 360.72 688.33 365.34 689.14 361.37 Z" />
<path fill="#ffffff" opacity="1.00" d=" M 231.75 444.03 C 233.95 445.51 239.48 442.21 241.25 444.97 C 239.01 443.40 233.54 446.82 231.75 444.03 Z" />


</svg>
