<?xml version="1.0" encoding="UTF-8" ?>
<!DOCTYPE svg PUBLIC "-//W3C//DTD SVG 1.1//EN" "http://www.w3.org/Graphics/SVG/1.1/DTD/svg11.dtd">
<svg width="1225pt" height="647pt" viewBox="0 0 1225 647" version="1.1" xmlns="http://www.w3.org/2000/svg">

<path fill="#ffffff" opacity="1.00" d=" M 672.31 246.47 C 686.76 247.97 703.32 246.63 713.41 259.64 C 731.78 277.86 743.62 301.67 764.28 317.71 C 773.54 329.35 782.12 342.03 788.69 355.33 C 786.46 363.25 793.86 368.64 796.58 375.49 C 809.34 408.65 820.67 442.56 833.13 475.90 C 832.56 481.63 841.26 492.40 832.86 494.99 C 828.30 496.19 828.13 490.43 825.23 488.70 C 813.31 483.90 815.33 467.41 804.16 461.89 C 797.42 455.98 793.32 447.80 788.69 440.29 C 773.31 424.47 751.28 417.95 735.81 402.23 C 730.92 398.14 730.58 407.41 727.25 409.35 C 719.61 412.07 712.79 405.00 706.21 403.24 C 698.09 408.50 691.61 396.60 684.48 397.47 C 673.44 406.11 666.20 386.77 655.18 389.41 C 647.10 390.06 642.65 383.10 636.60 379.33 C 626.80 380.42 619.42 387.07 610.73 392.66 C 591.42 402.97 569.57 407.02 548.91 413.75 C 544.15 413.36 529.93 412.69 536.07 420.88 C 537.72 450.78 549.76 479.73 553.00 509.03 C 534.24 496.29 537.16 469.68 524.05 452.71 C 524.89 486.96 528.90 520.88 529.96 555.15 C 515.67 552.18 516.46 535.06 513.95 524.11 C 513.70 521.76 510.23 517.58 508.39 520.74 C 506.25 519.03 505.66 514.26 502.27 515.22 C 497.69 535.10 502.13 559.00 495.91 579.04 C 477.22 564.36 491.66 535.14 480.28 516.75 C 480.74 526.18 472.56 533.05 471.36 542.33 C 465.93 557.00 474.45 580.38 460.14 591.06 C 453.80 566.16 461.30 541.32 460.21 516.14 C 461.81 499.98 465.46 484.01 465.97 467.75 C 457.12 484.68 456.02 505.24 453.06 524.11 C 442.56 542.01 449.24 566.85 436.99 582.93 C 429.84 569.07 437.09 550.18 438.73 534.87 C 443.23 510.29 447.84 485.69 449.89 460.76 C 441.15 483.14 438.98 507.68 430.06 530.02 C 429.07 532.56 427.71 535.16 425.01 536.19 C 423.23 509.41 433.16 483.90 436.94 457.75 C 428.49 473.71 429.30 494.57 417.95 508.84 C 413.90 501.22 418.92 487.24 418.93 477.78 C 415.30 480.82 414.18 485.80 411.00 489.26 C 408.23 480.55 413.00 471.59 411.95 462.70 C 410.03 465.60 408.66 468.93 406.10 471.36 C 407.07 452.98 411.65 434.99 413.90 416.78 C 408.33 421.53 408.94 433.80 401.01 435.11 C 399.69 422.56 405.56 410.99 406.96 398.80 C 401.66 406.25 399.13 415.33 393.58 422.67 C 388.70 425.03 391.35 417.76 392.09 415.09 C 394.22 406.50 398.40 398.49 400.07 389.80 C 396.53 393.17 394.15 397.53 390.91 401.17 C 391.98 391.19 396.72 381.46 396.45 371.48 C 390.64 365.79 400.50 355.06 389.94 353.63 C 399.29 349.01 410.75 342.41 412.11 331.05 C 408.12 331.50 404.27 332.97 400.23 332.91 C 393.23 315.32 413.89 306.10 423.81 295.86 C 435.51 288.37 448.32 282.19 461.85 278.82 C 470.53 272.50 473.17 254.79 486.52 258.30 C 501.77 258.33 515.00 272.78 529.30 269.69 C 539.81 276.94 553.22 275.39 563.10 268.13 C 588.62 257.46 617.93 256.30 643.79 266.10 C 647.60 257.19 658.65 253.31 668.03 252.06 C 671.06 251.97 671.39 248.65 672.31 246.47 M 682.91 338.86 C 684.20 343.87 688.24 347.71 689.32 352.82 C 687.44 352.13 684.83 349.74 683.21 352.08 C 682.80 359.73 690.15 364.12 696.81 365.11 C 694.73 355.80 693.79 341.91 682.91 338.86 Z" />

</svg>
