<?xml version="1.0" encoding="UTF-8" ?>
<!DOCTYPE svg PUBLIC "-//W3C//DTD SVG 1.1//EN" "http://www.w3.org/Graphics/SVG/1.1/DTD/svg11.dtd">
<svg width="1225pt" height="647pt" viewBox="0 0 1225 647" version="1.1" xmlns="http://www.w3.org/2000/svg">

<path fill="#ffffff" opacity="1.00" d=" M 526.46 202.48 C 531.78 199.51 536.10 204.32 537.05 209.00 C 546.05 220.72 550.07 235.79 555.78 249.11 C 564.07 249.53 559.84 260.95 566.65 263.42 C 580.61 266.25 590.97 253.41 603.68 249.72 C 613.10 244.77 626.46 246.66 632.37 236.34 C 636.00 230.57 645.39 231.72 646.15 224.12 C 657.00 223.49 673.84 217.98 677.43 232.64 C 685.84 232.50 685.12 241.07 683.40 246.62 C 690.80 267.37 685.01 291.07 696.50 310.59 C 698.07 324.69 701.76 345.08 685.86 352.69 C 686.57 374.24 672.64 393.30 665.03 413.02 C 661.72 419.04 660.77 426.76 655.17 431.28 C 653.59 410.70 653.20 389.90 651.30 369.64 C 636.86 364.01 632.40 382.22 623.29 389.29 C 598.46 409.14 565.56 417.98 534.68 416.63 C 530.05 419.82 525.22 423.56 522.30 428.38 C 523.48 447.26 518.70 466.44 523.02 485.03 C 524.06 491.56 518.21 496.42 518.42 502.93 C 518.89 506.84 514.91 511.73 511.80 511.43 C 512.53 502.44 506.53 519.11 500.32 518.07 C 493.32 506.72 508.10 502.95 510.17 492.86 C 502.00 496.87 498.62 508.91 488.12 509.25 C 488.30 501.93 502.67 496.33 493.39 493.38 C 486.52 503.06 488.77 485.94 496.01 487.08 C 502.16 486.98 508.90 486.26 509.87 478.87 C 517.53 458.05 515.40 435.50 514.70 413.90 C 507.22 412.56 500.69 417.32 493.34 416.58 C 481.72 411.68 477.22 426.19 475.67 434.55 C 467.93 435.41 475.79 444.34 475.37 449.47 C 472.54 466.26 476.85 482.09 477.35 498.69 C 481.58 511.47 462.39 517.92 454.96 514.02 C 448.38 507.35 458.51 503.52 457.92 497.25 C 453.77 497.74 443.16 494.29 449.46 489.61 C 465.01 484.87 465.25 466.13 467.93 452.96 C 466.72 443.95 471.51 436.43 471.98 427.64 C 457.59 428.85 463.51 410.17 460.14 401.29 C 467.35 397.06 473.20 390.62 477.90 383.91 C 474.22 379.62 463.04 383.17 460.07 377.39 C 464.40 376.29 468.78 375.25 472.82 373.30 C 469.30 366.30 461.49 360.65 461.39 352.24 C 442.96 350.19 422.88 342.54 405.65 352.63 C 399.69 355.16 393.39 356.47 386.95 355.51 C 368.43 367.25 356.36 390.58 333.01 394.02 C 341.75 383.23 340.48 367.73 352.63 359.62 C 366.39 338.04 384.57 319.61 403.78 302.77 C 407.24 299.31 401.24 296.62 398.15 296.72 C 405.85 282.75 420.38 275.41 433.77 267.83 C 458.68 247.46 486.82 231.18 510.70 209.67 C 514.87 205.38 520.80 203.70 526.46 202.48 M 463.43 280.38 C 443.92 286.66 440.24 310.91 423.68 321.65 C 416.19 326.73 408.36 333.23 404.17 340.72 C 420.47 341.78 438.14 334.15 454.65 329.72 C 459.92 325.59 442.96 331.28 449.83 326.78 C 470.02 320.59 489.63 312.71 509.15 304.61 C 493.08 298.12 482.00 280.65 463.43 280.38 Z" />

</svg>
