<?xml version="1.0" encoding="UTF-8" ?>
<!DOCTYPE svg PUBLIC "-//W3C//DTD SVG 1.1//EN" "http://www.w3.org/Graphics/SVG/1.1/DTD/svg11.dtd">
<svg width="1225pt" height="647pt" viewBox="0 0 1225 647" version="1.1" xmlns="http://www.w3.org/2000/svg">

<path fill="#ffffff" opacity="1.00" d=" M 420.65 15.49 C 424.06 13.74 427.58 17.80 429.83 20.17 C 432.16 24.11 437.07 18.49 440.18 21.57 C 455.15 36.85 470.13 52.19 481.74 70.28 C 478.81 54.71 490.32 66.94 492.56 73.38 C 501.43 95.71 508.57 119.58 525.78 137.22 C 530.26 145.47 544.35 147.93 543.69 158.38 C 555.19 155.22 546.43 168.59 554.86 170.18 C 562.47 171.21 559.29 191.24 567.22 182.25 C 574.34 168.54 589.46 162.55 598.61 150.64 C 608.54 123.97 593.14 98.76 590.85 72.69 C 592.83 68.05 588.69 58.59 595.75 58.55 C 593.06 48.94 600.31 47.80 605.77 54.79 C 602.93 44.05 614.51 49.36 615.96 54.99 C 618.44 58.30 617.67 47.33 620.94 51.08 C 635.12 63.83 641.25 84.02 656.57 95.50 C 658.75 98.31 662.07 93.35 664.08 95.93 C 677.16 111.30 680.09 132.26 686.09 150.92 C 696.03 164.59 712.62 177.07 711.86 195.86 C 709.03 203.43 707.30 212.36 698.98 215.97 C 672.60 233.58 654.05 262.12 646.24 292.60 C 657.24 296.12 663.50 308.87 675.10 309.95 C 683.28 313.77 681.64 324.64 687.57 330.42 C 694.62 338.63 691.07 350.12 690.40 359.62 C 696.98 369.07 693.91 380.06 699.05 389.98 C 699.38 393.54 703.02 398.78 699.90 401.95 C 695.58 398.92 693.10 393.58 688.31 390.93 C 690.58 399.46 686.13 396.81 683.14 393.94 C 673.15 392.26 661.84 380.80 652.02 388.03 C 639.55 386.73 632.36 397.86 624.25 405.26 C 609.70 414.31 593.74 421.99 576.31 423.32 C 566.70 423.80 557.61 430.62 548.07 426.07 C 543.79 429.63 538.35 432.81 535.58 437.62 C 535.55 454.02 533.29 470.86 534.86 487.12 C 540.63 497.06 532.44 506.38 532.29 516.30 C 527.84 518.72 522.85 520.35 519.95 525.00 C 513.32 528.90 513.90 519.11 513.48 514.84 C 509.86 516.00 506.61 518.11 502.91 519.09 C 505.10 513.19 507.44 507.62 514.29 506.05 C 511.86 501.65 501.59 503.43 506.28 497.31 C 510.05 491.87 520.18 498.21 523.00 490.94 C 530.12 470.01 529.28 447.11 526.46 425.50 C 512.57 422.81 498.87 427.30 485.10 424.04 C 467.80 436.46 476.14 461.29 472.45 479.39 C 474.21 490.50 477.82 503.30 474.77 513.96 C 467.22 508.33 471.16 518.39 465.75 522.94 C 459.34 523.15 459.94 509.99 453.96 516.90 C 444.78 512.50 463.46 503.45 454.33 499.74 C 446.15 500.97 451.95 488.48 457.74 490.51 C 470.05 467.43 467.79 438.86 465.87 414.02 C 459.40 403.08 476.13 405.22 478.36 397.38 C 491.35 394.72 478.88 384.24 472.87 381.72 C 475.48 378.64 480.93 381.00 483.95 377.96 C 477.37 369.86 474.01 362.10 469.97 353.09 C 469.31 346.26 460.94 346.53 456.67 342.26 C 441.23 340.50 426.42 353.03 410.69 349.38 C 405.06 345.80 406.59 338.77 406.11 333.10 C 421.73 323.89 440.88 332.34 457.78 329.89 C 459.37 320.48 469.76 322.97 477.00 323.01 C 497.68 323.93 516.61 313.73 535.35 306.32 C 520.14 304.82 500.97 303.19 492.67 288.33 C 489.06 280.31 488.73 269.13 496.74 263.65 C 489.40 256.48 482.00 243.66 489.69 234.18 C 481.97 227.85 476.85 219.52 475.20 209.76 C 450.05 196.26 460.44 165.32 461.01 142.99 C 467.20 125.12 455.87 108.70 449.15 92.94 C 440.21 72.12 423.76 55.28 417.73 33.19 C 414.23 27.15 416.00 20.17 420.65 15.49 M 465.52 337.28 C 468.84 340.71 470.99 334.72 465.52 337.28 M 687.94 376.93 C 688.77 383.44 692.21 391.25 696.98 395.22 C 696.62 388.80 694.11 379.49 687.94 376.93 M 462.36 504.29 C 461.02 505.98 458.70 507.79 459.73 510.20 C 460.54 516.47 465.74 501.85 462.36 504.29 M 520.34 506.37 C 517.73 508.03 515.62 510.37 513.97 512.96 C 518.31 517.40 522.05 507.35 520.34 506.37 M 525.14 516.37 C 524.33 520.34 529.13 515.72 525.14 516.37 Z" />





</svg>
