<?xml version="1.0" encoding="UTF-8" ?>
<!DOCTYPE svg PUBLIC "-//W3C//DTD SVG 1.1//EN" "http://www.w3.org/Graphics/SVG/1.1/DTD/svg11.dtd">
<svg width="1225pt" height="647pt" viewBox="0 0 1225 647" version="1.1" xmlns="http://www.w3.org/2000/svg">

<path fill="#ffffff" opacity="1.00" d=" M 729.95 123.02 C 736.09 130.49 745.96 122.86 752.71 128.70 C 759.72 119.33 767.27 130.24 774.94 132.09 C 781.57 139.80 792.72 144.73 791.16 156.98 C 797.27 170.85 787.72 184.72 791.90 198.12 C 800.90 209.04 791.91 223.43 782.80 230.80 C 765.07 237.00 772.75 260.68 759.75 271.79 C 738.65 292.82 704.62 277.21 680.43 291.24 C 672.99 291.05 668.31 297.30 662.18 300.37 C 665.64 306.66 671.14 311.55 677.73 314.31 C 685.52 317.97 683.80 329.25 690.54 333.55 C 697.53 342.50 693.62 354.03 693.70 364.39 C 700.71 375.88 700.36 388.96 704.51 401.44 C 705.31 417.47 694.84 391.63 691.81 401.94 C 680.61 395.82 669.31 389.06 656.14 388.03 C 650.69 393.67 642.23 387.27 636.03 392.06 C 623.73 404.58 608.45 413.14 591.39 417.16 C 579.35 418.16 571.82 430.16 558.85 427.84 C 537.29 439.97 552.28 468.40 551.57 487.53 C 558.67 498.03 556.14 510.81 552.73 521.69 C 545.79 522.85 541.03 538.29 535.88 528.12 C 535.63 519.70 522.57 528.24 526.01 518.06 C 526.71 515.21 531.06 514.65 533.08 512.71 C 531.07 508.96 523.00 509.95 525.18 504.27 C 528.36 499.99 534.52 502.27 538.72 499.75 C 546.37 487.34 541.79 471.90 542.64 458.22 C 540.10 447.49 535.75 436.37 537.90 425.22 C 524.27 420.66 509.32 428.04 495.14 425.62 C 483.37 432.96 485.68 448.94 486.77 461.05 C 485.96 480.62 493.29 498.86 494.96 517.95 C 486.39 512.96 490.68 531.11 482.29 526.77 C 479.07 523.35 474.70 522.09 470.65 520.32 C 466.78 515.49 479.66 509.91 471.91 507.12 C 463.38 504.25 470.91 497.56 475.16 495.22 C 481.68 473.24 480.10 449.34 476.28 426.97 C 479.34 419.82 467.00 413.84 475.20 408.22 C 483.09 407.15 484.07 397.41 491.95 395.81 C 488.25 392.32 485.36 388.26 484.86 383.16 C 481.44 382.19 472.00 376.63 482.98 378.05 C 488.47 379.99 485.70 373.99 484.31 371.70 C 477.58 370.09 483.62 360.96 477.38 359.55 C 472.17 355.91 474.59 343.94 465.05 346.92 C 451.02 334.81 432.74 352.09 416.58 352.58 C 407.11 356.81 401.53 344.03 407.99 337.92 C 424.10 331.83 441.78 332.89 458.55 329.71 C 460.97 316.80 478.94 323.00 487.70 320.69 C 497.25 318.61 508.73 317.36 516.18 311.24 C 501.19 311.69 488.55 303.49 477.15 294.87 C 464.71 295.00 453.39 287.79 441.10 285.89 C 428.41 281.76 418.97 270.61 405.51 268.47 C 398.60 259.24 386.30 260.91 377.02 254.97 C 369.71 254.46 366.12 247.07 359.56 245.55 C 347.71 248.60 357.92 234.06 350.19 231.28 C 343.35 229.54 338.72 224.68 333.05 221.02 C 330.29 205.92 305.61 204.63 306.17 189.09 C 324.13 196.28 340.16 210.37 360.19 211.68 C 367.69 213.01 375.35 212.99 382.88 214.14 C 394.76 220.17 401.71 235.08 414.87 238.24 C 425.44 247.49 441.34 247.42 453.72 254.21 C 460.51 256.02 467.13 263.81 474.44 259.62 C 495.05 262.16 513.93 273.35 534.95 274.14 C 543.15 275.93 550.13 280.84 557.80 283.96 C 565.26 274.33 573.42 267.32 576.17 255.15 C 584.60 252.94 579.13 243.02 585.45 238.46 C 591.47 229.34 603.84 235.32 611.93 229.88 C 618.11 225.75 623.83 221.28 628.49 215.51 C 637.65 215.21 643.03 207.04 651.54 205.56 C 658.52 198.98 670.91 196.53 672.40 185.18 C 674.56 179.16 678.56 174.38 684.79 172.82 C 685.86 164.11 697.84 166.25 698.33 157.41 C 706.41 158.53 701.82 148.25 704.19 144.19 C 707.40 136.62 712.80 149.47 718.87 146.18 C 717.15 140.58 715.34 134.95 715.86 128.96 C 723.25 136.48 735.95 135.64 729.95 123.02 M 468.50 336.28 C 471.86 339.68 474.00 333.74 468.50 336.28 M 691.94 382.99 C 692.20 386.42 694.88 389.79 697.95 391.28 C 696.22 388.49 695.83 382.85 691.94 382.99 M 478.30 513.24 C 476.83 518.41 483.25 513.09 478.30 513.24 M 537.24 516.27 C 535.07 521.48 542.19 515.94 537.24 516.27 Z" />


<path fill="#ffffff" opacity="1.00" d=" M 699.47 409.22 C 704.40 409.59 699.02 414.47 699.47 409.22 Z" />


</svg>
