<?xml version="1.0" encoding="UTF-8" ?>
<!DOCTYPE svg PUBLIC "-//W3C//DTD SVG 1.1//EN" "http://www.w3.org/Graphics/SVG/1.1/DTD/svg11.dtd">
<svg width="1225pt" height="647pt" viewBox="0 0 1225 647" version="1.1" xmlns="http://www.w3.org/2000/svg">

<path fill="#ffffff" opacity="1.00" d=" M 786.51 259.67 C 793.36 257.53 798.87 264.47 805.85 262.79 C 812.22 260.78 817.88 264.29 823.66 266.30 C 831.73 268.06 842.21 264.69 848.31 271.79 C 856.23 270.95 866.67 262.41 872.79 272.17 C 879.99 277.94 884.49 271.43 890.89 268.96 C 899.54 279.11 914.63 275.56 926.66 277.12 C 922.85 288.67 942.00 282.28 937.33 293.88 C 937.05 299.47 947.87 302.77 942.16 308.15 C 939.66 315.79 944.32 325.04 939.52 332.44 C 923.12 340.02 905.83 346.02 887.80 347.83 C 868.80 361.08 847.47 347.34 827.51 346.49 C 802.08 339.92 776.23 332.46 749.89 332.09 C 727.69 326.63 705.79 319.69 683.00 316.97 C 688.10 326.12 692.65 334.54 697.88 343.10 C 700.22 355.93 695.46 368.96 704.02 380.00 C 702.18 390.13 710.64 399.10 709.96 409.78 C 705.31 413.90 703.68 402.76 698.40 403.02 C 698.35 408.63 694.23 403.38 691.61 402.48 C 681.00 396.98 669.73 390.19 658.06 390.07 C 648.17 396.10 635.53 383.31 627.34 393.34 C 617.78 404.37 600.66 404.18 590.66 413.75 C 586.69 426.74 569.56 423.28 564.49 433.58 C 554.01 443.76 559.82 457.98 562.94 470.07 C 565.18 479.39 566.03 489.45 571.30 497.68 C 576.33 505.77 572.18 515.55 573.36 524.36 C 573.63 528.51 568.34 526.71 567.12 530.09 C 564.45 532.71 562.83 540.43 558.01 537.04 C 555.30 534.75 555.18 526.51 550.17 530.14 C 544.20 533.88 543.45 520.82 549.35 520.32 C 555.91 515.46 540.70 517.62 543.01 512.11 C 544.95 506.67 552.81 508.63 556.27 505.27 C 567.13 477.35 543.31 450.89 548.56 423.35 C 545.39 422.76 544.63 421.31 546.93 418.90 C 531.83 419.32 518.06 426.38 503.56 428.47 C 493.39 446.31 503.97 466.64 505.56 485.40 C 510.95 497.54 514.83 510.60 516.88 523.75 C 510.71 523.66 510.65 530.06 507.99 535.08 C 501.52 529.11 484.64 528.81 493.66 516.11 C 486.58 514.49 488.87 506.49 494.17 504.18 C 499.22 474.37 491.95 442.19 481.94 415.08 C 486.96 408.13 504.62 398.79 493.23 390.77 C 488.82 385.76 496.17 376.14 485.32 376.56 C 472.94 372.06 492.51 376.12 488.67 369.55 C 483.39 368.20 483.83 361.48 483.60 357.10 C 476.78 349.70 470.47 360.59 464.05 362.99 C 450.36 370.80 433.12 371.63 420.05 381.07 C 404.46 386.86 391.65 399.76 374.05 399.15 C 351.49 401.49 327.77 396.28 308.58 384.42 C 295.72 371.94 280.27 362.69 265.94 352.25 C 266.34 344.71 254.90 344.46 250.08 339.86 C 248.10 336.07 237.37 335.56 242.60 330.45 C 235.11 326.63 225.07 322.77 220.39 318.11 C 227.96 309.14 241.38 317.39 248.70 307.69 C 261.74 305.25 272.59 296.25 286.02 296.95 C 325.95 284.41 368.13 300.59 409.15 296.29 C 411.14 291.91 410.09 281.91 417.87 285.06 C 443.01 292.07 468.87 297.51 495.00 299.05 C 512.98 301.51 527.57 286.05 545.68 289.32 C 554.58 292.33 561.44 284.82 569.54 282.44 C 579.59 277.72 590.57 276.08 601.12 273.09 C 609.01 267.49 617.91 257.40 628.67 262.32 C 638.69 265.99 648.40 273.75 659.52 272.48 C 666.69 265.27 677.24 274.23 683.78 267.56 C 692.45 263.47 700.91 271.71 708.91 265.94 C 734.73 267.52 760.95 267.32 786.51 259.67 M 697.26 388.10 C 697.44 391.37 700.29 386.56 697.26 388.10 M 557.20 520.10 C 549.39 528.96 565.93 520.74 557.20 520.10 Z" />
<path fill="#ffffff" opacity="1.00" d=" M 847.15 267.45 C 850.84 268.40 844.94 271.09 847.15 267.45 Z" />

<path fill="#ffffff" opacity="1.00" d=" M 704.48 413.23 C 709.40 413.58 704.01 418.47 704.48 413.23 Z" />

</svg>
