<?xml version="1.0" encoding="UTF-8" ?>
<!DOCTYPE svg PUBLIC "-//W3C//DTD SVG 1.1//EN" "http://www.w3.org/Graphics/SVG/1.1/DTD/svg11.dtd">
<svg width="1225pt" height="647pt" viewBox="0 0 1225 647" version="1.1" xmlns="http://www.w3.org/2000/svg">

<path fill="#ffffff" opacity="1.00" d=" M 608.47 271.54 C 631.04 268.86 654.88 276.56 669.30 294.49 C 674.29 292.33 677.75 299.67 682.19 296.23 C 688.29 292.38 688.29 305.24 695.61 301.34 C 706.79 298.98 717.90 301.93 728.39 305.64 C 736.92 309.72 749.87 298.49 755.13 308.57 C 766.70 305.48 776.21 315.43 787.79 314.30 C 785.06 323.57 797.43 325.57 803.93 329.99 C 818.48 336.94 827.82 350.52 842.98 357.04 C 864.29 368.49 886.01 379.85 904.89 395.12 C 926.91 407.11 950.24 416.59 973.68 425.38 C 976.35 431.36 983.89 430.72 988.40 434.73 C 985.71 434.62 980.33 434.39 977.64 434.28 C 980.00 436.09 984.20 435.96 985.22 439.03 C 976.26 439.46 968.46 434.22 959.80 432.99 C 962.62 435.58 967.94 436.13 969.13 440.06 C 955.91 438.14 944.44 430.52 931.80 426.96 C 937.01 430.20 942.35 433.28 947.24 437.01 C 934.34 436.26 924.04 427.12 911.92 423.81 C 914.53 425.28 919.89 430.70 913.61 428.45 C 891.17 420.27 868.47 412.79 845.34 406.68 C 830.90 403.38 817.19 393.62 801.96 398.94 C 787.67 396.86 773.05 398.95 759.02 395.16 C 744.72 402.01 730.61 391.97 716.00 397.00 C 710.35 395.78 714.74 403.41 711.85 406.05 C 707.20 405.43 706.37 398.34 701.37 398.00 C 700.86 404.29 695.07 395.55 691.43 395.44 C 679.57 386.73 664.63 397.65 652.71 389.40 C 645.40 391.13 637.98 393.72 630.92 389.32 C 619.86 400.88 596.35 398.15 593.77 416.80 C 588.06 427.31 572.44 426.75 568.96 439.03 C 567.51 444.88 560.85 449.85 564.56 456.35 C 569.09 470.44 573.67 484.59 578.55 498.55 C 588.18 507.79 583.88 521.72 585.08 533.06 C 581.31 538.81 582.38 533.52 579.33 530.73 C 578.78 535.12 578.26 544.05 573.13 545.11 C 562.59 536.87 575.11 527.17 574.02 516.78 C 567.73 523.89 568.38 536.02 558.70 540.63 C 553.13 536.99 567.67 522.92 558.78 523.70 C 555.46 536.25 552.54 516.90 559.99 515.98 C 575.88 512.39 567.71 492.17 565.77 481.16 C 563.62 467.49 555.21 455.98 552.37 442.60 C 549.41 437.44 557.38 429.16 549.76 427.02 C 554.71 424.91 556.85 419.87 558.12 414.98 C 542.00 415.43 533.41 431.78 527.88 444.90 C 518.55 453.76 517.34 467.53 523.53 478.59 C 527.11 495.82 537.58 509.86 541.08 526.98 C 543.45 531.30 548.64 544.50 539.77 540.45 C 536.79 541.26 541.56 556.54 534.83 552.16 C 524.69 547.93 532.36 536.42 528.26 528.77 C 525.81 535.17 530.89 543.75 522.97 547.17 C 515.07 540.92 515.24 528.84 521.28 521.31 C 522.78 505.78 520.34 488.24 514.05 475.09 C 499.33 487.46 492.19 507.88 475.87 518.89 C 468.57 521.19 470.91 507.72 474.63 504.63 C 479.19 498.81 486.67 493.14 486.01 484.90 C 471.97 487.93 464.03 501.78 453.32 510.34 C 439.18 520.60 427.52 537.06 410.00 541.07 C 409.34 529.86 414.60 518.23 425.27 513.30 C 436.91 501.51 455.18 494.47 462.19 478.95 C 448.12 489.96 433.03 499.92 420.19 512.18 C 408.70 524.51 389.36 525.97 378.71 539.64 C 371.21 542.88 365.12 549.36 357.01 551.02 C 352.15 547.59 364.99 536.16 357.01 534.22 C 341.78 536.27 331.00 548.45 317.19 554.20 C 311.80 560.71 316.66 545.18 319.58 542.22 C 310.42 536.42 303.08 547.58 294.11 547.14 C 295.32 534.30 307.10 530.33 315.94 523.83 C 313.87 515.99 325.42 512.32 320.10 505.06 C 329.88 492.46 329.73 476.06 334.10 461.04 C 337.55 454.66 345.33 451.54 348.15 444.98 C 344.06 445.62 337.88 448.47 336.01 442.93 C 337.79 433.13 349.31 430.34 352.00 421.00 C 359.72 404.25 379.00 400.01 394.16 392.21 C 406.08 385.88 418.90 381.43 430.32 374.27 C 434.38 362.77 452.43 362.16 461.20 353.18 C 464.03 351.04 471.81 345.10 464.00 345.00 C 447.09 350.75 433.48 363.65 416.60 369.58 C 413.07 371.96 408.65 366.42 408.93 363.81 C 420.67 345.67 445.99 345.55 462.77 333.72 C 464.17 322.86 479.46 324.13 487.32 320.30 C 497.62 309.00 513.40 304.10 527.37 298.43 C 554.47 289.51 579.42 273.49 608.47 271.54 M 331.33 527.35 C 328.44 527.79 325.23 529.76 325.94 533.14 C 329.03 532.83 338.22 526.24 331.33 527.35 Z" />
<path fill="#ffffff" opacity="1.00" d=" M 707.29 407.47 C 712.53 409.00 706.68 413.32 707.29 407.47 Z" />

<path fill="#ffffff" opacity="1.00" d=" M 294.26 548.10 C 297.29 546.56 294.44 551.37 294.26 548.10 Z" />
</svg>
