<?xml version="1.0" encoding="UTF-8" ?>
<!DOCTYPE svg PUBLIC "-//W3C//DTD SVG 1.1//EN" "http://www.w3.org/Graphics/SVG/1.1/DTD/svg11.dtd">
<svg width="1225pt" height="647pt" viewBox="0 0 1225 647" version="1.1" xmlns="http://www.w3.org/2000/svg">

<path fill="#ffffff" opacity="1.00" d=" M 444.70 9.76 C 451.31 6.26 453.82 17.90 460.16 15.21 C 461.62 15.17 463.66 13.65 464.60 15.41 C 477.71 33.61 493.11 50.03 504.75 69.21 C 509.17 75.96 507.66 67.45 508.17 63.78 C 524.41 78.89 522.73 103.04 533.95 121.03 C 540.73 136.24 552.25 149.35 563.05 160.97 C 567.98 161.59 566.64 166.95 567.29 170.63 C 580.12 168.39 569.47 184.71 581.85 186.02 C 592.23 177.26 595.01 162.54 607.30 155.30 C 625.44 143.91 620.55 119.47 620.43 101.55 C 610.58 82.47 611.27 57.88 622.23 39.14 C 625.48 40.38 629.07 45.26 630.90 39.84 C 636.27 33.27 638.71 54.33 645.37 44.32 C 661.63 58.20 665.67 83.32 683.40 96.48 C 688.36 91.78 692.14 100.30 694.09 103.95 C 704.12 120.80 700.05 141.87 709.10 158.90 C 718.11 167.32 724.43 178.11 729.90 189.09 C 734.41 201.40 729.23 216.29 718.08 223.10 C 690.69 241.86 668.56 271.08 662.08 303.74 C 675.05 310.09 683.83 323.26 696.53 330.44 C 699.87 343.26 710.79 352.98 707.57 367.47 C 702.45 379.47 714.42 388.77 711.50 400.63 C 713.42 407.30 715.87 414.00 714.95 421.07 C 709.48 422.48 707.73 408.53 702.95 415.07 C 690.35 409.79 675.84 394.17 660.28 400.31 C 645.16 396.55 636.33 414.21 622.81 417.72 C 595.41 425.35 566.36 425.37 538.19 424.05 C 529.60 441.74 542.14 460.44 532.79 477.79 C 526.21 474.91 526.79 484.30 521.90 486.01 C 515.52 487.45 518.88 473.88 513.02 477.01 C 505.72 481.33 507.09 468.26 513.26 468.09 C 516.69 463.78 506.40 464.65 507.99 460.10 C 509.77 454.97 517.23 457.95 520.82 454.80 C 526.41 445.26 529.32 433.90 531.81 423.04 C 522.46 417.49 512.20 424.13 502.56 420.43 C 496.09 416.24 491.97 422.57 489.40 427.43 C 486.43 454.09 491.75 480.59 494.98 506.91 C 494.65 511.70 487.07 505.08 488.40 510.68 C 489.06 518.70 479.82 519.77 477.46 512.54 C 470.77 514.29 467.47 506.24 473.86 502.86 C 481.07 496.69 465.98 496.19 469.57 489.64 C 488.46 482.84 478.08 456.39 481.82 440.96 C 482.30 430.74 476.02 421.43 478.92 411.16 C 472.69 406.57 476.52 397.00 484.80 398.64 C 489.24 392.68 503.50 391.27 493.87 382.27 C 498.09 375.78 481.19 372.45 487.66 370.40 C 499.69 375.62 492.54 362.80 489.25 358.09 C 493.62 353.51 482.12 350.38 483.47 344.61 C 471.65 335.63 457.42 346.86 444.58 347.53 C 437.22 348.38 420.51 354.04 421.67 341.26 C 413.98 334.89 422.74 325.47 420.43 317.25 C 437.42 296.01 466.07 318.14 487.36 309.41 C 507.07 311.98 527.28 315.39 546.18 306.54 C 531.77 301.83 511.43 297.89 507.50 280.56 C 505.61 273.62 506.75 266.15 511.55 260.64 C 506.48 253.37 502.71 243.70 506.58 235.11 C 499.94 228.18 495.87 218.87 496.27 209.18 C 486.01 197.70 472.87 185.24 478.93 168.00 C 476.33 147.72 490.29 126.51 479.60 107.32 C 468.85 77.62 450.99 51.33 440.27 21.80 C 438.17 17.39 438.72 10.22 444.70 9.76 M 703.33 397.33 C 702.41 402.90 708.90 396.41 703.33 397.33 M 520.26 468.20 C 518.11 469.98 517.09 472.66 516.02 475.16 C 519.31 474.50 527.12 467.70 520.26 468.20 Z" />

<path fill="#ffffff" opacity="1.00" d=" M 710.10 425.26 C 713.37 425.44 708.56 428.29 710.10 425.26 Z" />

</svg>
