<?xml version="1.0" encoding="iso-8859-1"?>
<!-- Generator: Adobe Illustrator 19.0.0, SVG Export Plug-In . SVG Version: 6.00 Build 0)  -->
<svg version="1.1" id="Capa_1" xmlns="http://www.w3.org/2000/svg" xmlns:xlink="http://www.w3.org/1999/xlink" x="0px" y="0px"
	 viewBox="0 0 464 464" style="enable-background:new 0 0 464 464;" xml:space="preserve">
<rect y="336" style="fill:#B53C33;" width="464" height="32"/>
<polygon style="fill:#DDA137;" points="384,224 344,224 344,248 296,296 120,296 120,224 80,224 0,336 464,336 "/>
<rect x="120" y="48" style="fill:#DDD8CE;" width="176" height="248"/>
<polygon style="fill:#512869;" points="296,296 344,248 344,0 296,48 "/>
<polygon style="fill:#B53C33;" points="296,48 120,48 168,0 344,0 "/>
<g>
	<path style="fill:#512869;" d="M104,464L104,464c-13.256,0-24-10.744-24-24v-72h48v72C128,453.256,117.256,464,104,464z"/>
	<path style="fill:#512869;" d="M360,464L360,464c-13.256,0-24-10.744-24-24v-72h48v72C384,453.256,373.256,464,360,464z"/>
</g>
<rect x="120" y="96" style="fill:#B53C33;" width="176" height="152"/>
<polygon style="fill:#DDA137;" points="208,128 222.832,156.968 256,161.616 232,184.16 237.664,216 208,200.968 178.336,216 
	184,184.16 160,161.616 193.168,156.968 "/>
<g>
	<rect x="96" y="424" style="fill:#201F2D;" width="16" height="16"/>
	<rect x="352" y="424" style="fill:#201F2D;" width="16" height="16"/>
</g>
<g>
</g>
<g>
</g>
<g>
</g>
<g>
</g>
<g>
</g>
<g>
</g>
<g>
</g>
<g>
</g>
<g>
</g>
<g>
</g>
<g>
</g>
<g>
</g>
<g>
</g>
<g>
</g>
<g>
</g>
</svg>
