<?xml version="1.0" encoding="UTF-8" ?>
<!DOCTYPE svg PUBLIC "-//W3C//DTD SVG 1.1//EN" "http://www.w3.org/Graphics/SVG/1.1/DTD/svg11.dtd">
<svg width="950pt" height="501pt" viewBox="0 0 950 501" version="1.1" xmlns="http://www.w3.org/2000/svg">
<path fill="#ffffff" opacity="1.00" d=" M 594.47 45.67 C 599.37 43.51 606.14 47.14 605.50 52.89 C 605.44 59.95 595.03 61.87 591.17 56.75 C 588.45 53.12 590.04 47.11 594.47 45.67 Z" />
<path fill="#ffffff" opacity="1.00" d=" M 237.50 53.00 C 251.79 52.99 266.08 53.00 280.37 53.00 C 280.37 56.29 280.37 59.58 280.37 62.87 C 275.21 62.88 270.04 62.87 264.87 62.88 C 264.87 76.92 264.87 90.96 264.88 105.00 C 260.96 105.00 257.04 105.00 253.12 105.00 C 253.13 90.96 253.12 76.92 253.13 62.87 C 247.92 62.87 242.71 62.88 237.50 62.87 C 237.50 59.58 237.50 56.29 237.50 53.00 Z" />
<path fill="#ffffff" opacity="1.00" d=" M 680.33 65.43 C 680.84 61.91 681.34 58.39 681.87 54.88 C 685.08 54.87 688.28 54.87 691.50 54.87 C 691.49 58.37 691.49 61.87 691.50 65.38 C 697.08 65.38 702.66 65.37 708.25 65.38 C 708.25 68.46 708.24 71.54 708.25 74.62 C 702.67 74.63 697.08 74.62 691.50 74.62 C 691.56 79.72 691.37 84.82 691.58 89.91 C 691.68 92.29 692.62 95.00 695.02 95.95 C 699.11 97.63 703.68 96.62 707.77 95.45 C 708.39 98.28 709.11 101.08 709.79 103.89 C 703.12 105.75 695.84 107.11 689.11 104.81 C 684.44 103.28 681.01 98.96 680.29 94.14 C 679.27 87.69 679.94 81.12 679.75 74.62 C 676.41 74.62 673.08 74.62 669.75 74.62 C 669.74 71.72 669.74 68.81 669.75 65.91 C 673.27 65.74 676.80 65.57 680.33 65.43 Z" />
<path fill="#ffffff" opacity="1.00" d=" M 285.38 65.38 C 289.25 65.37 293.13 65.38 297.01 65.38 C 300.73 75.09 304.83 84.67 307.79 94.65 C 310.71 84.80 314.03 75.08 317.41 65.38 C 321.10 65.38 324.80 65.38 328.50 65.37 C 323.12 79.09 317.78 92.83 312.39 106.54 C 310.57 110.93 308.25 115.51 304.06 118.08 C 299.39 121.03 293.54 120.81 288.29 119.94 C 288.87 116.98 289.59 114.04 290.21 111.08 C 293.07 111.22 296.29 111.65 298.78 109.87 C 300.80 108.56 301.67 106.21 302.60 104.10 C 296.86 91.19 291.11 78.29 285.38 65.38 Z" />
<path fill="#ffffff" opacity="1.00" d=" M 336.50 65.38 C 339.63 65.41 342.77 65.27 345.91 65.44 C 346.42 66.71 346.68 68.07 347.07 69.38 C 350.96 66.29 355.79 63.85 360.90 64.56 C 367.21 65.04 372.27 70.26 373.79 76.20 C 375.80 83.70 375.35 92.34 370.81 98.86 C 367.58 103.67 361.64 106.75 355.81 105.85 C 352.77 105.48 350.22 103.67 347.86 101.86 C 348.41 107.81 348.23 113.78 348.25 119.75 C 344.33 119.75 340.42 119.75 336.50 119.75 C 336.50 101.63 336.51 83.50 336.50 65.38 M 348.31 77.43 C 348.19 82.96 348.26 88.49 348.27 94.03 C 351.40 96.09 355.79 97.60 359.13 95.12 C 363.10 92.05 363.08 86.40 362.70 81.87 C 362.47 78.57 360.73 74.65 357.06 74.18 C 353.72 73.37 350.79 75.50 348.31 77.43 Z" />
<path fill="#ffffff" opacity="1.00" d=" M 387.28 72.29 C 393.71 63.79 407.23 61.80 415.74 68.24 C 421.77 72.99 423.01 81.42 421.87 88.60 C 412.87 88.68 403.87 88.56 394.87 88.66 C 395.71 91.09 396.55 93.83 398.99 95.12 C 404.48 98.36 411.40 97.12 416.85 94.42 C 418.12 96.76 419.40 99.10 420.65 101.45 C 412.12 106.62 400.60 107.94 391.91 102.44 C 381.99 96.26 380.24 81.25 387.28 72.29 M 394.73 80.82 C 400.45 80.89 406.17 80.96 411.89 80.77 C 411.31 77.90 410.22 74.43 406.92 73.78 C 401.63 71.98 395.91 75.46 394.73 80.82 Z" />
<path fill="#ffffff" opacity="1.00" d=" M 435.39 70.47 C 439.07 65.90 445.36 64.57 450.95 64.48 C 457.29 64.14 463.26 66.69 468.61 69.84 C 466.86 72.18 465.10 74.51 463.37 76.87 C 458.27 73.99 451.97 71.73 446.23 74.08 C 444.22 74.97 444.60 77.81 446.55 78.52 C 453.19 81.74 461.47 81.67 467.05 86.99 C 470.84 90.57 470.22 97.05 466.64 100.56 C 462.60 104.68 456.53 105.85 450.97 106.00 C 443.77 106.24 436.79 103.69 430.71 99.99 C 432.46 97.53 434.23 95.08 435.99 92.63 C 441.74 96.27 448.81 98.50 455.57 96.68 C 457.69 96.27 458.98 93.45 457.00 92.04 C 450.24 88.06 441.28 88.38 435.57 82.48 C 432.28 79.32 432.70 73.87 435.39 70.47 Z" />
<path fill="#ffffff" opacity="1.00" d=" M 485.70 70.75 C 494.20 62.86 508.56 62.25 517.56 69.69 C 515.78 72.15 513.95 74.56 512.13 76.99 C 507.83 74.06 501.99 72.76 497.23 75.38 C 489.58 79.26 489.99 92.34 498.00 95.57 C 503.21 97.83 508.95 95.78 513.43 92.85 C 515.00 95.32 516.60 97.78 518.19 100.26 C 512.51 104.75 505.00 106.80 497.83 105.73 C 491.29 104.91 484.86 101.18 481.92 95.12 C 478.10 87.28 479.16 76.85 485.70 70.75 Z" />
<path fill="#ffffff" opacity="1.00" d=" M 531.50 65.38 C 534.70 65.38 537.90 65.38 541.10 65.38 C 541.43 68.32 541.76 71.27 542.07 74.21 C 544.28 71.05 546.82 67.92 550.42 66.28 C 555.26 63.87 561.06 63.97 566.04 65.93 C 565.23 69.20 564.43 72.47 563.68 75.75 C 560.81 75.18 557.89 74.43 554.96 74.88 C 549.58 75.55 544.85 79.71 543.31 84.85 C 543.14 91.56 543.30 98.28 543.25 105.00 C 539.33 105.00 535.42 105.00 531.50 105.00 C 531.50 91.79 531.50 78.58 531.50 65.38 Z" />
<path fill="#ffffff" opacity="1.00" d=" M 576.50 65.38 C 585.71 65.38 594.92 65.38 604.13 65.37 C 604.12 78.58 604.12 91.79 604.13 105.00 C 600.20 105.00 596.29 105.00 592.37 105.00 C 592.38 94.87 592.37 84.75 592.38 74.62 C 587.08 74.62 581.79 74.62 576.50 74.62 C 576.50 71.54 576.50 68.46 576.50 65.38 Z" />
<path fill="#ffffff" opacity="1.00" d=" M 623.75 65.38 C 626.95 65.38 630.15 65.37 633.36 65.38 C 633.63 66.74 633.90 68.11 634.18 69.47 C 638.08 66.41 642.85 63.89 647.98 64.54 C 654.24 64.96 659.36 70.02 660.95 75.92 C 663.08 83.54 662.63 92.39 657.96 99.01 C 654.71 103.72 648.85 106.72 643.10 105.86 C 640.05 105.48 637.46 103.68 635.07 101.90 C 635.68 107.83 635.46 113.80 635.50 119.75 C 631.58 119.75 627.66 119.75 623.75 119.75 C 623.75 101.63 623.75 83.50 623.75 65.38 M 635.50 77.54 C 635.51 83.05 635.47 88.55 635.52 94.06 C 638.61 96.04 642.86 97.57 646.19 95.23 C 650.32 92.28 650.32 86.55 649.96 81.99 C 649.74 78.58 647.94 74.55 644.13 74.14 C 640.79 73.44 637.90 75.55 635.50 77.54 Z" />
<path fill="#f2f1ef" opacity="1.00" d=" M 157.42 147.06 C 168.86 146.66 180.53 148.07 191.08 152.74 C 191.61 152.99 192.69 153.49 193.22 153.74 C 196.19 155.42 198.93 157.45 201.53 159.65 L 201.52 160.14 C 201.79 160.46 202.33 161.11 202.60 161.43 C 202.97 161.84 203.72 162.66 204.09 163.07 C 204.38 164.19 204.65 165.32 204.90 166.45 C 215.93 168.11 228.24 170.64 235.27 180.19 C 235.32 180.86 235.43 182.18 235.48 182.84 C 235.54 185.14 235.50 187.43 235.48 189.72 C 231.89 192.81 228.34 196.11 223.95 198.02 C 220.02 199.73 215.85 200.78 211.69 201.76 C 206.81 202.38 201.92 202.95 196.99 202.94 C 172.32 202.88 147.64 202.89 122.97 202.89 C 113.98 202.86 104.92 203.29 96.00 201.89 C 88.17 200.88 81.17 196.95 75.35 191.75 C 75.35 189.67 75.32 187.60 75.28 185.52 L 75.28 183.98 C 78.63 178.58 84.72 176.01 90.55 174.27 C 90.36 171.44 89.32 167.94 91.72 165.72 C 95.60 161.43 101.48 160.01 106.91 158.82 C 111.00 158.45 115.09 158.71 119.18 158.79 C 129.87 150.15 143.96 147.24 157.42 147.06 M 147.36 163.37 C 142.61 164.19 137.69 165.67 134.14 169.09 C 131.68 171.21 131.57 175.14 133.08 177.83 C 135.86 181.80 140.78 183.46 145.30 184.50 C 153.59 186.06 162.55 185.84 170.29 182.25 C 173.53 180.59 176.98 177.88 177.31 173.99 C 177.11 170.28 173.71 167.86 170.73 166.25 C 163.53 162.77 155.18 162.15 147.36 163.37 Z" />
<path fill="#5c546a" opacity="1.00" d=" M 692.53 159.85 C 695.20 153.18 701.56 147.91 708.99 148.11 C 771.33 148.03 833.68 148.08 896.02 148.08 C 902.22 147.85 908.47 151.11 911.49 156.59 C 914.41 161.19 913.60 166.85 913.72 172.02 C 913.75 213.45 913.64 254.88 913.78 296.31 C 884.41 296.37 855.05 296.32 825.69 296.34 C 810.54 296.28 795.39 296.27 780.25 296.35 C 753.16 296.35 726.08 296.29 698.99 296.38 C 696.80 296.34 694.61 296.11 692.47 295.73 C 691.85 283.17 692.39 270.55 692.21 257.97 C 692.21 227.99 692.22 198.01 692.21 168.03 C 692.20 165.30 692.35 162.57 692.53 159.85 M 708.31 163.59 C 706.54 164.78 706.67 167.16 706.61 169.04 C 706.63 176.84 706.65 184.64 706.65 192.44 C 706.57 221.14 706.77 249.85 706.55 278.55 C 707.95 280.21 709.55 281.92 711.98 281.44 C 773.38 281.42 834.78 281.45 896.18 281.42 C 896.76 281.08 897.91 280.41 898.48 280.08 C 898.84 277.71 899.17 275.33 899.19 272.94 C 899.14 246.11 899.20 219.28 899.16 192.45 C 899.18 185.31 899.15 178.17 899.22 171.03 C 899.10 168.66 899.31 166.06 898.05 163.95 C 896.63 162.86 894.74 162.90 893.07 162.80 C 833.04 162.81 773.00 162.82 712.97 162.79 C 711.39 162.88 709.74 162.88 708.31 163.59 Z" />
<path fill="#283238" opacity="1.00" d=" M 376.08 160.85 C 437.36 160.86 498.64 160.89 559.92 160.86 C 560.10 177.32 559.95 193.79 560.00 210.25 C 540.01 210.65 519.99 210.58 500.00 210.19 C 481.68 210.79 463.35 210.37 445.02 210.49 C 436.67 210.80 428.34 209.81 420.00 210.35 C 405.33 210.79 390.66 210.31 376.00 210.27 C 376.05 193.80 375.90 177.32 376.08 160.85 M 469.38 172.47 C 467.59 174.50 468.26 177.53 468.05 180.01 C 468.35 185.91 467.58 191.88 468.50 197.73 C 469.27 200.46 472.86 200.48 474.56 198.60 C 475.57 194.81 475.15 190.84 475.21 186.97 C 475.10 182.64 475.50 178.27 474.79 173.99 C 474.58 171.57 470.93 171.15 469.38 172.47 M 484.28 172.29 C 481.66 173.47 482.43 176.75 482.21 179.04 C 482.43 184.99 481.89 190.97 482.45 196.90 C 482.44 200.27 488.09 201.21 488.92 197.97 C 489.69 194.05 489.24 190.03 489.33 186.06 C 489.25 182.06 489.70 178.01 488.97 174.05 C 488.72 171.90 485.89 171.22 484.28 172.29 M 498.28 172.27 C 495.85 173.97 496.49 177.40 496.30 179.96 C 496.58 185.71 495.83 191.54 496.70 197.25 C 496.99 200.78 502.81 200.79 503.34 197.36 C 504.18 192.96 503.58 188.43 503.74 183.98 C 503.64 180.65 504.14 177.18 503.12 173.96 C 502.46 172.03 499.99 171.15 498.28 172.27 M 512.32 172.34 C 510.70 173.02 511.15 175.47 510.80 176.93 C 510.74 183.62 510.51 190.35 510.98 197.02 C 510.68 201.09 517.71 200.69 517.66 196.95 C 518.07 189.97 517.84 182.95 517.76 175.96 C 518.13 173.06 514.88 170.76 512.32 172.34 M 526.29 172.35 C 526.08 172.60 525.65 173.09 525.43 173.33 C 524.25 179.46 525.14 185.76 524.83 191.97 C 525.04 194.42 524.39 197.66 526.70 199.33 C 528.54 200.95 531.61 199.17 531.82 196.95 C 532.31 191.98 531.90 186.99 532.12 182.01 C 532.00 178.80 532.49 175.19 530.65 172.36 C 529.30 171.84 527.53 171.41 526.29 172.35 M 540.30 172.40 C 538.70 174.96 539.22 178.17 539.07 181.04 C 539.30 186.59 538.62 192.20 539.49 197.70 C 540.27 200.68 544.73 200.53 545.70 197.73 C 546.69 193.24 546.01 188.58 546.21 184.02 C 546.11 180.25 546.72 176.28 545.28 172.70 C 543.83 171.68 541.86 171.56 540.30 172.40 M 400.62 175.88 C 397.15 177.15 394.49 180.29 393.86 183.93 C 392.52 190.06 397.68 196.51 403.96 196.49 C 410.12 196.89 415.60 191.00 414.83 184.90 C 414.50 178.17 406.86 173.43 400.62 175.88 M 426.31 179.37 C 421.79 181.09 420.60 187.63 424.12 190.90 C 427.57 194.63 434.61 192.94 435.86 187.96 C 437.89 182.53 431.50 176.76 426.31 179.37 Z" />
<path fill="#cecdcb" opacity="1.00" d=" M 147.36 163.37 C 155.18 162.15 163.53 162.77 170.73 166.25 C 173.71 167.86 177.11 170.28 177.31 173.99 C 176.98 177.88 173.53 180.59 170.29 182.25 C 162.55 185.84 153.59 186.06 145.30 184.50 C 140.78 183.46 135.86 181.80 133.08 177.83 C 131.57 175.14 131.68 171.21 134.14 169.09 C 137.69 165.67 142.61 164.19 147.36 163.37 M 150.98 175.50 C 148.25 175.02 145.64 173.74 142.81 173.99 C 144.07 177.71 149.02 179.38 152.57 178.42 C 157.61 176.36 162.26 173.44 166.94 170.68 C 161.01 167.94 156.47 174.51 150.98 175.50 Z" />
<path fill="#ff4f19" opacity="1.00" d=" M 708.31 163.59 C 709.74 162.88 711.39 162.88 712.97 162.79 C 773.00 162.82 833.04 162.81 893.07 162.80 C 894.74 162.90 896.63 162.86 898.05 163.95 C 899.31 166.06 899.10 168.66 899.22 171.03 C 899.15 178.17 899.18 185.31 899.16 192.45 C 834.99 192.42 770.82 192.43 706.65 192.44 C 706.65 184.64 706.63 176.84 706.61 169.04 C 706.67 167.16 706.54 164.78 708.31 163.59 M 811.82 174.70 C 810.42 175.77 810.09 177.68 810.65 179.29 C 812.30 182.14 816.16 181.50 818.90 181.10 C 821.88 180.18 821.40 176.77 820.43 174.51 C 817.60 174.16 814.48 173.20 811.82 174.70 M 829.85 174.56 C 829.46 175.71 829.07 176.87 828.70 178.03 C 828.97 178.67 829.51 179.94 829.78 180.58 C 832.32 181.15 834.91 181.41 837.51 181.56 C 838.96 180.04 840.68 177.95 839.35 175.78 C 837.14 172.72 832.97 174.10 829.85 174.56 M 848.79 174.69 C 846.44 176.42 847.05 180.37 849.88 181.19 C 852.41 181.37 855.89 182.13 857.63 179.73 C 858.94 178.15 857.71 176.24 857.43 174.53 C 854.58 174.14 851.47 173.22 848.79 174.69 M 866.83 174.58 C 866.43 175.69 866.03 176.81 865.65 177.93 C 865.92 178.59 866.47 179.92 866.74 180.58 C 869.14 181.13 871.59 181.40 874.06 181.44 C 874.67 181.07 875.87 180.33 876.48 179.96 C 876.49 178.55 876.69 177.11 876.38 175.73 C 874.03 172.83 869.96 174.06 866.83 174.58 M 722.47 174.46 C 721.66 176.74 720.99 180.17 724.06 181.04 C 729.66 181.81 735.36 181.15 741.01 181.35 C 744.94 181.22 749.01 181.87 752.85 180.81 C 755.83 179.77 755.21 174.45 751.99 174.25 C 747.37 173.45 742.66 173.96 738.01 173.84 C 732.82 173.74 727.62 173.80 722.47 174.46 Z" />
<path fill="#f1f0ee" opacity="1.00" d=" M 150.98 175.50 C 156.47 174.51 161.01 167.94 166.94 170.68 C 162.26 173.44 157.61 176.36 152.57 178.42 C 149.02 179.38 144.07 177.71 142.81 173.99 C 145.64 173.74 148.25 175.02 150.98 175.50 Z" />
<path fill="#38454f" opacity="1.00" d=" M 469.38 172.47 C 470.93 171.15 474.58 171.57 474.79 173.99 C 475.50 178.27 475.10 182.64 475.21 186.97 C 475.15 190.84 475.57 194.81 474.56 198.60 C 472.86 200.48 469.27 200.46 468.50 197.73 C 467.58 191.88 468.35 185.91 468.05 180.01 C 468.26 177.53 467.59 174.50 469.38 172.47 Z" />
<path fill="#38454f" opacity="1.00" d=" M 484.28 172.29 C 485.89 171.22 488.72 171.90 488.97 174.05 C 489.70 178.01 489.25 182.06 489.33 186.06 C 489.24 190.03 489.69 194.05 488.92 197.97 C 488.09 201.21 482.44 200.27 482.45 196.90 C 481.89 190.97 482.43 184.99 482.21 179.04 C 482.43 176.75 481.66 173.47 484.28 172.29 Z" />
<path fill="#38454f" opacity="1.00" d=" M 498.28 172.27 C 499.99 171.15 502.46 172.03 503.12 173.96 C 504.14 177.18 503.64 180.65 503.74 183.98 C 503.58 188.43 504.18 192.96 503.34 197.36 C 502.81 200.79 496.99 200.78 496.70 197.25 C 495.83 191.54 496.58 185.71 496.30 179.96 C 496.49 177.40 495.85 173.97 498.28 172.27 Z" />
<path fill="#38454f" opacity="1.00" d=" M 512.32 172.34 C 514.88 170.76 518.13 173.06 517.76 175.96 C 517.84 182.95 518.07 189.97 517.66 196.95 C 517.71 200.69 510.68 201.09 510.98 197.02 C 510.51 190.35 510.74 183.62 510.80 176.93 C 511.15 175.47 510.70 173.02 512.32 172.34 Z" />
<path fill="#38454f" opacity="1.00" d=" M 526.29 172.35 C 527.53 171.41 529.30 171.84 530.65 172.36 C 532.49 175.19 532.00 178.80 532.12 182.01 C 531.90 186.99 532.31 191.98 531.82 196.95 C 531.61 199.17 528.54 200.95 526.70 199.33 C 524.39 197.66 525.04 194.42 524.83 191.97 C 525.14 185.76 524.25 179.46 525.43 173.33 C 525.65 173.09 526.08 172.60 526.29 172.35 Z" />
<path fill="#38454f" opacity="1.00" d=" M 540.30 172.40 C 541.86 171.56 543.83 171.68 545.28 172.70 C 546.72 176.28 546.11 180.25 546.21 184.02 C 546.01 188.58 546.69 193.24 545.70 197.73 C 544.73 200.53 540.27 200.68 539.49 197.70 C 538.62 192.20 539.30 186.59 539.07 181.04 C 539.22 178.17 538.70 174.96 540.30 172.40 Z" />
<path fill="#ffffff" opacity="1.00" d=" M 811.82 174.70 C 814.48 173.20 817.60 174.16 820.43 174.51 C 821.40 176.77 821.88 180.18 818.90 181.10 C 816.16 181.50 812.30 182.14 810.65 179.29 C 810.09 177.68 810.42 175.77 811.82 174.70 Z" />
<path fill="#ffffff" opacity="1.00" d=" M 829.85 174.56 C 832.97 174.10 837.14 172.72 839.35 175.78 C 840.68 177.95 838.96 180.04 837.51 181.56 C 834.91 181.41 832.32 181.15 829.78 180.58 C 829.51 179.94 828.97 178.67 828.70 178.03 C 829.07 176.87 829.46 175.71 829.85 174.56 Z" />
<path fill="#ffffff" opacity="1.00" d=" M 848.79 174.69 C 851.47 173.22 854.58 174.14 857.43 174.53 C 857.71 176.24 858.94 178.15 857.63 179.73 C 855.89 182.13 852.41 181.37 849.88 181.19 C 847.05 180.37 846.44 176.42 848.79 174.69 Z" />
<path fill="#ffffff" opacity="1.00" d=" M 866.83 174.58 C 869.96 174.06 874.03 172.83 876.38 175.73 C 876.69 177.11 876.49 178.55 876.48 179.96 C 875.87 180.33 874.67 181.07 874.06 181.44 C 871.59 181.40 869.14 181.13 866.74 180.58 C 866.47 179.92 865.92 178.59 865.65 177.93 C 866.03 176.81 866.43 175.69 866.83 174.58 Z" />
<path fill="#ffd200" opacity="1.00" d=" M 722.47 174.46 C 727.62 173.80 732.82 173.74 738.01 173.84 C 742.66 173.96 747.37 173.45 751.99 174.25 C 755.21 174.45 755.83 179.77 752.85 180.81 C 749.01 181.87 744.94 181.22 741.01 181.35 C 735.36 181.15 729.66 181.81 724.06 181.04 C 720.99 180.17 721.66 176.74 722.47 174.46 Z" />
<path fill="#e7eced" opacity="1.00" d=" M 400.62 175.88 C 406.86 173.43 414.50 178.17 414.83 184.90 C 415.60 191.00 410.12 196.89 403.96 196.49 C 397.68 196.51 392.52 190.06 393.86 183.93 C 394.49 180.29 397.15 177.15 400.62 175.88 Z" />
<path fill="#81ea1c" opacity="1.00" d=" M 426.31 179.37 C 431.50 176.76 437.89 182.53 435.86 187.96 C 434.61 192.94 427.57 194.63 424.12 190.90 C 420.60 187.63 421.79 181.09 426.31 179.37 Z" />
<path fill="#686a6b" opacity="0.47" d=" M 235.48 182.84 C 235.74 182.70 236.25 182.41 236.51 182.26 C 236.39 217.51 236.55 252.76 236.44 288.01 C 236.25 292.53 237.14 297.25 235.57 301.61 C 235.32 290.26 235.51 278.91 235.47 267.56 C 235.47 266.34 235.46 265.13 235.46 263.93 C 235.53 251.82 235.47 239.72 235.52 227.62 C 235.52 226.39 235.51 225.15 235.51 223.93 C 235.43 212.53 235.44 201.12 235.48 189.72 C 235.50 187.43 235.54 185.14 235.48 182.84 Z" />
<path fill="#959799" opacity="0.67" d=" M 75.22 184.27 L 75.28 185.52 C 75.32 187.60 75.35 189.67 75.35 191.75 C 75.26 203.47 75.34 215.18 75.32 226.90 C 75.31 228.10 75.30 229.31 75.30 230.53 C 75.28 242.67 75.34 254.81 75.31 266.95 C 75.29 268.13 75.28 269.31 75.27 270.49 C 75.28 282.16 75.15 293.83 75.40 305.50 C 74.47 303.10 74.16 300.54 74.26 297.99 C 74.37 263.34 74.43 228.69 74.36 194.04 C 74.44 190.78 74.14 187.41 75.22 184.27 Z" />
<path fill="#e1e5e7" opacity="1.00" d=" M 223.95 198.02 C 228.34 196.11 231.89 192.81 235.48 189.72 C 235.44 201.12 235.43 212.53 235.51 223.93 C 229.99 229.70 222.89 233.98 214.96 235.33 C 214.83 224.23 215.07 213.13 214.84 202.03 C 214.06 201.96 212.48 201.83 211.69 201.76 C 215.85 200.78 220.02 199.73 223.95 198.02 Z" />
<path fill="#e1e5e7" opacity="1.00" d=" M 75.35 191.75 C 81.17 196.95 88.17 200.88 96.00 201.89 C 96.03 213.44 95.96 225.00 95.97 236.56 C 88.17 235.85 81.10 232.03 75.32 226.90 C 75.34 215.18 75.26 203.47 75.35 191.75 Z" />
<path fill="#ffffff" opacity="1.00" d=" M 706.65 192.44 C 770.82 192.43 834.99 192.42 899.16 192.45 C 899.20 219.28 899.14 246.11 899.19 272.94 C 899.17 275.33 898.84 277.71 898.48 280.08 C 897.91 280.41 896.76 281.08 896.18 281.42 C 834.78 281.45 773.38 281.42 711.98 281.44 C 709.55 281.92 707.95 280.21 706.55 278.55 C 706.77 249.85 706.57 221.14 706.65 192.44 M 724.42 203.72 C 722.08 204.21 721.41 206.91 721.56 208.98 C 721.56 227.66 721.56 246.34 721.56 265.02 C 721.13 267.70 723.02 270.58 725.95 270.33 C 745.96 270.48 766.00 270.33 786.02 270.40 C 788.72 270.69 792.22 269.31 791.74 266.04 C 791.92 247.37 791.72 228.69 791.83 210.02 C 791.84 207.72 791.89 204.08 788.90 203.69 C 779.61 203.21 770.29 203.66 760.99 203.51 C 748.80 203.67 736.59 203.19 724.42 203.72 M 803.41 204.49 C 803.44 206.30 802.62 208.51 804.02 210.00 C 808.34 212.37 813.37 210.46 818.01 210.91 C 823.98 211.62 829.95 210.27 835.92 211.06 C 846.60 211.44 857.28 211.08 867.97 211.23 C 871.83 211.35 875.68 211.01 879.51 210.45 C 879.77 208.77 881.20 206.69 879.84 205.17 C 878.79 203.53 876.76 203.48 875.05 203.49 C 853.35 203.50 831.64 203.54 809.94 203.48 C 807.71 203.40 805.53 203.89 803.41 204.49 M 803.22 221.01 C 802.37 223.45 804.36 226.26 807.06 225.62 C 823.79 225.55 840.54 225.93 857.26 225.41 C 857.62 223.71 858.96 221.84 857.73 220.19 C 856.95 218.31 854.75 218.36 853.05 218.37 C 838.02 218.39 822.99 218.38 807.96 218.38 C 806.06 218.19 803.60 218.84 803.22 221.01 M 805.35 233.54 C 802.01 234.30 802.47 240.36 805.99 240.42 C 812.65 240.82 819.34 240.40 826.02 240.55 C 830.03 240.45 834.13 240.97 838.10 240.15 C 839.75 238.98 840.36 236.52 839.18 234.81 C 837.85 232.78 835.04 233.51 833.01 233.27 C 823.79 233.54 814.54 232.96 805.35 233.54 M 847.89 235.06 C 846.72 236.71 847.51 238.92 848.94 240.13 C 852.56 240.95 856.31 240.48 860.00 240.56 C 866.99 240.40 873.99 240.79 880.98 240.45 C 882.97 240.43 883.68 238.11 884.98 236.97 C 883.69 235.75 882.95 233.38 880.87 233.43 C 871.92 233.10 862.96 233.46 854.01 233.28 C 851.96 233.59 848.90 232.67 847.89 235.06 M 804.50 248.70 C 802.19 250.09 802.67 255.08 805.88 255.23 C 811.56 255.84 817.30 255.29 823.02 255.45 C 827.69 255.34 832.41 255.81 837.07 255.23 C 840.76 254.88 840.62 248.37 836.92 248.40 C 831.30 247.94 825.66 248.47 820.04 248.24 C 814.86 248.14 809.55 247.19 804.50 248.70 M 848.55 254.41 C 850.32 255.88 852.83 255.33 854.97 255.51 C 863.32 255.31 871.69 255.64 880.04 255.39 C 882.30 255.62 883.47 253.42 884.97 252.16 C 884.16 250.97 883.47 249.72 882.54 248.64 C 872.05 247.54 861.47 248.25 850.95 248.34 C 847.73 247.69 846.03 252.59 848.55 254.41 M 804.42 263.58 C 802.13 265.23 802.83 269.79 805.89 270.14 C 811.54 270.79 817.26 270.21 822.94 270.38 C 827.64 270.27 832.37 270.77 837.05 270.10 C 840.69 269.61 840.67 263.53 837.02 263.05 C 831.06 262.14 824.99 262.90 818.99 262.68 C 814.16 262.96 809.02 261.80 804.42 263.58 M 849.29 263.35 C 845.92 264.81 847.29 270.30 850.92 270.22 C 859.28 270.70 867.67 270.17 876.04 270.44 C 878.39 270.21 881.33 270.94 883.18 269.09 C 884.64 267.53 883.68 265.31 883.56 263.47 C 876.12 262.01 868.54 262.91 861.03 262.66 C 857.12 262.78 853.06 262.13 849.29 263.35 Z" />
<path fill="#dadfe1" opacity="1.00" d=" M 96.00 201.89 C 104.92 203.29 113.98 202.86 122.97 202.89 C 147.64 202.89 172.32 202.88 196.99 202.94 C 201.92 202.95 206.81 202.38 211.69 201.76 C 212.48 201.83 214.06 201.96 214.84 202.03 C 215.07 213.13 214.83 224.23 214.96 235.33 C 208.70 236.62 202.33 237.31 195.95 237.30 C 171.64 237.26 147.33 237.31 123.03 237.30 C 114.01 237.28 104.95 237.62 95.97 236.56 C 95.96 225.00 96.03 213.44 96.00 201.89 M 106.87 212.15 C 106.93 214.35 106.97 216.56 106.99 218.77 C 119.23 218.63 131.49 219.06 143.73 218.60 C 143.82 216.47 143.89 214.34 143.96 212.21 C 131.60 211.97 119.23 211.96 106.87 212.15 M 163.40 217.43 C 158.76 217.84 159.10 225.81 164.02 225.34 C 169.36 225.34 168.60 216.49 163.40 217.43 M 176.00 225.09 C 179.09 226.33 180.84 223.06 182.00 220.87 C 180.34 219.26 178.63 216.63 175.92 217.59 C 172.42 218.55 172.36 224.32 176.00 225.09 M 188.24 218.15 C 186.45 219.29 185.78 222.05 187.34 223.67 C 189.14 226.48 194.05 225.37 194.46 222.07 C 195.44 218.65 190.88 216.09 188.24 218.15 M 106.76 229.02 C 115.83 229.63 124.92 229.13 134.00 229.32 C 137.01 229.33 140.04 229.50 143.03 229.06 C 144.58 227.49 143.81 225.02 144.12 223.05 C 135.42 222.40 126.70 222.91 117.99 222.73 C 114.67 222.73 111.32 222.46 108.03 223.01 C 105.83 224.10 107.14 227.07 106.76 229.02 Z" />
<path fill="#53dcff" opacity="1.00" d=" M 724.42 203.72 C 736.59 203.19 748.80 203.67 760.99 203.51 C 770.29 203.66 779.61 203.21 788.90 203.69 C 791.89 204.08 791.84 207.72 791.83 210.02 C 791.72 228.69 791.92 247.37 791.74 266.04 C 792.22 269.31 788.72 270.69 786.02 270.40 C 766.00 270.33 745.96 270.48 725.95 270.33 C 723.02 270.58 721.13 267.70 721.56 265.02 C 721.56 246.34 721.56 227.66 721.56 208.98 C 721.41 206.91 722.08 204.21 724.42 203.72 Z" />
<path fill="#ff4f19" opacity="1.00" d=" M 803.41 204.49 C 805.53 203.89 807.71 203.40 809.94 203.48 C 831.64 203.54 853.35 203.50 875.05 203.49 C 876.76 203.48 878.79 203.53 879.84 205.17 C 881.20 206.69 879.77 208.77 879.51 210.45 C 875.68 211.01 871.83 211.35 867.97 211.23 C 857.28 211.08 846.60 211.44 835.92 211.06 C 829.95 210.27 823.98 211.62 818.01 210.91 C 813.37 210.46 808.34 212.37 804.02 210.00 C 802.62 208.51 803.44 206.30 803.41 204.49 Z" />
<path fill="#38454f" opacity="1.00" d=" M 376.00 210.76 C 397.34 210.20 418.70 210.83 440.04 210.56 C 455.35 210.54 470.67 210.58 485.98 210.56 C 510.65 210.99 535.33 210.19 560.00 210.73 C 560.00 227.22 560.00 243.71 560.00 260.20 C 498.67 260.31 437.33 260.24 376.00 260.22 C 375.99 243.73 376.01 227.25 376.00 210.76 M 471.34 221.47 C 469.72 221.84 467.97 222.99 468.22 224.88 C 467.97 231.91 467.97 238.98 468.25 246.02 C 467.99 248.29 470.04 249.54 472.02 249.85 C 475.56 249.02 475.14 244.80 475.25 241.99 C 475.09 236.31 475.47 230.60 475.05 224.93 C 474.99 223.15 473.35 220.60 471.34 221.47 M 484.64 221.60 C 481.64 222.74 482.38 226.49 482.19 229.01 C 482.50 235.12 481.64 241.31 482.64 247.36 C 483.48 250.22 486.80 249.42 488.99 249.12 C 489.35 241.09 489.60 233.02 489.16 224.99 C 489.23 222.79 486.81 220.42 484.64 221.60 M 499.38 221.43 C 495.85 222.05 496.45 226.34 496.31 228.98 C 496.58 235.09 495.85 241.27 496.70 247.34 C 497.51 250.79 503.38 250.25 503.47 246.65 C 503.95 239.77 503.72 232.84 503.65 225.96 C 503.88 223.53 502.05 220.82 499.38 221.43 M 511.74 222.74 C 510.07 226.56 510.95 230.94 510.73 235.00 C 510.96 239.41 509.99 244.11 511.62 248.31 C 513.19 250.82 515.89 248.97 517.85 248.13 C 517.56 240.20 518.32 232.22 517.51 224.33 C 517.36 221.61 513.06 219.95 511.74 222.74 M 528.23 221.50 C 527.28 221.69 526.41 222.06 525.62 222.62 C 524.49 226.99 524.97 231.56 524.86 236.02 C 524.94 239.90 524.48 243.87 525.41 247.68 C 526.32 250.44 530.76 250.46 531.60 247.64 C 532.43 244.18 532.06 240.57 532.12 237.05 C 532.00 232.72 532.43 228.36 531.77 224.07 C 531.80 222.28 529.74 221.43 528.23 221.50 M 542.40 221.44 C 541.05 221.79 539.23 222.36 539.35 224.08 C 538.70 230.36 539.28 236.70 539.08 243.01 C 539.17 245.32 538.71 248.70 541.63 249.45 C 543.85 250.58 546.10 248.26 546.06 246.06 C 546.39 239.35 546.22 232.60 546.10 225.89 C 546.22 223.87 544.84 220.69 542.40 221.44 M 400.42 225.64 C 392.90 228.25 391.30 239.55 397.93 244.03 C 404.16 249.36 414.90 244.24 414.85 236.11 C 415.59 228.67 407.28 222.77 400.42 225.64 M 425.39 229.52 C 421.26 231.89 420.90 238.44 424.82 241.17 C 428.59 244.34 435.22 242.02 436.00 237.09 C 437.62 231.31 430.34 226.02 425.39 229.52 Z" />
<path fill="#ffffff" opacity="1.00" d=" M 651.59 211.45 C 660.59 214.82 669.54 218.32 678.52 221.77 C 669.03 224.72 659.53 227.62 650.04 230.54 C 653.01 228.13 655.97 225.72 659.02 223.41 C 658.08 223.44 656.20 223.51 655.26 223.54 C 655.26 222.52 655.26 220.49 655.26 219.47 C 656.74 219.49 658.24 219.53 659.75 219.57 C 656.95 216.94 654.24 214.22 651.59 211.45 Z" />
<path fill="#c4c8ca" opacity="1.00" d=" M 106.87 212.15 C 119.23 211.96 131.60 211.97 143.96 212.21 C 143.89 214.34 143.82 216.47 143.73 218.60 C 131.49 219.06 119.23 218.63 106.99 218.77 C 106.97 216.56 106.93 214.35 106.87 212.15 Z" />
<path fill="#ffffff" opacity="1.00" d=" M 339.07 215.01 C 347.42 217.79 355.77 220.56 364.12 223.36 C 356.08 226.71 348.03 230.05 340.00 233.41 C 342.13 230.75 344.23 228.06 346.43 225.45 C 345.39 225.47 343.30 225.50 342.26 225.52 C 342.26 224.54 342.26 222.58 342.26 221.59 C 343.16 221.62 344.95 221.67 345.85 221.70 C 343.54 219.52 341.32 217.25 339.07 215.01 Z" />
<path fill="#9bcdc6" opacity="1.00" d=" M 163.40 217.43 C 168.60 216.49 169.36 225.34 164.02 225.34 C 159.10 225.81 158.76 217.84 163.40 217.43 Z" />
<path fill="#3db39e" opacity="1.00" d=" M 176.00 225.09 C 172.36 224.32 172.42 218.55 175.92 217.59 C 178.63 216.63 180.34 219.26 182.00 220.87 C 180.84 223.06 179.09 226.33 176.00 225.09 Z" />
<path fill="#3db39e" opacity="1.00" d=" M 188.24 218.15 C 190.88 216.09 195.44 218.65 194.46 222.07 C 194.05 225.37 189.14 226.48 187.34 223.67 C 185.78 222.05 186.45 219.29 188.24 218.15 Z" />
<path fill="#ffffff" opacity="1.00" d=" M 599.38 218.86 C 604.72 218.86 610.06 219.07 615.41 219.01 C 615.35 220.33 615.30 221.66 615.25 223.00 C 609.95 223.08 604.66 222.83 599.37 222.86 C 599.36 221.53 599.37 220.19 599.38 218.86 Z" />
<path fill="#e9001e" opacity="1.00" d=" M 803.22 221.01 C 803.60 218.84 806.06 218.19 807.96 218.38 C 822.99 218.38 838.02 218.39 853.05 218.37 C 854.75 218.36 856.95 218.31 857.73 220.19 C 858.96 221.84 857.62 223.71 857.26 225.41 C 840.54 225.93 823.79 225.55 807.06 225.62 C 804.36 226.26 802.37 223.45 803.22 221.01 Z" />
<path fill="#ffffff" opacity="1.00" d=" M 571.53 218.62 C 576.81 218.60 582.10 218.64 587.38 218.78 C 587.37 220.11 587.36 221.44 587.36 222.78 C 582.03 222.59 576.69 222.64 571.36 222.59 C 571.40 221.60 571.49 219.62 571.53 218.62 Z" />
<path fill="#ffffff" opacity="1.00" d=" M 627.24 219.13 C 632.58 219.37 637.92 219.12 643.25 219.40 C 643.25 220.39 643.25 222.37 643.25 223.37 C 637.92 223.13 632.58 223.37 627.25 223.11 C 627.25 222.11 627.25 220.12 627.24 219.13 Z" />
<path fill="#283238" opacity="1.00" d=" M 471.34 221.47 C 473.35 220.60 474.99 223.15 475.05 224.93 C 475.47 230.60 475.09 236.31 475.25 241.99 C 475.14 244.80 475.56 249.02 472.02 249.85 C 470.04 249.54 467.99 248.29 468.25 246.02 C 467.97 238.98 467.97 231.91 468.22 224.88 C 467.97 222.99 469.72 221.84 471.34 221.47 Z" />
<path fill="#283238" opacity="1.00" d=" M 484.64 221.60 C 486.81 220.42 489.23 222.79 489.16 224.99 C 489.60 233.02 489.35 241.09 488.99 249.12 C 486.80 249.42 483.48 250.22 482.64 247.36 C 481.64 241.31 482.50 235.12 482.19 229.01 C 482.38 226.49 481.64 222.74 484.64 221.60 Z" />
<path fill="#283238" opacity="1.00" d=" M 499.38 221.43 C 502.05 220.82 503.88 223.53 503.65 225.96 C 503.72 232.84 503.95 239.77 503.47 246.65 C 503.38 250.25 497.51 250.79 496.70 247.34 C 495.85 241.27 496.58 235.09 496.31 228.98 C 496.45 226.34 495.85 222.05 499.38 221.43 Z" />
<path fill="#283238" opacity="1.00" d=" M 511.74 222.74 C 513.06 219.95 517.36 221.61 517.51 224.33 C 518.32 232.22 517.56 240.20 517.85 248.13 C 515.89 248.97 513.19 250.82 511.62 248.31 C 509.99 244.11 510.96 239.41 510.73 235.00 C 510.95 230.94 510.07 226.56 511.74 222.74 Z" />
<path fill="#283238" opacity="1.00" d=" M 528.23 221.50 C 529.74 221.43 531.80 222.28 531.77 224.07 C 532.43 228.36 532.00 232.72 532.12 237.05 C 532.06 240.57 532.43 244.18 531.60 247.64 C 530.76 250.46 526.32 250.44 525.41 247.68 C 524.48 243.87 524.94 239.90 524.86 236.02 C 524.97 231.56 524.49 226.99 525.62 222.62 C 526.41 222.06 527.28 221.69 528.23 221.50 Z" />
<path fill="#283238" opacity="1.00" d=" M 542.40 221.44 C 544.84 220.69 546.22 223.87 546.10 225.89 C 546.22 232.60 546.39 239.35 546.06 246.06 C 546.10 248.26 543.85 250.58 541.63 249.45 C 538.71 248.70 539.17 245.32 539.08 243.01 C 539.28 236.70 538.70 230.36 539.35 224.08 C 539.23 222.36 541.05 221.79 542.40 221.44 Z" />
<path fill="#ffffff" opacity="1.00" d=" M 258.50 221.63 C 263.79 221.63 269.08 221.63 274.37 221.63 C 274.37 222.59 274.37 224.53 274.37 225.50 C 269.08 225.50 263.79 225.50 258.50 225.50 C 258.50 224.53 258.50 222.59 258.50 221.63 Z" />
<path fill="#ffffff" opacity="1.00" d=" M 286.38 221.63 C 291.71 221.63 297.04 221.63 302.37 221.63 C 302.37 222.59 302.37 224.53 302.37 225.50 C 297.04 225.50 291.71 225.50 286.38 225.50 C 286.38 224.53 286.38 222.59 286.38 221.63 Z" />
<path fill="#ffffff" opacity="1.00" d=" M 314.25 221.63 C 319.58 221.63 324.92 221.63 330.25 221.63 C 330.25 222.59 330.25 224.53 330.25 225.50 C 324.92 225.50 319.58 225.50 314.25 225.50 C 314.25 224.53 314.25 222.60 314.25 221.63 Z" />
<path fill="#c4c8ca" opacity="1.00" d=" M 106.76 229.02 C 107.14 227.07 105.83 224.10 108.03 223.01 C 111.32 222.46 114.67 222.73 117.99 222.73 C 126.70 222.91 135.42 222.40 144.12 223.05 C 143.81 225.02 144.58 227.49 143.03 229.06 C 140.04 229.50 137.01 229.33 134.00 229.32 C 124.92 229.13 115.83 229.63 106.76 229.02 Z" />
<path fill="#c4c8ca" opacity="1.00" d=" M 214.96 235.33 C 222.89 233.98 229.99 229.70 235.51 223.93 C 235.51 225.15 235.52 226.39 235.52 227.62 C 229.86 233.37 222.59 237.29 214.77 239.21 C 204.74 241.80 194.30 241.28 184.04 241.30 C 162.37 241.29 140.70 241.30 119.03 241.31 C 111.15 241.29 103.18 241.77 95.41 240.14 C 87.93 238.89 81.14 235.28 75.30 230.53 C 75.30 229.31 75.31 228.10 75.32 226.90 C 81.10 232.03 88.17 235.85 95.97 236.56 C 104.95 237.62 114.01 237.28 123.03 237.30 C 147.33 237.31 171.64 237.26 195.95 237.30 C 202.33 237.31 208.70 236.62 214.96 235.33 Z" />
<path fill="#e7eced" opacity="1.00" d=" M 400.42 225.64 C 407.28 222.77 415.59 228.67 414.85 236.11 C 414.90 244.24 404.16 249.36 397.93 244.03 C 391.30 239.55 392.90 228.25 400.42 225.64 Z" />
<path fill="#e1e5e7" opacity="1.00" d=" M 214.77 239.21 C 222.59 237.29 229.86 233.37 235.52 227.62 C 235.47 239.72 235.53 251.82 235.46 263.93 C 229.94 270.18 222.39 274.45 214.08 275.59 C 214.38 263.47 213.35 251.28 214.77 239.21 Z" />
<path fill="#21c6f7" opacity="1.00" d=" M 425.39 229.52 C 430.34 226.02 437.62 231.31 436.00 237.09 C 435.22 242.02 428.59 244.34 424.82 241.17 C 420.90 238.44 421.26 231.89 425.39 229.52 Z" />
<path fill="#e1e5e7" opacity="1.00" d=" M 75.30 230.53 C 81.14 235.28 87.93 238.89 95.41 240.14 C 96.73 252.14 95.71 264.23 96.02 276.28 C 88.23 275.62 81.36 271.64 75.31 266.95 C 75.34 254.81 75.28 242.67 75.30 230.53 Z" />
<path fill="#b9bbc1" opacity="1.00" d=" M 805.35 233.54 C 814.54 232.96 823.79 233.54 833.01 233.27 C 835.04 233.51 837.85 232.78 839.18 234.81 C 840.36 236.52 839.75 238.98 838.10 240.15 C 834.13 240.97 830.03 240.45 826.02 240.55 C 819.34 240.40 812.65 240.82 805.99 240.42 C 802.47 240.36 802.01 234.30 805.35 233.54 Z" />
<path fill="#b9bbc1" opacity="1.00" d=" M 847.89 235.06 C 848.90 232.67 851.96 233.59 854.01 233.28 C 862.96 233.46 871.92 233.10 880.87 233.43 C 882.95 233.38 883.69 235.75 884.98 236.97 C 883.68 238.11 882.97 240.43 880.98 240.45 C 873.99 240.79 866.99 240.40 860.00 240.56 C 856.31 240.48 852.56 240.95 848.94 240.13 C 847.51 238.92 846.72 236.71 847.89 235.06 Z" />
<path fill="#dadfe1" opacity="1.00" d=" M 184.04 241.30 C 194.30 241.28 204.74 241.80 214.77 239.21 C 213.35 251.28 214.38 263.47 214.08 275.59 C 206.83 277.09 199.40 277.38 192.02 277.22 C 165.36 277.25 138.71 277.17 112.05 277.27 C 106.70 277.23 101.33 276.97 96.02 276.28 C 95.71 264.23 96.73 252.14 95.41 240.14 C 103.18 241.77 111.15 241.29 119.03 241.31 C 140.70 241.30 162.37 241.29 184.04 241.30 M 106.86 252.09 C 106.92 254.28 106.96 256.48 107.01 258.68 C 119.12 258.47 131.28 259.11 143.37 258.40 C 143.99 256.36 143.93 254.21 144.05 252.11 C 131.65 251.99 119.26 251.95 106.86 252.09 M 163.36 257.37 C 161.62 257.66 159.93 259.11 160.16 261.02 C 159.57 264.33 163.98 266.54 166.42 264.37 C 169.37 262.15 167.16 256.59 163.36 257.37 M 189.39 257.51 C 184.10 258.76 187.13 267.26 192.03 264.93 C 196.70 263.30 194.06 255.85 189.39 257.51 M 174.70 264.33 C 176.27 265.72 178.37 264.78 180.17 264.52 C 180.68 263.24 181.19 261.96 181.71 260.68 C 180.33 259.35 179.24 257.06 176.97 257.39 C 173.47 257.17 171.91 262.48 174.70 264.33 M 107.14 263.18 C 106.84 265.10 106.82 267.05 106.76 269.00 C 119.13 269.37 131.53 269.42 143.90 268.96 C 143.89 266.96 143.88 264.96 143.86 262.96 C 135.89 262.37 127.90 262.82 119.92 262.68 C 115.66 262.69 111.35 262.36 107.14 263.18 Z" />
<path fill="#ffffff" opacity="1.00" d=" M 571.34 257.78 C 580.35 254.30 589.36 250.82 598.38 247.39 C 595.14 250.74 591.75 253.96 588.54 257.34 C 592.20 260.55 596.10 263.47 599.87 266.56 C 590.36 263.63 580.85 260.70 571.34 257.78 Z" />
<path fill="#b9bbc1" opacity="1.00" d=" M 804.50 248.70 C 809.55 247.19 814.86 248.14 820.04 248.24 C 825.66 248.47 831.30 247.94 836.92 248.40 C 840.62 248.37 840.76 254.88 837.07 255.23 C 832.41 255.81 827.69 255.34 823.02 255.45 C 817.30 255.29 811.56 255.84 805.88 255.23 C 802.67 255.08 802.19 250.09 804.50 248.70 Z" />
<path fill="#b9bbc1" opacity="1.00" d=" M 848.55 254.41 C 846.03 252.59 847.73 247.69 850.95 248.34 C 861.47 248.25 872.05 247.54 882.54 248.64 C 883.47 249.72 884.16 250.97 884.97 252.16 C 883.47 253.42 882.30 255.62 880.04 255.39 C 871.69 255.64 863.32 255.31 854.97 255.51 C 852.83 255.33 850.32 255.88 848.55 254.41 Z" />
<path fill="#ffffff" opacity="1.00" d=" M 258.76 259.36 C 267.93 256.29 277.11 253.22 286.30 250.19 C 282.42 253.44 278.34 256.45 274.53 259.78 C 277.91 263.31 281.44 266.69 284.85 270.19 C 276.13 266.64 267.46 262.95 258.76 259.36 Z" />
<path fill="#c4c8ca" opacity="1.00" d=" M 106.86 252.09 C 119.26 251.95 131.65 251.99 144.05 252.11 C 143.93 254.21 143.99 256.36 143.37 258.40 C 131.28 259.11 119.12 258.47 107.01 258.68 C 106.96 256.48 106.92 254.28 106.86 252.09 Z" />
<path fill="#ffffff" opacity="1.00" d=" M 600.63 255.73 C 605.96 255.75 611.29 255.95 616.62 255.87 C 616.62 256.87 616.62 258.87 616.62 259.87 C 611.29 259.96 605.96 259.72 600.62 259.74 C 600.63 258.74 600.63 256.73 600.63 255.73 Z" />
<path fill="#ffffff" opacity="1.00" d=" M 628.63 256.13 C 633.92 256.06 639.21 256.18 644.51 256.28 C 644.50 257.28 644.49 259.28 644.49 260.28 C 639.15 260.11 633.80 260.14 628.47 260.08 C 628.51 258.76 628.56 257.44 628.63 256.13 Z" />
<path fill="#9bcdc6" opacity="1.00" d=" M 163.36 257.37 C 167.16 256.59 169.37 262.15 166.42 264.37 C 163.98 266.54 159.57 264.33 160.16 261.02 C 159.93 259.11 161.62 257.66 163.36 257.37 Z" />
<path fill="#3db39e" opacity="1.00" d=" M 189.39 257.51 C 194.06 255.85 196.70 263.30 192.03 264.93 C 187.13 267.26 184.10 258.76 189.39 257.51 Z" />
<path fill="#ffffff" opacity="1.00" d=" M 656.52 256.35 C 661.85 256.49 667.18 256.52 672.52 256.52 C 672.48 257.52 672.39 259.51 672.35 260.50 C 667.06 260.56 661.78 260.42 656.49 260.35 C 656.50 259.35 656.51 257.35 656.52 256.35 Z" />
<path fill="#3db39e" opacity="1.00" d=" M 174.70 264.33 C 171.91 262.48 173.47 257.17 176.97 257.39 C 179.24 257.06 180.33 259.35 181.71 260.68 C 181.19 261.96 180.68 263.24 180.17 264.52 C 178.37 264.78 176.27 265.72 174.70 264.33 Z" />
<path fill="#ffffff" opacity="1.00" d=" M 286.63 257.73 C 291.96 257.75 297.29 257.95 302.62 257.87 C 302.62 258.87 302.62 260.87 302.62 261.87 C 297.29 261.95 291.96 261.72 286.62 261.74 C 286.63 260.74 286.63 258.73 286.63 257.73 Z" />
<path fill="#ffffff" opacity="1.00" d=" M 314.39 262.07 C 314.52 260.76 314.52 259.44 314.82 258.16 C 320.05 258.00 325.28 258.22 330.51 258.28 C 330.50 259.28 330.49 261.28 330.49 262.28 C 325.12 262.10 319.75 262.16 314.39 262.07 Z" />
<path fill="#ffffff" opacity="1.00" d=" M 342.52 258.35 C 347.85 258.48 353.18 258.52 358.52 258.52 C 358.48 259.52 358.39 261.51 358.35 262.50 C 353.06 262.56 347.78 262.42 342.49 262.35 C 342.50 261.35 342.51 259.35 342.52 258.35 Z" />
<path fill="#283238" opacity="1.00" d=" M 376.00 260.22 C 437.33 260.24 498.67 260.31 560.00 260.20 C 559.93 276.91 560.14 293.63 559.89 310.34 C 556.24 310.29 552.59 310.36 548.94 310.30 C 542.10 310.20 535.25 310.41 528.41 310.32 C 488.22 310.31 448.03 310.30 407.84 310.32 C 400.94 310.39 394.04 310.06 387.16 310.65 C 387.01 312.68 386.89 314.73 386.57 316.76 C 385.97 314.74 386.17 312.61 386.16 310.54 C 382.82 310.24 379.46 310.29 376.12 310.33 C 375.85 293.63 376.07 276.92 376.00 260.22 M 470.32 271.38 C 468.35 271.99 468.21 274.27 468.13 275.98 C 467.97 281.32 468.16 286.67 468.08 292.01 C 468.25 294.43 467.77 297.48 469.96 299.16 C 471.61 299.44 473.81 299.48 474.62 297.68 C 475.51 294.53 475.14 291.21 475.20 287.98 C 475.05 283.34 475.56 278.65 474.86 274.04 C 474.63 271.93 472.28 270.49 470.32 271.38 M 484.33 271.29 C 481.69 273.36 482.33 277.08 482.18 280.02 C 482.37 285.32 481.94 290.63 482.40 295.91 C 482.43 299.03 487.21 300.62 488.76 297.68 C 489.75 293.87 489.24 289.87 489.32 285.97 C 489.18 281.41 489.75 276.76 488.66 272.30 C 487.68 270.92 485.80 270.95 484.33 271.29 M 498.24 271.31 C 495.79 273.48 496.47 277.06 496.32 279.97 C 496.58 285.51 495.94 291.08 496.59 296.60 C 497.22 299.88 503.29 300.46 503.45 296.66 C 504.15 291.12 503.56 285.50 503.79 279.93 C 503.64 277.41 504.08 274.58 502.68 272.34 C 501.83 270.67 499.74 271.17 498.24 271.31 M 513.33 271.39 C 512.85 271.62 511.90 272.10 511.43 272.33 C 510.14 277.46 510.95 282.81 510.72 288.03 C 510.83 291.45 510.26 295.07 511.60 298.31 C 513.05 299.51 515.05 299.49 516.70 298.71 C 518.20 296.04 517.79 292.85 517.89 289.91 C 517.70 284.65 518.23 279.35 517.62 274.11 C 517.59 271.99 515.25 270.52 513.33 271.39 M 527.29 271.28 C 524.36 272.61 525.07 276.38 524.84 278.98 C 525.17 285.41 524.13 292.00 525.65 298.31 C 527.80 300.07 532.14 299.34 531.90 296.01 C 532.32 289.35 531.96 282.66 531.96 276.00 C 532.29 273.40 530.21 270.15 527.29 271.28 M 541.35 271.34 C 538.81 272.49 539.25 275.69 539.08 277.97 C 539.23 284.30 538.82 290.65 539.32 296.97 C 539.70 300.07 545.43 300.11 545.80 296.94 C 546.62 290.00 546.13 282.96 546.15 275.98 C 546.49 273.35 544.18 270.29 541.35 271.34 M 402.57 274.70 C 395.47 275.76 391.22 284.67 395.20 290.76 C 398.97 297.81 410.66 297.31 413.81 289.94 C 417.81 282.65 410.68 273.04 402.57 274.70 M 426.44 278.66 C 421.21 280.63 420.49 288.74 425.53 291.36 C 430.36 294.83 437.49 289.51 436.02 283.92 C 435.42 279.55 430.43 277.09 426.44 278.66 Z" />
<path fill="#c4c8ca" opacity="1.00" d=" M 107.14 263.18 C 111.35 262.36 115.66 262.69 119.92 262.68 C 127.90 262.82 135.89 262.37 143.86 262.96 C 143.88 264.96 143.89 266.96 143.90 268.96 C 131.53 269.42 119.13 269.37 106.76 269.00 C 106.82 267.05 106.84 265.10 107.14 263.18 Z" />
<path fill="#b9bbc1" opacity="1.00" d=" M 804.42 263.58 C 809.02 261.80 814.16 262.96 818.99 262.68 C 824.99 262.90 831.06 262.14 837.02 263.05 C 840.67 263.53 840.69 269.61 837.05 270.10 C 832.37 270.77 827.64 270.27 822.94 270.38 C 817.26 270.21 811.54 270.79 805.89 270.14 C 802.83 269.79 802.13 265.23 804.42 263.58 Z" />
<path fill="#b9bbc1" opacity="1.00" d=" M 849.29 263.35 C 853.06 262.13 857.12 262.78 861.03 262.66 C 868.54 262.91 876.12 262.01 883.56 263.47 C 883.68 265.31 884.64 267.53 883.18 269.09 C 881.33 270.94 878.39 270.21 876.04 270.44 C 867.67 270.17 859.28 270.70 850.92 270.22 C 847.29 270.30 845.92 264.81 849.29 263.35 Z" />
<path fill="#c4c9cb" opacity="1.00" d=" M 214.08 275.59 C 222.39 274.45 229.94 270.18 235.46 263.93 C 235.46 265.13 235.47 266.34 235.47 267.56 C 230.17 273.39 223.19 277.30 215.51 279.00 C 206.61 281.83 197.18 281.22 187.98 281.25 C 161.30 281.22 134.63 281.25 107.95 281.26 C 103.76 281.20 99.56 280.85 95.44 280.01 C 87.93 278.82 81.23 275.05 75.27 270.49 C 75.28 269.31 75.29 268.13 75.31 266.95 C 81.36 271.64 88.23 275.62 96.02 276.28 C 101.33 276.97 106.70 277.23 112.05 277.27 C 138.71 277.17 165.36 277.25 192.02 277.22 C 199.40 277.38 206.83 277.09 214.08 275.59 Z" />
<path fill="#e1e5e7" opacity="1.00" d=" M 215.51 279.00 C 223.19 277.30 230.17 273.39 235.47 267.56 C 235.51 278.91 235.32 290.26 235.57 301.61 L 235.58 302.09 C 235.26 302.72 234.62 303.99 234.30 304.63 C 231.64 308.00 228.10 310.48 224.26 312.30 C 223.73 312.53 222.67 312.97 222.14 313.19 C 219.50 314.08 216.85 314.92 214.14 315.53 C 214.05 306.68 214.15 297.82 213.96 288.97 C 213.84 285.58 214.49 282.22 215.51 279.00 Z" />
<path fill="#e1e5e7" opacity="1.00" d=" M 75.27 270.49 C 81.23 275.05 87.93 278.82 95.44 280.01 C 96.56 291.54 95.88 303.15 95.91 314.72 C 94.21 314.78 92.51 314.86 90.81 314.89 C 84.80 313.71 79.06 310.49 75.40 305.50 C 75.15 293.83 75.28 282.16 75.27 270.49 Z" />
<path fill="#38454f" opacity="1.00" d=" M 470.32 271.38 C 472.28 270.49 474.63 271.93 474.86 274.04 C 475.56 278.65 475.05 283.34 475.20 287.98 C 475.14 291.21 475.51 294.53 474.62 297.68 C 473.81 299.48 471.61 299.44 469.96 299.16 C 467.77 297.48 468.25 294.43 468.08 292.01 C 468.16 286.67 467.97 281.32 468.13 275.98 C 468.21 274.27 468.35 271.99 470.32 271.38 Z" />
<path fill="#38454f" opacity="1.00" d=" M 484.33 271.29 C 485.80 270.95 487.68 270.92 488.66 272.30 C 489.75 276.76 489.18 281.41 489.32 285.97 C 489.24 289.87 489.75 293.87 488.76 297.68 C 487.21 300.62 482.43 299.03 482.40 295.91 C 481.94 290.63 482.37 285.32 482.18 280.02 C 482.33 277.08 481.69 273.36 484.33 271.29 Z" />
<path fill="#38454f" opacity="1.00" d=" M 498.24 271.31 C 499.74 271.17 501.83 270.67 502.68 272.34 C 504.08 274.58 503.64 277.41 503.79 279.93 C 503.56 285.50 504.15 291.12 503.45 296.66 C 503.29 300.46 497.22 299.88 496.59 296.60 C 495.94 291.08 496.58 285.51 496.32 279.97 C 496.47 277.06 495.79 273.48 498.24 271.31 Z" />
<path fill="#38454f" opacity="1.00" d=" M 513.33 271.39 C 515.25 270.52 517.59 271.99 517.62 274.11 C 518.23 279.35 517.70 284.65 517.89 289.91 C 517.79 292.85 518.20 296.04 516.70 298.71 C 515.05 299.49 513.05 299.51 511.60 298.31 C 510.26 295.07 510.83 291.45 510.72 288.03 C 510.95 282.81 510.14 277.46 511.43 272.33 C 511.90 272.10 512.85 271.62 513.33 271.39 Z" />
<path fill="#38454f" opacity="1.00" d=" M 527.29 271.28 C 530.21 270.15 532.29 273.40 531.96 276.00 C 531.96 282.66 532.32 289.35 531.90 296.01 C 532.14 299.34 527.80 300.07 525.65 298.31 C 524.13 292.00 525.17 285.41 524.84 278.98 C 525.07 276.38 524.36 272.61 527.29 271.28 Z" />
<path fill="#38454f" opacity="1.00" d=" M 541.35 271.34 C 544.18 270.29 546.49 273.35 546.15 275.98 C 546.13 282.96 546.62 290.00 545.80 296.94 C 545.43 300.11 539.70 300.07 539.32 296.97 C 538.82 290.65 539.23 284.30 539.08 277.97 C 539.25 275.69 538.81 272.49 541.35 271.34 Z" />
<path fill="#e7eced" opacity="1.00" d=" M 402.57 274.70 C 410.68 273.04 417.81 282.65 413.81 289.94 C 410.66 297.31 398.97 297.81 395.20 290.76 C 391.22 284.67 395.47 275.76 402.57 274.70 Z" />
<path fill="#21c6f7" opacity="1.00" d=" M 426.44 278.66 C 430.43 277.09 435.42 279.55 436.02 283.92 C 437.49 289.51 430.36 294.83 425.53 291.36 C 420.49 288.74 421.21 280.63 426.44 278.66 Z" />
<path fill="#dadfe1" opacity="1.00" d=" M 187.98 281.25 C 197.18 281.22 206.61 281.83 215.51 279.00 C 214.49 282.22 213.84 285.58 213.96 288.97 C 214.15 297.82 214.05 306.68 214.14 315.53 C 208.53 316.79 202.76 316.99 197.03 317.00 C 167.66 317.00 138.30 317.00 108.93 317.00 C 102.52 317.00 96.06 316.65 89.87 314.92 L 90.81 314.89 C 92.51 314.86 94.21 314.78 95.91 314.72 C 95.88 303.15 96.56 291.54 95.44 280.01 C 99.56 280.85 103.76 281.20 107.95 281.26 C 134.63 281.25 161.30 281.22 187.98 281.25 M 106.84 292.11 C 106.91 294.01 106.51 296.02 107.19 297.84 C 112.67 299.18 118.41 298.09 123.99 298.36 C 130.57 298.10 137.26 299.12 143.75 297.85 C 143.94 295.95 143.95 294.05 144.00 292.16 C 131.62 291.82 119.22 291.80 106.84 292.11 M 163.35 297.35 C 161.62 297.65 159.97 299.13 160.18 301.02 C 159.53 304.27 164.00 306.48 166.36 304.34 C 169.44 302.28 167.10 296.48 163.35 297.35 M 172.87 299.63 C 173.13 302.36 174.78 304.41 176.94 305.97 C 179.10 304.82 180.82 303.12 181.99 300.97 C 180.49 299.63 179.41 296.98 177.01 297.31 C 175.38 297.50 174.22 298.84 172.87 299.63 M 189.32 297.45 C 186.26 298.23 185.42 302.86 188.30 304.47 C 190.73 306.61 194.92 304.07 194.48 301.01 C 194.60 298.48 191.66 296.65 189.32 297.45 M 106.83 309.09 C 119.18 309.21 131.55 309.46 143.90 308.95 C 143.89 306.94 143.87 304.94 143.86 302.94 C 135.24 302.37 126.61 302.76 117.98 302.60 C 114.67 302.63 111.32 302.35 108.05 302.97 C 105.72 304.04 107.18 307.09 106.83 309.09 Z" />
<path fill="#c4c8ca" opacity="1.00" d=" M 106.84 292.11 C 119.22 291.80 131.62 291.82 144.00 292.16 C 143.95 294.05 143.94 295.95 143.75 297.85 C 137.26 299.12 130.57 298.10 123.99 298.36 C 118.41 298.09 112.67 299.18 107.19 297.84 C 106.51 296.02 106.91 294.01 106.84 292.11 Z" />
<path fill="#b9bbc1" opacity="1.00" d=" M 685.52 296.65 C 687.52 296.47 689.53 296.35 691.55 296.29 L 691.35 295.55 L 692.47 295.73 C 694.61 296.11 696.80 296.34 698.99 296.38 C 726.08 296.29 753.16 296.35 780.25 296.35 C 781.29 298.36 782.14 300.56 783.77 302.20 C 785.80 303.73 788.51 303.55 790.93 303.70 C 798.28 303.68 805.63 303.54 812.98 303.70 C 815.84 303.57 818.98 303.97 821.61 302.55 C 823.62 301.00 824.48 298.48 825.69 296.34 C 855.05 296.32 884.41 296.37 913.78 296.31 C 915.96 296.30 918.16 296.45 920.35 296.68 C 923.39 305.60 915.22 315.32 906.05 314.69 C 837.36 314.71 768.68 314.70 699.99 314.70 C 695.77 315.01 691.83 313.07 688.78 310.30 C 687.86 309.09 686.93 307.90 685.96 306.75 C 685.02 303.46 684.80 300.00 685.52 296.65 Z" />
<path fill="#8b8996" opacity="1.00" d=" M 780.25 296.35 C 795.39 296.27 810.54 296.28 825.69 296.34 C 824.48 298.48 823.62 301.00 821.61 302.55 C 818.98 303.97 815.84 303.57 812.98 303.70 C 805.63 303.54 798.28 303.68 790.93 303.70 C 788.51 303.55 785.80 303.73 783.77 302.20 C 782.14 300.56 781.29 298.36 780.25 296.35 Z" />
<path fill="#9bcdc6" opacity="1.00" d=" M 163.35 297.35 C 167.10 296.48 169.44 302.28 166.36 304.34 C 164.00 306.48 159.53 304.27 160.18 301.02 C 159.97 299.13 161.62 297.65 163.35 297.35 Z" />
<path fill="#3db39e" opacity="1.00" d=" M 172.87 299.63 C 174.22 298.84 175.38 297.50 177.01 297.31 C 179.41 296.98 180.49 299.63 181.99 300.97 C 180.82 303.12 179.10 304.82 176.94 305.97 C 174.78 304.41 173.13 302.36 172.87 299.63 Z" />
<path fill="#3db39e" opacity="1.00" d=" M 189.32 297.45 C 191.66 296.65 194.60 298.48 194.48 301.01 C 194.92 304.07 190.73 306.61 188.30 304.47 C 185.42 302.86 186.26 298.23 189.32 297.45 Z" />
<path fill="#c4c8ca" opacity="1.00" d=" M 106.83 309.09 C 107.18 307.09 105.72 304.04 108.05 302.97 C 111.32 302.35 114.67 302.63 117.98 302.60 C 126.61 302.76 135.24 302.37 143.86 302.94 C 143.87 304.94 143.89 306.94 143.90 308.95 C 131.55 309.46 119.18 309.21 106.83 309.09 Z" />
<path fill="#839594" opacity="1.00" d=" M 528.41 310.32 C 535.25 310.41 542.10 310.20 548.94 310.30 L 549.30 310.84 C 549.55 313.00 549.62 315.18 549.68 317.36 C 542.60 317.37 535.53 317.36 528.46 317.36 C 528.43 315.01 528.42 312.66 528.41 310.32 Z" />
<path fill="#839594" opacity="1.00" d=" M 387.16 310.65 C 394.04 310.06 400.94 310.39 407.84 310.32 C 407.83 312.67 407.82 315.02 407.79 317.37 C 400.68 317.38 393.58 317.31 386.47 317.41 L 386.57 316.76 C 386.89 314.73 387.01 312.68 387.16 310.65 Z" />
<path fill="#ffffff" opacity="1.00" d=" M 517.40 364.94 C 518.65 362.96 521.13 362.76 523.19 362.23 C 525.94 369.40 528.83 376.72 529.12 384.50 C 534.02 381.58 540.87 381.94 545.00 386.05 C 550.53 391.47 552.27 399.51 552.94 406.95 C 553.21 411.58 553.29 416.70 550.77 420.77 C 548.87 423.29 545.78 421.68 544.04 419.90 C 544.38 413.57 545.06 407.23 544.78 400.90 C 544.52 396.94 542.18 392.61 537.99 391.85 C 535.14 390.95 532.44 392.44 529.88 393.49 C 530.23 401.70 532.50 409.78 532.16 418.02 C 532.43 421.24 528.14 423.03 525.76 421.36 C 524.28 419.24 524.28 416.48 523.97 414.01 C 523.29 402.92 522.91 391.75 520.69 380.84 C 519.64 375.53 517.69 370.38 517.40 364.94 Z" />
<path fill="#ffffff" opacity="1.00" d=" M 297.96 379.80 C 302.03 377.49 307.26 376.49 311.65 378.51 C 319.34 381.76 321.49 393.55 315.25 399.18 C 310.12 404.02 302.61 405.66 295.76 404.60 C 296.90 407.40 298.58 410.22 301.52 411.40 C 310.59 415.69 320.75 412.80 330.30 412.68 C 327.82 416.15 324.77 419.52 320.46 420.59 C 311.92 423.45 301.77 422.16 294.92 416.07 C 284.11 406.85 285.62 387.00 297.96 379.80 M 295.26 397.26 C 301.05 398.71 307.38 396.62 311.25 392.13 C 312.71 388.60 309.04 383.59 305.04 384.71 C 299.05 385.57 295.57 391.64 295.26 397.26 Z" />
<path fill="#ffffff" opacity="1.00" d=" M 360.67 393.06 C 362.34 385.97 367.69 379.47 375.02 377.90 C 379.46 376.64 384.57 377.80 387.72 381.26 C 390.72 384.35 391.38 388.96 390.90 393.08 C 390.05 397.74 386.00 401.06 381.87 402.87 C 377.55 404.91 372.65 405.22 367.96 404.61 C 370.13 411.80 378.36 413.70 384.95 413.78 C 390.86 413.42 396.83 413.28 402.70 412.38 C 400.21 416.09 396.98 419.56 392.48 420.66 C 382.43 424.06 369.93 421.25 363.74 412.24 C 360.32 407.68 359.86 401.84 359.80 396.35 C 354.87 403.88 354.12 413.43 348.75 420.73 C 347.11 423.21 343.56 422.07 342.24 419.88 C 336.36 412.11 333.12 402.80 328.74 394.19 C 327.29 392.39 328.95 390.33 330.24 389.03 C 333.17 387.86 335.63 390.82 337.09 393.00 C 340.33 398.63 341.44 405.27 345.26 410.63 C 346.80 405.39 348.95 400.34 351.56 395.54 C 352.78 391.93 357.74 390.94 360.67 393.06 M 367.52 397.26 C 370.34 397.29 373.34 398.42 376.00 397.01 C 378.97 395.70 382.58 394.33 383.93 391.13 C 383.98 387.57 380.86 383.55 376.98 384.76 C 371.15 385.78 367.78 391.73 367.52 397.26 Z" />
<path fill="#ffffff" opacity="1.00" d=" M 556.44 388.61 C 559.05 382.79 564.66 378.25 571.08 377.56 C 576.63 376.58 582.64 380.01 584.41 385.41 C 585.68 389.48 585.81 394.45 582.85 397.84 C 577.92 403.78 569.54 405.71 562.14 404.63 C 564.31 411.75 572.43 413.68 578.99 413.78 C 584.91 413.57 590.81 412.98 596.73 412.67 C 594.66 415.22 592.69 418.12 589.58 419.50 C 581.10 423.40 570.41 422.94 562.82 417.27 C 553.86 411.01 551.92 398.12 556.44 388.61 M 561.67 397.29 C 567.57 398.69 574.01 396.60 577.86 391.90 C 578.80 388.11 575.15 383.42 571.06 384.79 C 565.26 385.84 561.98 391.79 561.67 397.29 Z" />
<path fill="#ffffff" opacity="1.00" d=" M 624.24 391.25 C 626.29 384.12 632.63 378.24 640.14 377.53 C 645.68 376.64 651.58 380.19 653.27 385.57 C 654.40 389.55 654.62 394.36 651.76 397.70 C 646.85 403.74 638.37 405.76 630.92 404.59 C 632.98 411.47 640.67 413.54 647.03 413.76 C 653.22 413.69 659.39 412.96 665.57 412.67 C 663.47 415.19 661.54 418.11 658.43 419.49 C 649.96 423.41 639.30 422.93 631.69 417.32 C 623.94 411.97 621.42 401.59 623.68 392.78 C 618.61 393.29 614.00 390.57 609.01 390.47 C 606.45 390.39 603.32 392.17 603.44 395.04 C 602.80 403.09 608.12 410.07 608.43 418.00 C 608.32 420.77 605.45 421.91 603.11 422.24 C 598.33 413.62 596.31 403.77 595.35 394.05 C 595.15 391.26 594.55 387.88 596.95 385.82 C 598.20 385.49 599.37 386.23 600.57 386.52 C 605.77 383.33 612.27 381.57 618.20 383.79 C 621.71 384.46 624.12 387.75 624.24 391.25 M 630.44 397.27 C 633.27 397.27 636.28 398.40 638.97 397.02 C 641.95 395.73 645.48 394.30 646.91 391.17 C 646.97 387.65 643.96 383.64 640.11 384.73 C 634.17 385.67 630.81 391.71 630.44 397.27 Z" />
<path fill="#ffffff" opacity="1.00" d=" M 458.06 391.05 C 458.21 387.71 458.39 383.89 461.00 381.44 C 463.90 385.02 464.62 389.78 465.54 394.16 C 467.84 407.60 468.79 421.34 467.66 434.95 C 466.88 442.54 465.69 450.67 460.78 456.82 C 458.51 459.79 454.68 461.51 450.94 460.94 C 445.44 460.11 440.34 457.38 436.10 453.85 C 432.99 451.13 430.11 447.28 430.93 442.91 C 431.03 440.92 433.20 440.56 434.73 440.21 C 438.94 444.96 443.25 450.21 449.40 452.46 C 452.16 453.50 455.23 452.00 456.58 449.49 C 459.50 444.45 459.59 438.45 460.39 432.84 C 461.03 427.00 461.80 421.08 460.86 415.23 C 456.71 416.70 453.36 420.19 448.84 420.58 C 443.03 420.80 437.88 417.03 434.69 412.44 C 430.74 406.73 428.74 399.79 428.67 392.86 C 423.97 393.00 419.69 390.62 415.04 390.47 C 412.45 390.31 409.21 392.03 409.28 394.95 C 408.57 403.08 414.01 410.10 414.26 418.11 C 414.03 420.81 411.24 421.89 408.94 422.28 C 403.59 412.41 401.41 401.07 401.00 389.94 C 400.69 386.74 403.65 384.49 406.49 386.52 C 413.06 382.17 423.01 380.88 428.95 386.92 C 429.91 385.04 433.01 382.80 434.49 385.35 C 436.01 392.88 436.30 400.95 440.25 407.77 C 441.99 410.86 445.41 413.43 449.14 412.72 C 453.14 411.96 456.22 409.02 458.84 406.10 C 458.38 401.09 458.19 396.07 458.06 391.05 Z" />
<path fill="#ffffff" opacity="1.00" d=" M 469.06 410.03 C 465.45 401.70 466.16 391.07 472.80 384.44 C 473.87 385.23 475.06 385.94 475.98 386.95 C 477.34 392.03 473.85 396.85 474.76 401.94 C 475.33 405.57 476.28 409.38 478.77 412.21 C 479.70 413.52 481.47 414.05 482.97 413.38 C 485.87 412.26 488.92 410.42 490.18 407.45 C 490.86 403.38 490.34 399.21 491.11 395.16 C 492.63 393.70 495.13 392.53 497.04 394.04 C 499.48 399.11 497.95 405.26 500.75 410.23 C 502.97 414.49 510.58 413.37 511.43 408.59 C 512.43 403.39 510.17 398.34 507.61 393.96 C 506.10 391.48 509.75 389.29 511.83 390.59 C 515.49 392.60 517.31 396.73 518.59 400.52 C 520.39 406.47 520.32 414.03 515.34 418.47 C 512.42 421.59 507.79 420.56 503.98 420.72 C 500.16 420.98 497.33 418.19 495.02 415.55 C 491.53 419.47 486.38 422.88 480.90 421.75 C 475.15 420.42 471.21 415.23 469.06 410.03 Z" />
</svg>
