<?xml version="1.0" encoding="UTF-8" ?>
<!DOCTYPE svg PUBLIC "-//W3C//DTD SVG 1.1//EN" "http://www.w3.org/Graphics/SVG/1.1/DTD/svg11.dtd">
<svg width="400pt" height="400pt" viewBox="0 0 400 400" version="1.1" xmlns="http://www.w3.org/2000/svg">
<path fill="#3949A2" opacity="1.00" d=" M 14.10 3.33 C 17.45 3.43 12.60 6.33 14.10 3.33 Z" />
<path fill="#3949A2" opacity="1.00" d=" M 127.99 3.21 C 129.63 2.71 130.17 3.27 129.63 4.89 C 127.99 5.39 127.44 4.83 127.99 3.21 Z" />
<path fill="#3949A2" opacity="1.00" d=" M 242.02 3.21 C 243.64 2.69 244.20 3.24 243.69 4.87 C 242.06 5.40 241.51 4.85 242.02 3.21 Z" />
<path fill="#3949A2" opacity="1.00" d=" M 356.10 3.21 C 357.72 2.71 358.27 3.27 357.73 4.90 C 356.10 5.40 355.55 4.83 356.10 3.21 Z" />
<path fill="#3949A2" opacity="1.00" d=" M 46.22 5.33 C 47.67 4.11 49.30 6.67 47.88 7.69 C 46.43 8.91 44.80 6.34 46.22 5.33 Z" />
<path fill="#3949A2" opacity="1.00" d=" M 160.30 5.29 C 161.78 4.14 163.38 6.72 161.89 7.69 C 160.41 8.83 158.81 6.26 160.30 5.29 Z" />
<path fill="#3949A2" opacity="1.00" d=" M 274.33 5.30 C 275.82 4.14 277.37 6.74 275.91 7.71 C 274.41 8.87 272.86 6.27 274.33 5.30 Z" />
<path fill="#3949A2" opacity="1.00" d=" M 389.22 5.32 C 390.68 5.26 390.72 7.72 389.25 7.70 C 387.78 7.76 387.75 5.30 389.22 5.32 Z" />
<path fill="#3949A2" opacity="1.00" d=" M 79.14 8.52 C 80.60 8.67 80.85 9.30 79.88 10.41 C 78.41 10.26 78.17 9.63 79.14 8.52 Z" />
<path fill="#3949A2" opacity="1.00" d=" M 193.18 8.13 C 194.76 7.66 195.33 10.33 193.84 10.76 C 192.26 11.24 191.69 8.57 193.18 8.13 Z" />
<path fill="#3949A2" opacity="1.00" d=" M 307.08 8.47 C 308.29 7.51 309.53 9.65 308.38 10.45 C 307.17 11.41 305.92 9.27 307.08 8.47 Z" />
<path fill="#3949A2" opacity="1.00" d=" M 369.37 14.76 C 373.12 16.17 376.63 18.33 378.92 21.70 C 374.91 20.75 371.43 18.35 369.37 14.76 Z" />
<path fill="#3949A2" opacity="1.00" d=" M 96.26 17.16 C 97.88 16.64 98.44 17.19 97.92 18.82 C 96.29 19.34 95.74 18.78 96.26 17.16 Z" />
<path fill="#3949A2" opacity="1.00" d=" M 210.25 17.15 C 211.27 15.64 213.74 17.39 212.56 18.83 C 211.54 20.33 209.06 18.58 210.25 17.15 Z" />
<path fill="#3949A2" opacity="1.00" d=" M 324.25 17.19 C 325.23 15.67 327.74 17.37 326.61 18.83 C 325.62 20.35 323.11 18.65 324.25 17.19 Z" />
<path fill="#3949A2" opacity="1.00" d=" M 31.51 26.56 C 33.95 24.13 34.58 19.61 38.65 19.29 C 36.43 23.74 33.40 27.70 30.50 31.73 C 29.37 30.43 28.32 29.07 27.42 27.60 C 28.78 27.26 30.22 27.14 31.51 26.56 Z" />
<path fill="#3949A2" opacity="1.00" d=" M 332.84 20.31 C 333.55 19.32 335.38 19.26 336.10 20.28 C 336.29 21.96 332.60 22.03 332.84 20.31 Z" />
<path fill="#3949A2" opacity="1.00" d=" M 62.31 23.87 C 63.37 22.53 64.55 21.31 65.83 20.18 C 65.92 21.20 66.10 23.25 66.20 24.27 C 65.22 24.17 63.28 23.97 62.31 23.87 Z" />
<path fill="#3949A2" opacity="1.00" d=" M 176.31 23.82 C 177.39 22.56 178.54 21.37 179.73 20.20 C 179.83 21.21 180.04 23.23 180.14 24.24 C 179.18 24.13 177.27 23.92 176.31 23.82 Z" />
<path fill="#3949A2" opacity="1.00" d=" M 292.12 21.43 C 293.56 20.25 295.27 22.76 293.78 23.76 C 292.33 24.94 290.62 22.44 292.12 21.43 Z" />
<path fill="#3949A2" opacity="1.00" d=" M 161.14 22.33 C 162.76 22.33 162.76 25.07 161.11 25.01 C 159.48 25.01 159.48 22.26 161.14 22.33 Z" />
<path fill="#3949A2" opacity="1.00" d=" M 275.11 22.35 C 276.73 22.34 276.73 25.09 275.10 25.04 C 273.47 25.06 273.47 22.31 275.11 22.35 Z" />
<path fill="#3949A2" opacity="1.00" d=" M 389.22 22.51 C 390.66 22.48 390.70 24.94 389.22 24.88 C 387.77 24.90 387.72 22.45 389.22 22.51 Z" />
<path fill="#3949A2" opacity="1.00" d=" M 46.19 23.10 C 47.82 22.57 48.37 23.12 47.87 24.75 C 46.24 25.29 45.69 24.74 46.19 23.10 Z" />
<path fill="#3949A2" opacity="1.00" d=" M 78.54 30.64 C 79.17 26.89 81.47 23.82 84.74 21.94 C 83.79 25.52 81.49 28.46 78.54 30.64 Z" />
<path fill="#3949A2" opacity="1.00" d=" M 303.40 28.51 C 303.75 24.43 307.80 24.87 310.80 24.98 C 309.03 27.32 306.09 27.91 303.40 28.51 Z" />
<path fill="#3949A2" opacity="1.00" d=" M 76.23 26.10 C 77.58 25.02 79.02 27.39 77.66 28.27 C 76.31 29.34 74.87 26.98 76.23 26.10 Z" />
<path fill="#3949A2" opacity="1.00" d=" M 190.23 26.16 C 191.86 25.64 192.41 26.19 191.89 27.82 C 190.26 28.34 189.71 27.78 190.23 26.16 Z" />
<path fill="#3949A2" opacity="1.00" d=" M 142.28 27.32 C 143.64 25.84 145.77 28.28 144.40 29.58 C 143.05 31.05 140.91 28.61 142.28 27.32 Z" />
<path fill="#3949A2" opacity="1.00" d=" M 166.27 31.05 C 169.87 27.46 175.16 27.06 179.95 26.60 C 176.38 30.25 171.09 30.79 166.27 31.05 Z" />
<path fill="#3949A2" opacity="1.00" d=" M 256.37 27.26 C 257.83 26.10 259.47 28.64 258.00 29.64 C 256.54 30.80 254.90 28.26 256.37 27.26 Z" />
<path fill="#3949A2" opacity="1.00" d=" M 370.41 27.34 C 371.68 26.02 373.66 28.27 372.37 29.46 C 371.09 30.78 369.12 28.53 370.41 27.34 Z" />
<path fill="#3949A2" opacity="1.00" d=" M 168.25 35.01 C 169.99 34.44 170.72 37.35 168.98 37.77 C 167.24 38.34 166.51 35.43 168.25 35.01 Z" />
<path fill="#3949A2" opacity="1.00" d=" M 213.07 35.46 C 214.75 35.56 214.73 38.51 213.05 38.59 C 211.36 38.48 211.38 35.54 213.07 35.46 Z" />
<path fill="#3949A2" opacity="1.00" d=" M 282.09 35.28 C 283.41 34.20 284.94 36.50 283.59 37.41 C 282.26 38.48 280.72 36.18 282.09 35.28 Z" />
<path fill="#3949A2" opacity="1.00" d=" M 327.18 35.52 C 328.92 35.56 328.86 38.53 327.14 38.54 C 325.40 38.51 325.46 35.54 327.18 35.52 Z" />
<path fill="#3949A2" opacity="1.00" d=" M 396.16 35.29 C 397.50 34.23 399.01 36.55 397.63 37.44 C 396.29 38.49 394.77 36.17 396.16 35.29 Z" />
<path fill="#3949A2" opacity="1.00" d=" M 98.21 36.15 C 99.84 35.66 100.39 36.22 99.84 37.84 C 98.20 38.33 97.66 37.77 98.21 36.15 Z" />
<path fill="#3949A2" opacity="1.00" d=" M 378.01 43.60 C 381.76 40.95 385.27 37.84 389.62 36.17 C 386.91 40.08 383.00 42.84 379.12 45.46 C 378.84 44.99 378.29 44.06 378.01 43.60 Z" />
<path fill="#3949A2" opacity="1.00" d=" M 110.24 39.42 C 111.59 37.97 113.81 40.32 112.39 41.63 C 111.05 43.09 108.82 40.73 110.24 39.42 Z" />
<path fill="#3949A2" opacity="1.00" d=" M 223.63 42.11 C 224.06 40.70 224.50 39.29 224.96 37.89 C 225.81 39.27 226.78 40.57 227.63 41.95 C 226.63 41.99 224.63 42.07 223.63 42.11 Z" />
<path fill="#3949A2" opacity="1.00" d=" M 337.35 41.88 C 338.02 40.71 338.40 39.19 339.78 38.64 C 340.41 39.75 341.01 40.88 341.58 42.03 C 340.52 41.99 338.41 41.91 337.35 41.88 Z" />
<path fill="#3949A2" opacity="1.00" d=" M 18.28 42.03 C 19.28 41.95 21.28 41.81 22.28 41.73 C 22.16 42.72 21.93 44.69 21.81 45.67 C 20.43 44.67 19.26 43.42 18.28 42.03 Z" />
<path fill="#3949A2" opacity="1.00" d=" M 134.12 42.25 C 135.57 41.07 137.27 43.58 135.76 44.58 C 134.31 45.76 132.61 43.25 134.12 42.25 Z" />
<path fill="#3949A2" opacity="1.00" d=" M 248.12 42.23 C 249.58 41.07 251.23 43.61 249.75 44.60 C 248.28 45.76 246.63 43.21 248.12 42.23 Z" />
<path fill="#3949A2" opacity="1.00" d=" M 362.18 42.26 C 363.62 41.07 365.32 43.57 363.84 44.58 C 362.39 45.78 360.69 43.27 362.18 42.26 Z" />
<path fill="#3949A2" opacity="1.00" d=" M 75.15 50.34 C 76.49 49.28 77.99 51.61 76.60 52.49 C 75.25 53.54 73.75 51.21 75.15 50.34 Z" />
<path fill="#3949A2" opacity="1.00" d=" M 189.10 50.31 C 190.54 49.12 192.23 51.64 190.76 52.65 C 189.32 53.84 187.63 51.32 189.10 50.31 Z" />
<path fill="#3949A2" opacity="1.00" d=" M 303.14 50.30 C 304.59 49.13 306.29 51.64 304.78 52.63 C 303.33 53.81 301.62 51.30 303.14 50.30 Z" />
<path fill="#3949A2" opacity="1.00" d=" M 216.79 51.09 C 220.77 54.93 221.73 60.63 223.01 65.77 C 218.57 62.32 217.84 56.23 216.79 51.09 Z" />
<path fill="#3949A2" opacity="1.00" d=" M 154.13 54.33 C 155.57 53.16 157.28 55.66 155.78 56.66 C 154.33 57.84 152.62 55.33 154.13 54.33 Z" />
<path fill="#3949A2" opacity="1.00" d=" M 11.17 54.13 C 12.27 55.07 13.40 55.98 14.43 57.00 C 13.28 57.58 12.13 58.18 11.00 58.79 C 11.04 57.63 11.13 55.29 11.17 54.13 Z" />
<path fill="#3949A2" opacity="1.00" d=" M 125.71 58.77 C 125.03 57.14 125.46 55.39 125.70 53.73 C 126.59 54.98 127.88 56.11 128.12 57.72 C 127.51 57.98 126.31 58.50 125.71 58.77 Z" />
<path fill="#3949A2" opacity="1.00" d=" M 238.77 58.16 C 239.15 56.75 239.54 55.35 239.95 53.96 C 240.83 55.28 241.70 56.62 242.60 57.94 C 241.64 58.00 239.72 58.10 238.77 58.16 Z" />
<path fill="#3949A2" opacity="1.00" d=" M 353.03 54.34 C 354.40 55.13 355.77 55.94 357.16 56.73 C 356.26 57.26 354.48 58.33 353.59 58.87 C 353.39 57.36 353.21 55.85 353.03 54.34 Z" />
<path fill="#3949A2" opacity="1.00" d=" M 337.83 56.00 C 339.33 56.00 340.84 56.00 342.35 55.99 C 342.32 56.50 342.26 57.50 342.22 58.00 C 340.81 58.00 339.41 58.00 338.01 58.00 C 337.96 57.50 337.87 56.50 337.83 56.00 Z" />
<path fill="#3949A2" opacity="1.00" d=" M 174.65 60.68 C 178.02 60.01 182.74 60.16 183.71 64.29 C 180.49 63.64 177.44 62.40 174.65 60.68 Z" />
<path fill="#3949A2" opacity="1.00" d=" M 100.24 65.46 C 101.46 62.73 104.09 61.77 106.92 61.74 C 105.15 63.71 102.79 64.88 100.24 65.46 Z" />
<path fill="#3949A2" opacity="1.00" d=" M 27.15 63.68 C 28.61 63.85 28.85 64.48 27.87 65.58 C 26.41 65.41 26.17 64.78 27.15 63.68 Z" />
<path fill="#3949A2" opacity="1.00" d=" M 59.14 63.64 C 60.48 62.55 61.95 64.90 60.61 65.80 C 59.27 66.89 57.80 64.54 59.14 63.64 Z" />
<path fill="#3949A2" opacity="1.00" d=" M 141.11 63.55 C 142.44 62.46 143.91 64.81 142.58 65.71 C 141.24 66.81 139.77 64.45 141.11 63.55 Z" />
<path fill="#3949A2" opacity="1.00" d=" M 173.19 63.64 C 174.51 62.55 176.01 64.88 174.70 65.80 C 173.38 66.89 171.88 64.57 173.19 63.64 Z" />
<path fill="#3949A2" opacity="1.00" d=" M 255.10 63.60 C 256.42 62.51 257.95 64.82 256.61 65.74 C 255.29 66.83 253.76 64.52 255.10 63.60 Z" />
<path fill="#3949A2" opacity="1.00" d=" M 287.17 63.43 C 288.67 62.29 290.20 64.90 288.72 65.85 C 287.22 67.00 285.68 64.38 287.17 63.43 Z" />
<path fill="#3949A2" opacity="1.00" d=" M 369.18 63.56 C 370.52 62.45 371.94 64.84 370.64 65.74 C 369.29 66.84 367.87 64.46 369.18 63.56 Z" />
<path fill="#3949A2" opacity="1.00" d=" M 72.17 65.51 C 73.87 65.58 73.90 68.54 72.17 68.57 C 70.47 68.50 70.44 65.54 72.17 65.51 Z" />
<path fill="#3949A2" opacity="1.00" d=" M 184.50 67.09 C 185.29 66.18 186.10 65.28 186.94 64.41 C 187.17 65.07 187.64 66.39 187.88 67.05 C 187.65 67.68 187.19 68.95 186.95 69.58 C 186.13 68.76 185.31 67.92 184.50 67.09 Z" />
<path fill="#3949A2" opacity="1.00" d=" M 107.38 68.64 C 108.99 67.64 110.09 70.46 108.66 71.28 C 107.05 72.27 105.94 69.45 107.38 68.64 Z" />
<path fill="#3949A2" opacity="1.00" d=" M 90.13 71.60 C 90.60 71.64 91.55 71.71 92.02 71.75 C 92.00 75.06 91.97 78.36 91.89 81.67 C 91.04 81.89 89.33 82.33 88.48 82.55 C 89.57 79.00 90.02 75.30 90.13 71.60 Z" />
<path fill="#3949A2" opacity="1.00" d=" M 41.23 76.27 C 42.69 75.12 44.37 77.65 42.85 78.63 C 41.39 79.77 39.71 77.25 41.23 76.27 Z" />
<path fill="#3949A2" opacity="1.00" d=" M 155.26 76.28 C 156.70 75.11 158.38 77.63 156.93 78.64 C 155.48 79.81 153.80 77.29 155.26 76.28 Z" />
<path fill="#3949A2" opacity="1.00" d=" M 269.25 76.36 C 270.57 74.91 272.88 77.18 271.41 78.51 C 270.09 79.95 267.77 77.68 269.25 76.36 Z" />
<path fill="#3949A2" opacity="1.00" d=" M 383.22 76.39 C 384.53 74.89 386.77 77.22 385.42 78.56 C 384.11 80.06 381.86 77.73 383.22 76.39 Z" />
<path fill="#3949A2" opacity="1.00" d=" M 344.80 76.31 C 347.35 78.10 348.28 81.01 348.36 84.01 C 345.24 82.64 344.95 79.27 344.80 76.31 Z" />
<path fill="#3949A2" opacity="1.00" d=" M 48.35 78.34 C 51.69 79.32 54.07 81.87 55.68 84.86 C 52.36 83.83 50.00 81.28 48.35 78.34 Z" />
<path fill="#3949A2" opacity="1.00" d=" M 203.16 79.73 C 204.63 79.85 204.89 80.47 203.94 81.60 C 202.47 81.48 202.21 80.86 203.16 79.73 Z" />
<path fill="#3949A2" opacity="1.00" d=" M 264.26 85.09 C 265.62 81.50 269.42 80.48 272.79 79.70 C 270.97 82.83 267.53 84.11 264.26 85.09 Z" />
<path fill="#3949A2" opacity="1.00" d=" M 49.28 84.38 C 50.63 82.87 52.79 85.29 51.40 86.60 C 50.05 88.10 47.89 85.68 49.28 84.38 Z" />
<path fill="#3949A2" opacity="1.00" d=" M 163.32 84.36 C 164.67 82.87 166.83 85.29 165.43 86.59 C 164.08 88.08 161.91 85.66 163.32 84.36 Z" />
<path fill="#3949A2" opacity="1.00" d=" M 277.09 83.31 C 278.26 83.87 279.42 84.46 280.57 85.07 C 279.81 86.46 278.38 87.07 277.02 87.69 C 277.04 86.60 277.07 84.40 277.09 83.31 Z" />
<path fill="#3949A2" opacity="1.00" d=" M 390.56 86.88 C 391.36 85.53 392.15 84.18 392.96 82.83 C 393.40 84.24 393.84 85.65 394.27 87.07 C 393.35 87.02 391.49 86.92 390.56 86.88 Z" />
<path fill="#3949A2" opacity="1.00" d=" M 110.27 86.28 C 111.73 86.26 111.71 88.71 110.25 88.68 C 108.79 88.70 108.81 86.25 110.27 86.28 Z" />
<path fill="#3949A2" opacity="1.00" d=" M 224.29 86.26 C 225.74 86.25 225.72 88.70 224.27 88.67 C 222.81 88.68 222.83 86.22 224.29 86.26 Z" />
<path fill="#3949A2" opacity="1.00" d=" M 338.15 86.52 C 339.62 86.65 339.87 87.27 338.93 88.40 C 337.45 88.27 337.20 87.65 338.15 86.52 Z" />
<path fill="#3949A2" opacity="1.00" d=" M 145.28 93.56 C 147.17 92.65 147.46 97.76 145.62 97.88 C 144.53 96.80 144.64 94.85 145.28 93.56 Z" />
<path fill="#3949A2" opacity="1.00" d=" M 76.79 92.66 C 79.16 94.15 79.06 96.91 79.25 99.36 C 78.70 99.04 77.61 98.40 77.06 98.08 C 76.95 96.28 76.86 94.47 76.79 92.66 Z" />
<path fill="#3949A2" opacity="1.00" d=" M 197.25 96.98 C 198.97 96.47 199.69 99.37 197.98 99.79 C 196.25 100.30 195.53 97.40 197.25 96.98 Z" />
<path fill="#3949A2" opacity="1.00" d=" M 310.95 97.21 C 312.36 96.00 314.10 98.48 312.67 99.53 C 311.25 100.73 309.51 98.26 310.95 97.21 Z" />
<path fill="#3949A2" opacity="1.00" d=" M 179.20 103.24 C 180.74 100.38 183.52 98.81 186.64 98.21 C 185.72 99.60 185.01 101.20 183.77 102.35 C 182.32 102.94 180.72 102.97 179.20 103.24 Z" />
<path fill="#3949A2" opacity="1.00" d=" M 59.07 100.54 C 60.25 99.57 61.60 101.64 60.40 102.46 C 59.22 103.42 57.87 101.35 59.07 100.54 Z" />
<path fill="#3949A2" opacity="1.00" d=" M 172.96 100.34 C 174.41 99.15 176.07 101.69 174.61 102.69 C 173.15 103.88 171.49 101.34 172.96 100.34 Z" />
<path fill="#3949A2" opacity="1.00" d=" M 286.95 100.35 C 288.40 99.14 290.06 101.68 288.61 102.69 C 287.16 103.89 285.49 101.36 286.95 100.35 Z" />
<path fill="#3949A2" opacity="1.00" d=" M 33.30 102.26 C 34.60 101.17 36.20 103.42 34.86 104.37 C 33.56 105.46 31.97 103.21 33.30 102.26 Z" />
<path fill="#3949A2" opacity="1.00" d=" M 261.38 102.23 C 262.68 101.13 264.26 103.41 262.91 104.34 C 261.60 105.43 260.03 103.16 261.38 102.23 Z" />
<path fill="#3949A2" opacity="1.00" d=" M 14.28 107.36 C 16.13 107.05 16.61 110.21 14.84 110.61 C 13.00 110.91 12.53 107.77 14.28 107.36 Z" />
<path fill="#3949A2" opacity="1.00" d=" M 191.00 106.96 C 191.53 106.97 192.57 106.99 193.10 106.99 C 193.10 108.40 193.09 109.80 193.07 111.21 C 192.55 111.23 191.52 111.26 191.00 111.28 C 190.99 109.84 190.99 108.40 191.00 106.96 Z" />
<path fill="#3949A2" opacity="1.00" d=" M 242.30 107.54 C 244.18 107.05 244.72 110.23 242.97 110.69 C 241.10 111.16 240.56 108.01 242.30 107.54 Z" />
<path fill="#3949A2" opacity="1.00" d=" M 307.20 106.17 C 308.23 107.44 309.81 108.54 309.89 110.34 C 310.34 112.90 308.37 114.91 307.08 116.88 C 306.95 113.31 306.98 109.73 307.20 106.17 Z" />
<path fill="#3949A2" opacity="1.00" d=" M 356.04 108.22 C 357.66 107.68 358.22 108.22 357.73 109.86 C 356.11 110.41 355.55 109.86 356.04 108.22 Z" />
<path fill="#3949A2" opacity="1.00" d=" M 46.25 110.23 C 47.74 109.07 49.29 111.68 47.83 112.65 C 46.34 113.81 44.79 111.20 46.25 110.23 Z" />
<path fill="#3949A2" opacity="1.00" d=" M 160.30 110.23 C 161.76 109.06 163.39 111.61 161.92 112.60 C 160.45 113.78 158.82 111.22 160.30 110.23 Z" />
<path fill="#3949A2" opacity="1.00" d=" M 274.37 110.28 C 275.71 109.19 277.18 111.54 275.85 112.45 C 274.51 113.53 273.04 111.18 274.37 110.28 Z" />
<path fill="#3949A2" opacity="1.00" d=" M 389.28 110.17 C 390.73 110.14 390.74 112.59 389.29 112.57 C 387.82 112.60 387.82 110.15 389.28 110.17 Z" />
<path fill="#3949A2" opacity="1.00" d=" M 10.25 110.64 C 14.11 111.80 18.35 113.36 20.00 117.41 C 16.23 116.05 12.42 114.20 10.25 110.64 Z" />
<path fill="#3949A2" opacity="1.00" d=" M 79.14 113.37 C 80.61 113.50 80.86 114.13 79.90 115.25 C 78.44 115.11 78.18 114.48 79.14 113.37 Z" />
<path fill="#3949A2" opacity="1.00" d=" M 193.18 113.08 C 194.75 112.63 195.35 115.29 193.82 115.68 C 192.24 116.13 191.64 113.47 193.18 113.08 Z" />
<path fill="#3949A2" opacity="1.00" d=" M 22.25 114.01 C 24.14 113.43 24.89 116.58 23.00 116.99 C 21.11 117.57 20.36 114.42 22.25 114.01 Z" />
<path fill="#3949A2" opacity="1.00" d=" M 134.28 116.74 C 135.23 115.34 136.44 114.17 137.86 113.25 C 137.90 114.22 137.98 116.15 138.02 117.11 C 137.09 117.02 135.22 116.83 134.28 116.74 Z" />
<path fill="#3949A2" opacity="1.00" d=" M 250.31 114.01 C 252.18 113.43 252.99 116.56 251.09 116.99 C 249.22 117.57 248.41 114.44 250.31 114.01 Z" />
<path fill="#3949A2" opacity="1.00" d=" M 364.31 113.99 C 366.18 113.43 366.95 116.58 365.06 116.99 C 363.17 117.55 362.41 114.40 364.31 113.99 Z" />
<path fill="#3949A2" opacity="1.00" d=" M 96.99 121.30 C 98.75 120.73 99.45 123.65 97.68 124.03 C 95.92 124.59 95.22 121.67 96.99 121.30 Z" />
<path fill="#3949A2" opacity="1.00" d=" M 211.07 121.23 C 212.94 120.63 213.79 123.77 211.85 124.16 C 209.97 124.75 209.11 121.62 211.07 121.23 Z" />
<path fill="#3949A2" opacity="1.00" d=" M 325.03 121.21 C 326.90 120.58 327.75 123.71 325.85 124.16 C 323.98 124.78 323.13 121.65 325.03 121.21 Z" />
<path fill="#3949A2" opacity="1.00" d=" M 348.58 130.87 C 347.24 127.96 347.83 124.02 351.46 123.28 C 350.75 125.90 349.78 128.44 348.58 130.87 Z" />
<path fill="#3949A2" opacity="1.00" d=" M 64.26 126.08 C 66.13 125.45 66.99 128.58 65.07 129.01 C 63.20 129.64 62.33 126.51 64.26 126.08 Z" />
<path fill="#3949A2" opacity="1.00" d=" M 292.41 126.03 C 294.30 125.47 295.01 128.63 293.12 129.02 C 291.22 129.57 290.50 126.41 292.41 126.03 Z" />
<path fill="#3949A2" opacity="1.00" d=" M 46.21 127.46 C 47.68 126.26 49.27 128.84 47.84 129.85 C 46.38 131.05 44.79 128.46 46.21 127.46 Z" />
<path fill="#3949A2" opacity="1.00" d=" M 161.12 127.36 C 162.76 127.35 162.70 130.10 161.07 130.03 C 159.42 130.04 159.49 127.29 161.12 127.36 Z" />
<path fill="#3949A2" opacity="1.00" d=" M 274.42 127.41 C 276.52 126.18 277.37 130.46 275.14 130.59 C 273.63 130.49 273.31 128.22 274.42 127.41 Z" />
<path fill="#3949A2" opacity="1.00" d=" M 389.24 127.38 C 390.95 127.45 390.92 130.41 389.21 130.44 C 387.49 130.37 387.52 127.41 389.24 127.38 Z" />
<path fill="#3949A2" opacity="1.00" d=" M 76.25 131.20 C 77.61 130.14 79.01 132.53 77.67 133.41 C 76.31 134.46 74.91 132.07 76.25 131.20 Z" />
<path fill="#3949A2" opacity="1.00" d=" M 190.20 131.25 C 191.81 130.69 192.38 131.23 191.90 132.87 C 190.28 133.43 189.72 132.89 190.20 131.25 Z" />
<path fill="#3949A2" opacity="1.00" d=" M 304.33 131.20 C 305.69 130.14 307.11 132.52 305.74 133.39 C 304.38 134.45 302.95 132.07 304.33 131.20 Z" />
<path fill="#3949A2" opacity="1.00" d=" M 28.27 132.24 C 29.72 131.07 31.36 133.62 29.92 134.62 C 28.46 135.80 26.82 133.25 28.27 132.24 Z" />
<path fill="#3949A2" opacity="1.00" d=" M 142.30 132.32 C 143.64 130.80 145.79 133.23 144.41 134.54 C 143.06 136.06 140.91 133.63 142.30 132.32 Z" />
<path fill="#3949A2" opacity="1.00" d=" M 256.37 132.23 C 257.84 131.07 259.46 133.63 257.99 134.61 C 256.51 135.77 254.89 133.22 256.37 132.23 Z" />
<path fill="#3949A2" opacity="1.00" d=" M 369.97 131.24 C 371.15 131.86 372.36 132.44 373.59 132.99 C 372.49 133.96 371.34 134.86 370.21 135.77 C 370.15 134.64 370.03 132.37 369.97 131.24 Z" />
<path fill="#3949A2" opacity="1.00" d=" M 378.22 144.52 C 379.12 141.02 382.50 139.61 385.60 138.63 C 383.83 141.35 381.22 143.33 378.22 144.52 Z" />
<path fill="#3949A2" opacity="1.00" d=" M 53.43 140.12 C 54.77 138.68 57.03 141.01 55.57 142.32 C 54.23 143.75 51.97 141.43 53.43 140.12 Z" />
<path fill="#3949A2" opacity="1.00" d=" M 167.56 140.14 C 168.93 138.71 171.09 141.12 169.65 142.40 C 168.27 143.83 166.10 141.42 167.56 140.14 Z" />
<path fill="#3949A2" opacity="1.00" d=" M 282.10 140.15 C 283.43 139.11 284.96 141.41 283.60 142.31 C 282.26 143.35 280.73 141.05 282.10 140.15 Z" />
<path fill="#3949A2" opacity="1.00" d=" M 396.17 140.19 C 397.52 139.15 399.00 141.49 397.60 142.36 C 396.25 143.39 394.76 141.06 396.17 140.19 Z" />
<path fill="#3949A2" opacity="1.00" d=" M 98.22 141.13 C 99.86 140.65 100.40 141.23 99.83 142.84 C 98.18 143.31 97.65 142.74 98.22 141.13 Z" />
<path fill="#3949A2" opacity="1.00" d=" M 212.22 141.16 C 213.85 140.66 214.40 141.22 213.86 142.85 C 212.22 143.34 211.67 142.78 212.22 141.16 Z" />
<path fill="#3949A2" opacity="1.00" d=" M 326.28 141.15 C 327.90 140.63 328.46 141.18 327.94 142.81 C 326.31 143.33 325.76 142.78 326.28 141.15 Z" />
<path fill="#3949A2" opacity="1.00" d=" M 225.28 147.71 C 223.92 146.66 224.40 144.77 224.15 143.30 C 226.87 145.11 229.39 147.18 231.73 149.46 C 229.58 148.98 227.11 149.10 225.28 147.71 Z" />
<path fill="#3949A2" opacity="1.00" d=" M 138.27 145.84 C 143.84 147.56 150.57 147.39 154.67 152.15 C 149.00 151.15 142.12 150.68 138.27 145.84 Z" />
<path fill="#3949A2" opacity="1.00" d=" M 20.12 147.20 C 21.47 146.19 22.95 148.52 21.55 149.38 C 20.19 150.39 18.71 148.06 20.12 147.20 Z" />
<path fill="#3949A2" opacity="1.00" d=" M 248.17 147.22 C 249.51 146.18 251.00 148.50 249.63 149.39 C 248.29 150.43 246.80 148.10 248.17 147.22 Z" />
<path fill="#3949A2" opacity="1.00" d=" M 66.94 155.41 C 68.71 151.44 73.00 150.04 76.75 148.66 C 74.78 152.44 70.72 154.06 66.94 155.41 Z" />
<path fill="#3949A2" opacity="1.00" d=" M 74.87 159.03 C 74.71 157.27 74.56 155.50 74.45 153.74 C 75.24 154.34 76.83 155.54 77.62 156.14 C 76.73 157.13 75.81 158.09 74.87 159.03 Z" />
<path fill="#3949A2" opacity="1.00" d=" M 189.11 155.20 C 190.55 154.02 192.26 156.52 190.78 157.53 C 189.33 158.70 187.62 156.21 189.11 155.20 Z" />
<path fill="#3949A2" opacity="1.00" d=" M 303.16 155.21 C 304.60 154.05 306.32 156.55 304.81 157.55 C 303.36 158.70 301.64 156.21 303.16 155.21 Z" />
<path fill="#3949A2" opacity="1.00" d=" M 38.41 161.81 C 39.31 160.38 40.47 159.16 41.93 158.29 C 41.97 159.23 42.03 161.12 42.06 162.07 C 41.15 162.00 39.32 161.88 38.41 161.81 Z" />
<path fill="#3949A2" opacity="1.00" d=" M 154.13 159.34 C 155.56 158.15 157.27 160.65 155.80 161.67 C 154.35 162.86 152.64 160.35 154.13 159.34 Z" />
<path fill="#3949A2" opacity="1.00" d=" M 382.23 159.31 C 383.69 158.14 385.35 160.68 383.86 161.67 C 382.39 162.83 380.73 160.29 382.23 159.31 Z" />
<path fill="#3949A2" opacity="1.00" d=" M 11.34 160.48 C 12.68 158.98 14.86 161.39 13.44 162.70 C 12.09 164.19 9.92 161.78 11.34 160.48 Z" />
<path fill="#3949A2" opacity="1.00" d=" M 126.08 160.18 C 127.94 159.53 128.86 162.64 126.93 163.09 C 125.07 163.73 124.15 160.62 126.08 160.18 Z" />
<path fill="#3949A2" opacity="1.00" d=" M 240.12 160.19 C 241.99 159.59 242.81 162.72 240.91 163.16 C 239.04 163.75 238.21 160.62 240.12 160.19 Z" />
<path fill="#3949A2" opacity="1.00" d=" M 354.16 160.17 C 356.02 159.50 356.88 162.63 355.01 163.11 C 353.13 163.78 352.28 160.65 354.16 160.17 Z" />
<path fill="#3949A2" opacity="1.00" d=" M 302.72 166.32 C 304.58 168.51 305.83 171.12 306.46 173.93 C 302.82 173.05 302.69 169.36 302.72 166.32 Z" />
<path fill="#3949A2" opacity="1.00" d=" M 27.23 168.11 C 28.95 167.66 29.62 170.57 27.91 170.97 C 26.19 171.41 25.52 168.50 27.23 168.11 Z" />
<path fill="#3949A2" opacity="1.00" d=" M 59.11 168.54 C 60.44 167.47 61.94 169.79 60.61 170.70 C 59.28 171.77 57.78 169.45 59.11 168.54 Z" />
<path fill="#3949A2" opacity="1.00" d=" M 141.12 168.57 C 142.32 167.62 143.62 169.72 142.44 170.53 C 141.24 171.48 139.94 169.37 141.12 168.57 Z" />
<path fill="#3949A2" opacity="1.00" d=" M 173.13 168.39 C 174.59 167.23 176.22 169.78 174.76 170.78 C 173.29 171.94 171.66 169.38 173.13 168.39 Z" />
<path fill="#3949A2" opacity="1.00" d=" M 255.07 168.35 C 256.54 167.20 258.17 169.76 256.68 170.73 C 255.20 171.88 253.57 169.33 255.07 168.35 Z" />
<path fill="#3949A2" opacity="1.00" d=" M 287.12 168.37 C 288.58 167.20 290.20 169.76 288.75 170.76 C 287.28 171.93 285.66 169.36 287.12 168.37 Z" />
<path fill="#3949A2" opacity="1.00" d=" M 369.20 168.56 C 370.41 167.61 371.68 169.73 370.51 170.53 C 369.29 171.49 368.02 169.36 369.20 168.56 Z" />
<path fill="#3949A2" opacity="1.00" d=" M 72.16 170.44 C 73.81 170.40 73.78 173.16 72.14 173.10 C 70.49 173.13 70.52 170.38 72.16 170.44 Z" />
<path fill="#3949A2" opacity="1.00" d=" M 186.08 170.87 C 187.54 170.99 187.80 171.61 186.86 172.74 C 185.39 172.62 185.13 171.99 186.08 170.87 Z" />
<path fill="#3949A2" opacity="1.00" d=" M 191.99 173.28 C 193.48 171.95 194.92 170.14 197.10 170.05 C 198.42 169.58 199.91 171.39 198.49 172.35 C 196.46 173.26 194.15 173.08 191.99 173.28 Z" />
<path fill="#3949A2" opacity="1.00" d=" M 300.67 174.53 C 299.02 172.96 298.95 171.09 300.49 169.42 C 300.84 170.06 301.54 171.34 301.89 171.98 C 301.59 172.62 300.98 173.89 300.67 174.53 Z" />
<path fill="#3949A2" opacity="1.00" d=" M 22.97 171.66 C 26.43 172.10 30.01 173.22 31.80 176.49 C 28.41 175.86 25.10 174.49 22.97 171.66 Z" />
<path fill="#3949A2" opacity="1.00" d=" M 107.26 173.47 C 108.73 172.31 110.38 174.85 108.89 175.84 C 107.42 176.99 105.77 174.45 107.26 173.47 Z" />
<path fill="#3949A2" opacity="1.00" d=" M 221.04 172.82 C 221.68 172.99 222.96 173.33 223.60 173.50 C 223.74 174.14 224.01 175.42 224.14 176.06 C 223.35 176.12 221.76 176.22 220.96 176.28 C 220.98 175.41 221.02 173.69 221.04 172.82 Z" />
<path fill="#3949A2" opacity="1.00" d=" M 335.03 172.87 C 335.67 173.01 336.95 173.30 337.59 173.45 C 337.73 174.09 338.03 175.38 338.17 176.02 C 337.35 176.12 335.71 176.31 334.89 176.41 C 334.92 175.52 335.00 173.75 335.03 172.87 Z" />
<path fill="#3949A2" opacity="1.00" d=" M 155.26 181.28 C 156.71 180.10 158.37 182.63 156.90 183.64 C 155.45 184.81 153.78 182.28 155.26 181.28 Z" />
<path fill="#3949A2" opacity="1.00" d=" M 383.30 181.38 C 384.66 179.90 386.81 182.34 385.39 183.62 C 384.02 185.09 381.87 182.66 383.30 181.38 Z" />
<path fill="#3949A2" opacity="1.00" d=" M 89.17 184.37 C 90.81 184.31 90.82 187.06 89.18 187.03 C 87.53 187.08 87.52 184.33 89.17 184.37 Z" />
<path fill="#3949A2" opacity="1.00" d=" M 203.15 184.84 C 204.61 184.97 204.87 185.60 203.91 186.72 C 202.44 186.58 202.19 185.96 203.15 184.84 Z" />
<path fill="#3949A2" opacity="1.00" d=" M 317.14 184.18 C 319.02 183.61 319.74 186.76 317.90 187.21 C 316.02 187.79 315.29 184.64 317.14 184.18 Z" />
<path fill="#3949A2" opacity="1.00" d=" M 18.09 187.17 C 19.96 186.60 20.78 189.73 18.86 190.14 C 16.98 190.71 16.16 187.57 18.09 187.17 Z" />
<path fill="#3949A2" opacity="1.00" d=" M 132.17 187.17 C 134.03 186.60 134.86 189.73 132.96 190.16 C 131.09 190.72 130.27 187.59 132.17 187.17 Z" />
<path fill="#3949A2" opacity="1.00" d=" M 155.32 187.80 C 156.97 188.14 157.15 191.96 155.66 192.75 C 154.42 191.58 154.54 189.22 155.32 187.80 Z" />
<path fill="#3949A2" opacity="1.00" d=" M 246.27 187.07 C 248.14 186.53 248.86 189.68 247.01 190.11 C 245.13 190.64 244.41 187.50 246.27 187.07 Z" />
<path fill="#3949A2" opacity="1.00" d=" M 358.11 188.74 C 360.89 185.90 364.54 188.22 367.53 189.38 C 369.61 190.18 371.30 191.64 372.82 193.23 C 367.81 192.10 362.93 190.49 358.11 188.74 Z" />
<path fill="#3949A2" opacity="1.00" d=" M 49.41 189.25 C 50.72 188.19 52.28 190.47 50.93 191.39 C 49.61 192.45 48.05 190.17 49.41 189.25 Z" />
<path fill="#3949A2" opacity="1.00" d=" M 163.26 189.28 C 164.63 187.84 166.78 190.27 165.35 191.55 C 163.98 192.99 161.83 190.56 163.26 189.28 Z" />
<path fill="#3949A2" opacity="1.00" d=" M 276.96 188.29 C 278.15 188.82 279.32 189.39 280.48 190.01 C 279.44 190.96 278.32 191.83 277.25 192.75 C 277.18 191.64 277.04 189.41 276.96 188.29 Z" />
<path fill="#3949A2" opacity="1.00" d=" M 391.50 189.24 C 392.86 187.80 395.05 190.19 393.59 191.47 C 392.22 192.90 390.02 190.51 391.50 189.24 Z" />
<path fill="#3949A2" opacity="1.00" d=" M 110.27 191.24 C 111.72 191.21 111.75 193.67 110.28 193.64 C 108.83 193.66 108.80 191.21 110.27 191.24 Z" />
<path fill="#3949A2" opacity="1.00" d=" M 224.27 191.30 C 225.73 191.25 225.77 193.70 224.31 193.69 C 222.84 193.73 222.80 191.28 224.27 191.30 Z" />
<path fill="#3949A2" opacity="1.00" d=" M 338.15 191.53 C 339.61 191.65 339.87 192.28 338.93 193.41 C 337.46 193.28 337.20 192.66 338.15 191.53 Z" />
<path fill="#3949A2" opacity="1.00" d=" M 198.32 199.99 C 198.67 196.96 201.16 195.04 203.39 193.33 C 202.51 195.98 201.71 199.65 198.32 199.99 Z" />
<path fill="#3949A2" opacity="1.00" d=" M 57.90 199.75 C 61.90 200.14 66.07 201.14 68.74 204.39 C 64.76 203.96 60.54 203.06 57.90 199.75 Z" />
<path fill="#3949A2" opacity="1.00" d=" M 369.14 200.01 C 372.48 200.05 367.69 203.02 369.14 200.01 Z" />
<path fill="#3949A2" opacity="1.00" d=" M 195.16 203.90 C 196.02 203.05 196.50 201.64 197.71 201.21 C 198.39 202.45 198.91 203.77 199.51 205.06 C 198.06 204.68 196.61 204.29 195.16 203.90 Z" />
<path fill="#3949A2" opacity="1.00" d=" M 83.06 202.30 C 86.40 202.46 81.49 205.26 83.06 202.30 Z" />
<path fill="#3949A2" opacity="1.00" d=" M 311.02 202.16 C 312.65 201.67 313.20 202.23 312.65 203.85 C 311.01 204.34 310.47 203.78 311.02 202.16 Z" />
<path fill="#3949A2" opacity="1.00" d=" M 16.24 208.91 C 17.72 205.84 20.07 203.25 23.45 202.35 C 21.82 205.27 19.45 207.75 16.24 208.91 Z" />
<path fill="#3949A2" opacity="1.00" d=" M 59.16 204.97 C 61.01 204.38 61.86 207.49 60.01 207.98 C 58.16 208.57 57.31 205.45 59.16 204.97 Z" />
<path fill="#3949A2" opacity="1.00" d=" M 173.21 205.00 C 175.06 204.44 175.88 207.56 174.03 208.04 C 172.17 208.59 171.36 205.47 173.21 205.00 Z" />
<path fill="#3949A2" opacity="1.00" d=" M 287.25 204.96 C 289.11 204.42 289.86 207.56 288.03 208.03 C 286.17 208.56 285.42 205.42 287.25 204.96 Z" />
<path fill="#3949A2" opacity="1.00" d=" M 33.23 207.22 C 34.69 206.06 36.35 208.60 34.85 209.58 C 33.39 210.73 31.73 208.20 33.23 207.22 Z" />
<path fill="#3949A2" opacity="1.00" d=" M 147.22 207.23 C 148.68 206.07 150.34 208.60 148.84 209.59 C 147.38 210.74 145.72 208.21 147.22 207.23 Z" />
<path fill="#3949A2" opacity="1.00" d=" M 261.41 207.30 C 262.72 206.22 264.28 208.51 262.93 209.43 C 261.61 210.51 260.06 208.22 261.41 207.30 Z" />
<path fill="#3949A2" opacity="1.00" d=" M 375.39 207.30 C 376.69 206.20 378.28 208.46 376.94 209.40 C 375.64 210.49 374.04 208.23 375.39 207.30 Z" />
<path fill="#3949A2" opacity="1.00" d=" M 14.13 213.33 C 17.47 213.55 12.52 216.26 14.13 213.33 Z" />
<path fill="#3949A2" opacity="1.00" d=" M 128.15 213.31 C 131.48 213.51 126.55 216.25 128.15 213.31 Z" />
<path fill="#3949A2" opacity="1.00" d=" M 242.10 213.15 C 243.43 212.10 244.94 214.41 243.58 215.32 C 242.25 216.36 240.73 214.05 242.10 213.15 Z" />
<path fill="#3949A2" opacity="1.00" d=" M 356.09 213.21 C 357.72 212.71 358.27 213.27 357.73 214.90 C 356.09 215.39 355.54 214.83 356.09 213.21 Z" />
<path fill="#3949A2" opacity="1.00" d=" M 46.25 215.27 C 47.73 214.10 49.30 216.70 47.85 217.68 C 46.37 218.84 44.80 216.25 46.25 215.27 Z" />
<path fill="#3949A2" opacity="1.00" d=" M 160.27 215.29 C 161.73 214.10 163.37 216.66 161.90 217.65 C 160.43 218.83 158.80 216.27 160.27 215.29 Z" />
<path fill="#3949A2" opacity="1.00" d=" M 274.34 215.26 C 275.82 214.10 277.38 216.70 275.93 217.68 C 274.44 218.83 272.88 216.23 274.34 215.26 Z" />
<path fill="#3949A2" opacity="1.00" d=" M 388.28 215.36 C 389.62 213.83 391.77 216.27 390.38 217.58 C 389.03 219.10 386.88 216.66 388.28 215.36 Z" />
<path fill="#3949A2" opacity="1.00" d=" M 35.97 216.26 C 39.29 217.10 37.97 220.84 38.27 223.29 C 35.38 222.05 36.00 218.75 35.97 216.26 Z" />
<path fill="#3949A2" opacity="1.00" d=" M 79.13 218.48 C 80.59 218.62 80.84 219.25 79.88 220.36 C 78.41 220.21 78.16 219.59 79.13 218.48 Z" />
<path fill="#3949A2" opacity="1.00" d=" M 193.13 218.50 C 194.60 218.62 194.86 219.25 193.91 220.37 C 192.44 220.25 192.18 219.62 193.13 218.50 Z" />
<path fill="#3949A2" opacity="1.00" d=" M 307.10 218.46 C 308.32 217.48 309.55 219.64 308.39 220.43 C 307.17 221.40 305.94 219.25 307.10 218.46 Z" />
<path fill="#3949A2" opacity="1.00" d=" M 134.84 219.95 C 135.77 219.20 136.82 218.62 137.98 218.22 C 137.96 219.34 137.90 221.57 137.88 222.69 C 136.75 221.91 135.04 221.56 134.84 219.95 Z" />
<path fill="#3949A2" opacity="1.00" d=" M 250.27 218.93 C 252.14 218.33 252.94 221.46 251.07 221.92 C 249.20 222.52 248.40 219.38 250.27 218.93 Z" />
<path fill="#3949A2" opacity="1.00" d=" M 252.54 219.37 C 256.03 220.06 258.34 222.71 259.74 225.82 C 256.58 224.65 254.21 222.23 252.54 219.37 Z" />
<path fill="#3949A2" opacity="1.00" d=" M 211.05 225.90 C 211.59 226.18 212.66 226.74 213.20 227.02 C 212.79 228.11 212.36 229.19 211.91 230.26 C 211.07 229.52 210.23 228.78 209.39 228.04 C 209.81 227.50 210.64 226.44 211.05 225.90 Z" />
<path fill="#3949A2" opacity="1.00" d=" M 323.48 227.10 C 324.12 226.79 325.40 226.18 326.04 225.88 C 326.31 226.41 326.85 227.48 327.12 228.01 C 326.76 228.61 326.04 229.80 325.68 230.40 C 324.94 229.30 324.21 228.19 323.48 227.10 Z" />
<path fill="#3949A2" opacity="1.00" d=" M 96.28 227.12 C 97.90 226.60 98.46 227.15 97.94 228.78 C 96.32 229.30 95.76 228.75 96.28 227.12 Z" />
<path fill="#3949A2" opacity="1.00" d=" M 147.23 236.98 C 149.15 233.52 151.93 230.58 155.61 229.00 C 153.71 232.47 150.99 235.50 147.23 236.98 Z" />
<path fill="#3949A2" opacity="1.00" d=" M 63.05 231.06 C 63.84 231.02 65.42 230.94 66.21 230.90 C 66.17 231.72 66.09 233.37 66.06 234.19 C 65.33 234.14 63.87 234.04 63.15 233.99 C 63.12 233.26 63.07 231.79 63.05 231.06 Z" />
<path fill="#3949A2" opacity="1.00" d=" M 178.29 231.01 C 180.16 230.42 181.00 233.55 179.11 233.99 C 177.24 234.58 176.40 231.45 178.29 231.01 Z" />
<path fill="#3949A2" opacity="1.00" d=" M 292.36 231.00 C 294.21 230.38 295.09 233.49 293.20 233.96 C 291.33 234.58 290.46 231.46 292.36 231.00 Z" />
<path fill="#3949A2" opacity="1.00" d=" M 46.24 232.43 C 47.70 231.23 49.29 233.82 47.86 234.82 C 46.40 236.02 44.81 233.43 46.24 232.43 Z" />
<path fill="#3949A2" opacity="1.00" d=" M 161.15 232.36 C 162.78 232.35 162.72 235.10 161.09 235.03 C 159.44 235.03 159.51 232.28 161.15 232.36 Z" />
<path fill="#3949A2" opacity="1.00" d=" M 275.11 232.33 C 276.73 232.33 276.72 235.07 275.09 235.03 C 273.46 235.03 273.48 232.29 275.11 232.33 Z" />
<path fill="#3949A2" opacity="1.00" d=" M 389.24 232.35 C 390.88 232.35 390.80 235.10 389.16 235.02 C 387.51 235.01 387.60 232.27 389.24 232.35 Z" />
<path fill="#3949A2" opacity="1.00" d=" M 76.23 235.68 C 77.55 234.57 79.06 236.89 77.75 237.82 C 76.43 238.92 74.92 236.60 76.23 235.68 Z" />
<path fill="#3949A2" opacity="1.00" d=" M 88.17 242.76 C 89.17 239.46 91.85 237.29 94.71 235.63 C 93.80 238.98 91.19 241.28 88.17 242.76 Z" />
<path fill="#3949A2" opacity="1.00" d=" M 190.23 236.15 C 191.85 235.61 192.41 236.16 191.91 237.80 C 190.29 238.33 189.73 237.78 190.23 236.15 Z" />
<path fill="#3949A2" opacity="1.00" d=" M 304.24 236.13 C 305.87 235.62 306.42 236.18 305.89 237.81 C 304.25 238.31 303.70 237.75 304.24 236.13 Z" />
<path fill="#3949A2" opacity="1.00" d=" M 28.20 237.23 C 29.83 236.73 30.38 237.29 29.84 238.92 C 28.20 239.41 27.66 238.85 28.20 237.23 Z" />
<path fill="#3949A2" opacity="1.00" d=" M 142.30 237.24 C 143.93 236.74 144.48 237.29 143.94 238.92 C 142.31 239.42 141.76 238.86 142.30 237.24 Z" />
<path fill="#3949A2" opacity="1.00" d=" M 256.33 237.32 C 257.57 235.98 259.63 238.15 258.33 239.37 C 257.09 240.70 255.03 238.53 256.33 237.32 Z" />
<path fill="#3949A2" opacity="1.00" d=" M 370.41 237.28 C 371.68 236.00 373.70 238.20 372.38 239.39 C 371.10 240.67 369.08 238.46 370.41 237.28 Z" />
<path fill="#3949A2" opacity="1.00" d=" M 210.34 246.93 C 206.39 245.16 205.72 240.57 205.53 236.74 C 208.16 239.57 209.65 243.17 210.34 246.93 Z" />
<path fill="#3949A2" opacity="1.00" d=" M 53.34 245.22 C 54.33 243.70 56.84 245.39 55.69 246.85 C 54.71 248.36 52.20 246.67 53.34 245.22 Z" />
<path fill="#3949A2" opacity="1.00" d=" M 98.22 245.48 C 99.69 244.30 101.33 246.86 99.84 247.84 C 98.37 249.02 96.73 246.46 98.22 245.48 Z" />
<path fill="#3949A2" opacity="1.00" d=" M 167.99 245.19 C 169.61 244.65 170.17 245.20 169.67 246.83 C 168.05 247.37 167.49 246.82 167.99 245.19 Z" />
<path fill="#3949A2" opacity="1.00" d=" M 213.05 245.35 C 214.68 245.29 214.70 248.03 213.08 248.03 C 211.43 248.09 211.42 245.34 213.05 245.35 Z" />
<path fill="#3949A2" opacity="1.00" d=" M 282.04 245.19 C 283.66 244.66 284.21 245.21 283.70 246.85 C 282.07 247.37 281.52 246.82 282.04 245.19 Z" />
<path fill="#3949A2" opacity="1.00" d=" M 327.16 245.34 C 328.80 245.29 328.79 248.04 327.15 248.01 C 325.50 248.05 325.51 245.30 327.16 245.34 Z" />
<path fill="#3949A2" opacity="1.00" d=" M 396.08 245.21 C 397.70 244.67 398.26 245.22 397.75 246.85 C 396.13 247.39 395.57 246.84 396.08 245.21 Z" />
<path fill="#3949A2" opacity="1.00" d=" M 223.99 248.94 C 224.73 248.98 226.22 249.04 226.96 249.07 C 226.98 249.81 227.00 251.31 227.01 252.05 C 226.25 252.05 224.72 252.04 223.96 252.04 C 223.97 251.26 223.98 249.72 223.99 248.94 Z" />
<path fill="#3949A2" opacity="1.00" d=" M 337.98 248.96 C 338.73 248.98 340.22 249.02 340.96 249.05 C 340.98 249.81 341.01 251.32 341.03 252.08 C 340.28 252.07 338.76 252.04 338.01 252.02 C 338.00 251.26 337.99 249.72 337.98 248.96 Z" />
<path fill="#3949A2" opacity="1.00" d=" M 20.29 252.03 C 22.03 251.42 22.74 254.34 21.04 254.79 C 19.30 255.39 18.59 252.47 20.29 252.03 Z" />
<path fill="#3949A2" opacity="1.00" d=" M 134.13 252.26 C 135.48 251.20 136.97 253.53 135.59 254.42 C 134.24 255.47 132.75 253.14 134.13 252.26 Z" />
<path fill="#3949A2" opacity="1.00" d=" M 248.17 252.26 C 249.53 251.20 250.98 253.56 249.61 254.44 C 248.25 255.49 246.80 253.14 248.17 252.26 Z" />
<path fill="#3949A2" opacity="1.00" d=" M 362.17 252.23 C 363.61 251.04 365.33 253.53 363.84 254.55 C 362.40 255.73 360.67 253.24 362.17 252.23 Z" />
<path fill="#3949A2" opacity="1.00" d=" M 95.25 266.76 C 97.36 261.61 103.20 259.52 107.87 257.29 C 104.70 261.63 100.00 264.46 95.25 266.76 Z" />
<path fill="#3949A2" opacity="1.00" d=" M 20.16 258.64 C 23.08 258.90 26.16 259.55 27.88 262.20 C 24.97 261.96 21.51 261.74 20.16 258.64 Z" />
<path fill="#3949A2" opacity="1.00" d=" M 75.08 260.27 C 76.41 259.20 77.95 261.51 76.56 262.41 C 75.23 263.47 73.70 261.17 75.08 260.27 Z" />
<path fill="#3949A2" opacity="1.00" d=" M 189.17 260.24 C 190.51 259.19 192.00 261.52 190.64 262.41 C 189.29 263.45 187.80 261.12 189.17 260.24 Z" />
<path fill="#3949A2" opacity="1.00" d=" M 303.19 260.27 C 304.49 259.18 306.08 261.45 304.71 262.37 C 303.39 263.46 301.81 261.19 303.19 260.27 Z" />
<path fill="#3949A2" opacity="1.00" d=" M 40.23 263.96 C 42.11 263.36 42.90 266.50 41.02 266.95 C 39.14 267.54 38.35 264.40 40.23 263.96 Z" />
<path fill="#3949A2" opacity="1.00" d=" M 154.12 264.24 C 155.57 263.08 157.28 265.58 155.77 266.58 C 154.32 267.74 152.61 265.23 154.12 264.24 Z" />
<path fill="#3949A2" opacity="1.00" d=" M 382.24 264.27 C 383.70 263.11 385.36 265.64 383.86 266.63 C 382.39 267.78 380.73 265.25 382.24 264.27 Z" />
<path fill="#3949A2" opacity="1.00" d=" M 11.27 265.42 C 12.58 263.90 14.80 266.27 13.43 267.60 C 12.12 269.11 9.90 266.74 11.27 265.42 Z" />
<path fill="#3949A2" opacity="1.00" d=" M 283.15 265.19 C 284.49 264.15 285.95 266.49 284.62 267.39 C 283.27 268.43 281.81 266.09 283.15 265.19 Z" />
<path fill="#3949A2" opacity="1.00" d=" M 378.55 270.59 C 381.80 273.80 382.05 278.48 382.06 282.76 C 378.00 280.17 379.03 274.68 378.55 270.59 Z" />
<path fill="#3949A2" opacity="1.00" d=" M 27.10 273.59 C 28.57 273.70 28.83 274.33 27.88 275.46 C 26.41 275.34 26.15 274.71 27.10 273.59 Z" />
<path fill="#3949A2" opacity="1.00" d=" M 59.03 273.32 C 60.49 272.13 62.10 274.70 60.66 275.70 C 59.20 276.88 57.58 274.31 59.03 273.32 Z" />
<path fill="#3949A2" opacity="1.00" d=" M 128.86 272.15 C 131.33 274.04 133.09 276.62 134.32 279.45 C 132.77 278.76 130.10 279.11 129.81 276.91 C 129.32 275.36 129.12 273.74 128.86 272.15 Z" />
<path fill="#3949A2" opacity="1.00" d=" M 141.13 273.50 C 142.32 272.52 143.62 274.63 142.45 275.45 C 141.26 276.41 139.96 274.31 141.13 273.50 Z" />
<path fill="#3949A2" opacity="1.00" d=" M 173.15 273.35 C 174.60 272.16 176.24 274.71 174.79 275.72 C 173.34 276.91 171.70 274.36 173.15 273.35 Z" />
<path fill="#3949A2" opacity="1.00" d=" M 255.07 273.31 C 256.54 272.15 258.17 274.70 256.68 275.68 C 255.21 276.84 253.57 274.28 255.07 273.31 Z" />
<path fill="#3949A2" opacity="1.00" d=" M 287.13 273.32 C 288.59 272.14 290.21 274.70 288.77 275.70 C 287.30 276.87 285.68 274.31 287.13 273.32 Z" />
<path fill="#3949A2" opacity="1.00" d=" M 324.73 286.83 C 327.29 281.63 329.25 275.46 334.42 272.24 C 332.23 277.65 329.60 283.30 324.73 286.83 Z" />
<path fill="#3949A2" opacity="1.00" d=" M 369.21 273.49 C 370.40 272.51 371.68 274.63 370.53 275.45 C 369.33 276.43 368.05 274.31 369.21 273.49 Z" />
<path fill="#3949A2" opacity="1.00" d=" M 72.19 275.38 C 73.82 275.39 73.77 278.14 72.11 278.04 C 70.48 278.02 70.53 275.27 72.19 275.38 Z" />
<path fill="#3949A2" opacity="1.00" d=" M 186.32 275.49 C 187.77 275.48 187.78 277.93 186.31 277.88 C 184.85 277.89 184.84 275.44 186.32 275.49 Z" />
<path fill="#3949A2" opacity="1.00" d=" M 300.08 275.20 C 301.96 274.65 302.71 277.79 300.83 278.21 C 298.95 278.76 298.20 275.61 300.08 275.20 Z" />
<path fill="#3949A2" opacity="1.00" d=" M 107.25 278.58 C 108.56 277.49 110.11 279.78 108.79 280.72 C 107.47 281.80 105.93 279.51 107.25 278.58 Z" />
<path fill="#3949A2" opacity="1.00" d=" M 221.30 278.51 C 222.63 277.01 224.87 279.35 223.44 280.68 C 222.11 282.17 219.86 279.83 221.30 278.51 Z" />
<path fill="#3949A2" opacity="1.00" d=" M 335.27 278.47 C 336.61 277.00 338.80 279.39 337.40 280.69 C 336.05 282.16 333.85 279.77 335.27 278.47 Z" />
<path fill="#3949A2" opacity="1.00" d=" M 41.21 286.24 C 42.68 285.10 44.34 287.63 42.82 288.61 C 41.36 289.75 39.70 287.21 41.21 286.24 Z" />
<path fill="#3949A2" opacity="1.00" d=" M 155.26 286.25 C 156.73 285.07 158.36 287.62 156.89 288.62 C 155.42 289.79 153.79 287.23 155.26 286.25 Z" />
<path fill="#3949A2" opacity="1.00" d=" M 268.88 285.61 C 270.22 286.04 271.55 286.48 272.89 286.94 C 271.62 287.83 270.35 288.73 269.09 289.64 C 269.04 288.63 268.93 286.61 268.88 285.61 Z" />
<path fill="#3949A2" opacity="1.00" d=" M 383.36 286.26 C 384.84 285.11 386.45 287.68 384.96 288.65 C 383.48 289.80 381.87 287.23 383.36 286.26 Z" />
<path fill="#3949A2" opacity="1.00" d=" M 89.22 289.40 C 90.68 289.36 90.70 291.81 89.24 291.79 C 87.77 291.83 87.75 289.38 89.22 289.40 Z" />
<path fill="#3949A2" opacity="1.00" d=" M 203.13 289.64 C 204.59 289.75 204.86 290.37 203.91 291.51 C 202.44 291.39 202.18 290.77 203.13 289.64 Z" />
<path fill="#3949A2" opacity="1.00" d=" M 317.22 289.16 C 318.95 288.70 319.58 291.61 317.89 292.03 C 316.16 292.48 315.53 289.57 317.22 289.16 Z" />
<path fill="#3949A2" opacity="1.00" d=" M 16.55 292.88 C 17.72 291.97 19.18 292.32 20.52 292.41 C 20.12 293.36 19.31 295.26 18.90 296.21 C 18.08 295.12 17.30 294.01 16.55 292.88 Z" />
<path fill="#3949A2" opacity="1.00" d=" M 59.58 291.05 C 60.99 291.71 62.63 292.27 63.28 293.84 C 65.30 297.32 66.82 301.08 68.12 304.89 C 63.50 301.67 62.13 295.78 59.58 291.05 Z" />
<path fill="#3949A2" opacity="1.00" d=" M 132.17 292.03 C 134.04 291.40 134.87 294.54 132.98 294.99 C 131.10 295.62 130.28 292.48 132.17 292.03 Z" />
<path fill="#3949A2" opacity="1.00" d=" M 245.12 292.25 C 246.23 291.83 247.15 292.08 247.87 292.99 C 250.33 295.34 250.82 298.87 251.16 302.09 C 248.43 299.32 246.60 295.82 245.12 292.25 Z" />
<path fill="#3949A2" opacity="1.00" d=" M 360.31 292.03 C 362.18 291.46 362.97 294.60 361.07 295.02 C 359.19 295.58 358.40 292.44 360.31 292.03 Z" />
<path fill="#3949A2" opacity="1.00" d=" M 28.26 294.57 C 30.32 293.41 30.98 297.78 28.94 298.01 C 27.43 297.75 27.28 295.48 28.26 294.57 Z" />
<path fill="#3949A2" opacity="1.00" d=" M 49.33 294.35 C 50.68 292.82 52.81 295.29 51.41 296.58 C 50.05 298.10 47.92 295.64 49.33 294.35 Z" />
<path fill="#3949A2" opacity="1.00" d=" M 163.34 294.36 C 164.69 292.85 166.85 295.28 165.42 296.57 C 164.07 298.08 161.91 295.65 163.34 294.36 Z" />
<path fill="#3949A2" opacity="1.00" d=" M 277.39 294.32 C 278.77 292.85 280.89 295.31 279.44 296.58 C 278.06 298.05 275.94 295.59 277.39 294.32 Z" />
<path fill="#3949A2" opacity="1.00" d=" M 391.50 294.29 C 392.84 292.80 395.04 295.19 393.62 296.49 C 392.27 297.97 390.07 295.59 391.50 294.29 Z" />
<path fill="#3949A2" opacity="1.00" d=" M 109.46 296.25 C 110.77 295.14 112.32 297.43 110.98 298.36 C 109.67 299.46 108.12 297.17 109.46 296.25 Z" />
<path fill="#3949A2" opacity="1.00" d=" M 223.47 296.30 C 224.78 295.19 226.33 297.49 225.00 298.42 C 223.68 299.51 222.13 297.22 223.47 296.30 Z" />
<path fill="#3949A2" opacity="1.00" d=" M 338.15 296.39 C 339.61 296.52 339.86 297.15 338.91 298.27 C 337.44 298.13 337.18 297.50 338.15 296.39 Z" />
<path fill="#3949A2" opacity="1.00" d=" M 197.20 306.36 C 198.90 305.84 199.77 308.71 197.98 309.11 C 196.28 309.62 195.41 306.75 197.20 306.36 Z" />
<path fill="#3949A2" opacity="1.00" d=" M 82.59 307.17 C 84.01 306.79 84.46 307.30 83.94 308.68 C 82.52 309.05 82.06 308.54 82.59 307.17 Z" />
<path fill="#3949A2" opacity="1.00" d=" M 310.63 307.17 C 311.58 305.80 313.78 307.47 312.70 308.76 C 311.74 310.11 309.54 308.44 310.63 307.17 Z" />
<path fill="#3949A2" opacity="1.00" d=" M 59.01 310.27 C 60.33 309.18 61.87 311.48 60.52 312.40 C 59.19 313.48 57.66 311.18 59.01 310.27 Z" />
<path fill="#3949A2" opacity="1.00" d=" M 173.24 309.94 C 175.11 309.36 175.88 312.50 174.04 312.97 C 172.17 313.54 171.40 310.40 173.24 309.94 Z" />
<path fill="#3949A2" opacity="1.00" d=" M 203.41 317.63 C 205.03 313.18 209.49 311.00 213.63 309.43 C 211.06 313.07 207.57 315.99 203.41 317.63 Z" />
<path fill="#3949A2" opacity="1.00" d=" M 287.03 310.23 C 288.50 309.07 290.10 311.65 288.62 312.62 C 287.13 313.77 285.53 311.20 287.03 310.23 Z" />
<path fill="#3949A2" opacity="1.00" d=" M 33.22 312.21 C 34.86 311.73 35.40 312.29 34.85 313.91 C 33.21 314.39 32.67 313.83 33.22 312.21 Z" />
<path fill="#3949A2" opacity="1.00" d=" M 147.29 312.23 C 148.59 311.14 150.18 313.39 148.85 314.34 C 147.55 315.42 145.95 313.17 147.29 312.23 Z" />
<path fill="#3949A2" opacity="1.00" d=" M 261.39 312.22 C 262.69 311.12 264.27 313.39 262.93 314.33 C 261.62 315.42 260.04 313.16 261.39 312.22 Z" />
<path fill="#3949A2" opacity="1.00" d=" M 375.40 312.23 C 376.70 311.16 378.28 313.43 376.93 314.36 C 375.61 315.42 374.03 313.15 375.40 312.23 Z" />
<path fill="#3949A2" opacity="1.00" d=" M 181.39 314.35 C 183.31 315.90 185.12 317.57 186.85 319.34 C 183.12 321.46 182.00 317.04 181.39 314.35 Z" />
<path fill="#3949A2" opacity="1.00" d=" M 242.10 317.66 C 243.44 316.60 244.94 318.92 243.57 319.82 C 242.23 320.87 240.72 318.55 242.10 317.66 Z" />
<path fill="#3949A2" opacity="1.00" d=" M 356.95 317.39 C 358.59 317.38 358.50 320.13 356.88 320.06 C 355.22 320.07 355.32 317.32 356.95 317.39 Z" />
<path fill="#3949A2" opacity="1.00" d=" M 14.11 318.20 C 17.45 318.35 12.56 321.17 14.11 318.20 Z" />
<path fill="#3949A2" opacity="1.00" d=" M 46.29 320.27 C 47.59 319.13 49.12 321.44 47.84 322.39 C 46.54 323.52 45.01 321.21 46.29 320.27 Z" />
<path fill="#3949A2" opacity="1.00" d=" M 160.26 320.18 C 161.75 319.01 163.32 321.61 161.82 322.57 C 160.33 323.73 158.76 321.13 160.26 320.18 Z" />
<path fill="#3949A2" opacity="1.00" d=" M 159.63 328.72 C 161.30 325.24 163.58 322.07 166.30 319.33 C 166.19 323.55 163.74 327.41 159.63 328.72 Z" />
<path fill="#3949A2" opacity="1.00" d=" M 274.39 320.28 C 275.74 319.21 277.19 321.56 275.86 322.46 C 274.51 323.52 273.06 321.17 274.39 320.28 Z" />
<path fill="#3949A2" opacity="1.00" d=" M 389.24 320.17 C 390.71 320.13 390.69 322.58 389.24 322.57 C 387.77 322.61 387.78 320.15 389.24 320.17 Z" />
<path fill="#3949A2" opacity="1.00" d=" M 292.65 321.39 C 295.56 323.53 297.71 326.51 298.76 329.98 C 295.62 328.06 293.11 325.16 292.65 321.39 Z" />
<path fill="#3949A2" opacity="1.00" d=" M 79.33 323.09 C 80.80 323.02 80.81 325.48 79.36 325.49 C 77.89 325.55 77.88 323.10 79.33 323.09 Z" />
<path fill="#3949A2" opacity="1.00" d=" M 193.08 323.36 C 196.43 323.45 191.58 326.35 193.08 323.36 Z" />
<path fill="#3949A2" opacity="1.00" d=" M 307.04 323.21 C 308.36 322.13 309.87 324.45 308.54 325.37 C 307.21 326.44 305.70 324.12 307.04 323.21 Z" />
<path fill="#3949A2" opacity="1.00" d=" M 20.21 324.14 C 21.19 324.08 23.15 323.95 24.13 323.89 C 24.04 324.84 23.88 326.74 23.79 327.69 C 22.47 326.64 21.27 325.45 20.21 324.14 Z" />
<path fill="#3949A2" opacity="1.00" d=" M 134.16 325.66 C 135.38 324.80 136.68 324.06 137.96 323.29 C 137.95 324.30 137.93 326.34 137.93 327.35 C 136.67 326.79 135.41 326.22 134.16 325.66 Z" />
<path fill="#3949A2" opacity="1.00" d=" M 250.31 323.91 C 252.18 323.28 253.03 326.42 251.11 326.85 C 249.23 327.47 248.38 324.34 250.31 323.91 Z" />
<path fill="#3949A2" opacity="1.00" d=" M 364.30 323.93 C 366.17 323.30 367.03 326.42 365.14 326.88 C 363.27 327.50 362.40 324.38 364.30 323.93 Z" />
<path fill="#3949A2" opacity="1.00" d=" M 26.05 327.58 C 30.04 328.92 34.20 330.74 36.22 334.72 C 32.36 333.17 28.04 331.57 26.05 327.58 Z" />
<path fill="#3949A2" opacity="1.00" d=" M 355.00 329.02 C 358.34 329.01 361.67 328.98 365.01 329.00 C 365.01 329.53 365.02 330.59 365.02 331.12 C 361.67 331.15 358.32 331.16 354.98 331.14 C 354.98 330.61 355.00 329.55 355.00 329.02 Z" />
<path fill="#3949A2" opacity="1.00" d=" M 97.18 331.36 C 98.84 331.33 98.77 334.09 97.12 334.00 C 95.46 334.02 95.53 331.26 97.18 331.36 Z" />
<path fill="#3949A2" opacity="1.00" d=" M 210.28 330.31 C 211.65 331.28 212.74 332.54 213.71 333.90 C 212.73 333.95 210.76 334.05 209.77 334.10 C 209.90 333.15 210.15 331.26 210.28 330.31 Z" />
<path fill="#3949A2" opacity="1.00" d=" M 324.24 330.20 C 325.59 331.28 326.75 332.56 327.83 333.91 C 326.84 333.97 324.87 334.08 323.88 334.13 C 323.97 333.15 324.15 331.18 324.24 330.20 Z" />
<path fill="#3949A2" opacity="1.00" d=" M 64.25 336.02 C 66.11 335.40 67.01 338.52 65.09 338.97 C 63.23 339.57 62.34 336.46 64.25 336.02 Z" />
<path fill="#3949A2" opacity="1.00" d=" M 290.75 337.12 C 291.33 336.70 292.49 335.86 293.07 335.44 C 293.73 336.25 294.40 337.07 295.07 337.88 C 294.53 338.30 293.46 339.13 292.92 339.54 C 292.17 338.75 291.45 337.94 290.75 337.12 Z" />
<path fill="#3949A2" opacity="1.00" d=" M 46.24 337.37 C 47.72 336.19 49.31 338.77 47.85 339.76 C 46.38 340.94 44.79 338.36 46.24 337.37 Z" />
<path fill="#3949A2" opacity="1.00" d=" M 160.26 337.38 C 161.72 336.20 163.36 338.75 161.89 339.75 C 160.42 340.92 158.78 338.37 160.26 337.38 Z" />
<path fill="#3949A2" opacity="1.00" d=" M 275.12 337.37 C 276.58 337.33 276.57 339.79 275.11 339.76 C 273.64 339.78 273.65 337.33 275.12 337.37 Z" />
<path fill="#3949A2" opacity="1.00" d=" M 388.98 337.20 C 390.72 336.64 391.41 339.56 389.70 339.98 C 387.95 340.53 387.26 337.62 388.98 337.20 Z" />
<path fill="#3949A2" opacity="1.00" d=" M 76.12 341.14 C 77.74 340.59 78.30 341.13 77.82 342.77 C 76.20 343.32 75.64 342.78 76.12 341.14 Z" />
<path fill="#3949A2" opacity="1.00" d=" M 190.22 341.14 C 191.85 340.64 192.40 341.20 191.86 342.82 C 190.22 343.32 189.67 342.76 190.22 341.14 Z" />
<path fill="#3949A2" opacity="1.00" d=" M 304.20 341.14 C 305.81 340.59 306.38 341.13 305.89 342.77 C 304.27 343.32 303.71 342.78 304.20 341.14 Z" />
<path fill="#3949A2" opacity="1.00" d=" M 28.27 342.22 C 29.73 341.03 31.35 343.60 29.88 344.60 C 28.41 345.78 26.80 343.20 28.27 342.22 Z" />
<path fill="#3949A2" opacity="1.00" d=" M 81.35 341.25 C 84.81 343.71 86.94 347.48 87.33 351.70 C 84.27 348.94 82.16 345.31 81.35 341.25 Z" />
<path fill="#3949A2" opacity="1.00" d=" M 142.31 342.30 C 143.66 340.78 145.79 343.24 144.40 344.53 C 143.04 346.04 140.91 343.59 142.31 342.30 Z" />
<path fill="#3949A2" opacity="1.00" d=" M 256.38 342.24 C 257.84 341.05 259.49 343.60 258.00 344.59 C 256.53 345.78 254.89 343.22 256.38 342.24 Z" />
<path fill="#3949A2" opacity="1.00" d=" M 370.39 342.32 C 371.65 340.98 373.66 343.21 372.34 344.40 C 371.08 345.73 369.07 343.51 370.39 342.32 Z" />
<path fill="#3949A2" opacity="1.00" d=" M 331.16 345.17 C 332.85 347.63 334.45 351.26 330.85 353.00 C 330.86 350.39 330.94 347.77 331.16 345.17 Z" />
<path fill="#3949A2" opacity="1.00" d=" M 54.07 349.28 C 55.91 348.64 56.88 351.73 54.97 352.22 C 53.14 352.85 52.16 349.76 54.07 349.28 Z" />
<path fill="#3949A2" opacity="1.00" d=" M 168.01 349.71 C 169.29 348.61 170.92 350.84 169.57 351.80 C 168.28 352.88 166.65 350.65 168.01 349.71 Z" />
<path fill="#3949A2" opacity="1.00" d=" M 282.09 349.66 C 283.40 348.60 284.96 350.87 283.61 351.80 C 282.29 352.86 280.73 350.58 282.09 349.66 Z" />
<path fill="#3949A2" opacity="1.00" d=" M 396.12 349.69 C 397.43 348.64 399.00 350.91 397.63 351.82 C 396.31 352.87 394.74 350.60 396.12 349.69 Z" />
<path fill="#3949A2" opacity="1.00" d=" M 327.18 350.46 C 328.82 350.42 328.80 353.18 327.15 353.11 C 325.49 353.14 325.52 350.38 327.18 350.46 Z" />
<path fill="#3949A2" opacity="1.00" d=" M 98.21 351.13 C 99.84 350.62 100.39 351.18 99.85 352.80 C 98.22 353.31 97.67 352.75 98.21 351.13 Z" />
<path fill="#3949A2" opacity="1.00" d=" M 212.21 351.12 C 213.83 350.59 214.39 351.14 213.88 352.77 C 212.25 353.30 211.69 352.74 212.21 351.12 Z" />
<path fill="#3949A2" opacity="1.00" d=" M 110.26 354.39 C 111.59 352.90 113.82 355.26 112.40 356.58 C 111.07 358.06 108.84 355.70 110.26 354.39 Z" />
<path fill="#3949A2" opacity="1.00" d=" M 225.10 354.16 C 226.69 353.64 227.39 356.29 225.76 356.64 C 224.17 357.16 223.48 354.51 225.10 354.16 Z" />
<path fill="#3949A2" opacity="1.00" d=" M 337.11 356.16 C 338.11 355.04 339.11 353.93 340.13 352.83 C 340.50 354.33 340.88 355.83 341.26 357.34 C 339.87 356.95 338.49 356.55 337.11 356.16 Z" />
<path fill="#3949A2" opacity="1.00" d=" M 20.28 356.97 C 22.00 356.38 22.77 359.27 21.06 359.73 C 19.33 360.31 18.56 357.42 20.28 356.97 Z" />
<path fill="#3949A2" opacity="1.00" d=" M 134.14 357.20 C 135.49 356.17 136.98 358.49 135.60 359.38 C 134.25 360.40 132.75 358.07 134.14 357.20 Z" />
<path fill="#3949A2" opacity="1.00" d=" M 248.13 357.20 C 249.46 356.14 250.97 358.46 249.62 359.36 C 248.28 360.41 246.77 358.09 248.13 357.20 Z" />
<path fill="#3949A2" opacity="1.00" d=" M 366.66 364.97 C 366.95 362.81 367.37 360.62 369.06 359.07 C 369.08 361.05 369.06 363.03 369.03 365.02 C 368.44 365.01 367.25 364.98 366.66 364.97 Z" />
<path fill="#3949A2" opacity="1.00" d=" M 75.29 364.98 C 77.02 364.36 77.81 367.25 76.08 367.71 C 74.35 368.33 73.57 365.43 75.29 364.98 Z" />
<path fill="#3949A2" opacity="1.00" d=" M 189.16 365.20 C 190.51 364.15 191.97 366.50 190.59 367.38 C 189.23 368.41 187.77 366.06 189.16 365.20 Z" />
<path fill="#3949A2" opacity="1.00" d=" M 303.23 365.21 C 304.59 364.19 306.04 366.54 304.64 367.40 C 303.27 368.41 301.82 366.06 303.23 365.21 Z" />
<path fill="#3949A2" opacity="1.00" d=" M 39.55 369.21 C 40.89 367.77 43.18 370.07 41.66 371.38 C 40.32 372.81 38.03 370.51 39.55 369.21 Z" />
<path fill="#3949A2" opacity="1.00" d=" M 154.21 369.22 C 155.55 368.17 157.05 370.50 155.66 371.38 C 154.31 372.42 152.81 370.09 154.21 369.22 Z" />
<path fill="#3949A2" opacity="1.00" d=" M 268.20 369.20 C 269.56 368.19 271.04 370.52 269.63 371.39 C 268.27 372.39 266.79 370.06 268.20 369.20 Z" />
<path fill="#3949A2" opacity="1.00" d=" M 382.22 369.17 C 383.68 368.01 385.36 370.54 383.84 371.52 C 382.37 372.67 380.69 370.15 382.22 369.17 Z" />
<path fill="#3949A2" opacity="1.00" d=" M 11.36 370.42 C 12.75 368.94 14.84 371.43 13.39 372.69 C 12.00 374.16 9.91 371.67 11.36 370.42 Z" />
<path fill="#3949A2" opacity="1.00" d=" M 125.08 369.97 C 125.82 370.00 127.29 370.06 128.02 370.10 C 128.02 370.80 128.02 372.22 128.03 372.93 C 127.22 373.00 125.61 373.16 124.80 373.23 C 124.87 372.42 125.01 370.78 125.08 369.97 Z" />
<path fill="#3949A2" opacity="1.00" d=" M 352.54 373.60 C 353.35 372.02 353.46 368.93 356.04 370.09 C 357.57 372.82 354.27 372.82 352.54 373.60 Z" />
<path fill="#3949A2" opacity="1.00" d=" M 41.31 373.79 C 42.53 374.08 42.08 376.17 42.21 377.14 C 42.31 377.66 41.84 380.44 41.00 378.98 C 40.52 377.33 40.33 375.28 41.31 373.79 Z" />
<path fill="#3949A2" opacity="1.00" d=" M 362.02 377.32 C 363.94 375.86 365.99 374.57 368.18 373.55 C 368.22 377.00 364.75 377.80 362.02 377.32 Z" />
<path fill="#3949A2" opacity="1.00" d=" M 13.30 375.88 C 14.83 377.45 16.36 379.03 17.85 380.66 C 15.18 380.13 12.55 379.41 10.02 378.41 C 11.10 377.55 12.19 376.71 13.30 375.88 Z" />
<path fill="#3949A2" opacity="1.00" d=" M 250.59 376.24 C 254.24 380.02 256.72 384.74 258.32 389.71 C 253.75 386.74 251.68 381.35 250.59 376.24 Z" />
<path fill="#3949A2" opacity="1.00" d=" M 26.99 378.52 C 28.16 377.52 29.54 379.58 28.35 380.41 C 27.18 381.40 25.80 379.35 26.99 378.52 Z" />
<path fill="#3949A2" opacity="1.00" d=" M 59.18 378.32 C 61.32 377.10 62.04 381.41 59.81 381.50 C 58.29 381.38 58.06 379.09 59.18 378.32 Z" />
<path fill="#3949A2" opacity="1.00" d=" M 141.11 378.50 C 142.32 377.54 143.58 379.67 142.40 380.47 C 141.19 381.42 139.93 379.29 141.11 378.50 Z" />
<path fill="#3949A2" opacity="1.00" d=" M 173.14 378.31 C 174.61 377.15 176.21 379.73 174.74 380.71 C 173.26 381.87 171.67 379.29 173.14 378.31 Z" />
<path fill="#3949A2" opacity="1.00" d=" M 287.14 378.33 C 288.60 377.15 290.21 379.72 288.76 380.71 C 287.29 381.89 285.68 379.32 287.14 378.33 Z" />
<path fill="#3949A2" opacity="1.00" d=" M 369.09 378.28 C 370.56 377.08 372.14 379.67 370.71 380.67 C 369.23 381.86 367.65 379.26 369.09 378.28 Z" />
<path fill="#3949A2" opacity="1.00" d=" M 376.46 387.78 C 379.08 383.90 382.24 380.21 386.60 378.24 C 384.15 382.26 380.98 386.05 376.46 387.78 Z" />
<path fill="#3949A2" opacity="1.00" d=" M 72.15 380.32 C 73.79 380.29 73.78 383.04 72.14 382.99 C 70.50 383.01 70.50 380.26 72.15 380.32 Z" />
<path fill="#3949A2" opacity="1.00" d=" M 186.31 380.28 C 187.95 380.29 187.86 383.04 186.23 382.96 C 184.59 382.94 184.68 380.19 186.31 380.28 Z" />
<path fill="#3949A2" opacity="1.00" d=" M 290.22 379.89 C 293.74 379.75 297.20 380.68 299.94 382.96 C 296.46 383.01 292.32 383.28 290.22 379.89 Z" />
<path fill="#3949A2" opacity="1.00" d=" M 300.15 380.65 C 301.61 380.78 301.87 381.41 300.90 382.53 C 299.43 382.38 299.18 381.76 300.15 380.65 Z" />
<path fill="#3949A2" opacity="1.00" d=" M 107.28 383.34 C 108.74 382.19 110.38 384.73 108.91 385.73 C 107.45 386.87 105.80 384.33 107.28 383.34 Z" />
<path fill="#3949A2" opacity="1.00" d=" M 220.99 382.78 C 221.66 382.92 223.01 383.21 223.68 383.36 C 223.79 384.01 224.01 385.31 224.11 385.96 C 223.33 385.98 221.77 386.02 220.98 386.04 C 220.99 385.22 220.99 383.59 220.99 382.78 Z" />
<path fill="#3949A2" opacity="1.00" d=" M 335.26 383.41 C 336.60 381.95 338.81 384.31 337.43 385.63 C 336.10 387.08 333.88 384.72 335.26 383.41 Z" />
<path fill="#3949A2" opacity="1.00" d=" M 175.85 383.31 C 178.11 385.27 179.21 388.02 179.35 390.99 C 176.21 389.65 176.00 386.24 175.85 383.31 Z" />
<path fill="#3949A2" opacity="1.00" d=" M 14.72 389.41 C 16.80 387.62 19.13 386.16 21.72 385.23 C 20.21 387.44 18.59 389.59 17.28 391.93 C 16.42 391.09 15.57 390.24 14.72 389.41 Z" />
<path fill="#3949A2" opacity="1.00" d=" M 41.22 391.23 C 42.67 390.07 44.36 392.58 42.86 393.58 C 41.41 394.74 39.72 392.22 41.22 391.23 Z" />
<path fill="#3949A2" opacity="1.00" d=" M 155.24 391.21 C 156.68 390.02 158.36 392.54 156.91 393.56 C 155.46 394.74 153.78 392.22 155.24 391.21 Z" />
<path fill="#3949A2" opacity="1.00" d=" M 383.25 391.29 C 384.60 389.77 386.73 392.21 385.36 393.52 C 384.01 395.03 381.87 392.58 383.25 391.29 Z" />
<path fill="#3949A2" opacity="1.00" d=" M 89.19 394.26 C 90.83 394.25 90.80 397.00 89.16 396.94 C 87.52 396.94 87.55 394.20 89.19 394.26 Z" />
<path fill="#3949A2" opacity="1.00" d=" M 203.15 394.62 C 204.61 394.75 204.86 395.37 203.91 396.50 C 202.44 396.36 202.19 395.73 203.15 394.62 Z" />
<path fill="#3949A2" opacity="1.00" d=" M 317.11 394.64 C 318.57 394.75 318.84 395.37 317.90 396.51 C 316.43 396.40 316.17 395.77 317.11 394.64 Z" />
<path fill="#3949A2" opacity="1.00" d=" M 16.15 400.00 C 16.96 398.85 17.75 397.71 18.49 396.53 C 19.44 397.69 20.40 398.85 21.37 400.00 L 16.15 400.00 Z" />
<path fill="#3949A2" opacity="1.00" d=" M 130.48 400.00 C 131.04 398.81 131.58 397.62 132.12 396.42 C 133.22 397.64 134.35 398.83 135.51 400.00 L 130.48 400.00 Z" />
<path fill="#3949A2" opacity="1.00" d=" M 245.37 396.72 C 245.80 396.87 246.65 397.18 247.08 397.33 C 247.71 398.00 248.97 399.33 249.60 400.00 L 245.25 400.00 C 245.29 398.90 245.33 397.81 245.37 396.72 Z" />
<path fill="#3949A2" opacity="1.00" d=" M 359.95 400.00 C 359.18 398.57 359.50 397.56 360.90 396.98 C 362.09 397.62 362.34 398.63 361.67 400.00 L 359.95 400.00 Z" />
</svg>
