<?xml version="1.0" encoding="UTF-8" ?>
<!DOCTYPE svg PUBLIC "-//W3C//DTD SVG 1.1//EN" "http://www.w3.org/Graphics/SVG/1.1/DTD/svg11.dtd">
<svg width="943pt" height="728pt" viewBox="0 0 943 728" version="1.1" xmlns="http://www.w3.org/2000/svg">
<path fill="#4aa248" opacity="1.00" d=" M 109.22 94.30 C 111.15 91.54 111.58 88.14 112.33 84.94 C 114.52 90.42 117.03 95.80 120.22 100.77 C 124.17 107.01 130.09 111.58 134.81 117.19 C 152.58 136.87 164.68 161.18 171.48 186.71 C 175.02 198.80 176.02 211.46 175.82 224.00 C 176.04 254.96 164.33 285.71 144.07 309.07 C 138.06 316.59 130.59 322.69 123.23 328.82 C 120.71 325.47 118.17 322.04 116.84 318.02 C 114.97 312.47 114.58 306.58 113.78 300.82 C 112.61 310.99 111.56 321.22 108.59 331.05 C 106.05 328.70 103.40 326.47 100.72 324.27 C 75.18 302.08 56.30 271.26 51.81 237.40 C 46.98 190.17 62.65 140.32 96.55 106.55 C 100.56 102.24 105.87 99.22 109.22 94.30 Z" />
<path fill="#d0082f" opacity="1.00" d=" M 626.65 205.77 C 629.03 204.98 631.61 203.67 634.13 204.81 C 655.68 212.43 677.13 220.38 698.75 227.82 C 696.12 256.75 692.13 285.55 689.12 314.45 C 689.00 316.49 687.61 317.92 685.83 318.73 C 667.81 328.62 649.87 338.65 631.94 348.69 C 613.84 338.96 596.07 328.64 577.99 318.87 C 576.41 318.06 574.70 317.01 574.70 314.99 C 571.24 285.98 567.99 256.93 564.66 227.91 C 585.38 220.69 606.00 213.19 626.65 205.77 M 631.81 220.09 C 626.84 230.56 622.29 241.23 617.58 251.83 C 608.37 272.68 598.88 293.42 589.94 314.39 C 595.08 314.41 600.24 314.64 605.39 314.36 C 609.12 307.76 610.97 300.23 614.15 293.34 C 625.95 293.32 637.74 293.30 649.54 293.36 C 652.32 300.38 655.07 307.42 657.90 314.42 C 663.19 314.46 668.49 314.53 673.79 314.37 C 659.91 282.89 646.02 251.41 631.81 220.09 Z" />
<path fill="#41413c" opacity="1.00" d=" M 811.69 219.57 C 814.77 217.81 817.76 215.76 821.18 214.72 C 823.27 214.81 825.09 216.10 826.93 217.01 C 841.14 225.22 855.31 233.49 869.59 241.57 C 872.34 243.13 875.77 245.26 875.52 248.91 C 875.59 274.28 875.55 299.65 875.48 325.02 C 874.96 325.50 873.92 326.45 873.40 326.92 C 864.89 323.59 857.48 318.03 849.39 313.85 C 845.58 311.38 839.51 309.58 839.66 304.05 C 839.42 292.73 839.78 281.39 839.53 270.06 C 839.73 267.22 837.60 265.12 835.35 263.78 C 831.58 261.50 827.80 259.17 823.79 257.33 C 820.06 255.43 816.55 258.98 813.32 260.45 C 809.61 262.92 803.57 264.66 803.57 270.02 C 803.41 281.35 803.66 292.69 803.49 304.02 C 803.52 307.33 800.79 309.81 798.11 311.30 C 790.55 315.61 783.00 319.93 775.52 324.37 C 773.60 325.32 771.68 326.79 769.44 326.57 C 767.09 325.73 767.45 323.06 767.38 321.07 C 767.46 297.06 767.27 273.05 767.39 249.05 C 767.17 245.59 770.33 243.45 772.96 241.91 C 785.89 234.51 798.81 227.07 811.69 219.57 Z" />
<path fill="#ffffff" opacity="1.00" d=" M 631.81 220.09 C 646.02 251.41 659.91 282.89 673.79 314.37 C 668.49 314.53 663.19 314.46 657.90 314.42 C 655.07 307.42 652.32 300.38 649.54 293.36 C 637.74 293.30 625.95 293.32 614.15 293.34 C 610.97 300.23 609.12 307.76 605.39 314.36 C 600.24 314.64 595.08 314.41 589.94 314.39 C 598.88 293.42 608.37 272.68 617.58 251.83 C 622.29 241.23 626.84 230.56 631.81 220.09 M 631.59 251.67 C 627.67 261.02 623.72 270.37 620.05 279.83 C 627.77 280.67 635.56 280.12 643.31 280.21 C 642.04 274.82 639.52 269.88 637.49 264.77 C 635.60 260.37 634.19 255.73 631.59 251.67 Z" />
<path fill="#41413c" opacity="1.00" d=" M 450.19 225.76 C 455.75 224.78 461.43 225.02 467.06 225.06 C 478.29 224.94 489.06 230.28 497.00 238.00 C 504.68 245.89 509.62 256.27 511.63 267.05 C 513.10 273.69 512.70 280.55 512.63 287.30 C 481.20 287.45 449.76 287.06 418.34 287.50 C 418.72 301.49 422.22 316.41 432.31 326.69 C 441.03 336.01 454.55 339.49 466.96 338.16 C 474.44 337.09 482.24 335.21 488.05 330.08 C 495.89 323.68 500.78 314.26 502.92 304.48 C 505.91 304.38 508.89 304.36 511.88 304.39 C 509.52 319.91 500.45 335.08 485.81 341.75 C 474.57 346.60 461.78 347.56 449.79 345.43 C 434.76 343.00 421.69 332.16 415.73 318.27 C 410.52 306.30 408.74 292.98 409.64 280.01 C 411.05 265.26 415.65 250.02 426.26 239.22 C 432.73 232.61 441.07 227.61 450.19 225.76 M 437.13 241.13 C 425.49 250.05 419.58 265.00 419.21 279.37 C 447.38 279.41 475.54 279.39 503.71 279.38 C 503.68 265.36 498.60 250.60 487.47 241.55 C 473.58 229.60 451.36 229.94 437.13 241.13 Z" />
<path fill="#41413c" opacity="1.00" d=" M 265.07 238.19 C 271.71 235.49 279.61 235.31 285.92 238.98 C 290.57 241.45 293.48 245.96 296.75 249.90 C 304.36 244.45 312.34 239.03 321.54 236.75 C 329.90 234.94 339.38 237.33 345.13 243.87 C 351.32 250.61 353.21 260.14 353.38 269.02 C 353.28 280.36 353.38 291.71 353.15 303.06 C 353.30 305.49 352.72 308.50 354.77 310.33 C 358.20 312.99 362.82 312.78 366.72 314.33 C 368.08 316.29 366.42 319.01 366.42 321.24 C 352.55 320.09 338.62 320.48 324.73 320.82 C 324.60 318.75 324.50 316.69 324.41 314.63 C 328.76 312.87 336.21 312.90 336.29 306.61 C 336.82 293.84 336.79 281.03 336.36 268.25 C 336.26 260.47 331.63 252.43 323.88 250.17 C 315.16 247.71 305.22 250.92 298.81 257.07 C 299.91 272.71 298.96 288.41 299.27 304.08 C 299.45 306.41 299.03 309.36 301.14 310.96 C 304.53 313.22 309.09 312.62 312.41 314.94 C 312.41 317.06 312.02 319.15 311.71 321.25 C 297.71 320.31 283.66 320.45 269.66 321.38 C 269.48 319.08 269.39 316.77 269.38 314.47 C 272.80 313.51 276.39 313.17 279.69 311.81 C 282.01 310.93 282.42 308.12 282.63 305.96 C 283.31 294.99 283.40 283.99 283.16 273.01 C 282.97 266.91 282.32 260.44 278.70 255.31 C 275.15 249.94 268.11 247.83 261.96 248.84 C 256.41 249.80 251.06 252.11 246.61 255.57 C 244.33 257.29 244.68 260.44 244.59 262.96 C 244.71 276.66 244.50 290.35 244.73 304.05 C 244.85 306.69 244.78 310.05 247.38 311.59 C 250.57 313.31 254.33 313.40 257.78 314.32 C 257.63 316.63 257.61 319.00 256.86 321.23 C 242.84 320.36 228.72 320.05 214.71 321.38 C 214.60 319.24 214.44 317.09 214.60 314.95 C 218.05 312.79 222.61 313.38 226.01 311.04 C 228.21 309.03 228.07 305.74 228.32 303.01 C 228.77 288.03 228.90 273.04 228.56 258.06 C 228.59 256.32 228.10 254.48 226.58 253.48 C 222.49 250.53 217.46 249.46 212.95 247.35 C 213.43 245.62 214.10 243.54 216.27 243.46 C 226.09 241.82 235.69 239.19 245.17 236.17 C 245.11 240.58 244.58 244.97 244.85 249.37 C 251.69 245.83 257.64 240.62 265.07 238.19 Z" />
<path fill="#d0082f" opacity="1.00" d=" M 631.59 251.67 C 634.19 255.73 635.60 260.37 637.49 264.77 C 639.52 269.88 642.04 274.82 643.31 280.21 C 635.56 280.12 627.77 280.67 620.05 279.83 C 623.72 270.37 627.67 261.02 631.59 251.67 Z" />
<path fill="#afad9a" opacity="0.88" d=" M 113.78 300.82 C 114.58 306.58 114.97 312.47 116.84 318.02 C 118.17 322.04 120.71 325.47 123.23 328.82 C 121.92 331.40 120.61 334.06 120.25 336.98 C 118.79 346.21 119.70 355.57 119.89 364.86 C 117.35 364.13 114.86 363.26 112.36 362.43 C 111.70 353.51 112.00 344.41 109.49 335.74 C 109.20 334.18 108.34 332.65 108.59 331.05 C 111.56 321.22 112.61 310.99 113.78 300.82 Z" />
<path fill="#ffffff" opacity="1.00" d=" M 665.10 434.72 C 667.97 433.93 671.11 434.04 674.03 434.63 C 674.85 435.58 675.65 436.58 676.44 437.59 C 680.29 441.54 679.12 449.26 673.97 451.43 C 669.88 451.54 664.41 453.01 661.83 448.84 C 660.84 445.66 661.30 442.16 661.49 438.88 C 662.50 437.34 663.80 436.02 665.10 434.72 Z" />
<path fill="#afad9a" opacity="0.88" d=" M 477.93 439.39 C 486.55 436.19 495.91 437.59 504.89 437.62 C 509.44 438.77 514.86 438.99 518.36 442.45 C 518.87 447.29 518.67 452.19 518.49 457.05 C 515.95 458.51 513.51 455.81 511.13 455.06 C 503.54 451.05 494.80 450.90 486.46 451.71 C 479.48 453.40 472.26 457.94 470.61 465.38 C 470.28 469.67 470.00 474.23 471.81 478.26 C 474.06 483.02 478.20 486.56 482.62 489.24 C 494.83 497.22 509.07 503.12 518.06 515.11 C 528.42 528.76 524.05 550.63 509.52 559.59 C 499.87 565.43 488.18 567.41 477.04 566.37 C 471.31 565.29 465.57 564.13 460.02 562.32 C 457.70 561.28 454.77 560.54 453.58 558.06 C 453.25 553.12 453.50 548.17 453.45 543.24 C 458.17 542.74 461.45 546.57 465.58 548.08 C 476.07 552.75 488.77 554.45 499.32 549.01 C 503.43 547.27 505.90 543.17 507.04 539.02 C 508.94 531.63 505.36 524.01 500.03 518.97 C 488.49 508.79 473.02 503.96 462.49 492.52 C 458.66 488.76 455.99 483.90 454.56 478.75 C 454.15 473.24 454.05 467.65 454.68 462.16 C 457.69 451.17 467.30 442.81 477.93 439.39 M 482.89 440.49 C 475.52 441.51 468.75 445.30 463.63 450.63 C 458.70 455.43 456.48 462.30 455.61 468.96 C 455.17 477.75 458.89 486.66 465.40 492.58 C 473.46 501.08 484.56 505.41 494.02 512.01 C 499.69 515.78 505.42 520.32 507.91 526.91 C 510.69 534.29 509.47 543.85 503.05 548.99 C 498.08 552.76 491.67 554.01 485.58 554.43 C 474.81 554.77 464.86 550.20 455.57 545.27 C 455.42 548.82 455.08 552.41 455.60 555.95 C 455.77 557.30 456.66 558.52 457.93 559.07 C 463.64 562.05 470.15 562.70 476.32 564.23 C 480.23 565.15 484.32 565.19 488.24 564.32 C 493.86 562.98 499.82 562.71 505.00 559.94 C 514.47 555.48 521.50 545.68 521.37 535.03 C 522.20 527.01 519.51 518.89 513.94 513.06 C 504.05 502.31 489.99 497.10 478.39 488.62 C 471.87 483.79 466.61 475.86 467.72 467.45 C 469.65 457.97 478.34 450.29 488.01 449.62 C 491.98 449.32 495.98 449.40 499.96 449.63 C 505.77 449.96 510.93 452.89 516.36 454.65 C 516.49 451.45 516.85 448.23 516.37 445.05 C 515.84 442.39 512.79 441.69 510.54 441.19 C 501.44 439.53 492.03 438.64 482.89 440.49 Z" />
<path fill="#afad9a" opacity="0.88" d=" M 123.37 439.48 C 152.26 439.51 181.16 439.37 210.05 439.55 C 212.00 444.31 211.75 449.73 209.43 454.32 C 198.05 454.42 186.67 454.27 175.30 454.39 C 175.24 485.60 175.29 516.80 175.27 548.00 C 175.16 553.52 175.88 559.17 174.09 564.51 C 169.65 564.42 165.17 564.84 160.75 564.32 C 159.78 563.45 159.26 562.24 159.39 560.95 C 159.40 526.95 159.38 492.95 159.40 458.95 C 159.44 457.39 159.07 455.87 158.73 454.37 C 146.99 454.35 135.26 454.32 123.53 454.39 C 122.99 449.43 123.18 444.44 123.37 439.48 M 123.53 441.58 C 123.66 444.78 123.78 447.98 123.94 451.19 C 134.95 452.01 146.00 451.22 157.02 451.54 C 158.57 451.63 160.77 451.62 161.11 453.58 C 161.88 458.33 161.31 463.19 161.44 467.99 C 161.50 499.20 161.31 530.41 161.53 561.61 C 165.21 561.72 168.90 561.72 172.59 561.64 C 172.81 527.10 172.65 492.54 172.65 458.00 C 172.61 455.29 173.60 451.24 177.07 451.55 C 187.48 451.24 197.92 451.91 208.33 451.28 C 208.46 448.05 208.52 444.81 208.52 441.58 C 195.68 441.21 182.84 441.52 170.00 441.42 C 154.51 441.53 139.02 441.21 123.53 441.58 Z" />
<path fill="#ffffff" opacity="1.00" d=" M 482.89 440.49 C 492.03 438.64 501.44 439.53 510.54 441.19 C 512.79 441.69 515.84 442.39 516.37 445.05 C 516.85 448.23 516.49 451.45 516.36 454.65 C 510.93 452.89 505.77 449.96 499.96 449.63 C 495.98 449.40 491.98 449.32 488.01 449.62 C 478.34 450.29 469.65 457.97 467.72 467.45 C 466.61 475.86 471.87 483.79 478.39 488.62 C 489.99 497.10 504.05 502.31 513.94 513.06 C 519.51 518.89 522.20 527.01 521.37 535.03 C 521.50 545.68 514.47 555.48 505.00 559.94 C 499.82 562.71 493.86 562.98 488.24 564.32 C 484.32 565.19 480.23 565.15 476.32 564.23 C 470.15 562.70 463.64 562.05 457.93 559.07 C 456.66 558.52 455.77 557.30 455.60 555.95 C 455.08 552.41 455.42 548.82 455.57 545.27 C 464.86 550.20 474.81 554.77 485.58 554.43 C 491.67 554.01 498.08 552.76 503.05 548.99 C 509.47 543.85 510.69 534.29 507.91 526.91 C 505.42 520.32 499.69 515.78 494.02 512.01 C 484.56 505.41 473.46 501.08 465.40 492.58 C 458.89 486.66 455.17 477.75 455.61 468.96 C 456.48 462.30 458.70 455.43 463.63 450.63 C 468.75 445.30 475.52 441.51 482.89 440.49 Z" />
<path fill="#ffffff" opacity="1.00" d=" M 123.53 441.58 C 139.02 441.21 154.51 441.53 170.00 441.42 C 182.84 441.52 195.68 441.21 208.52 441.58 C 208.52 444.81 208.46 448.05 208.33 451.28 C 197.92 451.91 187.48 451.24 177.07 451.55 C 173.60 451.24 172.61 455.29 172.65 458.00 C 172.65 492.54 172.81 527.10 172.59 561.64 C 168.90 561.72 165.21 561.72 161.53 561.61 C 161.31 530.41 161.50 499.20 161.44 467.99 C 161.31 463.19 161.88 458.33 161.11 453.58 C 160.77 451.62 158.57 451.63 157.02 451.54 C 146.00 451.22 134.95 452.01 123.94 451.19 C 123.78 447.98 123.66 444.78 123.53 441.58 Z" />
<path fill="#afad9a" opacity="0.88" d=" M 785.24 451.91 C 788.88 450.70 792.50 449.09 796.41 449.26 C 796.81 457.15 796.21 465.07 796.73 472.96 C 797.05 473.30 797.69 473.98 798.01 474.32 C 804.51 474.57 811.04 474.34 817.56 474.37 C 818.44 478.71 818.51 483.18 817.52 487.52 C 810.56 487.41 803.60 487.42 796.64 487.50 C 796.41 503.68 796.63 519.85 796.52 536.03 C 796.37 541.52 797.18 548.38 802.23 551.59 C 807.05 553.49 812.65 552.63 817.52 551.22 C 818.52 555.27 818.43 559.48 817.53 563.55 C 817.28 560.25 817.12 556.95 817.02 553.65 C 811.82 555.13 805.79 556.46 801.05 553.01 C 796.15 550.21 794.89 544.27 794.87 539.05 C 794.66 526.04 795.06 513.02 794.77 500.01 C 794.59 495.09 794.90 490.16 795.92 485.34 C 802.96 485.27 810.01 485.37 817.06 485.20 C 817.09 482.64 817.13 480.09 817.17 477.54 C 811.49 477.14 805.79 477.47 800.12 477.23 C 797.89 477.10 794.90 476.42 794.90 473.64 C 794.16 466.44 795.02 459.18 794.47 451.96 C 790.75 452.48 787.11 453.46 783.61 454.82 C 783.50 460.55 783.74 466.28 783.53 472.01 C 783.37 473.55 783.39 475.84 781.40 476.11 C 777.12 476.85 772.75 476.88 768.46 477.55 C 768.55 480.06 768.64 482.58 768.75 485.11 C 773.20 485.31 777.76 484.86 782.13 485.91 C 783.97 488.14 783.50 491.24 783.66 493.93 C 783.48 508.62 783.63 523.32 783.52 538.02 C 783.62 545.13 784.19 553.22 789.25 558.72 C 796.44 565.21 806.83 563.22 815.67 563.52 C 814.65 564.57 813.64 565.85 812.00 565.57 C 805.58 565.36 798.65 566.77 792.75 563.54 C 785.83 560.18 782.38 552.39 781.61 545.09 C 781.47 525.89 781.74 506.68 781.49 487.48 C 776.49 487.42 771.49 487.55 766.51 487.28 C 766.49 483.40 766.16 479.50 766.63 475.64 C 766.87 475.37 767.35 474.84 767.59 474.58 C 772.21 474.03 776.94 474.93 781.53 473.91 C 781.75 467.60 781.37 461.28 781.69 454.98 C 781.77 453.17 783.86 452.54 785.24 451.91 Z" />
<path fill="#ffffff" opacity="1.00" d=" M 783.61 454.82 C 787.11 453.46 790.75 452.48 794.47 451.96 C 795.02 459.18 794.16 466.44 794.90 473.64 C 794.90 476.42 797.89 477.10 800.12 477.23 C 805.79 477.47 811.49 477.14 817.17 477.54 C 817.13 480.09 817.09 482.64 817.06 485.20 C 810.01 485.37 802.96 485.27 795.92 485.34 C 794.90 490.16 794.59 495.09 794.77 500.01 C 795.06 513.02 794.66 526.04 794.87 539.05 C 794.89 544.27 796.15 550.21 801.05 553.01 C 805.79 556.46 811.82 555.13 817.02 553.65 C 817.12 556.95 817.28 560.25 817.53 563.55 C 817.07 563.54 816.13 563.53 815.67 563.52 C 806.83 563.22 796.44 565.21 789.25 558.72 C 784.19 553.22 783.62 545.13 783.52 538.02 C 783.63 523.32 783.48 508.62 783.66 493.93 C 783.50 491.24 783.97 488.14 782.13 485.91 C 777.76 484.86 773.20 485.31 768.75 485.11 C 768.64 482.58 768.55 480.06 768.46 477.55 C 772.75 476.88 777.12 476.85 781.40 476.11 C 783.39 475.84 783.37 473.55 783.53 472.01 C 783.74 466.28 783.50 460.55 783.61 454.82 Z" />
<path fill="#afad9a" opacity="0.88" d=" M 559.75 475.39 C 569.61 471.72 580.57 471.69 590.73 474.14 C 593.31 474.95 596.11 475.74 598.07 477.73 C 599.80 482.10 599.19 486.89 599.20 491.48 C 594.78 491.48 591.21 488.66 587.14 487.41 C 577.97 483.94 567.16 485.49 559.27 491.28 C 552.00 496.54 547.92 505.30 546.73 514.03 C 546.35 521.41 546.17 529.13 549.34 536.01 C 552.85 545.60 562.51 553.11 572.95 552.56 C 577.54 552.36 582.33 553.17 586.74 551.50 C 590.71 550.15 594.08 546.91 598.52 547.30 C 598.49 551.27 598.46 555.24 598.53 559.22 C 595.93 560.97 593.49 563.72 590.07 563.34 C 592.11 561.48 594.41 559.88 596.15 557.71 C 596.74 555.06 596.36 552.33 596.34 549.65 C 591.70 551.36 587.26 553.64 582.47 554.93 C 572.46 557.10 561.54 553.88 554.11 546.89 C 548.78 541.45 545.66 534.06 544.76 526.55 C 543.94 518.34 544.43 509.69 548.20 502.20 C 552.36 493.24 560.60 486.01 570.35 483.91 C 575.91 483.01 581.80 483.04 587.12 485.06 C 590.29 486.25 593.37 487.66 596.47 489.04 C 596.46 485.79 596.76 482.47 595.98 479.29 C 592.32 476.35 587.46 475.56 582.96 474.79 C 574.39 473.62 565.66 475.29 557.68 478.45 C 544.97 484.15 535.81 496.79 534.05 510.59 C 532.88 520.34 532.71 530.57 536.16 539.91 C 538.77 547.16 543.93 553.37 550.23 557.76 C 555.64 561.53 562.16 563.16 568.54 564.41 C 575.77 565.86 582.82 562.09 590.07 563.34 C 585.44 565.72 580.19 566.69 575.01 566.55 C 560.18 567.45 544.92 559.91 537.38 546.95 C 527.85 530.99 528.77 510.24 537.49 494.14 C 542.67 485.80 550.39 478.72 559.75 475.39 Z" />
<path fill="#afad9a" opacity="0.88" d=" M 304.97 475.59 C 316.14 470.98 329.64 471.35 339.91 478.05 C 349.55 484.21 354.40 495.46 356.44 506.33 C 356.85 512.89 356.74 519.48 356.56 526.05 C 355.13 538.94 349.52 552.03 338.72 559.79 C 327.19 567.56 311.03 569.36 298.97 561.75 C 295.84 559.54 293.39 556.55 290.52 554.06 C 289.95 570.82 290.43 587.62 290.27 604.39 C 285.44 605.83 280.36 605.24 275.41 605.24 C 274.94 575.50 275.33 545.75 275.20 516.00 C 275.35 502.15 274.88 488.28 275.46 474.44 C 280.08 474.52 284.74 474.01 289.32 474.74 C 289.79 478.58 289.61 482.46 289.47 486.32 C 290.57 486.78 291.67 487.24 292.79 487.69 C 292.12 488.89 291.51 490.13 290.91 491.37 C 286.75 487.55 288.14 481.47 287.65 476.44 C 283.94 476.51 280.23 476.55 276.52 476.62 C 276.25 518.73 276.40 560.84 276.44 602.95 C 280.22 603.27 284.00 603.35 287.79 603.32 C 288.44 593.56 288.05 583.77 288.16 574.00 C 288.10 566.29 287.41 558.52 288.82 550.88 C 294.42 552.98 297.16 558.98 302.59 561.32 C 308.33 563.77 314.73 565.71 321.00 564.36 C 327.15 563.10 333.50 561.50 338.54 557.55 C 346.78 551.19 351.77 541.39 353.52 531.25 C 356.53 519.29 355.59 506.47 351.05 495.03 C 347.77 487.14 341.82 479.98 333.53 477.16 C 319.57 471.05 302.22 475.90 292.79 487.69 C 292.75 487.14 292.66 486.03 292.62 485.48 C 296.16 481.56 300.02 477.67 304.97 475.59 Z" />
<path fill="#afad9a" opacity="0.88" d=" M 388.62 476.24 C 403.75 469.07 424.75 471.84 434.69 486.26 C 442.20 496.57 443.21 509.79 442.41 522.10 C 442.08 522.44 441.44 523.11 441.11 523.44 C 422.39 523.85 403.64 523.49 384.91 523.61 C 383.19 523.57 381.62 524.34 380.03 524.86 C 381.23 531.37 381.87 538.51 386.42 543.71 C 390.81 548.72 397.09 552.83 403.99 552.55 C 410.03 552.35 416.30 553.27 422.11 551.14 C 426.70 549.60 430.64 546.64 435.24 545.12 C 436.41 549.59 438.00 555.74 433.88 559.18 C 430.13 561.84 425.74 564.05 421.00 563.69 C 425.09 561.20 429.89 559.72 433.39 556.36 C 433.92 553.58 433.64 550.74 433.62 547.94 C 426.06 552.12 417.80 555.59 409.01 555.50 C 397.11 556.03 384.77 548.91 380.60 537.51 C 378.95 532.88 377.40 527.76 378.77 522.87 C 380.48 521.45 382.81 521.53 384.91 521.44 C 403.09 521.47 421.28 521.72 439.46 521.37 C 439.79 511.56 440.68 501.08 435.93 492.08 C 432.43 484.80 426.15 478.75 418.26 476.56 C 405.66 471.91 390.88 475.08 380.86 483.87 C 373.89 490.07 369.18 498.67 367.65 507.87 C 364.96 518.58 366.17 529.92 369.65 540.30 C 371.15 544.44 373.18 548.36 374.88 552.41 C 369.75 548.59 367.89 542.05 366.20 536.18 C 363.97 529.33 364.48 522.08 364.49 514.99 C 365.20 499.12 374.18 483.41 388.62 476.24 Z" />
<path fill="#afad9a" opacity="0.88" d=" M 711.79 476.55 C 722.38 471.12 735.62 471.11 746.21 476.55 C 757.74 483.05 764.21 496.09 765.41 508.94 C 765.50 517.01 766.17 525.26 764.06 533.15 C 761.33 544.55 754.96 555.83 744.44 561.66 C 736.72 565.82 727.66 567.46 718.98 566.23 C 717.27 565.79 715.68 564.98 714.53 563.63 C 719.95 564.08 725.44 565.49 730.85 564.14 C 739.73 562.54 748.52 558.38 753.84 550.84 C 760.53 542.32 762.54 531.37 764.00 520.92 C 764.77 514.55 763.36 508.20 761.97 502.02 C 760.29 494.53 756.67 487.27 750.86 482.15 C 739.64 472.65 722.15 471.78 709.98 480.00 C 705.61 483.15 702.48 487.63 698.61 491.31 C 696.66 486.64 696.43 481.56 696.38 476.58 C 692.70 476.54 689.02 476.51 685.35 476.46 C 685.16 518.72 685.19 560.99 685.33 603.26 C 688.98 603.32 692.63 603.29 696.29 603.21 C 696.99 590.82 696.49 578.41 696.59 566.01 C 696.75 560.84 695.30 554.84 699.24 550.67 C 703.41 555.14 707.87 559.30 712.28 563.52 C 706.33 562.57 702.77 556.98 698.70 553.07 C 698.21 570.23 698.65 587.42 698.48 604.59 C 693.61 605.70 688.47 605.63 683.59 604.63 C 683.50 563.06 683.59 521.49 683.54 479.92 C 683.48 478.04 684.02 476.23 684.50 474.44 C 689.05 474.38 693.61 474.35 698.17 474.50 C 698.69 478.99 698.33 483.51 698.66 488.02 C 703.23 484.42 706.46 479.18 711.79 476.55 Z" />
<path fill="#afad9a" opacity="0.88" d=" M 606.65 474.48 C 611.20 474.50 615.79 474.06 620.32 474.73 C 620.86 478.96 620.47 483.23 620.71 487.48 C 625.84 484.68 628.01 478.56 633.34 475.97 C 638.30 472.80 644.37 473.16 649.98 473.63 C 651.76 473.78 652.81 475.44 653.31 477.00 C 653.59 480.92 653.55 484.88 653.02 488.78 C 646.60 488.31 639.30 485.32 633.51 489.56 C 623.94 495.02 621.65 506.88 620.64 516.94 C 620.57 531.31 620.62 545.69 620.63 560.07 C 620.45 561.54 621.00 563.56 619.34 564.36 C 615.14 564.80 610.91 564.45 606.70 564.46 C 606.20 562.69 605.56 560.93 605.57 559.08 C 605.57 533.03 605.59 506.98 605.56 480.93 C 605.43 478.71 606.15 476.60 606.65 474.48 M 628.96 481.96 C 625.80 485.09 624.13 489.32 622.65 493.43 C 621.29 493.21 619.94 492.99 618.60 492.78 C 618.51 487.65 618.58 482.52 618.50 477.40 C 615.15 477.31 611.82 477.29 608.49 477.35 C 608.28 505.45 608.35 533.55 608.45 561.65 C 611.80 561.70 615.16 561.69 618.52 561.61 C 618.69 549.41 618.54 537.20 618.58 525.00 C 618.67 518.39 617.85 511.53 620.32 505.22 C 622.98 497.80 627.01 489.85 634.77 486.75 C 639.79 484.18 645.52 485.49 650.70 486.79 C 651.02 483.43 651.67 479.88 650.31 476.66 C 648.41 474.89 645.63 474.29 643.13 474.81 C 637.91 475.87 632.66 477.99 628.96 481.96 Z" />
<path fill="#ffffff" opacity="1.00" d=" M 709.98 480.00 C 722.15 471.78 739.64 472.65 750.86 482.15 C 756.67 487.27 760.29 494.53 761.97 502.02 C 763.36 508.20 764.77 514.55 764.00 520.92 C 762.54 531.37 760.53 542.32 753.84 550.84 C 748.52 558.38 739.73 562.54 730.85 564.14 C 725.44 565.49 719.95 564.08 714.53 563.63 C 713.97 563.60 712.84 563.55 712.28 563.52 C 707.87 559.30 703.41 555.14 699.24 550.67 C 695.30 554.84 696.75 560.84 696.59 566.01 C 696.49 578.41 696.99 590.82 696.29 603.21 C 692.63 603.29 688.98 603.32 685.33 603.26 C 685.19 560.99 685.16 518.72 685.35 476.46 C 689.02 476.51 692.70 476.54 696.38 476.58 C 696.43 481.56 696.66 486.64 698.61 491.31 C 702.48 487.63 705.61 483.15 709.98 480.00 M 716.08 486.61 C 706.96 489.43 701.09 498.15 698.57 506.92 C 698.25 516.24 698.18 525.61 698.60 534.93 C 700.46 539.50 702.67 544.15 706.43 547.49 C 709.43 550.33 713.29 552.03 717.18 553.31 C 723.21 553.55 729.74 554.40 735.13 551.01 C 744.80 546.21 748.76 535.07 750.40 525.09 C 750.42 517.66 751.51 509.92 748.67 502.83 C 746.20 494.53 739.36 487.46 730.85 485.49 C 725.93 485.62 720.72 484.59 716.08 486.61 Z" />
<path fill="#afad9a" opacity="0.88" d=" M 183.35 474.41 C 188.28 474.48 193.23 474.20 198.16 474.55 C 199.50 475.56 199.55 477.22 199.76 478.75 C 195.51 476.32 190.53 476.33 185.83 477.05 C 187.58 485.26 191.52 492.73 194.42 500.55 C 200.17 516.02 206.51 531.27 212.35 546.71 C 214.14 551.57 216.68 556.20 217.73 561.31 C 218.61 565.95 216.27 570.32 214.60 574.49 C 211.71 581.11 208.82 588.46 202.40 592.44 C 197.68 595.54 191.80 594.37 186.50 594.40 C 186.76 598.09 187.34 601.77 188.40 605.33 C 187.42 605.05 186.44 604.77 185.46 604.49 C 185.64 600.06 184.66 595.43 186.32 591.20 C 190.71 591.82 195.43 593.58 199.72 591.55 C 205.20 589.42 208.27 584.00 210.50 578.88 C 212.23 574.64 214.14 570.46 215.90 566.23 C 216.70 564.51 216.61 562.50 215.89 560.77 C 205.23 534.36 195.20 507.71 184.56 481.29 C 183.52 479.14 183.38 476.75 183.35 474.41 Z" />
<path fill="#afad9a" opacity="0.88" d=" M 248.22 483.25 C 249.27 480.12 250.65 477.11 252.52 474.38 C 256.84 474.48 261.17 474.23 265.49 474.55 C 265.91 477.17 265.51 479.84 264.39 482.25 C 262.73 486.11 261.58 490.35 258.73 493.56 C 259.50 487.71 262.10 482.36 263.68 476.73 C 260.35 476.79 256.74 475.96 253.63 477.49 C 251.94 479.08 251.18 481.36 250.33 483.46 C 244.12 500.79 237.49 517.98 231.36 535.34 C 229.38 540.72 228.46 547.06 223.39 550.57 C 220.58 543.08 217.43 535.55 216.64 527.53 C 220.48 533.06 221.88 539.88 223.66 546.28 C 224.23 546.23 224.80 546.23 225.37 546.22 C 232.54 525.07 240.82 504.32 248.22 483.25 Z" />
<path fill="#ffffff" opacity="1.00" d=" M 292.79 487.69 C 302.22 475.90 319.57 471.05 333.53 477.16 C 341.82 479.98 347.77 487.14 351.05 495.03 C 355.59 506.47 356.53 519.29 353.52 531.25 C 351.77 541.39 346.78 551.19 338.54 557.55 C 333.50 561.50 327.15 563.10 321.00 564.36 C 314.73 565.71 308.33 563.77 302.59 561.32 C 297.16 558.98 294.42 552.98 288.82 550.88 C 287.41 558.52 288.10 566.29 288.16 574.00 C 288.05 583.77 288.44 593.56 287.79 603.32 C 284.00 603.35 280.22 603.27 276.44 602.95 C 276.40 560.84 276.25 518.73 276.52 476.62 C 280.23 476.55 283.94 476.51 287.65 476.44 C 288.14 481.47 286.75 487.55 290.91 491.37 C 291.51 490.13 292.12 488.89 292.79 487.69 M 310.46 483.91 C 301.54 485.72 294.66 492.78 290.58 500.61 C 287.16 506.85 288.35 514.19 288.12 521.00 C 288.32 527.25 287.24 533.94 290.21 539.73 C 293.65 547.28 300.74 552.85 308.68 555.01 C 314.92 556.24 321.71 555.63 327.20 552.20 C 334.32 548.23 339.05 541.06 341.39 533.39 C 344.23 526.59 343.50 519.11 343.52 511.93 C 343.59 505.63 340.61 499.81 337.48 494.52 C 331.84 485.71 320.58 481.56 310.46 483.91 Z" />
<path fill="#ffffff" opacity="1.00" d=" M 380.86 483.87 C 390.88 475.08 405.66 471.91 418.26 476.56 C 426.15 478.75 432.43 484.80 435.93 492.08 C 440.68 501.08 439.79 511.56 439.46 521.37 C 421.28 521.72 403.09 521.47 384.91 521.44 C 382.81 521.53 380.48 521.45 378.77 522.87 C 377.40 527.76 378.95 532.88 380.60 537.51 C 384.77 548.91 397.11 556.03 409.01 555.50 C 417.80 555.59 426.06 552.12 433.62 547.94 C 433.64 550.74 433.92 553.58 433.39 556.36 C 429.89 559.72 425.09 561.20 421.00 563.69 C 419.48 564.43 417.90 565.30 416.18 565.37 C 409.76 565.58 403.33 565.77 396.93 565.39 C 388.51 563.54 379.79 559.89 374.88 552.41 C 373.18 548.36 371.15 544.44 369.65 540.30 C 366.17 529.92 364.96 518.58 367.65 507.87 C 369.18 498.67 373.89 490.07 380.86 483.87 M 399.66 484.04 C 390.75 486.70 383.66 493.90 380.53 502.60 C 379.77 505.28 377.45 508.63 379.83 511.11 C 381.79 512.73 384.59 512.28 386.96 512.45 C 399.00 512.30 411.04 512.49 423.07 512.39 C 425.37 512.54 428.04 511.46 428.45 508.93 C 429.38 500.17 424.82 491.31 417.35 486.72 C 412.25 483.13 405.59 482.73 399.66 484.04 Z" />
<path fill="#ffffff" opacity="1.00" d=" M 557.68 478.45 C 565.66 475.29 574.39 473.62 582.96 474.79 C 587.46 475.56 592.32 476.35 595.98 479.29 C 596.76 482.47 596.46 485.79 596.47 489.04 C 593.37 487.66 590.29 486.25 587.12 485.06 C 581.80 483.04 575.91 483.01 570.35 483.91 C 560.60 486.01 552.36 493.24 548.20 502.20 C 544.43 509.69 543.94 518.34 544.76 526.55 C 545.66 534.06 548.78 541.45 554.11 546.89 C 561.54 553.88 572.46 557.10 582.47 554.93 C 587.26 553.64 591.70 551.36 596.34 549.65 C 596.36 552.33 596.74 555.06 596.15 557.71 C 594.41 559.88 592.11 561.48 590.07 563.34 C 582.82 562.09 575.77 565.86 568.54 564.41 C 562.16 563.16 555.64 561.53 550.23 557.76 C 543.93 553.37 538.77 547.16 536.16 539.91 C 532.71 530.57 532.88 520.34 534.05 510.59 C 535.81 496.79 544.97 484.15 557.68 478.45 Z" />
<path fill="#ffffff" opacity="1.00" d=" M 628.96 481.96 C 632.66 477.99 637.91 475.87 643.13 474.81 C 645.63 474.29 648.41 474.89 650.31 476.66 C 651.67 479.88 651.02 483.43 650.70 486.79 C 645.52 485.49 639.79 484.18 634.77 486.75 C 627.01 489.85 622.98 497.80 620.32 505.22 C 617.85 511.53 618.67 518.39 618.58 525.00 C 618.54 537.20 618.69 549.41 618.52 561.61 C 615.16 561.69 611.80 561.70 608.45 561.65 C 608.35 533.55 608.28 505.45 608.49 477.35 C 611.82 477.29 615.15 477.31 618.50 477.40 C 618.58 482.52 618.51 487.65 618.60 492.78 C 619.94 492.99 621.29 493.21 622.65 493.43 C 624.13 489.32 625.80 485.09 628.96 481.96 Z" />
<path fill="#afad9a" opacity="0.88" d=" M 661.87 474.64 C 665.91 474.20 670.02 474.28 674.09 474.59 C 675.97 475.76 675.44 478.06 675.58 479.94 C 675.49 507.80 675.62 535.66 675.51 563.52 C 670.58 563.73 665.58 564.16 660.69 563.33 C 660.22 536.22 660.66 509.08 660.47 481.96 C 660.56 479.48 659.99 476.63 661.87 474.64 M 662.48 477.60 C 662.56 504.74 662.48 531.89 662.51 559.03 C 662.17 563.50 667.99 562.79 670.93 562.45 C 673.67 562.21 673.49 559.07 673.49 557.04 C 673.34 530.59 673.52 504.14 673.39 477.69 C 669.82 476.50 666.04 476.21 662.48 477.60 Z" />
<path fill="#ffffff" opacity="1.00" d=" M 185.83 477.05 C 190.53 476.33 195.51 476.32 199.76 478.75 C 204.63 491.05 208.47 503.76 213.05 516.18 C 214.04 520.03 216.41 523.49 216.64 527.53 C 217.43 535.55 220.58 543.08 223.39 550.57 C 228.46 547.06 229.38 540.72 231.36 535.34 C 237.49 517.98 244.12 500.79 250.33 483.46 C 251.18 481.36 251.94 479.08 253.63 477.49 C 256.74 475.96 260.35 476.79 263.68 476.73 C 262.10 482.36 259.50 487.71 258.73 493.56 C 258.42 497.27 256.55 500.55 255.20 503.95 C 246.56 525.14 238.34 546.49 229.83 567.74 C 224.78 580.49 219.85 594.97 207.32 602.31 C 201.77 606.18 194.76 605.16 188.40 605.33 C 187.34 601.77 186.76 598.09 186.50 594.40 C 191.80 594.37 197.68 595.54 202.40 592.44 C 208.82 588.46 211.71 581.11 214.60 574.49 C 216.27 570.32 218.61 565.95 217.73 561.31 C 216.68 556.20 214.14 551.57 212.35 546.71 C 206.51 531.27 200.17 516.02 194.42 500.55 C 191.52 492.73 187.58 485.26 185.83 477.05 Z" />
<path fill="#ffffff" opacity="1.00" d=" M 662.48 477.60 C 666.04 476.21 669.82 476.50 673.39 477.69 C 673.52 504.14 673.34 530.59 673.49 557.04 C 673.49 559.07 673.67 562.21 670.93 562.45 C 667.99 562.79 662.17 563.50 662.51 559.03 C 662.48 531.89 662.56 504.74 662.48 477.60 Z" />
<path fill="#afad9a" opacity="0.88" d=" M 310.46 483.91 C 320.58 481.56 331.84 485.71 337.48 494.52 C 340.61 499.81 343.59 505.63 343.52 511.93 C 343.50 519.11 344.23 526.59 341.39 533.39 C 339.05 541.06 334.32 548.23 327.20 552.20 C 321.71 555.63 314.92 556.24 308.68 555.01 C 300.74 552.85 293.65 547.28 290.21 539.73 C 287.24 533.94 288.32 527.25 288.12 521.00 C 288.35 514.19 287.16 506.85 290.58 500.61 C 294.66 492.78 301.54 485.72 310.46 483.91 M 307.36 486.01 C 308.61 486.30 309.86 486.60 311.10 486.94 C 308.73 487.41 306.08 487.08 304.00 488.51 C 296.90 492.65 291.79 500.03 290.47 508.14 C 290.03 515.10 290.38 522.09 290.26 529.06 C 289.73 538.33 295.77 547.30 304.07 551.16 C 308.07 553.24 312.72 552.36 317.05 552.56 C 325.28 553.27 332.40 547.18 336.30 540.45 C 341.10 531.19 342.10 520.41 341.25 510.15 C 339.65 501.46 335.96 491.79 327.26 488.03 C 321.13 484.71 314.04 485.42 307.36 486.01 Z" />
<path fill="#afad9a" opacity="0.88" d=" M 399.66 484.04 C 405.59 482.73 412.25 483.13 417.35 486.72 C 424.82 491.31 429.38 500.17 428.45 508.93 C 428.04 511.46 425.37 512.54 423.07 512.39 C 411.04 512.49 399.00 512.30 386.96 512.45 C 384.59 512.28 381.79 512.73 379.83 511.11 C 377.45 508.63 379.77 505.28 380.53 502.60 C 383.66 493.90 390.75 486.70 399.66 484.04 M 393.13 489.21 C 386.56 493.84 381.43 501.31 381.23 509.52 C 389.05 511.06 397.08 510.00 405.00 510.31 C 412.18 510.01 419.49 511.06 426.57 509.50 C 427.49 499.91 421.91 489.04 412.08 486.66 C 405.76 486.33 398.63 485.34 393.13 489.21 Z" />
</svg>
