<?xml version="1.0" encoding="UTF-8" ?>
<!DOCTYPE svg PUBLIC "-//W3C//DTD SVG 1.1//EN" "http://www.w3.org/Graphics/SVG/1.1/DTD/svg11.dtd">
<svg width="888pt" height="606pt" viewBox="0 0 888 606" version="1.1" xmlns="http://www.w3.org/2000/svg">
<path fill="#4aa248" opacity="1.00" d=" M 83.83 14.92 C 85.23 20.37 88.07 25.31 90.88 30.13 C 94.84 36.96 101.32 41.71 106.26 47.75 C 127.52 71.42 140.82 101.65 146.16 132.87 C 146.41 136.89 146.79 140.90 147.25 144.91 C 148.26 167.11 144.36 189.71 134.72 209.83 C 125.69 229.14 111.72 245.93 94.89 258.94 C 86.46 251.39 85.89 239.28 84.98 228.78 C 84.40 239.64 83.71 250.76 79.86 261.03 C 61.19 246.61 45.56 228.15 35.12 206.96 C 30.04 196.13 25.83 184.73 24.16 172.85 L 23.73 172.21 C 21.82 158.88 21.65 145.29 23.42 131.94 C 27.45 95.90 43.25 60.79 69.52 35.51 C 72.97 31.99 77.38 29.43 80.24 25.34 C 82.47 22.31 83.06 18.50 83.83 14.92 Z" />
<path fill="#d0092f" opacity="1.00" d=" M 598.03 136.11 C 599.97 135.50 601.93 134.95 603.90 134.42 C 605.18 135.07 606.49 135.68 607.81 136.29 C 610.28 137.03 612.70 137.92 615.13 138.78 C 616.10 139.14 617.07 139.50 618.06 139.86 C 619.04 140.20 620.02 140.53 621.02 140.85 C 622.29 141.34 623.55 141.82 624.83 142.32 C 626.26 142.78 627.68 143.28 629.11 143.75 C 630.36 144.25 631.62 144.73 632.88 145.22 C 635.30 146.03 637.69 146.93 640.11 147.75 C 641.37 148.24 642.63 148.71 643.91 149.20 C 648.32 150.69 652.71 152.25 657.10 153.80 C 658.08 154.15 659.06 154.48 660.06 154.82 C 661.31 155.31 662.57 155.80 663.84 156.31 C 665.77 156.89 667.69 157.48 669.66 157.98 C 669.75 164.36 668.75 170.69 667.88 176.98 C 667.59 179.66 667.41 182.35 667.13 185.04 C 666.49 188.32 666.53 191.68 665.87 194.96 C 665.60 197.64 665.46 200.35 664.88 203.00 C 664.59 205.67 664.42 208.35 664.18 211.02 C 662.94 219.99 662.10 229.02 660.87 237.99 C 660.64 241.35 660.41 244.75 659.41 247.99 C 658.18 248.52 656.98 249.08 655.79 249.65 C 647.24 254.58 638.50 259.17 629.97 264.13 C 621.64 268.76 613.24 273.27 604.98 278.03 C 603.94 278.64 602.60 278.93 601.51 278.29 C 584.34 268.86 567.31 259.16 550.10 249.79 C 548.31 248.73 545.82 247.93 545.81 245.45 C 544.91 237.29 543.90 229.14 543.08 220.98 C 542.57 218.32 542.38 215.63 542.12 212.95 C 540.98 203.97 540.01 194.96 538.94 185.97 C 538.18 176.56 536.18 167.24 536.33 157.77 C 537.02 157.67 538.40 157.46 539.10 157.36 C 540.08 156.95 541.07 156.55 542.07 156.16 C 543.34 155.69 544.61 155.24 545.90 154.78 C 546.89 154.44 547.88 154.10 548.89 153.75 C 552.27 152.56 555.65 151.33 559.07 150.19 C 562.74 148.87 566.42 147.52 570.11 146.24 C 571.36 145.75 572.64 145.28 573.91 144.81 C 576.31 143.97 578.71 143.09 581.13 142.26 C 582.39 141.78 583.67 141.32 584.94 140.83 C 585.66 140.57 587.09 140.05 587.81 139.78 C 590.24 138.94 592.67 138.08 595.10 137.24 C 596.07 136.87 597.05 136.49 598.03 136.11 M 601.86 152.93 C 600.28 156.30 598.72 159.67 597.27 163.10 C 596.07 165.69 594.93 168.31 593.74 170.91 C 592.45 173.92 591.09 176.91 589.76 179.90 C 588.47 182.93 587.12 185.93 585.79 188.94 C 584.61 191.66 583.37 194.35 582.19 197.07 C 580.53 200.73 578.82 204.38 577.25 208.09 C 575.88 211.08 574.54 214.07 573.24 217.09 C 572.07 219.68 570.94 222.30 569.76 224.89 C 567.16 230.93 564.53 236.97 561.65 242.88 C 561.56 243.33 561.38 244.23 561.29 244.68 C 566.57 244.68 571.85 244.76 577.14 244.60 C 577.78 242.75 578.48 240.92 579.19 239.10 C 579.84 237.43 580.52 235.77 581.21 234.13 C 581.72 232.72 582.26 231.32 582.78 229.92 C 584.06 227.58 584.28 222.91 587.93 223.63 C 598.68 223.73 609.44 223.50 620.19 223.75 C 621.62 225.20 622.09 227.26 622.84 229.10 C 623.49 230.77 624.15 232.45 624.78 234.14 C 625.47 235.78 626.14 237.43 626.79 239.10 C 627.50 240.92 628.20 242.75 628.85 244.60 C 634.13 244.76 639.41 244.68 644.70 244.68 C 644.61 244.23 644.43 243.34 644.34 242.90 C 642.54 239.27 640.88 235.58 639.28 231.87 C 638.20 229.56 637.19 227.23 636.21 224.88 C 635.04 222.29 633.91 219.68 632.74 217.10 C 631.44 214.08 630.10 211.09 628.74 208.11 C 627.17 204.39 625.45 200.75 623.79 197.08 C 622.49 194.07 621.13 191.10 619.79 188.11 C 618.64 185.36 617.38 182.66 616.23 179.92 C 614.88 176.92 613.53 173.93 612.25 170.91 C 611.05 168.31 609.90 165.70 608.70 163.11 C 607.26 159.68 605.71 156.30 604.11 152.95 C 603.83 152.21 603.28 150.72 603.00 149.98 C 602.72 150.72 602.15 152.19 601.86 152.93 Z" />
<path fill="#ffffff" opacity="1.00" d=" M 788.10 146.95 C 790.28 145.51 793.21 144.63 795.58 146.21 C 811.43 155.14 827.10 164.38 842.90 173.40 C 845.39 174.57 846.80 177.20 846.53 179.93 C 846.46 205.45 846.69 230.98 846.36 256.50 C 844.04 256.68 841.62 256.70 839.66 255.29 C 831.03 250.14 822.19 245.33 813.56 240.18 C 811.63 239.27 810.89 237.16 810.74 235.17 C 810.28 222.93 811.13 210.63 810.34 198.42 C 808.18 193.60 802.27 192.45 798.33 189.49 C 795.35 187.21 791.10 186.55 787.92 188.82 C 784.53 190.89 781.10 192.91 777.57 194.72 C 776.59 195.80 775.62 196.89 774.66 197.97 C 774.16 211.00 774.98 224.07 774.22 237.08 C 773.00 238.59 771.87 240.26 770.06 241.10 C 760.43 246.51 751.06 252.38 741.22 257.39 C 740.30 256.73 739.39 256.08 738.48 255.43 C 738.39 230.63 738.44 205.84 738.38 181.04 C 738.14 178.26 739.04 175.17 741.65 173.79 C 757.09 164.77 772.62 155.91 788.10 146.95 Z" />
<path fill="#ffffff" opacity="1.00" d=" M 601.86 152.93 C 602.15 152.19 602.72 150.72 603.00 149.98 C 603.28 150.72 603.83 152.21 604.11 152.95 C 605.71 156.30 607.26 159.68 608.70 163.11 C 609.90 165.70 611.05 168.31 612.25 170.91 C 613.53 173.93 614.88 176.92 616.23 179.92 C 617.38 182.66 618.64 185.36 619.79 188.11 C 621.13 191.10 622.49 194.07 623.79 197.08 C 625.45 200.75 627.17 204.39 628.74 208.11 C 630.10 211.09 631.44 214.08 632.74 217.10 C 633.91 219.68 635.04 222.29 636.21 224.88 C 637.19 227.23 638.20 229.56 639.28 231.87 C 640.88 235.58 642.54 239.27 644.34 242.90 C 644.43 243.34 644.61 244.23 644.70 244.68 C 639.41 244.68 634.13 244.76 628.85 244.60 C 628.20 242.75 627.50 240.92 626.79 239.10 C 626.14 237.43 625.47 235.78 624.78 234.14 C 624.15 232.45 623.49 230.77 622.84 229.10 C 622.09 227.26 621.62 225.20 620.19 223.75 C 609.44 223.50 598.68 223.73 587.93 223.63 C 584.28 222.91 584.06 227.58 582.78 229.92 C 582.26 231.32 581.72 232.72 581.21 234.13 C 580.52 235.77 579.84 237.43 579.19 239.10 C 578.48 240.92 577.78 242.75 577.14 244.60 C 571.85 244.76 566.57 244.68 561.29 244.68 C 561.38 244.23 561.56 243.33 561.65 242.88 C 564.53 236.97 567.16 230.93 569.76 224.89 C 570.94 222.30 572.07 219.68 573.24 217.09 C 574.54 214.07 575.88 211.08 577.25 208.09 C 578.82 204.38 580.53 200.73 582.19 197.07 C 583.37 194.35 584.61 191.66 585.79 188.94 C 587.12 185.93 588.47 182.93 589.76 179.90 C 591.09 176.91 592.45 173.92 593.74 170.91 C 594.93 168.31 596.07 165.69 597.27 163.10 C 598.72 159.67 600.28 156.30 601.86 152.93 M 600.23 188.08 C 599.54 189.75 598.85 191.41 598.20 193.09 C 597.40 195.05 596.55 196.97 595.76 198.93 C 594.78 201.27 593.84 203.62 592.78 205.93 C 592.22 207.43 591.66 208.94 591.14 210.46 C 599.05 210.52 606.97 210.55 614.89 210.45 C 614.19 208.66 613.52 206.88 612.81 205.10 C 611.92 203.04 611.06 200.96 610.20 198.90 C 609.43 196.95 608.56 195.05 607.79 193.11 C 607.14 191.43 606.44 189.78 605.77 188.12 C 604.84 185.83 603.86 183.56 602.99 181.25 C 602.12 183.55 601.16 185.81 600.23 188.08 Z" />
<path fill="#ffffff" opacity="1.00" d=" M 412.09 159.18 C 419.53 155.65 427.84 154.80 435.98 155.14 C 442.23 154.95 448.36 156.39 454.14 158.69 C 458.01 160.81 461.93 162.90 465.37 165.68 C 471.26 170.60 475.50 177.15 478.75 184.04 C 479.42 185.70 480.10 187.36 480.77 189.03 C 481.16 190.36 481.53 191.69 481.94 193.02 C 483.87 201.00 484.64 209.25 484.35 217.44 C 452.97 217.61 421.58 217.47 390.20 217.51 C 390.15 223.40 390.41 229.31 391.81 235.05 C 392.47 237.06 393.10 239.09 393.70 241.13 C 397.23 250.36 403.38 258.89 412.19 263.68 C 416.16 265.96 420.62 267.13 425.01 268.30 C 430.33 268.65 435.66 268.63 440.98 268.31 C 442.96 267.79 444.95 267.30 446.93 266.76 C 447.46 266.64 448.52 266.41 449.05 266.29 C 459.39 262.68 466.96 253.99 471.30 244.18 C 471.79 242.75 472.30 241.34 472.81 239.92 C 473.41 238.12 473.99 236.32 474.60 234.53 C 477.86 234.56 481.13 234.60 484.39 234.85 C 483.99 234.98 483.18 235.25 482.78 235.39 C 482.59 238.34 481.85 241.21 480.96 244.02 C 477.20 254.74 470.46 264.82 460.31 270.39 C 456.50 272.65 452.25 273.98 448.03 275.23 C 439.81 277.02 431.35 276.87 423.01 276.28 C 421.34 275.85 419.64 275.51 417.95 275.20 C 404.35 271.81 392.84 261.71 387.15 248.96 C 380.74 235.26 380.50 219.76 381.65 204.96 C 382.25 200.21 383.53 195.59 384.79 190.98 C 385.59 189.01 386.42 187.05 387.22 185.08 C 392.04 173.78 400.94 164.39 412.09 159.18 M 405.66 173.74 C 395.85 182.91 391.07 196.38 390.25 209.56 C 418.66 209.56 447.07 209.66 475.48 209.51 C 474.56 203.62 474.09 197.65 472.22 191.94 C 471.42 189.98 470.57 188.04 469.79 186.06 C 465.15 176.49 456.89 168.71 446.84 165.11 C 440.78 162.94 434.24 163.11 427.92 163.49 C 419.56 164.18 411.92 168.35 405.66 173.74 Z" />
<path fill="#ffffff" opacity="1.00" d=" M 238.91 167.70 C 244.29 166.20 250.17 166.01 255.31 168.49 C 260.41 170.62 264.21 174.86 267.04 179.48 C 267.54 179.55 268.53 179.68 269.03 179.75 C 278.65 172.82 289.66 165.49 302.08 166.66 C 306.74 167.85 311.56 169.40 315.03 172.91 C 318.40 175.87 320.56 179.87 322.21 183.98 C 322.51 185.00 322.82 186.02 323.15 187.04 C 325.35 195.52 324.35 204.33 324.53 212.98 C 324.65 221.00 324.32 229.02 324.48 237.03 C 324.40 239.25 325.98 241.23 328.00 241.99 C 331.42 243.44 335.15 243.84 338.74 244.67 C 338.43 247.01 338.01 249.32 337.49 251.62 C 323.60 250.88 309.68 251.13 295.79 251.43 C 295.73 249.21 295.69 247.00 295.68 244.79 C 299.64 243.51 305.17 243.70 307.21 239.37 C 308.01 234.30 307.54 229.12 307.84 224.01 C 307.59 215.34 307.96 206.66 307.55 197.99 C 307.50 191.99 304.45 186.03 299.45 182.66 C 297.18 181.18 294.53 180.51 292.01 179.62 C 288.62 179.52 285.28 180.04 281.99 180.74 C 277.95 182.23 274.11 184.19 270.57 186.64 C 270.37 187.34 270.17 188.05 269.98 188.75 C 271.43 204.80 269.92 220.96 270.65 237.04 C 270.79 238.46 271.30 239.82 271.67 241.20 C 275.47 242.94 279.56 243.85 283.64 244.66 C 283.55 246.92 283.43 249.18 283.29 251.44 C 269.24 251.33 255.18 251.13 241.13 251.61 C 241.01 249.41 239.41 246.21 241.60 244.68 C 245.60 243.35 250.35 243.72 253.41 240.33 C 255.06 228.96 254.32 217.41 254.47 205.96 C 254.54 198.07 253.93 189.06 247.86 183.26 C 243.38 178.92 236.64 178.71 230.86 179.80 C 225.57 181.17 220.58 183.74 216.46 187.34 C 215.11 194.58 216.93 201.89 216.05 209.17 C 215.44 213.77 216.16 218.37 216.18 222.98 C 215.73 228.46 216.28 234.02 216.63 239.50 C 218.87 244.04 224.67 243.49 228.87 244.60 C 228.77 246.92 228.63 249.24 228.46 251.57 C 218.93 251.71 209.41 250.15 199.89 251.08 C 195.36 251.42 190.82 251.49 186.29 251.57 C 186.22 249.27 186.19 246.97 186.20 244.68 C 190.95 243.44 198.92 243.73 199.36 237.16 C 199.63 224.10 200.56 211.06 200.20 197.99 C 199.88 193.78 199.65 189.56 199.60 185.33 C 195.42 181.47 189.79 180.11 184.62 178.11 C 184.65 177.00 184.68 175.90 184.72 174.79 C 190.04 173.20 195.59 172.59 200.96 171.17 C 206.19 169.99 211.20 168.01 216.44 166.87 C 216.46 171.23 216.13 175.61 216.53 179.98 C 223.66 175.31 230.70 170.31 238.91 167.70 Z" />
<path fill="#d0092f" opacity="1.00" d=" M 600.23 188.08 C 601.16 185.81 602.12 183.55 602.99 181.25 C 603.86 183.56 604.84 185.83 605.77 188.12 C 606.44 189.78 607.14 191.43 607.79 193.11 C 608.56 195.05 609.43 196.95 610.20 198.90 C 611.06 200.96 611.92 203.04 612.81 205.10 C 613.52 206.88 614.19 208.66 614.89 210.45 C 606.97 210.55 599.05 210.52 591.14 210.46 C 591.66 208.94 592.22 207.43 592.78 205.93 C 593.84 203.62 594.78 201.27 595.76 198.93 C 596.55 196.97 597.40 195.05 598.20 193.09 C 598.85 191.41 599.54 189.75 600.23 188.08 Z" />
<path fill="#b9b79f" opacity="0.97" d=" M 79.86 261.03 C 83.71 250.76 84.40 239.64 84.98 228.78 C 85.89 239.28 86.46 251.39 94.89 258.94 C 94.30 259.99 93.69 261.03 93.08 262.07 C 92.59 263.34 92.14 264.62 91.66 265.89 C 91.33 270.57 90.52 275.23 90.66 279.93 C 90.53 285.02 91.53 290.05 91.31 295.14 C 88.69 294.34 86.11 293.45 83.54 292.53 C 83.21 286.61 83.56 280.68 83.51 274.80 C 83.31 276.22 83.18 277.66 83.11 279.10 L 82.85 279.10 C 82.53 273.26 81.81 267.33 79.53 261.90 C 79.61 261.68 79.78 261.25 79.86 261.03 Z" />
<path fill="#ffffff" opacity="1.00" d=" M 660.44 399.76 C 664.29 398.21 669.66 399.37 671.39 403.49 C 672.95 407.30 672.73 412.61 669.21 415.29 C 665.15 418.53 657.86 417.11 656.23 411.90 C 654.97 407.61 655.57 401.46 660.44 399.76 Z" />
<path fill="#ffffff" opacity="1.00" d=" M 444.10 407.12 C 451.98 401.89 461.80 400.69 471.04 401.27 C 479.77 401.63 488.38 403.81 496.36 407.33 C 494.65 411.41 492.89 415.46 491.15 419.53 C 481.23 415.40 470.23 412.58 459.47 414.64 C 453.63 415.78 448.13 420.04 446.85 426.05 C 445.55 432.36 446.72 439.80 451.85 444.16 C 457.67 449.22 465.17 451.61 472.15 454.58 C 479.72 457.83 487.65 461.46 492.84 468.13 C 498.43 475.34 499.17 485.15 497.56 493.85 C 495.87 502.51 489.86 510.08 481.91 513.86 C 470.80 519.24 457.95 519.00 445.99 517.43 C 440.77 516.70 435.63 515.34 430.87 513.08 C 430.87 508.44 430.88 503.81 430.87 499.18 C 442.10 504.06 454.57 507.02 466.85 505.37 C 471.97 504.67 477.31 502.83 480.62 498.64 C 484.41 493.88 484.67 487.22 483.27 481.52 C 481.88 476.22 477.15 472.81 472.61 470.28 C 462.09 464.45 449.48 462.00 440.81 453.15 C 433.63 446.24 431.57 435.63 432.60 426.04 C 433.35 418.43 437.66 411.26 444.10 407.12 Z" />
<path fill="#ffffff" opacity="1.00" d=" M 84.50 402.75 C 111.04 402.75 137.58 402.75 164.13 402.75 C 164.13 407.04 164.12 411.33 164.13 415.62 C 153.29 415.63 142.46 415.62 131.62 415.62 C 131.62 449.37 131.62 483.12 131.62 516.87 C 126.75 516.87 121.87 516.87 117.00 516.87 C 117.00 483.12 117.00 449.37 117.00 415.62 C 106.17 415.62 95.33 415.62 84.50 415.62 C 84.50 411.33 84.50 407.04 84.50 402.75 Z" />
<path fill="#ffffff" opacity="1.00" d=" M 792.73 429.45 C 794.76 423.46 796.78 417.48 798.82 411.50 C 801.54 411.50 804.27 411.50 807.00 411.50 C 807.00 418.08 807.00 424.67 807.00 431.25 C 814.16 431.25 821.33 431.25 828.50 431.25 C 828.49 434.79 828.49 438.33 828.50 441.87 C 821.33 441.87 814.16 441.87 807.00 441.87 C 806.99 458.26 807.01 474.64 806.99 491.02 C 807.01 496.34 807.41 503.51 813.06 505.98 C 818.27 507.74 823.90 506.21 829.13 505.22 C 829.11 508.81 829.13 512.41 829.12 516.01 C 820.85 518.78 811.31 519.68 803.22 515.90 C 795.39 511.79 792.94 502.23 792.77 494.03 C 792.72 476.65 792.76 459.26 792.75 441.87 C 788.70 441.87 784.66 441.87 780.63 441.87 C 780.62 439.76 780.62 437.66 780.63 435.56 C 784.68 433.55 788.71 431.52 792.73 429.45 Z" />
<path fill="#ffffff" opacity="1.00" d=" M 284.79 431.61 C 296.17 427.32 310.53 429.82 318.48 439.44 C 326.41 448.98 328.56 461.91 328.51 473.97 C 328.54 486.03 326.37 498.95 318.46 508.50 C 309.32 519.60 291.85 521.33 279.85 514.06 C 276.16 511.90 273.63 508.39 270.69 505.39 C 272.15 521.97 271.25 538.63 271.50 555.25 C 266.79 555.25 262.08 555.25 257.38 555.25 C 257.38 513.92 257.38 472.58 257.38 431.25 C 261.22 431.25 265.06 431.25 268.91 431.25 C 269.61 435.23 270.29 439.23 271.03 443.21 C 274.55 438.28 278.90 433.62 284.79 431.61 M 286.19 442.20 C 280.62 443.41 276.16 447.80 274.31 453.11 C 271.21 461.64 271.34 470.93 271.72 479.88 C 272.20 486.95 273.09 494.60 277.71 500.31 C 282.72 506.46 291.67 507.64 299.01 505.92 C 304.90 504.49 309.00 499.36 310.93 493.85 C 314.18 484.62 314.27 474.59 313.45 464.94 C 312.68 458.16 311.12 450.85 306.07 445.90 C 300.81 440.97 292.87 440.64 286.19 442.20 Z" />
<path fill="#ffffff" opacity="1.00" d=" M 358.58 438.63 C 371.57 425.58 396.24 426.63 407.15 441.84 C 414.68 451.78 415.14 464.80 414.75 476.75 C 396.76 476.75 378.77 476.75 360.79 476.75 C 361.12 485.47 362.50 495.45 369.66 501.36 C 376.47 506.83 385.84 506.43 394.02 505.37 C 399.91 504.64 405.51 502.55 410.88 500.11 C 410.86 504.33 410.89 508.55 410.86 512.77 C 400.70 517.77 389.07 519.35 377.89 517.90 C 368.30 516.57 359.18 511.32 353.79 503.20 C 347.04 493.23 345.49 480.69 346.35 468.93 C 347.10 457.93 350.60 446.56 358.58 438.63 M 370.60 444.38 C 363.82 448.97 361.74 457.56 361.05 465.24 C 373.89 465.26 386.72 465.25 399.56 465.24 C 399.29 459.08 398.63 452.46 394.72 447.41 C 389.19 440.20 377.90 439.68 370.60 444.38 Z" />
<path fill="#ffffff" opacity="1.00" d=" M 542.45 430.69 C 553.03 428.41 564.27 429.85 574.16 434.14 C 572.78 438.16 571.36 442.17 569.95 446.19 C 560.84 442.54 550.02 439.98 540.79 444.65 C 533.55 448.31 530.72 456.71 529.72 464.24 C 528.69 473.66 528.62 483.49 531.68 492.56 C 533.66 498.55 538.54 503.62 544.76 505.11 C 554.16 507.43 563.97 505.05 572.64 501.23 C 572.61 505.44 572.63 509.66 572.62 513.89 C 563.11 518.78 551.84 519.42 541.51 517.22 C 532.89 515.39 525.18 509.84 520.82 502.17 C 514.77 491.95 513.97 479.67 514.66 468.08 C 515.27 458.75 517.86 449.24 523.76 441.83 C 528.38 436.00 535.21 432.18 542.45 430.69 Z" />
<path fill="#ffffff" opacity="1.00" d=" M 620.10 432.14 C 626.13 428.59 633.39 429.61 640.01 430.32 C 639.43 434.71 638.77 439.08 638.16 443.47 C 631.88 442.41 624.92 441.72 619.22 445.17 C 610.91 449.99 607.49 460.09 607.29 469.24 C 607.20 485.12 607.28 501.00 607.25 516.87 C 602.54 516.87 597.83 516.87 593.13 516.87 C 593.13 488.33 593.12 459.79 593.13 431.25 C 596.96 431.25 600.79 431.25 604.63 431.25 C 605.26 436.64 605.74 442.04 606.47 447.41 C 610.18 441.69 613.85 435.43 620.10 432.14 Z" />
<path fill="#ffffff" opacity="1.00" d=" M 725.44 431.65 C 736.67 427.38 750.83 429.71 758.87 439.06 C 766.89 448.32 769.13 461.07 769.26 472.97 C 769.34 485.29 767.35 498.54 759.31 508.36 C 750.10 519.68 732.23 521.43 720.18 513.80 C 716.67 511.66 714.26 508.27 711.43 505.40 C 712.90 521.97 712.01 538.63 712.25 555.25 C 707.54 555.25 702.83 555.25 698.13 555.25 C 698.13 513.92 698.12 472.58 698.13 431.25 C 701.96 431.25 705.79 431.25 709.63 431.25 C 710.35 435.23 710.99 439.24 711.80 443.21 C 715.23 438.25 719.61 433.69 725.44 431.65 M 725.39 442.66 C 719.11 444.56 715.27 450.63 713.88 456.75 C 711.80 465.81 711.97 475.24 712.83 484.45 C 713.60 491.45 715.67 499.21 721.83 503.40 C 727.40 506.98 734.70 507.46 740.94 505.54 C 747.09 503.51 750.74 497.50 752.41 491.57 C 754.86 483.00 754.97 473.92 754.20 465.11 C 753.46 458.34 751.91 451.05 746.95 446.05 C 741.29 440.65 732.49 440.50 725.39 442.66 Z" />
<path fill="#ffffff" opacity="1.00" d=" M 166.58 431.25 C 171.49 431.25 176.40 431.25 181.30 431.25 C 185.25 442.52 189.21 453.79 193.15 465.06 C 197.74 478.38 203.01 491.58 205.34 505.55 C 209.31 488.06 215.48 471.20 220.90 454.14 C 223.38 446.51 225.86 438.88 228.34 431.25 C 233.23 431.25 238.11 431.24 242.99 431.26 C 231.45 464.23 219.97 497.22 208.40 530.18 C 205.33 538.33 201.51 547.08 193.73 551.76 C 185.99 556.46 176.40 555.54 167.88 553.93 C 167.87 550.17 167.88 546.41 167.87 542.66 C 175.19 543.81 184.25 544.83 189.77 538.74 C 194.76 532.71 196.04 524.68 198.98 517.62 C 188.19 488.82 177.36 460.05 166.58 431.25 Z" />
<path fill="#ffffff" opacity="1.00" d=" M 656.75 431.25 C 661.50 431.25 666.25 431.25 671.00 431.25 C 671.00 459.79 671.00 488.33 671.00 516.87 C 666.25 516.87 661.50 516.87 656.75 516.87 C 656.75 488.33 656.75 459.79 656.75 431.25 Z" />
</svg>
