<?xml version="1.0" encoding="UTF-8" ?>
<!DOCTYPE svg PUBLIC "-//W3C//DTD SVG 1.1//EN" "http://www.w3.org/Graphics/SVG/1.1/DTD/svg11.dtd">
<svg width="927pt" height="218pt" viewBox="0 0 927 218" version="1.1" xmlns="http://www.w3.org/2000/svg">
<path fill="#4aa248" opacity="1.00" d=" M 320.57 10.61 C 321.87 8.61 321.77 6.13 322.01 3.84 C 325.18 10.95 328.77 18.09 334.65 23.37 C 353.02 40.73 364.94 64.19 370.10 88.79 C 372.95 105.50 372.07 122.96 366.60 139.06 C 360.10 158.25 347.50 175.29 331.11 187.19 C 324.70 181.93 324.29 173.16 323.65 165.53 C 323.29 173.61 321.79 181.58 319.67 189.38 C 303.30 176.41 289.02 160.13 281.36 140.47 C 273.81 122.24 273.59 101.81 277.26 82.66 C 281.90 58.34 294.04 35.27 312.46 18.59 C 315.24 16.02 318.63 13.96 320.57 10.61 Z" />
<path fill="#3f51b5" opacity="1.00" d=" M 202.82 50.94 C 220.89 48.37 240.53 52.80 254.20 65.33 C 251.65 70.09 249.44 75.05 246.62 79.65 C 244.79 82.55 240.63 82.71 237.93 80.99 C 231.72 77.32 225.34 73.37 218.03 72.45 C 210.73 71.57 202.67 72.14 196.57 76.67 C 189.15 82.09 187.63 94.88 195.14 100.89 C 202.25 106.85 211.62 108.68 220.15 111.74 C 231.00 115.47 242.71 119.53 249.95 128.99 C 258.32 139.75 258.17 154.80 254.15 167.26 C 249.78 181.00 237.88 191.51 224.16 195.41 C 201.69 201.64 175.97 195.25 159.30 178.85 C 161.81 174.78 164.17 170.64 166.73 166.61 C 168.21 164.13 171.04 162.23 174.02 162.67 C 177.08 163.23 179.47 165.38 182.02 167.00 C 188.54 171.49 195.94 175.26 203.99 175.67 C 210.91 176.11 218.43 175.47 224.19 171.23 C 230.91 166.37 232.86 156.94 230.74 149.27 C 228.35 142.57 221.42 139.13 215.17 136.80 C 203.88 133.02 191.95 130.56 181.65 124.33 C 174.26 119.86 168.75 112.50 166.57 104.14 C 163.91 93.55 164.73 81.84 170.24 72.27 C 176.85 60.43 189.61 52.89 202.82 50.94 Z" />
<path fill="#3f51b5" opacity="1.00" d=" M 39.50 51.88 C 77.42 51.87 115.33 51.88 153.25 51.88 C 153.25 59.21 153.25 66.54 153.25 73.87 C 138.79 73.87 124.33 73.87 109.87 73.87 C 109.87 114.62 109.87 155.37 109.87 196.12 C 100.92 196.12 91.96 196.12 83.00 196.12 C 83.00 155.37 83.00 114.62 83.00 73.87 C 68.50 73.87 54.00 73.87 39.51 73.87 C 39.50 66.54 39.50 59.21 39.50 51.88 Z" />
<path fill="#d0092f" opacity="1.00" d=" M 706.85 99.76 C 711.95 98.13 716.93 96.11 722.06 94.55 C 724.01 93.87 726.02 94.61 728.00 94.84 C 728.96 95.32 729.92 95.81 730.90 96.29 C 731.44 96.40 732.52 96.62 733.06 96.73 C 734.30 97.24 735.56 97.74 736.82 98.24 C 740.27 99.36 743.69 100.59 747.14 101.75 C 748.39 102.21 749.67 102.66 750.94 103.14 C 751.91 103.46 752.90 103.80 753.89 104.14 C 754.87 104.48 755.86 104.83 756.85 105.19 C 762.29 107.01 767.70 108.94 773.15 110.76 C 773.81 110.99 775.12 111.44 775.78 111.67 C 775.70 115.11 775.57 118.57 774.90 121.95 C 774.37 127.64 773.66 133.31 772.88 138.97 C 771.44 152.04 769.97 165.13 768.18 178.15 C 765.04 181.24 760.58 182.51 756.89 184.81 C 752.95 186.95 749.01 189.07 745.09 191.24 C 741.02 193.44 736.94 195.62 732.86 197.79 C 729.94 199.39 727.01 200.95 724.10 202.54 C 710.16 194.86 696.11 187.36 682.10 179.82 C 679.50 178.64 679.82 175.34 679.52 172.99 C 678.08 160.33 676.47 147.69 675.07 135.02 C 674.13 127.27 673.04 119.52 672.38 111.74 C 674.92 110.85 677.46 109.97 680.02 109.10 C 687.97 106.31 695.98 103.68 703.91 100.81 C 704.88 100.47 705.86 100.12 706.85 99.76 M 716.25 123.13 C 713.42 129.15 710.85 135.28 707.89 141.23 L 708.84 141.07 C 707.25 142.27 706.55 144.18 705.76 145.92 C 704.17 149.61 702.43 153.23 700.77 156.88 C 697.90 163.49 694.71 169.97 691.90 176.61 C 696.01 176.69 700.12 176.68 704.24 176.59 C 704.48 175.97 704.95 174.73 705.19 174.11 C 706.98 169.60 708.80 165.11 710.76 160.67 C 719.77 160.88 728.82 160.37 737.82 160.92 C 740.22 165.98 742.17 171.25 744.09 176.51 C 748.31 176.73 752.55 176.68 756.78 176.56 C 748.13 158.07 739.72 139.47 731.26 120.90 C 728.88 115.80 726.55 110.69 724.14 105.61 C 721.75 111.56 718.80 117.26 716.25 123.13 Z" />
<path fill="#41413c" opacity="1.00" d=" M 855.75 109.80 C 860.17 107.47 864.34 104.64 868.91 102.60 C 871.30 101.57 873.77 102.84 875.85 104.01 C 885.20 109.42 894.71 114.58 904.12 119.88 C 906.90 121.50 909.96 122.80 912.25 125.14 C 912.82 127.72 912.63 130.38 912.67 133.00 C 912.51 150.59 912.83 168.18 912.47 185.76 C 908.27 185.99 904.98 183.15 901.48 181.32 C 896.84 178.63 892.01 176.27 887.48 173.41 C 885.56 172.32 884.75 170.12 884.72 168.02 C 884.56 158.96 884.92 149.90 884.53 140.84 C 880.78 138.21 876.89 135.72 872.70 133.89 C 869.71 132.64 866.99 135.09 864.42 136.27 C 861.42 138.16 856.91 139.57 856.82 143.80 C 856.49 153.10 856.98 162.41 856.57 171.71 C 850.37 176.31 843.26 179.42 836.70 183.42 C 834.53 184.85 832.08 185.72 829.49 185.82 C 829.21 165.51 829.17 145.17 829.46 124.86 C 837.93 119.35 847.00 114.84 855.75 109.80 Z" />
<path fill="#ffffff" opacity="1.00" d=" M 716.25 123.13 C 718.80 117.26 721.75 111.56 724.14 105.61 C 726.55 110.69 728.88 115.80 731.26 120.90 C 739.72 139.47 748.13 158.07 756.78 176.56 C 752.55 176.68 748.31 176.73 744.09 176.51 C 742.17 171.25 740.22 165.98 737.82 160.92 C 728.82 160.37 719.77 160.88 710.76 160.67 C 708.80 165.11 706.98 169.60 705.19 174.11 C 704.95 174.73 704.48 175.97 704.24 176.59 C 700.12 176.68 696.01 176.69 691.90 176.61 C 694.71 169.97 697.90 163.49 700.77 156.88 C 702.43 153.23 704.17 149.61 705.76 145.92 C 706.55 144.18 707.25 142.27 708.84 141.07 L 707.89 141.23 C 710.85 135.28 713.42 129.15 716.25 123.13 M 723.83 130.04 C 722.14 133.98 720.52 137.94 718.81 141.87 C 717.58 144.81 716.31 147.73 715.09 150.67 C 721.15 150.77 727.21 150.76 733.27 150.67 C 730.72 143.90 727.56 137.39 725.02 130.61 C 724.73 130.47 724.13 130.18 723.83 130.04 Z" />
<path fill="#41413c" opacity="1.00" d=" M 577.06 112.04 C 584.32 109.24 592.18 108.93 599.86 109.63 C 609.21 110.84 617.97 115.95 623.57 123.56 C 630.52 132.89 632.92 144.91 632.38 156.35 C 607.99 156.42 583.60 156.33 559.20 156.40 C 559.44 167.03 562.11 178.36 569.95 186.04 C 573.18 189.49 577.54 191.46 581.79 193.34 C 591.67 195.57 602.90 195.39 611.57 189.58 C 618.54 184.99 622.38 177.10 624.65 169.32 C 626.96 169.34 629.27 169.36 631.59 169.40 C 629.60 177.69 626.21 186.04 619.62 191.74 C 615.82 195.39 610.97 197.57 606.04 199.22 C 594.63 201.56 581.82 201.90 571.51 195.68 C 564.14 191.55 558.70 184.49 555.82 176.62 C 550.55 161.88 551.02 145.03 557.69 130.82 C 561.64 122.46 568.72 115.91 577.06 112.04 M 582.89 116.70 C 577.87 118.67 573.04 121.37 569.43 125.44 C 562.95 132.09 560.53 141.45 559.38 150.40 C 581.23 150.44 603.08 150.41 624.92 150.41 C 625.08 142.67 622.97 134.86 618.60 128.45 C 615.02 122.83 609.24 119.11 603.17 116.67 C 596.55 114.91 589.50 114.97 582.89 116.70 Z" />
<path fill="#41413c" opacity="1.00" d=" M 404.62 123.05 C 411.67 122.07 418.43 119.86 425.29 118.06 C 424.99 121.38 424.63 124.74 425.33 128.04 C 432.92 122.90 441.33 116.99 451.01 118.31 C 456.97 118.56 461.00 123.36 464.54 127.55 C 464.87 127.56 465.51 127.57 465.84 127.58 C 472.93 123.31 480.17 117.66 488.94 118.20 C 495.14 117.85 501.34 121.13 504.61 126.39 C 507.79 131.29 508.87 137.24 508.82 143.01 C 508.75 151.00 508.83 159.00 508.65 166.99 C 508.52 169.41 508.94 171.80 509.75 174.08 C 510.82 174.44 511.89 174.81 512.96 175.18 C 515.21 175.65 517.45 176.14 519.70 176.65 C 519.50 178.30 519.31 179.95 519.12 181.61 C 508.30 181.42 497.48 181.31 486.66 181.63 C 486.63 179.98 486.60 178.33 486.59 176.69 C 489.80 175.66 495.01 175.71 495.56 171.43 C 496.13 163.98 495.73 156.48 495.86 149.02 C 495.74 143.89 496.24 138.25 493.20 133.78 C 490.86 129.98 486.37 128.09 482.07 127.70 C 476.49 127.66 471.31 130.21 466.65 133.06 C 467.30 142.36 467.37 151.69 466.91 161.01 C 466.87 165.07 466.78 169.21 467.62 173.21 C 469.08 175.24 471.80 175.35 474.03 175.91 C 475.13 176.20 476.24 176.48 477.35 176.77 C 477.11 178.39 476.86 180.02 476.62 181.65 C 465.69 181.39 454.76 181.57 443.83 181.59 C 443.82 179.97 443.82 178.34 443.83 176.71 C 447.22 175.58 452.94 176.43 453.90 171.98 C 454.87 164.40 454.51 156.70 454.60 149.06 C 454.59 142.44 454.49 134.55 448.87 129.98 C 442.27 125.07 433.15 127.79 426.95 132.05 C 424.49 133.47 424.72 136.57 424.70 139.00 C 424.81 149.01 424.62 159.02 424.81 169.03 C 425.00 171.08 424.96 173.93 427.24 174.86 C 429.66 175.87 432.34 176.06 434.89 176.64 C 434.78 178.31 434.67 179.97 434.56 181.64 C 423.56 181.39 412.57 181.36 401.58 181.66 C 401.55 180.00 401.55 178.34 401.56 176.68 C 405.27 175.69 411.46 175.97 411.85 170.90 C 412.74 158.32 412.70 145.62 412.17 133.02 C 410.17 128.50 404.05 128.90 400.46 126.19 C 399.91 123.73 402.97 123.44 404.62 123.05 Z" />
<path fill="#d0092f" opacity="1.00" d=" M 723.83 130.04 C 724.13 130.18 724.73 130.47 725.02 130.61 C 727.56 137.39 730.72 143.90 733.27 150.67 C 727.21 150.76 721.15 150.77 715.09 150.67 C 716.31 147.73 717.58 144.81 718.81 141.87 C 720.52 137.94 722.14 133.98 723.83 130.04 Z" />
<path fill="#bcbaa0" opacity="1.00" d=" M 323.65 165.53 C 324.29 173.16 324.70 181.93 331.11 187.19 L 331.14 187.22 C 326.04 195.42 328.36 205.60 328.31 214.71 C 326.36 214.00 324.40 213.33 322.45 212.63 C 322.51 204.79 321.45 196.96 319.67 189.38 C 321.79 181.58 323.29 173.61 323.65 165.53 Z" />
</svg>
