<?xml version="1.0" encoding="UTF-8" ?>
<!DOCTYPE svg PUBLIC "-//W3C//DTD SVG 1.1//EN" "http://www.w3.org/Graphics/SVG/1.1/DTD/svg11.dtd">
<svg width="2017pt" height="582pt" viewBox="0 0 2017 582" version="1.1" xmlns="http://www.w3.org/2000/svg">
<path fill="#5a9737" opacity="1.00" d=" M 516.97 32.84 C 518.47 40.96 520.51 49.07 524.23 56.50 C 526.81 61.96 530.26 67.23 535.24 70.79 C 539.32 73.62 542.44 77.54 545.86 81.09 C 569.07 106.97 588.67 136.17 603.39 167.67 C 618.93 201.18 628.53 237.85 628.39 274.94 C 627.00 296.65 622.82 318.11 617.06 339.07 C 607.04 374.79 591.07 409.33 566.92 437.75 C 557.13 448.72 546.59 459.11 534.58 467.66 C 521.67 456.70 516.26 439.27 516.00 422.79 C 516.31 413.19 513.90 403.80 513.53 394.23 C 512.32 386.86 513.24 379.41 512.93 372.01 C 510.97 357.09 511.95 341.99 512.06 326.99 C 511.83 311.12 512.42 295.24 511.68 279.39 C 511.80 265.25 511.79 251.12 512.09 236.99 C 514.40 216.86 511.55 196.56 513.46 176.41 C 514.70 165.30 513.55 154.13 513.85 143.00 C 513.77 135.31 515.17 127.69 515.01 120.00 C 514.90 109.97 514.42 99.90 515.60 89.91 C 516.75 79.32 514.87 68.65 516.30 58.08 C 516.76 51.37 518.32 44.25 515.44 37.86 C 515.83 36.15 516.39 34.49 516.97 32.84 Z" />
<path fill="#69b23f" opacity="1.00" d=" M 502.35 58.54 C 507.34 52.05 511.63 45.09 515.44 37.86 C 518.32 44.25 516.76 51.37 516.30 58.08 C 514.87 68.65 516.75 79.32 515.60 89.91 C 514.42 99.90 514.90 109.97 515.01 120.00 C 515.17 127.69 513.77 135.31 513.85 143.00 C 513.55 154.13 514.70 165.30 513.46 176.41 C 511.55 196.56 514.40 216.86 512.09 236.99 C 511.79 251.12 511.80 265.25 511.68 279.39 C 512.42 295.24 511.83 311.12 512.06 326.99 C 511.95 341.99 510.97 357.09 512.93 372.01 C 513.24 379.41 512.32 386.86 513.53 394.23 C 513.90 403.80 516.31 413.19 516.00 422.79 C 514.74 433.64 513.10 444.45 510.92 455.16 C 510.19 459.16 508.78 462.98 507.17 466.70 C 506.51 466.62 505.20 466.48 504.55 466.40 C 489.50 455.36 476.21 442.09 464.05 427.98 C 455.70 418.03 447.88 407.60 441.21 396.45 C 440.88 396.13 440.21 395.48 439.88 395.15 C 436.91 388.66 432.85 382.71 429.86 376.22 C 412.19 340.77 403.41 300.77 405.48 261.16 C 409.41 213.81 423.02 167.00 446.76 125.73 C 461.40 100.48 480.05 77.39 502.35 58.54 Z" />
<path fill="#b52f32" opacity="1.00" d=" M 1420.33 145.38 C 1422.36 144.31 1424.62 143.59 1426.91 143.21 C 1483.22 162.20 1539.38 181.71 1595.75 200.53 C 1595.81 201.14 1595.92 202.34 1595.98 202.95 C 1586.85 275.26 1577.86 347.60 1568.68 419.91 C 1523.89 444.68 1479.10 469.45 1434.33 494.26 C 1431.45 495.66 1428.85 497.98 1425.59 498.34 C 1427.00 488.97 1426.12 479.46 1426.37 470.03 C 1426.35 439.35 1426.37 408.67 1426.36 377.99 C 1426.44 372.49 1426.52 366.97 1425.66 361.53 C 1442.12 361.54 1458.59 361.42 1475.06 361.59 C 1482.33 379.00 1490.19 396.18 1497.33 413.65 C 1509.79 414.20 1522.28 414.22 1534.76 414.48 C 1498.89 338.66 1463.45 262.62 1427.63 186.77 C 1426.88 184.07 1425.52 181.47 1425.64 178.61 C 1426.74 167.59 1426.51 156.48 1426.21 145.43 C 1423.46 145.74 1420.74 146.16 1418.07 146.79 C 1418.80 146.31 1419.55 145.84 1420.33 145.38 Z" />
<path fill="#e23237" opacity="1.00" d=" M 1261.19 201.82 C 1314.33 183.30 1367.18 163.88 1420.33 145.38 C 1419.55 145.84 1418.80 146.31 1418.07 146.79 C 1420.74 146.16 1423.46 145.74 1426.21 145.43 C 1426.51 156.48 1426.74 167.59 1425.64 178.61 C 1425.52 181.47 1426.88 184.07 1427.63 186.77 C 1427.11 186.76 1426.07 186.73 1425.55 186.72 C 1391.41 262.30 1357.63 338.04 1323.45 413.59 C 1336.35 413.89 1349.26 413.24 1362.16 413.28 C 1369.16 396.06 1375.89 378.73 1382.96 361.54 C 1397.19 361.50 1411.42 361.54 1425.66 361.53 C 1426.52 366.97 1426.44 372.49 1426.36 377.99 C 1426.37 408.67 1426.35 439.35 1426.37 470.03 C 1426.12 479.46 1427.00 488.97 1425.59 498.34 C 1390.48 478.35 1354.96 459.03 1319.70 439.30 C 1308.68 433.18 1297.71 426.99 1286.58 421.08 C 1284.78 411.84 1284.38 402.38 1283.06 393.07 C 1276.89 339.76 1270.74 286.45 1264.59 233.14 C 1263.50 222.70 1261.89 212.30 1261.19 201.82 Z" />
<path fill="#010101" opacity="1.00" d=" M 65.71 160.95 C 80.58 158.45 95.42 155.80 110.29 153.31 C 110.20 172.93 110.28 192.55 110.25 212.17 C 141.33 212.32 172.41 212.23 203.49 212.22 C 203.51 224.57 203.52 236.92 203.49 249.28 C 172.42 249.24 141.34 249.17 110.26 249.31 C 110.24 281.86 110.26 314.40 110.25 346.95 C 110.12 355.97 110.81 365.02 112.54 373.88 C 114.52 382.53 117.54 391.56 124.35 397.65 C 128.95 402.06 134.99 404.61 141.17 405.86 C 151.69 407.97 162.53 407.39 173.11 406.11 C 184.06 404.87 194.06 399.94 204.32 396.26 C 207.07 408.49 210.16 420.64 212.79 432.89 C 210.69 434.28 208.25 435.02 205.94 435.97 C 194.62 440.00 183.10 443.78 171.11 445.13 C 156.18 446.86 140.98 446.76 126.15 444.27 C 112.07 441.90 98.14 436.00 88.14 425.57 C 78.36 415.74 72.74 402.51 69.84 389.11 C 64.75 365.42 65.93 341.05 65.76 316.98 C 65.73 264.97 65.82 212.96 65.71 160.95 Z" />
<path fill="#3f4136" opacity="1.00" d=" M 1748.38 156.56 C 1752.98 155.26 1757.97 156.47 1761.99 158.92 C 1799.23 180.41 1836.44 201.95 1873.79 223.27 C 1878.63 226.41 1884.22 228.50 1888.43 232.56 C 1891.71 235.81 1893.38 240.40 1893.72 244.95 C 1894.02 270.63 1893.36 296.31 1893.50 322.00 C 1893.49 360.32 1893.51 398.64 1893.49 436.96 C 1893.39 440.15 1892.56 443.95 1889.43 445.50 C 1886.51 446.99 1883.13 446.04 1880.46 444.54 C 1856.07 430.67 1831.84 416.52 1807.41 402.73 C 1802.32 399.70 1799.20 393.93 1799.26 388.03 C 1799.23 361.68 1799.26 335.32 1799.24 308.97 C 1799.29 304.19 1799.94 299.31 1798.60 294.64 C 1797.43 289.75 1793.55 286.01 1789.28 283.66 C 1779.34 278.43 1769.87 272.35 1760.05 266.93 C 1755.21 264.08 1748.98 264.36 1744.21 267.19 C 1734.94 272.63 1725.68 278.08 1716.32 283.36 C 1713.38 284.91 1710.51 286.75 1708.60 289.52 C 1705.75 293.36 1705.44 298.34 1705.48 302.95 C 1706.01 315.28 1705.67 327.63 1705.75 339.98 C 1705.09 351.99 1706.05 364.01 1705.76 376.04 C 1705.42 382.82 1706.93 390.15 1703.57 396.41 C 1701.83 399.94 1698.47 402.19 1695.18 404.12 C 1672.23 417.11 1649.20 429.97 1626.63 443.62 C 1623.43 445.48 1619.31 447.04 1615.78 445.15 C 1612.41 443.56 1611.47 439.53 1611.28 436.15 C 1611.74 407.44 1611.39 378.72 1611.50 350.01 C 1610.96 315.69 1611.37 281.35 1611.23 247.02 C 1611.12 242.68 1611.84 238.06 1614.56 234.53 C 1617.16 230.98 1621.23 229.03 1624.95 226.89 C 1661.38 206.03 1697.70 184.98 1734.09 164.06 C 1738.80 161.50 1743.20 158.18 1748.38 156.56 Z" />
<path fill="#010101" opacity="1.00" d=" M 1039.21 212.17 C 1058.57 193.73 1084.13 181.51 1110.92 179.46 C 1135.88 177.21 1161.49 183.05 1182.91 196.12 C 1225.36 221.23 1250.13 271.46 1247.65 320.30 C 1167.64 320.22 1087.62 320.18 1007.61 320.32 C 1009.85 347.63 1019.70 374.45 1036.76 395.99 C 1051.19 414.34 1070.96 428.61 1093.28 435.67 C 1118.31 443.60 1146.11 441.30 1169.93 430.48 C 1190.53 421.50 1208.72 405.83 1218.30 385.25 C 1221.58 386.13 1224.89 386.95 1228.17 387.87 C 1220.56 406.73 1205.73 421.97 1188.50 432.42 C 1170.58 443.21 1150.00 449.76 1129.06 450.65 C 1107.31 451.70 1085.30 446.43 1066.45 435.52 C 1041.44 421.52 1022.00 398.68 1010.24 372.71 C 997.40 345.23 994.26 313.64 999.99 283.95 C 1005.38 256.82 1018.99 231.17 1039.21 212.17 M 1043.34 223.28 C 1020.90 246.24 1009.53 278.26 1007.64 309.93 C 1084.02 310.07 1160.41 310.00 1236.79 309.96 C 1235.13 274.45 1219.77 238.94 1192.41 215.75 C 1172.97 199.12 1147.66 189.04 1121.95 189.49 C 1092.50 188.94 1063.48 201.98 1043.34 223.28 Z" />
<path fill="#ffffff" opacity="1.00" d=" M 1425.55 186.72 C 1426.07 186.73 1427.11 186.76 1427.63 186.77 C 1463.45 262.62 1498.89 338.66 1534.76 414.48 C 1522.28 414.22 1509.79 414.20 1497.33 413.65 C 1490.19 396.18 1482.33 379.00 1475.06 361.59 C 1458.59 361.42 1442.12 361.54 1425.66 361.53 C 1411.42 361.54 1397.19 361.50 1382.96 361.54 C 1375.89 378.73 1369.16 396.06 1362.16 413.28 C 1349.26 413.24 1336.35 413.89 1323.45 413.59 C 1357.63 338.04 1391.41 262.30 1425.55 186.72 M 1426.82 258.22 C 1426.60 258.89 1426.15 260.24 1425.92 260.92 C 1416.81 282.17 1407.83 303.50 1398.99 324.86 C 1398.11 326.78 1397.28 328.73 1396.48 330.68 C 1418.09 330.65 1439.71 330.82 1461.33 330.68 C 1449.93 306.48 1438.11 282.47 1426.82 258.22 Z" />
<path fill="#010101" opacity="1.00" d=" M 244.64 215.57 C 258.66 199.90 279.41 191.98 299.92 189.63 C 328.76 186.40 358.03 190.81 385.67 199.12 C 383.48 212.00 380.29 224.71 377.82 237.55 C 360.05 229.49 340.49 225.64 321.00 225.75 C 307.45 225.48 293.20 228.06 282.06 236.18 C 273.71 242.55 271.69 254.21 274.06 263.96 C 276.24 273.73 284.08 280.94 292.50 285.68 C 307.56 294.16 324.35 298.78 340.16 305.59 C 357.37 312.70 375.48 320.68 387.02 335.97 C 398.31 350.68 400.36 370.24 398.40 388.14 C 396.81 402.07 390.27 415.54 379.54 424.69 C 365.83 436.66 347.78 442.25 330.06 444.85 C 315.79 446.90 301.31 447.13 286.93 446.45 C 274.89 445.94 262.79 444.78 251.13 441.58 C 242.35 439.05 233.62 436.33 225.07 433.12 C 227.64 420.36 230.55 407.66 233.06 394.88 C 242.19 398.03 251.23 401.42 260.43 404.36 C 273.90 408.22 288.03 409.17 301.99 409.00 C 312.72 409.10 323.61 408.31 333.91 405.11 C 341.39 402.76 348.84 398.30 352.08 390.82 C 356.82 379.30 353.96 364.87 344.58 356.50 C 337.39 350.25 328.77 346.00 320.31 341.79 C 306.54 335.21 292.16 330.04 278.23 323.81 C 264.71 318.09 251.29 310.75 241.92 299.15 C 233.02 288.60 228.61 274.72 228.98 260.99 C 228.31 244.63 233.46 227.75 244.64 215.57 Z" />
<path fill="#010101" opacity="1.00" d=" M 649.70 206.56 C 674.50 200.78 699.66 195.90 725.16 194.83 C 741.81 194.18 758.74 193.42 775.11 197.24 C 789.54 200.49 802.93 208.10 812.92 219.04 C 828.82 207.60 847.54 200.80 866.56 196.67 C 880.87 193.73 895.65 193.79 910.12 195.45 C 924.72 197.15 939.29 201.87 950.93 211.07 C 965.74 222.26 974.05 240.04 977.65 257.87 C 980.81 274.37 981.96 291.23 981.76 308.02 C 981.76 353.27 981.77 398.52 981.75 443.78 C 967.16 443.74 952.57 443.74 937.98 443.78 C 937.99 399.17 938.03 354.56 937.96 309.95 C 937.17 291.72 937.30 272.55 929.16 255.77 C 924.89 246.52 916.81 239.03 907.01 236.04 C 894.48 231.99 881.01 232.69 868.11 234.23 C 855.88 235.68 844.35 240.57 833.82 246.78 C 832.68 247.81 830.19 248.48 830.66 250.41 C 836.45 270.38 838.05 291.32 837.76 312.03 C 837.75 355.95 837.77 399.86 837.75 443.78 C 823.16 443.74 808.57 443.74 793.98 443.78 C 794.01 414.19 793.98 384.60 793.99 355.01 C 793.70 330.16 795.01 305.19 791.77 280.48 C 789.80 267.31 786.01 253.41 776.07 243.93 C 767.01 235.42 754.07 233.12 742.06 233.00 C 725.86 233.31 709.63 234.62 693.70 237.68 C 693.83 306.38 693.73 375.08 693.75 443.78 C 679.10 443.75 664.44 443.73 649.79 443.79 C 649.68 364.71 649.86 285.63 649.70 206.56 Z" />
<path fill="#b52f32" opacity="1.00" d=" M 1426.82 258.22 C 1438.11 282.47 1449.93 306.48 1461.33 330.68 C 1439.71 330.82 1418.09 330.65 1396.48 330.68 C 1397.28 328.73 1398.11 326.78 1398.99 324.86 C 1399.00 326.34 1399.05 327.82 1399.14 329.30 C 1408.20 329.60 1417.26 329.53 1426.33 329.32 C 1426.51 310.90 1426.20 292.48 1426.32 274.06 C 1426.34 269.67 1424.59 265.26 1425.92 260.92 C 1426.15 260.24 1426.60 258.89 1426.82 258.22 Z" />
<path fill="#e23237" opacity="1.00" d=" M 1398.99 324.86 C 1407.83 303.50 1416.81 282.17 1425.92 260.92 C 1424.59 265.26 1426.34 269.67 1426.32 274.06 C 1426.20 292.48 1426.51 310.90 1426.33 329.32 C 1417.26 329.53 1408.20 329.60 1399.14 329.30 C 1399.05 327.82 1399.00 326.34 1398.99 324.86 Z" />
<path fill="#c3bebf" opacity="1.00" d=" M 510.92 455.16 C 513.10 444.45 514.74 433.64 516.00 422.79 C 516.26 439.27 521.67 456.70 534.58 467.66 C 526.87 487.54 521.45 509.92 527.91 530.92 C 524.10 529.90 520.43 528.49 516.71 527.21 C 513.83 508.42 511.22 489.54 506.82 471.03 C 506.48 469.30 505.73 467.70 504.55 466.40 C 505.20 466.48 506.51 466.62 507.17 466.70 C 508.78 462.98 510.19 459.16 510.92 455.16 Z" />
</svg>
