<?xml version="1.0" encoding="UTF-8" ?>
<!DOCTYPE svg PUBLIC "-//W3C//DTD SVG 1.1//EN" "http://www.w3.org/Graphics/SVG/1.1/DTD/svg11.dtd">
<svg width="585pt" height="170pt" viewBox="0 0 585 170" version="1.1" xmlns="http://www.w3.org/2000/svg">
<path fill="#ffffff" opacity="1.00" d=" M 538.03 17.89 C 541.40 16.60 544.22 13.92 547.92 13.40 C 555.79 12.43 564.76 14.78 569.34 21.74 C 570.26 23.18 571.14 24.66 572.14 26.06 C 572.79 27.38 573.67 28.57 574.32 29.90 C 574.62 30.42 575.22 31.47 575.52 31.99 C 575.54 32.21 575.60 32.63 575.62 32.85 C 576.08 34.05 576.50 35.27 576.90 36.50 L 577.38 36.41 C 578.06 42.24 577.04 48.09 577.56 53.93 C 578.03 60.14 578.22 66.39 577.35 72.58 L 576.62 72.49 C 576.57 73.24 576.46 74.73 576.41 75.48 L 575.88 75.53 C 575.44 76.72 574.99 77.90 574.54 79.08 C 574.51 79.30 574.45 79.74 574.42 79.96 C 574.14 80.49 573.57 81.54 573.29 82.07 C 572.66 83.46 571.98 84.82 571.39 86.22 C 570.72 87.54 569.94 88.81 569.30 90.14 C 568.60 91.54 567.84 92.90 567.13 94.28 C 566.95 94.34 566.61 94.46 566.43 94.52 L 566.53 95.24 C 565.38 96.91 564.26 98.60 563.19 100.32 C 562.05 101.78 560.93 103.26 559.79 104.72 C 557.57 107.57 554.97 110.10 552.16 112.36 C 550.73 113.30 549.29 114.22 547.87 115.17 C 546.22 116.00 544.63 116.96 542.99 117.79 C 542.57 118.03 541.74 118.53 541.33 118.78 C 541.60 122.26 540.72 126.02 542.24 129.29 L 542.47 129.92 C 542.78 130.26 543.40 130.95 543.71 131.29 C 545.29 133.14 546.97 134.90 548.70 136.62 L 549.49 136.53 L 549.52 137.69 C 552.96 138.32 555.97 136.68 558.92 135.20 C 563.31 134.40 570.49 132.38 571.62 138.82 C 569.49 136.67 566.67 136.33 564.01 136.90 C 562.99 137.67 561.98 138.44 560.98 139.20 C 565.47 141.03 570.88 141.50 573.38 146.54 C 568.55 144.01 563.26 142.74 557.87 143.69 C 556.53 144.17 555.18 144.60 553.83 145.01 C 555.08 146.00 556.33 147.01 557.58 148.02 C 557.62 148.58 557.70 149.71 557.74 150.28 C 555.64 148.26 552.75 147.59 550.06 146.75 C 548.68 146.76 547.30 146.77 545.94 146.79 C 541.40 148.19 536.56 149.45 531.86 148.03 C 530.22 147.61 528.58 147.24 526.96 146.78 C 525.62 146.74 524.29 146.71 522.96 146.69 C 521.71 147.21 520.42 147.69 519.16 148.19 C 517.88 149.14 516.59 150.10 515.31 151.05 C 515.38 150.03 515.47 149.02 515.55 148.00 C 517.18 146.52 518.94 145.20 520.90 144.20 C 523.61 143.52 526.41 143.52 529.18 143.30 C 527.66 141.86 526.18 140.39 524.58 139.06 L 524.52 138.43 L 523.46 138.55 L 523.50 137.89 C 523.14 137.55 522.43 136.89 522.07 136.56 L 521.41 136.60 L 521.41 135.95 C 521.08 135.60 520.41 134.89 520.08 134.53 L 519.60 134.64 C 517.30 130.10 519.05 124.78 518.47 119.90 C 515.63 119.24 512.84 118.44 510.05 117.63 C 507.18 117.50 504.31 117.55 501.45 117.65 L 501.60 118.38 C 500.20 118.47 498.82 118.56 497.44 118.65 L 497.53 119.33 C 495.50 119.46 493.46 119.60 491.44 119.70 C 491.46 119.86 491.50 120.16 491.52 120.31 C 488.80 120.45 486.10 120.63 483.39 120.67 L 483.47 121.14 C 481.61 121.26 479.76 121.39 477.97 121.89 C 476.93 122.53 475.85 123.09 474.78 123.67 C 473.17 124.49 471.55 125.29 469.96 126.15 C 468.61 126.80 467.26 127.45 465.89 128.04 C 462.22 129.81 464.23 134.41 463.75 137.62 C 459.86 137.62 455.98 137.63 452.09 137.61 C 452.11 137.01 452.14 135.80 452.15 135.20 C 450.74 135.79 449.35 136.39 447.95 136.99 C 446.95 137.27 445.95 137.55 444.95 137.81 C 443.94 138.17 442.94 138.51 441.93 138.83 C 440.92 139.20 439.92 139.58 438.92 139.97 C 437.37 140.32 435.80 140.57 434.22 140.72 C 434.72 138.89 435.35 137.10 435.90 135.28 C 435.54 135.61 434.83 136.26 434.48 136.58 C 432.25 136.67 430.02 136.69 427.83 136.38 C 428.85 131.97 433.79 130.38 436.98 127.75 C 437.74 127.26 438.51 126.78 439.30 126.31 C 441.50 124.79 443.77 123.39 446.16 122.16 C 442.49 122.35 438.82 122.41 435.15 122.27 C 435.94 117.42 440.46 114.62 443.84 111.56 C 445.20 110.63 446.54 109.68 447.90 108.74 C 449.64 107.61 452.56 106.96 452.11 104.27 C 451.89 97.49 452.99 90.21 450.02 83.89 C 445.32 76.05 433.74 76.07 426.81 80.80 C 421.00 84.35 419.67 91.71 419.49 97.98 C 419.22 111.19 419.44 124.41 419.37 137.62 C 415.50 137.62 411.62 137.62 407.75 137.62 C 407.75 114.79 407.75 91.96 407.75 69.13 C 411.25 69.12 414.75 69.12 418.25 69.13 C 418.25 72.34 418.27 75.56 418.21 78.78 C 426.39 65.87 446.23 63.82 457.58 73.50 C 464.74 80.37 463.73 91.11 463.71 100.17 C 464.74 99.27 465.72 98.33 466.77 97.44 L 467.27 97.55 C 467.72 97.22 468.63 96.58 469.08 96.25 C 471.01 94.99 472.94 93.73 474.83 92.41 L 475.19 92.54 C 475.83 92.01 477.11 90.94 477.74 90.41 C 477.95 90.44 478.37 90.50 478.58 90.53 L 478.64 89.82 C 479.13 89.54 480.13 89.00 480.62 88.72 C 480.93 88.50 481.54 88.05 481.85 87.83 C 482.78 87.14 483.76 86.47 484.71 85.78 C 485.48 85.29 486.25 84.80 487.03 84.30 C 488.05 83.55 489.09 82.80 490.13 82.07 C 492.86 80.23 495.50 78.27 498.17 76.35 C 500.43 74.57 502.52 72.58 504.66 70.65 C 504.94 70.44 505.50 70.02 505.78 69.81 C 508.17 67.76 510.46 65.60 512.77 63.44 L 513.16 63.52 C 514.96 61.87 516.78 60.23 518.63 58.63 C 518.92 58.43 519.51 58.01 519.80 57.81 C 521.47 56.39 523.12 54.93 524.84 53.55 C 527.14 51.96 529.45 50.35 531.77 48.77 C 532.80 48.07 533.86 47.39 534.91 46.68 C 536.47 45.54 537.96 44.31 539.54 43.18 L 539.59 42.97 C 543.13 40.66 543.34 36.24 541.51 32.75 C 540.14 31.42 538.72 30.05 536.87 29.45 C 531.18 27.43 525.28 26.02 519.33 25.04 C 519.57 23.85 519.15 22.06 520.65 21.55 C 525.80 18.16 532.16 18.45 538.03 17.89 M 527.36 124.91 C 527.30 127.30 527.34 129.69 527.44 132.08 C 528.74 133.70 530.08 135.29 531.49 136.82 L 531.50 137.52 L 532.16 137.48 C 532.50 137.82 533.17 138.50 533.51 138.84 L 533.49 139.12 C 533.85 139.47 534.59 140.17 534.96 140.52 C 536.01 140.44 537.07 140.37 538.14 140.32 C 539.35 140.07 541.77 139.58 542.98 139.33 C 541.85 138.32 540.72 137.30 539.60 136.29 C 537.07 134.11 534.65 131.80 532.58 129.18 C 532.59 127.17 532.57 125.15 532.55 123.13 C 530.81 123.71 529.10 124.35 527.36 124.91 Z" />
<path fill="#ffffff" opacity="1.00" d=" M 31.87 55.46 C 37.95 51.92 44.04 48.41 50.13 44.87 C 50.12 52.96 50.13 61.04 50.13 69.13 C 54.29 69.13 58.46 69.12 62.62 69.13 C 62.62 73.92 62.62 78.71 62.62 83.50 C 58.46 83.50 54.29 83.50 50.13 83.50 C 50.18 94.67 50.00 105.84 50.23 117.01 C 50.34 119.27 50.04 122.29 52.49 123.46 C 55.74 125.10 59.36 123.32 62.59 122.44 C 63.06 127.15 63.60 131.84 64.12 136.54 C 56.03 139.48 46.36 140.75 38.53 136.41 C 33.07 133.43 32.15 126.57 31.99 120.96 C 31.73 108.48 31.95 95.99 31.87 83.50 C 29.08 83.50 26.29 83.50 23.50 83.50 C 23.50 78.71 23.50 73.92 23.50 69.13 C 26.29 69.12 29.08 69.12 31.87 69.13 C 31.87 64.57 31.88 60.01 31.87 55.46 Z" />
<path fill="#ffffff" opacity="1.00" d=" M 76.12 76.03 C 81.64 69.37 90.80 67.70 99.00 67.52 C 106.52 67.51 114.54 67.89 121.15 71.88 C 126.15 74.92 129.31 80.15 131.06 85.62 C 125.36 86.71 119.65 87.74 113.95 88.79 C 112.84 86.20 111.44 83.48 108.77 82.19 C 104.84 80.14 100.19 80.49 95.91 80.85 C 93.16 81.28 89.60 82.00 88.59 85.01 C 87.70 87.38 89.66 89.71 91.86 90.38 C 103.10 94.71 115.85 94.99 126.18 101.64 C 135.03 107.42 135.36 121.00 128.95 128.73 C 123.86 135.50 115.28 138.42 107.10 138.98 C 97.48 139.60 87.00 138.87 78.97 132.98 C 73.93 129.42 70.59 123.96 68.88 118.11 C 74.96 117.15 81.05 116.24 87.13 115.32 C 88.17 118.91 90.03 122.58 93.53 124.32 C 98.39 126.67 104.15 126.46 109.27 125.14 C 112.46 124.33 115.56 121.58 114.99 117.99 C 114.89 115.61 112.69 114.22 110.62 113.67 C 100.30 110.79 89.33 109.38 79.85 104.11 C 70.29 98.49 68.77 84.04 76.12 76.03 Z" />
<path fill="#ffffff" opacity="1.00" d=" M 159.07 78.55 C 164.24 70.88 173.64 66.44 182.86 67.63 C 190.12 67.90 197.00 72.46 199.52 79.37 C 203.25 74.10 208.49 69.53 214.96 68.17 C 222.16 66.65 230.58 67.54 236.13 72.80 C 240.70 77.20 241.96 83.87 242.00 89.97 C 242.00 105.85 242.00 121.74 242.00 137.62 C 238.12 137.62 234.25 137.62 230.38 137.62 C 230.37 122.39 230.39 107.16 230.37 91.94 C 230.26 87.70 229.80 82.70 226.00 80.05 C 218.85 74.97 207.57 78.03 203.65 85.81 C 201.43 90.17 201.23 95.19 201.24 99.98 C 201.26 112.53 201.25 125.08 201.25 137.62 C 197.38 137.62 193.50 137.62 189.63 137.62 C 189.61 122.45 189.65 107.27 189.61 92.09 C 189.45 87.30 188.51 81.46 183.85 78.98 C 176.55 75.54 166.58 78.61 162.99 85.99 C 160.72 90.62 160.46 95.90 160.37 100.97 C 160.38 113.19 160.37 125.40 160.37 137.62 C 156.46 137.62 152.54 137.62 148.63 137.62 C 148.63 114.79 148.63 91.96 148.63 69.13 C 152.13 69.12 155.63 69.13 159.13 69.13 C 159.13 72.27 159.15 75.41 159.07 78.55 Z" />
<path fill="#ffffff" opacity="1.00" d=" M 266.37 75.42 C 274.20 68.01 285.96 66.06 296.21 68.47 C 304.90 70.51 312.32 76.93 315.86 85.08 C 318.84 91.74 319.40 99.16 319.25 106.36 C 302.08 106.39 284.91 106.35 267.73 106.38 C 268.22 112.80 269.93 119.60 274.75 124.19 C 280.93 130.34 291.46 131.46 298.81 126.81 C 302.85 124.25 305.09 119.84 306.87 115.57 C 310.89 116.07 314.91 116.53 318.92 117.08 C 317.01 123.62 313.40 129.90 307.67 133.80 C 299.99 139.25 289.96 139.97 280.91 138.52 C 272.25 137.09 264.32 131.64 260.17 123.87 C 255.75 115.67 255.14 105.98 256.15 96.87 C 257.04 88.86 260.28 80.87 266.37 75.42 M 276.60 80.64 C 271.41 84.28 268.85 90.55 268.33 96.70 C 281.22 96.79 294.10 96.75 306.99 96.72 C 306.33 91.89 305.34 86.75 301.87 83.08 C 295.74 75.92 284.05 75.16 276.60 80.64 Z" />
<path fill="#ffffff" opacity="1.00" d=" M 339.87 73.86 C 346.14 69.07 354.28 67.68 361.98 67.51 C 369.08 67.46 376.64 68.21 382.62 72.38 C 387.00 75.40 389.04 80.84 389.27 85.99 C 389.93 99.66 388.97 113.36 389.94 127.02 C 390.15 130.76 391.48 134.29 393.04 137.65 C 388.99 137.60 384.93 137.63 380.87 137.63 C 379.76 134.94 379.04 132.11 378.56 129.25 C 372.77 134.23 365.78 138.12 358.08 138.90 C 350.34 139.67 341.53 139.02 335.59 133.42 C 328.64 127.25 327.84 115.79 333.27 108.40 C 337.27 102.73 344.17 99.97 350.83 98.96 C 359.83 97.62 368.99 96.91 377.72 94.17 C 377.84 89.39 377.95 83.50 373.59 80.40 C 367.39 76.31 359.21 76.48 352.27 78.35 C 346.94 79.85 344.45 85.28 343.08 90.17 C 339.27 89.65 335.47 89.14 331.67 88.61 C 333.01 83.10 335.23 77.42 339.87 73.86 M 350.95 109.08 C 346.25 109.97 342.07 114.03 342.22 119.01 C 341.86 123.91 345.71 128.30 350.35 129.39 C 358.93 131.50 369.23 128.93 374.45 121.44 C 378.16 116.18 377.59 109.41 377.64 103.31 C 369.06 106.58 359.81 107.01 350.95 109.08 Z" />
</svg>
