<?xml version="1.0" encoding="UTF-8" ?>
<!DOCTYPE svg PUBLIC "-//W3C//DTD SVG 1.1//EN" "http://www.w3.org/Graphics/SVG/1.1/DTD/svg11.dtd">
<svg width="1259pt" height="1024pt" viewBox="0 0 1259 1024" version="1.1" xmlns="http://www.w3.org/2000/svg">
<path fill="#F0F0F0" opacity="1.00" d=" M 768.22 25.23 C 807.86 7.95 851.95 1.22 894.97 5.40 C 931.33 8.87 966.90 20.26 998.50 38.57 C 1020.28 51.14 1040.12 66.99 1057.39 85.26 C 1114.69 73.94 1170.01 52.78 1220.25 23.00 C 1208.80 58.59 1189.47 91.63 1163.98 118.99 C 1147.45 136.88 1128.29 152.28 1107.47 164.90 C 1158.22 158.83 1208.08 145.27 1254.80 124.52 C 1220.44 175.91 1176.89 221.12 1126.82 257.39 C 1131.18 351.88 1115.80 446.93 1084.07 535.93 C 1057.30 611.10 1018.89 682.17 970.20 745.40 C 923.12 806.56 866.27 860.32 801.94 903.02 C 732.21 949.60 653.72 982.80 571.99 1001.38 C 513.35 1014.84 453.11 1020.81 392.98 1020.54 C 326.57 1020.18 260.20 1010.69 196.37 992.33 C 128.53 972.90 63.66 943.35 4.22 905.34 C 57.11 911.41 110.93 909.67 163.22 899.63 C 243.48 884.41 319.83 849.48 384.07 799.07 C 341.84 798.19 299.79 786.97 263.04 766.08 C 207.11 734.86 163.83 681.88 144.40 620.85 C 182.71 628.16 222.67 626.71 260.31 616.42 C 222.06 608.69 185.60 592.18 154.73 568.30 C 121.25 542.63 94.24 508.58 76.97 470.08 C 61.60 436.15 54.01 398.81 54.45 361.58 C 89.89 381.38 130.11 392.47 170.67 393.72 C 139.59 372.93 113.08 345.34 93.70 313.35 C 72.78 279.02 60.16 239.69 57.23 199.59 C 53.23 148.19 65.21 95.71 91.23 51.19 C 156.42 131.05 238.50 197.14 330.77 243.20 C 418.70 287.37 515.75 313.20 613.98 318.83 C 616.02 318.95 618.06 319.12 620.12 319.27 C 609.89 275.11 611.44 228.24 624.86 184.93 C 646.39 114.20 700.30 54.34 768.22 25.23 Z" />
</svg>
