<?xml version="1.0" encoding="UTF-8" ?>
<!DOCTYPE svg PUBLIC "-//W3C//DTD SVG 1.1//EN" "http://www.w3.org/Graphics/SVG/1.1/DTD/svg11.dtd">
<svg width="1225pt" height="647pt" viewBox="0 0 1225 647" version="1.1" xmlns="http://www.w3.org/2000/svg">

<path fill="#ffffff" opacity="1.00" d=" M 446.70 14.53 C 453.69 12.29 457.33 27.05 464.83 21.42 C 479.75 37.64 494.35 54.33 505.52 73.43 C 509.27 81.46 507.45 71.09 510.10 69.07 C 525.72 84.66 524.66 109.91 537.04 127.98 C 543.72 140.49 553.83 152.45 563.22 161.68 C 570.27 161.26 562.85 172.82 570.14 171.28 C 576.69 169.48 571.69 180.11 576.72 182.26 C 581.78 192.83 589.09 179.51 592.47 174.54 C 596.40 161.32 610.83 156.09 617.93 144.90 C 625.03 130.70 622.47 112.77 622.30 97.20 C 615.01 84.34 614.35 67.40 618.15 53.12 C 619.55 45.52 627.94 53.90 629.77 46.73 C 636.07 41.80 638.30 59.16 645.81 51.93 C 655.57 64.86 664.48 78.51 672.30 92.68 C 676.95 96.98 680.44 102.96 687.76 100.25 C 698.81 115.91 698.40 136.18 703.08 153.91 C 712.40 167.24 726.63 178.35 729.69 195.44 C 732.00 210.18 720.18 221.62 708.65 228.62 C 685.07 246.92 667.72 274.49 661.59 303.37 C 670.53 309.66 680.46 316.33 687.52 325.43 C 698.92 328.98 699.32 341.28 704.97 350.01 C 710.25 358.49 705.41 368.73 706.05 378.02 C 710.93 391.11 712.23 405.22 713.97 419.13 C 708.99 416.50 706.71 409.62 701.10 406.90 C 704.20 418.60 689.10 406.74 684.86 404.15 C 680.25 399.86 673.09 401.05 667.96 397.27 C 662.93 400.40 656.93 399.37 651.31 399.39 C 639.63 406.38 629.42 416.94 615.63 419.64 C 589.73 423.53 563.47 425.83 537.31 424.17 C 533.82 435.03 533.48 447.07 536.87 457.92 C 533.66 463.58 537.73 481.64 527.29 475.16 C 526.09 478.47 523.25 487.75 519.31 483.72 C 514.25 475.13 526.73 470.78 526.04 461.89 C 518.56 463.98 517.05 474.23 509.91 477.13 C 507.29 471.33 512.51 470.02 515.93 467.77 C 515.05 464.54 511.97 463.07 509.34 461.51 C 507.78 454.87 520.22 459.64 522.46 454.44 C 526.59 444.02 532.32 433.84 531.99 422.23 C 521.36 417.88 510.05 423.18 499.44 419.51 C 490.36 417.15 487.26 430.91 487.66 437.61 C 488.01 460.69 490.51 483.24 494.02 506.00 C 494.16 511.16 489.43 506.82 486.93 506.09 C 486.32 510.24 487.94 516.22 482.15 517.13 C 476.32 510.36 489.15 498.27 481.37 494.27 C 479.12 500.71 473.03 495.70 470.99 491.89 C 469.92 487.17 477.14 488.94 478.30 485.32 C 485.82 470.40 481.05 453.34 482.58 437.42 C 483.29 429.58 477.46 422.84 479.68 414.98 C 481.29 409.45 472.13 404.58 479.19 400.24 C 487.23 399.77 491.98 392.94 498.09 389.03 C 491.86 382.76 495.68 373.75 485.61 371.31 C 499.41 376.18 495.22 363.85 489.50 357.42 C 495.39 354.32 485.69 352.53 485.76 348.18 C 484.98 343.28 479.19 342.66 475.62 340.44 C 458.49 341.85 441.10 352.04 423.70 347.36 C 424.83 342.13 419.53 338.77 419.32 334.24 C 423.72 327.30 417.70 317.20 426.02 312.98 C 442.09 300.19 463.89 316.72 481.44 310.45 C 503.38 309.38 525.91 317.21 546.91 306.82 C 536.93 301.42 522.63 301.05 514.69 291.32 C 506.75 284.47 504.40 271.31 510.72 262.72 C 513.51 260.33 510.03 257.35 509.11 254.94 C 504.80 248.88 506.23 241.26 506.66 234.31 C 500.66 226.91 495.79 218.34 496.54 208.37 C 486.94 198.80 474.86 188.01 479.52 172.57 C 478.17 149.21 491.56 124.84 479.26 102.79 C 469.98 77.16 455.13 54.04 445.42 28.63 C 443.24 23.70 441.13 17.63 446.70 14.53 M 702.95 396.92 C 702.36 404.57 709.93 398.00 702.95 396.92 M 533.10 428.26 C 531.56 431.29 536.37 428.44 533.10 428.26 Z" />


<path fill="#ffffff" opacity="1.00" d=" M 475.33 504.35 C 479.28 501.52 477.57 511.63 474.07 509.99 C 470.29 509.40 472.14 504.44 475.33 504.35 Z" />
</svg>
