<?xml version="1.0" encoding="UTF-8" ?>
<!DOCTYPE svg PUBLIC "-//W3C//DTD SVG 1.1//EN" "http://www.w3.org/Graphics/SVG/1.1/DTD/svg11.dtd">
<svg width="1225pt" height="647pt" viewBox="0 0 1225 647" version="1.1" xmlns="http://www.w3.org/2000/svg">

<path fill="#ffffff" opacity="1.00" d=" M 771.16 133.28 C 782.84 135.01 788.76 145.06 791.41 155.68 C 803.75 167.87 790.11 186.04 799.95 199.00 C 803.58 209.98 796.99 220.84 789.38 228.38 C 774.88 238.42 783.03 261.29 769.40 272.43 C 754.25 292.08 726.57 283.70 705.86 292.80 C 693.87 298.68 681.35 304.32 672.83 315.04 C 681.67 320.90 685.34 332.74 695.80 336.22 C 705.25 350.46 712.49 368.32 707.18 385.87 C 714.49 398.14 713.41 412.43 715.99 426.06 C 711.48 424.00 709.10 416.98 703.25 414.71 C 706.31 426.15 694.82 416.19 690.26 413.68 C 683.94 408.44 675.36 407.80 668.14 404.10 C 661.28 410.36 650.42 402.33 643.86 408.84 C 630.94 420.13 614.43 425.97 597.33 426.32 C 576.71 428.37 555.87 430.52 535.32 427.09 C 528.50 444.34 537.86 461.54 530.55 478.54 C 529.36 482.06 526.63 474.93 524.82 477.74 C 523.82 481.17 521.89 487.84 517.43 487.84 C 510.80 478.03 525.48 472.23 524.09 461.91 C 517.38 464.66 515.80 474.53 509.79 478.79 C 505.24 483.00 506.80 471.84 510.40 471.46 C 516.37 468.90 508.32 464.06 504.85 465.71 C 505.87 457.16 517.55 461.68 520.59 454.67 C 523.71 445.76 528.99 437.56 530.02 427.99 C 531.21 422.78 523.69 423.32 520.11 422.35 C 509.25 426.21 496.21 412.11 489.38 426.37 C 485.83 446.33 484.30 467.23 486.49 487.37 C 484.66 493.40 491.97 501.13 486.21 505.93 C 478.30 497.88 484.00 512.18 477.00 514.22 C 469.00 509.28 480.01 500.08 478.01 493.06 C 475.51 486.20 472.96 503.34 471.43 493.52 C 463.88 491.09 463.11 482.45 473.21 483.22 C 483.64 457.14 482.28 426.57 479.65 400.69 C 487.46 399.49 493.74 394.73 499.97 390.01 C 497.96 384.88 494.70 380.62 489.46 378.54 C 483.64 374.75 497.74 379.62 497.95 375.99 C 497.85 370.16 488.88 366.00 492.88 360.28 C 489.66 358.46 486.69 356.37 486.79 352.33 C 482.13 352.31 476.89 352.02 473.77 348.08 C 455.11 350.81 436.60 361.54 417.77 358.31 C 418.52 353.95 417.23 350.11 414.31 346.80 C 417.29 340.70 418.72 334.04 420.50 327.44 C 435.56 312.01 458.60 319.83 477.42 320.27 C 496.18 311.91 518.47 326.04 535.91 314.05 C 527.28 312.11 515.26 309.38 506.65 303.37 C 499.38 299.53 495.61 290.94 487.54 288.52 C 464.42 281.63 440.60 276.15 418.87 265.15 C 403.54 252.02 391.64 235.34 384.14 215.99 C 386.18 209.90 393.70 209.19 397.84 205.47 C 414.23 211.42 423.75 228.99 441.62 232.43 C 454.29 237.57 464.97 246.91 478.21 250.77 C 480.50 258.69 489.87 253.22 494.09 258.90 C 508.22 264.19 524.11 269.66 536.31 276.23 C 545.34 271.37 548.82 284.13 556.06 285.91 C 563.50 281.46 567.32 294.50 574.68 294.91 C 577.74 289.84 581.79 285.03 587.91 283.81 C 594.03 276.25 600.58 268.13 608.95 262.89 C 625.91 261.17 637.96 247.20 649.28 235.28 C 661.50 226.04 673.88 219.90 685.60 210.59 C 695.45 206.07 690.64 192.11 701.29 187.39 C 706.74 185.59 707.86 177.73 714.01 178.00 C 717.60 176.72 716.83 171.17 719.77 169.60 C 728.75 169.17 719.13 152.28 731.83 157.35 C 739.53 160.52 734.70 150.04 738.20 147.08 C 742.12 143.41 750.63 148.75 750.90 141.87 C 753.55 131.53 767.85 143.53 771.16 133.28 M 703.87 403.97 C 705.92 412.84 711.91 404.30 703.87 403.97 M 532.16 430.11 C 528.64 432.42 535.52 432.22 532.16 430.11 Z" />


<path fill="#ffffff" opacity="1.00" d=" M 469.35 500.38 C 474.14 498.83 470.47 508.25 467.21 509.07 C 466.21 505.85 465.49 501.92 469.35 500.38 Z" />
</svg>
