<?xml version="1.0" encoding="UTF-8" ?>
<!DOCTYPE svg PUBLIC "-//W3C//DTD SVG 1.1//EN" "http://www.w3.org/Graphics/SVG/1.1/DTD/svg11.dtd">
<svg width="1225pt" height="647pt" viewBox="0 0 1225 647" version="1.1" xmlns="http://www.w3.org/2000/svg">

<path fill="#ffffff" opacity="1.00" d=" M 907.20 284.46 C 908.12 284.54 909.02 284.72 909.93 285.00 C 904.96 296.73 895.36 305.79 889.82 317.10 C 907.57 311.91 914.22 288.84 932.10 284.94 C 926.39 299.32 911.21 308.50 903.98 322.17 C 919.78 315.66 929.99 299.32 946.10 293.91 C 940.84 308.45 923.43 314.74 914.66 326.90 C 926.96 323.59 936.30 312.44 949.11 310.98 C 937.90 323.40 920.84 331.45 905.03 338.07 C 874.15 354.06 838.11 352.39 804.56 348.53 C 776.72 349.79 749.23 348.48 721.52 345.57 C 717.25 346.01 711.56 343.05 708.03 346.25 C 708.60 350.66 710.48 355.13 713.99 358.02 C 721.65 370.66 710.71 386.64 720.36 398.64 C 719.25 409.13 724.83 418.70 724.99 429.12 C 719.69 427.20 712.17 410.95 711.29 422.47 C 697.52 416.30 684.31 405.40 668.30 410.52 C 651.95 412.61 642.76 428.75 627.13 433.13 C 611.78 439.19 595.15 436.98 579.16 439.31 C 560.81 442.65 543.40 433.88 528.38 424.57 C 523.75 421.80 529.43 430.33 524.05 427.95 C 527.41 414.25 504.46 416.82 500.28 405.77 C 486.14 396.32 484.22 420.87 479.58 429.47 C 471.93 442.71 478.49 458.11 474.89 471.76 C 467.48 464.59 471.90 478.57 465.19 478.97 C 459.50 472.29 468.99 464.51 466.99 456.94 C 463.64 456.14 463.72 459.78 462.75 461.96 C 458.57 458.79 448.91 449.43 460.89 449.80 C 469.95 439.44 475.46 425.77 480.74 412.80 C 486.70 413.65 479.81 407.71 483.42 403.60 C 486.21 394.42 480.87 374.15 497.11 379.82 C 502.89 379.64 489.55 372.51 496.98 370.20 C 488.02 369.25 492.17 357.47 484.18 355.74 C 463.66 350.07 443.26 360.27 422.34 359.54 C 418.83 355.17 414.20 358.51 409.08 356.85 C 401.55 350.40 390.99 353.19 381.97 352.03 C 351.25 350.19 321.54 341.05 291.15 336.75 C 272.66 332.63 256.83 321.00 242.94 309.10 C 248.45 307.44 255.06 309.61 260.92 307.34 C 259.35 310.83 261.66 309.99 264.07 308.72 C 259.77 302.77 251.07 301.84 248.08 294.72 C 260.55 298.37 271.90 304.85 284.10 309.13 C 282.53 304.04 280.36 306.48 278.08 300.00 C 279.28 294.94 291.55 303.15 286.33 296.66 C 285.96 294.70 297.13 300.22 290.80 300.95 C 288.04 304.58 300.39 300.01 295.25 303.79 C 304.03 306.84 314.33 315.77 320.44 304.18 C 321.80 310.75 330.02 310.43 333.71 315.28 C 350.22 327.01 368.03 342.43 390.00 338.07 C 404.74 335.96 424.54 341.35 435.36 329.24 C 464.68 330.34 493.53 324.42 522.86 325.79 C 550.52 324.25 576.95 314.57 603.97 308.86 C 628.45 304.54 652.62 310.69 675.00 320.01 C 689.99 329.76 708.84 320.89 725.48 324.44 C 740.51 322.74 759.80 331.01 772.42 319.48 C 781.08 312.50 792.61 312.06 802.94 311.80 C 807.47 309.59 814.77 306.40 817.48 312.57 C 823.12 310.57 827.70 305.91 833.78 305.10 C 838.50 306.77 832.04 315.39 837.63 313.73 C 843.25 307.57 848.41 296.97 857.74 297.10 C 861.81 303.49 852.39 310.03 852.84 317.08 C 866.83 312.53 869.27 291.29 883.09 288.86 C 885.84 297.31 871.52 307.15 873.26 314.77 C 888.62 310.56 892.77 289.89 907.20 284.46 M 712.85 407.02 C 713.85 413.76 719.39 405.75 712.85 407.02 Z" />

<path fill="#ffffff" opacity="1.00" d=" M 522.59 429.51 C 525.64 426.00 528.10 433.86 524.32 432.57 C 521.42 431.61 524.93 434.74 524.96 436.03 C 530.17 450.21 516.87 463.96 505.67 467.40 C 505.71 460.45 491.05 458.81 500.34 454.34 C 505.67 452.06 503.33 458.33 507.91 457.97 C 511.45 457.62 511.30 453.66 512.07 451.02 C 510.15 454.76 502.89 453.04 508.72 450.70 C 515.64 444.87 498.44 448.34 499.02 440.87 C 498.51 433.63 506.27 440.92 510.02 440.75 C 515.82 439.62 518.49 433.26 522.59 429.51 Z" />
<path fill="#ffffff" opacity="1.00" d=" M 458.32 466.38 C 461.57 464.71 460.15 470.46 457.67 470.74 C 454.31 474.58 454.78 466.11 458.32 466.38 Z" />
</svg>
