<?xml version="1.0" encoding="UTF-8" ?>
<!DOCTYPE svg PUBLIC "-//W3C//DTD SVG 1.1//EN" "http://www.w3.org/Graphics/SVG/1.1/DTD/svg11.dtd">
<svg width="1225pt" height="647pt" viewBox="0 0 1225 647" version="1.1" xmlns="http://www.w3.org/2000/svg">

<path fill="#ffffff" opacity="1.00" d=" M 908.33 328.37 C 909.87 327.57 911.16 329.17 912.32 329.97 C 905.95 337.49 897.43 342.73 890.76 349.95 C 906.12 348.84 916.19 334.68 930.48 330.46 C 937.28 326.25 935.46 331.08 933.63 332.65 C 925.75 340.36 915.38 344.88 907.28 352.25 C 903.68 355.35 909.98 353.71 911.73 352.77 C 924.56 348.00 935.75 338.34 949.42 336.47 C 941.65 346.16 925.84 350.38 915.78 359.08 C 927.88 356.89 938.85 348.61 951.24 348.98 C 936.01 359.24 917.25 362.40 900.58 369.53 C 880.39 376.75 858.86 373.55 838.21 377.58 C 802.67 370.37 766.56 375.89 730.96 369.15 C 725.87 369.92 719.70 366.05 715.12 369.06 C 715.64 373.44 719.52 376.02 721.22 379.83 C 726.74 388.56 722.09 399.46 723.04 408.97 C 728.62 422.40 730.66 435.68 731.96 450.32 C 727.80 446.47 724.91 441.14 720.08 438.14 C 718.66 445.88 706.33 436.60 701.68 433.39 C 690.74 424.71 679.13 431.58 667.91 435.87 C 644.34 441.22 623.25 462.93 598.10 456.03 C 574.30 459.32 549.47 454.52 530.76 438.29 C 519.81 428.02 506.36 420.56 495.96 410.09 C 490.58 416.73 490.29 429.64 490.12 438.77 C 496.71 439.59 501.08 444.34 506.13 448.07 C 514.95 447.63 518.98 439.65 524.87 434.63 C 523.47 438.16 520.20 441.46 521.79 445.48 C 511.38 445.78 525.47 451.72 520.10 457.06 C 514.88 463.89 504.92 465.91 498.39 471.48 C 491.73 474.88 497.32 463.12 491.09 464.97 C 483.70 468.44 492.56 481.98 486.43 485.47 C 479.15 479.89 484.73 494.26 477.26 493.89 C 469.85 487.98 481.26 480.51 479.23 473.61 C 474.40 469.27 475.30 486.23 473.45 473.76 C 466.06 471.79 464.13 462.56 473.79 464.64 C 486.06 451.24 482.94 431.31 487.88 414.99 C 489.57 399.65 472.49 405.56 463.97 409.00 C 451.64 410.11 441.02 423.15 428.12 418.27 C 424.42 419.63 420.49 420.74 417.25 417.74 C 395.35 417.61 373.21 415.62 351.31 413.73 C 297.26 398.52 240.05 392.44 187.75 370.97 C 205.53 374.04 222.41 381.64 240.35 383.89 C 226.53 378.13 212.27 373.33 198.64 367.16 C 221.42 371.41 242.50 382.81 265.23 387.87 C 254.29 380.65 241.23 377.15 230.76 369.06 C 251.91 374.03 270.51 389.04 292.78 390.92 C 295.85 388.60 290.86 386.98 289.83 384.86 C 302.41 389.55 317.50 391.70 330.42 387.45 C 366.12 384.30 402.56 377.68 436.78 366.80 C 435.45 359.60 433.48 348.54 442.11 345.10 C 456.03 342.29 470.41 343.45 484.53 342.75 C 490.08 332.54 503.58 338.23 512.85 338.24 C 548.93 341.94 584.04 329.25 619.96 329.09 C 639.29 329.63 657.63 336.07 676.39 339.58 C 692.40 351.40 712.79 342.52 730.99 345.85 C 745.07 343.06 762.03 352.04 773.81 340.83 C 787.15 332.27 799.65 343.50 812.92 337.03 C 816.59 337.05 817.19 343.82 820.96 340.98 C 827.32 336.96 841.40 333.63 835.53 345.54 C 841.17 344.07 852.28 328.82 860.87 335.15 C 859.03 339.93 855.35 343.68 852.92 348.13 C 866.45 347.35 873.12 327.48 887.04 330.10 C 883.39 337.14 875.21 341.33 872.73 348.86 C 886.54 345.94 895.50 333.51 908.33 328.37 M 322.66 397.07 C 329.63 404.61 341.37 404.07 350.70 404.65 C 354.53 406.70 362.65 407.45 361.88 401.39 C 349.23 397.92 335.72 398.23 322.66 397.07 M 489.23 442.07 C 488.16 447.95 486.77 453.83 486.95 459.86 C 493.91 458.80 502.93 460.09 507.17 453.12 C 502.49 450.25 492.78 453.00 494.42 444.50 C 494.04 441.99 491.28 441.58 489.23 442.07 Z" />


<path fill="#ffffff" opacity="1.00" d=" M 471.39 480.42 C 475.12 478.41 471.90 490.94 467.65 487.39 C 465.57 484.53 468.90 481.53 471.39 480.42 Z" />
</svg>
