<?xml version="1.0" encoding="UTF-8" ?>
<!DOCTYPE svg PUBLIC "-//W3C//DTD SVG 1.1//EN" "http://www.w3.org/Graphics/SVG/1.1/DTD/svg11.dtd">
<svg width="1225pt" height="647pt" viewBox="0 0 1225 647" version="1.1" xmlns="http://www.w3.org/2000/svg">

<path fill="#ffffff" opacity="1.00" d=" M 498.30 345.41 C 549.66 359.20 604.09 339.09 654.69 356.40 C 662.33 361.74 671.24 360.50 679.08 364.89 C 689.03 370.57 699.18 360.71 709.38 365.59 C 728.15 363.56 746.99 367.00 765.99 366.16 C 775.66 370.30 779.93 358.59 789.41 359.40 C 798.47 353.60 804.15 365.72 812.45 361.53 C 817.41 358.65 824.89 360.21 825.36 366.68 C 831.34 365.32 837.91 359.86 843.83 363.17 C 846.87 366.30 842.39 370.40 842.90 374.09 C 850.12 368.38 858.42 357.94 868.30 359.68 C 873.83 365.67 858.16 372.44 861.12 378.80 C 875.47 375.48 881.86 357.09 897.15 357.02 C 896.00 366.71 881.24 372.06 880.69 380.32 C 896.84 379.57 907.08 358.51 924.13 359.01 C 918.01 369.08 906.45 375.00 898.74 384.00 C 915.35 382.13 927.47 367.97 943.03 362.99 C 944.73 362.64 946.39 363.06 947.06 364.80 C 936.51 374.39 923.75 380.98 912.76 389.97 C 930.18 388.67 943.62 374.14 961.10 372.94 C 952.51 384.44 936.31 386.57 925.81 395.94 C 936.90 394.78 946.88 388.55 958.05 387.98 C 955.03 395.74 941.86 395.40 934.72 399.78 C 918.49 403.71 902.68 409.25 886.63 413.67 C 848.24 417.09 809.39 408.48 771.13 409.97 C 754.56 404.44 737.12 401.16 719.96 397.98 C 721.32 406.45 730.87 413.30 726.52 423.48 C 723.16 442.17 733.73 460.34 731.99 479.23 C 729.28 473.77 724.78 469.68 720.09 465.92 C 723.92 474.68 714.55 467.12 710.32 466.55 C 703.96 460.91 696.39 456.63 688.24 454.33 C 677.67 457.80 666.17 460.65 654.88 461.86 C 639.68 468.20 624.30 474.58 607.99 477.04 C 594.84 471.82 578.22 476.43 564.11 470.89 C 547.82 467.22 535.10 455.53 522.90 444.78 C 517.85 446.84 521.83 455.34 514.92 453.38 C 517.41 457.49 521.49 463.71 515.62 467.55 C 506.65 471.10 499.86 478.92 490.20 480.43 C 489.27 485.36 491.64 498.21 483.27 492.03 C 485.65 496.93 477.63 507.04 475.60 498.34 C 473.43 492.66 483.55 490.23 481.00 483.19 C 475.62 482.02 464.85 477.80 469.27 472.08 C 482.90 477.21 484.11 459.09 485.45 450.34 C 492.01 435.03 471.26 445.93 464.16 446.31 C 449.34 456.09 431.05 455.56 414.06 455.23 C 394.51 457.01 375.22 451.48 355.99 449.01 C 350.86 447.70 338.84 442.18 348.78 438.60 C 348.12 433.05 332.44 433.38 334.07 427.87 C 327.66 424.52 320.17 424.17 313.63 421.11 C 326.44 420.98 338.54 426.36 351.30 426.90 C 334.20 420.49 315.79 418.48 298.18 413.79 C 302.13 411.00 297.07 411.79 293.83 411.84 C 294.70 409.51 297.43 408.91 299.16 407.36 C 295.29 407.10 295.85 405.92 299.07 405.15 C 313.89 407.03 328.39 411.41 343.27 412.93 C 333.38 408.75 321.88 408.47 312.23 403.74 C 312.74 396.63 338.66 410.99 331.87 400.95 C 348.64 403.97 364.80 400.93 381.02 397.08 C 402.39 394.46 424.07 390.15 443.71 380.75 C 453.19 376.08 464.12 378.79 474.28 377.83 C 470.76 374.94 466.04 374.19 462.14 371.92 C 456.13 368.47 443.90 375.78 442.24 366.53 C 440.41 361.91 443.23 356.35 445.15 352.17 C 461.88 343.39 483.43 357.07 498.30 345.41 M 305.33 410.32 C 304.22 410.73 302.54 410.55 301.98 411.80 C 318.14 414.65 333.94 419.98 350.39 420.81 C 335.64 416.53 320.35 413.08 305.33 410.32 M 348.26 414.10 C 348.44 417.37 351.29 412.56 348.26 414.10 M 336.45 428.15 C 337.39 431.86 340.09 425.94 336.45 428.15 M 507.35 433.30 C 502.49 435.63 497.07 437.60 492.96 440.92 C 487.08 448.46 500.57 450.38 503.36 455.68 C 510.53 455.84 521.36 449.60 520.81 441.33 C 516.49 438.61 512.28 433.90 507.35 433.30 M 367.26 446.10 C 367.44 449.37 370.29 444.56 367.26 446.10 M 491.31 453.53 C 490.57 457.63 487.04 466.00 493.07 466.89 C 496.75 465.98 504.61 466.01 503.95 460.33 C 498.64 460.02 490.89 457.78 491.31 453.53 M 498.26 469.10 C 498.44 472.37 501.29 467.56 498.26 469.10 Z" />
<path fill="#ffffff" opacity="1.00" d=" M 252.24 405.06 C 265.62 406.32 275.88 416.62 288.32 420.91 C 274.24 420.86 262.63 413.06 250.88 406.89 C 251.22 406.44 251.90 405.52 252.24 405.06 Z" />
<path fill="#ffffff" opacity="1.00" d=" M 280.26 408.10 C 283.29 406.56 280.44 411.37 280.26 408.10 Z" />
<path fill="#ffffff" opacity="1.00" d=" M 289.26 409.22 C 294.89 407.16 289.05 414.64 289.26 409.22 Z" />


<path fill="#ffffff" opacity="1.00" d=" M 312.28 425.29 C 319.06 426.92 324.63 430.79 329.66 435.42 C 327.09 435.83 305.39 433.77 312.28 425.29 Z" />





<path fill="#ffffff" opacity="1.00" d=" M 476.42 485.36 C 475.96 486.52 473.01 493.97 469.96 496.38 C 464.56 491.36 473.32 488.50 476.42 485.36 Z" />
</svg>
