<?xml version="1.0" encoding="UTF-8" ?>
<!DOCTYPE svg PUBLIC "-//W3C//DTD SVG 1.1//EN" "http://www.w3.org/Graphics/SVG/1.1/DTD/svg11.dtd">
<svg width="1225pt" height="647pt" viewBox="0 0 1225 647" version="1.1" xmlns="http://www.w3.org/2000/svg">

<path fill="#ffffff" opacity="1.00" d=" M 498.39 353.25 C 516.98 354.94 535.25 362.37 554.38 360.53 C 588.92 361.32 624.30 357.83 657.58 369.44 C 663.11 369.67 666.89 378.62 672.10 374.17 C 683.30 385.12 697.10 372.87 709.69 376.28 C 732.20 375.86 754.20 377.42 776.90 377.84 C 785.34 369.81 800.64 362.70 811.02 370.96 C 816.70 370.36 822.79 364.63 828.28 368.70 C 826.37 385.51 841.57 361.96 849.36 368.65 C 851.55 374.51 844.91 380.00 844.82 386.06 C 854.30 377.07 862.10 362.60 877.10 362.99 C 875.30 373.55 865.55 380.84 862.77 390.97 C 881.00 385.94 886.91 361.61 906.15 359.97 C 900.56 372.57 888.55 381.66 882.76 393.92 C 899.50 389.50 909.53 374.30 924.04 366.11 C 927.15 365.15 931.26 361.66 934.17 364.80 C 923.63 377.36 910.38 387.46 899.90 399.97 C 917.77 396.30 931.40 382.38 947.35 374.36 C 950.38 373.45 955.36 371.09 957.07 374.79 C 943.73 386.79 927.30 395.41 914.78 408.04 C 934.32 405.55 950.56 388.01 970.16 389.00 C 955.60 401.48 936.34 406.94 920.85 418.04 C 936.79 415.87 952.21 405.84 968.25 408.08 C 944.33 421.51 915.87 423.18 890.40 432.36 C 851.22 436.27 812.40 427.03 773.04 427.64 C 755.05 423.22 737.64 416.43 719.21 413.87 C 721.00 425.10 732.44 432.88 727.75 445.69 C 722.11 458.19 734.30 468.24 731.54 480.64 C 733.47 486.71 734.00 493.05 734.55 499.36 C 730.60 495.29 727.20 489.82 722.45 487.14 C 722.47 491.98 716.92 488.85 714.41 488.57 C 704.38 482.33 692.88 470.45 680.64 475.52 C 661.53 472.47 643.99 478.45 626.61 485.54 C 611.92 491.86 598.78 484.56 583.55 485.49 C 558.44 484.92 537.89 469.34 521.65 451.72 C 519.31 455.31 524.68 461.40 518.24 459.23 C 516.42 462.23 523.26 468.53 518.24 473.25 C 510.75 478.89 502.79 484.74 494.04 488.10 C 493.46 485.10 494.22 480.46 489.97 480.12 C 485.34 482.49 490.38 500.56 481.07 494.34 C 481.92 500.40 474.67 508.41 472.34 499.61 C 468.46 495.28 484.69 489.24 475.93 484.96 C 468.07 485.21 468.99 476.91 462.93 475.05 C 442.60 482.22 420.68 485.42 399.18 482.70 C 381.88 478.90 361.90 481.63 348.58 467.50 C 340.96 465.23 332.12 464.26 324.98 460.07 C 321.69 456.06 329.49 460.31 331.32 457.89 C 327.55 455.19 322.07 455.48 318.86 452.14 C 323.20 449.55 328.59 452.48 333.38 452.62 C 326.62 446.38 315.67 448.13 307.59 444.20 C 320.34 443.23 332.60 447.86 345.27 447.82 C 322.59 440.73 298.67 438.87 275.62 433.32 C 282.86 432.86 289.87 435.07 297.10 434.92 C 289.72 427.00 300.79 430.67 305.62 426.39 C 315.96 426.44 325.94 430.14 336.26 430.91 C 330.74 425.71 319.08 428.59 315.73 421.05 C 323.09 420.53 330.33 421.94 337.62 422.49 C 337.52 420.70 334.66 418.03 337.37 417.27 C 348.40 416.54 359.80 421.36 370.25 415.44 C 393.37 411.45 416.95 408.04 438.68 398.70 C 443.66 384.55 464.17 392.12 475.25 389.83 C 471.20 387.16 465.37 386.58 462.91 382.02 C 468.74 372.59 485.60 379.34 492.96 377.06 C 479.91 370.36 461.67 379.40 447.28 373.77 C 444.52 367.84 444.33 357.14 451.39 354.30 C 465.60 352.76 479.60 356.18 493.65 357.63 C 495.13 356.06 496.18 353.92 498.39 353.25 M 327.88 436.99 C 329.11 441.11 336.41 439.44 340.13 440.93 C 338.68 436.61 331.33 438.33 327.88 436.99 M 341.26 440.10 C 341.44 443.37 344.29 438.56 341.26 440.10 M 334.18 451.48 C 334.40 455.85 338.84 450.28 334.18 451.48 M 516.36 454.37 C 512.09 456.12 505.02 457.19 503.96 462.03 C 506.76 466.28 523.38 454.05 516.36 454.37 M 344.18 460.48 C 337.71 462.71 351.65 462.74 352.38 462.85 C 349.71 461.87 347.02 460.80 344.18 460.48 M 489.26 466.09 C 481.78 477.57 502.24 476.25 506.23 468.98 C 501.81 465.37 494.65 466.47 489.26 466.09 M 477.85 469.22 C 474.08 468.71 461.81 472.34 470.79 474.36 C 474.61 477.80 483.81 468.52 477.85 469.22 M 581.26 472.10 C 581.44 475.37 584.29 470.56 581.26 472.10 M 498.45 477.15 C 499.39 480.85 502.09 474.94 498.45 477.15 Z" />

<path fill="#ffffff" opacity="1.00" d=" M 274.00 437.69 C 274.65 443.64 279.46 436.04 282.70 439.22 C 288.03 442.90 292.92 447.10 299.36 448.88 C 290.83 447.76 273.56 449.77 274.00 437.69 Z" />








<path fill="#ffffff" opacity="1.00" d=" M 472.15 488.45 C 475.85 489.39 469.94 492.09 472.15 488.45 Z" />
<path fill="#ffffff" opacity="1.00" d=" M 470.33 491.30 C 473.31 491.79 467.46 502.83 465.71 497.19 C 463.67 493.83 467.57 491.91 470.33 491.30 Z" />
</svg>
