<?xml version="1.0" encoding="UTF-8" ?>
<!DOCTYPE svg PUBLIC "-//W3C//DTD SVG 1.1//EN" "http://www.w3.org/Graphics/SVG/1.1/DTD/svg11.dtd">
<svg width="1225pt" height="647pt" viewBox="0 0 1225 647" version="1.1" xmlns="http://www.w3.org/2000/svg">

<path fill="#ffffff" opacity="1.00" d=" M 499.14 355.39 C 520.06 358.48 540.59 365.68 562.11 363.46 C 592.64 364.52 624.02 361.13 653.49 371.39 C 660.89 368.82 666.76 383.03 672.01 376.96 C 682.05 387.78 696.20 376.53 707.99 379.08 C 731.34 379.44 753.95 379.97 777.59 380.57 C 785.50 372.74 801.56 365.70 810.00 373.99 C 816.29 371.42 829.49 365.74 828.92 377.10 C 833.81 376.83 842.29 366.74 848.90 371.25 C 849.23 377.40 844.94 382.32 843.97 388.20 C 854.35 380.24 860.89 363.82 876.12 364.02 C 874.50 374.62 866.07 382.45 862.07 392.17 C 880.96 388.43 885.80 361.92 905.22 360.01 C 899.24 373.28 887.89 383.46 881.24 396.30 C 902.46 391.53 911.58 364.88 933.27 363.08 C 923.75 377.67 908.79 388.07 898.94 402.19 C 920.81 397.88 933.66 373.20 956.12 371.95 C 943.91 386.81 926.24 396.35 912.96 410.16 C 931.03 406.73 945.42 393.24 962.87 387.86 C 965.00 387.49 970.83 385.10 968.72 388.74 C 953.57 402.25 933.65 408.87 917.80 421.09 C 935.19 417.58 951.12 406.96 969.25 407.10 C 948.53 420.94 923.13 424.33 900.02 432.05 C 881.83 442.34 861.17 432.28 841.95 435.89 C 817.96 431.71 793.09 430.27 769.01 430.00 C 752.45 424.10 735.17 419.70 717.91 416.11 C 718.18 425.87 728.26 432.08 727.99 442.03 C 724.12 464.54 734.58 483.29 735.57 505.37 C 731.52 502.27 724.90 489.80 721.76 495.94 C 712.27 495.76 706.59 486.40 698.05 483.79 C 686.89 474.90 671.64 485.88 659.39 478.51 C 638.74 480.96 618.12 497.13 597.18 489.30 C 567.77 491.50 542.10 475.95 522.11 455.91 C 526.61 462.36 515.60 458.83 519.91 464.15 C 525.14 474.68 512.22 480.68 504.56 484.58 C 501.68 487.22 498.57 490.66 494.23 490.01 C 494.61 487.00 494.34 480.48 489.83 482.66 C 482.45 481.72 489.34 500.01 480.45 494.58 C 478.90 495.42 476.34 507.65 472.84 502.15 C 471.76 495.89 463.22 501.32 464.19 494.28 C 468.06 489.53 471.33 491.08 468.90 496.99 C 473.39 494.90 477.42 491.59 477.03 486.14 C 471.90 487.30 470.09 480.72 464.21 480.59 C 431.61 495.90 394.08 493.80 359.31 487.77 C 363.70 477.42 348.62 482.94 345.24 477.96 C 346.06 473.76 338.42 476.05 342.61 472.40 C 326.00 466.38 307.27 464.83 290.71 458.04 C 304.95 459.93 318.73 465.17 333.22 465.96 C 314.78 458.48 294.47 455.89 275.62 449.16 C 297.03 451.74 317.70 458.74 339.25 460.85 C 314.26 450.83 285.48 450.35 260.63 439.19 C 291.57 444.51 322.03 453.45 353.37 456.86 C 328.47 448.62 301.10 445.30 275.67 437.35 C 271.09 436.03 277.92 433.85 279.61 435.45 C 302.31 438.47 324.37 445.30 347.09 448.13 C 331.01 441.88 310.18 441.10 295.12 432.98 C 305.79 428.25 321.06 437.29 333.28 435.94 C 327.87 431.85 317.71 433.55 314.83 427.01 C 321.91 426.08 328.77 428.30 335.73 428.69 C 337.08 418.32 353.30 426.98 362.07 424.15 C 387.32 415.60 415.41 414.35 439.53 401.77 C 442.86 386.88 467.49 394.98 475.62 393.36 C 471.93 389.89 461.52 389.91 463.17 383.29 C 472.45 378.55 483.19 380.76 493.05 381.99 C 489.16 373.17 474.87 378.25 466.98 377.05 C 459.68 377.38 446.95 380.77 445.85 370.22 C 446.94 364.08 447.75 353.86 457.02 355.98 C 470.86 352.21 487.75 366.06 499.14 355.39 M 354.26 457.10 C 354.44 460.37 357.29 455.56 354.26 457.10 M 498.46 469.51 C 494.78 471.14 485.99 469.99 487.00 475.94 C 491.50 482.54 517.09 468.31 498.46 469.51 M 580.36 474.25 C 579.27 480.30 586.39 472.78 580.36 474.25 M 500.32 478.30 C 493.22 482.24 509.23 478.24 500.32 478.30 Z" />
<path fill="#ffffff" opacity="1.00" d=" M 288.26 457.10 C 291.29 455.56 288.44 460.37 288.26 457.10 Z" />


<path fill="#ffffff" opacity="1.00" d=" M 328.51 472.31 C 334.99 469.76 333.10 475.58 328.51 472.31 Z" />


<path fill="#ffffff" opacity="1.00" d=" M 470.18 488.18 C 474.20 487.16 469.16 492.20 470.18 488.18 Z" />
</svg>
