<?xml version="1.0" encoding="UTF-8" ?>
<!DOCTYPE svg PUBLIC "-//W3C//DTD SVG 1.1//EN" "http://www.w3.org/Graphics/SVG/1.1/DTD/svg11.dtd">
<svg width="1225pt" height="647pt" viewBox="0 0 1225 647" version="1.1" xmlns="http://www.w3.org/2000/svg">

<path fill="#ffffff" opacity="1.00" d=" M 452.35 358.18 C 469.23 354.99 487.56 366.33 502.02 357.97 C 553.51 373.46 608.60 357.90 659.83 375.20 C 664.41 376.63 668.08 385.18 672.01 379.20 C 681.95 389.97 697.67 377.44 709.66 382.35 C 731.50 381.77 753.63 383.70 775.61 384.58 C 783.17 377.27 799.67 368.39 807.83 377.53 C 814.13 375.60 827.86 367.41 827.38 380.00 C 833.34 377.12 838.97 372.57 845.81 372.01 C 849.61 377.88 842.58 383.78 842.83 390.06 C 852.38 381.61 858.50 366.36 873.07 365.93 C 872.52 376.07 864.53 383.66 860.72 392.68 C 858.47 396.44 866.56 391.67 866.98 390.99 C 880.75 383.73 885.80 360.55 902.89 361.02 C 895.88 372.20 888.22 382.95 881.06 394.01 C 879.96 395.38 879.93 396.08 880.96 396.08 C 901.33 392.24 908.70 362.61 929.99 363.12 C 919.54 376.62 907.59 388.89 896.95 402.16 C 918.83 398.28 930.15 372.52 952.29 370.08 C 941.31 385.74 923.70 395.40 911.87 410.11 C 929.88 406.48 943.26 391.25 960.46 385.46 C 967.75 381.54 964.84 385.75 963.56 387.65 C 948.95 401.28 930.76 410.16 914.83 422.02 C 931.65 418.04 946.67 407.11 964.13 405.96 C 952.67 416.83 934.82 420.98 919.95 426.88 C 903.15 428.58 889.76 441.91 871.98 438.01 C 844.55 436.86 817.56 433.18 790.14 431.83 C 780.91 427.84 771.31 434.99 762.77 428.36 C 746.42 424.61 730.48 418.74 713.72 417.04 C 719.31 423.46 720.33 432.53 726.06 438.96 C 731.01 452.80 722.71 468.95 732.33 481.68 C 731.88 491.38 736.05 500.46 736.00 510.17 C 731.62 507.50 723.88 493.74 722.87 501.03 C 710.58 498.36 701.59 488.43 689.55 484.45 C 679.83 485.96 665.95 488.58 657.88 480.44 C 641.80 485.05 626.47 491.94 609.92 494.87 C 589.90 489.88 566.41 492.30 548.16 479.89 C 540.02 472.15 529.76 466.89 522.82 457.89 C 526.25 464.22 513.43 461.54 520.74 465.67 C 524.72 479.89 507.29 483.85 499.32 491.34 C 490.46 497.55 499.20 481.71 490.54 484.35 C 480.96 481.32 486.46 494.01 481.04 495.02 C 475.59 489.05 475.29 511.19 470.44 500.45 C 465.26 497.22 457.64 493.57 468.16 489.19 C 478.23 481.51 460.99 498.20 470.39 494.39 C 479.81 491.64 471.29 477.71 465.21 484.23 C 432.02 504.02 391.06 502.11 354.19 495.69 C 355.95 485.54 338.21 484.49 329.58 480.34 C 332.28 480.19 337.67 479.90 340.36 479.76 C 329.31 474.83 316.54 475.05 305.77 469.16 C 313.01 469.32 320.05 471.18 327.24 471.83 C 314.78 466.40 301.00 464.71 288.63 459.11 C 307.44 460.06 325.51 467.01 344.26 468.95 C 316.67 458.60 285.97 456.72 258.62 445.17 C 289.11 450.43 319.25 459.53 350.24 462.91 C 328.77 454.80 304.46 453.03 282.34 445.64 C 280.19 444.48 270.88 443.37 276.24 441.30 C 299.35 444.34 321.87 451.26 345.02 454.14 C 329.57 448.44 310.54 447.39 294.93 439.87 C 304.86 435.46 317.96 442.86 329.27 441.90 C 324.72 439.34 319.49 438.36 314.92 435.89 C 318.90 430.74 328.01 436.19 333.63 434.72 C 341.93 424.34 358.07 435.26 368.05 427.10 C 391.82 420.82 416.19 415.93 438.96 405.89 C 439.95 390.36 463.88 395.36 475.42 396.59 C 471.68 392.58 464.22 392.84 462.05 387.17 C 470.67 379.07 483.13 385.22 493.25 383.90 C 481.29 372.70 463.54 383.31 449.34 378.82 C 444.19 372.63 447.69 363.43 452.35 358.18 M 500.54 471.61 C 494.99 475.38 484.74 474.56 484.19 482.91 C 489.07 487.30 488.72 476.88 494.00 478.08 C 499.39 480.66 514.45 468.81 500.54 471.61 M 329.26 472.10 C 329.44 475.37 332.29 470.56 329.26 472.10 M 581.24 476.27 C 577.47 482.14 587.74 477.64 581.24 476.27 M 500.31 480.29 C 493.18 484.85 510.91 479.14 500.31 480.29 M 719.37 492.14 C 718.71 496.13 723.34 491.33 719.37 492.14 Z" />
<path fill="#ffffff" opacity="1.00" d=" M 254.14 443.37 C 258.13 442.71 253.33 447.34 254.14 443.37 Z" />





</svg>
