<?xml version="1.0" encoding="UTF-8" ?>
<!DOCTYPE svg PUBLIC "-//W3C//DTD SVG 1.1//EN" "http://www.w3.org/Graphics/SVG/1.1/DTD/svg11.dtd">
<svg width="1225pt" height="647pt" viewBox="0 0 1225 647" version="1.1" xmlns="http://www.w3.org/2000/svg">

<path fill="#ffffff" opacity="1.00" d=" M 498.37 361.23 C 517.92 362.93 536.73 372.20 556.88 369.47 C 591.95 370.52 628.71 366.93 661.78 380.20 C 664.98 381.98 669.98 389.65 669.27 381.95 C 679.90 390.50 695.51 383.75 708.13 387.70 C 723.86 387.60 739.53 390.35 755.00 392.56 C 770.25 398.84 780.91 381.39 796.01 383.92 C 802.61 392.30 816.93 375.69 819.36 388.68 C 825.09 386.64 830.31 382.36 836.75 383.09 C 839.78 386.69 835.78 391.98 835.05 396.12 C 843.42 389.09 849.72 376.75 862.01 376.94 C 862.93 385.24 853.64 391.73 852.70 398.37 C 868.20 397.37 871.97 370.77 888.35 371.61 C 886.06 381.08 876.03 390.14 871.40 399.35 C 869.63 402.72 874.89 400.14 876.36 399.39 C 891.47 393.00 897.86 372.01 915.17 371.01 C 907.61 383.71 895.66 393.49 887.92 406.14 C 907.21 401.13 916.94 377.88 937.06 375.97 C 927.43 389.53 912.14 398.86 902.89 412.10 C 920.13 407.52 932.24 390.32 950.15 387.95 C 938.85 402.62 920.83 409.50 907.84 422.08 C 922.54 417.35 935.76 407.54 951.35 406.08 C 942.36 414.67 929.68 419.45 918.20 424.26 C 897.96 429.71 878.12 442.62 856.42 434.53 C 827.48 438.91 800.45 422.70 770.98 426.72 C 748.15 422.20 725.45 414.28 701.87 415.05 C 705.91 419.71 710.21 424.29 715.49 427.58 C 719.25 440.25 732.25 449.67 727.63 464.48 C 721.08 476.27 736.52 485.03 732.18 495.85 C 734.63 502.84 738.06 509.72 736.67 517.37 C 731.86 513.61 720.10 494.57 724.10 509.83 C 709.57 505.50 697.56 489.52 681.35 493.58 C 672.91 492.94 662.74 494.44 657.26 486.74 C 648.62 482.48 640.06 491.35 631.43 492.48 C 611.95 502.11 590.53 494.81 570.09 492.75 C 552.07 490.49 539.93 477.09 526.55 466.43 C 524.14 461.35 513.71 464.27 521.17 466.99 C 524.94 475.84 516.48 483.26 509.60 487.46 C 503.78 487.85 501.57 497.01 495.75 495.29 C 496.14 489.55 493.06 484.01 486.01 488.05 C 490.20 478.91 501.67 482.99 507.15 475.09 C 499.18 471.32 491.09 475.82 483.67 478.71 C 476.49 480.30 483.77 495.02 474.09 492.52 C 472.19 495.41 472.80 500.55 468.02 500.85 C 464.15 496.25 456.41 490.54 450.10 496.10 C 414.46 512.73 373.97 520.67 334.41 518.89 C 335.58 511.68 324.35 517.37 320.69 514.30 C 326.02 514.06 331.37 513.24 336.39 511.39 C 322.72 509.62 308.86 509.78 295.24 507.87 C 299.79 503.83 311.54 509.06 317.35 504.32 C 304.46 502.90 291.62 501.16 278.72 499.90 C 277.54 495.54 299.87 501.57 295.70 495.29 C 285.07 493.22 274.00 493.68 263.61 490.25 C 273.21 488.46 283.96 492.37 293.11 488.90 C 278.44 483.49 258.65 484.88 244.02 480.91 C 263.41 478.61 286.85 483.52 307.85 481.97 C 295.52 477.81 277.66 479.74 264.36 474.72 C 267.81 469.97 287.19 478.89 284.40 467.20 C 294.95 464.21 310.44 465.10 315.16 454.21 C 321.44 451.35 331.92 455.33 334.34 446.20 C 344.97 442.77 357.96 445.33 366.69 436.67 C 391.24 428.74 417.35 419.42 439.67 407.98 C 434.76 400.81 445.97 399.73 451.20 398.63 C 458.58 398.31 465.92 399.06 473.26 399.77 C 469.99 396.51 455.83 393.85 463.65 388.61 C 472.74 385.11 482.79 387.80 492.24 387.92 C 480.47 376.23 462.57 386.59 448.66 382.33 C 445.05 373.61 448.48 356.65 462.00 361.96 C 474.06 359.65 488.66 371.12 498.37 361.23 M 519.17 459.30 C 515.87 461.27 498.68 466.12 507.03 469.97 C 511.22 468.07 519.20 461.28 519.17 459.30 M 582.25 480.24 C 576.56 481.97 585.83 484.39 582.25 480.24 M 502.32 482.33 C 491.19 485.63 509.28 485.65 502.32 482.33 M 468.28 486.31 C 465.92 488.09 464.23 490.52 462.92 493.15 C 466.76 493.75 472.61 486.29 468.28 486.31 M 721.10 500.26 C 719.56 503.29 724.37 500.44 721.10 500.26 Z" />





</svg>
