<?xml version="1.0" encoding="UTF-8" ?>
<!DOCTYPE svg PUBLIC "-//W3C//DTD SVG 1.1//EN" "http://www.w3.org/Graphics/SVG/1.1/DTD/svg11.dtd">
<svg width="1225pt" height="647pt" viewBox="0 0 1225 647" version="1.1" xmlns="http://www.w3.org/2000/svg">

<path fill="#ffffff" opacity="1.00" d=" M 452.32 365.16 C 465.89 363.82 479.10 367.98 492.56 368.72 C 496.73 361.29 507.18 365.91 513.66 367.37 C 541.19 377.37 570.53 370.19 598.98 372.93 C 618.75 371.03 638.30 376.18 657.01 380.97 C 665.14 383.85 673.63 377.16 682.02 378.09 C 705.95 377.17 729.90 381.81 753.68 378.56 C 760.73 380.18 768.46 380.81 774.13 385.82 C 776.52 390.81 783.20 384.04 784.26 389.68 C 785.48 396.58 793.16 398.05 797.76 402.20 C 807.81 416.56 827.11 423.03 844.13 420.03 C 843.67 423.20 839.79 423.98 837.76 426.02 C 846.03 426.53 853.51 421.83 861.77 422.06 C 864.75 426.11 854.40 426.87 851.67 429.92 C 860.73 430.34 869.25 425.99 878.39 427.10 C 874.08 431.06 867.73 431.34 862.61 433.84 C 869.14 434.99 879.12 431.80 883.97 433.92 C 873.79 439.63 859.62 436.41 847.89 434.97 C 853.06 443.08 835.70 434.71 833.60 432.48 C 805.35 427.08 779.38 409.65 749.51 412.45 C 728.12 415.63 710.21 396.87 689.01 402.14 C 693.40 413.51 705.70 421.94 714.92 430.09 C 718.33 441.57 729.86 449.66 727.67 462.88 C 725.61 480.22 734.13 495.60 737.55 512.41 C 741.06 527.75 729.25 507.29 725.59 506.47 C 722.61 515.02 712.21 504.47 707.72 502.28 C 693.56 491.88 677.67 497.72 661.78 494.19 C 654.32 481.19 640.93 492.10 631.00 494.98 C 622.39 496.84 612.91 503.45 604.26 498.81 C 582.68 498.67 557.55 497.75 540.93 482.14 C 533.23 478.48 527.47 472.19 520.56 467.44 C 514.75 470.25 525.19 476.18 520.65 481.66 C 512.20 487.65 504.89 497.48 494.25 499.20 C 497.94 493.46 491.85 488.24 485.93 492.04 C 490.19 484.32 498.38 485.64 505.21 481.23 C 510.54 475.38 497.34 478.17 494.59 476.58 C 494.66 472.00 492.20 469.17 487.97 468.55 C 491.90 464.06 497.74 469.39 501.83 471.20 C 509.01 477.18 526.91 462.65 511.29 458.73 C 505.54 455.29 503.25 447.89 497.18 445.11 C 492.10 452.32 484.14 457.15 480.05 465.06 C 474.38 472.44 477.68 483.22 472.58 490.47 C 465.40 489.08 468.70 498.75 462.86 499.59 C 460.57 495.35 454.34 496.40 451.67 492.15 C 442.19 501.31 433.50 510.14 421.75 515.87 C 402.22 528.98 383.51 543.33 363.13 555.16 C 346.87 567.64 326.59 571.76 308.42 580.48 C 298.79 585.06 287.42 584.89 279.04 592.01 C 275.44 592.69 266.85 597.02 267.69 590.09 C 261.33 590.23 256.38 595.32 249.81 594.00 C 252.49 586.74 264.91 588.14 266.07 580.99 C 261.10 581.95 253.40 586.98 249.99 584.03 C 254.75 575.94 268.08 575.39 275.67 569.58 C 276.44 567.51 276.45 565.59 273.75 566.55 C 278.99 558.09 290.06 555.21 296.56 548.80 C 296.88 542.70 304.79 540.83 308.03 536.22 C 307.70 531.41 318.60 530.36 321.05 524.04 C 324.76 515.11 335.50 512.33 340.21 504.15 C 343.57 496.98 355.64 495.45 352.56 485.45 C 345.84 477.58 362.28 477.22 365.43 472.30 C 363.96 465.16 376.06 463.50 378.57 461.14 C 364.92 457.52 384.79 452.04 389.02 448.49 C 378.12 443.41 400.22 439.57 402.48 436.33 C 395.29 430.19 412.65 428.36 415.34 425.27 C 410.22 415.94 433.98 419.76 427.08 410.25 C 439.72 403.45 454.21 402.10 468.25 400.73 C 465.70 397.55 458.17 398.71 458.20 394.25 C 467.16 386.67 480.70 391.44 491.34 389.83 C 479.07 381.19 463.88 387.72 450.23 385.84 C 445.49 380.12 447.43 370.23 452.32 365.16 M 460.25 480.18 C 457.12 482.55 453.54 492.52 459.96 487.27 C 460.18 495.54 466.38 478.67 460.25 480.18 M 501.32 486.32 C 493.50 490.86 509.49 487.88 501.32 486.32 M 720.22 500.49 C 719.93 505.54 725.35 500.62 720.22 500.49 Z" />



</svg>
