<?xml version="1.0" encoding="UTF-8" ?>
<!DOCTYPE svg PUBLIC "-//W3C//DTD SVG 1.1//EN" "http://www.w3.org/Graphics/SVG/1.1/DTD/svg11.dtd">
<svg width="1225pt" height="647pt" viewBox="0 0 1225 647" version="1.1" xmlns="http://www.w3.org/2000/svg">

<path fill="#ffffff" opacity="1.00" d=" M 870.00 239.27 C 876.76 237.85 867.55 243.86 865.92 246.18 C 870.12 245.38 873.73 242.61 878.22 242.97 C 868.36 250.71 857.50 257.07 846.90 263.69 C 848.52 268.01 838.94 271.32 834.39 273.43 C 827.23 276.05 818.70 277.00 812.53 281.43 C 811.89 291.75 800.48 289.27 794.08 293.06 C 778.40 298.92 758.11 299.91 748.07 315.07 C 734.82 322.18 725.82 334.99 712.96 342.93 C 694.80 355.09 685.49 375.20 673.82 392.89 C 671.75 395.52 669.18 400.58 673.03 402.94 C 682.40 407.00 689.02 415.14 697.57 420.48 C 705.26 422.50 707.94 429.48 710.87 436.16 C 720.81 443.16 719.14 456.37 719.88 467.05 C 724.31 481.75 730.76 495.43 732.94 511.15 C 724.85 505.90 718.79 497.68 711.88 490.90 C 713.85 495.82 719.12 499.26 719.11 505.00 C 706.81 502.00 695.41 495.05 683.33 492.33 C 676.45 498.60 666.54 493.78 658.37 496.51 C 651.54 487.92 641.66 495.95 633.77 498.77 C 621.21 503.96 607.41 511.25 594.15 506.27 C 565.55 510.50 537.02 500.08 515.19 481.87 C 510.51 476.95 507.04 480.18 505.54 485.50 C 496.71 487.96 489.75 497.50 480.72 497.52 C 482.04 491.38 477.51 490.00 472.07 490.98 C 476.72 481.99 488.90 487.83 494.05 479.23 C 489.12 476.29 480.08 478.80 480.39 470.51 C 479.46 468.43 474.37 467.45 477.21 465.04 C 485.43 464.34 489.89 477.32 497.93 472.77 C 496.78 461.05 483.39 459.97 474.48 463.38 C 468.70 466.09 473.04 471.28 468.62 474.64 C 461.34 477.40 461.80 491.88 451.46 494.57 C 447.59 501.25 435.21 501.83 434.25 493.06 C 443.29 493.65 453.89 483.21 440.76 481.15 C 440.86 477.30 432.27 467.21 440.39 470.64 C 445.31 472.06 446.45 480.93 452.47 478.61 C 466.39 473.66 478.09 459.69 481.00 444.96 C 481.05 438.73 490.43 440.79 491.62 440.35 C 483.38 433.84 496.48 441.22 498.84 435.51 C 489.37 428.36 488.01 415.27 481.23 405.72 C 478.46 403.43 480.12 399.75 480.64 396.78 C 463.85 397.04 447.05 399.84 430.30 398.66 C 426.45 398.38 429.99 394.28 430.22 392.10 C 436.11 381.24 449.67 385.54 457.25 377.89 C 439.57 366.11 420.10 356.79 400.02 349.97 C 382.55 341.29 362.64 342.56 344.36 336.58 C 330.98 331.96 317.84 327.20 304.32 323.67 C 301.13 322.50 285.75 323.18 294.19 318.11 C 283.28 317.58 272.32 316.93 261.62 314.60 C 273.39 310.89 286.53 313.82 298.39 310.34 C 271.36 305.35 243.27 314.20 216.61 307.31 C 234.24 305.29 252.11 305.35 269.85 304.99 C 250.66 299.81 223.53 307.19 203.26 299.75 C 210.08 297.92 222.88 299.74 232.29 298.83 C 222.71 295.11 211.66 297.88 201.86 294.73 C 204.12 292.19 208.12 293.81 211.01 292.96 C 209.86 291.90 206.76 290.59 209.27 289.16 C 220.96 288.99 232.63 290.34 244.30 289.85 C 241.50 288.29 229.12 286.66 240.95 287.13 C 274.66 290.49 308.33 294.37 342.04 297.78 C 366.38 296.21 391.27 297.60 414.84 304.21 C 447.11 309.36 480.47 306.19 511.93 314.99 C 518.11 314.96 516.59 323.12 521.43 324.47 C 534.17 324.09 532.75 339.43 543.32 343.61 C 552.48 346.27 555.66 356.03 561.18 362.79 C 565.63 363.96 569.74 365.77 573.06 369.07 C 580.86 358.44 594.05 357.89 605.51 354.56 C 609.76 339.72 628.38 344.19 636.04 333.03 C 642.71 327.46 652.51 328.81 659.08 323.10 C 666.20 316.67 676.24 316.43 684.94 313.84 C 697.21 304.91 713.23 307.97 726.00 300.07 C 736.55 300.95 742.44 290.41 753.00 291.60 C 787.92 273.33 823.88 254.44 860.82 239.84 C 857.90 248.03 866.47 240.16 870.00 239.27 M 476.54 382.22 C 478.53 385.88 480.99 379.71 476.54 382.22 M 720.31 490.31 C 719.51 496.29 726.29 489.51 720.31 490.31 Z" />
<path fill="#ffffff" opacity="1.00" d=" M 228.51 286.31 C 234.99 283.76 233.09 289.59 228.51 286.31 Z" />
<path fill="#ffffff" opacity="1.00" d=" M 203.54 289.22 C 207.99 286.72 205.53 292.88 203.54 289.22 Z" />


</svg>
