<?xml version="1.0" encoding="UTF-8" ?>
<!DOCTYPE svg PUBLIC "-//W3C//DTD SVG 1.1//EN" "http://www.w3.org/Graphics/SVG/1.1/DTD/svg11.dtd">
<svg width="1225pt" height="647pt" viewBox="0 0 1225 647" version="1.1" xmlns="http://www.w3.org/2000/svg">

<path fill="#ffffff" opacity="1.00" d=" M 863.54 275.51 C 870.09 276.38 877.62 278.62 884.58 275.89 C 883.86 281.43 893.26 272.45 896.14 274.97 C 895.13 278.52 891.79 281.13 891.82 284.99 C 897.09 282.94 902.00 277.81 908.07 280.17 C 898.83 294.60 882.86 303.88 869.92 314.92 C 858.71 324.44 841.11 319.18 830.79 329.85 C 816.59 336.26 800.16 334.17 785.56 339.68 C 772.08 339.09 763.90 350.97 751.12 352.14 C 735.03 362.25 716.00 366.48 700.28 377.27 C 691.47 383.71 683.67 391.50 674.93 397.93 C 671.96 401.33 678.95 402.30 680.16 404.85 C 688.73 415.18 704.73 417.51 707.77 432.26 C 718.40 439.63 716.60 454.64 716.07 465.89 C 725.03 478.21 725.16 492.88 730.15 507.07 C 724.20 504.24 721.30 497.31 714.93 494.93 C 718.79 505.08 704.70 496.84 700.08 494.88 C 694.39 490.98 686.79 492.06 680.73 488.53 C 671.43 493.60 657.15 495.08 647.89 488.01 C 631.96 492.74 617.35 502.21 600.79 505.48 C 584.34 500.76 566.16 505.71 549.86 499.28 C 531.01 494.96 517.77 479.72 501.90 470.04 C 495.71 477.74 484.54 481.12 476.09 487.08 C 468.85 490.25 474.99 479.00 466.07 479.93 C 467.33 469.21 481.24 478.75 484.95 469.99 C 483.32 464.98 473.17 469.25 472.64 463.18 C 471.30 452.50 475.81 442.74 479.72 432.73 C 483.20 427.35 492.66 434.50 494.87 431.10 C 487.09 424.70 485.80 414.08 479.74 406.33 C 474.51 405.83 466.81 403.44 475.83 401.75 C 469.03 399.01 481.15 397.98 474.40 396.53 C 454.61 397.09 434.62 405.39 414.95 402.88 C 418.43 397.22 422.52 393.45 428.25 390.05 C 379.73 381.05 330.16 379.23 282.05 367.84 C 272.63 362.49 259.03 365.63 252.20 355.86 C 244.20 354.56 235.53 353.57 227.95 350.06 C 223.87 346.13 231.25 349.14 229.79 346.20 C 214.81 342.43 197.41 343.88 183.68 336.10 C 193.14 335.54 202.55 336.82 211.99 337.10 C 201.44 332.76 185.84 332.73 175.99 325.99 C 182.66 324.17 193.96 327.67 202.39 326.80 C 195.45 322.55 184.28 322.39 179.26 317.31 C 191.70 314.69 206.10 321.40 219.24 321.96 C 217.63 319.42 206.87 318.44 212.27 316.36 C 255.97 323.46 298.68 337.20 342.62 342.48 C 360.11 347.28 378.95 342.00 395.99 348.96 C 417.54 350.48 439.37 351.65 460.85 353.29 C 470.26 359.33 482.99 349.86 492.87 358.11 C 497.32 363.20 504.67 357.94 509.13 361.86 C 512.95 368.42 521.23 364.38 526.13 368.92 C 533.86 364.36 540.22 373.01 545.33 377.73 C 561.19 380.24 576.60 374.25 591.17 368.36 C 602.24 363.14 615.10 361.50 624.04 353.02 C 630.98 349.12 640.00 351.38 645.71 344.76 C 681.56 330.69 719.99 328.17 758.01 323.03 C 769.96 313.91 783.84 307.50 798.22 304.14 C 802.37 301.48 807.04 296.02 812.18 299.81 C 817.76 297.85 820.45 287.84 827.77 288.01 C 828.41 291.34 828.63 294.73 829.19 298.07 C 836.56 293.51 838.75 283.55 846.05 278.93 C 851.21 278.85 848.34 289.37 853.26 286.29 C 857.52 283.61 859.71 278.72 863.54 275.51 M 478.28 453.52 C 470.53 456.78 483.44 464.39 488.25 463.60 C 496.95 459.74 484.47 450.20 478.28 453.52 M 715.91 484.98 C 716.17 488.37 719.92 489.89 722.05 492.08 C 720.59 489.28 720.27 483.70 715.91 484.98 M 711.49 490.21 C 711.63 495.35 716.54 489.94 711.49 490.21 Z" />

<path fill="#ffffff" opacity="1.00" d=" M 468.20 456.17 C 471.79 455.73 471.31 462.54 467.04 460.62 C 467.35 464.22 467.54 469.75 462.15 470.20 C 458.95 476.86 457.11 488.66 447.85 491.03 C 443.23 497.55 432.28 499.71 430.00 490.07 C 432.20 486.12 440.34 489.56 442.51 484.45 C 447.33 479.10 432.51 480.05 435.63 473.85 C 437.03 470.82 430.41 468.16 433.17 466.25 C 438.48 467.40 442.18 471.68 445.29 475.84 C 456.62 475.94 462.21 463.95 468.20 456.17 Z" />


</svg>
