<?xml version="1.0" encoding="UTF-8" ?>
<!DOCTYPE svg PUBLIC "-//W3C//DTD SVG 1.1//EN" "http://www.w3.org/Graphics/SVG/1.1/DTD/svg11.dtd">
<svg width="1225pt" height="647pt" viewBox="0 0 1225 647" version="1.1" xmlns="http://www.w3.org/2000/svg">

<path fill="#ffffff" opacity="1.00" d=" M 899.29 289.28 C 900.31 289.28 903.74 287.93 902.97 289.97 C 897.64 305.73 884.54 318.24 879.93 334.12 C 897.19 326.84 906.97 308.69 921.14 297.11 C 923.74 295.34 927.69 291.99 930.82 294.04 C 921.79 310.95 904.69 322.81 896.79 339.97 C 916.59 332.49 929.24 310.74 950.11 307.00 C 936.39 323.22 918.65 335.25 902.81 349.09 C 920.72 344.75 935.60 327.96 954.12 327.07 C 933.63 344.62 906.85 352.05 883.23 364.31 C 846.45 375.11 807.86 375.28 769.98 379.97 C 741.95 387.68 710.35 380.52 682.98 393.29 C 685.80 396.72 689.13 400.15 693.71 400.89 C 702.61 404.00 701.21 414.98 707.52 420.44 C 714.70 429.18 711.06 441.02 711.74 451.30 C 718.42 461.12 717.44 472.97 722.04 483.78 C 718.63 486.71 712.15 482.65 709.35 479.20 C 706.84 489.91 695.09 478.57 689.10 475.95 C 682.81 476.74 675.82 469.20 670.47 474.47 C 657.84 478.11 643.28 470.27 631.89 478.87 C 619.69 484.30 607.47 490.66 593.94 491.97 C 583.67 485.99 566.37 492.48 553.35 487.62 C 531.70 482.83 514.77 467.50 499.99 451.96 C 490.22 453.34 496.07 463.40 490.90 468.88 C 482.83 473.62 475.63 481.12 466.27 483.05 C 467.38 478.26 464.95 472.29 459.14 475.02 C 460.48 464.94 475.37 472.04 478.14 463.12 C 474.87 461.38 470.95 461.55 467.46 460.63 C 466.59 457.88 466.78 453.37 462.96 453.04 C 453.08 457.40 457.93 475.18 445.45 476.63 C 442.33 477.50 434.37 488.60 432.49 481.21 C 429.84 475.71 429.42 483.96 427.78 479.15 C 423.71 470.46 443.36 476.57 440.31 466.75 C 431.66 465.65 433.07 459.04 429.90 452.94 C 438.27 451.68 440.59 466.72 449.24 460.21 C 462.12 446.46 473.83 430.07 477.37 411.31 C 479.42 407.26 485.64 409.68 488.01 406.28 C 465.90 391.75 436.73 401.42 411.52 399.67 C 368.53 398.43 325.91 389.98 284.95 377.14 C 262.63 370.88 243.71 358.07 223.79 346.96 C 238.85 349.49 252.19 358.83 267.25 360.94 C 242.51 346.43 214.57 336.98 190.78 320.94 C 216.29 329.28 239.61 344.56 265.36 352.80 C 241.77 335.14 212.97 322.55 190.87 302.90 C 222.10 316.43 249.80 340.28 282.11 352.15 C 262.49 335.70 240.26 322.21 222.42 303.58 C 221.06 300.16 210.93 296.56 216.15 294.46 C 244.31 315.32 272.19 340.39 305.14 354.06 C 285.42 337.77 264.55 322.26 250.77 300.23 C 248.28 298.12 246.59 293.40 251.18 295.92 C 272.21 317.95 294.43 340.55 322.02 354.13 C 313.63 340.51 299.24 330.67 294.06 314.76 C 301.94 316.50 304.36 326.02 310.18 330.79 C 324.01 349.04 344.15 360.84 364.47 370.40 C 385.22 372.18 409.85 386.60 427.90 370.91 C 454.86 363.28 483.38 364.06 511.06 363.81 C 535.81 371.17 560.50 361.46 585.49 363.59 C 602.86 358.42 620.40 366.74 637.59 363.60 C 670.04 347.03 706.95 342.45 742.86 338.23 C 754.95 341.14 764.30 317.11 775.61 328.48 C 781.42 327.81 786.62 318.56 793.71 319.18 C 797.08 321.59 795.54 326.64 797.14 330.13 C 801.18 324.11 808.57 312.18 816.81 315.16 C 820.79 321.30 814.12 328.50 817.15 335.07 C 825.97 324.89 826.93 303.81 843.02 301.94 C 843.60 313.70 837.33 324.49 836.92 336.13 C 847.42 326.18 854.68 313.84 860.89 300.89 C 863.40 297.11 867.32 290.67 872.40 291.67 C 871.53 305.97 859.30 319.45 859.05 334.05 C 876.44 322.69 883.42 301.72 899.29 289.28 M 477.54 432.48 C 475.78 435.84 466.73 435.90 469.30 440.40 C 470.02 443.84 462.84 441.37 466.32 445.44 C 463.38 452.73 475.36 453.37 479.08 457.98 C 484.66 456.13 489.54 452.17 494.90 449.63 C 489.22 444.38 487.65 429.26 477.54 432.48 M 709.88 468.99 C 711.39 474.44 716.00 478.50 719.07 483.15 C 717.23 478.15 716.10 469.11 709.88 468.99 M 471.33 471.33 C 471.93 476.69 477.62 468.40 471.33 471.33 M 705.37 474.14 C 704.71 478.13 709.34 473.33 705.37 474.14 Z" />
<path fill="#ffffff" opacity="1.00" d=" M 210.46 291.30 C 216.19 291.71 210.81 296.83 210.46 291.30 Z" />
<path fill="#ffffff" opacity="1.00" d=" M 188.26 319.10 C 191.29 317.56 188.44 322.38 188.26 319.10 Z" />




<path fill="#ffffff" opacity="1.00" d=" M 718.89 485.98 C 727.29 486.97 719.39 496.42 718.89 485.98 Z" />
</svg>
