<?xml version="1.0" encoding="UTF-8" ?>
<!DOCTYPE svg PUBLIC "-//W3C//DTD SVG 1.1//EN" "http://www.w3.org/Graphics/SVG/1.1/DTD/svg11.dtd">
<svg width="1225pt" height="647pt" viewBox="0 0 1225 647" version="1.1" xmlns="http://www.w3.org/2000/svg">

<path fill="#ffffff" opacity="1.00" d=" M 229.90 294.91 C 254.58 313.73 278.76 337.49 308.05 350.80 C 309.99 351.17 310.22 349.16 308.88 348.14 C 298.44 336.16 282.93 326.75 277.86 311.17 C 285.97 312.81 288.66 323.40 295.54 327.49 C 312.15 345.40 333.51 357.40 355.45 367.43 C 373.54 370.37 391.05 376.18 409.44 377.47 C 416.39 380.31 419.12 371.96 424.38 369.37 C 441.36 359.97 462.03 361.42 480.83 360.65 C 504.57 353.23 528.75 365.95 552.68 360.66 C 579.74 359.34 607.41 353.60 633.93 362.06 C 646.38 368.58 658.72 359.91 670.99 357.95 C 691.97 351.47 714.31 350.83 735.86 347.42 C 746.59 349.64 754.31 334.51 765.30 337.67 C 770.40 345.37 776.68 335.27 782.87 333.77 C 788.34 331.34 790.34 339.45 791.25 343.12 C 794.17 336.02 800.80 331.87 807.78 329.27 C 814.30 331.72 808.77 343.17 811.81 345.71 C 818.89 337.79 821.48 322.44 833.80 319.97 C 838.38 328.24 831.25 337.47 830.99 346.12 C 842.73 340.45 847.54 326.23 855.18 316.19 C 857.30 314.33 861.52 308.59 863.64 313.16 C 861.92 323.06 856.17 331.67 853.17 341.14 C 851.72 347.68 858.35 340.06 860.64 338.63 C 874.28 331.25 878.13 310.67 893.87 307.35 C 892.13 320.27 876.63 330.42 874.91 344.13 C 892.09 335.50 902.03 317.52 918.60 308.56 C 924.81 305.68 920.18 313.22 918.01 315.02 C 910.30 325.51 900.04 333.95 892.71 344.68 C 890.57 347.66 896.02 345.03 897.35 344.37 C 913.67 336.86 925.09 319.11 943.12 315.96 C 930.56 330.34 914.13 340.70 899.62 352.81 C 917.23 348.34 931.10 333.65 949.34 331.10 C 931.76 344.55 911.46 353.82 890.99 361.99 C 873.22 372.48 852.01 371.26 832.93 377.61 C 811.57 377.32 790.50 379.73 768.99 382.00 C 761.14 387.86 751.77 380.72 743.06 384.20 C 724.77 384.74 705.66 383.47 688.23 390.38 C 689.17 396.46 700.44 394.58 701.05 401.97 C 703.07 411.60 712.08 417.74 712.21 427.96 C 712.91 436.17 708.12 445.65 714.23 452.73 C 717.13 463.93 718.78 475.57 721.10 487.13 C 716.81 482.79 711.68 478.56 707.29 473.72 C 710.72 484.82 698.82 477.54 695.01 474.98 C 689.88 470.11 682.77 469.98 676.69 467.29 C 674.69 463.60 671.88 467.11 669.53 468.45 C 656.28 470.40 641.76 466.95 630.07 475.16 C 618.05 479.50 604.15 489.31 591.82 485.10 C 568.50 485.11 542.60 484.46 523.31 468.67 C 509.55 457.06 493.53 447.59 483.78 432.04 C 476.84 429.43 475.72 439.69 469.50 438.72 C 474.21 446.53 455.64 461.56 471.09 460.92 C 481.55 473.23 492.73 460.64 501.15 453.05 C 505.57 456.60 494.73 462.40 496.93 468.02 C 497.32 482.04 481.36 483.70 473.59 491.58 C 465.82 495.72 472.09 485.86 467.57 484.55 C 460.94 486.50 463.97 481.23 464.63 478.63 C 469.82 478.31 475.32 477.64 479.76 474.70 C 484.32 467.22 465.45 474.16 468.38 464.48 C 466.37 458.85 460.29 464.67 459.04 468.00 C 458.41 480.95 438.05 495.37 431.11 482.90 C 430.94 477.46 441.98 481.18 443.43 475.38 C 446.96 469.38 434.74 471.77 436.43 466.35 C 437.24 463.38 434.45 461.33 433.11 459.03 C 440.43 455.36 442.70 468.93 449.42 466.50 C 463.69 453.32 472.09 432.70 475.55 413.78 C 475.96 406.97 483.61 409.85 488.19 409.93 C 487.30 407.44 484.97 405.86 483.95 403.44 C 490.14 403.34 484.13 397.25 480.89 397.38 C 448.42 394.92 416.09 403.12 383.52 399.65 C 346.25 395.76 308.58 391.53 272.71 380.22 C 256.42 376.32 242.86 367.02 226.85 362.22 C 224.27 361.57 216.85 356.57 226.45 359.68 C 241.13 363.19 255.53 367.87 270.35 370.79 C 241.28 355.42 206.50 349.99 177.82 332.96 C 208.08 341.03 236.89 354.13 267.18 361.96 C 237.41 344.79 203.95 333.83 175.62 314.20 C 211.04 325.98 243.46 346.38 279.24 357.92 C 251.13 338.66 218.50 323.38 194.03 298.77 C 228.95 316.12 259.72 342.59 297.18 354.94 C 273.61 336.73 244.37 321.90 229.90 294.91 M 708.86 464.97 C 710.08 468.70 713.12 471.65 715.87 474.35 C 714.25 470.97 713.82 464.24 708.86 464.97 M 705.10 470.26 C 703.56 473.29 708.37 470.44 705.10 470.26 M 473.02 480.03 C 474.60 485.90 482.10 477.98 473.02 480.03 Z" />



</svg>
