<?xml version="1.0" encoding="UTF-8" ?>
<!DOCTYPE svg PUBLIC "-//W3C//DTD SVG 1.1//EN" "http://www.w3.org/Graphics/SVG/1.1/DTD/svg11.dtd">
<svg width="1225pt" height="647pt" viewBox="0 0 1225 647" version="1.1" xmlns="http://www.w3.org/2000/svg">

<path fill="#ffffff" opacity="1.00" d=" M 903.27 321.45 C 904.38 321.17 904.87 321.62 904.74 322.79 C 898.80 331.04 891.06 337.76 884.54 345.51 C 882.16 351.19 891.42 345.26 893.04 344.06 C 904.52 338.20 912.98 326.01 926.14 323.92 C 918.35 335.20 904.00 340.79 894.87 351.12 C 907.60 345.77 919.31 338.08 932.25 333.11 C 908.36 353.16 875.82 363.93 844.90 369.99 C 832.15 378.51 817.23 372.27 803.52 374.36 C 788.57 375.32 773.61 376.08 759.06 378.87 C 737.08 378.20 714.72 378.04 693.00 382.24 C 693.00 386.98 700.82 386.28 701.65 391.35 C 704.52 402.95 715.45 411.45 711.73 424.69 C 708.70 434.31 712.04 443.29 715.78 452.09 C 711.03 460.35 722.25 471.76 717.13 478.86 C 714.31 474.37 710.28 469.35 705.61 465.78 C 706.69 475.22 696.14 467.12 692.11 464.86 C 678.54 451.33 659.35 459.02 642.90 460.88 C 629.35 466.75 615.86 472.82 601.52 476.51 C 576.36 473.96 545.39 478.69 522.26 461.81 C 518.91 458.63 506.67 455.49 510.75 462.87 C 506.92 470.65 502.66 478.30 503.41 487.39 C 499.46 497.50 488.92 501.76 481.03 508.01 C 473.35 512.37 479.45 504.02 475.71 500.37 C 473.12 500.96 467.16 501.57 470.31 497.48 C 473.53 491.49 485.37 495.00 488.29 487.27 C 484.00 485.99 474.54 489.44 475.46 481.42 C 471.15 477.08 467.81 484.95 469.50 488.62 C 471.34 499.69 459.88 501.92 455.02 509.08 C 451.20 511.20 446.53 506.27 444.06 503.95 C 445.83 501.97 462.13 496.11 451.87 491.14 C 445.48 490.53 448.42 483.68 444.82 480.00 C 451.58 477.44 455.56 489.88 461.58 484.58 C 467.67 475.34 468.13 463.60 472.12 453.42 C 474.68 453.98 476.91 454.50 474.13 451.89 C 470.40 442.40 477.54 432.03 474.14 422.30 C 479.02 416.72 487.72 421.08 493.96 417.68 C 493.43 413.13 482.76 410.90 483.67 408.34 C 495.15 411.91 490.73 397.73 482.88 396.03 C 461.06 393.94 441.88 407.32 420.52 408.41 C 362.76 417.29 303.85 402.03 252.37 376.58 C 239.92 370.40 267.28 378.91 267.50 376.51 C 253.15 369.46 237.44 365.35 223.76 356.98 C 232.94 358.22 240.93 364.07 250.30 364.90 C 239.44 356.01 224.24 352.82 213.91 342.85 C 225.92 347.27 236.59 354.93 249.14 358.06 C 239.85 349.42 226.91 344.42 217.02 336.04 C 214.18 334.02 218.98 335.18 220.04 335.98 C 231.23 341.58 242.02 349.65 254.14 352.11 C 242.21 342.88 227.79 336.52 218.00 324.73 C 235.45 334.13 251.09 348.00 270.16 354.11 C 268.00 348.23 258.44 347.55 257.91 340.82 C 273.92 352.47 291.44 362.05 309.93 369.17 C 329.91 380.12 353.08 380.07 375.03 383.73 C 403.00 389.38 431.19 380.86 459.47 380.52 C 472.35 378.02 459.81 378.87 454.60 376.39 C 458.31 374.85 467.95 378.63 468.18 372.32 C 450.40 372.66 432.91 377.10 415.07 375.98 C 410.06 368.51 419.92 357.64 428.98 357.02 C 442.49 354.81 456.24 354.92 469.87 355.96 C 484.60 344.98 504.41 354.06 521.04 354.89 C 564.39 353.20 610.42 340.78 651.79 359.54 C 657.59 354.34 661.37 370.02 666.95 361.84 C 684.96 363.54 704.32 356.05 723.01 358.11 C 736.31 361.57 747.76 350.09 760.87 354.90 C 766.75 351.26 775.18 347.68 780.28 354.64 C 785.52 351.45 790.19 346.13 796.94 346.97 C 800.58 347.96 798.74 355.67 802.82 355.97 C 806.60 348.95 810.09 338.59 819.90 338.95 C 826.69 340.81 816.81 353.14 823.20 354.57 C 834.61 350.37 834.22 330.78 848.12 331.01 C 847.70 338.22 841.53 344.86 843.13 352.02 C 858.21 347.44 861.59 328.17 876.86 324.27 C 878.81 331.86 862.87 341.80 865.29 348.79 C 880.33 344.42 888.36 326.38 903.27 321.45 M 254.26 353.10 C 254.44 356.37 257.29 351.56 254.26 353.10 M 482.34 443.09 C 475.21 452.19 475.16 464.41 471.36 474.93 C 476.80 477.55 482.92 480.49 488.88 482.04 C 498.10 475.80 506.53 466.38 508.84 455.29 C 498.90 453.28 491.69 444.47 482.34 443.09 M 707.53 457.14 C 707.46 462.76 713.01 456.29 707.53 457.14 M 485.36 494.33 C 483.64 494.84 481.89 495.37 480.36 496.33 C 475.10 500.69 490.26 497.20 485.36 494.33 Z" />
<path fill="#ffffff" opacity="1.00" d=" M 209.93 330.85 C 212.36 331.62 214.69 332.66 217.09 333.55 C 214.22 336.13 211.75 333.06 209.93 330.85 Z" />
<path fill="#ffffff" opacity="1.00" d=" M 200.26 335.10 C 203.29 333.56 200.44 338.38 200.26 335.10 Z" />
<path fill="#ffffff" opacity="1.00" d=" M 202.52 337.14 C 207.04 335.58 203.18 341.49 202.52 337.14 Z" />
<path fill="#ffffff" opacity="1.00" d=" M 251.26 337.10 C 254.29 335.56 251.44 340.37 251.26 337.10 Z" />
<path fill="#ffffff" opacity="1.00" d=" M 206.52 339.14 C 211.04 337.58 207.18 343.49 206.52 339.14 Z" />
<path fill="#ffffff" opacity="1.00" d=" M 254.45 339.15 C 258.09 336.94 255.39 342.86 254.45 339.15 Z" />
<path fill="#ffffff" opacity="1.00" d=" M 210.52 341.14 C 215.04 339.58 211.18 345.49 210.52 341.14 Z" />

<path fill="#ffffff" opacity="1.00" d=" M 220.26 355.10 C 223.29 353.56 220.44 358.37 220.26 355.10 Z" />



</svg>
