<?xml version="1.0" encoding="UTF-8" ?>
<!DOCTYPE svg PUBLIC "-//W3C//DTD SVG 1.1//EN" "http://www.w3.org/Graphics/SVG/1.1/DTD/svg11.dtd">
<svg width="1225pt" height="647pt" viewBox="0 0 1225 647" version="1.1" xmlns="http://www.w3.org/2000/svg">

<path fill="#ffffff" opacity="1.00" d=" M 891.26 310.33 C 895.51 317.98 879.22 328.94 877.16 337.14 C 875.32 341.98 880.23 338.46 882.22 337.15 C 893.69 329.45 901.38 316.52 914.10 310.90 C 910.16 323.44 896.48 330.13 889.72 340.95 C 900.70 336.14 909.31 327.16 920.14 322.14 C 923.78 320.88 920.98 324.63 919.50 325.51 C 900.38 340.93 878.81 354.24 854.57 359.53 C 846.26 360.44 839.17 364.58 831.60 367.61 C 810.06 367.33 788.10 366.57 767.10 372.07 C 741.95 374.27 715.85 371.46 691.07 378.27 C 696.34 383.62 703.27 390.25 704.54 399.52 C 718.26 411.16 703.84 431.35 713.48 444.60 C 713.93 455.23 718.00 465.44 717.99 476.16 C 714.66 477.33 703.94 454.80 705.06 468.75 C 691.80 464.41 680.13 447.89 665.37 454.59 C 641.24 454.81 621.32 470.49 597.95 474.03 C 585.21 468.04 566.03 476.59 550.90 471.14 C 537.84 469.67 526.33 462.94 514.12 458.91 C 510.08 463.52 509.68 470.84 506.52 476.46 C 510.12 492.86 493.74 500.43 483.64 508.70 C 475.59 513.44 484.06 499.81 476.22 501.10 C 473.33 509.39 464.53 511.40 460.69 518.85 C 456.92 518.81 453.39 515.62 450.16 513.72 C 449.71 507.63 463.20 509.54 460.94 501.20 C 453.98 500.18 452.37 494.67 449.83 489.00 C 455.76 486.86 458.88 493.62 463.82 494.62 C 471.36 491.17 470.01 480.91 472.24 474.16 C 477.17 459.28 475.67 442.89 475.91 427.94 C 481.15 425.46 488.97 427.45 493.67 421.94 C 494.36 412.72 486.04 410.32 480.83 404.89 C 483.94 404.82 488.16 409.05 490.19 405.14 C 487.63 403.35 485.27 401.32 486.78 397.96 C 479.16 402.20 470.04 399.45 462.29 403.32 C 405.90 428.48 341.55 421.34 282.43 410.53 C 272.40 407.52 261.51 405.28 252.95 399.11 C 244.71 389.55 230.73 388.35 219.08 387.97 C 207.94 383.91 228.56 389.68 230.04 382.13 C 224.00 378.98 216.42 378.37 211.77 372.96 C 214.85 368.90 223.93 378.58 223.67 373.33 C 219.16 373.75 211.31 362.46 218.51 365.62 C 222.96 365.83 234.36 373.63 237.43 368.44 C 272.64 375.73 308.69 397.18 346.99 396.01 C 360.52 398.00 374.13 397.19 387.68 398.50 C 403.92 394.20 420.61 392.50 437.14 389.91 C 436.30 386.84 429.59 389.86 431.19 386.16 C 443.42 382.41 456.43 383.08 469.03 381.52 C 465.86 377.98 457.12 381.16 451.79 378.66 C 457.25 376.14 471.50 379.81 466.10 369.93 C 449.22 367.44 430.75 374.40 413.31 371.73 C 408.20 364.19 417.39 354.26 425.97 353.99 C 441.81 348.77 461.23 359.68 474.85 348.79 C 496.21 346.96 517.48 355.07 539.00 350.92 C 575.76 348.16 615.33 340.11 650.06 356.83 C 653.11 357.17 652.81 349.70 655.96 357.00 C 661.73 364.20 667.09 353.86 674.57 358.39 C 700.27 352.40 726.57 353.37 752.71 352.70 C 760.00 351.43 768.50 345.91 775.04 351.87 C 779.69 349.43 783.29 344.01 788.89 344.02 C 793.96 344.24 792.74 352.65 797.84 352.06 C 798.86 344.47 804.30 333.07 813.27 335.67 C 816.45 339.66 812.15 347.58 817.25 349.65 C 827.61 345.40 825.31 328.61 835.81 324.37 C 843.08 328.83 833.35 339.65 837.05 346.02 C 850.83 340.27 851.73 320.94 864.99 315.94 C 869.18 323.37 856.02 333.20 859.31 340.75 C 872.99 335.40 877.95 317.03 891.26 310.33 M 238.26 371.10 C 238.44 374.37 241.29 369.56 238.26 371.10 M 486.32 449.24 C 481.07 451.13 481.20 457.95 479.44 462.35 C 480.21 468.01 473.21 477.72 482.00 479.01 C 495.58 487.80 506.15 468.52 508.94 457.36 C 500.63 456.84 494.03 450.13 486.32 449.24 M 707.26 455.10 C 707.44 458.37 710.29 453.56 707.26 455.10 M 477.15 459.45 C 474.94 463.09 480.85 460.40 477.15 459.45 M 476.11 481.94 C 475.64 485.94 475.13 489.96 475.05 494.00 C 479.79 493.80 489.71 493.42 490.03 487.16 C 484.71 486.73 476.78 488.72 476.11 481.94 M 489.14 494.03 C 476.29 497.33 487.07 502.78 489.14 494.03 Z" />






</svg>
