<?xml version="1.0" encoding="UTF-8" ?>
<!DOCTYPE svg PUBLIC "-//W3C//DTD SVG 1.1//EN" "http://www.w3.org/Graphics/SVG/1.1/DTD/svg11.dtd">
<svg width="1225pt" height="647pt" viewBox="0 0 1225 647" version="1.1" xmlns="http://www.w3.org/2000/svg">

<path fill="#ffffff" opacity="1.00" d=" M 882.47 303.34 L 887.16 303.01 C 883.21 312.87 876.72 321.39 871.69 330.66 C 869.74 336.65 878.90 329.38 880.32 327.37 C 890.82 321.36 895.51 305.94 908.23 304.22 C 902.87 315.95 891.53 323.51 884.95 334.22 C 897.06 329.53 905.43 316.96 918.14 313.92 C 907.28 327.94 889.82 335.59 875.14 345.10 C 861.41 352.61 844.91 352.20 831.92 360.94 C 808.96 363.48 785.07 360.68 762.33 368.48 C 737.21 370.78 709.01 366.00 685.99 377.74 C 698.66 381.41 699.42 394.79 706.71 403.19 C 714.69 415.79 704.28 432.23 713.61 444.51 C 712.36 454.98 720.38 465.09 718.31 475.25 C 715.39 475.32 702.77 453.98 705.72 468.02 C 693.80 464.18 684.41 455.57 672.59 451.44 C 663.82 455.09 652.86 455.40 643.11 456.95 C 631.39 461.14 620.43 467.52 608.36 470.36 C 604.09 472.48 596.63 475.24 594.82 470.18 C 565.96 477.16 538.00 468.29 511.10 459.21 C 502.42 468.64 509.97 484.24 497.01 491.00 C 483.53 498.30 473.71 510.75 463.70 521.76 C 459.99 521.05 455.08 518.34 452.91 514.16 C 457.65 512.08 464.79 510.65 464.72 504.12 C 462.80 500.63 454.77 503.88 456.55 498.61 C 458.33 495.38 452.96 494.68 453.18 492.22 C 458.51 488.48 462.66 497.64 467.41 497.48 C 477.89 489.59 469.37 469.21 479.62 464.10 C 474.32 454.20 478.19 442.68 475.12 432.31 C 479.25 426.59 495.93 431.71 492.17 420.94 C 490.70 402.24 467.27 406.74 455.73 412.68 C 428.28 426.00 397.14 429.11 367.00 429.01 C 316.93 430.60 266.55 424.66 219.26 407.79 C 208.19 405.15 198.18 399.87 189.50 393.52 C 180.13 384.06 199.62 393.98 204.44 390.60 C 233.66 397.64 263.38 405.99 293.37 410.74 C 318.81 417.01 345.03 411.61 370.83 412.59 C 392.18 411.31 413.98 404.37 432.24 394.27 C 430.83 393.46 426.52 392.81 428.64 390.65 C 439.55 386.09 451.71 386.47 463.26 384.70 C 459.75 381.14 450.31 385.93 450.05 380.20 C 457.84 377.86 466.73 381.01 474.06 377.87 C 471.87 373.82 460.82 377.19 464.12 370.86 C 449.07 362.71 427.25 374.00 410.04 369.01 C 406.72 363.60 408.05 357.94 414.53 353.44 C 430.71 346.14 448.69 349.92 465.73 350.55 C 487.30 339.44 510.78 356.51 533.37 349.46 C 571.91 349.19 613.35 337.88 649.61 356.30 C 647.24 348.42 653.52 354.69 656.38 357.73 C 669.19 354.28 683.40 353.78 697.03 350.95 C 720.06 348.95 744.16 352.45 765.89 344.02 C 773.15 351.55 776.91 337.15 784.90 337.99 C 789.14 339.33 789.25 346.33 793.71 347.06 C 794.35 339.46 796.52 328.88 805.87 328.00 C 812.27 330.50 807.43 341.46 813.68 343.78 C 822.32 337.51 818.99 324.31 826.94 317.92 C 838.81 313.07 827.12 335.63 833.13 339.52 C 840.49 334.02 845.60 324.98 849.32 316.32 C 851.54 313.01 854.29 305.52 859.35 308.65 C 861.30 316.97 850.58 327.24 853.20 334.93 C 866.98 329.23 870.57 311.74 882.47 303.34 M 204.26 392.10 C 204.44 395.37 207.29 390.56 204.26 392.10 M 488.34 452.30 C 481.56 454.30 481.43 464.88 481.01 470.82 C 488.47 479.25 495.93 472.23 500.96 465.87 C 513.30 457.47 494.85 454.04 488.34 452.30 M 569.19 457.45 C 568.91 462.92 574.85 456.96 569.19 457.45 M 701.36 457.14 C 700.72 461.13 705.34 456.33 701.36 457.14 M 482.35 479.25 C 476.53 481.01 479.56 491.25 485.16 485.20 C 493.01 482.70 488.98 477.43 482.35 479.25 M 485.21 488.99 C 481.62 492.96 490.55 489.82 485.21 488.99 M 478.10 497.26 C 476.56 500.29 481.37 497.44 478.10 497.26 Z" />







<path fill="#ffffff" opacity="1.00" d=" M 454.26 519.10 C 457.29 517.56 454.44 522.37 454.26 519.10 Z" />
</svg>
