<?xml version="1.0" encoding="UTF-8" ?>
<!DOCTYPE svg PUBLIC "-//W3C//DTD SVG 1.1//EN" "http://www.w3.org/Graphics/SVG/1.1/DTD/svg11.dtd">
<svg width="1225pt" height="647pt" viewBox="0 0 1225 647" version="1.1" xmlns="http://www.w3.org/2000/svg">

<path fill="#ffffff" opacity="1.00" d=" M 887.30 303.29 C 888.49 303.02 889.70 302.87 890.94 302.84 C 887.10 315.31 876.99 325.00 872.83 337.10 C 887.85 329.37 894.24 310.62 910.02 304.79 C 903.33 317.35 892.94 327.32 883.91 338.14 C 896.76 333.80 904.20 319.75 917.17 315.96 C 896.24 339.80 867.32 357.65 835.39 362.42 C 827.65 370.39 816.03 366.09 806.40 368.20 C 785.50 365.51 765.09 372.59 744.52 372.69 C 720.69 374.58 695.71 370.57 673.13 380.37 C 675.89 387.95 687.33 387.92 690.29 395.70 C 693.11 404.58 703.52 408.71 703.16 418.95 C 704.00 429.04 701.81 440.17 709.86 448.15 C 711.42 458.59 717.34 468.22 718.78 479.34 C 712.76 474.45 707.25 468.72 701.34 463.58 C 709.70 477.92 691.82 469.89 685.93 465.14 C 679.79 464.37 673.85 462.10 668.15 460.05 C 662.02 466.34 652.92 461.95 645.36 464.38 C 640.92 465.86 638.53 458.36 633.99 460.89 C 619.82 466.21 606.40 473.49 591.87 477.87 C 569.15 474.21 542.98 479.17 522.94 465.06 C 507.94 457.98 496.68 445.84 482.86 436.97 C 473.41 439.62 465.13 445.78 456.39 450.18 C 457.19 456.08 451.69 460.73 453.45 466.91 C 447.50 474.57 435.63 472.45 427.23 473.92 C 421.60 465.21 441.10 471.97 439.68 463.29 C 433.20 459.66 429.94 454.13 428.93 446.90 C 437.38 447.04 438.67 460.08 447.91 458.08 C 449.63 453.51 457.98 445.88 450.77 442.16 C 447.26 436.56 457.59 434.60 460.07 438.93 C 463.84 443.98 455.68 426.75 465.18 433.74 C 461.82 429.26 456.54 426.64 454.79 421.03 C 414.03 429.20 373.70 444.82 331.61 448.53 C 299.49 452.96 266.96 453.08 234.51 452.63 C 223.40 453.98 215.05 446.68 204.32 446.64 C 193.52 444.47 181.79 445.65 171.58 441.25 C 178.18 440.80 184.80 440.98 191.36 441.79 C 181.80 435.45 168.33 437.38 158.62 431.17 C 167.97 430.65 176.92 434.27 186.26 433.94 C 177.32 428.46 166.46 426.98 157.66 421.13 C 168.87 421.50 179.07 427.32 190.24 427.97 C 183.44 423.72 175.27 421.05 169.91 414.84 C 186.60 419.25 201.89 429.04 219.23 431.01 C 216.39 426.65 209.52 427.18 207.68 422.13 C 245.37 438.62 288.22 449.41 328.75 438.78 C 325.78 437.16 315.99 438.77 310.60 436.63 C 318.98 433.88 328.17 434.67 336.84 432.95 C 331.01 428.01 362.60 430.22 345.64 427.68 C 351.22 423.96 358.85 425.58 365.06 423.21 C 363.22 417.79 377.61 421.62 381.41 416.42 C 386.39 412.15 395.65 415.23 399.08 409.08 C 412.59 410.66 416.44 396.13 427.87 393.81 C 435.07 391.32 442.73 390.75 450.23 389.72 C 446.30 387.82 441.70 387.97 437.84 385.90 C 444.49 378.15 456.72 382.28 465.12 378.89 C 460.56 374.20 451.83 377.38 446.64 373.11 C 450.39 372.23 457.13 372.37 451.18 369.79 C 445.63 366.43 460.39 368.95 454.35 366.74 C 432.88 366.81 411.01 369.50 389.61 367.41 C 382.64 364.75 394.93 363.94 390.27 359.84 C 404.15 349.53 425.78 347.44 443.69 350.34 C 458.59 354.54 472.36 344.33 487.45 349.52 C 505.46 356.28 523.99 351.00 542.48 350.52 C 570.98 347.94 599.78 347.22 628.11 351.87 C 632.69 351.63 641.52 362.91 641.10 353.88 C 645.38 354.00 645.61 361.69 650.35 359.43 C 679.67 352.39 709.69 351.41 739.66 352.62 C 749.71 346.07 761.82 351.51 771.45 344.43 C 775.22 342.15 777.98 344.90 780.80 346.64 C 786.27 340.22 800.53 333.64 799.25 348.16 C 804.26 341.36 806.21 330.21 815.81 328.32 C 823.37 330.85 814.58 340.28 818.21 344.99 C 831.00 340.89 827.32 317.47 841.92 316.94 C 841.27 324.99 836.35 333.45 837.17 341.04 C 850.56 334.95 851.78 317.04 863.23 308.44 C 864.39 308.29 867.39 308.11 866.80 309.87 C 863.29 319.80 858.69 329.31 854.90 339.12 C 869.85 331.17 874.65 313.64 887.30 303.29 Z" />
<path fill="#ffffff" opacity="1.00" d=" M 204.45 421.15 C 208.09 418.94 205.40 424.85 204.45 421.15 Z" />
</svg>
