<?xml version="1.0" encoding="UTF-8" ?>
<!DOCTYPE svg PUBLIC "-//W3C//DTD SVG 1.1//EN" "http://www.w3.org/Graphics/SVG/1.1/DTD/svg11.dtd">
<svg width="1225pt" height="647pt" viewBox="0 0 1225 647" version="1.1" xmlns="http://www.w3.org/2000/svg">

<path fill="#ffffff" opacity="1.00" d=" M 891.32 310.32 C 892.24 309.64 894.44 310.51 893.60 311.74 C 888.83 322.58 878.73 332.20 874.64 342.39 C 888.85 337.27 896.44 316.64 912.24 313.23 C 905.02 324.71 894.88 334.07 885.87 344.11 C 897.69 339.87 905.93 328.42 918.05 324.86 C 909.73 336.32 895.35 343.76 882.99 350.98 C 866.83 364.50 843.72 362.34 826.05 372.08 C 806.18 372.07 786.98 372.46 766.96 373.77 C 735.98 381.70 701.12 368.69 671.35 383.16 C 675.09 389.06 686.54 389.85 688.89 398.11 C 691.04 406.56 701.19 409.49 701.15 418.97 C 703.42 426.89 699.05 436.56 704.63 443.37 C 707.75 447.32 710.85 451.62 709.43 457.00 C 712.12 464.27 716.75 471.09 716.93 479.20 C 710.00 475.07 704.72 468.13 697.98 463.75 C 700.51 466.76 702.69 469.95 702.91 474.08 C 690.18 471.41 679.43 462.90 666.14 462.01 C 659.24 468.13 649.10 464.34 640.35 465.57 C 631.52 455.41 620.36 468.65 610.66 470.67 C 591.41 483.14 568.79 476.56 547.47 475.46 C 518.00 471.46 497.68 447.80 477.29 428.73 C 467.68 429.26 459.56 438.21 449.46 438.34 C 448.57 443.87 441.77 447.47 443.71 453.73 C 439.51 459.25 431.53 456.21 425.52 457.37 C 423.10 456.99 414.75 459.22 416.05 454.19 C 418.96 449.42 431.14 455.07 430.42 447.61 C 423.98 443.27 421.73 437.23 419.79 430.04 C 428.03 431.55 428.76 442.47 437.14 443.90 C 441.99 445.47 444.02 439.57 446.72 436.82 C 445.88 433.15 441.21 431.08 445.81 427.74 C 452.01 420.07 454.91 436.65 457.82 428.30 C 455.08 428.32 452.70 424.45 456.39 425.67 C 459.60 430.12 463.58 418.76 458.41 420.29 C 448.01 413.47 438.20 426.93 427.12 423.22 C 379.01 436.48 329.80 449.21 279.95 449.92 C 256.24 451.46 231.27 454.91 208.03 449.94 C 193.60 445.27 175.54 449.29 161.66 443.06 C 171.19 442.79 180.67 444.50 190.21 443.98 C 177.15 439.02 160.04 441.06 148.03 433.92 C 158.75 432.91 173.53 437.46 186.26 437.92 C 174.11 432.54 158.13 432.01 148.01 423.92 C 157.74 421.90 172.61 431.76 184.25 429.98 C 175.90 426.28 165.79 424.45 159.89 416.88 C 178.16 420.97 195.51 429.19 214.21 431.94 C 210.01 426.58 201.51 426.96 197.98 420.78 C 238.16 437.18 283.33 446.61 326.21 435.68 C 319.88 431.58 310.84 436.50 304.73 432.06 C 312.47 428.76 324.54 433.73 330.38 427.46 C 333.50 426.64 350.96 425.97 342.77 423.61 C 355.32 422.63 363.17 416.67 375.64 415.64 C 387.99 408.81 403.46 409.21 414.73 399.80 C 421.98 390.09 436.43 391.02 447.25 388.68 C 444.35 386.32 435.69 387.90 436.27 383.32 C 444.26 377.63 455.12 381.40 463.31 377.05 C 457.63 375.98 434.31 373.12 453.21 371.72 C 446.89 368.79 449.59 367.19 456.20 367.86 C 433.97 362.78 407.89 371.96 384.57 368.33 C 382.50 365.04 391.93 364.96 387.21 360.95 C 406.35 350.79 428.45 352.39 449.52 353.46 C 468.41 346.33 487.88 351.19 507.06 353.96 C 527.92 350.53 549.30 349.24 570.48 349.58 C 589.71 345.33 609.15 351.14 627.89 353.09 C 631.99 354.55 635.46 357.22 638.93 359.79 C 636.88 349.59 643.28 358.45 645.65 360.53 C 663.72 359.51 682.39 354.18 701.00 354.92 C 718.67 353.88 737.31 361.25 753.48 351.50 C 764.34 356.89 774.35 341.74 783.75 349.61 C 790.01 342.72 804.70 336.59 801.31 352.22 C 806.48 344.88 809.56 331.60 820.68 332.13 C 824.24 336.84 818.81 344.35 819.92 350.08 C 832.61 344.30 830.33 322.20 845.04 320.99 C 844.89 329.52 838.27 339.10 839.67 345.73 C 854.16 339.02 854.74 317.54 870.20 313.10 C 868.21 323.63 861.09 332.48 858.42 342.57 C 873.25 337.22 877.02 316.67 891.32 310.32 M 475.49 362.53 C 461.24 366.82 494.92 361.23 475.49 362.53 M 704.10 459.26 C 702.56 462.29 707.37 459.44 704.10 459.26 M 696.14 461.37 C 695.33 465.34 700.13 460.72 696.14 461.37 Z" />



</svg>
