<?xml version="1.0" encoding="UTF-8" ?>
<!DOCTYPE svg PUBLIC "-//W3C//DTD SVG 1.1//EN" "http://www.w3.org/Graphics/SVG/1.1/DTD/svg11.dtd">
<svg width="1225pt" height="647pt" viewBox="0 0 1225 647" version="1.1" xmlns="http://www.w3.org/2000/svg">

<path fill="#ffffff" opacity="1.00" d=" M 881.25 311.34 C 884.07 319.30 871.85 330.77 868.20 339.21 C 865.43 342.08 868.48 342.32 870.55 340.57 C 880.25 333.36 886.88 322.72 896.61 315.59 C 898.09 314.88 901.14 314.18 899.87 316.87 C 895.78 326.71 885.41 334.09 880.56 342.31 C 890.13 339.79 897.01 326.93 908.13 326.88 C 886.53 347.39 860.39 364.13 830.40 368.43 C 817.13 378.71 799.47 370.45 784.31 374.21 C 768.15 373.78 753.10 380.99 737.02 377.99 C 715.89 378.87 690.99 373.95 672.11 384.12 C 679.51 389.39 689.05 394.26 691.15 404.83 C 702.31 412.28 698.89 428.17 700.10 439.82 C 703.53 445.35 707.94 450.77 706.53 457.71 C 710.55 464.65 712.29 472.41 713.92 480.17 C 707.39 475.33 701.83 468.59 695.12 463.68 C 696.91 467.06 698.63 470.49 699.89 474.12 C 687.77 469.70 676.28 464.96 664.06 461.02 C 656.85 467.21 646.78 463.26 637.42 464.57 C 628.31 455.67 617.45 469.39 607.74 470.75 C 590.57 482.04 570.74 477.49 551.57 475.49 C 518.60 474.61 496.31 447.27 475.99 424.86 C 469.70 431.80 459.43 432.52 451.84 437.84 C 444.31 440.64 450.98 429.96 443.99 430.94 C 435.84 431.02 438.00 443.17 430.03 442.82 C 422.42 442.02 414.46 443.36 407.10 440.75 C 406.48 434.10 416.94 434.83 421.76 435.68 C 427.47 431.86 416.02 427.61 415.39 424.11 C 417.65 414.72 411.17 412.09 402.15 416.16 C 366.99 422.63 331.73 426.23 296.00 425.96 C 260.29 428.23 222.81 427.01 189.66 412.32 C 181.14 409.73 171.88 408.32 164.15 403.78 C 163.68 400.05 170.99 404.37 172.97 401.36 C 164.52 400.16 158.40 392.57 168.69 388.44 C 166.97 383.22 171.86 385.54 167.77 381.19 C 177.84 383.33 185.92 390.86 196.39 391.56 C 204.52 390.24 211.82 394.36 219.35 396.63 C 250.86 409.13 285.03 416.50 318.96 412.86 C 345.97 409.32 372.45 402.82 399.36 398.36 C 414.63 396.08 426.48 383.93 442.51 384.53 C 456.41 382.47 431.92 383.54 438.30 378.31 C 445.16 373.88 456.16 376.99 461.96 374.03 C 458.34 372.12 434.42 369.25 453.09 367.81 C 448.49 365.56 447.59 363.54 455.32 363.54 C 432.82 359.68 408.45 366.28 386.01 361.83 C 389.16 358.47 388.98 353.20 395.00 352.95 C 413.88 341.16 436.59 351.11 457.06 348.10 C 471.76 343.17 487.58 348.50 502.13 351.79 C 523.44 353.50 544.62 346.60 566.00 349.07 C 590.37 347.20 617.84 346.66 638.75 360.14 C 637.84 348.80 643.21 359.99 646.31 361.78 C 673.74 358.43 701.29 353.92 728.99 358.12 C 738.86 361.23 746.59 350.12 756.63 352.44 C 763.19 354.67 767.69 345.14 774.60 348.45 C 781.53 353.46 786.51 338.42 793.81 344.15 C 796.84 359.29 800.51 333.01 809.11 333.05 C 820.91 329.60 808.77 346.27 815.03 348.96 C 824.75 343.11 822.19 326.92 832.98 322.05 C 841.22 325.81 829.30 338.41 833.12 344.97 C 845.08 339.10 845.42 323.17 855.39 315.22 C 861.28 311.45 860.10 316.27 859.64 318.65 C 857.36 327.01 852.34 334.57 850.88 343.10 C 864.96 336.71 867.10 317.14 881.25 311.34 M 479.54 359.53 C 459.15 362.65 495.07 360.83 479.54 359.53 M 442.49 408.58 C 434.42 413.65 421.30 406.72 415.21 414.12 C 422.29 419.75 427.33 436.03 438.46 426.47 C 446.37 424.28 457.37 405.78 442.49 408.58 M 459.84 412.99 C 462.24 420.35 472.95 410.76 459.84 412.99 M 455.36 414.30 C 453.98 416.71 446.83 419.91 450.90 422.03 C 455.34 424.43 444.50 420.89 447.58 424.45 C 450.17 429.79 468.76 422.11 458.30 418.64 C 453.81 418.28 461.51 412.41 455.36 414.30 M 443.17 427.17 C 442.15 431.80 447.80 426.15 443.17 427.17 M 700.31 458.31 C 699.51 464.29 706.29 457.51 700.31 458.31 Z" />






</svg>
