<?xml version="1.0" encoding="UTF-8" ?>
<!DOCTYPE svg PUBLIC "-//W3C//DTD SVG 1.1//EN" "http://www.w3.org/Graphics/SVG/1.1/DTD/svg11.dtd">
<svg width="1225pt" height="647pt" viewBox="0 0 1225 647" version="1.1" xmlns="http://www.w3.org/2000/svg">

<path fill="#ffffff" opacity="1.00" d=" M 859.40 304.35 C 860.78 303.51 862.73 303.90 863.84 305.05 C 860.65 315.55 855.77 325.49 852.83 336.06 C 865.23 329.88 867.64 311.74 880.99 307.13 C 881.71 318.43 868.48 326.12 866.85 337.08 C 875.45 331.42 881.50 320.64 892.08 318.86 C 879.23 335.59 862.53 350.14 843.86 359.85 C 828.80 362.27 816.78 372.65 801.36 372.37 C 785.97 372.88 770.30 374.90 755.54 379.53 C 728.97 380.63 701.06 374.40 675.25 383.37 C 676.11 388.57 686.76 386.90 687.03 393.97 C 689.88 405.46 702.67 412.44 698.53 425.66 C 694.63 435.52 701.18 442.95 704.89 451.13 C 701.30 460.50 712.05 469.10 708.99 479.09 C 704.13 473.84 698.92 468.99 693.82 464.00 C 694.41 466.72 695.35 469.35 695.96 472.07 C 684.77 471.23 677.52 460.86 666.23 460.66 C 657.11 457.87 648.03 465.20 638.12 462.38 C 618.82 456.50 602.59 477.46 582.87 477.89 C 567.92 472.93 550.25 477.22 534.88 471.14 C 510.58 465.06 496.39 442.80 477.95 427.79 C 473.42 438.51 459.08 441.59 449.22 445.07 C 451.99 439.43 445.88 436.04 440.99 438.00 C 444.77 428.13 458.27 436.67 462.94 427.98 C 460.17 423.80 452.86 423.55 448.13 421.26 C 444.32 425.95 437.41 430.37 434.76 437.80 C 427.53 444.52 415.48 439.31 407.00 437.81 C 407.23 430.55 418.34 432.84 423.12 432.75 C 423.58 427.70 418.14 425.83 415.24 422.70 C 416.41 418.20 415.11 413.89 412.99 409.91 C 423.38 412.30 421.37 429.61 433.99 426.02 C 439.03 422.71 446.17 419.33 447.81 412.79 C 456.44 412.50 458.68 402.76 463.22 397.24 C 466.39 392.61 459.36 392.44 456.82 390.25 C 441.11 390.62 425.16 389.69 409.64 392.66 C 388.76 400.90 365.76 395.40 344.00 397.04 C 295.68 393.73 245.08 389.67 202.42 364.48 C 192.60 357.31 181.22 352.25 171.93 344.42 C 179.10 344.71 169.64 338.76 173.84 336.87 C 178.72 330.05 185.30 337.09 191.71 335.58 C 213.87 340.69 233.34 353.30 254.98 360.03 C 308.63 382.54 367.64 371.33 424.03 375.28 C 436.57 376.81 447.19 367.16 460.07 369.88 C 459.24 365.88 449.03 366.99 449.59 363.80 C 456.27 364.06 449.64 358.87 456.08 358.44 C 435.59 354.82 413.09 358.63 393.02 351.89 C 400.07 333.35 427.34 338.71 442.61 340.40 C 457.93 346.64 474.01 337.47 489.11 343.89 C 508.36 352.21 529.50 351.21 549.65 347.59 C 579.58 348.02 613.54 342.19 639.84 360.09 C 638.00 349.62 644.79 358.72 646.57 361.68 C 672.69 359.64 700.03 355.19 726.65 358.64 C 735.51 350.07 748.32 353.05 757.45 345.43 C 767.87 350.49 775.03 332.78 783.69 342.85 C 785.59 336.55 787.95 327.69 795.76 327.18 C 800.74 331.23 797.89 338.81 801.19 343.96 C 811.26 338.07 802.78 317.15 816.78 315.01 C 819.73 322.25 817.06 331.22 818.09 339.12 C 831.38 334.13 824.97 309.46 841.00 306.89 C 840.12 316.75 837.47 326.35 835.97 336.12 C 849.05 330.91 847.49 311.54 859.40 304.35 M 484.17 356.17 C 483.15 360.80 488.80 355.15 484.17 356.17 M 460.39 411.54 C 455.94 410.98 446.16 417.31 450.96 419.00 C 456.98 412.89 462.84 426.28 470.14 420.19 C 477.83 416.85 466.04 408.05 460.39 411.54 M 476.10 424.26 C 474.56 427.29 479.37 424.44 476.10 424.26 M 696.95 456.00 C 696.64 459.34 699.79 461.25 702.05 463.09 C 700.52 460.87 700.67 455.28 696.95 456.00 Z" />




</svg>
