<?xml version="1.0" encoding="UTF-8" ?>
<!DOCTYPE svg PUBLIC "-//W3C//DTD SVG 1.1//EN" "http://www.w3.org/Graphics/SVG/1.1/DTD/svg11.dtd">
<svg width="1225pt" height="647pt" viewBox="0 0 1225 647" version="1.1" xmlns="http://www.w3.org/2000/svg">

<path fill="#ffffff" opacity="1.00" d=" M 192.90 227.82 C 195.44 228.54 200.59 230.95 198.04 234.04 C 196.07 232.20 194.13 230.25 192.90 227.82 Z" />
<path fill="#ffffff" opacity="1.00" d=" M 199.84 233.92 C 210.57 243.82 224.64 247.86 235.22 257.83 C 263.61 281.85 296.87 299.10 332.39 309.58 C 339.68 310.47 345.97 314.33 352.34 317.63 C 363.37 321.32 375.14 321.22 386.48 323.37 C 399.25 324.49 411.90 331.09 424.83 327.68 C 440.41 325.31 455.49 336.61 470.91 332.95 C 481.54 329.41 491.56 337.14 501.53 338.42 C 511.13 332.75 520.75 349.96 529.41 342.58 C 550.51 344.38 572.54 338.88 594.01 339.00 C 616.12 340.03 637.01 348.14 657.52 355.31 C 665.99 359.85 674.88 362.01 683.47 358.55 C 698.42 358.71 712.88 359.34 728.02 360.95 C 739.37 360.77 748.54 353.61 759.61 354.58 C 760.26 346.90 770.41 338.92 773.84 349.23 C 784.44 366.63 775.21 339.78 783.28 334.17 C 792.49 332.61 787.50 350.56 795.75 350.91 C 800.16 343.14 795.55 329.86 805.79 326.33 C 812.42 331.28 804.53 344.12 811.90 349.21 C 817.77 340.82 816.67 325.53 827.84 321.94 C 829.24 330.25 827.38 339.84 825.39 348.36 C 835.30 343.40 835.14 324.56 848.01 323.94 C 845.74 332.55 842.16 340.78 839.00 349.10 C 846.86 345.10 849.95 332.80 860.03 332.87 C 854.84 346.31 841.48 353.87 834.81 365.80 C 826.59 371.64 815.17 369.25 806.91 374.91 C 798.86 382.08 788.58 376.12 779.69 378.70 C 749.90 387.22 719.32 377.36 689.11 381.06 C 689.58 392.79 700.91 401.69 696.17 414.11 C 688.68 424.56 700.55 433.91 696.71 444.26 C 696.56 449.75 703.09 456.69 698.36 461.10 C 697.03 454.85 694.99 448.63 691.79 443.10 C 683.72 443.00 698.78 457.44 692.29 458.74 C 689.97 450.91 683.44 450.82 687.03 459.89 C 675.11 456.22 665.60 441.38 652.55 447.44 C 625.45 447.58 603.06 470.63 576.13 467.87 C 561.08 464.38 543.77 468.18 529.10 460.92 C 512.97 456.99 503.70 440.95 488.99 435.21 C 484.85 441.01 482.02 449.38 480.04 456.97 C 472.15 463.57 463.08 469.59 453.20 472.08 C 454.42 467.63 454.20 460.25 446.88 462.76 C 448.69 453.47 460.65 459.19 465.90 453.80 C 465.99 449.07 457.86 451.77 455.92 448.30 C 456.23 444.86 453.25 442.65 452.20 440.18 C 458.34 436.09 463.48 449.58 470.01 446.03 C 475.04 442.50 490.71 439.41 485.63 431.35 C 480.16 427.76 476.93 422.07 472.78 417.22 C 468.56 412.04 458.43 423.70 457.34 417.29 C 465.18 410.94 458.45 390.47 472.40 393.58 C 485.63 396.84 470.19 386.30 477.77 383.13 C 468.38 378.47 472.32 362.09 458.76 365.84 C 461.69 362.39 466.84 362.83 470.26 360.08 C 450.33 363.73 429.87 367.50 410.00 360.95 C 376.73 356.60 347.18 340.14 316.00 329.00 C 288.52 316.69 261.86 301.69 238.70 282.43 C 231.65 278.69 242.18 282.07 245.11 282.11 C 236.36 273.59 224.79 268.34 216.73 258.99 C 218.99 253.11 205.04 250.27 203.78 243.08 C 205.92 244.08 207.96 245.28 210.19 246.09 C 208.02 240.94 201.16 239.12 199.84 233.92 M 458.24 459.14 C 454.16 466.78 470.17 457.22 458.24 459.14 Z" />
<path fill="#ffffff" opacity="1.00" d=" M 201.26 242.10 C 204.29 240.56 201.44 245.38 201.26 242.10 Z" />
<path fill="#ffffff" opacity="1.00" d=" M 454.24 421.18 C 461.54 423.16 451.17 427.33 454.24 421.18 Z" />
<path fill="#ffffff" opacity="1.00" d=" M 451.27 426.29 C 457.76 427.01 451.38 431.90 450.04 435.01 C 441.99 440.46 446.45 457.78 432.99 455.00 C 426.30 457.41 420.92 457.80 415.10 453.77 C 413.91 446.12 425.95 453.26 428.83 447.82 C 432.84 443.86 425.24 441.45 423.21 438.75 C 424.07 435.01 423.59 431.38 421.99 427.91 C 428.59 428.21 430.11 436.93 434.23 440.91 C 443.06 441.89 445.82 430.92 451.27 426.29 Z" />

<path fill="#ffffff" opacity="1.00" d=" M 696.80 462.00 C 703.67 463.75 696.53 470.30 696.80 462.00 Z" />
</svg>
