<?xml version="1.0" encoding="UTF-8" ?>
<!DOCTYPE svg PUBLIC "-//W3C//DTD SVG 1.1//EN" "http://www.w3.org/Graphics/SVG/1.1/DTD/svg11.dtd">
<svg width="1225pt" height="647pt" viewBox="0 0 1225 647" version="1.1" xmlns="http://www.w3.org/2000/svg">

<path fill="#ffffff" opacity="1.00" d=" M 588.46 315.54 C 610.14 312.30 631.21 319.39 651.67 325.34 C 662.04 329.45 668.41 340.77 679.76 342.54 C 687.97 345.37 685.06 357.48 695.34 357.70 C 707.51 353.33 718.82 364.99 731.02 366.86 C 751.21 372.49 773.13 378.11 786.95 395.12 C 802.12 404.60 812.31 419.22 827.36 428.70 C 847.54 444.75 873.84 454.75 888.05 477.20 C 849.36 460.28 808.89 447.58 769.99 430.99 C 745.75 429.88 722.97 417.04 698.18 419.71 C 696.99 415.78 688.65 403.40 689.90 416.02 C 691.56 421.33 692.27 423.53 687.10 419.11 C 684.04 430.22 673.85 422.03 668.02 418.50 C 659.53 411.64 654.03 423.48 645.15 420.25 C 626.08 425.55 612.74 443.59 592.02 445.06 C 568.86 446.61 544.22 450.77 521.82 442.29 C 513.54 440.31 506.31 430.25 497.52 436.56 C 494.44 439.32 501.93 435.30 499.29 438.25 C 494.22 446.74 487.54 455.07 488.73 465.68 C 482.02 475.51 471.64 481.47 460.43 484.61 C 455.68 472.57 469.26 477.13 471.24 470.12 C 464.28 470.01 459.18 477.45 451.99 475.04 C 456.63 467.92 465.08 469.69 471.88 465.75 C 473.70 460.10 463.99 464.69 462.51 460.57 C 464.49 450.82 450.46 457.26 452.79 463.04 C 452.52 469.38 444.82 471.13 439.63 469.54 C 421.70 473.97 404.38 481.42 386.98 487.99 C 369.34 492.37 351.02 494.95 332.86 494.98 C 334.53 491.21 340.79 493.20 341.97 488.92 C 346.63 478.73 328.70 487.84 324.31 484.68 C 318.54 483.03 327.90 481.58 328.16 479.12 C 314.63 479.18 301.28 476.78 287.81 475.84 C 290.24 474.76 292.69 473.70 295.07 472.51 C 287.06 467.52 276.94 466.93 267.74 465.72 C 271.36 463.96 275.38 463.31 279.31 462.58 C 268.52 457.47 253.91 460.31 244.00 456.97 C 252.98 454.31 266.26 457.99 276.40 453.35 C 256.55 452.12 236.58 449.60 216.74 450.84 C 231.46 446.67 249.65 449.61 264.13 446.09 C 254.00 445.48 243.87 444.87 233.72 444.81 C 239.43 442.06 245.65 440.45 251.95 439.91 C 259.83 430.43 277.72 430.58 285.12 419.07 C 295.79 412.20 306.58 405.64 317.96 399.93 C 341.13 384.82 369.36 383.54 395.98 379.95 C 419.45 375.67 442.78 370.36 465.04 362.06 C 473.31 358.47 458.23 357.44 456.01 357.11 C 448.07 356.42 459.33 351.19 458.09 347.04 C 435.12 348.01 411.74 355.16 389.08 352.99 C 402.27 332.05 432.12 341.58 452.40 338.42 C 467.00 328.91 484.92 337.27 501.04 335.36 C 530.71 331.81 559.00 320.39 588.46 315.54 M 476.32 420.38 C 459.76 419.84 462.45 441.35 452.00 449.07 C 454.93 458.32 467.01 448.26 472.38 457.57 C 485.34 456.31 492.12 441.05 498.99 431.08 C 490.78 428.88 484.31 422.31 476.32 420.38 Z" />

<path fill="#ffffff" opacity="1.00" d=" M 223.97 453.05 C 234.00 450.46 226.21 458.40 223.97 453.05 Z" />
<path fill="#ffffff" opacity="1.00" d=" M 219.58 464.17 C 223.20 463.68 227.37 463.33 230.37 465.86 C 226.75 465.84 222.87 465.91 219.58 464.17 Z" />
</svg>
