<?xml version="1.0" encoding="UTF-8" ?>
<!DOCTYPE svg PUBLIC "-//W3C//DTD SVG 1.1//EN" "http://www.w3.org/Graphics/SVG/1.1/DTD/svg11.dtd">
<svg width="1225pt" height="647pt" viewBox="0 0 1225 647" version="1.1" xmlns="http://www.w3.org/2000/svg">

<path fill="#ffffff" opacity="1.00" d=" M 600.42 305.38 C 624.76 305.97 650.57 304.96 670.70 321.27 C 684.21 318.22 684.29 338.84 696.66 335.52 C 705.11 338.28 718.91 347.34 724.18 338.28 C 736.75 346.91 755.88 348.48 762.40 364.64 C 777.33 377.66 784.50 395.56 798.29 409.72 C 818.80 428.87 834.14 452.71 850.86 475.12 C 870.87 501.24 896.99 523.39 911.93 552.98 C 902.99 559.06 897.44 547.81 889.60 545.29 C 879.06 541.29 874.42 526.98 862.17 527.80 C 839.78 503.98 809.59 490.43 783.84 470.59 C 773.65 475.21 764.29 468.64 757.58 461.45 C 748.31 461.70 738.71 458.36 733.61 450.28 C 723.81 452.69 713.56 448.92 707.88 440.41 C 698.19 444.55 687.67 437.43 682.37 429.66 C 674.13 429.77 660.81 429.04 659.43 418.34 C 650.86 419.59 642.46 419.57 635.07 414.98 C 603.57 442.70 557.68 443.75 518.39 437.13 C 515.11 455.74 501.98 469.80 496.64 487.76 C 480.35 508.87 468.68 536.33 446.03 551.18 C 448.48 533.74 470.82 519.30 468.02 502.01 C 439.86 523.75 420.18 556.85 391.17 578.07 C 387.38 570.23 396.52 564.21 400.61 558.64 C 415.57 539.06 435.23 522.62 447.14 500.96 C 431.29 506.89 420.08 523.10 407.44 534.46 C 392.38 549.43 377.24 564.49 359.97 576.86 C 358.30 571.60 361.49 563.51 366.87 563.81 C 372.72 546.40 390.07 537.17 401.86 523.89 C 410.50 515.14 419.62 506.18 425.96 495.71 C 403.51 511.29 384.55 531.13 363.73 548.73 C 358.00 553.92 355.43 545.38 359.01 541.88 C 350.15 544.17 344.15 554.26 335.06 556.98 C 333.05 556.75 332.62 555.39 334.05 554.02 C 339.71 545.82 348.12 539.96 353.54 531.53 C 354.96 529.36 356.12 524.59 356.16 529.95 C 359.36 528.12 362.63 521.10 356.28 523.24 C 346.96 530.61 337.46 537.90 327.90 545.01 C 323.63 545.31 323.22 541.50 326.25 539.25 C 332.41 532.63 338.30 525.77 344.33 519.05 C 340.59 516.32 330.24 526.32 331.31 518.01 C 331.39 512.72 340.23 508.51 335.31 503.70 C 330.99 498.27 338.34 492.74 336.03 487.11 C 333.17 480.30 341.66 475.38 339.46 468.53 C 334.93 457.88 350.49 451.18 343.82 441.32 C 344.08 434.98 351.69 430.98 355.14 425.95 C 350.33 426.41 345.82 431.37 341.02 428.83 C 343.26 420.71 352.41 417.47 358.10 411.92 C 354.09 413.02 350.01 413.88 345.85 414.00 C 351.74 406.35 361.61 404.21 369.40 399.18 C 365.44 399.23 361.67 400.38 357.78 400.93 C 364.81 395.61 373.98 394.09 381.33 389.34 C 389.50 377.42 406.15 378.28 417.22 370.18 C 426.94 362.46 439.59 361.01 450.33 355.20 C 428.81 353.12 408.49 365.29 386.83 365.00 C 400.32 339.28 438.16 356.79 458.42 340.42 C 474.91 338.89 492.06 338.12 507.03 330.09 C 539.16 327.32 567.61 306.19 600.42 305.38 M 472.55 342.22 C 474.52 345.88 476.98 339.71 472.55 342.22 M 692.13 388.92 C 689.30 393.49 696.91 403.03 687.95 397.97 C 687.96 407.22 694.27 417.38 703.01 420.79 C 704.35 409.91 700.89 395.93 692.13 388.92 M 400.53 475.46 C 394.24 480.58 386.95 484.69 381.87 491.14 C 388.89 489.32 398.43 479.33 400.53 475.46 M 405.24 493.09 C 395.85 500.19 380.43 504.55 378.34 517.40 C 388.95 511.85 397.10 501.83 405.24 493.09 Z" />




<path fill="#ffffff" opacity="1.00" d=" M 355.10 545.26 C 358.37 545.44 353.56 548.29 355.10 545.26 Z" />
</svg>
