<?xml version="1.0" encoding="UTF-8" ?>
<!DOCTYPE svg PUBLIC "-//W3C//DTD SVG 1.1//EN" "http://www.w3.org/Graphics/SVG/1.1/DTD/svg11.dtd">
<svg width="1225pt" height="647pt" viewBox="0 0 1225 647" version="1.1" xmlns="http://www.w3.org/2000/svg">

<path fill="#ffffff" opacity="1.00" d=" M 499.50 297.39 C 513.96 297.29 526.96 304.83 539.39 311.45 C 549.15 308.35 553.81 321.51 563.84 316.78 C 587.98 304.92 615.87 311.36 640.50 306.30 C 653.93 306.13 666.16 321.42 678.96 311.91 C 683.70 308.05 690.32 313.09 695.73 311.97 C 693.63 302.84 701.30 309.88 704.57 311.30 C 724.35 312.00 733.27 332.01 742.82 346.19 C 752.84 359.38 755.33 377.66 768.57 388.45 C 791.36 420.00 798.85 458.25 813.26 493.83 C 815.94 504.79 822.31 514.33 824.83 525.13 C 833.34 535.65 811.93 534.40 818.34 543.61 C 823.63 546.85 813.65 547.83 814.66 543.51 C 817.56 541.13 812.64 539.28 811.31 537.66 C 795.17 528.06 791.79 505.87 774.99 497.01 C 764.68 488.09 754.38 478.74 743.00 471.07 C 732.83 470.20 724.77 463.63 721.77 454.02 C 711.70 458.74 701.97 449.81 699.64 440.20 C 694.89 439.90 688.40 444.85 685.70 438.25 C 685.19 428.44 685.94 417.30 690.32 408.25 C 695.72 406.60 699.57 417.36 699.78 420.76 C 698.16 413.46 710.15 422.28 706.01 412.00 C 703.92 402.74 701.83 388.30 692.07 384.90 C 692.12 391.06 700.09 401.95 690.22 394.76 C 693.82 405.84 683.57 404.75 676.24 404.14 C 672.36 412.17 678.97 426.85 666.07 427.05 C 659.29 424.13 651.62 420.26 651.40 411.50 C 649.56 406.22 643.47 410.43 640.99 413.00 C 625.86 427.59 607.30 439.49 585.89 440.87 C 562.12 443.06 537.55 445.81 514.32 439.26 C 509.20 452.13 503.75 468.74 503.72 483.70 C 496.83 490.91 489.00 495.62 480.61 500.59 C 468.33 499.06 459.60 508.10 452.50 516.43 C 449.01 524.30 445.89 532.60 440.06 539.10 C 437.01 527.96 447.77 518.98 448.93 508.16 C 445.58 504.87 439.87 508.00 439.02 512.01 C 430.39 526.09 423.92 543.43 414.37 555.88 C 409.94 539.50 425.52 525.51 429.20 510.09 C 425.00 512.35 422.05 516.04 420.82 520.71 C 418.21 529.98 409.37 536.70 409.75 546.90 C 400.77 548.32 409.54 532.47 407.35 530.35 C 403.21 536.38 396.99 541.45 393.33 549.14 C 394.81 555.34 387.79 545.95 383.89 549.98 C 391.15 543.93 392.05 531.90 397.09 523.88 C 389.11 527.19 387.96 538.72 381.52 544.43 C 382.96 552.10 372.75 553.60 371.04 560.00 C 370.06 563.51 367.59 565.93 363.86 566.04 C 366.72 555.03 375.96 546.53 377.74 535.10 C 374.73 533.73 370.98 532.82 371.39 528.69 C 379.85 506.31 372.48 480.28 379.43 457.91 C 381.03 451.12 389.62 442.88 379.58 438.49 C 373.86 435.80 380.64 430.77 380.67 426.66 C 383.76 419.31 366.88 430.77 372.37 420.43 C 381.31 409.12 393.08 399.74 401.33 388.13 C 390.19 394.09 382.59 406.89 369.90 409.10 C 382.19 395.88 397.96 385.96 409.31 372.08 C 399.32 376.86 391.48 385.85 380.89 389.17 C 386.87 383.00 395.47 379.54 400.05 372.01 C 397.56 372.42 390.48 375.73 392.57 370.60 C 399.03 356.54 415.35 354.39 427.78 348.78 C 431.47 341.17 417.11 344.35 413.83 339.96 C 427.65 325.10 449.58 322.18 468.10 316.16 C 480.96 314.57 488.57 303.00 499.50 297.39 M 703.22 361.36 C 694.38 365.75 702.49 376.93 704.31 383.03 C 712.05 381.40 710.36 363.61 703.22 361.36 M 703.02 390.93 C 703.69 393.37 702.64 400.38 706.33 397.31 C 708.82 394.56 705.34 392.13 703.02 390.93 M 706.10 399.26 C 704.56 402.29 709.37 399.44 706.10 399.26 M 491.18 435.51 C 483.64 439.89 486.31 453.89 479.80 460.86 C 472.72 468.21 485.17 474.13 491.72 473.80 C 501.90 465.10 503.55 451.24 509.82 440.12 C 505.07 435.14 497.29 436.83 491.18 435.51 M 459.30 475.27 C 451.17 481.46 464.70 484.69 459.30 475.27 M 475.12 478.13 C 469.34 490.37 485.13 484.83 487.78 480.15 C 484.16 477.89 479.31 478.56 475.12 478.13 M 484.38 487.41 C 482.14 487.39 477.35 491.48 481.96 491.02 C 484.38 492.18 488.12 485.57 484.38 487.41 M 451.30 490.18 C 447.86 492.59 440.84 504.66 449.15 501.20 C 454.66 500.78 459.24 489.42 451.30 490.18 Z" />








<path fill="#ffffff" opacity="1.00" d=" M 824.61 547.40 C 831.07 545.45 834.36 557.16 834.01 562.09 C 826.20 561.74 813.82 552.10 824.61 547.40 Z" />
<path fill="#ffffff" opacity="1.00" d=" M 392.27 553.15 C 403.77 555.67 389.31 566.90 387.08 573.17 C 382.65 566.42 387.79 558.38 392.27 553.15 Z" />
<path fill="#ffffff" opacity="1.00" d=" M 405.22 567.08 C 413.34 565.94 397.76 580.44 405.22 567.08 Z" />
</svg>
