<?xml version="1.0" encoding="UTF-8" ?>
<!DOCTYPE svg PUBLIC "-//W3C//DTD SVG 1.1//EN" "http://www.w3.org/Graphics/SVG/1.1/DTD/svg11.dtd">
<svg width="1225pt" height="647pt" viewBox="0 0 1225 647" version="1.1" xmlns="http://www.w3.org/2000/svg">

<path fill="#ffffff" opacity="1.00" d=" M 532.38 252.57 C 544.67 253.51 547.07 269.38 553.72 278.19 C 556.72 283.49 559.12 289.07 561.35 294.72 C 588.00 305.25 609.21 279.95 635.82 280.78 C 641.93 273.37 653.25 270.82 657.89 263.80 C 668.12 263.51 682.14 256.83 687.61 270.35 C 699.93 289.50 695.46 313.45 700.27 334.67 C 706.98 348.03 709.96 363.82 704.12 378.06 C 702.72 387.84 692.25 367.13 695.50 380.50 C 695.88 382.51 700.39 389.80 696.41 386.53 C 687.11 385.06 696.13 398.55 698.94 400.99 C 693.60 410.18 693.02 421.13 688.08 430.54 C 689.05 435.52 686.78 446.41 680.48 445.80 C 680.49 441.83 674.91 442.13 675.50 446.17 C 671.96 435.46 675.18 423.45 671.54 412.64 C 667.72 410.60 666.20 406.47 663.82 403.13 C 644.65 410.88 635.75 431.69 616.26 439.13 C 586.59 450.95 553.73 452.65 522.21 450.09 C 520.88 465.37 514.65 480.19 516.67 495.67 C 508.39 509.59 492.73 511.34 481.24 522.15 C 475.45 523.72 471.76 536.02 466.53 526.55 C 457.51 528.90 461.85 518.36 469.20 520.13 C 480.48 513.56 461.21 508.13 463.59 499.71 C 469.45 496.93 476.06 511.63 479.21 503.14 C 481.80 482.31 484.73 460.70 479.92 440.06 C 472.70 428.81 490.32 426.95 494.02 419.06 C 492.14 412.78 483.30 414.83 480.86 409.20 C 483.85 409.17 492.26 409.51 491.01 404.10 C 489.29 399.75 481.92 398.58 482.38 393.37 C 478.59 382.79 465.90 379.27 455.16 378.27 C 440.71 382.26 427.54 389.86 413.17 394.23 C 397.96 407.35 385.97 424.65 371.04 437.67 C 361.19 432.14 359.45 448.00 350.67 446.33 C 343.82 436.84 352.06 428.54 357.04 421.11 C 367.54 407.17 374.43 390.92 384.68 376.76 C 389.23 364.60 405.25 359.10 405.31 345.16 C 414.45 328.25 432.73 319.99 448.25 310.29 C 451.79 304.45 449.83 294.80 459.80 294.57 C 478.05 289.31 494.36 278.82 509.01 267.00 C 514.58 259.38 522.91 253.78 532.38 252.57 M 482.32 317.25 C 473.07 323.76 464.28 331.21 456.54 339.45 C 451.53 350.87 442.19 360.60 436.27 370.70 C 453.06 377.83 465.03 360.41 481.10 359.09 C 494.08 355.23 505.86 348.39 518.38 343.38 C 523.68 340.30 513.91 341.05 511.96 339.04 C 500.89 333.82 496.00 316.74 482.32 317.25 M 684.36 430.13 C 683.72 434.13 688.34 429.34 684.36 430.13 M 496.43 449.25 C 487.19 456.56 486.42 469.00 487.91 480.01 C 491.29 484.14 498.08 488.87 503.62 488.67 C 515.35 481.72 512.81 462.70 519.26 454.68 C 515.75 445.98 503.38 452.35 496.43 449.25 M 487.02 490.97 C 481.03 502.25 499.43 503.61 499.95 495.20 C 496.05 492.87 491.00 493.41 487.02 490.97 Z" />
<path fill="#ffffff" opacity="1.00" d=" M 691.10 272.26 C 694.37 272.44 689.56 275.29 691.10 272.26 Z" />




</svg>
