<?xml version="1.0" encoding="UTF-8" ?>
<!DOCTYPE svg PUBLIC "-//W3C//DTD SVG 1.1//EN" "http://www.w3.org/Graphics/SVG/1.1/DTD/svg11.dtd">
<svg width="1225pt" height="647pt" viewBox="0 0 1225 647" version="1.1" xmlns="http://www.w3.org/2000/svg">

<path fill="#ffffff" opacity="1.00" d=" M 647.33 114.46 C 657.41 116.04 668.65 113.94 675.81 123.18 C 683.76 131.54 687.02 142.80 692.29 152.76 C 695.95 157.34 702.46 156.81 706.79 160.21 C 713.62 170.76 713.76 184.63 709.49 196.20 C 712.43 206.06 721.52 212.99 723.66 223.35 C 727.80 237.26 718.27 252.26 705.22 257.16 C 684.00 264.74 667.93 282.24 656.06 300.90 C 668.73 298.40 679.58 305.85 683.84 318.12 C 692.88 324.54 693.79 334.98 692.78 345.13 C 697.83 351.68 699.61 359.30 702.07 367.06 C 699.32 365.38 697.01 362.99 693.98 361.82 C 693.15 366.23 697.33 369.12 698.13 373.17 C 695.15 372.13 693.03 369.39 689.84 368.88 C 691.54 372.30 694.02 375.54 693.95 379.57 C 687.58 381.25 681.27 379.03 675.23 377.11 C 668.13 393.18 651.64 401.86 642.88 416.86 C 622.16 445.58 585.75 449.11 553.88 455.76 C 548.83 458.00 535.77 450.90 537.95 462.01 C 537.38 474.44 531.83 486.21 532.29 498.69 C 535.26 507.45 527.12 520.10 518.14 520.76 C 515.31 524.87 511.38 528.57 506.05 528.09 C 507.72 525.18 506.96 522.00 506.37 518.92 C 493.23 521.19 496.17 542.24 482.11 543.22 C 487.55 536.89 476.16 542.47 476.22 537.91 C 470.73 532.77 483.40 532.47 483.92 526.88 C 488.86 519.76 474.33 524.72 477.33 517.21 C 467.27 511.25 482.83 512.02 486.74 515.69 C 495.64 504.72 488.94 485.63 490.91 472.04 C 487.75 462.78 489.99 452.47 484.03 444.16 C 489.11 439.30 496.85 434.40 499.73 428.27 C 498.13 426.94 485.25 425.55 492.87 422.88 C 501.20 419.93 493.78 407.55 486.06 410.81 C 467.62 411.91 445.71 407.90 430.92 421.93 C 427.19 424.28 420.06 430.47 418.05 423.06 C 436.52 409.47 459.14 401.26 476.84 387.05 C 469.88 381.91 484.92 380.91 487.05 375.02 C 499.17 363.69 513.51 355.43 527.23 346.12 C 516.22 344.74 503.38 347.94 493.96 339.04 C 488.61 333.75 484.91 326.70 483.60 319.28 C 472.54 314.67 467.18 303.07 455.52 299.45 C 446.05 284.68 426.69 287.95 415.13 275.85 C 407.76 261.20 394.83 247.90 395.40 230.62 C 387.23 223.04 378.19 215.62 369.55 208.48 C 363.15 199.45 348.37 195.54 347.94 183.19 C 352.06 185.03 360.08 181.48 352.41 180.56 C 357.29 179.31 375.23 175.95 377.69 184.49 C 398.93 205.99 428.22 220.82 457.41 230.61 C 465.24 227.36 459.03 242.45 465.82 237.87 C 472.78 231.96 474.04 246.15 481.97 243.11 C 491.64 244.74 493.12 258.03 503.50 257.03 C 508.92 261.97 514.35 274.05 523.33 270.68 C 532.79 272.87 531.59 291.26 542.97 287.11 C 549.15 288.65 547.75 300.85 555.67 298.90 C 559.86 286.20 558.88 268.35 571.70 260.69 C 581.54 245.22 588.66 226.96 603.36 216.46 C 605.67 210.13 613.11 207.13 614.46 200.27 C 615.28 191.46 616.44 182.36 618.97 173.95 C 625.76 164.91 619.13 156.39 617.93 147.14 C 637.43 150.19 614.01 140.17 619.18 132.16 C 624.07 133.88 628.92 135.88 634.03 137.03 C 630.68 132.78 626.75 128.60 626.16 122.97 C 629.82 121.95 640.19 126.15 638.26 119.02 C 639.56 116.15 644.37 115.62 647.33 114.46 M 524.49 456.60 C 517.99 459.29 511.17 456.14 504.46 457.23 C 488.18 472.18 500.25 495.76 497.10 514.74 C 499.60 518.15 501.00 511.84 504.14 512.26 C 509.14 513.62 522.55 503.95 511.64 505.44 C 504.24 507.75 507.30 495.17 499.67 498.52 C 504.40 489.89 513.35 500.39 519.74 499.89 C 528.52 491.85 528.22 478.55 532.20 468.05 C 534.86 462.32 533.41 451.60 524.49 456.60 M 516.49 511.51 C 513.37 513.32 510.24 515.27 507.77 517.93 C 512.03 519.52 519.67 511.41 516.49 511.51 Z" />


</svg>
