<?xml version="1.0" encoding="UTF-8" ?>
<!DOCTYPE svg PUBLIC "-//W3C//DTD SVG 1.1//EN" "http://www.w3.org/Graphics/SVG/1.1/DTD/svg11.dtd">
<svg width="1225pt" height="647pt" viewBox="0 0 1225 647" version="1.1" xmlns="http://www.w3.org/2000/svg">

<path fill="#ffffff" opacity="1.00" d=" M 603.46 279.52 C 622.27 277.85 642.17 280.25 658.43 290.48 C 670.28 287.76 675.20 298.44 681.39 305.56 C 694.97 307.72 708.51 310.63 721.93 312.86 C 736.87 309.66 751.98 311.44 767.01 309.97 C 799.00 294.80 832.42 308.78 864.98 311.98 C 877.37 308.49 886.47 320.34 898.99 316.92 C 910.83 318.00 898.79 316.86 895.66 318.77 C 905.25 320.32 917.71 316.57 923.56 326.50 C 931.32 324.51 934.48 329.04 934.49 335.72 C 931.10 338.95 927.30 341.70 923.86 344.87 C 932.84 349.65 923.11 359.72 915.71 358.80 C 894.39 364.46 870.73 368.08 849.55 359.49 C 831.24 363.27 813.77 354.69 796.04 350.88 C 776.76 345.45 756.56 346.52 737.62 340.38 C 722.28 337.90 706.97 331.01 691.62 330.69 C 690.08 338.01 702.00 342.68 700.01 351.08 C 701.07 356.68 689.30 343.71 694.43 354.51 C 696.12 357.51 698.54 360.03 700.08 363.13 C 696.73 360.65 692.78 359.23 688.89 357.86 C 692.73 360.71 697.09 368.14 689.77 369.42 C 680.57 368.07 667.05 363.22 661.96 373.91 C 655.05 374.80 646.22 375.57 644.29 384.30 C 624.45 421.32 579.53 427.23 543.24 436.30 C 541.50 451.46 541.21 467.25 541.66 482.52 C 544.68 493.01 540.60 507.76 529.88 511.84 C 528.37 514.56 522.47 522.10 521.20 515.84 C 516.47 507.38 530.05 506.73 530.08 498.86 C 524.63 501.25 521.75 507.54 516.43 510.48 C 512.46 512.87 516.18 519.64 511.55 521.45 C 505.56 522.67 506.89 532.39 500.22 532.12 C 502.99 526.58 496.58 526.74 493.31 528.85 C 487.61 520.92 502.45 519.87 501.06 510.60 C 497.08 510.17 492.74 510.51 493.10 505.83 C 482.91 499.36 500.15 503.67 503.82 501.83 C 506.69 476.84 499.24 449.95 491.10 427.32 C 496.87 423.96 500.42 418.35 503.95 412.84 C 504.48 407.53 496.41 408.76 493.10 406.84 C 486.53 406.19 501.94 397.08 489.06 401.10 C 470.97 405.81 455.59 417.40 443.16 431.10 C 415.11 454.39 378.99 469.41 342.22 467.76 C 337.09 460.83 326.51 466.05 322.49 458.52 C 312.51 455.54 298.62 458.15 291.17 448.59 C 275.88 445.12 260.26 450.52 244.93 446.87 C 251.49 439.63 259.12 434.47 268.65 431.61 C 315.95 398.62 378.35 396.69 428.22 367.65 C 425.11 367.13 418.06 364.30 422.95 361.00 C 450.67 352.09 478.50 343.67 506.01 334.00 C 516.95 327.25 525.51 316.01 538.62 312.53 C 555.39 294.63 579.04 282.88 603.46 279.52 M 533.37 436.43 C 526.88 440.36 519.27 439.67 512.27 441.27 C 500.44 454.35 510.37 471.66 510.24 486.70 C 517.44 486.03 529.08 493.28 532.04 483.04 C 536.03 471.66 536.77 459.35 537.41 447.39 C 536.85 443.74 537.89 436.03 533.37 436.43 M 512.02 490.97 C 511.45 495.98 511.72 504.26 518.69 502.74 C 522.07 500.39 532.47 492.46 521.61 495.57 C 515.13 499.82 517.32 489.23 512.02 490.97 M 499.26 520.10 C 499.44 523.37 502.29 518.56 499.26 520.10 Z" />



</svg>
