<?xml version="1.0" encoding="UTF-8" ?>
<!DOCTYPE svg PUBLIC "-//W3C//DTD SVG 1.1//EN" "http://www.w3.org/Graphics/SVG/1.1/DTD/svg11.dtd">
<svg width="1225pt" height="647pt" viewBox="0 0 1225 647" version="1.1" xmlns="http://www.w3.org/2000/svg">

<path fill="#ffffff" opacity="1.00" d=" M 600.47 271.51 C 618.07 269.63 636.85 272.62 652.13 281.85 C 657.60 288.42 668.05 282.67 672.45 290.62 C 676.80 299.07 687.93 309.47 698.04 303.96 C 705.34 308.45 714.71 309.34 722.83 313.32 C 731.27 311.43 738.00 322.87 746.05 316.96 C 753.15 323.50 763.96 324.15 771.43 330.56 C 773.71 332.99 776.93 330.70 779.71 331.20 C 787.43 342.61 802.51 342.72 813.41 349.53 C 844.66 356.39 876.41 359.90 907.98 366.05 C 918.16 372.22 930.05 369.06 941.27 369.33 C 937.61 370.38 924.75 374.77 936.99 375.01 C 940.67 374.97 965.55 373.77 950.67 377.70 C 947.65 378.34 944.84 379.62 941.91 380.51 C 948.51 385.02 956.92 380.70 964.24 382.02 C 927.93 393.98 887.56 388.12 852.75 373.26 C 849.11 371.45 849.76 378.63 846.15 376.87 C 827.20 370.32 809.31 361.01 790.82 353.28 C 761.94 352.40 732.93 350.07 704.09 352.79 C 700.43 350.23 698.26 344.43 692.89 344.92 C 693.97 349.61 697.41 353.20 699.84 357.21 C 696.27 355.22 692.61 353.34 688.68 352.15 C 690.35 355.32 693.81 357.70 693.81 361.60 C 685.11 366.09 674.36 358.57 665.48 363.49 C 662.42 365.66 660.57 370.04 655.94 369.03 C 640.08 371.38 637.05 391.32 624.09 399.09 C 600.72 415.71 571.56 422.46 544.19 429.17 C 541.57 443.85 543.25 460.36 543.42 475.65 C 548.60 486.55 544.06 501.68 533.30 507.25 C 532.51 511.19 523.95 517.91 525.36 510.35 C 520.39 502.58 534.24 500.88 533.06 492.89 C 529.00 498.73 521.80 502.41 518.78 508.86 C 519.84 516.73 510.29 517.81 509.60 525.61 C 501.73 531.84 509.62 516.73 500.46 522.49 C 495.77 526.21 500.86 518.95 496.10 519.59 C 498.77 515.74 513.58 503.84 500.04 504.95 C 496.10 505.47 499.28 498.35 494.63 499.17 C 493.95 494.20 501.83 496.89 505.04 497.98 C 511.32 497.79 508.44 488.92 508.91 485.04 C 506.49 470.69 506.60 455.42 500.03 442.12 C 498.97 439.58 500.20 434.79 496.41 436.22 C 489.45 448.12 497.17 462.43 491.59 474.64 C 489.15 482.08 484.49 488.85 477.26 492.12 C 466.56 505.02 452.09 515.00 435.63 518.71 C 428.38 521.97 421.96 516.02 415.39 513.88 C 403.74 508.80 390.89 519.14 379.20 513.85 C 366.58 513.42 353.23 512.33 340.85 515.86 C 335.50 520.23 343.17 504.85 333.98 511.06 C 330.83 510.73 327.06 511.74 324.27 509.66 C 330.02 504.44 318.18 508.19 315.57 507.55 C 306.86 510.37 295.67 507.26 298.03 496.12 C 309.96 486.81 307.61 467.59 322.70 460.72 C 322.40 451.83 329.91 447.57 334.70 440.69 C 348.65 434.37 361.26 423.89 375.80 417.68 C 410.74 402.60 440.25 378.25 468.32 354.34 C 493.16 334.04 522.35 319.93 545.66 297.65 C 560.42 283.26 580.38 274.99 600.47 271.51 M 686.36 350.14 C 685.72 354.13 690.34 349.34 686.36 350.14 M 533.45 430.49 C 527.92 434.24 521.25 433.98 514.93 434.90 C 502.72 447.39 513.03 465.78 514.19 480.76 C 520.03 482.73 530.84 487.58 533.81 478.84 C 539.05 464.82 539.39 449.18 537.55 434.44 C 537.25 432.29 536.27 428.55 533.45 430.49 M 515.98 486.95 C 512.40 498.30 527.01 500.19 529.12 490.04 C 523.53 491.33 519.44 490.19 515.98 486.95 M 503.42 514.13 C 503.52 519.08 508.53 512.47 503.42 514.13 Z" />




</svg>
