<?xml version="1.0" encoding="UTF-8" ?>
<!DOCTYPE svg PUBLIC "-//W3C//DTD SVG 1.1//EN" "http://www.w3.org/Graphics/SVG/1.1/DTD/svg11.dtd">
<svg width="1225pt" height="647pt" viewBox="0 0 1225 647" version="1.1" xmlns="http://www.w3.org/2000/svg">

<path fill="#ffffff" opacity="1.00" d=" M 568.24 158.66 C 580.02 159.60 591.08 164.26 602.75 164.17 C 608.76 164.60 610.54 174.03 616.92 169.88 C 623.61 168.89 631.55 173.05 636.75 176.24 C 641.96 197.28 617.36 208.89 614.78 228.82 C 612.11 245.30 606.53 261.57 607.60 278.49 C 603.92 292.03 620.87 291.67 629.68 294.53 C 640.86 289.10 647.57 301.16 653.48 308.38 C 663.54 311.40 665.51 322.46 664.30 331.72 C 669.91 336.62 674.35 346.59 675.44 351.55 C 664.72 346.27 672.06 356.88 676.10 361.18 C 670.91 360.19 666.81 356.56 661.92 354.82 C 664.61 358.57 675.36 364.73 666.69 368.68 C 657.70 366.86 646.54 367.43 643.39 377.54 C 629.02 381.49 627.07 397.91 617.19 407.20 C 595.10 432.10 561.01 438.84 530.13 446.23 C 530.86 463.47 526.97 481.66 533.95 498.05 C 530.17 504.39 530.60 515.42 521.80 516.93 C 519.24 519.81 511.37 531.52 510.86 519.91 C 509.19 513.41 521.32 512.59 520.21 504.94 C 513.24 508.16 510.25 517.15 502.03 518.08 C 500.96 507.74 515.28 509.62 517.14 500.91 C 511.78 502.66 505.70 504.65 504.82 497.05 C 494.91 502.12 504.38 489.69 510.35 494.64 C 522.91 500.55 524.94 481.49 525.23 473.15 C 524.26 464.56 527.57 454.98 524.06 446.93 C 513.48 443.75 502.05 449.75 490.98 448.44 C 485.83 447.92 483.01 452.73 480.38 456.44 C 477.52 472.14 482.63 487.56 484.02 503.04 C 486.96 510.35 495.93 525.90 484.86 529.91 C 483.33 531.95 484.54 539.29 480.34 538.87 C 480.02 535.49 473.43 533.68 476.69 530.74 C 485.94 519.58 463.81 519.05 465.85 510.97 C 484.73 511.33 475.01 488.33 476.33 477.51 C 478.94 468.33 473.49 460.47 470.62 452.19 C 474.77 444.41 458.22 438.05 468.42 432.49 C 474.46 428.59 484.99 415.82 471.16 415.80 C 478.64 407.83 468.08 402.11 465.85 395.15 C 461.94 389.39 454.16 390.93 448.37 392.24 C 437.56 394.60 425.87 392.37 415.82 397.78 C 405.55 402.83 396.96 412.80 385.22 413.92 C 382.40 408.91 388.74 405.77 392.11 403.11 C 410.97 393.96 430.58 385.90 447.84 373.79 C 456.44 369.06 444.84 372.15 441.79 372.80 C 460.37 363.66 474.37 346.90 494.08 340.03 C 500.14 335.61 508.09 332.51 512.33 326.15 C 494.30 328.15 471.65 323.74 464.16 304.89 C 463.65 294.71 451.38 292.23 449.88 282.10 C 448.08 275.36 439.03 274.68 436.80 268.20 C 434.37 261.83 433.43 251.92 424.11 252.71 C 414.15 254.23 410.56 244.20 415.43 237.38 C 423.94 226.65 423.79 212.17 423.94 199.15 C 422.10 195.76 419.52 192.08 415.34 191.68 C 400.35 189.52 385.34 187.22 370.19 186.70 C 368.52 186.28 365.61 186.61 365.86 184.13 C 382.01 183.77 398.27 181.78 414.39 183.59 C 422.85 185.80 421.58 172.18 428.97 170.93 C 441.09 167.21 455.52 164.36 466.53 172.56 C 481.11 183.74 499.18 188.74 514.89 197.82 C 523.40 195.32 532.45 187.51 527.03 178.05 C 524.92 173.44 520.69 169.56 520.26 164.37 C 534.70 156.19 552.47 160.43 568.24 158.66 Z" />
<path fill="#ffffff" opacity="1.00" d=" M 475.24 526.06 C 472.20 528.51 474.35 538.03 470.12 532.86 C 466.44 529.29 473.14 527.98 475.24 526.06 Z" />
</svg>
