<?xml version="1.0" encoding="UTF-8" ?>
<!DOCTYPE svg PUBLIC "-//W3C//DTD SVG 1.1//EN" "http://www.w3.org/Graphics/SVG/1.1/DTD/svg11.dtd">
<svg width="1225pt" height="647pt" viewBox="0 0 1225 647" version="1.1" xmlns="http://www.w3.org/2000/svg">

<path fill="#ffffff" opacity="1.00" d=" M 596.45 85.49 C 618.85 80.12 635.28 99.24 645.42 116.57 C 659.72 122.59 671.58 134.64 671.81 151.05 C 665.88 174.41 697.51 184.55 692.87 207.84 C 691.70 221.01 680.37 228.14 669.99 233.99 C 652.24 241.00 641.28 257.63 630.56 272.59 C 626.61 279.73 615.61 292.12 629.58 294.39 C 642.97 288.40 648.66 303.58 656.74 310.36 C 668.80 314.29 661.18 328.58 668.01 336.01 C 675.33 341.31 673.81 350.23 680.03 356.27 C 677.02 354.63 675.55 350.75 671.96 350.11 C 664.88 351.68 682.94 363.10 673.84 360.10 C 667.64 356.38 671.21 364.08 671.97 367.51 C 661.75 369.71 646.87 364.00 642.33 377.29 C 640.27 382.09 634.20 379.08 630.92 381.89 C 622.65 393.64 615.64 406.85 604.10 416.13 C 582.69 432.96 554.60 436.42 529.68 444.70 C 530.14 463.89 524.98 484.43 531.98 503.00 C 528.89 508.93 528.02 515.97 524.59 521.62 C 519.08 522.22 516.69 527.42 512.61 530.64 C 508.22 534.78 509.39 524.99 508.05 522.26 C 513.75 519.74 517.50 514.72 519.09 508.86 C 511.26 512.62 507.66 522.95 498.09 524.18 C 499.92 515.74 506.68 513.69 512.68 508.79 C 516.18 505.43 510.46 507.97 508.59 508.52 C 503.51 511.27 504.42 502.23 498.98 503.61 C 500.52 496.72 510.06 501.35 514.79 500.78 C 526.59 491.18 519.74 474.33 525.36 461.97 C 524.19 456.35 523.25 450.65 521.70 445.13 C 509.20 444.65 497.85 450.13 485.33 450.20 C 472.40 466.43 482.55 488.04 482.36 506.68 C 486.75 514.45 486.05 523.67 489.06 531.96 C 489.13 539.61 477.40 526.96 482.30 537.95 C 483.60 541.26 478.93 549.06 476.53 543.45 C 469.64 538.41 480.68 530.65 476.87 525.05 C 471.34 526.04 474.19 544.62 467.52 539.45 C 463.35 535.49 470.94 533.28 471.55 529.44 C 476.43 522.82 463.89 523.83 463.08 518.05 C 463.68 511.74 473.66 518.48 474.02 511.05 C 476.13 491.19 474.32 470.35 469.03 450.99 C 469.08 445.38 460.67 440.70 465.42 435.40 C 471.72 432.55 473.12 425.23 478.78 421.65 C 479.20 416.03 470.40 416.84 468.19 414.15 C 472.52 411.99 476.52 404.49 469.73 402.25 C 463.06 390.89 448.62 397.63 437.88 398.60 C 420.26 398.51 401.62 400.19 387.04 411.02 C 384.70 413.82 375.44 410.12 382.99 407.98 C 403.79 396.99 424.49 385.74 443.99 372.51 C 442.85 371.51 441.38 371.03 440.01 370.46 C 458.57 360.67 473.16 343.64 493.71 337.64 C 495.57 336.71 501.57 332.31 496.55 332.46 C 481.30 336.42 462.58 331.57 456.41 315.62 C 454.54 303.27 441.19 301.36 434.87 292.11 C 421.07 287.08 411.90 274.13 396.89 272.05 C 370.24 264.45 359.14 236.55 348.69 214.29 C 334.46 201.82 320.82 188.82 307.98 175.04 C 292.20 163.11 283.05 144.19 264.99 135.02 C 256.56 133.76 263.93 115.24 258.83 123.11 C 259.05 113.13 275.08 113.57 280.66 119.30 C 292.62 129.59 307.02 136.72 317.11 148.89 C 335.43 155.96 349.03 169.96 361.58 184.41 C 372.92 186.50 377.90 198.81 388.48 202.66 C 397.15 206.21 404.80 211.33 413.60 214.39 C 417.42 219.40 427.67 216.03 426.63 225.04 C 431.28 222.80 436.42 222.99 438.24 228.75 C 447.65 229.69 455.65 235.45 461.13 242.96 C 470.71 241.08 472.88 253.15 481.81 254.23 C 487.90 257.60 496.95 257.53 499.84 266.14 C 501.42 272.13 506.73 272.23 511.71 270.26 C 514.75 276.60 525.93 293.07 530.92 279.83 C 530.90 269.66 536.17 261.04 536.98 250.96 C 554.66 231.00 561.15 203.19 579.84 184.60 C 582.52 184.28 578.77 181.11 578.52 179.54 C 572.75 162.51 588.55 142.44 576.10 126.85 C 572.47 118.45 579.95 121.72 584.25 121.73 C 579.84 116.68 572.62 113.02 572.79 105.14 C 579.38 106.69 585.27 110.77 592.15 111.09 C 586.11 107.44 581.60 101.82 578.05 95.81 C 583.22 94.18 588.73 95.71 593.99 96.05 C 588.20 92.27 588.46 85.23 596.45 85.49 M 663.24 355.48 C 663.54 360.42 668.47 354.98 663.24 355.48 Z" />

</svg>
