<?xml version="1.0" encoding="UTF-8" ?>
<!DOCTYPE svg PUBLIC "-//W3C//DTD SVG 1.1//EN" "http://www.w3.org/Graphics/SVG/1.1/DTD/svg11.dtd">
<svg width="1225pt" height="647pt" viewBox="0 0 1225 647" version="1.1" xmlns="http://www.w3.org/2000/svg">

<path fill="#ffffff" opacity="1.00" d=" M 696.48 129.56 C 706.44 128.14 716.72 130.13 722.40 139.55 C 740.35 144.41 731.72 168.73 738.40 180.56 C 754.00 188.33 742.58 209.23 731.98 217.13 C 728.76 232.27 734.16 252.29 716.94 260.92 C 693.77 276.06 657.25 269.22 639.02 292.57 C 652.01 295.88 656.75 310.51 667.21 317.82 C 664.18 333.68 678.12 342.23 682.26 356.01 C 679.27 354.11 676.80 350.69 672.90 350.93 C 672.94 355.28 678.07 357.28 678.37 361.70 C 673.98 359.47 669.35 357.78 664.80 355.94 C 669.47 359.12 673.25 362.32 674.74 368.08 C 665.77 371.13 647.84 364.41 641.92 376.85 C 638.71 382.76 628.45 377.62 625.89 384.95 C 612.84 410.01 587.61 427.59 560.36 431.33 C 550.26 435.79 537.50 435.56 529.17 443.34 C 531.03 462.51 524.60 482.76 531.95 501.07 C 532.02 507.48 527.55 512.72 527.11 519.11 C 526.92 522.80 523.28 524.97 520.40 522.28 C 518.73 526.81 516.16 531.43 511.35 533.19 C 504.35 522.77 518.88 518.84 520.13 508.93 C 511.81 510.88 509.62 523.65 499.97 524.98 C 500.13 516.01 510.14 515.54 513.33 508.33 C 507.46 511.82 503.76 505.99 499.90 505.82 C 502.15 497.07 516.35 506.90 518.96 496.96 C 524.65 479.03 526.88 459.50 521.72 441.14 C 509.61 441.84 498.51 446.74 486.32 447.31 C 475.18 466.86 481.40 492.65 487.43 513.45 C 486.84 519.66 495.57 540.15 483.36 532.78 C 485.18 536.49 483.41 544.95 479.73 545.41 C 470.16 538.96 481.26 531.91 478.99 523.89 C 471.76 525.75 476.80 539.27 469.24 540.98 C 463.48 533.36 477.84 531.21 473.26 523.89 C 464.22 522.74 461.14 511.88 473.74 513.74 C 480.94 491.88 474.06 467.10 469.77 445.16 C 465.97 440.90 462.11 433.55 469.85 430.70 C 471.86 425.20 487.51 415.37 473.93 413.21 C 459.81 412.13 478.19 407.30 474.55 400.58 C 443.58 402.74 412.88 407.78 381.75 409.74 C 400.53 396.42 420.94 385.20 439.42 371.47 C 442.60 368.25 433.27 372.24 436.50 369.40 C 456.08 358.70 471.60 340.74 493.37 334.30 C 478.32 336.50 460.37 332.85 451.63 319.38 C 439.36 318.20 431.10 306.12 418.14 308.80 C 402.57 300.67 384.64 299.67 367.36 299.54 C 348.43 295.75 335.57 277.71 315.17 278.71 C 305.47 268.31 323.19 248.54 334.34 258.62 C 344.62 260.51 344.55 278.44 351.57 276.62 C 344.44 274.63 351.48 274.65 355.62 275.16 C 354.76 280.03 361.96 280.73 362.70 276.28 C 387.82 276.72 412.69 292.77 438.03 285.04 C 462.22 286.64 485.85 292.10 509.95 292.02 C 522.53 292.57 536.73 308.00 545.93 291.90 C 543.12 285.13 549.04 280.48 553.61 276.64 C 551.59 264.68 564.64 260.42 573.59 257.59 C 585.50 249.05 589.70 233.12 602.96 226.07 C 611.11 215.64 627.71 209.39 627.29 194.16 C 630.05 181.28 644.22 177.64 648.24 166.25 C 654.11 162.55 651.77 152.30 661.14 152.22 C 668.02 154.83 665.53 147.37 666.78 142.79 C 668.21 138.00 673.98 140.65 677.70 140.61 C 679.13 137.55 679.43 134.00 681.28 131.14 C 686.37 129.81 691.86 133.16 696.48 129.56 Z" />
</svg>
