<?xml version="1.0" encoding="UTF-8" ?>
<!DOCTYPE svg PUBLIC "-//W3C//DTD SVG 1.1//EN" "http://www.w3.org/Graphics/SVG/1.1/DTD/svg11.dtd">
<svg width="1225pt" height="647pt" viewBox="0 0 1225 647" version="1.1" xmlns="http://www.w3.org/2000/svg">

<path fill="#ffffff" opacity="1.00" d=" M 589.46 256.52 C 608.50 253.76 627.84 259.89 643.46 270.57 C 647.18 275.18 652.63 278.95 658.85 277.36 C 664.21 279.00 666.14 284.60 669.46 288.57 C 678.47 291.54 688.33 287.58 697.34 290.62 C 705.29 300.47 723.12 289.91 731.10 296.56 C 742.67 296.13 753.31 301.77 764.90 301.18 C 770.43 301.50 761.40 305.66 765.15 306.78 C 786.93 316.83 802.78 335.76 825.00 345.00 C 847.90 355.69 868.54 370.36 887.97 386.04 C 910.47 399.80 934.71 410.33 958.02 422.59 C 947.52 424.56 937.66 415.91 927.69 413.06 C 941.95 424.68 960.66 430.34 976.36 439.88 C 958.24 439.37 943.13 427.20 926.59 421.22 C 940.79 433.93 959.70 440.31 975.35 450.90 C 953.25 449.74 936.34 431.80 915.88 425.84 C 929.19 436.73 944.84 444.47 958.31 454.97 C 936.37 452.61 920.38 433.12 899.88 425.96 C 909.65 436.42 923.27 442.94 932.33 453.78 C 913.30 450.08 900.71 432.72 883.70 425.09 C 888.15 433.17 897.48 437.05 902.11 445.08 C 891.71 445.36 883.83 433.57 874.01 435.03 C 854.46 425.68 832.80 426.09 813.15 415.84 C 799.92 406.43 785.48 422.37 771.82 411.37 C 761.12 417.06 749.70 406.29 739.52 411.52 C 731.40 415.58 724.15 406.44 716.49 410.38 C 705.30 415.05 696.01 402.64 685.17 407.32 C 678.90 409.38 674.23 402.42 668.11 402.01 C 656.70 410.69 644.03 395.65 631.15 400.66 C 620.65 397.99 610.40 392.72 599.66 392.62 C 587.47 402.54 570.71 404.46 559.20 415.20 C 559.19 422.70 569.36 423.58 573.06 428.96 C 582.02 443.13 593.59 457.97 588.46 476.25 C 582.47 487.72 591.44 500.04 588.97 512.01 C 587.36 528.98 588.33 546.55 585.27 563.15 C 580.52 563.38 577.15 557.55 572.46 556.40 C 566.42 548.76 573.23 536.47 567.05 528.93 C 564.26 526.84 559.49 528.33 558.80 531.86 C 552.62 550.48 546.98 569.17 540.74 587.69 C 534.72 595.11 527.20 584.44 524.00 578.94 C 521.39 574.36 524.16 566.45 516.65 566.25 C 532.68 566.13 515.34 563.60 510.38 566.42 C 505.34 570.39 498.36 568.27 492.48 569.27 C 492.14 573.28 485.19 573.44 487.91 568.92 C 480.68 574.73 475.85 582.93 468.58 588.78 C 466.02 589.56 459.85 589.28 459.13 586.05 C 462.45 577.21 468.88 569.17 470.02 559.80 C 465.82 564.90 457.87 561.85 452.34 565.38 C 444.13 572.10 436.01 579.09 429.72 587.71 C 427.84 591.91 420.31 596.20 417.98 590.90 C 421.14 578.77 431.44 570.14 437.42 559.35 C 439.88 557.37 440.85 550.11 436.48 551.21 C 435.96 556.01 425.82 555.33 430.87 550.69 C 418.60 558.02 411.05 570.09 399.06 577.96 C 392.57 568.82 405.20 560.58 403.99 550.96 C 398.71 551.64 393.54 553.29 388.17 552.98 C 386.16 546.44 389.79 530.14 378.03 531.43 C 379.61 514.41 358.97 503.11 365.43 487.52 C 357.18 480.28 353.15 469.34 361.81 460.87 C 359.95 449.21 354.49 435.39 365.37 426.37 C 379.22 411.10 401.08 406.28 417.86 394.85 C 420.38 392.85 435.27 389.14 426.91 387.02 C 421.39 385.76 434.45 382.02 430.74 379.06 C 412.52 381.70 393.87 379.83 375.96 377.72 C 375.10 372.11 382.56 371.71 385.93 368.90 C 401.96 360.29 417.81 351.36 434.03 343.05 C 437.72 341.55 435.50 336.02 440.01 335.04 C 460.75 327.55 477.08 311.04 498.64 305.58 C 529.59 289.72 552.71 259.39 589.46 256.52 M 681.84 338.05 C 681.43 342.32 685.22 345.14 686.15 349.04 C 682.85 347.73 679.74 345.98 676.74 344.09 C 681.97 352.29 684.59 364.18 695.93 365.83 C 700.20 356.17 691.43 341.80 681.84 338.05 Z" />

<path fill="#ffffff" opacity="1.00" d=" M 958.26 424.10 C 961.28 422.56 958.43 427.37 958.26 424.10 Z" />
<path fill="#ffffff" opacity="1.00" d=" M 502.17 576.17 C 506.80 575.15 501.15 580.80 502.17 576.17 Z" />
</svg>
