<?xml version="1.0" encoding="UTF-8" ?>
<!DOCTYPE svg PUBLIC "-//W3C//DTD SVG 1.1//EN" "http://www.w3.org/Graphics/SVG/1.1/DTD/svg11.dtd">
<svg width="1225pt" height="647pt" viewBox="0 0 1225 647" version="1.1" xmlns="http://www.w3.org/2000/svg">

<path fill="#ffffff" opacity="1.00" d=" M 599.48 256.54 C 617.94 256.63 638.07 260.93 651.78 274.26 C 660.55 273.10 669.31 280.40 677.55 273.65 C 686.18 277.41 697.74 275.45 705.98 271.05 C 715.77 274.52 727.17 269.64 736.07 276.87 C 759.38 291.77 770.30 320.29 794.98 333.03 C 803.77 344.75 814.92 354.38 824.07 365.75 C 823.88 374.42 832.22 378.91 838.00 384.01 C 851.48 397.63 863.29 412.81 876.86 426.14 C 879.91 432.73 892.70 437.41 885.50 445.40 C 877.85 442.97 879.85 456.87 884.87 451.30 C 884.46 455.55 893.04 460.59 887.92 463.01 C 880.97 462.18 876.14 451.43 868.83 454.75 C 863.01 460.21 858.08 450.97 852.44 453.26 C 852.77 462.09 841.03 449.92 840.76 458.82 C 824.80 457.70 807.82 454.22 794.55 445.58 C 783.85 444.98 776.03 437.10 767.96 431.04 C 760.46 415.11 744.63 441.02 733.37 431.55 C 727.37 425.58 716.10 433.68 711.32 425.46 C 704.49 425.44 695.86 430.45 691.50 422.24 C 676.69 426.46 666.38 410.57 651.30 413.74 C 645.37 403.82 629.80 414.94 624.29 403.76 C 618.53 400.44 607.13 404.15 603.87 395.17 C 602.44 388.32 595.83 395.79 592.25 397.17 C 582.65 404.44 569.12 404.14 560.19 412.18 C 568.00 425.08 570.35 441.41 567.25 455.83 C 569.83 468.23 573.88 480.57 573.38 493.39 C 571.62 518.56 576.62 543.63 574.81 568.80 C 571.66 570.81 568.66 568.68 567.34 565.67 C 562.12 545.73 566.45 520.81 553.02 504.06 C 548.93 527.77 546.98 557.21 543.99 583.04 C 542.12 594.67 543.03 607.43 536.76 617.87 C 523.96 602.03 534.32 578.58 532.22 560.05 C 533.66 542.64 535.05 525.04 533.41 507.63 C 532.78 503.58 529.79 509.32 530.96 510.98 C 518.31 551.32 512.71 593.49 500.68 633.99 C 498.54 631.45 494.22 629.67 494.15 626.01 C 496.58 591.72 507.03 558.47 507.99 524.09 C 508.13 521.77 503.89 520.74 504.00 524.00 C 492.55 549.84 486.60 577.80 477.46 604.43 C 474.94 609.36 476.28 619.86 470.55 620.66 C 460.24 604.37 473.60 584.91 476.45 567.77 C 479.66 554.41 482.75 540.78 482.83 526.99 C 468.60 536.13 469.50 555.42 462.66 569.39 C 459.92 579.50 456.01 589.31 451.73 598.87 C 438.43 603.27 442.16 585.11 446.12 579.13 C 450.71 566.39 454.84 553.44 459.50 540.53 C 464.26 528.86 450.94 536.34 450.33 542.22 C 444.60 552.28 445.72 564.33 438.62 573.63 C 436.52 578.27 425.18 576.52 425.54 570.21 C 427.86 556.96 414.25 550.54 411.70 539.17 C 399.67 520.06 391.09 498.92 392.88 476.18 C 385.44 465.77 375.73 451.78 384.07 439.14 C 390.29 429.49 387.49 415.57 398.04 408.02 C 405.07 399.45 413.00 391.46 419.62 382.66 C 420.47 378.96 425.61 372.45 420.24 370.75 C 406.65 368.68 392.15 371.01 378.86 366.54 C 398.86 355.65 419.97 346.74 440.07 336.04 C 444.23 334.65 437.96 332.93 439.58 331.74 C 460.86 324.44 478.39 308.89 500.38 303.41 C 533.40 287.01 559.91 256.30 599.48 256.54 M 682.04 336.78 C 683.69 341.87 691.95 353.67 682.56 346.45 C 683.05 348.63 683.00 357.86 687.50 360.53 C 690.41 362.50 700.19 368.75 697.84 362.09 C 695.66 353.06 692.28 339.55 682.04 336.78 M 508.22 376.14 C 501.26 390.64 491.12 404.99 489.37 421.14 C 493.58 419.06 502.40 409.43 495.96 406.01 C 498.50 406.85 500.71 406.63 501.33 403.70 C 505.11 395.02 517.60 382.28 508.22 376.14 M 537.85 399.13 C 538.03 401.48 538.59 403.79 539.21 406.08 C 542.28 403.47 543.16 398.86 537.85 399.13 M 541.20 407.25 C 537.49 410.01 544.95 409.93 541.20 407.25 M 542.26 413.10 C 542.44 416.37 545.29 411.56 542.26 413.10 M 544.99 413.76 C 547.68 418.71 554.59 423.75 559.02 421.07 C 555.16 418.68 549.41 416.53 544.99 413.76 M 507.03 436.12 C 499.95 437.95 498.93 444.69 499.05 450.82 C 506.86 454.09 512.83 437.70 507.03 436.12 M 518.45 467.15 C 519.40 470.84 522.10 464.95 518.45 467.15 M 513.92 471.05 C 513.86 473.85 515.64 476.21 516.39 478.83 C 522.16 476.67 522.99 466.98 513.92 471.05 Z" />


<path fill="#ffffff" opacity="1.00" d=" M 501.38 399.30 C 502.56 398.87 500.00 404.37 497.86 404.11 C 498.24 402.03 499.11 399.84 501.38 399.30 Z" />







<path fill="#ffffff" opacity="1.00" d=" M 446.61 606.18 C 452.20 605.09 447.74 611.64 446.61 606.18 Z" />
</svg>
