<?xml version="1.0" encoding="UTF-8" ?>
<!DOCTYPE svg PUBLIC "-//W3C//DTD SVG 1.1//EN" "http://www.w3.org/Graphics/SVG/1.1/DTD/svg11.dtd">
<svg width="1225pt" height="647pt" viewBox="0 0 1225 647" version="1.1" xmlns="http://www.w3.org/2000/svg">

<path fill="#ffffff" opacity="1.00" d=" M 674.13 248.08 C 684.56 252.24 696.96 244.48 705.67 254.31 C 724.20 268.89 735.34 289.91 750.78 307.19 C 766.93 318.85 776.33 337.40 785.46 354.62 C 783.56 364.98 793.06 372.73 795.60 382.30 C 808.47 418.21 826.68 453.20 832.17 490.97 C 821.74 485.84 815.39 476.49 811.10 465.83 C 796.87 457.96 793.14 440.13 779.24 431.77 C 764.39 420.86 746.84 413.68 734.00 400.07 C 728.12 394.49 728.56 405.72 724.25 407.33 C 714.51 411.21 708.45 396.40 698.91 402.02 C 691.61 404.19 685.35 389.15 679.25 396.56 C 664.74 400.29 659.14 373.07 646.08 384.97 C 640.43 375.35 626.00 375.09 619.74 383.76 C 594.44 402.73 562.57 410.35 532.66 415.73 C 534.44 445.49 547.46 475.66 551.02 506.12 C 533.78 492.43 538.01 463.97 522.11 448.71 C 522.03 483.59 527.78 518.10 528.91 553.07 C 513.39 547.60 520.00 525.76 510.57 514.55 C 511.42 501.60 505.86 517.65 500.67 511.45 C 498.27 530.06 498.73 553.19 496.61 573.67 C 496.69 577.64 491.85 575.33 490.96 573.02 C 482.67 553.90 492.57 531.00 480.62 513.01 C 473.25 527.90 469.64 545.74 468.82 562.85 C 466.32 570.94 468.69 581.59 462.43 587.99 C 452.97 567.45 462.77 544.48 461.96 523.01 C 461.76 502.43 467.66 482.24 466.82 461.61 C 455.29 494.43 451.07 529.46 443.36 563.36 C 441.00 567.90 442.90 578.64 436.21 578.96 C 433.49 551.20 443.07 523.97 446.55 496.57 C 448.99 482.36 449.53 467.85 452.94 453.80 C 441.59 476.22 440.31 504.00 430.82 527.83 C 429.69 529.87 428.82 533.12 426.02 533.15 C 425.76 505.11 435.56 478.33 438.98 450.77 C 429.47 468.50 431.30 491.73 417.96 507.19 C 418.47 494.62 419.09 482.00 421.72 469.68 C 419.58 474.55 416.94 480.41 412.70 484.65 C 408.92 482.07 419.73 456.07 407.87 466.09 C 409.03 448.27 415.57 430.73 414.91 412.87 C 411.01 419.24 409.26 426.72 404.71 432.74 C 403.43 434.12 402.70 431.74 402.42 430.84 C 402.75 417.86 407.82 405.63 409.09 392.80 C 404.12 401.83 401.07 412.48 394.08 420.04 C 392.55 404.80 404.71 391.06 405.67 375.61 C 408.59 370.76 401.48 378.52 399.78 375.34 C 398.91 367.69 395.70 360.08 397.45 352.01 C 406.67 347.46 417.82 339.91 416.02 327.97 C 411.98 327.68 408.28 330.38 404.30 329.82 C 398.99 325.57 401.71 316.30 407.30 313.30 C 421.30 298.41 439.77 288.50 458.98 281.99 C 471.50 280.06 471.76 257.76 486.46 261.24 C 501.91 259.16 514.84 273.27 529.37 270.58 C 540.88 278.58 554.79 274.40 565.63 267.65 C 589.30 257.97 617.17 256.67 641.16 265.82 C 645.63 268.44 646.46 260.46 651.36 260.38 C 657.09 252.51 671.66 258.15 674.13 248.08 M 681.87 337.92 C 683.04 341.91 686.09 345.06 686.94 349.19 C 684.66 348.11 682.52 346.78 680.23 345.74 C 681.42 354.81 686.17 367.31 697.56 365.62 C 696.06 355.90 693.28 340.21 681.87 337.92 M 672.23 356.61 C 668.16 356.91 664.11 357.44 660.11 358.24 C 657.31 364.83 664.28 369.66 670.08 367.11 C 675.41 366.82 679.70 355.61 672.23 356.61 M 416.15 408.45 C 413.94 412.09 419.85 409.40 416.15 408.45 M 501.97 467.98 C 503.54 474.95 503.44 482.50 506.08 489.19 C 511.97 485.15 508.99 469.17 501.97 467.98 M 484.14 470.72 C 485.90 473.03 480.59 483.07 485.96 481.97 C 485.99 478.17 486.80 473.81 484.14 470.72 Z" />





</svg>
