<?xml version="1.0" encoding="UTF-8" ?>
<!DOCTYPE svg PUBLIC "-//W3C//DTD SVG 1.1//EN" "http://www.w3.org/Graphics/SVG/1.1/DTD/svg11.dtd">
<svg width="1225pt" height="647pt" viewBox="0 0 1225 647" version="1.1" xmlns="http://www.w3.org/2000/svg">

<path fill="#ffffff" opacity="1.00" d=" M 502.33 228.37 C 517.86 230.80 527.77 244.44 537.31 255.68 C 548.25 258.92 554.52 272.88 567.56 271.46 C 581.65 267.54 596.14 263.91 610.91 264.60 C 620.10 261.54 628.94 256.67 635.96 249.88 C 636.11 242.11 647.96 243.98 654.02 242.86 C 652.56 240.19 645.20 234.17 654.74 237.37 C 660.58 239.28 666.73 238.14 672.68 238.29 C 679.27 241.45 685.58 245.29 692.04 248.74 C 687.84 251.72 692.96 255.43 694.49 258.50 C 708.24 275.68 714.37 298.05 730.63 313.37 C 741.17 326.79 746.06 343.76 750.67 359.89 C 747.51 365.68 751.67 370.13 753.70 375.32 C 757.44 397.55 762.51 419.57 766.32 441.81 C 767.71 445.75 772.10 455.74 764.31 453.80 C 751.66 455.69 749.78 440.28 744.88 432.06 C 732.82 412.44 710.01 401.86 694.11 387.05 C 687.14 395.09 675.67 387.86 671.70 380.27 C 663.96 380.54 655.04 376.69 651.57 368.41 C 646.58 370.82 639.51 366.93 640.17 363.27 C 621.25 388.70 591.83 408.78 559.91 410.90 C 552.60 415.26 544.15 415.67 536.13 413.06 C 519.83 418.80 518.37 436.39 520.69 451.69 C 514.91 466.37 528.25 482.16 519.72 495.67 C 517.82 500.36 519.48 511.46 510.53 507.34 C 510.09 513.93 498.32 514.90 500.54 507.28 C 497.04 503.97 489.66 500.01 498.77 497.94 C 499.47 505.56 512.55 504.23 506.79 496.07 C 502.06 496.93 498.01 498.51 494.98 493.01 C 489.05 483.29 503.58 488.33 507.46 484.57 C 519.77 463.37 516.15 437.63 514.77 414.24 C 507.39 410.11 500.02 420.63 491.58 417.63 C 483.22 414.71 484.49 423.65 480.49 427.51 C 474.65 448.82 479.20 471.70 480.81 493.45 C 479.07 500.08 485.40 516.22 473.21 511.02 C 476.98 519.06 464.44 524.75 463.27 513.46 C 470.96 513.03 471.79 500.47 467.28 498.08 C 468.19 506.40 457.35 497.90 457.17 493.10 C 460.20 489.51 467.00 491.82 467.94 485.99 C 474.59 468.25 472.80 447.38 470.62 429.33 C 463.98 441.58 469.55 463.42 460.08 476.28 C 458.81 461.06 461.10 445.70 462.42 430.52 C 460.78 429.83 465.43 422.44 461.24 424.16 C 455.14 451.15 453.16 478.87 448.07 506.02 C 448.25 508.41 445.16 510.65 444.60 507.36 C 442.54 487.49 446.58 467.62 448.90 447.93 C 450.52 437.39 448.24 444.15 447.36 446.51 C 440.56 471.37 439.64 497.64 432.19 522.25 C 426.72 497.76 437.09 471.86 439.05 446.99 C 440.24 443.85 435.81 440.92 437.58 448.80 C 429.53 473.03 429.55 499.59 420.16 523.15 C 418.94 499.28 426.87 475.83 429.56 452.22 C 429.25 451.88 428.61 451.22 428.29 450.88 C 424.78 469.64 419.02 487.87 415.69 506.66 C 415.87 508.72 412.20 513.49 412.20 509.40 C 414.07 495.73 417.91 482.07 418.67 468.36 C 416.34 462.14 419.22 471.66 415.02 471.07 C 418.96 452.01 421.49 432.68 424.38 413.45 C 425.26 408.14 419.39 405.69 417.33 401.70 C 417.95 386.68 426.43 373.36 429.13 358.85 C 425.44 364.31 421.94 369.89 418.23 375.32 C 417.83 376.56 415.71 375.36 416.51 374.30 C 418.63 367.00 422.85 360.48 424.93 353.18 C 422.90 349.99 417.79 358.42 416.85 353.07 C 406.03 349.35 393.12 356.38 381.99 358.02 C 383.11 348.44 398.74 349.75 405.67 345.65 C 411.91 342.51 420.65 334.55 419.86 327.63 C 423.89 318.55 432.50 312.39 436.71 303.68 C 439.92 296.51 425.84 300.32 428.46 293.38 C 437.45 278.95 453.51 270.64 468.12 263.11 C 480.97 252.99 485.72 232.97 502.33 228.37 M 434.45 324.40 C 427.51 328.93 418.44 332.63 415.92 341.14 C 425.11 339.80 433.94 331.59 434.45 324.40 M 683.00 341.86 C 682.36 346.01 686.01 349.09 686.09 353.14 C 681.22 352.07 679.54 346.37 675.02 344.72 C 682.78 352.68 681.87 371.67 696.49 370.61 C 696.13 360.03 692.79 347.34 683.00 341.86 M 478.17 382.11 C 477.49 385.03 476.49 388.41 478.02 391.23 C 480.77 389.21 484.03 380.39 478.17 382.11 Z" />


<path fill="#ffffff" opacity="1.00" d=" M 416.23 356.32 C 420.54 355.68 414.26 361.24 416.23 356.32 Z" />

<path fill="#ffffff" opacity="1.00" d=" M 460.21 507.05 C 464.05 505.63 465.49 513.54 460.88 512.90 C 456.17 514.62 458.29 508.91 460.21 507.05 Z" />
</svg>
