<?xml version="1.0" encoding="UTF-8" ?>
<!DOCTYPE svg PUBLIC "-//W3C//DTD SVG 1.1//EN" "http://www.w3.org/Graphics/SVG/1.1/DTD/svg11.dtd">
<svg width="1225pt" height="647pt" viewBox="0 0 1225 647" version="1.1" xmlns="http://www.w3.org/2000/svg">

<path fill="#ffffff" opacity="1.00" d=" M 502.49 159.61 C 519.77 153.83 533.85 164.28 549.60 168.33 C 555.85 176.16 569.15 170.25 574.97 180.03 C 571.58 200.74 596.83 192.22 608.84 196.47 C 618.00 185.78 632.89 195.24 644.84 195.30 C 657.35 201.07 668.01 186.33 680.16 195.79 C 686.41 200.33 691.41 204.13 683.68 211.64 C 673.12 217.49 659.55 220.26 655.08 233.09 C 649.22 249.67 639.42 265.73 639.07 283.76 C 647.47 285.01 654.42 289.90 660.55 295.47 C 665.70 300.89 676.00 297.94 679.05 305.97 C 681.04 313.41 684.58 320.03 688.53 326.57 C 693.34 335.04 683.91 344.15 689.45 352.47 C 694.27 359.63 691.29 368.36 693.80 376.20 C 691.20 372.25 690.15 366.28 685.06 364.72 C 683.93 368.45 687.98 372.59 686.01 376.07 C 683.53 374.13 681.98 371.11 679.13 369.68 C 680.53 373.17 682.51 376.53 681.95 380.52 C 672.45 384.15 662.93 370.77 653.78 376.78 C 651.32 381.30 646.59 381.01 642.30 380.47 C 635.48 384.15 632.28 391.70 626.46 396.50 C 612.85 408.43 595.35 413.78 578.65 419.61 C 568.09 418.46 557.91 423.04 547.65 423.38 C 539.51 417.76 532.93 426.67 526.94 430.97 C 524.85 447.11 523.72 463.62 523.21 479.88 C 528.42 491.68 520.41 502.04 517.84 513.08 C 510.42 506.04 510.32 518.27 504.07 521.08 C 497.77 510.93 511.66 505.68 513.07 495.95 C 505.30 498.32 501.89 509.04 493.21 511.24 C 494.04 506.02 496.57 501.83 502.08 500.80 C 500.84 497.57 497.80 494.35 493.97 494.73 C 496.30 485.63 508.95 494.49 511.96 485.95 C 522.11 464.63 521.47 442.04 519.79 419.29 C 509.08 416.38 497.94 418.23 487.15 416.81 C 476.62 412.56 470.12 425.97 469.58 434.46 C 466.18 457.60 468.03 480.59 468.68 503.69 C 468.53 509.19 461.94 500.77 461.60 505.72 C 463.57 509.78 456.81 519.12 455.03 511.88 C 452.20 505.08 461.75 497.47 459.11 490.86 C 451.62 489.07 454.86 508.77 447.74 506.29 C 441.30 501.38 457.82 497.66 451.18 492.87 C 448.21 491.69 443.35 487.37 447.78 484.85 C 456.11 484.84 457.99 475.58 460.27 469.37 C 461.25 453.11 466.54 436.89 463.67 420.55 C 462.36 415.56 466.83 409.69 462.29 405.71 C 457.93 399.82 464.88 395.03 470.19 395.13 C 473.39 390.99 477.66 388.11 481.97 385.28 C 477.91 384.04 459.66 378.62 474.02 377.98 C 477.26 377.47 480.73 370.27 476.38 368.60 C 466.93 363.76 472.33 344.84 459.25 346.74 C 449.07 334.41 433.27 347.49 420.64 349.62 C 413.24 351.00 403.51 356.18 399.12 347.77 C 401.76 328.40 428.27 339.08 441.04 334.03 C 445.90 331.75 462.84 335.61 454.99 327.02 C 480.75 325.18 504.94 314.31 528.33 303.99 C 517.47 294.71 502.15 291.22 494.03 278.94 C 494.77 267.15 484.36 260.03 484.31 248.64 C 476.10 242.17 475.51 229.97 464.83 226.15 C 458.47 213.16 471.86 201.45 471.91 188.31 C 456.32 185.83 440.11 191.83 424.26 188.03 C 430.06 182.01 418.38 183.53 414.63 184.62 C 411.19 185.43 410.54 190.50 406.18 189.02 C 411.86 194.31 400.68 191.15 397.78 191.92 C 400.68 186.34 403.57 179.56 409.66 176.78 C 429.96 174.08 450.37 172.34 470.86 171.80 C 480.51 165.42 491.28 162.12 502.49 159.61 M 473.37 327.12 C 465.63 329.17 477.71 329.55 473.37 327.12 M 544.40 406.61 C 534.77 411.47 552.35 409.04 544.40 406.61 Z" />


</svg>
