<?xml version="1.0" encoding="UTF-8" ?>
<!DOCTYPE svg PUBLIC "-//W3C//DTD SVG 1.1//EN" "http://www.w3.org/Graphics/SVG/1.1/DTD/svg11.dtd">
<svg width="1225pt" height="647pt" viewBox="0 0 1225 647" version="1.1" xmlns="http://www.w3.org/2000/svg">

<path fill="#ffffff" opacity="1.00" d=" M 426.30 21.24 C 430.05 22.14 434.92 34.16 439.40 26.21 C 456.15 40.59 471.36 56.99 483.76 75.36 C 483.84 72.19 483.96 69.04 484.15 65.88 C 499.76 78.38 499.35 100.75 510.52 116.40 C 517.49 128.89 526.86 139.97 537.89 149.05 C 544.95 152.56 540.36 161.89 550.98 160.28 C 545.66 171.14 564.79 173.76 561.29 186.01 C 574.47 176.91 584.86 161.54 598.64 151.68 C 604.31 131.86 601.47 110.60 594.91 91.08 C 593.15 82.88 591.81 65.96 599.67 65.41 C 597.87 52.83 604.52 59.99 608.75 64.36 C 609.37 61.11 606.78 56.91 609.08 53.94 C 615.26 55.97 617.36 67.72 624.02 60.96 C 639.15 71.91 643.32 94.36 659.98 103.92 C 666.60 96.49 670.91 110.16 673.93 115.15 C 682.89 130.66 679.85 152.16 694.85 164.14 C 704.84 174.74 715.98 190.38 707.15 205.20 C 697.76 220.84 677.69 226.24 669.03 243.02 C 659.26 258.39 648.56 274.35 646.17 292.71 C 654.81 296.28 660.98 303.37 668.16 308.76 C 683.88 309.85 682.73 329.15 691.46 338.58 C 688.38 357.25 694.68 374.19 697.89 392.34 C 695.95 387.86 690.46 372.37 687.01 378.98 C 687.38 382.71 690.91 385.32 691.11 389.12 C 687.19 388.14 685.53 383.70 682.18 381.66 C 683.63 385.23 685.39 388.72 685.00 392.76 C 673.13 393.39 661.46 378.44 650.39 388.42 C 638.01 386.21 631.46 399.11 622.68 405.67 C 603.68 420.19 579.56 422.56 557.02 426.77 C 548.09 423.84 541.32 429.64 535.69 435.71 C 534.11 456.56 531.25 478.20 536.56 498.56 C 531.87 503.56 535.07 514.96 529.17 516.74 C 521.69 510.50 523.75 528.15 516.34 524.68 C 511.21 515.31 522.93 512.87 524.41 504.53 C 526.93 495.92 519.04 508.40 515.59 506.52 C 512.89 503.69 503.41 497.04 511.12 495.23 C 529.90 499.24 527.49 472.94 530.75 462.53 C 534.23 462.06 526.04 457.72 530.78 455.72 C 530.19 447.30 528.33 436.56 528.15 426.68 C 515.27 421.59 499.71 426.50 486.09 423.06 C 469.91 430.73 474.63 451.58 472.76 465.96 C 469.56 481.66 476.97 497.54 474.83 512.88 C 465.14 506.50 471.89 518.34 464.95 521.07 C 454.56 517.42 473.34 498.56 462.31 498.18 C 463.52 509.14 450.46 497.19 453.34 492.46 C 465.40 491.25 465.09 474.56 466.71 465.60 C 469.43 446.74 469.72 427.12 465.05 409.14 C 467.11 401.95 476.82 404.94 479.29 397.31 C 492.22 394.67 479.38 383.18 472.62 381.46 C 477.44 382.33 488.63 379.36 481.73 373.35 C 472.17 365.10 474.77 348.99 460.36 343.63 C 447.64 336.81 433.69 349.97 420.34 349.40 C 408.14 355.28 401.63 334.31 412.38 330.30 C 428.10 329.30 443.89 330.64 459.60 329.80 C 458.34 321.31 467.99 323.15 472.98 322.99 C 495.84 325.14 517.28 314.48 537.40 305.27 C 521.08 305.02 497.75 302.42 492.10 283.91 C 488.87 276.33 491.74 268.20 497.03 263.05 C 489.30 255.80 484.01 243.99 489.68 233.88 C 483.10 226.88 477.23 219.09 475.67 209.30 C 465.92 202.70 455.84 191.17 460.18 178.51 C 457.43 154.76 470.90 129.62 457.38 107.66 C 448.08 84.01 433.10 63.24 422.90 40.11 C 421.36 33.93 418.82 24.59 426.30 21.24 M 485.22 326.08 C 482.11 330.75 491.74 325.34 485.22 326.08 M 463.98 337.00 C 462.81 341.57 470.85 337.10 472.02 339.00 C 473.22 334.45 465.08 338.85 463.98 337.00 M 549.18 412.01 C 542.45 418.92 556.87 414.59 549.18 412.01 Z" />


<path fill="#ffffff" opacity="1.00" d=" M 698.10 397.26 C 701.37 397.44 696.56 400.29 698.10 397.26 Z" />

<path fill="#ffffff" opacity="1.00" d=" M 457.32 507.41 C 460.39 508.90 457.70 514.49 454.05 515.32 C 452.31 511.30 454.24 508.77 457.32 507.41 Z" />
<path fill="#ffffff" opacity="1.00" d=" M 511.48 508.46 C 524.42 503.97 503.05 525.21 507.09 511.17 C 507.15 509.25 510.05 509.17 511.48 508.46 Z" />
</svg>
