<?xml version="1.0" encoding="UTF-8" ?>
<!DOCTYPE svg PUBLIC "-//W3C//DTD SVG 1.1//EN" "http://www.w3.org/Graphics/SVG/1.1/DTD/svg11.dtd">
<svg width="1225pt" height="647pt" viewBox="0 0 1225 647" version="1.1" xmlns="http://www.w3.org/2000/svg">

<path fill="#ffffff" opacity="1.00" d=" M 603.46 272.54 C 622.33 269.22 642.72 275.11 656.37 288.61 C 662.55 291.00 667.47 300.67 674.39 297.69 C 677.79 298.88 680.81 303.25 684.63 300.75 C 698.69 300.27 712.26 310.12 726.61 306.62 C 744.40 309.29 762.22 309.05 779.99 311.99 C 793.44 313.95 808.20 309.15 820.33 317.49 C 835.11 314.91 843.46 330.07 858.53 326.45 C 865.78 336.45 878.48 331.52 888.57 332.20 C 890.73 342.64 904.51 341.51 912.00 337.58 C 916.14 338.76 912.14 343.10 916.96 346.02 C 922.30 353.36 931.65 352.67 939.81 355.32 C 938.57 359.90 933.35 368.28 943.03 365.92 C 945.79 364.82 957.86 367.20 950.48 370.62 C 943.16 374.47 935.15 376.75 927.36 379.41 C 925.07 382.83 926.65 384.52 930.42 384.77 C 909.08 386.94 887.35 386.54 866.57 380.57 C 858.03 377.68 850.83 370.81 841.00 372.90 C 820.12 367.03 801.54 354.65 780.70 348.28 C 760.33 340.27 738.49 337.84 717.86 330.21 C 708.43 327.67 698.84 324.69 688.97 325.01 C 690.80 329.27 690.94 335.33 696.13 336.90 C 701.24 346.58 699.74 357.51 699.20 368.02 C 703.23 381.83 708.91 395.42 709.92 410.17 C 705.77 406.37 693.91 390.97 696.84 403.90 C 684.15 399.06 672.27 388.75 658.23 390.23 C 649.79 394.10 640.38 387.07 631.28 388.24 C 621.06 398.48 606.40 401.81 594.53 409.36 C 591.55 419.90 581.57 425.38 572.09 429.11 C 563.76 437.71 556.76 449.89 563.01 461.88 C 567.67 476.30 569.27 492.03 578.16 504.86 C 578.56 512.96 579.13 521.84 577.84 529.71 C 569.73 526.09 572.77 537.31 566.98 540.17 C 557.14 534.01 571.73 521.91 568.06 514.99 C 561.76 517.35 562.18 527.65 556.71 531.75 C 551.40 534.04 553.35 524.92 557.00 523.99 C 562.70 520.55 551.56 519.44 551.14 516.00 C 552.21 509.64 563.42 513.18 564.34 506.36 C 567.36 493.81 564.28 481.31 561.50 469.10 C 560.73 458.99 551.55 450.74 551.47 439.54 C 547.79 434.19 556.45 426.09 548.74 424.04 C 552.31 422.44 554.27 419.22 555.93 415.85 C 538.58 416.17 524.68 426.72 508.30 430.26 C 497.04 449.36 510.10 469.75 512.63 489.36 C 518.52 499.51 519.31 511.53 524.71 522.21 C 528.43 530.17 521.99 527.47 518.07 527.06 C 519.79 530.82 518.18 541.15 512.73 536.27 C 509.84 529.19 514.87 519.50 510.27 512.75 C 504.93 508.42 511.00 525.67 502.32 519.84 C 498.06 517.53 500.37 512.60 503.64 510.64 C 508.78 491.57 502.19 471.45 499.89 452.04 C 493.43 442.76 495.35 430.74 487.24 422.64 C 486.95 414.94 496.93 411.79 498.62 403.68 C 506.08 397.01 492.58 393.70 495.47 386.62 C 495.68 382.55 494.59 375.52 489.16 375.97 C 476.91 388.03 461.66 397.64 453.09 412.98 C 450.23 427.77 437.82 438.60 423.25 441.53 C 407.15 450.06 387.61 449.51 370.52 444.44 C 359.63 434.02 344.97 430.49 331.83 424.11 C 321.97 415.54 307.96 415.88 296.61 410.44 C 296.71 400.74 275.39 406.53 283.13 396.24 C 281.71 390.88 253.87 394.09 266.06 384.90 C 262.83 381.90 259.44 379.41 264.21 375.21 C 266.29 371.82 272.31 374.62 273.41 370.54 C 271.94 362.50 282.96 363.51 284.00 356.75 C 288.28 353.95 294.56 353.92 299.64 352.67 C 297.90 342.70 311.32 343.77 313.78 335.81 C 320.29 334.96 327.79 335.63 334.04 332.04 C 360.20 327.51 387.34 328.74 412.97 320.98 C 443.22 316.46 473.65 313.57 504.08 310.14 C 537.87 299.49 567.69 276.74 603.46 272.54 M 698.31 388.31 C 697.50 394.29 704.29 387.50 698.31 388.31 M 692.14 392.37 C 691.33 396.34 696.13 391.72 692.14 392.37 M 288.18 396.48 C 288.41 400.84 292.84 395.29 288.18 396.48 Z" />
<path fill="#ffffff" opacity="1.00" d=" M 926.29 348.41 C 932.14 346.71 927.16 353.43 926.29 348.41 Z" />



<path fill="#ffffff" opacity="1.00" d=" M 505.25 524.31 C 507.73 524.66 509.07 529.57 505.75 530.79 C 502.10 532.16 501.29 524.32 505.25 524.31 Z" />
</svg>
