<?xml version="1.0" encoding="UTF-8" ?>
<!DOCTYPE svg PUBLIC "-//W3C//DTD SVG 1.1//EN" "http://www.w3.org/Graphics/SVG/1.1/DTD/svg11.dtd">
<svg width="1225pt" height="647pt" viewBox="0 0 1225 647" version="1.1" xmlns="http://www.w3.org/2000/svg">

<path fill="#ffffff" opacity="1.00" d=" M 694.13 253.07 C 705.76 257.73 719.32 251.24 728.61 263.41 C 736.75 278.00 748.63 291.15 752.07 308.00 C 766.45 330.61 780.51 354.71 789.46 380.67 C 791.99 394.14 793.50 407.19 796.03 421.04 C 789.74 420.49 783.34 417.61 777.15 420.20 C 772.73 422.88 774.55 411.11 771.62 415.64 C 763.69 405.48 755.68 395.32 747.96 385.13 C 744.22 368.15 721.90 378.31 710.78 370.32 C 700.47 365.46 714.10 379.61 705.64 382.70 C 706.22 387.43 706.82 392.56 702.60 396.75 C 686.84 394.02 672.66 376.53 655.98 384.02 C 639.53 379.28 630.94 398.78 615.96 401.84 C 601.42 405.57 588.34 412.35 576.83 421.77 C 564.96 422.73 552.07 431.37 554.37 444.65 C 560.74 460.71 563.44 478.39 573.04 492.97 C 576.83 500.99 574.32 510.41 575.97 519.00 C 576.30 527.28 564.54 511.08 567.85 523.97 C 568.04 534.52 558.66 530.56 559.30 523.34 C 563.46 517.75 565.35 510.73 563.87 503.88 C 558.41 509.74 558.25 520.21 550.16 523.20 C 547.82 518.19 549.33 515.42 553.91 514.69 C 555.09 510.18 547.04 510.13 549.05 505.24 C 552.25 503.16 556.02 502.21 559.29 500.27 C 564.21 486.10 556.16 471.52 555.13 458.21 C 549.71 448.49 541.62 435.51 543.49 422.68 C 537.35 431.05 529.83 439.04 519.72 442.86 C 515.09 466.70 526.17 492.20 537.00 513.98 C 537.09 524.56 544.15 533.38 544.89 543.75 C 543.22 545.87 540.43 542.76 538.20 542.84 C 539.63 547.29 537.64 551.60 536.71 555.92 C 524.85 550.42 534.45 535.93 529.88 526.92 C 523.76 531.99 530.99 544.57 524.00 548.97 C 517.13 542.89 515.88 530.51 523.80 523.80 C 524.26 492.92 512.88 462.30 498.00 435.99 C 504.44 428.50 505.53 417.44 507.77 408.29 C 502.45 403.94 502.50 397.99 503.59 391.29 C 497.30 388.32 499.83 380.87 496.09 376.75 C 489.16 386.57 491.07 399.36 488.58 410.65 C 477.81 435.04 477.32 462.64 466.96 487.19 C 452.76 472.01 476.93 446.52 465.03 430.73 C 449.79 458.43 441.92 489.48 427.64 517.64 C 426.55 519.18 423.07 521.37 422.19 518.65 C 422.85 492.12 437.05 468.43 442.96 443.06 C 442.21 439.72 436.24 441.97 436.14 445.09 C 421.73 470.42 407.60 495.90 393.03 521.16 C 390.55 523.58 389.72 529.85 385.21 528.93 C 383.01 525.47 385.18 521.53 386.05 518.01 C 394.75 494.43 408.35 473.07 417.81 449.82 C 418.79 447.47 417.66 445.34 415.12 445.12 C 394.46 472.09 377.23 501.60 355.93 528.09 C 353.88 510.60 369.64 496.69 376.89 481.96 C 381.93 471.26 390.98 462.71 394.99 451.57 C 392.92 450.83 390.28 449.48 388.45 451.44 C 373.56 467.74 362.47 487.12 347.26 503.13 C 346.16 504.80 345.32 502.42 344.48 501.71 C 347.51 490.60 360.04 483.70 359.71 471.68 C 361.11 462.66 366.40 454.83 369.98 446.87 C 367.05 443.65 362.38 458.51 359.06 450.95 C 363.25 440.68 364.97 429.92 366.94 418.97 C 372.80 407.67 379.46 396.82 383.75 384.72 C 382.76 365.71 398.51 349.64 411.80 337.80 C 421.59 317.14 444.93 308.65 461.84 294.79 C 479.50 287.11 484.38 265.66 501.69 257.71 C 512.30 249.14 523.72 262.19 533.08 266.92 C 543.94 275.91 557.20 280.59 570.21 285.50 C 594.45 275.93 621.88 272.27 647.09 280.83 C 659.75 278.68 670.36 269.86 679.24 261.20 C 685.45 258.62 695.49 262.22 694.13 253.07 M 553.10 450.26 C 551.56 453.29 556.37 450.44 553.10 450.26 M 521.13 536.08 C 516.03 543.14 526.72 539.85 521.13 536.08 Z" />


</svg>
